<svg xmlns="http://www.w3.org/2000/svg" viewBox="0 0 720 1080" style="background:white; font-family:'Segoe UI',Arial,sans-serif;">
<defs>
  <marker id="a" viewBox="0 0 10 10" refX="9" refY="5" markerWidth="5" markerHeight="5" orient="auto">
    <path d="M0,1 L9,5 L0,9z" fill="#374151"/>
  </marker>
  <marker id="ar" viewBox="0 0 10 10" refX="9" refY="5" markerWidth="5" markerHeight="5" orient="auto">
    <path d="M0,1 L9,5 L0,9z" fill="#B91C1C"/>
  </marker>
  <marker id="ap" viewBox="0 0 10 10" refX="9" refY="5" markerWidth="5" markerHeight="5" orient="auto">
    <path d="M0,1 L9,5 L0,9z" fill="#5B21B6"/>
  </marker>
</defs>

<!-- ═══ FAZA 1: BLE ═══ -->
<rect x="0" y="0" width="720" height="24" fill="#1D4ED8" rx="3"/>
<text x="360" y="16" text-anchor="middle" fill="white" font-weight="bold" font-size="11.5">FAZA 1 — CONECTARE BLE (BleConnectionService)</text>

<rect x="210" y="30" width="300" height="30" rx="6" fill="#DBEAFE" stroke="#1D4ED8" stroke-width="1.5"/>
<text x="360" y="49" text-anchor="middle" fill="#1E3A8A" font-weight="600" font-size="11">Scanare și Conectare BLE</text>

<line x1="360" y1="60" x2="360" y2="74" stroke="#374151" stroke-width="1.5" marker-end="url(#a)"/>

<!-- Diamond: Disponibil? cy=97 -->
<polygon points="360,74 468,97 360,120 252,97" fill="#DBEAFE" stroke="#1D4ED8" stroke-width="1.5"/>
<text x="360" y="93" text-anchor="middle" fill="#1E3A8A" font-size="10">Dispozitiv și servicii</text>
<text x="360" y="106" text-anchor="middle" fill="#1E3A8A" font-size="10">disponibile?</text>

<line x1="468" y1="97" x2="554" y2="97" stroke="#B91C1C" stroke-width="1.5" marker-end="url(#ar)"/>
<text x="510" y="91" text-anchor="middle" fill="#B91C1C" font-size="9">NU</text>
<rect x="554" y="83" width="152" height="28" rx="5" fill="#FEE2E2" stroke="#B91C1C" stroke-width="1.5"/>
<text x="630" y="101" text-anchor="middle" fill="#B91C1C" font-size="10" font-weight="600">Reîncercare automată</text>
<line x1="706" y1="97" x2="714" y2="97" stroke="#B91C1C" stroke-width="1.5"/>
<line x1="714" y1="97" x2="714" y2="45" stroke="#B91C1C" stroke-width="1.5"/>
<line x1="714" y1="45" x2="510" y2="45" stroke="#B91C1C" stroke-width="1.5" marker-end="url(#ar)"/>

<line x1="360" y1="120" x2="360" y2="133" stroke="#374151" stroke-width="1.5" marker-end="url(#a)"/>
<text x="366" y="130" fill="#15803D" font-size="9">DA</text>

<rect x="210" y="133" width="300" height="30" rx="6" fill="#DBEAFE" stroke="#1D4ED8" stroke-width="1.5"/>
<text x="360" y="152" text-anchor="middle" fill="#1E3A8A" font-weight="600" font-size="11">Activare Notificări GATT</text>

<line x1="360" y1="163" x2="360" y2="176" stroke="#374151" stroke-width="1.5" marker-end="url(#a)"/>

<!-- ═══ FAZA 2: CALIBRARE ═══ -->
<rect x="0" y="176" width="720" height="24" fill="#15803D" rx="3"/>
<text x="360" y="192" text-anchor="middle" fill="white" font-weight="bold" font-size="11.5">FAZA 2 — CALIBRARE (CalibrationWindow)</text>

<rect x="210" y="206" width="300" height="30" rx="6" fill="#DCFCE7" stroke="#15803D" stroke-width="1.5"/>
<text x="360" y="225" text-anchor="middle" fill="#14532D" font-weight="600" font-size="11">Pas 1: Instrucțiuni atașare electrozi</text>

<line x1="360" y1="236" x2="360" y2="250" stroke="#374151" stroke-width="1.5" marker-end="url(#a)"/>

<!-- Diamond: Continuă? cy=271 -->
<polygon points="360,250 452,271 360,292 268,271" fill="#DCFCE7" stroke="#15803D" stroke-width="1.5"/>
<text x="360" y="275" text-anchor="middle" fill="#14532D" font-size="10">Utilizatorul continuă?</text>

<line x1="268" y1="271" x2="188" y2="271" stroke="#B91C1C" stroke-width="1.5" marker-end="url(#ar)"/>
<text x="228" y="265" text-anchor="middle" fill="#B91C1C" font-size="9">NU</text>
<rect x="18" y="257" width="170" height="28" rx="14" fill="#B91C1C"/>
<text x="103" y="275" text-anchor="middle" fill="white" font-weight="bold" font-size="11">SHUTDOWN</text>

<line x1="360" y1="292" x2="360" y2="305" stroke="#374151" stroke-width="1.5" marker-end="url(#a)"/>
<text x="366" y="302" fill="#15803D" font-size="9">DA</text>

<rect x="210" y="305" width="300" height="30" rx="6" fill="#DCFCE7" stroke="#15803D" stroke-width="1.5"/>
<text x="360" y="324" text-anchor="middle" fill="#14532D" font-weight="600" font-size="11">Pas 2: Verificare automată semnal</text>

<line x1="360" y1="335" x2="360" y2="349" stroke="#374151" stroke-width="1.5" marker-end="url(#a)"/>

<!-- Diamond: Calibrare reușită? cy=370 -->
<polygon points="360,349 456,370 360,391 264,370" fill="#DCFCE7" stroke="#15803D" stroke-width="1.5"/>
<text x="360" y="374" text-anchor="middle" fill="#14532D" font-size="10">Calibrare reușită?</text>

<line x1="264" y1="370" x2="188" y2="370" stroke="#B91C1C" stroke-width="1.5" marker-end="url(#ar)"/>
<text x="226" y="364" text-anchor="middle" fill="#B91C1C" font-size="9">NU</text>
<rect x="18" y="356" width="170" height="28" rx="5" fill="#FEE2E2" stroke="#B91C1C" stroke-width="1.5"/>
<text x="103" y="374" text-anchor="middle" fill="#B91C1C" font-size="10" font-weight="600">Repoziționare electrozi</text>
<line x1="18" y1="370" x2="7" y2="370" stroke="#B91C1C" stroke-width="1.5"/>
<line x1="7" y1="370" x2="7" y2="320" stroke="#B91C1C" stroke-width="1.5"/>
<line x1="7" y1="320" x2="210" y2="320" stroke="#B91C1C" stroke-width="1.5" marker-end="url(#ar)"/>

<line x1="360" y1="391" x2="360" y2="404" stroke="#374151" stroke-width="1.5" marker-end="url(#a)"/>
<text x="366" y="401" fill="#15803D" font-size="9">DA</text>

<!-- ═══ FAZA 3: DATE PACIENT ═══ -->
<rect x="0" y="404" width="720" height="24" fill="#B45309" rx="3"/>
<text x="360" y="420" text-anchor="middle" fill="white" font-weight="bold" font-size="11.5">FAZA 3 — DATE PACIENT (PatientDialog)</text>

<rect x="185" y="434" width="350" height="30" rx="6" fill="#FEF3C7" stroke="#B45309" stroke-width="1.5"/>
<text x="360" y="453" text-anchor="middle" fill="#78350F" font-weight="600" font-size="11">Introducere date pacient (opțional)</text>

<line x1="360" y1="464" x2="360" y2="477" stroke="#374151" stroke-width="1.5" marker-end="url(#a)"/>

<!-- ═══ FAZA 4: MONITORIZARE ═══ -->
<rect x="0" y="477" width="720" height="24" fill="#5B21B6" rx="3"/>
<text x="360" y="493" text-anchor="middle" fill="white" font-weight="bold" font-size="11.5">FAZA 4 — MONITORIZARE LIVE (MainWindow)</text>

<rect x="175" y="507" width="370" height="30" rx="6" fill="#EDE9FE" stroke="#5B21B6" stroke-width="1.5"/>
<text x="360" y="526" text-anchor="middle" fill="#4C1D95" font-weight="600" font-size="11">Inițializare grafic + pornire timere</text>

<line x1="360" y1="537" x2="360" y2="550" stroke="#5B21B6" stroke-width="1.5" marker-end="url(#ap)"/>

<!-- Dashed loop: y=550, h=192 -->
<rect x="142" y="550" width="436" height="192" rx="8" fill="#F5F3FF" stroke="#5B21B6" stroke-width="1.5" stroke-dasharray="6,4"/>
<text x="360" y="563" text-anchor="middle" fill="#5B21B6" font-size="9" font-style="italic">Buclă continuă — Timer Tick (30 ms)</text>

<rect x="185" y="568" width="350" height="28" rx="5" fill="#EDE9FE" stroke="#5B21B6" stroke-width="1.5"/>
<text x="360" y="586" text-anchor="middle" fill="#4C1D95" font-weight="600" font-size="11">Primire date ECG via BLE</text>
<line x1="360" y1="596" x2="360" y2="608" stroke="#5B21B6" stroke-width="1.5" marker-end="url(#ap)"/>

<rect x="185" y="608" width="350" height="28" rx="5" fill="#EDE9FE" stroke="#5B21B6" stroke-width="1.5"/>
<text x="360" y="626" text-anchor="middle" fill="#4C1D95" font-weight="600" font-size="11">Afișare traseu ECG live</text>
<line x1="360" y1="636" x2="360" y2="648" stroke="#5B21B6" stroke-width="1.5" marker-end="url(#ap)"/>

<rect x="185" y="648" width="350" height="28" rx="5" fill="#EDE9FE" stroke="#5B21B6" stroke-width="1.5"/>
<text x="360" y="666" text-anchor="middle" fill="#4C1D95" font-weight="600" font-size="11">Analiză PQRST + Calcul parametri</text>
<line x1="360" y1="676" x2="360" y2="688" stroke="#5B21B6" stroke-width="1.5" marker-end="url(#ap)"/>

<rect x="185" y="688" width="350" height="28" rx="5" fill="#EDE9FE" stroke="#5B21B6" stroke-width="1.5"/>
<text x="360" y="706" text-anchor="middle" fill="#4C1D95" font-weight="600" font-size="11">Clasificare ritm + Calitate semnal</text>

<!-- Loop back arrow -->
<line x1="360" y1="716" x2="360" y2="734" stroke="#5B21B6" stroke-width="1.5"/>
<line x1="360" y1="734" x2="150" y2="734" stroke="#5B21B6" stroke-width="1.5"/>
<line x1="150" y1="734" x2="150" y2="582" stroke="#5B21B6" stroke-width="1.5"/>
<line x1="150" y1="582" x2="185" y2="582" stroke="#5B21B6" stroke-width="1.5" marker-end="url(#ap)"/>

<!-- Exit arrow from loop bottom -->
<line x1="360" y1="742" x2="360" y2="758" stroke="#374151" stroke-width="1.5" stroke-dasharray="4,3" marker-end="url(#a)"/>
<text x="375" y="753" fill="#374151" font-size="8.5" font-style="italic">Finalizare sesiune</text>

<!-- ═══ EXPORT ȘI ISTORIC ═══ -->
<rect x="0" y="758" width="720" height="24" fill="#0F766E" rx="3"/>
<text x="360" y="774" text-anchor="middle" fill="white" font-weight="bold" font-size="11.5">EXPORT ȘI ISTORIC</text>

<!-- Three boxes -->
<rect x="14" y="788" width="210" height="30" rx="6" fill="#CCFBF1" stroke="#0F766E" stroke-width="1.5"/>
<text x="119" y="807" text-anchor="middle" fill="#134E4A" font-weight="600" font-size="11">Generare raport PDF</text>

<line x1="224" y1="803" x2="252" y2="803" stroke="#374151" stroke-width="1.5" marker-end="url(#a)"/>

<rect x="252" y="788" width="216" height="30" rx="6" fill="#CCFBF1" stroke="#0F766E" stroke-width="1.5"/>
<text x="360" y="807" text-anchor="middle" fill="#134E4A" font-weight="600" font-size="11">Salvare sesiune locală</text>

<line x1="468" y1="803" x2="496" y2="803" stroke="#374151" stroke-width="1.5" marker-end="url(#a)"/>

<rect x="496" y="788" width="210" height="30" rx="6" fill="#CCFBF1" stroke="#0F766E" stroke-width="1.5"/>
<text x="601" y="807" text-anchor="middle" fill="#134E4A" font-weight="600" font-size="11">Fereastra de Istoric</text>

<!-- ═══ MONITORIZARE CONTINUĂ ÎN FUNDAL ═══ -->
<rect x="0" y="830" width="720" height="24" fill="#1C1917" rx="3"/>
<text x="360" y="846" text-anchor="middle" fill="white" font-weight="bold" font-size="11">MONITORIZARE CONTINUĂ ÎN FUNDAL</text>

<!-- LEFT PANEL: BLE Reconnect -->
<rect x="8" y="860" width="348" height="22" rx="4" fill="#7F1D1D"/>
<text x="182" y="875" text-anchor="middle" fill="white" font-size="10" font-weight="bold">Monitorizare Conexiune BLE</text>

<rect x="64" y="888" width="236" height="26" rx="5" fill="#FEE2E2" stroke="#B91C1C" stroke-width="1.5"/>
<text x="182" y="905" text-anchor="middle" fill="#7F1D1D" font-size="10" font-weight="600">Deconectare detectată (event)</text>
<line x1="182" y1="914" x2="182" y2="926" stroke="#374151" stroke-width="1.5" marker-end="url(#a)"/>

<polygon points="182,926 252,942 182,958 112,942" fill="#FEE2E2" stroke="#B91C1C" stroke-width="1.5"/>
<text x="182" y="946" text-anchor="middle" fill="#7F1D1D" font-size="9">BLE deconectat?</text>
<line x1="182" y1="958" x2="182" y2="970" stroke="#374151" stroke-width="1.5" marker-end="url(#a)"/>
<text x="190" y="966" fill="#15803D" font-size="8">DA</text>

<rect x="64" y="970" width="236" height="26" rx="5" fill="#FEE2E2" stroke="#B91C1C" stroke-width="1.5"/>
<text x="182" y="987" text-anchor="middle" fill="#7F1D1D" font-size="10" font-weight="600">Overlay + ReconnectLoop()</text>
<line x1="182" y1="996" x2="182" y2="1008" stroke="#374151" stroke-width="1.5" marker-end="url(#a)"/>

<rect x="64" y="1008" width="236" height="26" rx="5" fill="#FEE2E2" stroke="#B91C1C" stroke-width="1.5"/>
<text x="182" y="1025" text-anchor="middle" fill="#7F1D1D" font-size="10" font-weight="600">Recalibrare offset + Reluare sesiune</text>

<!-- RIGHT PANEL: Electrode Quality -->
<rect x="364" y="860" width="348" height="22" rx="4" fill="#78350F"/>
<text x="538" y="875" text-anchor="middle" fill="white" font-size="10" font-weight="bold">Alertă Electrozi — Calitate Semnal</text>

<rect x="420" y="888" width="236" height="26" rx="5" fill="#FEF3C7" stroke="#B45309" stroke-width="1.5"/>
<text x="538" y="905" text-anchor="middle" fill="#78350F" font-size="10" font-weight="600">Verificare la fiecare 90 secunde</text>
<line x1="538" y1="914" x2="538" y2="926" stroke="#374151" stroke-width="1.5" marker-end="url(#a)"/>

<polygon points="538,926 612,942 538,958 464,942" fill="#FEF3C7" stroke="#B45309" stroke-width="1.5"/>
<text x="538" y="946" text-anchor="middle" fill="#78350F" font-size="9">Semnal saturat (&gt;±165 mV)?</text>
<line x1="538" y1="958" x2="538" y2="970" stroke="#374151" stroke-width="1.5" marker-end="url(#a)"/>
<text x="546" y="966" fill="#15803D" font-size="8">DA</text>

<rect x="420" y="970" width="236" height="26" rx="5" fill="#FEF3C7" stroke="#B45309" stroke-width="1.5"/>
<text x="538" y="987" text-anchor="middle" fill="#78350F" font-size="10" font-weight="600">Alertă pop-up electrozi</text>
<line x1="538" y1="996" x2="538" y2="1008" stroke="#374151" stroke-width="1.5" marker-end="url(#a)"/>

<rect x="420" y="1008" width="236" height="26" rx="5" fill="#FEF3C7" stroke="#B45309" stroke-width="1.5"/>
<text x="538" y="1025" text-anchor="middle" fill="#78350F" font-size="10" font-weight="600">Calitate evaluată la fiecare 30 ms</text>

</svg>
