%TF.GenerationSoftware,KiCad,Pcbnew,9.0.7*%
%TF.CreationDate,2026-06-12T19:57:54+03:00*%
%TF.ProjectId,PCB,5043422e-6b69-4636-9164-5f7063625858,rev?*%
%TF.SameCoordinates,Original*%
%TF.FileFunction,Paste,Bot*%
%TF.FilePolarity,Positive*%
%FSLAX46Y46*%
G04 Gerber Fmt 4.6, Leading zero omitted, Abs format (unit mm)*
G04 Created by KiCad (PCBNEW 9.0.7) date 2026-06-12 19:57:54*
%MOMM*%
%LPD*%
G01*
G04 APERTURE LIST*
G04 Aperture macros list*
%AMRoundRect*
0 Rectangle with rounded corners*
0 $1 Rounding radius*
0 $2 $3 $4 $5 $6 $7 $8 $9 X,Y pos of 4 corners*
0 Add a 4 corners polygon primitive as box body*
4,1,4,$2,$3,$4,$5,$6,$7,$8,$9,$2,$3,0*
0 Add four circle primitives for the rounded corners*
1,1,$1+$1,$2,$3*
1,1,$1+$1,$4,$5*
1,1,$1+$1,$6,$7*
1,1,$1+$1,$8,$9*
0 Add four rect primitives between the rounded corners*
20,1,$1+$1,$2,$3,$4,$5,0*
20,1,$1+$1,$4,$5,$6,$7,0*
20,1,$1+$1,$6,$7,$8,$9,0*
20,1,$1+$1,$8,$9,$2,$3,0*%
G04 Aperture macros list end*
%ADD10RoundRect,0.250000X-0.445000X0.545000X-0.445000X-0.545000X0.445000X-0.545000X0.445000X0.545000X0*%
%ADD11RoundRect,0.250000X-0.650000X0.412500X-0.650000X-0.412500X0.650000X-0.412500X0.650000X0.412500X0*%
%ADD12R,0.508000X0.965200*%
%ADD13RoundRect,0.250000X0.650000X-0.412500X0.650000X0.412500X-0.650000X0.412500X-0.650000X-0.412500X0*%
%ADD14RoundRect,0.250000X0.625000X-0.400000X0.625000X0.400000X-0.625000X0.400000X-0.625000X-0.400000X0*%
%ADD15RoundRect,0.250000X0.400000X0.625000X-0.400000X0.625000X-0.400000X-0.625000X0.400000X-0.625000X0*%
%ADD16RoundRect,0.250000X-0.625000X0.400000X-0.625000X-0.400000X0.625000X-0.400000X0.625000X0.400000X0*%
G04 APERTURE END LIST*
D10*
%TO.C,C21*%
X159937500Y-85497500D03*
X159937500Y-88377500D03*
%TD*%
D11*
%TO.C,C4*%
X131986400Y-78637499D03*
X131986400Y-81762499D03*
%TD*%
D12*
%TO.C,D3*%
X130352499Y-85759400D03*
X128522501Y-85759400D03*
X129437500Y-83919800D03*
%TD*%
D13*
%TO.C,C20*%
X160437500Y-83125000D03*
X160437500Y-80000000D03*
%TD*%
D12*
%TO.C,D5*%
X132522501Y-75080200D03*
X134352499Y-75080200D03*
X133437500Y-76919800D03*
%TD*%
D14*
%TO.C,R9*%
X103143500Y-102769600D03*
X103143500Y-99669600D03*
%TD*%
D11*
%TO.C,C2*%
X170343300Y-97276001D03*
X170343300Y-100401001D03*
%TD*%
D13*
%TO.C,C19*%
X151937500Y-83562500D03*
X151937500Y-80437500D03*
%TD*%
%TO.C,C3*%
X104013500Y-97052100D03*
X104013500Y-93927100D03*
%TD*%
%TO.C,C16*%
X154937500Y-84062500D03*
X154937500Y-80937500D03*
%TD*%
D15*
%TO.C,R11*%
X119137500Y-101000000D03*
X116037500Y-101000000D03*
%TD*%
D14*
%TO.C,R14*%
X116437500Y-98550000D03*
X116437500Y-95450000D03*
%TD*%
D16*
%TO.C,R28*%
X145937500Y-94450000D03*
X145937500Y-97550000D03*
%TD*%
D10*
%TO.C,C18*%
X151937500Y-85560000D03*
X151937500Y-88440000D03*
%TD*%
D16*
%TO.C,R24*%
X136937500Y-92450000D03*
X136937500Y-95550000D03*
%TD*%
D12*
%TO.C,D2*%
X134267498Y-85839600D03*
X132437500Y-85839600D03*
X133352499Y-84000000D03*
%TD*%
D11*
%TO.C,C17*%
X157437500Y-84437500D03*
X157437500Y-87562500D03*
%TD*%
D14*
%TO.C,R15*%
X119437500Y-98550000D03*
X119437500Y-95450000D03*
%TD*%
D11*
%TO.C,C1*%
X173270400Y-97276001D03*
X173270400Y-100401001D03*
%TD*%
D12*
%TO.C,D4*%
X128607502Y-75000000D03*
X130437500Y-75000000D03*
X129522501Y-76839600D03*
%TD*%
D13*
%TO.C,C12*%
X134067500Y-100562500D03*
X134067500Y-97437500D03*
%TD*%
M02*
