%TF.GenerationSoftware,KiCad,Pcbnew,9.0.7*%
%TF.CreationDate,2026-06-12T19:57:53+03:00*%
%TF.ProjectId,PCB,5043422e-6b69-4636-9164-5f7063625858,rev?*%
%TF.SameCoordinates,Original*%
%TF.FileFunction,Copper,L4,Bot*%
%TF.FilePolarity,Positive*%
%FSLAX46Y46*%
G04 Gerber Fmt 4.6, Leading zero omitted, Abs format (unit mm)*
G04 Created by KiCad (PCBNEW 9.0.7) date 2026-06-12 19:57:53*
%MOMM*%
%LPD*%
G01*
G04 APERTURE LIST*
G04 Aperture macros list*
%AMRoundRect*
0 Rectangle with rounded corners*
0 $1 Rounding radius*
0 $2 $3 $4 $5 $6 $7 $8 $9 X,Y pos of 4 corners*
0 Add a 4 corners polygon primitive as box body*
4,1,4,$2,$3,$4,$5,$6,$7,$8,$9,$2,$3,0*
0 Add four circle primitives for the rounded corners*
1,1,$1+$1,$2,$3*
1,1,$1+$1,$4,$5*
1,1,$1+$1,$6,$7*
1,1,$1+$1,$8,$9*
0 Add four rect primitives between the rounded corners*
20,1,$1+$1,$2,$3,$4,$5,0*
20,1,$1+$1,$4,$5,$6,$7,0*
20,1,$1+$1,$6,$7,$8,$9,0*
20,1,$1+$1,$8,$9,$2,$3,0*%
G04 Aperture macros list end*
%TA.AperFunction,ComponentPad*%
%ADD10R,1.700000X1.700000*%
%TD*%
%TA.AperFunction,ComponentPad*%
%ADD11C,1.700000*%
%TD*%
%TA.AperFunction,SMDPad,CuDef*%
%ADD12RoundRect,0.250000X-0.445000X0.545000X-0.445000X-0.545000X0.445000X-0.545000X0.445000X0.545000X0*%
%TD*%
%TA.AperFunction,SMDPad,CuDef*%
%ADD13RoundRect,0.250000X-0.650000X0.412500X-0.650000X-0.412500X0.650000X-0.412500X0.650000X0.412500X0*%
%TD*%
%TA.AperFunction,SMDPad,CuDef*%
%ADD14R,0.508000X0.965200*%
%TD*%
%TA.AperFunction,SMDPad,CuDef*%
%ADD15RoundRect,0.250000X0.650000X-0.412500X0.650000X0.412500X-0.650000X0.412500X-0.650000X-0.412500X0*%
%TD*%
%TA.AperFunction,SMDPad,CuDef*%
%ADD16RoundRect,0.250000X0.625000X-0.400000X0.625000X0.400000X-0.625000X0.400000X-0.625000X-0.400000X0*%
%TD*%
%TA.AperFunction,SMDPad,CuDef*%
%ADD17RoundRect,0.250000X0.400000X0.625000X-0.400000X0.625000X-0.400000X-0.625000X0.400000X-0.625000X0*%
%TD*%
%TA.AperFunction,SMDPad,CuDef*%
%ADD18RoundRect,0.250000X-0.625000X0.400000X-0.625000X-0.400000X0.625000X-0.400000X0.625000X0.400000X0*%
%TD*%
%TA.AperFunction,ViaPad*%
%ADD19C,0.600000*%
%TD*%
%TA.AperFunction,Conductor*%
%ADD20C,0.250000*%
%TD*%
%TA.AperFunction,Conductor*%
%ADD21C,0.200000*%
%TD*%
%TA.AperFunction,Conductor*%
%ADD22C,0.600000*%
%TD*%
%TA.AperFunction,Conductor*%
%ADD23C,0.450000*%
%TD*%
G04 APERTURE END LIST*
D10*
%TO.P,J2,1,Pin_1*%
%TO.N,Vusb*%
X163843500Y-89266000D03*
D11*
%TO.P,J2,2,Pin_2*%
%TO.N,GND*%
X163843500Y-86726000D03*
%TO.P,J2,3,Pin_3*%
%TO.N,unconnected-(J2-Pin_3-Pad3)*%
X163843500Y-84186000D03*
%TO.P,J2,4,Pin_4*%
%TO.N,SCK*%
X163843500Y-81646000D03*
%TO.P,J2,5,Pin_5*%
%TO.N,unconnected-(J2-Pin_5-Pad5)*%
X163843500Y-79106000D03*
%TO.P,J2,6,Pin_6*%
%TO.N,unconnected-(J2-Pin_6-Pad6)*%
X163843500Y-76566000D03*
%TO.P,J2,7,Pin_7*%
%TO.N,unconnected-(J2-Pin_7-Pad7)*%
X163843500Y-74026000D03*
%TO.P,J2,8,Pin_8*%
%TO.N,unconnected-(J2-Pin_8-Pad8)*%
X163843500Y-71486000D03*
%TD*%
D10*
%TO.P,J3,1,Pin_1*%
%TO.N,FTS*%
X136437500Y-111000000D03*
D11*
%TO.P,J3,2,Pin_2*%
%TO.N,NOTCH_IN*%
X133897500Y-111000000D03*
%TO.P,J3,3,Pin_3*%
%TO.N,SemnalTestNotch*%
X131357500Y-111000000D03*
%TD*%
D10*
%TO.P,J13,1,Pin_1*%
%TO.N,SemnalTestLA*%
X138437500Y-72000000D03*
%TD*%
%TO.P,J10,1,Pin_1*%
%TO.N,Vref*%
X101679700Y-111000000D03*
%TD*%
%TO.P,J14,1,Pin_1*%
%TO.N,SemnalTestRA*%
X115437500Y-72000000D03*
%TD*%
%TO.P,J20,1,Pin_1*%
%TO.N,GND*%
X178423500Y-100146000D03*
%TD*%
%TO.P,J9,1,Pin_1*%
%TO.N,GND*%
X111437500Y-72000000D03*
%TD*%
%TO.P,J18,1,Pin_1*%
%TO.N,SemnalTestFTJ*%
X151437500Y-111000000D03*
%TD*%
%TO.P,J22,1,Pin_1*%
%TO.N,GND*%
X106437500Y-111000000D03*
%TD*%
%TO.P,J12,1,Pin_1*%
%TO.N,RL*%
X107437500Y-72000000D03*
%TD*%
%TO.P,J8,1,Pin_1*%
%TO.N,NOTCH*%
X141937500Y-111000000D03*
D11*
%TO.P,J8,2,Pin_2*%
%TO.N,FTJ_IN*%
X144477500Y-111000000D03*
%TO.P,J8,3,Pin_3*%
%TO.N,SemnalTestFTJ*%
X147017500Y-111000000D03*
%TD*%
D10*
%TO.P,J21,1,Pin_1*%
%TO.N,GND*%
X147437500Y-72000000D03*
%TD*%
%TO.P,J4,1,Pin_1*%
%TO.N,OutIna*%
X119437500Y-111127101D03*
D11*
%TO.P,J4,2,Pin_2*%
%TO.N,FTS_IN*%
X116897500Y-111127101D03*
%TO.P,J4,3,Pin_3*%
%TO.N,SemnalTestFts*%
X114357500Y-111127101D03*
%TD*%
D10*
%TO.P,J7,1,Pin_1*%
%TO.N,OutIna*%
X142437500Y-72000000D03*
%TD*%
%TO.P,J24,1,Pin_1*%
%TO.N,GND*%
X157437500Y-111000000D03*
%TD*%
%TO.P,J11,1,Pin_1*%
%TO.N,Vcc*%
X178423500Y-95326000D03*
%TD*%
%TO.P,J15,1,Pin_1*%
%TO.N,MISO*%
X179043500Y-89186000D03*
D11*
%TO.P,J15,2,Pin_2*%
%TO.N,MOSI*%
X179043500Y-86646000D03*
%TO.P,J15,3,Pin_3*%
%TO.N,CS*%
X179043500Y-84106000D03*
%TO.P,J15,4,Pin_4*%
%TO.N,unconnected-(J15-Pin_4-Pad4)*%
X179043500Y-81566000D03*
%TO.P,J15,5,Pin_5*%
%TO.N,unconnected-(J15-Pin_5-Pad5)*%
X179043500Y-79026000D03*
%TO.P,J15,6,Pin_6*%
%TO.N,unconnected-(J15-Pin_6-Pad6)*%
X179043500Y-76486000D03*
%TO.P,J15,7,Pin_7*%
%TO.N,unconnected-(J15-Pin_7-Pad7)*%
X179043500Y-73946000D03*
%TO.P,J15,8,Pin_8*%
%TO.N,unconnected-(J15-Pin_8-Pad8)*%
X179043500Y-71406000D03*
%TD*%
D10*
%TO.P,J16,1,Pin_1*%
%TO.N,SemnalTestFts*%
X110437500Y-111000000D03*
%TD*%
%TO.P,J6,1,Pin_1*%
%TO.N,RAF*%
X119437500Y-72000000D03*
D11*
%TO.P,J6,2,Pin_2*%
%TO.N,INAR_IN*%
X121977500Y-72000000D03*
%TO.P,J6,3,Pin_3*%
%TO.N,SemnalTestRA*%
X124517500Y-72000000D03*
%TD*%
D10*
%TO.P,J19,1,Pin_1*%
%TO.N,FTJ*%
X151937500Y-72000000D03*
%TD*%
%TO.P,J5,1,Pin_1*%
%TO.N,LAF*%
X128897500Y-72000000D03*
D11*
%TO.P,J5,2,Pin_2*%
%TO.N,INAL_IN*%
X131437500Y-72000000D03*
%TO.P,J5,3,Pin_3*%
%TO.N,SemnalTestLA*%
X133977500Y-72000000D03*
%TD*%
D10*
%TO.P,J17,1,Pin_1*%
%TO.N,SemnalTestNotch*%
X127437500Y-111000000D03*
%TD*%
D12*
%TO.P,C21,1*%
%TO.N,Vcc*%
X159937500Y-85497500D03*
%TO.P,C21,2*%
%TO.N,GND*%
X159937500Y-88377500D03*
%TD*%
D13*
%TO.P,C4,1*%
%TO.N,Vcc*%
X131986400Y-78637499D03*
%TO.P,C4,2*%
%TO.N,GND*%
X131986400Y-81762499D03*
%TD*%
D14*
%TO.P,D3,1,K*%
%TO.N,Net-(D2-A)*%
X130352499Y-85759400D03*
%TO.P,D3,2,A*%
%TO.N,GND*%
X128522501Y-85759400D03*
%TO.P,D3,3*%
%TO.N,N/C*%
X129437500Y-83919800D03*
%TD*%
D15*
%TO.P,C20,1*%
%TO.N,Vcc*%
X160437500Y-83125000D03*
%TO.P,C20,2*%
%TO.N,GND*%
X160437500Y-80000000D03*
%TD*%
D14*
%TO.P,D5,1,K*%
%TO.N,Net-(D4-A)*%
X132522501Y-75080200D03*
%TO.P,D5,2,A*%
%TO.N,GND*%
X134352499Y-75080200D03*
%TO.P,D5,3*%
%TO.N,N/C*%
X133437500Y-76919800D03*
%TD*%
D16*
%TO.P,R9,1*%
%TO.N,Net-(U3-OUTB)*%
X103143500Y-102769600D03*
%TO.P,R9,2*%
%TO.N,VCM_IN*%
X103143500Y-99669600D03*
%TD*%
D13*
%TO.P,C2,1*%
%TO.N,Vusb*%
X170343300Y-97276001D03*
%TO.P,C2,2*%
%TO.N,GND*%
X170343300Y-100401001D03*
%TD*%
D15*
%TO.P,C19,1*%
%TO.N,Vcc*%
X151937500Y-83562500D03*
%TO.P,C19,2*%
%TO.N,GND*%
X151937500Y-80437500D03*
%TD*%
%TO.P,C3,1*%
%TO.N,1V65*%
X104013500Y-97052100D03*
%TO.P,C3,2*%
%TO.N,GND*%
X104013500Y-93927100D03*
%TD*%
%TO.P,C16,1*%
%TO.N,Net-(U4-REGCAPA)*%
X154937500Y-84062500D03*
%TO.P,C16,2*%
%TO.N,GND*%
X154937500Y-80937500D03*
%TD*%
D17*
%TO.P,R11,1*%
%TO.N,Vref*%
X119137500Y-101000000D03*
%TO.P,R11,2*%
%TO.N,Net-(U3-+INC)*%
X116037500Y-101000000D03*
%TD*%
D16*
%TO.P,R14,1*%
%TO.N,Net-(C7-Pad1)*%
X116437500Y-98550000D03*
%TO.P,R14,2*%
%TO.N,FTS*%
X116437500Y-95450000D03*
%TD*%
D18*
%TO.P,R28,1*%
%TO.N,Net-(U6--INC)*%
X145937500Y-94450000D03*
%TO.P,R28,2*%
%TO.N,Vref*%
X145937500Y-97550000D03*
%TD*%
D12*
%TO.P,C18,1*%
%TO.N,Vcc*%
X151937500Y-85560000D03*
%TO.P,C18,2*%
%TO.N,GND*%
X151937500Y-88440000D03*
%TD*%
D18*
%TO.P,R24,1*%
%TO.N,Net-(U6--IND)*%
X136937500Y-92450000D03*
%TO.P,R24,2*%
%TO.N,Vref*%
X136937500Y-95550000D03*
%TD*%
D14*
%TO.P,D2,1,K*%
%TO.N,Vcc*%
X134267498Y-85839600D03*
%TO.P,D2,2,A*%
%TO.N,Net-(D2-A)*%
X132437500Y-85839600D03*
%TO.P,D2,3*%
%TO.N,N/C*%
X133352499Y-84000000D03*
%TD*%
D13*
%TO.P,C17,1*%
%TO.N,Net-(U4-REGCAPD)*%
X157437500Y-84437500D03*
%TO.P,C17,2*%
%TO.N,GND*%
X157437500Y-87562500D03*
%TD*%
D16*
%TO.P,R15,1*%
%TO.N,Net-(U3-+IND)*%
X119437500Y-98550000D03*
%TO.P,R15,2*%
%TO.N,Vref*%
X119437500Y-95450000D03*
%TD*%
D13*
%TO.P,C1,1*%
%TO.N,Vcc*%
X173270400Y-97276001D03*
%TO.P,C1,2*%
%TO.N,GND*%
X173270400Y-100401001D03*
%TD*%
D14*
%TO.P,D4,1,K*%
%TO.N,Vcc*%
X128607502Y-75000000D03*
%TO.P,D4,2,A*%
%TO.N,Net-(D4-A)*%
X130437500Y-75000000D03*
%TO.P,D4,3*%
%TO.N,N/C*%
X129522501Y-76839600D03*
%TD*%
D15*
%TO.P,C12,1*%
%TO.N,Vref*%
X134067500Y-100562500D03*
%TO.P,C12,2*%
%TO.N,Net-(U6-+IND)*%
X134067500Y-97437500D03*
%TD*%
D19*
%TO.N,Vcc*%
X134437500Y-78000000D03*
X135437500Y-86000000D03*
X100437500Y-96000000D03*
X154937500Y-85500000D03*
X151437500Y-87000000D03*
X157937500Y-83000000D03*
X174923500Y-97826000D03*
X146239755Y-98778566D03*
%TO.N,1V65*%
X104143500Y-95219600D03*
%TO.N,FTS*%
X114452389Y-95651075D03*
%TO.N,Net-(C7-Pad1)*%
X117718750Y-99718750D03*
%TO.N,Net-(U3-+IND)*%
X118218750Y-97218750D03*
%TO.N,Net-(U3-+INC)*%
X115141092Y-94895000D03*
X114487560Y-96965318D03*
X115107500Y-98834305D03*
%TO.N,Net-(U6-+INA)*%
X149937500Y-97000000D03*
X156610594Y-93462004D03*
X155273981Y-93805000D03*
X149320055Y-98117445D03*
%TO.N,Net-(U6-+IND)*%
X134937500Y-96000000D03*
X140937500Y-97000000D03*
X137107503Y-96998759D03*
%TO.N,Vref*%
X120668500Y-99469000D03*
X136437500Y-85000000D03*
X155937500Y-78500000D03*
X110437500Y-100000000D03*
X133798700Y-82160112D03*
X109524538Y-96920799D03*
X150937500Y-104000000D03*
%TO.N,Net-(D2-A)*%
X131437500Y-85000000D03*
%TO.N,Net-(D4-A)*%
X130013500Y-77680992D03*
%TO.N,Net-(U4-REGCAPA)*%
X154677461Y-83103183D03*
%TO.N,Net-(U4-REGCAPD)*%
X156437500Y-83500000D03*
%TO.N,Net-(U6--IND)*%
X137937500Y-91000000D03*
%TO.N,Net-(U6--INC)*%
X144437500Y-94000000D03*
%TO.N,LAF*%
X128437500Y-70389000D03*
%TO.N,Net-(U3-OUTB)*%
X104143500Y-104219600D03*
%TO.N,VCM_IN*%
X104143500Y-101219600D03*
%TO.N,INAL_IN*%
X113437500Y-77000000D03*
%TO.N,INAR_IN*%
X115437500Y-77000000D03*
%TO.N,MISO*%
X162437500Y-88555000D03*
X165437500Y-89000000D03*
%TO.N,GND*%
X152437500Y-82470000D03*
X169437500Y-102500000D03*
X160937500Y-82000000D03*
X132437500Y-83500000D03*
X123437500Y-81000000D03*
X144437500Y-96000000D03*
X131437500Y-79729999D03*
X123437500Y-74500000D03*
X166437500Y-86000000D03*
X157437500Y-86000000D03*
X134937500Y-81000000D03*
X111437500Y-96500000D03*
%TD*%
D20*
%TO.N,Vcc*%
X134937500Y-86000000D02*
X134777100Y-85839600D01*
D21*
X151937500Y-85560000D02*
X151937500Y-83562500D01*
D20*
X153875000Y-85500000D02*
X151937500Y-83562500D01*
D22*
X178423500Y-95326000D02*
X175220401Y-95326000D01*
D21*
X134062735Y-78374765D02*
X132249134Y-78374765D01*
D20*
X154937500Y-85562500D02*
X154937500Y-85500000D01*
X158062500Y-83125000D02*
X157937500Y-83000000D01*
X130071800Y-78637499D02*
X128607502Y-77173201D01*
D22*
X173820399Y-97826000D02*
X173270400Y-97276001D01*
X175220401Y-95326000D02*
X173270400Y-97276001D01*
D20*
X159937500Y-85375000D02*
X159937500Y-83625000D01*
X134777100Y-85839600D02*
X134267498Y-85839600D01*
D22*
X174923500Y-97826000D02*
X173820399Y-97826000D01*
D20*
X160437500Y-83125000D02*
X158062500Y-83125000D01*
X159937500Y-83625000D02*
X160437500Y-83125000D01*
X135437500Y-86000000D02*
X134937500Y-86000000D01*
X128607502Y-77173201D02*
X128607502Y-75000000D01*
X131986400Y-78637499D02*
X130071800Y-78637499D01*
X154937500Y-85500000D02*
X153875000Y-85500000D01*
D21*
X132249134Y-78374765D02*
X131986400Y-78637499D01*
X134437500Y-78000000D02*
X134062735Y-78374765D01*
D22*
%TO.N,Vusb*%
X170343300Y-97276001D02*
X170343300Y-95765800D01*
X170343300Y-95765800D02*
X163843500Y-89266000D01*
D23*
%TO.N,1V65*%
X104143500Y-95219600D02*
X104143500Y-96922100D01*
X104143500Y-96922100D02*
X104013500Y-97052100D01*
D20*
%TO.N,FTS*%
X121481500Y-94544000D02*
X117343500Y-94544000D01*
X116437500Y-95450000D02*
X114653464Y-95450000D01*
X117343500Y-94544000D02*
X116437500Y-95450000D01*
X114653464Y-95450000D02*
X114452389Y-95651075D01*
X136437500Y-111000000D02*
X136437500Y-109500000D01*
X136437500Y-109500000D02*
X121481500Y-94544000D01*
%TO.N,Net-(C7-Pad1)*%
X116437500Y-98550000D02*
X116550000Y-98550000D01*
X116550000Y-98550000D02*
X117718750Y-99718750D01*
%TO.N,Net-(U3-+IND)*%
X119437500Y-98550000D02*
X119437500Y-98437500D01*
X119437500Y-98437500D02*
X118218750Y-97218750D01*
%TO.N,Net-(U3-+INC)*%
X114422161Y-94895000D02*
X113896389Y-95420772D01*
X113896389Y-96374147D02*
X114487560Y-96965318D01*
X115107500Y-100070000D02*
X115107500Y-98834305D01*
X116037500Y-101000000D02*
X115107500Y-100070000D01*
X113896389Y-95420772D02*
X113896389Y-96374147D01*
X115141092Y-94895000D02*
X114422161Y-94895000D01*
%TO.N,Net-(U6-+INA)*%
X149937500Y-97000000D02*
X149937500Y-97500000D01*
X149937500Y-97500000D02*
X149320055Y-98117445D01*
X156610594Y-93462004D02*
X155616977Y-93462004D01*
X155616977Y-93462004D02*
X155273981Y-93805000D01*
%TO.N,Net-(U6-+IND)*%
X137108744Y-97000000D02*
X137107503Y-96998759D01*
X134567500Y-96370000D02*
X134937500Y-96000000D01*
X134567500Y-97437500D02*
X134567500Y-96370000D01*
X140937500Y-97000000D02*
X137108744Y-97000000D01*
D23*
%TO.N,Vref*%
X135593500Y-96500000D02*
X135593500Y-88614202D01*
X145059775Y-97550000D02*
X145937500Y-97550000D01*
X110437500Y-97833761D02*
X109524538Y-96920799D01*
X135593500Y-88614202D02*
X136437500Y-87770202D01*
X120668500Y-96681000D02*
X120668500Y-99469000D01*
X135593500Y-96500000D02*
X135987500Y-96500000D01*
X135987500Y-96500000D02*
X136937500Y-95550000D01*
X120668500Y-99469000D02*
X119137500Y-101000000D01*
X133798700Y-82160112D02*
X133798700Y-82361200D01*
X134067500Y-100562500D02*
X127568000Y-94063000D01*
X143059775Y-95550000D02*
X145059775Y-97550000D01*
X113415389Y-95221536D02*
X113415389Y-100266829D01*
X136437500Y-87770202D02*
X136437500Y-85000000D01*
X133798700Y-82361200D02*
X135187500Y-83750000D01*
X136937500Y-95550000D02*
X143059775Y-95550000D01*
X135187500Y-83750000D02*
X136437500Y-85000000D01*
X150937500Y-102550000D02*
X150937500Y-104000000D01*
X117906500Y-102231000D02*
X119137500Y-101000000D01*
D20*
X136437500Y-84798912D02*
X136437500Y-85000000D01*
D23*
X114573925Y-94063000D02*
X113415389Y-95221536D01*
X135187500Y-83750000D02*
X140437500Y-78500000D01*
X113415389Y-100266829D02*
X115379560Y-102231000D01*
X119437500Y-95450000D02*
X120668500Y-96681000D01*
X140437500Y-78500000D02*
X155937500Y-78500000D01*
X145937500Y-97550000D02*
X150937500Y-102550000D01*
X115379560Y-102231000D02*
X117906500Y-102231000D01*
X127568000Y-94063000D02*
X114573925Y-94063000D01*
X134067500Y-100562500D02*
X135593500Y-99036500D01*
X135593500Y-99036500D02*
X135593500Y-96500000D01*
X110437500Y-100000000D02*
X110437500Y-97833761D01*
D21*
%TO.N,Net-(D2-A)*%
X131437500Y-85000000D02*
X131111899Y-85000000D01*
X131597900Y-85000000D02*
X132437500Y-85839600D01*
X131437500Y-85000000D02*
X131597900Y-85000000D01*
X131111899Y-85000000D02*
X130352499Y-85759400D01*
%TO.N,Net-(D4-A)*%
X130437500Y-77576000D02*
X130118492Y-77576000D01*
X130437500Y-77576000D02*
X130437500Y-75000000D01*
X130437500Y-75000000D02*
X131437500Y-75000000D01*
X131437500Y-75000000D02*
X131517700Y-75080200D01*
X131517700Y-75080200D02*
X132522501Y-75080200D01*
X130118492Y-77576000D02*
X130013500Y-77680992D01*
D20*
%TO.N,Net-(U4-REGCAPA)*%
X154937500Y-83363222D02*
X154677461Y-83103183D01*
X154937500Y-84062500D02*
X154937500Y-83363222D01*
%TO.N,Net-(U4-REGCAPD)*%
X156500000Y-83500000D02*
X157437500Y-84437500D01*
X156437500Y-83500000D02*
X156500000Y-83500000D01*
%TO.N,Net-(U6--IND)*%
X136937500Y-92450000D02*
X136937500Y-92000000D01*
X136937500Y-92000000D02*
X137937500Y-91000000D01*
%TO.N,Net-(U6--INC)*%
X145937500Y-94450000D02*
X144887500Y-94450000D01*
X144887500Y-94450000D02*
X144437500Y-94000000D01*
%TO.N,LAF*%
X128437500Y-70389000D02*
X128437500Y-71540000D01*
X128437500Y-71540000D02*
X128897500Y-72000000D01*
D21*
%TO.N,Net-(U3-OUTB)*%
X103143500Y-103219600D02*
X104143500Y-104219600D01*
X103143500Y-102769600D02*
X103143500Y-103219600D01*
%TO.N,VCM_IN*%
X103143500Y-99669600D02*
X103143500Y-100219600D01*
X103143500Y-100219600D02*
X104143500Y-101219600D01*
%TO.N,INAL_IN*%
X128356500Y-73081000D02*
X130356500Y-73081000D01*
X130356500Y-73081000D02*
X131437500Y-72000000D01*
X114437500Y-77000000D02*
X114968500Y-77531000D01*
X123906500Y-77531000D02*
X128356500Y-73081000D01*
X113437500Y-77000000D02*
X114437500Y-77000000D01*
X114968500Y-77531000D02*
X123906500Y-77531000D01*
%TO.N,INAR_IN*%
X120896500Y-70919000D02*
X121977500Y-72000000D01*
X115437500Y-77000000D02*
X114356500Y-75919000D01*
X114356500Y-75919000D02*
X114356500Y-70919000D01*
X114356500Y-70919000D02*
X120896500Y-70919000D01*
%TO.N,SemnalTestRA*%
X116518500Y-73081000D02*
X115437500Y-72000000D01*
X124517500Y-72000000D02*
X123436500Y-73081000D01*
X123436500Y-73081000D02*
X116518500Y-73081000D01*
D20*
%TO.N,MISO*%
X164949500Y-88160000D02*
X162832500Y-88160000D01*
X162832500Y-88160000D02*
X162437500Y-88555000D01*
X165437500Y-88648000D02*
X164949500Y-88160000D01*
X165437500Y-89000000D02*
X165437500Y-88648000D01*
%TD*%
%TA.AperFunction,Conductor*%
%TO.N,GND*%
G36*
X159880539Y-69020185D02*
G01*
X159926294Y-69072989D01*
X159937500Y-69124500D01*
X159937500Y-70500000D01*
X163145527Y-70500000D01*
X163212566Y-70519685D01*
X163258321Y-70572489D01*
X163268265Y-70641647D01*
X163239240Y-70705203D01*
X163222624Y-70719860D01*
X163223176Y-70720532D01*
X163218464Y-70724398D01*
X163081898Y-70860964D01*
X163081895Y-70860968D01*
X162974595Y-71021552D01*
X162974588Y-71021565D01*
X162900681Y-71199994D01*
X162900678Y-71200006D01*
X162863000Y-71389424D01*
X162863000Y-71582575D01*
X162900678Y-71771993D01*
X162900681Y-71772005D01*
X162974588Y-71950434D01*
X162974595Y-71950447D01*
X163081895Y-72111031D01*
X163081898Y-72111035D01*
X163218464Y-72247601D01*
X163218468Y-72247604D01*
X163379052Y-72354904D01*
X163379065Y-72354911D01*
X163488160Y-72400099D01*
X163557499Y-72428820D01*
X163736543Y-72464434D01*
X163746924Y-72466499D01*
X163746927Y-72466500D01*
X163746929Y-72466500D01*
X163940073Y-72466500D01*
X163940074Y-72466499D01*
X164129501Y-72428820D01*
X164307941Y-72354908D01*
X164468532Y-72247604D01*
X164605104Y-72111032D01*
X164712408Y-71950441D01*
X164786320Y-71772001D01*
X164824000Y-71582571D01*
X164824000Y-71389429D01*
X164824000Y-71389426D01*
X164823999Y-71389424D01*
X164786320Y-71199999D01*
X164783130Y-71192297D01*
X164712411Y-71021565D01*
X164712404Y-71021552D01*
X164605104Y-70860968D01*
X164605101Y-70860964D01*
X164468535Y-70724398D01*
X164463824Y-70720532D01*
X164465444Y-70718557D01*
X164427784Y-70673506D01*
X164419067Y-70604182D01*
X164449213Y-70541150D01*
X164508651Y-70504423D01*
X164541473Y-70500000D01*
X178263501Y-70500000D01*
X178330540Y-70519685D01*
X178376295Y-70572489D01*
X178386239Y-70641647D01*
X178357214Y-70705203D01*
X178351182Y-70711681D01*
X178281898Y-70780964D01*
X178281895Y-70780968D01*
X178174595Y-70941552D01*
X178174588Y-70941565D01*
X178100681Y-71119994D01*
X178100678Y-71120006D01*
X178063000Y-71309424D01*
X178063000Y-71502575D01*
X178100678Y-71691993D01*
X178100681Y-71692005D01*
X178174588Y-71870434D01*
X178174595Y-71870447D01*
X178281895Y-72031031D01*
X178281898Y-72031035D01*
X178418464Y-72167601D01*
X178418468Y-72167604D01*
X178579052Y-72274904D01*
X178579065Y-72274911D01*
X178757494Y-72348818D01*
X178757499Y-72348820D01*
X178946924Y-72386499D01*
X178946927Y-72386500D01*
X178946929Y-72386500D01*
X179140073Y-72386500D01*
X179140074Y-72386499D01*
X179329501Y-72348820D01*
X179507941Y-72274908D01*
X179668532Y-72167604D01*
X179805104Y-72031032D01*
X179912408Y-71870441D01*
X179986320Y-71692001D01*
X180024000Y-71502571D01*
X180024000Y-71309429D01*
X180024000Y-71309426D01*
X180023999Y-71309424D01*
X180016853Y-71273500D01*
X179986320Y-71119999D01*
X179947828Y-71027070D01*
X179912411Y-70941565D01*
X179912404Y-70941552D01*
X179805104Y-70780968D01*
X179805101Y-70780964D01*
X179735818Y-70711681D01*
X179702333Y-70650358D01*
X179707317Y-70580666D01*
X179749189Y-70524733D01*
X179814653Y-70500316D01*
X179823499Y-70500000D01*
X181313000Y-70500000D01*
X181380039Y-70519685D01*
X181425794Y-70572489D01*
X181437000Y-70624000D01*
X181437000Y-113375500D01*
X181417315Y-113442539D01*
X181364511Y-113488294D01*
X181313000Y-113499500D01*
X99562000Y-113499500D01*
X99494961Y-113479815D01*
X99449206Y-113427011D01*
X99438000Y-113375500D01*
X99438000Y-110137141D01*
X100699200Y-110137141D01*
X100699200Y-111862850D01*
X100699201Y-111862858D01*
X100706156Y-111897827D01*
X100706771Y-111900919D01*
X100735614Y-111944086D01*
X100778781Y-111972929D01*
X100816845Y-111980500D01*
X102542554Y-111980499D01*
X102580619Y-111972929D01*
X102623786Y-111944086D01*
X102652629Y-111900919D01*
X102660200Y-111862855D01*
X102660199Y-110934174D01*
X102660199Y-110137149D01*
X102660199Y-110137146D01*
X102653240Y-110102155D01*
X105087500Y-110102155D01*
X105087500Y-110750000D01*
X106004488Y-110750000D01*
X105971575Y-110807007D01*
X105937500Y-110934174D01*
X105937500Y-111065826D01*
X105971575Y-111192993D01*
X106004488Y-111250000D01*
X105087500Y-111250000D01*
X105087500Y-111897844D01*
X105093901Y-111957372D01*
X105093903Y-111957379D01*
X105144145Y-112092086D01*
X105144149Y-112092093D01*
X105230309Y-112207187D01*
X105230312Y-112207190D01*
X105345406Y-112293350D01*
X105345413Y-112293354D01*
X105480120Y-112343596D01*
X105480127Y-112343598D01*
X105539655Y-112349999D01*
X105539672Y-112350000D01*
X106187500Y-112350000D01*
X106187500Y-111433012D01*
X106244507Y-111465925D01*
X106371674Y-111500000D01*
X106503326Y-111500000D01*
X106630493Y-111465925D01*
X106687500Y-111433012D01*
X106687500Y-112350000D01*
X107335328Y-112350000D01*
X107335344Y-112349999D01*
X107394872Y-112343598D01*
X107394879Y-112343596D01*
X107529586Y-112293354D01*
X107529593Y-112293350D01*
X107644687Y-112207190D01*
X107644690Y-112207187D01*
X107730850Y-112092093D01*
X107730854Y-112092086D01*
X107781096Y-111957379D01*
X107781098Y-111957372D01*
X107787499Y-111897844D01*
X107787500Y-111897827D01*
X107787500Y-111250000D01*
X106870512Y-111250000D01*
X106903425Y-111192993D01*
X106937500Y-111065826D01*
X106937500Y-110934174D01*
X106903425Y-110807007D01*
X106870512Y-110750000D01*
X107787500Y-110750000D01*
X107787500Y-110137141D01*
X109457000Y-110137141D01*
X109457000Y-111862850D01*
X109457001Y-111862858D01*
X109463956Y-111897827D01*
X109464571Y-111900919D01*
X109493414Y-111944086D01*
X109536581Y-111972929D01*
X109574645Y-111980500D01*
X111300354Y-111980499D01*
X111338419Y-111972929D01*
X111381586Y-111944086D01*
X111410429Y-111900919D01*
X111418000Y-111862855D01*
X111417999Y-111030525D01*
X113377000Y-111030525D01*
X113377000Y-111223676D01*
X113414678Y-111413094D01*
X113414681Y-111413106D01*
X113488588Y-111591535D01*
X113488595Y-111591548D01*
X113595895Y-111752132D01*
X113595898Y-111752136D01*
X113732464Y-111888702D01*
X113732468Y-111888705D01*
X113893052Y-111996005D01*
X113893065Y-111996012D01*
X114071494Y-112069919D01*
X114071499Y-112069921D01*
X114222862Y-112100029D01*
X114260924Y-112107600D01*
X114260927Y-112107601D01*
X114260929Y-112107601D01*
X114454073Y-112107601D01*
X114454074Y-112107600D01*
X114643501Y-112069921D01*
X114821941Y-111996009D01*
X114982532Y-111888705D01*
X115119104Y-111752133D01*
X115226408Y-111591542D01*
X115300320Y-111413102D01*
X115338000Y-111223672D01*
X115338000Y-111030530D01*
X115338000Y-111030527D01*
X115337999Y-111030525D01*
X115917000Y-111030525D01*
X115917000Y-111223676D01*
X115954678Y-111413094D01*
X115954681Y-111413106D01*
X116028588Y-111591535D01*
X116028595Y-111591548D01*
X116135895Y-111752132D01*
X116135898Y-111752136D01*
X116272464Y-111888702D01*
X116272468Y-111888705D01*
X116433052Y-111996005D01*
X116433065Y-111996012D01*
X116611494Y-112069919D01*
X116611499Y-112069921D01*
X116762862Y-112100029D01*
X116800924Y-112107600D01*
X116800927Y-112107601D01*
X116800929Y-112107601D01*
X116994073Y-112107601D01*
X116994074Y-112107600D01*
X117183501Y-112069921D01*
X117361941Y-111996009D01*
X117522532Y-111888705D01*
X117659104Y-111752133D01*
X117766408Y-111591542D01*
X117840320Y-111413102D01*
X117878000Y-111223672D01*
X117878000Y-111030530D01*
X117878000Y-111030527D01*
X117877999Y-111030525D01*
X117876788Y-111024438D01*
X117840320Y-110841100D01*
X117826198Y-110807007D01*
X117766411Y-110662666D01*
X117766404Y-110662653D01*
X117659104Y-110502069D01*
X117659101Y-110502065D01*
X117522535Y-110365499D01*
X117522531Y-110365496D01*
X117516187Y-110361257D01*
X117370995Y-110264242D01*
X118457000Y-110264242D01*
X118457000Y-111989951D01*
X118457001Y-111989959D01*
X118464570Y-112028017D01*
X118464571Y-112028020D01*
X118493414Y-112071187D01*
X118536581Y-112100030D01*
X118574645Y-112107601D01*
X120300354Y-112107600D01*
X120338419Y-112100030D01*
X120381586Y-112071187D01*
X120410429Y-112028020D01*
X120418000Y-111989956D01*
X120417999Y-110264247D01*
X120410429Y-110226182D01*
X120381586Y-110183015D01*
X120338419Y-110154172D01*
X120338418Y-110154171D01*
X120300357Y-110146601D01*
X118574649Y-110146601D01*
X118574641Y-110146602D01*
X118536583Y-110154171D01*
X118536580Y-110154172D01*
X118493414Y-110183015D01*
X118464570Y-110226182D01*
X118457000Y-110264242D01*
X117370995Y-110264242D01*
X117361947Y-110258196D01*
X117361934Y-110258189D01*
X117183505Y-110184282D01*
X117183493Y-110184279D01*
X116994074Y-110146601D01*
X116994071Y-110146601D01*
X116800929Y-110146601D01*
X116800926Y-110146601D01*
X116611506Y-110184279D01*
X116611494Y-110184282D01*
X116433065Y-110258189D01*
X116433052Y-110258196D01*
X116272468Y-110365496D01*
X116272464Y-110365499D01*
X116135898Y-110502065D01*
X116135895Y-110502069D01*
X116028595Y-110662653D01*
X116028588Y-110662666D01*
X115954681Y-110841095D01*
X115954678Y-110841107D01*
X115917000Y-111030525D01*
X115337999Y-111030525D01*
X115336788Y-111024438D01*
X115300320Y-110841100D01*
X115286198Y-110807007D01*
X115226411Y-110662666D01*
X115226404Y-110662653D01*
X115119104Y-110502069D01*
X115119101Y-110502065D01*
X114982535Y-110365499D01*
X114982531Y-110365496D01*
X114821947Y-110258196D01*
X114821934Y-110258189D01*
X114643505Y-110184282D01*
X114643493Y-110184279D01*
X114454074Y-110146601D01*
X114454071Y-110146601D01*
X114260929Y-110146601D01*
X114260926Y-110146601D01*
X114071506Y-110184279D01*
X114071494Y-110184282D01*
X113893065Y-110258189D01*
X113893052Y-110258196D01*
X113732468Y-110365496D01*
X113732464Y-110365499D01*
X113595898Y-110502065D01*
X113595895Y-110502069D01*
X113488595Y-110662653D01*
X113488588Y-110662666D01*
X113414681Y-110841095D01*
X113414678Y-110841107D01*
X113377000Y-111030525D01*
X111417999Y-111030525D01*
X111417999Y-110934174D01*
X111417999Y-110137149D01*
X111417998Y-110137141D01*
X126457000Y-110137141D01*
X126457000Y-111862850D01*
X126457001Y-111862858D01*
X126463956Y-111897827D01*
X126464571Y-111900919D01*
X126493414Y-111944086D01*
X126536581Y-111972929D01*
X126574645Y-111980500D01*
X128300354Y-111980499D01*
X128338419Y-111972929D01*
X128381586Y-111944086D01*
X128410429Y-111900919D01*
X128418000Y-111862855D01*
X128417999Y-110903424D01*
X130377000Y-110903424D01*
X130377000Y-111096575D01*
X130414678Y-111285993D01*
X130414681Y-111286005D01*
X130488588Y-111464434D01*
X130488595Y-111464447D01*
X130595895Y-111625031D01*
X130595898Y-111625035D01*
X130732464Y-111761601D01*
X130732468Y-111761604D01*
X130893052Y-111868904D01*
X130893065Y-111868911D01*
X131071494Y-111942818D01*
X131071499Y-111942820D01*
X131222862Y-111972928D01*
X131260924Y-111980499D01*
X131260927Y-111980500D01*
X131260929Y-111980500D01*
X131454073Y-111980500D01*
X131454074Y-111980499D01*
X131643501Y-111942820D01*
X131821941Y-111868908D01*
X131982532Y-111761604D01*
X132119104Y-111625032D01*
X132226408Y-111464441D01*
X132300320Y-111286001D01*
X132338000Y-111096571D01*
X132338000Y-110903429D01*
X132338000Y-110903426D01*
X132337999Y-110903424D01*
X132917000Y-110903424D01*
X132917000Y-111096575D01*
X132954678Y-111285993D01*
X132954681Y-111286005D01*
X133028588Y-111464434D01*
X133028595Y-111464447D01*
X133135895Y-111625031D01*
X133135898Y-111625035D01*
X133272464Y-111761601D01*
X133272468Y-111761604D01*
X133433052Y-111868904D01*
X133433065Y-111868911D01*
X133611494Y-111942818D01*
X133611499Y-111942820D01*
X133762862Y-111972928D01*
X133800924Y-111980499D01*
X133800927Y-111980500D01*
X133800929Y-111980500D01*
X133994073Y-111980500D01*
X133994074Y-111980499D01*
X134183501Y-111942820D01*
X134361941Y-111868908D01*
X134522532Y-111761604D01*
X134659104Y-111625032D01*
X134766408Y-111464441D01*
X134840320Y-111286001D01*
X134878000Y-111096571D01*
X134878000Y-110903429D01*
X134878000Y-110903426D01*
X134877999Y-110903424D01*
X134840321Y-110714006D01*
X134840320Y-110713999D01*
X134819052Y-110662653D01*
X134766411Y-110535565D01*
X134766404Y-110535552D01*
X134659104Y-110374968D01*
X134659101Y-110374964D01*
X134522535Y-110238398D01*
X134522531Y-110238395D01*
X134361947Y-110131095D01*
X134361934Y-110131088D01*
X134183505Y-110057181D01*
X134183493Y-110057178D01*
X133994074Y-110019500D01*
X133994071Y-110019500D01*
X133800929Y-110019500D01*
X133800926Y-110019500D01*
X133611506Y-110057178D01*
X133611494Y-110057181D01*
X133433065Y-110131088D01*
X133433052Y-110131095D01*
X133272468Y-110238395D01*
X133272464Y-110238398D01*
X133135898Y-110374964D01*
X133135895Y-110374968D01*
X133028595Y-110535552D01*
X133028588Y-110535565D01*
X132954681Y-110713994D01*
X132954678Y-110714006D01*
X132917000Y-110903424D01*
X132337999Y-110903424D01*
X132300321Y-110714006D01*
X132300320Y-110713999D01*
X132279052Y-110662653D01*
X132226411Y-110535565D01*
X132226404Y-110535552D01*
X132119104Y-110374968D01*
X132119101Y-110374964D01*
X131982535Y-110238398D01*
X131982531Y-110238395D01*
X131821947Y-110131095D01*
X131821934Y-110131088D01*
X131643505Y-110057181D01*
X131643493Y-110057178D01*
X131454074Y-110019500D01*
X131454071Y-110019500D01*
X131260929Y-110019500D01*
X131260926Y-110019500D01*
X131071506Y-110057178D01*
X131071494Y-110057181D01*
X130893065Y-110131088D01*
X130893052Y-110131095D01*
X130732468Y-110238395D01*
X130732464Y-110238398D01*
X130595898Y-110374964D01*
X130595895Y-110374968D01*
X130488595Y-110535552D01*
X130488588Y-110535565D01*
X130414681Y-110713994D01*
X130414678Y-110714006D01*
X130377000Y-110903424D01*
X128417999Y-110903424D01*
X128417999Y-110137146D01*
X128410429Y-110099081D01*
X128381586Y-110055914D01*
X128338419Y-110027071D01*
X128338418Y-110027070D01*
X128300357Y-110019500D01*
X126574649Y-110019500D01*
X126574641Y-110019501D01*
X126536583Y-110027070D01*
X126536580Y-110027071D01*
X126493414Y-110055914D01*
X126464570Y-110099081D01*
X126457000Y-110137141D01*
X111417998Y-110137141D01*
X111416794Y-110131088D01*
X111410429Y-110099081D01*
X111381586Y-110055914D01*
X111338419Y-110027071D01*
X111338418Y-110027070D01*
X111300357Y-110019500D01*
X109574649Y-110019500D01*
X109574641Y-110019501D01*
X109536583Y-110027070D01*
X109536580Y-110027071D01*
X109493414Y-110055914D01*
X109464570Y-110099081D01*
X109457000Y-110137141D01*
X107787500Y-110137141D01*
X107787500Y-110102172D01*
X107787499Y-110102155D01*
X107781098Y-110042627D01*
X107781096Y-110042620D01*
X107730854Y-109907913D01*
X107730850Y-109907906D01*
X107644690Y-109792812D01*
X107644687Y-109792809D01*
X107529593Y-109706649D01*
X107529586Y-109706645D01*
X107394879Y-109656403D01*
X107394872Y-109656401D01*
X107335344Y-109650000D01*
X106687500Y-109650000D01*
X106687500Y-110566988D01*
X106630493Y-110534075D01*
X106503326Y-110500000D01*
X106371674Y-110500000D01*
X106244507Y-110534075D01*
X106187500Y-110566988D01*
X106187500Y-109650000D01*
X105539655Y-109650000D01*
X105480127Y-109656401D01*
X105480120Y-109656403D01*
X105345413Y-109706645D01*
X105345406Y-109706649D01*
X105230312Y-109792809D01*
X105230309Y-109792812D01*
X105144149Y-109907906D01*
X105144145Y-109907913D01*
X105093903Y-110042620D01*
X105093901Y-110042627D01*
X105087500Y-110102155D01*
X102653240Y-110102155D01*
X102652629Y-110099081D01*
X102623786Y-110055914D01*
X102580619Y-110027071D01*
X102580618Y-110027070D01*
X102542557Y-110019500D01*
X100816849Y-110019500D01*
X100816841Y-110019501D01*
X100778783Y-110027070D01*
X100778780Y-110027071D01*
X100735614Y-110055914D01*
X100706770Y-110099081D01*
X100699200Y-110137141D01*
X99438000Y-110137141D01*
X99438000Y-102333490D01*
X102138000Y-102333490D01*
X102138000Y-103205710D01*
X102146082Y-103261181D01*
X102148776Y-103279674D01*
X102204549Y-103393758D01*
X102294341Y-103483550D01*
X102408425Y-103539323D01*
X102408426Y-103539323D01*
X102408428Y-103539324D01*
X102482390Y-103550100D01*
X103096662Y-103550100D01*
X103163701Y-103569785D01*
X103184342Y-103586418D01*
X103676682Y-104078759D01*
X103710166Y-104140080D01*
X103713000Y-104166438D01*
X103713000Y-104276276D01*
X103731278Y-104344488D01*
X103742338Y-104385766D01*
X103742339Y-104385769D01*
X103799011Y-104483929D01*
X103799013Y-104483932D01*
X103799014Y-104483933D01*
X103879167Y-104564086D01*
X103977333Y-104620762D01*
X104086824Y-104650100D01*
X104086826Y-104650100D01*
X104200174Y-104650100D01*
X104200176Y-104650100D01*
X104309667Y-104620762D01*
X104407833Y-104564086D01*
X104487986Y-104483933D01*
X104544662Y-104385767D01*
X104574000Y-104276276D01*
X104574000Y-104162924D01*
X104544662Y-104053433D01*
X104487986Y-103955267D01*
X104407833Y-103875114D01*
X104407832Y-103875113D01*
X104407829Y-103875111D01*
X104309669Y-103818439D01*
X104309668Y-103818438D01*
X104309667Y-103818438D01*
X104200176Y-103789100D01*
X104090339Y-103789100D01*
X104060902Y-103780456D01*
X104030913Y-103773933D01*
X104025895Y-103770177D01*
X104023300Y-103769415D01*
X104002662Y-103752785D01*
X103941348Y-103691471D01*
X103907865Y-103630152D01*
X103912849Y-103560460D01*
X103954720Y-103504526D01*
X103974569Y-103492393D01*
X103992657Y-103483551D01*
X104082451Y-103393757D01*
X104138224Y-103279672D01*
X104149000Y-103205710D01*
X104149000Y-102333490D01*
X104138224Y-102259528D01*
X104082451Y-102145443D01*
X104082450Y-102145442D01*
X104082450Y-102145441D01*
X103992658Y-102055649D01*
X103878574Y-101999876D01*
X103859004Y-101997025D01*
X103804610Y-101989100D01*
X102482390Y-101989100D01*
X102433082Y-101996284D01*
X102408425Y-101999876D01*
X102294341Y-102055649D01*
X102204549Y-102145441D01*
X102148776Y-102259525D01*
X102144735Y-102287263D01*
X102138000Y-102333490D01*
X99438000Y-102333490D01*
X99438000Y-99233490D01*
X102138000Y-99233490D01*
X102138000Y-100105710D01*
X102144576Y-100150843D01*
X102148776Y-100179674D01*
X102204549Y-100293758D01*
X102294341Y-100383550D01*
X102408425Y-100439323D01*
X102408426Y-100439323D01*
X102408428Y-100439324D01*
X102482390Y-100450100D01*
X102996662Y-100450100D01*
X103063701Y-100469785D01*
X103084342Y-100486418D01*
X103676682Y-101078759D01*
X103710166Y-101140080D01*
X103713000Y-101166438D01*
X103713000Y-101276276D01*
X103731341Y-101344723D01*
X103742338Y-101385766D01*
X103742339Y-101385769D01*
X103799011Y-101483929D01*
X103799013Y-101483932D01*
X103799014Y-101483933D01*
X103879167Y-101564086D01*
X103977333Y-101620762D01*
X104086824Y-101650100D01*
X104086826Y-101650100D01*
X104200174Y-101650100D01*
X104200176Y-101650100D01*
X104309667Y-101620762D01*
X104407833Y-101564086D01*
X104487986Y-101483933D01*
X104544662Y-101385767D01*
X104574000Y-101276276D01*
X104574000Y-101162924D01*
X104544662Y-101053433D01*
X104487986Y-100955267D01*
X104407833Y-100875114D01*
X104407832Y-100875113D01*
X104407829Y-100875111D01*
X104309669Y-100818439D01*
X104309668Y-100818438D01*
X104309667Y-100818438D01*
X104200176Y-100789100D01*
X104090339Y-100789100D01*
X104060895Y-100780454D01*
X104030913Y-100773932D01*
X104025897Y-100770177D01*
X104023300Y-100769415D01*
X104002662Y-100752785D01*
X103874183Y-100624306D01*
X103840700Y-100562987D01*
X103845684Y-100493295D01*
X103887555Y-100437361D01*
X103907399Y-100425231D01*
X103992657Y-100383551D01*
X104082451Y-100293757D01*
X104138224Y-100179672D01*
X104149000Y-100105710D01*
X104149000Y-99233490D01*
X104138224Y-99159528D01*
X104082451Y-99045443D01*
X104082450Y-99045442D01*
X104082450Y-99045441D01*
X103992658Y-98955649D01*
X103878574Y-98899876D01*
X103860081Y-98897182D01*
X103804610Y-98889100D01*
X102482390Y-98889100D01*
X102433082Y-98896284D01*
X102408425Y-98899876D01*
X102294341Y-98955649D01*
X102204549Y-99045441D01*
X102148776Y-99159525D01*
X102144735Y-99187263D01*
X102138000Y-99233490D01*
X99438000Y-99233490D01*
X99438000Y-95943324D01*
X100007000Y-95943324D01*
X100007000Y-96056676D01*
X100032917Y-96153397D01*
X100036338Y-96166166D01*
X100036339Y-96166169D01*
X100093011Y-96264329D01*
X100093013Y-96264332D01*
X100093014Y-96264333D01*
X100173167Y-96344486D01*
X100271333Y-96401162D01*
X100380824Y-96430500D01*
X100380826Y-96430500D01*
X100494174Y-96430500D01*
X100494176Y-96430500D01*
X100603667Y-96401162D01*
X100701833Y-96344486D01*
X100781986Y-96264333D01*
X100838662Y-96166167D01*
X100868000Y-96056676D01*
X100868000Y-95943324D01*
X100838662Y-95833833D01*
X100781986Y-95735667D01*
X100701833Y-95655514D01*
X100701832Y-95655513D01*
X100701829Y-95655511D01*
X100603669Y-95598839D01*
X100603668Y-95598838D01*
X100603667Y-95598838D01*
X100494176Y-95569500D01*
X100380824Y-95569500D01*
X100271333Y-95598838D01*
X100271330Y-95598839D01*
X100173170Y-95655511D01*
X100173165Y-95655515D01*
X100093015Y-95735665D01*
X100093011Y-95735670D01*
X100036339Y-95833830D01*
X100036338Y-95833833D01*
X100007000Y-95943324D01*
X99438000Y-95943324D01*
X99438000Y-94389586D01*
X102613501Y-94389586D01*
X102623994Y-94492297D01*
X102679141Y-94658719D01*
X102679143Y-94658724D01*
X102771184Y-94807945D01*
X102895154Y-94931915D01*
X103044375Y-95023956D01*
X103044380Y-95023958D01*
X103210802Y-95079105D01*
X103210809Y-95079106D01*
X103313519Y-95089599D01*
X103589000Y-95089599D01*
X103656039Y-95109283D01*
X103701794Y-95162087D01*
X103713000Y-95213599D01*
X103713000Y-95276276D01*
X103742338Y-95385767D01*
X103762860Y-95421313D01*
X103771387Y-95436081D01*
X103788000Y-95498081D01*
X103788000Y-96135100D01*
X103768315Y-96202139D01*
X103715511Y-96247894D01*
X103664000Y-96259100D01*
X103327390Y-96259100D01*
X103278082Y-96266284D01*
X103253425Y-96269876D01*
X103139341Y-96325649D01*
X103049549Y-96415441D01*
X102993776Y-96529525D01*
X102991699Y-96543782D01*
X102983000Y-96603490D01*
X102983000Y-97500710D01*
X102990078Y-97549290D01*
X102993776Y-97574674D01*
X103049549Y-97688758D01*
X103139341Y-97778550D01*
X103253425Y-97834323D01*
X103253426Y-97834323D01*
X103253428Y-97834324D01*
X103327390Y-97845100D01*
X103327396Y-97845100D01*
X104699604Y-97845100D01*
X104699610Y-97845100D01*
X104773572Y-97834324D01*
X104887657Y-97778551D01*
X104977451Y-97688757D01*
X105033224Y-97574672D01*
X105044000Y-97500710D01*
X105044000Y-96864123D01*
X109094038Y-96864123D01*
X109094038Y-96977475D01*
X109115260Y-97056674D01*
X109123376Y-97086965D01*
X109123377Y-97086968D01*
X109180049Y-97185128D01*
X109180051Y-97185131D01*
X109180052Y-97185132D01*
X109260205Y-97265285D01*
X109260206Y-97265286D01*
X109260208Y-97265287D01*
X109294834Y-97285278D01*
X109358371Y-97321961D01*
X109414490Y-97336998D01*
X109470077Y-97369091D01*
X110045681Y-97944695D01*
X110079166Y-98006018D01*
X110082000Y-98032376D01*
X110082000Y-99721517D01*
X110065388Y-99783516D01*
X110036338Y-99833832D01*
X110036338Y-99833833D01*
X110007000Y-99943324D01*
X110007000Y-100056676D01*
X110032275Y-100151001D01*
X110036338Y-100166166D01*
X110036339Y-100166169D01*
X110093011Y-100264329D01*
X110093013Y-100264332D01*
X110093014Y-100264333D01*
X110173167Y-100344486D01*
X110271333Y-100401162D01*
X110380824Y-100430500D01*
X110380826Y-100430500D01*
X110494174Y-100430500D01*
X110494176Y-100430500D01*
X110603667Y-100401162D01*
X110701833Y-100344486D01*
X110781986Y-100264333D01*
X110838662Y-100166167D01*
X110868000Y-100056676D01*
X110868000Y-99943324D01*
X110838662Y-99833833D01*
X110809612Y-99783516D01*
X110793000Y-99721517D01*
X110793000Y-97786960D01*
X110793000Y-97786958D01*
X110768774Y-97696543D01*
X110721971Y-97615479D01*
X110655782Y-97549290D01*
X109972830Y-96866338D01*
X109940737Y-96810751D01*
X109925700Y-96754632D01*
X109869024Y-96656466D01*
X109788871Y-96576313D01*
X109788870Y-96576312D01*
X109788867Y-96576310D01*
X109690707Y-96519638D01*
X109690706Y-96519637D01*
X109690705Y-96519637D01*
X109581214Y-96490299D01*
X109467862Y-96490299D01*
X109358371Y-96519637D01*
X109358368Y-96519638D01*
X109260208Y-96576310D01*
X109260203Y-96576314D01*
X109180053Y-96656464D01*
X109180049Y-96656469D01*
X109123377Y-96754629D01*
X109123376Y-96754632D01*
X109094038Y-96864123D01*
X105044000Y-96864123D01*
X105044000Y-96603490D01*
X105033224Y-96529528D01*
X105028810Y-96520500D01*
X104977450Y-96415441D01*
X104887658Y-96325649D01*
X104773574Y-96269876D01*
X104752590Y-96266819D01*
X104699610Y-96259100D01*
X104699604Y-96259100D01*
X104623000Y-96259100D01*
X104555961Y-96239415D01*
X104510206Y-96186611D01*
X104499000Y-96135100D01*
X104499000Y-95498081D01*
X104515613Y-95436081D01*
X104524139Y-95421314D01*
X104544662Y-95385767D01*
X104574000Y-95276276D01*
X104574000Y-95213599D01*
X104585412Y-95174733D01*
X113059889Y-95174733D01*
X113059889Y-100313631D01*
X113084115Y-100404048D01*
X113096343Y-100425227D01*
X113130918Y-100485111D01*
X113130920Y-100485113D01*
X115161275Y-102515469D01*
X115161277Y-102515470D01*
X115161278Y-102515471D01*
X115242341Y-102562274D01*
X115332757Y-102586500D01*
X115332760Y-102586500D01*
X117953301Y-102586500D01*
X117953303Y-102586500D01*
X118043718Y-102562274D01*
X118124782Y-102515471D01*
X118599236Y-102041015D01*
X118660556Y-102007533D01*
X118696836Y-102006286D01*
X118696917Y-102005176D01*
X118701386Y-102005500D01*
X118701390Y-102005500D01*
X119573604Y-102005500D01*
X119573610Y-102005500D01*
X119647572Y-101994724D01*
X119761657Y-101938951D01*
X119851451Y-101849157D01*
X119907224Y-101735072D01*
X119918000Y-101661110D01*
X119918000Y-100773614D01*
X119937685Y-100706575D01*
X119954315Y-100685937D01*
X120722961Y-99917290D01*
X120778545Y-99885199D01*
X120834667Y-99870162D01*
X120932833Y-99813486D01*
X121012986Y-99733333D01*
X121069662Y-99635167D01*
X121099000Y-99525676D01*
X121099000Y-99412324D01*
X121069662Y-99302833D01*
X121040612Y-99252516D01*
X121024000Y-99190517D01*
X121024000Y-96634199D01*
X121024000Y-96634197D01*
X120999774Y-96543782D01*
X120952971Y-96462718D01*
X120886782Y-96396529D01*
X120478519Y-95988266D01*
X120445034Y-95926943D01*
X120443773Y-95890661D01*
X120442676Y-95890582D01*
X120443000Y-95886113D01*
X120443000Y-95013894D01*
X120443000Y-95013890D01*
X120432435Y-94941376D01*
X120442250Y-94872199D01*
X120487906Y-94819310D01*
X120554908Y-94799500D01*
X121324307Y-94799500D01*
X121391346Y-94819185D01*
X121411988Y-94835819D01*
X136145681Y-109569512D01*
X136160384Y-109596439D01*
X136176977Y-109622258D01*
X136177868Y-109628458D01*
X136179166Y-109630835D01*
X136182000Y-109657193D01*
X136182000Y-109895500D01*
X136162315Y-109962539D01*
X136109511Y-110008294D01*
X136058000Y-110019500D01*
X135574649Y-110019500D01*
X135574641Y-110019501D01*
X135536583Y-110027070D01*
X135536580Y-110027071D01*
X135493414Y-110055914D01*
X135464570Y-110099081D01*
X135457000Y-110137141D01*
X135457000Y-111862850D01*
X135457001Y-111862858D01*
X135463956Y-111897827D01*
X135464571Y-111900919D01*
X135493414Y-111944086D01*
X135536581Y-111972929D01*
X135574645Y-111980500D01*
X137300354Y-111980499D01*
X137338419Y-111972929D01*
X137381586Y-111944086D01*
X137410429Y-111900919D01*
X137418000Y-111862855D01*
X137417999Y-110137146D01*
X137417998Y-110137141D01*
X140957000Y-110137141D01*
X140957000Y-111862850D01*
X140957001Y-111862858D01*
X140963956Y-111897827D01*
X140964571Y-111900919D01*
X140993414Y-111944086D01*
X141036581Y-111972929D01*
X141074645Y-111980500D01*
X142800354Y-111980499D01*
X142838419Y-111972929D01*
X142881586Y-111944086D01*
X142910429Y-111900919D01*
X142918000Y-111862855D01*
X142917999Y-110903424D01*
X143497000Y-110903424D01*
X143497000Y-111096575D01*
X143534678Y-111285993D01*
X143534681Y-111286005D01*
X143608588Y-111464434D01*
X143608595Y-111464447D01*
X143715895Y-111625031D01*
X143715898Y-111625035D01*
X143852464Y-111761601D01*
X143852468Y-111761604D01*
X144013052Y-111868904D01*
X144013065Y-111868911D01*
X144191494Y-111942818D01*
X144191499Y-111942820D01*
X144342862Y-111972928D01*
X144380924Y-111980499D01*
X144380927Y-111980500D01*
X144380929Y-111980500D01*
X144574073Y-111980500D01*
X144574074Y-111980499D01*
X144763501Y-111942820D01*
X144941941Y-111868908D01*
X145102532Y-111761604D01*
X145239104Y-111625032D01*
X145346408Y-111464441D01*
X145420320Y-111286001D01*
X145458000Y-111096571D01*
X145458000Y-110903429D01*
X145458000Y-110903426D01*
X145457999Y-110903424D01*
X146037000Y-110903424D01*
X146037000Y-111096575D01*
X146074678Y-111285993D01*
X146074681Y-111286005D01*
X146148588Y-111464434D01*
X146148595Y-111464447D01*
X146255895Y-111625031D01*
X146255898Y-111625035D01*
X146392464Y-111761601D01*
X146392468Y-111761604D01*
X146553052Y-111868904D01*
X146553065Y-111868911D01*
X146731494Y-111942818D01*
X146731499Y-111942820D01*
X146882862Y-111972928D01*
X146920924Y-111980499D01*
X146920927Y-111980500D01*
X146920929Y-111980500D01*
X147114073Y-111980500D01*
X147114074Y-111980499D01*
X147303501Y-111942820D01*
X147481941Y-111868908D01*
X147642532Y-111761604D01*
X147779104Y-111625032D01*
X147886408Y-111464441D01*
X147960320Y-111286001D01*
X147998000Y-111096571D01*
X147998000Y-110903429D01*
X147998000Y-110903426D01*
X147997999Y-110903424D01*
X147960321Y-110714006D01*
X147960320Y-110713999D01*
X147939052Y-110662653D01*
X147886411Y-110535565D01*
X147886404Y-110535552D01*
X147779104Y-110374968D01*
X147779101Y-110374964D01*
X147642535Y-110238398D01*
X147642531Y-110238395D01*
X147636187Y-110234156D01*
X147490995Y-110137141D01*
X150457000Y-110137141D01*
X150457000Y-111862850D01*
X150457001Y-111862858D01*
X150463956Y-111897827D01*
X150464571Y-111900919D01*
X150493414Y-111944086D01*
X150536581Y-111972929D01*
X150574645Y-111980500D01*
X152300354Y-111980499D01*
X152338419Y-111972929D01*
X152381586Y-111944086D01*
X152410429Y-111900919D01*
X152418000Y-111862855D01*
X152417999Y-110934174D01*
X152417999Y-110137149D01*
X152417999Y-110137146D01*
X152411040Y-110102155D01*
X156087500Y-110102155D01*
X156087500Y-110750000D01*
X157004488Y-110750000D01*
X156971575Y-110807007D01*
X156937500Y-110934174D01*
X156937500Y-111065826D01*
X156971575Y-111192993D01*
X157004488Y-111250000D01*
X156087500Y-111250000D01*
X156087500Y-111897844D01*
X156093901Y-111957372D01*
X156093903Y-111957379D01*
X156144145Y-112092086D01*
X156144149Y-112092093D01*
X156230309Y-112207187D01*
X156230312Y-112207190D01*
X156345406Y-112293350D01*
X156345413Y-112293354D01*
X156480120Y-112343596D01*
X156480127Y-112343598D01*
X156539655Y-112349999D01*
X156539672Y-112350000D01*
X157187500Y-112350000D01*
X157187500Y-111433012D01*
X157244507Y-111465925D01*
X157371674Y-111500000D01*
X157503326Y-111500000D01*
X157630493Y-111465925D01*
X157687500Y-111433012D01*
X157687500Y-112350000D01*
X158335328Y-112350000D01*
X158335344Y-112349999D01*
X158394872Y-112343598D01*
X158394879Y-112343596D01*
X158529586Y-112293354D01*
X158529593Y-112293350D01*
X158644687Y-112207190D01*
X158644690Y-112207187D01*
X158730850Y-112092093D01*
X158730854Y-112092086D01*
X158781096Y-111957379D01*
X158781098Y-111957372D01*
X158787499Y-111897844D01*
X158787500Y-111897827D01*
X158787500Y-111250000D01*
X157870512Y-111250000D01*
X157903425Y-111192993D01*
X157937500Y-111065826D01*
X157937500Y-110934174D01*
X157903425Y-110807007D01*
X157870512Y-110750000D01*
X158787500Y-110750000D01*
X158787500Y-110102172D01*
X158787499Y-110102155D01*
X158781098Y-110042627D01*
X158781096Y-110042620D01*
X158730854Y-109907913D01*
X158730850Y-109907906D01*
X158644690Y-109792812D01*
X158644687Y-109792809D01*
X158529593Y-109706649D01*
X158529586Y-109706645D01*
X158394879Y-109656403D01*
X158394872Y-109656401D01*
X158335344Y-109650000D01*
X157687500Y-109650000D01*
X157687500Y-110566988D01*
X157630493Y-110534075D01*
X157503326Y-110500000D01*
X157371674Y-110500000D01*
X157244507Y-110534075D01*
X157187500Y-110566988D01*
X157187500Y-109650000D01*
X156539655Y-109650000D01*
X156480127Y-109656401D01*
X156480120Y-109656403D01*
X156345413Y-109706645D01*
X156345406Y-109706649D01*
X156230312Y-109792809D01*
X156230309Y-109792812D01*
X156144149Y-109907906D01*
X156144145Y-109907913D01*
X156093903Y-110042620D01*
X156093901Y-110042627D01*
X156087500Y-110102155D01*
X152411040Y-110102155D01*
X152410429Y-110099081D01*
X152381586Y-110055914D01*
X152338419Y-110027071D01*
X152338418Y-110027070D01*
X152300357Y-110019500D01*
X150574649Y-110019500D01*
X150574641Y-110019501D01*
X150536583Y-110027070D01*
X150536580Y-110027071D01*
X150493414Y-110055914D01*
X150464570Y-110099081D01*
X150457000Y-110137141D01*
X147490995Y-110137141D01*
X147481947Y-110131095D01*
X147481934Y-110131088D01*
X147303505Y-110057181D01*
X147303493Y-110057178D01*
X147114074Y-110019500D01*
X147114071Y-110019500D01*
X146920929Y-110019500D01*
X146920926Y-110019500D01*
X146731506Y-110057178D01*
X146731494Y-110057181D01*
X146553065Y-110131088D01*
X146553052Y-110131095D01*
X146392468Y-110238395D01*
X146392464Y-110238398D01*
X146255898Y-110374964D01*
X146255895Y-110374968D01*
X146148595Y-110535552D01*
X146148588Y-110535565D01*
X146074681Y-110713994D01*
X146074678Y-110714006D01*
X146037000Y-110903424D01*
X145457999Y-110903424D01*
X145420321Y-110714006D01*
X145420320Y-110713999D01*
X145399052Y-110662653D01*
X145346411Y-110535565D01*
X145346404Y-110535552D01*
X145239104Y-110374968D01*
X145239101Y-110374964D01*
X145102535Y-110238398D01*
X145102531Y-110238395D01*
X144941947Y-110131095D01*
X144941934Y-110131088D01*
X144763505Y-110057181D01*
X144763493Y-110057178D01*
X144574074Y-110019500D01*
X144574071Y-110019500D01*
X144380929Y-110019500D01*
X144380926Y-110019500D01*
X144191506Y-110057178D01*
X144191494Y-110057181D01*
X144013065Y-110131088D01*
X144013052Y-110131095D01*
X143852468Y-110238395D01*
X143852464Y-110238398D01*
X143715898Y-110374964D01*
X143715895Y-110374968D01*
X143608595Y-110535552D01*
X143608588Y-110535565D01*
X143534681Y-110713994D01*
X143534678Y-110714006D01*
X143497000Y-110903424D01*
X142917999Y-110903424D01*
X142917999Y-110137146D01*
X142910429Y-110099081D01*
X142881586Y-110055914D01*
X142838419Y-110027071D01*
X142838418Y-110027070D01*
X142800357Y-110019500D01*
X141074649Y-110019500D01*
X141074641Y-110019501D01*
X141036583Y-110027070D01*
X141036580Y-110027071D01*
X140993414Y-110055914D01*
X140964570Y-110099081D01*
X140957000Y-110137141D01*
X137417998Y-110137141D01*
X137410429Y-110099081D01*
X137381586Y-110055914D01*
X137338419Y-110027071D01*
X137338418Y-110027070D01*
X137300358Y-110019500D01*
X137300355Y-110019500D01*
X136817000Y-110019500D01*
X136749961Y-109999815D01*
X136704206Y-109947011D01*
X136693000Y-109895500D01*
X136693000Y-109449179D01*
X136692998Y-109449174D01*
X136654105Y-109355273D01*
X136575164Y-109276332D01*
X136575157Y-109276326D01*
X121929012Y-94630181D01*
X121895527Y-94568858D01*
X121900511Y-94499166D01*
X121942383Y-94443233D01*
X122007847Y-94418816D01*
X122016693Y-94418500D01*
X127369385Y-94418500D01*
X127436424Y-94438185D01*
X127457066Y-94454819D01*
X133003069Y-100000822D01*
X133036554Y-100062145D01*
X133038094Y-100106368D01*
X133037000Y-100113880D01*
X133037000Y-100113889D01*
X133037000Y-100113890D01*
X133037000Y-101011110D01*
X133045082Y-101066581D01*
X133047776Y-101085074D01*
X133103549Y-101199158D01*
X133193341Y-101288950D01*
X133307425Y-101344723D01*
X133307426Y-101344723D01*
X133307428Y-101344724D01*
X133381390Y-101355500D01*
X133381396Y-101355500D01*
X134753604Y-101355500D01*
X134753610Y-101355500D01*
X134827572Y-101344724D01*
X134941657Y-101288951D01*
X135031451Y-101199157D01*
X135087224Y-101085072D01*
X135098000Y-101011110D01*
X135098000Y-100113890D01*
X135096906Y-100106381D01*
X135106719Y-100037204D01*
X135131926Y-100000825D01*
X135877971Y-99254782D01*
X135924774Y-99173718D01*
X135949000Y-99083303D01*
X135949000Y-98989697D01*
X135949000Y-96973505D01*
X135958227Y-96942083D01*
X136677003Y-96942083D01*
X136677003Y-97055435D01*
X136705578Y-97162076D01*
X136706341Y-97164925D01*
X136706342Y-97164928D01*
X136763014Y-97263088D01*
X136763016Y-97263091D01*
X136763017Y-97263092D01*
X136843170Y-97343245D01*
X136843171Y-97343246D01*
X136843173Y-97343247D01*
X136850346Y-97347388D01*
X136941336Y-97399921D01*
X137050827Y-97429259D01*
X137050829Y-97429259D01*
X137164177Y-97429259D01*
X137164179Y-97429259D01*
X137273670Y-97399921D01*
X137371836Y-97343245D01*
X137405279Y-97309802D01*
X137423264Y-97291818D01*
X137484587Y-97258334D01*
X137510944Y-97255500D01*
X140532818Y-97255500D01*
X140599857Y-97275185D01*
X140620498Y-97291818D01*
X140650640Y-97321959D01*
X140673167Y-97344486D01*
X140673168Y-97344487D01*
X140673170Y-97344488D01*
X140711258Y-97366478D01*
X140771333Y-97401162D01*
X140880824Y-97430500D01*
X140880826Y-97430500D01*
X140994174Y-97430500D01*
X140994176Y-97430500D01*
X141103667Y-97401162D01*
X141201833Y-97344486D01*
X141281986Y-97264333D01*
X141338662Y-97166167D01*
X141368000Y-97056676D01*
X141368000Y-96943324D01*
X141338662Y-96833833D01*
X141307741Y-96780276D01*
X141281988Y-96735670D01*
X141281984Y-96735665D01*
X141201834Y-96655515D01*
X141201829Y-96655511D01*
X141103669Y-96598839D01*
X141103668Y-96598838D01*
X141103667Y-96598838D01*
X140994176Y-96569500D01*
X140880824Y-96569500D01*
X140771333Y-96598838D01*
X140771330Y-96598839D01*
X140673170Y-96655511D01*
X140673165Y-96655515D01*
X140620498Y-96708182D01*
X140559175Y-96741666D01*
X140532818Y-96744500D01*
X137513426Y-96744500D01*
X137446387Y-96724815D01*
X137425745Y-96708182D01*
X137418546Y-96700983D01*
X137371836Y-96654273D01*
X137371833Y-96654271D01*
X137371832Y-96654270D01*
X137273672Y-96597598D01*
X137273671Y-96597597D01*
X137249631Y-96591156D01*
X137164179Y-96568259D01*
X137050827Y-96568259D01*
X136978873Y-96587539D01*
X136941334Y-96597597D01*
X136941333Y-96597598D01*
X136843173Y-96654270D01*
X136843168Y-96654274D01*
X136763018Y-96734424D01*
X136763014Y-96734429D01*
X136706342Y-96832589D01*
X136706341Y-96832592D01*
X136677003Y-96942083D01*
X135958227Y-96942083D01*
X135968685Y-96906466D01*
X136021489Y-96860711D01*
X136040901Y-96853731D01*
X136124718Y-96831274D01*
X136205782Y-96784471D01*
X136623434Y-96366819D01*
X136684757Y-96333334D01*
X136711115Y-96330500D01*
X137598604Y-96330500D01*
X137598610Y-96330500D01*
X137672572Y-96319724D01*
X137786657Y-96263951D01*
X137876451Y-96174157D01*
X137932224Y-96060072D01*
X137939283Y-96011620D01*
X137968426Y-95948122D01*
X138027275Y-95910458D01*
X138061987Y-95905500D01*
X142861160Y-95905500D01*
X142928199Y-95925185D01*
X142948841Y-95941819D01*
X144841493Y-97834471D01*
X144870001Y-97850930D01*
X144918215Y-97901495D01*
X144932000Y-97958316D01*
X144932000Y-97986110D01*
X144934901Y-98006018D01*
X144942776Y-98060074D01*
X144998549Y-98174158D01*
X145088341Y-98263950D01*
X145202425Y-98319723D01*
X145202426Y-98319723D01*
X145202428Y-98319724D01*
X145276390Y-98330500D01*
X145786573Y-98330500D01*
X145853612Y-98350185D01*
X145899367Y-98402989D01*
X145909311Y-98472147D01*
X145893960Y-98516500D01*
X145838594Y-98612396D01*
X145838593Y-98612399D01*
X145809255Y-98721890D01*
X145809255Y-98835242D01*
X145837180Y-98939457D01*
X145838593Y-98944732D01*
X145838594Y-98944735D01*
X145895266Y-99042895D01*
X145895268Y-99042897D01*
X145895269Y-99042899D01*
X145975422Y-99123052D01*
X146073588Y-99179728D01*
X146183079Y-99209066D01*
X146183081Y-99209066D01*
X146296429Y-99209066D01*
X146296431Y-99209066D01*
X146405922Y-99179728D01*
X146504088Y-99123052D01*
X146584241Y-99042899D01*
X146629136Y-98965137D01*
X146679702Y-98916923D01*
X146748309Y-98903699D01*
X146813174Y-98929667D01*
X146824204Y-98939457D01*
X150545681Y-102660934D01*
X150579166Y-102722257D01*
X150582000Y-102748615D01*
X150582000Y-103721517D01*
X150565388Y-103783516D01*
X150536338Y-103833832D01*
X150536338Y-103833833D01*
X150507000Y-103943324D01*
X150507000Y-104056675D01*
X150536338Y-104166166D01*
X150536339Y-104166169D01*
X150593011Y-104264329D01*
X150593013Y-104264332D01*
X150593014Y-104264333D01*
X150673167Y-104344486D01*
X150771333Y-104401162D01*
X150880824Y-104430500D01*
X150880826Y-104430500D01*
X150994174Y-104430500D01*
X150994176Y-104430500D01*
X151103667Y-104401162D01*
X151201833Y-104344486D01*
X151281986Y-104264333D01*
X151338662Y-104166167D01*
X151368000Y-104056676D01*
X151368000Y-103943324D01*
X151338662Y-103833833D01*
X151309612Y-103783516D01*
X151293000Y-103721517D01*
X151293000Y-102503199D01*
X151293000Y-102503197D01*
X151268774Y-102412782D01*
X151221971Y-102331718D01*
X151155782Y-102265529D01*
X149753740Y-100863487D01*
X168943301Y-100863487D01*
X168953794Y-100966198D01*
X169008941Y-101132620D01*
X169008943Y-101132625D01*
X169100984Y-101281846D01*
X169224954Y-101405816D01*
X169374175Y-101497857D01*
X169374180Y-101497859D01*
X169540602Y-101553006D01*
X169540609Y-101553007D01*
X169643319Y-101563500D01*
X170093299Y-101563500D01*
X170593300Y-101563500D01*
X171043272Y-101563500D01*
X171043286Y-101563499D01*
X171145997Y-101553006D01*
X171312419Y-101497859D01*
X171312424Y-101497857D01*
X171461645Y-101405816D01*
X171585615Y-101281846D01*
X171677656Y-101132625D01*
X171677657Y-101132621D01*
X171689142Y-101097962D01*
X171728913Y-101040516D01*
X171793429Y-101013691D01*
X171862205Y-101026005D01*
X171913406Y-101073546D01*
X171924554Y-101097957D01*
X171936039Y-101132616D01*
X171936043Y-101132625D01*
X172028084Y-101281846D01*
X172152054Y-101405816D01*
X172301275Y-101497857D01*
X172301280Y-101497859D01*
X172467702Y-101553006D01*
X172467709Y-101553007D01*
X172570419Y-101563500D01*
X173020399Y-101563500D01*
X173520400Y-101563500D01*
X173970372Y-101563500D01*
X173970386Y-101563499D01*
X174073097Y-101553006D01*
X174239519Y-101497859D01*
X174239524Y-101497857D01*
X174388745Y-101405816D01*
X174512715Y-101281846D01*
X174604756Y-101132625D01*
X174604758Y-101132620D01*
X174659905Y-100966198D01*
X174659906Y-100966191D01*
X174670399Y-100863487D01*
X174670400Y-100863474D01*
X174670400Y-100651001D01*
X173520400Y-100651001D01*
X173520400Y-101563500D01*
X173020399Y-101563500D01*
X173020400Y-101563499D01*
X173020400Y-100651001D01*
X171850337Y-100651001D01*
X171833203Y-100660356D01*
X171763512Y-100655369D01*
X171756716Y-100651001D01*
X170593300Y-100651001D01*
X170593300Y-101563500D01*
X170093299Y-101563500D01*
X170093300Y-101563499D01*
X170093300Y-100651001D01*
X168943301Y-100651001D01*
X168943301Y-100863487D01*
X149753740Y-100863487D01*
X148828767Y-99938514D01*
X168943300Y-99938514D01*
X168943300Y-100151001D01*
X170093300Y-100151001D01*
X170593300Y-100151001D01*
X171763357Y-100151001D01*
X171780486Y-100141647D01*
X171850178Y-100146628D01*
X171856983Y-100151001D01*
X173020400Y-100151001D01*
X173520400Y-100151001D01*
X174670399Y-100151001D01*
X174670399Y-99938529D01*
X174670398Y-99938514D01*
X174659905Y-99835803D01*
X174604758Y-99669381D01*
X174604756Y-99669376D01*
X174512715Y-99520155D01*
X174388745Y-99396185D01*
X174314499Y-99350390D01*
X174314496Y-99350387D01*
X174239530Y-99304147D01*
X174239519Y-99304142D01*
X174073097Y-99248995D01*
X174073090Y-99248994D01*
X174064878Y-99248155D01*
X177073500Y-99248155D01*
X177073500Y-99896000D01*
X177990488Y-99896000D01*
X177957575Y-99953007D01*
X177923500Y-100080174D01*
X177923500Y-100211826D01*
X177957575Y-100338993D01*
X177990488Y-100396000D01*
X177073500Y-100396000D01*
X177073500Y-101043844D01*
X177079901Y-101103372D01*
X177079903Y-101103379D01*
X177130145Y-101238086D01*
X177130149Y-101238093D01*
X177216309Y-101353187D01*
X177216312Y-101353190D01*
X177331406Y-101439350D01*
X177331413Y-101439354D01*
X177466120Y-101489596D01*
X177466127Y-101489598D01*
X177525655Y-101495999D01*
X177525672Y-101496000D01*
X178173500Y-101496000D01*
X178173500Y-100579012D01*
X178230507Y-100611925D01*
X178357674Y-100646000D01*
X178489326Y-100646000D01*
X178616493Y-100611925D01*
X178673500Y-100579012D01*
X178673500Y-101496000D01*
X179321328Y-101496000D01*
X179321344Y-101495999D01*
X179380872Y-101489598D01*
X179380879Y-101489596D01*
X179515586Y-101439354D01*
X179515593Y-101439350D01*
X179630687Y-101353190D01*
X179630690Y-101353187D01*
X179716850Y-101238093D01*
X179716854Y-101238086D01*
X179767096Y-101103379D01*
X179767098Y-101103372D01*
X179773499Y-101043844D01*
X179773500Y-101043827D01*
X179773500Y-100396000D01*
X178856512Y-100396000D01*
X178889425Y-100338993D01*
X178923500Y-100211826D01*
X178923500Y-100080174D01*
X178889425Y-99953007D01*
X178856512Y-99896000D01*
X179773500Y-99896000D01*
X179773500Y-99248172D01*
X179773499Y-99248155D01*
X179767098Y-99188627D01*
X179767096Y-99188620D01*
X179716854Y-99053913D01*
X179716850Y-99053906D01*
X179630690Y-98938812D01*
X179630687Y-98938809D01*
X179515593Y-98852649D01*
X179515586Y-98852645D01*
X179380879Y-98802403D01*
X179380872Y-98802401D01*
X179321344Y-98796000D01*
X178673500Y-98796000D01*
X178673500Y-99712988D01*
X178616493Y-99680075D01*
X178489326Y-99646000D01*
X178357674Y-99646000D01*
X178230507Y-99680075D01*
X178173500Y-99712988D01*
X178173500Y-98796000D01*
X177525655Y-98796000D01*
X177466127Y-98802401D01*
X177466120Y-98802403D01*
X177331413Y-98852645D01*
X177331406Y-98852649D01*
X177216312Y-98938809D01*
X177216309Y-98938812D01*
X177130149Y-99053906D01*
X177130145Y-99053913D01*
X177079903Y-99188620D01*
X177079901Y-99188627D01*
X177073500Y-99248155D01*
X174064878Y-99248155D01*
X173970386Y-99238501D01*
X173520400Y-99238501D01*
X173520400Y-100151001D01*
X173020400Y-100151001D01*
X173020400Y-99238501D01*
X172570428Y-99238501D01*
X172570412Y-99238502D01*
X172467702Y-99248995D01*
X172301280Y-99304142D01*
X172301275Y-99304144D01*
X172152054Y-99396185D01*
X172028084Y-99520155D01*
X171936043Y-99669376D01*
X171936042Y-99669379D01*
X171924556Y-99704043D01*
X171884783Y-99761487D01*
X171820267Y-99788310D01*
X171751491Y-99775995D01*
X171700291Y-99728451D01*
X171689144Y-99704043D01*
X171677657Y-99669379D01*
X171677656Y-99669376D01*
X171585615Y-99520155D01*
X171461645Y-99396185D01*
X171312424Y-99304144D01*
X171312419Y-99304142D01*
X171145997Y-99248995D01*
X171145990Y-99248994D01*
X171043286Y-99238501D01*
X170593300Y-99238501D01*
X170593300Y-100151001D01*
X170093300Y-100151001D01*
X170093300Y-99238501D01*
X169643328Y-99238501D01*
X169643312Y-99238502D01*
X169540602Y-99248995D01*
X169374180Y-99304142D01*
X169374175Y-99304144D01*
X169224954Y-99396185D01*
X169100984Y-99520155D01*
X169008943Y-99669376D01*
X169008941Y-99669381D01*
X168953794Y-99835803D01*
X168953793Y-99835810D01*
X168943300Y-99938514D01*
X148828767Y-99938514D01*
X146978519Y-98088266D01*
X146963504Y-98060769D01*
X148889555Y-98060769D01*
X148889555Y-98174121D01*
X148911629Y-98256500D01*
X148918893Y-98283611D01*
X148918894Y-98283614D01*
X148975566Y-98381774D01*
X148975568Y-98381777D01*
X148975569Y-98381778D01*
X149055722Y-98461931D01*
X149055723Y-98461932D01*
X149055725Y-98461933D01*
X149104020Y-98489816D01*
X149153888Y-98518607D01*
X149263379Y-98547945D01*
X149263381Y-98547945D01*
X149376729Y-98547945D01*
X149376731Y-98547945D01*
X149486222Y-98518607D01*
X149584388Y-98461931D01*
X149664541Y-98381778D01*
X149721217Y-98283612D01*
X149750555Y-98174121D01*
X149750555Y-98099637D01*
X149770240Y-98032598D01*
X149786874Y-98011956D01*
X149918572Y-97880258D01*
X150064787Y-97734043D01*
X150064790Y-97734041D01*
X150082228Y-97716603D01*
X150082229Y-97716603D01*
X150154103Y-97644729D01*
X150188508Y-97561667D01*
X150193000Y-97550823D01*
X150193000Y-97449177D01*
X150193000Y-97400461D01*
X150193287Y-97396250D01*
X150203984Y-97367271D01*
X150212685Y-97337642D01*
X150216814Y-97332517D01*
X150217484Y-97330704D01*
X150219501Y-97329183D01*
X150229319Y-97317000D01*
X150254501Y-97291818D01*
X150281986Y-97264333D01*
X150338662Y-97166167D01*
X150368000Y-97056676D01*
X150368000Y-96943324D01*
X150338662Y-96833833D01*
X150307741Y-96780276D01*
X150281988Y-96735670D01*
X150281984Y-96735665D01*
X150201834Y-96655515D01*
X150201829Y-96655511D01*
X150103669Y-96598839D01*
X150103668Y-96598838D01*
X150103667Y-96598838D01*
X149994176Y-96569500D01*
X149880824Y-96569500D01*
X149771333Y-96598838D01*
X149771330Y-96598839D01*
X149673170Y-96655511D01*
X149673165Y-96655515D01*
X149593015Y-96735665D01*
X149593011Y-96735670D01*
X149536339Y-96833830D01*
X149536338Y-96833833D01*
X149507000Y-96943324D01*
X149507000Y-97056676D01*
X149536006Y-97164926D01*
X149536338Y-97166166D01*
X149536339Y-97166169D01*
X149593011Y-97264329D01*
X149593012Y-97264330D01*
X149593014Y-97264333D01*
X149604106Y-97275425D01*
X149614745Y-97286064D01*
X149648229Y-97347388D01*
X149643243Y-97417080D01*
X149614743Y-97461425D01*
X149425542Y-97650626D01*
X149364219Y-97684111D01*
X149337861Y-97686945D01*
X149263379Y-97686945D01*
X149153888Y-97716283D01*
X149153885Y-97716284D01*
X149055725Y-97772956D01*
X149055720Y-97772960D01*
X148975570Y-97853110D01*
X148975566Y-97853115D01*
X148918894Y-97951275D01*
X148918893Y-97951278D01*
X148889555Y-98060769D01*
X146963504Y-98060769D01*
X146945034Y-98026943D01*
X146943773Y-97990661D01*
X146942676Y-97990582D01*
X146943000Y-97986113D01*
X146943000Y-97113895D01*
X146943000Y-97113890D01*
X146932224Y-97039928D01*
X146907275Y-96988895D01*
X146876450Y-96925841D01*
X146786658Y-96836049D01*
X146672574Y-96780276D01*
X146654081Y-96777582D01*
X146598610Y-96769500D01*
X145276390Y-96769500D01*
X145227082Y-96776684D01*
X145202425Y-96780276D01*
X145088341Y-96836049D01*
X145088340Y-96836049D01*
X145056139Y-96868251D01*
X144994816Y-96901736D01*
X144925124Y-96896750D01*
X144880778Y-96868250D01*
X143278059Y-95265531D01*
X143278057Y-95265529D01*
X143217386Y-95230500D01*
X143196994Y-95218726D01*
X143149095Y-95205892D01*
X143106578Y-95194500D01*
X143106577Y-95194500D01*
X138061987Y-95194500D01*
X137994948Y-95174815D01*
X137949193Y-95122011D01*
X137939283Y-95088382D01*
X137932224Y-95039928D01*
X137924416Y-95023957D01*
X137876450Y-94925841D01*
X137786658Y-94836049D01*
X137672574Y-94780276D01*
X137654081Y-94777582D01*
X137598610Y-94769500D01*
X136276390Y-94769500D01*
X136227082Y-94776684D01*
X136202425Y-94780276D01*
X136127461Y-94816925D01*
X136058588Y-94828685D01*
X135994290Y-94801341D01*
X135954983Y-94743577D01*
X135949000Y-94705525D01*
X135949000Y-93943324D01*
X144007000Y-93943324D01*
X144007000Y-94056676D01*
X144031869Y-94149486D01*
X144036338Y-94166166D01*
X144036339Y-94166169D01*
X144093011Y-94264329D01*
X144093013Y-94264332D01*
X144093014Y-94264333D01*
X144173167Y-94344486D01*
X144173168Y-94344487D01*
X144173170Y-94344488D01*
X144222250Y-94372824D01*
X144271333Y-94401162D01*
X144380824Y-94430500D01*
X144380826Y-94430500D01*
X144455307Y-94430500D01*
X144484747Y-94439144D01*
X144514734Y-94445668D01*
X144519749Y-94449422D01*
X144522346Y-94450185D01*
X144542988Y-94466819D01*
X144663826Y-94587657D01*
X144663829Y-94587661D01*
X144670897Y-94594729D01*
X144742771Y-94666603D01*
X144809172Y-94694107D01*
X144836677Y-94705500D01*
X144836678Y-94705500D01*
X144839364Y-94705500D01*
X144851984Y-94710288D01*
X144871928Y-94725393D01*
X144894097Y-94736988D01*
X144899300Y-94746123D01*
X144907682Y-94752472D01*
X144916293Y-94775961D01*
X144928675Y-94797701D01*
X144930731Y-94815342D01*
X144931732Y-94818072D01*
X144931283Y-94820079D01*
X144932000Y-94826225D01*
X144932000Y-94886110D01*
X144937643Y-94924838D01*
X144942776Y-94960074D01*
X144998549Y-95074158D01*
X145088341Y-95163950D01*
X145202425Y-95219723D01*
X145202426Y-95219723D01*
X145202428Y-95219724D01*
X145276390Y-95230500D01*
X145276396Y-95230500D01*
X146598604Y-95230500D01*
X146598610Y-95230500D01*
X146672572Y-95219724D01*
X146786657Y-95163951D01*
X146876451Y-95074157D01*
X146932224Y-94960072D01*
X146943000Y-94886110D01*
X146943000Y-94013890D01*
X146932224Y-93939928D01*
X146887941Y-93849347D01*
X146876450Y-93825841D01*
X146798933Y-93748324D01*
X154843481Y-93748324D01*
X154843481Y-93861676D01*
X154865359Y-93943324D01*
X154872819Y-93971166D01*
X154872820Y-93971169D01*
X154929492Y-94069329D01*
X154929494Y-94069332D01*
X154929495Y-94069333D01*
X155009648Y-94149486D01*
X155107814Y-94206162D01*
X155217305Y-94235500D01*
X155217307Y-94235500D01*
X155330655Y-94235500D01*
X155330657Y-94235500D01*
X155440148Y-94206162D01*
X155538314Y-94149486D01*
X155618467Y-94069333D01*
X155675143Y-93971167D01*
X155704481Y-93861676D01*
X155704481Y-93841504D01*
X155724166Y-93774465D01*
X155776970Y-93728710D01*
X155828481Y-93717504D01*
X156205912Y-93717504D01*
X156272951Y-93737189D01*
X156293592Y-93753822D01*
X156329952Y-93790181D01*
X156346261Y-93806490D01*
X156346262Y-93806491D01*
X156346264Y-93806492D01*
X156379778Y-93825841D01*
X156444427Y-93863166D01*
X156553918Y-93892504D01*
X156553920Y-93892504D01*
X156667268Y-93892504D01*
X156667270Y-93892504D01*
X156776761Y-93863166D01*
X156874927Y-93806490D01*
X156955080Y-93726337D01*
X157011756Y-93628171D01*
X157041094Y-93518680D01*
X157041094Y-93405328D01*
X157011756Y-93295837D01*
X156955080Y-93197671D01*
X156874927Y-93117518D01*
X156874926Y-93117517D01*
X156874923Y-93117515D01*
X156776763Y-93060843D01*
X156776762Y-93060842D01*
X156776761Y-93060842D01*
X156667270Y-93031504D01*
X156553918Y-93031504D01*
X156444427Y-93060842D01*
X156444424Y-93060843D01*
X156346264Y-93117515D01*
X156346259Y-93117519D01*
X156293592Y-93170186D01*
X156232269Y-93203670D01*
X156205912Y-93206504D01*
X155682242Y-93206504D01*
X155682234Y-93206503D01*
X155667800Y-93206503D01*
X155566155Y-93206503D01*
X155566154Y-93206503D01*
X155472248Y-93245401D01*
X155379465Y-93338182D01*
X155318143Y-93371666D01*
X155291786Y-93374500D01*
X155217305Y-93374500D01*
X155107814Y-93403838D01*
X155107811Y-93403839D01*
X155009651Y-93460511D01*
X155009646Y-93460515D01*
X154929496Y-93540665D01*
X154929492Y-93540670D01*
X154872820Y-93638830D01*
X154872819Y-93638833D01*
X154843481Y-93748324D01*
X146798933Y-93748324D01*
X146786658Y-93736049D01*
X146672574Y-93680276D01*
X146650773Y-93677100D01*
X146598610Y-93669500D01*
X145276390Y-93669500D01*
X145227082Y-93676684D01*
X145202425Y-93680276D01*
X145088343Y-93736048D01*
X145008528Y-93815863D01*
X144947204Y-93849347D01*
X144877513Y-93844363D01*
X144821579Y-93802491D01*
X144813460Y-93790181D01*
X144781988Y-93735670D01*
X144781984Y-93735665D01*
X144701834Y-93655515D01*
X144701829Y-93655511D01*
X144603669Y-93598839D01*
X144603668Y-93598838D01*
X144603667Y-93598838D01*
X144494176Y-93569500D01*
X144380824Y-93569500D01*
X144271333Y-93598838D01*
X144271330Y-93598839D01*
X144173170Y-93655511D01*
X144173165Y-93655515D01*
X144093015Y-93735665D01*
X144093011Y-93735670D01*
X144036339Y-93833830D01*
X144036338Y-93833833D01*
X144007000Y-93943324D01*
X135949000Y-93943324D01*
X135949000Y-93294474D01*
X135968685Y-93227435D01*
X136021489Y-93181680D01*
X136090647Y-93171736D01*
X136127455Y-93183071D01*
X136202428Y-93219724D01*
X136276390Y-93230500D01*
X136276396Y-93230500D01*
X137598604Y-93230500D01*
X137598610Y-93230500D01*
X137672572Y-93219724D01*
X137786657Y-93163951D01*
X137876451Y-93074157D01*
X137932224Y-92960072D01*
X137943000Y-92886110D01*
X137943000Y-92013890D01*
X137932224Y-91939928D01*
X137876451Y-91825843D01*
X137876450Y-91825842D01*
X137876450Y-91825841D01*
X137786658Y-91736049D01*
X137778296Y-91730079D01*
X137780055Y-91727614D01*
X137770816Y-91719172D01*
X137747509Y-91701725D01*
X137745330Y-91695885D01*
X137740731Y-91691682D01*
X137733267Y-91663540D01*
X137723093Y-91636260D01*
X137724417Y-91630170D01*
X137722820Y-91624147D01*
X137731755Y-91596438D01*
X137737945Y-91567987D01*
X137743191Y-91560979D01*
X137744265Y-91557649D01*
X137759088Y-91539741D01*
X137832013Y-91466816D01*
X137893336Y-91433334D01*
X137919693Y-91430500D01*
X137994174Y-91430500D01*
X137994176Y-91430500D01*
X138103667Y-91401162D01*
X138201833Y-91344486D01*
X138281986Y-91264333D01*
X138338662Y-91166167D01*
X138368000Y-91056676D01*
X138368000Y-90943324D01*
X138338662Y-90833833D01*
X138281986Y-90735667D01*
X138201833Y-90655514D01*
X138201832Y-90655513D01*
X138201829Y-90655511D01*
X138103669Y-90598839D01*
X138103668Y-90598838D01*
X138103667Y-90598838D01*
X137994176Y-90569500D01*
X137880824Y-90569500D01*
X137771333Y-90598838D01*
X137771330Y-90598839D01*
X137673170Y-90655511D01*
X137673165Y-90655515D01*
X137593015Y-90735665D01*
X137593011Y-90735670D01*
X137536339Y-90833830D01*
X137536338Y-90833833D01*
X137507000Y-90943324D01*
X137507000Y-91017805D01*
X137487315Y-91084844D01*
X137470681Y-91105486D01*
X136942988Y-91633181D01*
X136881665Y-91666666D01*
X136855307Y-91669500D01*
X136276390Y-91669500D01*
X136227082Y-91676684D01*
X136202425Y-91680276D01*
X136127461Y-91716925D01*
X136058588Y-91728685D01*
X135994290Y-91701341D01*
X135954983Y-91643577D01*
X135949000Y-91605525D01*
X135949000Y-89034986D01*
X150742501Y-89034986D01*
X150752994Y-89137697D01*
X150808141Y-89304119D01*
X150808143Y-89304124D01*
X150900184Y-89453345D01*
X151024154Y-89577315D01*
X151173375Y-89669356D01*
X151173380Y-89669358D01*
X151339802Y-89724505D01*
X151339809Y-89724506D01*
X151442519Y-89734999D01*
X151687499Y-89734999D01*
X152187500Y-89734999D01*
X152432472Y-89734999D01*
X152432486Y-89734998D01*
X152535197Y-89724505D01*
X152701619Y-89669358D01*
X152701624Y-89669356D01*
X152850845Y-89577315D01*
X152974815Y-89453345D01*
X153066856Y-89304124D01*
X153066858Y-89304119D01*
X153122005Y-89137697D01*
X153122006Y-89137690D01*
X153132499Y-89034986D01*
X153132500Y-89034973D01*
X153132500Y-88690000D01*
X152187500Y-88690000D01*
X152187500Y-89734999D01*
X151687499Y-89734999D01*
X151687500Y-89734998D01*
X151687500Y-88690000D01*
X150742501Y-88690000D01*
X150742501Y-89034986D01*
X135949000Y-89034986D01*
X135949000Y-88812817D01*
X135957644Y-88783376D01*
X135964168Y-88753390D01*
X135967922Y-88748374D01*
X135968685Y-88745778D01*
X135985319Y-88725136D01*
X136159498Y-88550957D01*
X136425375Y-88285080D01*
X136721971Y-87988484D01*
X136768774Y-87907420D01*
X136785495Y-87845013D01*
X150742500Y-87845013D01*
X150742500Y-88190000D01*
X151687500Y-88190000D01*
X152187500Y-88190000D01*
X153132499Y-88190000D01*
X153132499Y-88024986D01*
X156037501Y-88024986D01*
X156047994Y-88127697D01*
X156103141Y-88294119D01*
X156103143Y-88294124D01*
X156195184Y-88443345D01*
X156319154Y-88567315D01*
X156468375Y-88659356D01*
X156468380Y-88659358D01*
X156634802Y-88714505D01*
X156634809Y-88714506D01*
X156737519Y-88724999D01*
X157187499Y-88724999D01*
X157687500Y-88724999D01*
X158137472Y-88724999D01*
X158137486Y-88724998D01*
X158240197Y-88714505D01*
X158406619Y-88659358D01*
X158406630Y-88659353D01*
X158553403Y-88568822D01*
X158620795Y-88550381D01*
X158687459Y-88571303D01*
X158732228Y-88624945D01*
X158742500Y-88674360D01*
X158742500Y-88972470D01*
X158742501Y-88972487D01*
X158752994Y-89075197D01*
X158808141Y-89241619D01*
X158808143Y-89241624D01*
X158900184Y-89390845D01*
X159024154Y-89514815D01*
X159173375Y-89606856D01*
X159173380Y-89606858D01*
X159339802Y-89662005D01*
X159339809Y-89662006D01*
X159442519Y-89672499D01*
X159687499Y-89672499D01*
X160187500Y-89672499D01*
X160432472Y-89672499D01*
X160432486Y-89672498D01*
X160535197Y-89662005D01*
X160701619Y-89606858D01*
X160701624Y-89606856D01*
X160850845Y-89514815D01*
X160974815Y-89390845D01*
X161066856Y-89241624D01*
X161066858Y-89241619D01*
X161122005Y-89075197D01*
X161122006Y-89075190D01*
X161132499Y-88972486D01*
X161132500Y-88972473D01*
X161132500Y-88627500D01*
X160187500Y-88627500D01*
X160187500Y-89672499D01*
X159687499Y-89672499D01*
X159687500Y-89672498D01*
X159687500Y-88498324D01*
X162007000Y-88498324D01*
X162007000Y-88611676D01*
X162019777Y-88659358D01*
X162036338Y-88721166D01*
X162036339Y-88721169D01*
X162093011Y-88819329D01*
X162093013Y-88819332D01*
X162093014Y-88819333D01*
X162173167Y-88899486D01*
X162271333Y-88956162D01*
X162380824Y-88985500D01*
X162380826Y-88985500D01*
X162494174Y-88985500D01*
X162494176Y-88985500D01*
X162603667Y-88956162D01*
X162677000Y-88913822D01*
X162744900Y-88897350D01*
X162810927Y-88920202D01*
X162854118Y-88975124D01*
X162863000Y-89021210D01*
X162863000Y-90128850D01*
X162863001Y-90128858D01*
X162870570Y-90166916D01*
X162870571Y-90166919D01*
X162899414Y-90210086D01*
X162942581Y-90238929D01*
X162980645Y-90246500D01*
X164163819Y-90246499D01*
X164230858Y-90266184D01*
X164251500Y-90282818D01*
X169876481Y-95907799D01*
X169909966Y-95969122D01*
X169912800Y-95995480D01*
X169912800Y-96359001D01*
X169893115Y-96426040D01*
X169840311Y-96471795D01*
X169788800Y-96483001D01*
X169657190Y-96483001D01*
X169607882Y-96490185D01*
X169583225Y-96493777D01*
X169469141Y-96549550D01*
X169379349Y-96639342D01*
X169323576Y-96753426D01*
X169319664Y-96780276D01*
X169312800Y-96827391D01*
X169312800Y-97724611D01*
X169319844Y-97772956D01*
X169323576Y-97798575D01*
X169379349Y-97912659D01*
X169469141Y-98002451D01*
X169583225Y-98058224D01*
X169583226Y-98058224D01*
X169583228Y-98058225D01*
X169657190Y-98069001D01*
X169657196Y-98069001D01*
X171029404Y-98069001D01*
X171029410Y-98069001D01*
X171103372Y-98058225D01*
X171217457Y-98002452D01*
X171307251Y-97912658D01*
X171363024Y-97798573D01*
X171373800Y-97724611D01*
X171373800Y-96827391D01*
X172239900Y-96827391D01*
X172239900Y-97724611D01*
X172246944Y-97772956D01*
X172250676Y-97798575D01*
X172306449Y-97912659D01*
X172396241Y-98002451D01*
X172510325Y-98058224D01*
X172510326Y-98058224D01*
X172510328Y-98058225D01*
X172584290Y-98069001D01*
X173403219Y-98069001D01*
X173424934Y-98075377D01*
X173447501Y-98077177D01*
X173461103Y-98085997D01*
X173470258Y-98088686D01*
X173478338Y-98094345D01*
X173484989Y-98099409D01*
X173556066Y-98170486D01*
X173641349Y-98219724D01*
X173654232Y-98227162D01*
X173763722Y-98256500D01*
X173763723Y-98256500D01*
X173763725Y-98256500D01*
X174980174Y-98256500D01*
X174980176Y-98256500D01*
X175089667Y-98227162D01*
X175187833Y-98170486D01*
X175267986Y-98090333D01*
X175324662Y-97992167D01*
X175354000Y-97882676D01*
X175354000Y-97769324D01*
X175324662Y-97659833D01*
X175275496Y-97574674D01*
X175267988Y-97561670D01*
X175267984Y-97561665D01*
X175187834Y-97481515D01*
X175187829Y-97481511D01*
X175089669Y-97424839D01*
X175089668Y-97424838D01*
X175089667Y-97424838D01*
X174980176Y-97395500D01*
X174980175Y-97395500D01*
X174424900Y-97395500D01*
X174357861Y-97375815D01*
X174312106Y-97323011D01*
X174300900Y-97271500D01*
X174300900Y-96905681D01*
X174320585Y-96838642D01*
X174337219Y-96818000D01*
X175362401Y-95792819D01*
X175423724Y-95759334D01*
X175450082Y-95756500D01*
X177319001Y-95756500D01*
X177386040Y-95776185D01*
X177431795Y-95828989D01*
X177443001Y-95880500D01*
X177443001Y-96188858D01*
X177450570Y-96226916D01*
X177450571Y-96226919D01*
X177479414Y-96270086D01*
X177522581Y-96298929D01*
X177560645Y-96306500D01*
X179286354Y-96306499D01*
X179324419Y-96298929D01*
X179367586Y-96270086D01*
X179396429Y-96226919D01*
X179404000Y-96188855D01*
X179403999Y-94463146D01*
X179396429Y-94425081D01*
X179367586Y-94381914D01*
X179324419Y-94353071D01*
X179324418Y-94353070D01*
X179286357Y-94345500D01*
X177560649Y-94345500D01*
X177560641Y-94345501D01*
X177522583Y-94353070D01*
X177522580Y-94353071D01*
X177479414Y-94381914D01*
X177450570Y-94425081D01*
X177443000Y-94463141D01*
X177443000Y-94771500D01*
X177423315Y-94838539D01*
X177370511Y-94884294D01*
X177319000Y-94895500D01*
X175163724Y-94895500D01*
X175108978Y-94910169D01*
X175108977Y-94910168D01*
X175054235Y-94924837D01*
X175054234Y-94924837D01*
X175028097Y-94939928D01*
X174993207Y-94960072D01*
X174993204Y-94960074D01*
X174956068Y-94981513D01*
X174956066Y-94981515D01*
X173490901Y-96446682D01*
X173429578Y-96480167D01*
X173403220Y-96483001D01*
X172584290Y-96483001D01*
X172534982Y-96490185D01*
X172510325Y-96493777D01*
X172396241Y-96549550D01*
X172306449Y-96639342D01*
X172250676Y-96753426D01*
X172246764Y-96780276D01*
X172239900Y-96827391D01*
X171373800Y-96827391D01*
X171363024Y-96753429D01*
X171357273Y-96741666D01*
X171307250Y-96639342D01*
X171217458Y-96549550D01*
X171103374Y-96493777D01*
X171079500Y-96490299D01*
X171029410Y-96483001D01*
X171029404Y-96483001D01*
X170897800Y-96483001D01*
X170830761Y-96463316D01*
X170785006Y-96410512D01*
X170773800Y-96359001D01*
X170773800Y-95709125D01*
X170773800Y-95709124D01*
X170767930Y-95687218D01*
X170744462Y-95599633D01*
X170710079Y-95540080D01*
X170687786Y-95501467D01*
X170607633Y-95421314D01*
X170607632Y-95421313D01*
X167950919Y-92764600D01*
X164860318Y-89673999D01*
X164826833Y-89612676D01*
X164823999Y-89586318D01*
X164823999Y-89261159D01*
X164843684Y-89194120D01*
X164896488Y-89148365D01*
X164965646Y-89138421D01*
X165029202Y-89167446D01*
X165055385Y-89199157D01*
X165093014Y-89264333D01*
X165173167Y-89344486D01*
X165271333Y-89401162D01*
X165380824Y-89430500D01*
X165380826Y-89430500D01*
X165494174Y-89430500D01*
X165494176Y-89430500D01*
X165603667Y-89401162D01*
X165701833Y-89344486D01*
X165781986Y-89264333D01*
X165838662Y-89166167D01*
X165868000Y-89056676D01*
X165868000Y-88943324D01*
X165838662Y-88833833D01*
X165796875Y-88761455D01*
X165781988Y-88735670D01*
X165781984Y-88735665D01*
X165729318Y-88682998D01*
X165695834Y-88621675D01*
X165693435Y-88599369D01*
X165693000Y-88597184D01*
X165693000Y-88597178D01*
X165673855Y-88550957D01*
X165654105Y-88503273D01*
X165575164Y-88424332D01*
X165575157Y-88424326D01*
X165473972Y-88323141D01*
X178063000Y-88323141D01*
X178063000Y-90048850D01*
X178063001Y-90048858D01*
X178070570Y-90086916D01*
X178070571Y-90086919D01*
X178099414Y-90130086D01*
X178142581Y-90158929D01*
X178180645Y-90166500D01*
X179906354Y-90166499D01*
X179944419Y-90158929D01*
X179987586Y-90130086D01*
X180016429Y-90086919D01*
X180024000Y-90048855D01*
X180023999Y-88323146D01*
X180016429Y-88285081D01*
X179987586Y-88241914D01*
X179944419Y-88213071D01*
X179944418Y-88213070D01*
X179906357Y-88205500D01*
X178180649Y-88205500D01*
X178180641Y-88205501D01*
X178142583Y-88213070D01*
X178142580Y-88213071D01*
X178099414Y-88241914D01*
X178070570Y-88285081D01*
X178063000Y-88323141D01*
X165473972Y-88323141D01*
X165183544Y-88032713D01*
X165183542Y-88032710D01*
X165094229Y-87943397D01*
X165094222Y-87943394D01*
X165007372Y-87907420D01*
X165000323Y-87904500D01*
X165000322Y-87904500D01*
X164719809Y-87904500D01*
X164652770Y-87884815D01*
X164632128Y-87868181D01*
X163972908Y-87208962D01*
X164036493Y-87191925D01*
X164150507Y-87126099D01*
X164243599Y-87033007D01*
X164309425Y-86918993D01*
X164326462Y-86855408D01*
X164958770Y-87487717D01*
X164958770Y-87487716D01*
X164998122Y-87433554D01*
X165094595Y-87244217D01*
X165160258Y-87042127D01*
X165193500Y-86832246D01*
X165193500Y-86619753D01*
X165184469Y-86562735D01*
X165182361Y-86549424D01*
X178063000Y-86549424D01*
X178063000Y-86742575D01*
X178100678Y-86931993D01*
X178100681Y-86932005D01*
X178174588Y-87110434D01*
X178174595Y-87110447D01*
X178281895Y-87271031D01*
X178281898Y-87271035D01*
X178418464Y-87407601D01*
X178418468Y-87407604D01*
X178579052Y-87514904D01*
X178579065Y-87514911D01*
X178726247Y-87575875D01*
X178757499Y-87588820D01*
X178929077Y-87622949D01*
X178946924Y-87626499D01*
X178946927Y-87626500D01*
X178946929Y-87626500D01*
X179140073Y-87626500D01*
X179140074Y-87626499D01*
X179329501Y-87588820D01*
X179507941Y-87514908D01*
X179668532Y-87407604D01*
X179805104Y-87271032D01*
X179912408Y-87110441D01*
X179923982Y-87082500D01*
X179934678Y-87056676D01*
X179986320Y-86932001D01*
X180024000Y-86742571D01*
X180024000Y-86549429D01*
X180024000Y-86549426D01*
X180023999Y-86549424D01*
X180016203Y-86510233D01*
X179986320Y-86359999D01*
X179979894Y-86344486D01*
X179912411Y-86181565D01*
X179912404Y-86181552D01*
X179805104Y-86020968D01*
X179805101Y-86020964D01*
X179668535Y-85884398D01*
X179668531Y-85884395D01*
X179507947Y-85777095D01*
X179507934Y-85777088D01*
X179329505Y-85703181D01*
X179329493Y-85703178D01*
X179140074Y-85665500D01*
X179140071Y-85665500D01*
X178946929Y-85665500D01*
X178946926Y-85665500D01*
X178757506Y-85703178D01*
X178757494Y-85703181D01*
X178579065Y-85777088D01*
X178579052Y-85777095D01*
X178418468Y-85884395D01*
X178418464Y-85884398D01*
X178281898Y-86020964D01*
X178281895Y-86020968D01*
X178174595Y-86181552D01*
X178174588Y-86181565D01*
X178100681Y-86359994D01*
X178100678Y-86360006D01*
X178063000Y-86549424D01*
X165182361Y-86549424D01*
X165160257Y-86409872D01*
X165160257Y-86409869D01*
X165094595Y-86207782D01*
X164998124Y-86018449D01*
X164958770Y-85964282D01*
X164958769Y-85964282D01*
X164326462Y-86596590D01*
X164309425Y-86533007D01*
X164243599Y-86418993D01*
X164150507Y-86325901D01*
X164036493Y-86260075D01*
X163972909Y-86243037D01*
X164605216Y-85610728D01*
X164551050Y-85571375D01*
X164361717Y-85474904D01*
X164159629Y-85409242D01*
X164043839Y-85390903D01*
X163980704Y-85360974D01*
X163943773Y-85301662D01*
X163944771Y-85231800D01*
X163983381Y-85173567D01*
X164039046Y-85146813D01*
X164073705Y-85139918D01*
X164129501Y-85128820D01*
X164288625Y-85062909D01*
X164307934Y-85054911D01*
X164307934Y-85054910D01*
X164307941Y-85054908D01*
X164468532Y-84947604D01*
X164605104Y-84811032D01*
X164712408Y-84650441D01*
X164786320Y-84472001D01*
X164824000Y-84282571D01*
X164824000Y-84089429D01*
X164824000Y-84089426D01*
X164823999Y-84089424D01*
X164811688Y-84027528D01*
X164808087Y-84009424D01*
X178063000Y-84009424D01*
X178063000Y-84202575D01*
X178100678Y-84391993D01*
X178100681Y-84392005D01*
X178174588Y-84570434D01*
X178174595Y-84570447D01*
X178281895Y-84731031D01*
X178281898Y-84731035D01*
X178418464Y-84867601D01*
X178418468Y-84867604D01*
X178579052Y-84974904D01*
X178579065Y-84974911D01*
X178757192Y-85048693D01*
X178757499Y-85048820D01*
X178906811Y-85078520D01*
X178946924Y-85086499D01*
X178946927Y-85086500D01*
X178946929Y-85086500D01*
X179140073Y-85086500D01*
X179140074Y-85086499D01*
X179329501Y-85048820D01*
X179491655Y-84981654D01*
X179507934Y-84974911D01*
X179507934Y-84974910D01*
X179507941Y-84974908D01*
X179668532Y-84867604D01*
X179805104Y-84731032D01*
X179912408Y-84570441D01*
X179986320Y-84392001D01*
X180024000Y-84202571D01*
X180024000Y-84009429D01*
X180024000Y-84009426D01*
X180023999Y-84009424D01*
X180020376Y-83991209D01*
X179986320Y-83819999D01*
X179978385Y-83800841D01*
X179912411Y-83641565D01*
X179912404Y-83641552D01*
X179805104Y-83480968D01*
X179805101Y-83480964D01*
X179668535Y-83344398D01*
X179668531Y-83344395D01*
X179507947Y-83237095D01*
X179507934Y-83237088D01*
X179329505Y-83163181D01*
X179329493Y-83163178D01*
X179140074Y-83125500D01*
X179140071Y-83125500D01*
X178946929Y-83125500D01*
X178946926Y-83125500D01*
X178757506Y-83163178D01*
X178757494Y-83163181D01*
X178579065Y-83237088D01*
X178579052Y-83237095D01*
X178418468Y-83344395D01*
X178418464Y-83344398D01*
X178281898Y-83480964D01*
X178281895Y-83480968D01*
X178174595Y-83641552D01*
X178174588Y-83641565D01*
X178100681Y-83819994D01*
X178100678Y-83820006D01*
X178063000Y-84009424D01*
X164808087Y-84009424D01*
X164786321Y-83900004D01*
X164786320Y-83900003D01*
X164786320Y-83899999D01*
X164786318Y-83899994D01*
X164712411Y-83721565D01*
X164712404Y-83721552D01*
X164605104Y-83560968D01*
X164605101Y-83560964D01*
X164468535Y-83424398D01*
X164468531Y-83424395D01*
X164307947Y-83317095D01*
X164307934Y-83317088D01*
X164129505Y-83243181D01*
X164129493Y-83243178D01*
X163940074Y-83205500D01*
X163940071Y-83205500D01*
X163746929Y-83205500D01*
X163746926Y-83205500D01*
X163557506Y-83243178D01*
X163557494Y-83243181D01*
X163379065Y-83317088D01*
X163379052Y-83317095D01*
X163218468Y-83424395D01*
X163218464Y-83424398D01*
X163081898Y-83560964D01*
X163081895Y-83560968D01*
X162974595Y-83721552D01*
X162974588Y-83721565D01*
X162900681Y-83899994D01*
X162900678Y-83900006D01*
X162863000Y-84089424D01*
X162863000Y-84282575D01*
X162900678Y-84471993D01*
X162900681Y-84472005D01*
X162974588Y-84650434D01*
X162974595Y-84650447D01*
X163081895Y-84811031D01*
X163081898Y-84811035D01*
X163218464Y-84947601D01*
X163218468Y-84947604D01*
X163379052Y-85054904D01*
X163379065Y-85054911D01*
X163485118Y-85098839D01*
X163557499Y-85128820D01*
X163594526Y-85136185D01*
X163647953Y-85146813D01*
X163709864Y-85179198D01*
X163744438Y-85239914D01*
X163740699Y-85309683D01*
X163699832Y-85366355D01*
X163643160Y-85390903D01*
X163527372Y-85409242D01*
X163527369Y-85409242D01*
X163325282Y-85474904D01*
X163135939Y-85571380D01*
X163081782Y-85610727D01*
X163081782Y-85610728D01*
X163714091Y-86243037D01*
X163650507Y-86260075D01*
X163536493Y-86325901D01*
X163443401Y-86418993D01*
X163377575Y-86533007D01*
X163360537Y-86596591D01*
X162728228Y-85964282D01*
X162728227Y-85964282D01*
X162688880Y-86018439D01*
X162592404Y-86207782D01*
X162526742Y-86409869D01*
X162526742Y-86409872D01*
X162493500Y-86619753D01*
X162493500Y-86832246D01*
X162526742Y-87042127D01*
X162592404Y-87244217D01*
X162688875Y-87433550D01*
X162728228Y-87487716D01*
X163360537Y-86855408D01*
X163377575Y-86918993D01*
X163443401Y-87033007D01*
X163536493Y-87126099D01*
X163650507Y-87191925D01*
X163714091Y-87208962D01*
X163054871Y-87868181D01*
X163030633Y-87881415D01*
X163008197Y-87897523D01*
X162997939Y-87899268D01*
X162993548Y-87901666D01*
X162973567Y-87904336D01*
X162970382Y-87904500D01*
X162883322Y-87904500D01*
X162781677Y-87904500D01*
X162774628Y-87907420D01*
X162754887Y-87915596D01*
X162754884Y-87915597D01*
X162687773Y-87943394D01*
X162687771Y-87943396D01*
X162542987Y-88088181D01*
X162481664Y-88121666D01*
X162455306Y-88124500D01*
X162380824Y-88124500D01*
X162271333Y-88153838D01*
X162271330Y-88153839D01*
X162173170Y-88210511D01*
X162173165Y-88210515D01*
X162093015Y-88290665D01*
X162093011Y-88290670D01*
X162036339Y-88388830D01*
X162036338Y-88388833D01*
X162007000Y-88498324D01*
X159687500Y-88498324D01*
X159687500Y-88127500D01*
X160187500Y-88127500D01*
X161132499Y-88127500D01*
X161132499Y-87782528D01*
X161132498Y-87782513D01*
X161122005Y-87679802D01*
X161066858Y-87513380D01*
X161066856Y-87513375D01*
X160974815Y-87364154D01*
X160850845Y-87240184D01*
X160701624Y-87148143D01*
X160701619Y-87148141D01*
X160535197Y-87092994D01*
X160535190Y-87092993D01*
X160432486Y-87082500D01*
X160187500Y-87082500D01*
X160187500Y-88127500D01*
X159687500Y-88127500D01*
X159687500Y-87082500D01*
X159442529Y-87082500D01*
X159442512Y-87082501D01*
X159339802Y-87092994D01*
X159173380Y-87148141D01*
X159173375Y-87148143D01*
X159026596Y-87238678D01*
X158959203Y-87257118D01*
X158892540Y-87236195D01*
X158847770Y-87182553D01*
X158837499Y-87133139D01*
X158837499Y-87100028D01*
X158837498Y-87100013D01*
X158827005Y-86997302D01*
X158771858Y-86830880D01*
X158771856Y-86830875D01*
X158679817Y-86681656D01*
X158555845Y-86557684D01*
X158406624Y-86465643D01*
X158406619Y-86465641D01*
X158240197Y-86410494D01*
X158240190Y-86410493D01*
X158137486Y-86400000D01*
X157687500Y-86400000D01*
X157687500Y-88724999D01*
X157187499Y-88724999D01*
X157187500Y-88724998D01*
X157187500Y-87812500D01*
X156037501Y-87812500D01*
X156037501Y-88024986D01*
X153132499Y-88024986D01*
X153132499Y-87845028D01*
X153132498Y-87845013D01*
X153125217Y-87773740D01*
X153125217Y-87773738D01*
X153122006Y-87742303D01*
X153066858Y-87575880D01*
X153066856Y-87575875D01*
X152974815Y-87426654D01*
X152850845Y-87302684D01*
X152701621Y-87210642D01*
X152535197Y-87155494D01*
X152535190Y-87155493D01*
X152432486Y-87145000D01*
X152187500Y-87145000D01*
X152187500Y-88190000D01*
X151687500Y-88190000D01*
X151687500Y-87410181D01*
X151707185Y-87343142D01*
X151723819Y-87322500D01*
X151749807Y-87296512D01*
X151781986Y-87264333D01*
X151838662Y-87166167D01*
X151856388Y-87100013D01*
X156037500Y-87100013D01*
X156037500Y-87312500D01*
X157187500Y-87312500D01*
X157187500Y-86400000D01*
X156737528Y-86400000D01*
X156737512Y-86400001D01*
X156634802Y-86410494D01*
X156468380Y-86465641D01*
X156468375Y-86465643D01*
X156319154Y-86557684D01*
X156195184Y-86681654D01*
X156103143Y-86830875D01*
X156103141Y-86830880D01*
X156047994Y-86997302D01*
X156047993Y-86997309D01*
X156037500Y-87100013D01*
X151856388Y-87100013D01*
X151868000Y-87056676D01*
X151868000Y-86943324D01*
X151838662Y-86833833D01*
X151810324Y-86784750D01*
X151781988Y-86735670D01*
X151781984Y-86735665D01*
X151743500Y-86697181D01*
X151710015Y-86635858D01*
X151714999Y-86566166D01*
X151756871Y-86510233D01*
X151822335Y-86485816D01*
X151831181Y-86485500D01*
X152418604Y-86485500D01*
X152418610Y-86485500D01*
X152492572Y-86474724D01*
X152606657Y-86418951D01*
X152696451Y-86329157D01*
X152752224Y-86215072D01*
X152763000Y-86141110D01*
X152763000Y-85048693D01*
X152782685Y-84981654D01*
X152835489Y-84935899D01*
X152904647Y-84925955D01*
X152968203Y-84954980D01*
X152974674Y-84961005D01*
X153318265Y-85304597D01*
X153658396Y-85644728D01*
X153730273Y-85716605D01*
X153797621Y-85744500D01*
X153824178Y-85755500D01*
X154532818Y-85755500D01*
X154599857Y-85775185D01*
X154620498Y-85791818D01*
X154661119Y-85832438D01*
X154673167Y-85844486D01*
X154673168Y-85844487D01*
X154673170Y-85844488D01*
X154722250Y-85872824D01*
X154771333Y-85901162D01*
X154880824Y-85930500D01*
X154880826Y-85930500D01*
X154994174Y-85930500D01*
X154994176Y-85930500D01*
X155103667Y-85901162D01*
X155201833Y-85844486D01*
X155281986Y-85764333D01*
X155338662Y-85666167D01*
X155368000Y-85556676D01*
X155368000Y-85443324D01*
X155338662Y-85333833D01*
X155287086Y-85244500D01*
X155281988Y-85235670D01*
X155281984Y-85235665D01*
X155201834Y-85155515D01*
X155201829Y-85155511D01*
X155103669Y-85098839D01*
X155096160Y-85095729D01*
X155096829Y-85094113D01*
X155045635Y-85062909D01*
X155015107Y-85000061D01*
X155023402Y-84930686D01*
X155067888Y-84876809D01*
X155134441Y-84855535D01*
X155137390Y-84855500D01*
X155623604Y-84855500D01*
X155623610Y-84855500D01*
X155697572Y-84844724D01*
X155811657Y-84788951D01*
X155901451Y-84699157D01*
X155957224Y-84585072D01*
X155968000Y-84511110D01*
X155968000Y-83938502D01*
X155987685Y-83871463D01*
X156040489Y-83825708D01*
X156109647Y-83815764D01*
X156146829Y-83827283D01*
X156164846Y-83836165D01*
X156173167Y-83844486D01*
X156271333Y-83901162D01*
X156326881Y-83916046D01*
X156337829Y-83921443D01*
X156354921Y-83937163D01*
X156374754Y-83949252D01*
X156380155Y-83960372D01*
X156389255Y-83968741D01*
X156395135Y-83991209D01*
X156405283Y-84012099D01*
X156407000Y-84032662D01*
X156407000Y-84886110D01*
X156413102Y-84927989D01*
X156417776Y-84960074D01*
X156473549Y-85074158D01*
X156563341Y-85163950D01*
X156677425Y-85219723D01*
X156677426Y-85219723D01*
X156677428Y-85219724D01*
X156751390Y-85230500D01*
X156751396Y-85230500D01*
X158123604Y-85230500D01*
X158123610Y-85230500D01*
X158197572Y-85219724D01*
X158311657Y-85163951D01*
X158401451Y-85074157D01*
X158457224Y-84960072D01*
X158468000Y-84886110D01*
X158468000Y-83988890D01*
X158457224Y-83914928D01*
X158453783Y-83907890D01*
X158401450Y-83800841D01*
X158311658Y-83711049D01*
X158197574Y-83655276D01*
X158178271Y-83652463D01*
X158123610Y-83644500D01*
X158123604Y-83644500D01*
X158119170Y-83643854D01*
X158119427Y-83642086D01*
X158060984Y-83620210D01*
X158019178Y-83564228D01*
X158014275Y-83494531D01*
X158047831Y-83433247D01*
X158085136Y-83407679D01*
X158093973Y-83403759D01*
X158103667Y-83401162D01*
X158116384Y-83393819D01*
X158122406Y-83391149D01*
X158143258Y-83388383D01*
X158172680Y-83380500D01*
X159283000Y-83380500D01*
X159350039Y-83400185D01*
X159395794Y-83452989D01*
X159407000Y-83504500D01*
X159407000Y-83573610D01*
X159414224Y-83623191D01*
X159417776Y-83647574D01*
X159473549Y-83761658D01*
X159563341Y-83851450D01*
X159563342Y-83851450D01*
X159563343Y-83851451D01*
X159612460Y-83875462D01*
X159664042Y-83922590D01*
X159682000Y-83986863D01*
X159682000Y-84448000D01*
X159662315Y-84515039D01*
X159609511Y-84560794D01*
X159558000Y-84572000D01*
X159456390Y-84572000D01*
X159407082Y-84579184D01*
X159382425Y-84582776D01*
X159268341Y-84638549D01*
X159178549Y-84728341D01*
X159122776Y-84842425D01*
X159122441Y-84844724D01*
X159112000Y-84916390D01*
X159112000Y-86078610D01*
X159114403Y-86095100D01*
X159122776Y-86152574D01*
X159178549Y-86266658D01*
X159268341Y-86356450D01*
X159382425Y-86412223D01*
X159382426Y-86412223D01*
X159382428Y-86412224D01*
X159456390Y-86423000D01*
X159456396Y-86423000D01*
X160418604Y-86423000D01*
X160418610Y-86423000D01*
X160492572Y-86412224D01*
X160606657Y-86356451D01*
X160696451Y-86266657D01*
X160752224Y-86152572D01*
X160763000Y-86078610D01*
X160763000Y-84916390D01*
X160752224Y-84842428D01*
X160748022Y-84833833D01*
X160696450Y-84728341D01*
X160606658Y-84638549D01*
X160492574Y-84582776D01*
X160474081Y-84580082D01*
X160418610Y-84572000D01*
X160418604Y-84572000D01*
X160317000Y-84572000D01*
X160249961Y-84552315D01*
X160204206Y-84499511D01*
X160193000Y-84448000D01*
X160193000Y-84042000D01*
X160212685Y-83974961D01*
X160265489Y-83929206D01*
X160317000Y-83918000D01*
X161123604Y-83918000D01*
X161123610Y-83918000D01*
X161197572Y-83907224D01*
X161311657Y-83851451D01*
X161401451Y-83761657D01*
X161457224Y-83647572D01*
X161468000Y-83573610D01*
X161468000Y-82676390D01*
X161457224Y-82602428D01*
X161455469Y-82598839D01*
X161401450Y-82488341D01*
X161311658Y-82398549D01*
X161197574Y-82342776D01*
X161179081Y-82340082D01*
X161123610Y-82332000D01*
X159751390Y-82332000D01*
X159702082Y-82339184D01*
X159677425Y-82342776D01*
X159563341Y-82398549D01*
X159473549Y-82488341D01*
X159417776Y-82602425D01*
X159417776Y-82602428D01*
X159407000Y-82676390D01*
X159407000Y-82676395D01*
X159407000Y-82745500D01*
X159387315Y-82812539D01*
X159334511Y-82858294D01*
X159283000Y-82869500D01*
X158430846Y-82869500D01*
X158363807Y-82849815D01*
X158323459Y-82807500D01*
X158281988Y-82735670D01*
X158281984Y-82735665D01*
X158201834Y-82655515D01*
X158201829Y-82655511D01*
X158103669Y-82598839D01*
X158103668Y-82598838D01*
X158103667Y-82598838D01*
X157994176Y-82569500D01*
X157880824Y-82569500D01*
X157771333Y-82598838D01*
X157771330Y-82598839D01*
X157673170Y-82655511D01*
X157673165Y-82655515D01*
X157593015Y-82735665D01*
X157593011Y-82735670D01*
X157536339Y-82833830D01*
X157536338Y-82833833D01*
X157507000Y-82943324D01*
X157507000Y-83056676D01*
X157534570Y-83159566D01*
X157536338Y-83166166D01*
X157536339Y-83166169D01*
X157593011Y-83264329D01*
X157593013Y-83264332D01*
X157593014Y-83264333D01*
X157673167Y-83344486D01*
X157771333Y-83401162D01*
X157771338Y-83401163D01*
X157778840Y-83404271D01*
X157778170Y-83405886D01*
X157829365Y-83437091D01*
X157859893Y-83499939D01*
X157851598Y-83569314D01*
X157807112Y-83623191D01*
X157740559Y-83644465D01*
X157737610Y-83644500D01*
X157057193Y-83644500D01*
X157027752Y-83635855D01*
X156997766Y-83629332D01*
X156992750Y-83625577D01*
X156990154Y-83624815D01*
X156969512Y-83608181D01*
X156904319Y-83542988D01*
X156870834Y-83481665D01*
X156868000Y-83455307D01*
X156868000Y-83443326D01*
X156868000Y-83443324D01*
X156838662Y-83333833D01*
X156804092Y-83273955D01*
X156781988Y-83235670D01*
X156781984Y-83235665D01*
X156701834Y-83155515D01*
X156701829Y-83155511D01*
X156603669Y-83098839D01*
X156603668Y-83098838D01*
X156603667Y-83098838D01*
X156494176Y-83069500D01*
X156380824Y-83069500D01*
X156271333Y-83098838D01*
X156271330Y-83098839D01*
X156173170Y-83155511D01*
X156173165Y-83155515D01*
X156093015Y-83235665D01*
X156093011Y-83235670D01*
X156034088Y-83337730D01*
X155983521Y-83385945D01*
X155914914Y-83399169D01*
X155850050Y-83373201D01*
X155839020Y-83363411D01*
X155811658Y-83336049D01*
X155697574Y-83280276D01*
X155679081Y-83277582D01*
X155623610Y-83269500D01*
X155623604Y-83269500D01*
X155254464Y-83269500D01*
X155187425Y-83249815D01*
X155163121Y-83229360D01*
X155154891Y-83220395D01*
X155154103Y-83218493D01*
X155142399Y-83206789D01*
X155140618Y-83204849D01*
X155126313Y-83175767D01*
X155110795Y-83147347D01*
X155110364Y-83143340D01*
X155109780Y-83142153D01*
X155110015Y-83140097D01*
X155107961Y-83120989D01*
X155107961Y-83046509D01*
X155107961Y-83046507D01*
X155078623Y-82937016D01*
X155021947Y-82838850D01*
X154941794Y-82758697D01*
X154941793Y-82758696D01*
X154941790Y-82758694D01*
X154843630Y-82702022D01*
X154843629Y-82702021D01*
X154843628Y-82702021D01*
X154734137Y-82672683D01*
X154620785Y-82672683D01*
X154511294Y-82702021D01*
X154511291Y-82702022D01*
X154413131Y-82758694D01*
X154413126Y-82758698D01*
X154332976Y-82838848D01*
X154332972Y-82838853D01*
X154276300Y-82937013D01*
X154276299Y-82937016D01*
X154246961Y-83046507D01*
X154246961Y-83167986D01*
X154243624Y-83167986D01*
X154235224Y-83221717D01*
X154188824Y-83273955D01*
X154177532Y-83280224D01*
X154063342Y-83336049D01*
X154063341Y-83336049D01*
X153973549Y-83425841D01*
X153917776Y-83539925D01*
X153914236Y-83564228D01*
X153907000Y-83613890D01*
X153907000Y-84511110D01*
X153914239Y-84560794D01*
X153917776Y-84585074D01*
X153973549Y-84699158D01*
X154063341Y-84788950D01*
X154177425Y-84844723D01*
X154177426Y-84844723D01*
X154177428Y-84844724D01*
X154251390Y-84855500D01*
X154251396Y-84855500D01*
X154737610Y-84855500D01*
X154804649Y-84875185D01*
X154850404Y-84927989D01*
X154860348Y-84997147D01*
X154831323Y-85060703D01*
X154807929Y-85081633D01*
X154790335Y-85093746D01*
X154771333Y-85098838D01*
X154673167Y-85155514D01*
X154612482Y-85216198D01*
X154603137Y-85222633D01*
X154580285Y-85230139D01*
X154559175Y-85241666D01*
X154538388Y-85243901D01*
X154536757Y-85244437D01*
X154535774Y-85244182D01*
X154532818Y-85244500D01*
X154032194Y-85244500D01*
X153965155Y-85224815D01*
X153944513Y-85208181D01*
X152975230Y-84238898D01*
X152941745Y-84177575D01*
X152946729Y-84107883D01*
X152951502Y-84096774D01*
X152957224Y-84085072D01*
X152968000Y-84011110D01*
X152968000Y-83113890D01*
X152957224Y-83039928D01*
X152901451Y-82925843D01*
X152901450Y-82925842D01*
X152901450Y-82925841D01*
X152811658Y-82836049D01*
X152697574Y-82780276D01*
X152679081Y-82777582D01*
X152623610Y-82769500D01*
X151251390Y-82769500D01*
X151202082Y-82776684D01*
X151177425Y-82780276D01*
X151063341Y-82836049D01*
X150973549Y-82925841D01*
X150917776Y-83039925D01*
X150917776Y-83039928D01*
X150907000Y-83113890D01*
X150907000Y-84011110D01*
X150911501Y-84042000D01*
X150917776Y-84085074D01*
X150973549Y-84199158D01*
X151063341Y-84288950D01*
X151177425Y-84344723D01*
X151177426Y-84344723D01*
X151177428Y-84344724D01*
X151251390Y-84355500D01*
X151583000Y-84355500D01*
X151591685Y-84358050D01*
X151600647Y-84356762D01*
X151624687Y-84367740D01*
X151650039Y-84375185D01*
X151655966Y-84382025D01*
X151664203Y-84385787D01*
X151678492Y-84408021D01*
X151695794Y-84427989D01*
X151698081Y-84438503D01*
X151701977Y-84444565D01*
X151707000Y-84479500D01*
X151707000Y-84510500D01*
X151687315Y-84577539D01*
X151634511Y-84623294D01*
X151583000Y-84634500D01*
X151456390Y-84634500D01*
X151407082Y-84641684D01*
X151382425Y-84645276D01*
X151268341Y-84701049D01*
X151178549Y-84790841D01*
X151122776Y-84904925D01*
X151119712Y-84925955D01*
X151112000Y-84978890D01*
X151112000Y-86141110D01*
X151117894Y-86181565D01*
X151122776Y-86215074D01*
X151178549Y-86329158D01*
X151269212Y-86419821D01*
X151302697Y-86481144D01*
X151297713Y-86550836D01*
X151255841Y-86606769D01*
X151243531Y-86614889D01*
X151173170Y-86655511D01*
X151173165Y-86655515D01*
X151093015Y-86735665D01*
X151093011Y-86735670D01*
X151036339Y-86833830D01*
X151036338Y-86833833D01*
X151007000Y-86943324D01*
X151007000Y-87056676D01*
X151031509Y-87148143D01*
X151036338Y-87166166D01*
X151039449Y-87173677D01*
X151037188Y-87174613D01*
X151050746Y-87230484D01*
X151027897Y-87296512D01*
X151014568Y-87312271D01*
X150900182Y-87426657D01*
X150808143Y-87575875D01*
X150808141Y-87575880D01*
X150752994Y-87742302D01*
X150752993Y-87742309D01*
X150742500Y-87845013D01*
X136785495Y-87845013D01*
X136793000Y-87817005D01*
X136793000Y-87723399D01*
X136793000Y-85278481D01*
X136809613Y-85216481D01*
X136815194Y-85206815D01*
X136838662Y-85166167D01*
X136868000Y-85056676D01*
X136868000Y-84943324D01*
X136838662Y-84833833D01*
X136787257Y-84744796D01*
X136781988Y-84735670D01*
X136781984Y-84735665D01*
X136701834Y-84655515D01*
X136701829Y-84655511D01*
X136609734Y-84602340D01*
X136609724Y-84602335D01*
X136603667Y-84598838D01*
X136601378Y-84598224D01*
X136595006Y-84595086D01*
X136582229Y-84582309D01*
X136499436Y-84548015D01*
X136495823Y-84546236D01*
X136489522Y-84540445D01*
X136462930Y-84522677D01*
X135777934Y-83837681D01*
X135744449Y-83776358D01*
X135749433Y-83706666D01*
X135777934Y-83662319D01*
X138540267Y-80899986D01*
X150537501Y-80899986D01*
X150547994Y-81002697D01*
X150603141Y-81169119D01*
X150603143Y-81169124D01*
X150695184Y-81318345D01*
X150819154Y-81442315D01*
X150968375Y-81534356D01*
X150968380Y-81534358D01*
X151134802Y-81589505D01*
X151134809Y-81589506D01*
X151237519Y-81599999D01*
X151687499Y-81599999D01*
X152187500Y-81599999D01*
X152637472Y-81599999D01*
X152637486Y-81599998D01*
X152740197Y-81589505D01*
X152906619Y-81534358D01*
X152906624Y-81534356D01*
X153055845Y-81442315D01*
X153179815Y-81318345D01*
X153271856Y-81169124D01*
X153271859Y-81169117D01*
X153295794Y-81096885D01*
X153335566Y-81039440D01*
X153400081Y-81012616D01*
X153468857Y-81024930D01*
X153520058Y-81072473D01*
X153537500Y-81135888D01*
X153537500Y-81399970D01*
X153537501Y-81399987D01*
X153547994Y-81502697D01*
X153603141Y-81669119D01*
X153603143Y-81669124D01*
X153695184Y-81818345D01*
X153819154Y-81942315D01*
X153968375Y-82034356D01*
X153968380Y-82034358D01*
X154134802Y-82089505D01*
X154134809Y-82089506D01*
X154237519Y-82099999D01*
X154687499Y-82099999D01*
X155187500Y-82099999D01*
X155637472Y-82099999D01*
X155637486Y-82099998D01*
X155740197Y-82089505D01*
X155906619Y-82034358D01*
X155906624Y-82034356D01*
X156055845Y-81942315D01*
X156179815Y-81818345D01*
X156271856Y-81669124D01*
X156271858Y-81669119D01*
X156311521Y-81549424D01*
X162863000Y-81549424D01*
X162863000Y-81742575D01*
X162900678Y-81931993D01*
X162900681Y-81932005D01*
X162974588Y-82110434D01*
X162974595Y-82110447D01*
X163081895Y-82271031D01*
X163081898Y-82271035D01*
X163218464Y-82407601D01*
X163218468Y-82407604D01*
X163379052Y-82514904D01*
X163379065Y-82514911D01*
X163534955Y-82579482D01*
X163557499Y-82588820D01*
X163746924Y-82626499D01*
X163746927Y-82626500D01*
X163746929Y-82626500D01*
X163940073Y-82626500D01*
X163940074Y-82626499D01*
X164129501Y-82588820D01*
X164307941Y-82514908D01*
X164468532Y-82407604D01*
X164605104Y-82271032D01*
X164712408Y-82110441D01*
X164786320Y-81932001D01*
X164824000Y-81742571D01*
X164824000Y-81549429D01*
X164824000Y-81549426D01*
X164823999Y-81549424D01*
X164811688Y-81487528D01*
X164808087Y-81469424D01*
X178063000Y-81469424D01*
X178063000Y-81662575D01*
X178100678Y-81851993D01*
X178100681Y-81852005D01*
X178174588Y-82030434D01*
X178174595Y-82030447D01*
X178281895Y-82191031D01*
X178281898Y-82191035D01*
X178418464Y-82327601D01*
X178418468Y-82327604D01*
X178579052Y-82434904D01*
X178579065Y-82434911D01*
X178708058Y-82488341D01*
X178757499Y-82508820D01*
X178946924Y-82546499D01*
X178946927Y-82546500D01*
X178946929Y-82546500D01*
X179140073Y-82546500D01*
X179140074Y-82546499D01*
X179329501Y-82508820D01*
X179507941Y-82434908D01*
X179668532Y-82327604D01*
X179805104Y-82191032D01*
X179912408Y-82030441D01*
X179986320Y-81852001D01*
X180024000Y-81662571D01*
X180024000Y-81469429D01*
X180024000Y-81469426D01*
X180023999Y-81469424D01*
X179993947Y-81318345D01*
X179986320Y-81279999D01*
X179986318Y-81279994D01*
X179912411Y-81101565D01*
X179912404Y-81101552D01*
X179805104Y-80940968D01*
X179805101Y-80940964D01*
X179668535Y-80804398D01*
X179668531Y-80804395D01*
X179507947Y-80697095D01*
X179507934Y-80697088D01*
X179329505Y-80623181D01*
X179329493Y-80623178D01*
X179140074Y-80585500D01*
X179140071Y-80585500D01*
X178946929Y-80585500D01*
X178946926Y-80585500D01*
X178757506Y-80623178D01*
X178757494Y-80623181D01*
X178579065Y-80697088D01*
X178579052Y-80697095D01*
X178418468Y-80804395D01*
X178418464Y-80804398D01*
X178281898Y-80940964D01*
X178281895Y-80940968D01*
X178174595Y-81101552D01*
X178174588Y-81101565D01*
X178100681Y-81279994D01*
X178100678Y-81280006D01*
X178063000Y-81469424D01*
X164808087Y-81469424D01*
X164786321Y-81360004D01*
X164786320Y-81360003D01*
X164786320Y-81359999D01*
X164786318Y-81359994D01*
X164712411Y-81181565D01*
X164712404Y-81181552D01*
X164605104Y-81020968D01*
X164605101Y-81020964D01*
X164468535Y-80884398D01*
X164468531Y-80884395D01*
X164307947Y-80777095D01*
X164307934Y-80777088D01*
X164129505Y-80703181D01*
X164129493Y-80703178D01*
X163940074Y-80665500D01*
X163940071Y-80665500D01*
X163746929Y-80665500D01*
X163746926Y-80665500D01*
X163557506Y-80703178D01*
X163557494Y-80703181D01*
X163379065Y-80777088D01*
X163379052Y-80777095D01*
X163218468Y-80884395D01*
X163218464Y-80884398D01*
X163081898Y-81020964D01*
X163081895Y-81020968D01*
X162974595Y-81181552D01*
X162974588Y-81181565D01*
X162900681Y-81359994D01*
X162900678Y-81360006D01*
X162863000Y-81549424D01*
X156311521Y-81549424D01*
X156326463Y-81504333D01*
X156326464Y-81504331D01*
X156327004Y-81502699D01*
X156327006Y-81502690D01*
X156337499Y-81399986D01*
X156337500Y-81399973D01*
X156337500Y-81187500D01*
X155187500Y-81187500D01*
X155187500Y-82099999D01*
X154687499Y-82099999D01*
X154687500Y-82099998D01*
X154687500Y-80687500D01*
X155187500Y-80687500D01*
X156337499Y-80687500D01*
X156337499Y-80475028D01*
X156337498Y-80475013D01*
X156336218Y-80462486D01*
X159037501Y-80462486D01*
X159047994Y-80565197D01*
X159103141Y-80731619D01*
X159103143Y-80731624D01*
X159195184Y-80880845D01*
X159319154Y-81004815D01*
X159468375Y-81096856D01*
X159468380Y-81096858D01*
X159634802Y-81152005D01*
X159634809Y-81152006D01*
X159737519Y-81162499D01*
X160187499Y-81162499D01*
X160687500Y-81162499D01*
X161137472Y-81162499D01*
X161137486Y-81162498D01*
X161240197Y-81152005D01*
X161406619Y-81096858D01*
X161406624Y-81096856D01*
X161555845Y-81004815D01*
X161679815Y-80880845D01*
X161771856Y-80731624D01*
X161771858Y-80731619D01*
X161827005Y-80565197D01*
X161827006Y-80565190D01*
X161837499Y-80462486D01*
X161837500Y-80462473D01*
X161837500Y-80250000D01*
X160687500Y-80250000D01*
X160687500Y-81162499D01*
X160187499Y-81162499D01*
X160187500Y-81162498D01*
X160187500Y-80250000D01*
X159037501Y-80250000D01*
X159037501Y-80462486D01*
X156336218Y-80462486D01*
X156327005Y-80372302D01*
X156282383Y-80237642D01*
X156271858Y-80205880D01*
X156271856Y-80205875D01*
X156179815Y-80056654D01*
X156055845Y-79932684D01*
X155906624Y-79840643D01*
X155906619Y-79840641D01*
X155740197Y-79785494D01*
X155740190Y-79785493D01*
X155637486Y-79775000D01*
X155187500Y-79775000D01*
X155187500Y-80687500D01*
X154687500Y-80687500D01*
X154687500Y-79775000D01*
X154237528Y-79775000D01*
X154237512Y-79775001D01*
X154134802Y-79785494D01*
X153968380Y-79840641D01*
X153968375Y-79840643D01*
X153819154Y-79932684D01*
X153695184Y-80056654D01*
X153603143Y-80205875D01*
X153603142Y-80205878D01*
X153579205Y-80278116D01*
X153539432Y-80335560D01*
X153474916Y-80362383D01*
X153406140Y-80350068D01*
X153354940Y-80302525D01*
X153337499Y-80239111D01*
X153337499Y-79975028D01*
X153337498Y-79975012D01*
X153327005Y-79872302D01*
X153271858Y-79705880D01*
X153271856Y-79705875D01*
X153206219Y-79599461D01*
X153179815Y-79556654D01*
X153160674Y-79537513D01*
X159037500Y-79537513D01*
X159037500Y-79750000D01*
X160187500Y-79750000D01*
X160687500Y-79750000D01*
X161837499Y-79750000D01*
X161837499Y-79537528D01*
X161837498Y-79537513D01*
X161827005Y-79434802D01*
X161771858Y-79268380D01*
X161771856Y-79268375D01*
X161679815Y-79119154D01*
X161570085Y-79009424D01*
X162863000Y-79009424D01*
X162863000Y-79202575D01*
X162900678Y-79391993D01*
X162900681Y-79392005D01*
X162974588Y-79570434D01*
X162974595Y-79570447D01*
X163081895Y-79731031D01*
X163081898Y-79731035D01*
X163218464Y-79867601D01*
X163218468Y-79867604D01*
X163379052Y-79974904D01*
X163379065Y-79974911D01*
X163557494Y-80048818D01*
X163557499Y-80048820D01*
X163746924Y-80086499D01*
X163746927Y-80086500D01*
X163746929Y-80086500D01*
X163940073Y-80086500D01*
X163940074Y-80086499D01*
X164129501Y-80048820D01*
X164267509Y-79991655D01*
X164307934Y-79974911D01*
X164307934Y-79974910D01*
X164307941Y-79974908D01*
X164468532Y-79867604D01*
X164605104Y-79731032D01*
X164712408Y-79570441D01*
X164786320Y-79392001D01*
X164824000Y-79202571D01*
X164824000Y-79009429D01*
X164824000Y-79009426D01*
X164823999Y-79009424D01*
X164811688Y-78947528D01*
X164808087Y-78929424D01*
X178063000Y-78929424D01*
X178063000Y-79122575D01*
X178100678Y-79311993D01*
X178100681Y-79312005D01*
X178174588Y-79490434D01*
X178174595Y-79490447D01*
X178281895Y-79651031D01*
X178281898Y-79651035D01*
X178418464Y-79787601D01*
X178418468Y-79787604D01*
X178579052Y-79894904D01*
X178579065Y-79894911D01*
X178757494Y-79968818D01*
X178757499Y-79968820D01*
X178946924Y-80006499D01*
X178946927Y-80006500D01*
X178946929Y-80006500D01*
X179140073Y-80006500D01*
X179140074Y-80006499D01*
X179329501Y-79968820D01*
X179507941Y-79894908D01*
X179668532Y-79787604D01*
X179805104Y-79651032D01*
X179912408Y-79490441D01*
X179986320Y-79312001D01*
X180024000Y-79122571D01*
X180024000Y-78929429D01*
X180024000Y-78929426D01*
X180023999Y-78929424D01*
X180009858Y-78858334D01*
X179986320Y-78739999D01*
X179955738Y-78666167D01*
X179912411Y-78561565D01*
X179912404Y-78561552D01*
X179805104Y-78400968D01*
X179805101Y-78400964D01*
X179668535Y-78264398D01*
X179668531Y-78264395D01*
X179507947Y-78157095D01*
X179507934Y-78157088D01*
X179329505Y-78083181D01*
X179329493Y-78083178D01*
X179140074Y-78045500D01*
X179140071Y-78045500D01*
X178946929Y-78045500D01*
X178946926Y-78045500D01*
X178757506Y-78083178D01*
X178757494Y-78083181D01*
X178579065Y-78157088D01*
X178579052Y-78157095D01*
X178418468Y-78264395D01*
X178418464Y-78264398D01*
X178281898Y-78400964D01*
X178281895Y-78400968D01*
X178174595Y-78561552D01*
X178174588Y-78561565D01*
X178100681Y-78739994D01*
X178100678Y-78740006D01*
X178063000Y-78929424D01*
X164808087Y-78929424D01*
X164786321Y-78820004D01*
X164786320Y-78820003D01*
X164786320Y-78819999D01*
X164763263Y-78764334D01*
X164712411Y-78641565D01*
X164712404Y-78641552D01*
X164605104Y-78480968D01*
X164605101Y-78480964D01*
X164468535Y-78344398D01*
X164468531Y-78344395D01*
X164307947Y-78237095D01*
X164307934Y-78237088D01*
X164129505Y-78163181D01*
X164129493Y-78163178D01*
X163940074Y-78125500D01*
X163940071Y-78125500D01*
X163746929Y-78125500D01*
X163746926Y-78125500D01*
X163557506Y-78163178D01*
X163557494Y-78163181D01*
X163379065Y-78237088D01*
X163379052Y-78237095D01*
X163218468Y-78344395D01*
X163218464Y-78344398D01*
X163081898Y-78480964D01*
X163081895Y-78480968D01*
X162974595Y-78641552D01*
X162974588Y-78641565D01*
X162900681Y-78819994D01*
X162900678Y-78820006D01*
X162863000Y-79009424D01*
X161570085Y-79009424D01*
X161555845Y-78995184D01*
X161406624Y-78903143D01*
X161406619Y-78903141D01*
X161240197Y-78847994D01*
X161240190Y-78847993D01*
X161137486Y-78837500D01*
X160687500Y-78837500D01*
X160687500Y-79750000D01*
X160187500Y-79750000D01*
X160187500Y-78837500D01*
X159737528Y-78837500D01*
X159737512Y-78837501D01*
X159634802Y-78847994D01*
X159468380Y-78903141D01*
X159468375Y-78903143D01*
X159319154Y-78995184D01*
X159195184Y-79119154D01*
X159103143Y-79268375D01*
X159103141Y-79268380D01*
X159047994Y-79434802D01*
X159047993Y-79434809D01*
X159037500Y-79537513D01*
X153160674Y-79537513D01*
X153055845Y-79432684D01*
X152906624Y-79340643D01*
X152906619Y-79340641D01*
X152740197Y-79285494D01*
X152740190Y-79285493D01*
X152637486Y-79275000D01*
X152187500Y-79275000D01*
X152187500Y-81599999D01*
X151687499Y-81599999D01*
X151687500Y-81599998D01*
X151687500Y-80687500D01*
X150537501Y-80687500D01*
X150537501Y-80899986D01*
X138540267Y-80899986D01*
X139465240Y-79975013D01*
X150537500Y-79975013D01*
X150537500Y-80187500D01*
X151687500Y-80187500D01*
X151687500Y-79275000D01*
X151237528Y-79275000D01*
X151237512Y-79275001D01*
X151134802Y-79285494D01*
X150968380Y-79340641D01*
X150968375Y-79340643D01*
X150819154Y-79432684D01*
X150695184Y-79556654D01*
X150603143Y-79705875D01*
X150603141Y-79705880D01*
X150547994Y-79872302D01*
X150547993Y-79872309D01*
X150537500Y-79975013D01*
X139465240Y-79975013D01*
X140548434Y-78891819D01*
X140609757Y-78858334D01*
X140636115Y-78855500D01*
X155659019Y-78855500D01*
X155721018Y-78872112D01*
X155771333Y-78901162D01*
X155880824Y-78930500D01*
X155880826Y-78930500D01*
X155994174Y-78930500D01*
X155994176Y-78930500D01*
X156103667Y-78901162D01*
X156201833Y-78844486D01*
X156281986Y-78764333D01*
X156338662Y-78666167D01*
X156368000Y-78556676D01*
X156368000Y-78443324D01*
X156338662Y-78333833D01*
X156294879Y-78257999D01*
X156281988Y-78235670D01*
X156281984Y-78235665D01*
X156201834Y-78155515D01*
X156201829Y-78155511D01*
X156103669Y-78098839D01*
X156103668Y-78098838D01*
X156103667Y-78098838D01*
X155994176Y-78069500D01*
X155880824Y-78069500D01*
X155771333Y-78098838D01*
X155771330Y-78098839D01*
X155743471Y-78114924D01*
X155726747Y-78124580D01*
X155721019Y-78127887D01*
X155659019Y-78144500D01*
X140390697Y-78144500D01*
X140300280Y-78168726D01*
X140219218Y-78215529D01*
X140219215Y-78215531D01*
X135275181Y-83159566D01*
X135213858Y-83193051D01*
X135144166Y-83188067D01*
X135099819Y-83159566D01*
X134264044Y-82323791D01*
X134230559Y-82262468D01*
X134228787Y-82219912D01*
X134229197Y-82216798D01*
X134229200Y-82216788D01*
X134229200Y-82103436D01*
X134199862Y-81993945D01*
X134171524Y-81944862D01*
X134143188Y-81895782D01*
X134143184Y-81895777D01*
X134063034Y-81815627D01*
X134063029Y-81815623D01*
X133964869Y-81758951D01*
X133964868Y-81758950D01*
X133964867Y-81758950D01*
X133855376Y-81729612D01*
X133742024Y-81729612D01*
X133632533Y-81758950D01*
X133632530Y-81758951D01*
X133534370Y-81815623D01*
X133534365Y-81815627D01*
X133454215Y-81895777D01*
X133454211Y-81895782D01*
X133422621Y-81950499D01*
X133372054Y-81998715D01*
X133315234Y-82012499D01*
X132236400Y-82012499D01*
X132236400Y-82924998D01*
X132686372Y-82924998D01*
X132686386Y-82924997D01*
X132789097Y-82914504D01*
X132955519Y-82859357D01*
X132955524Y-82859355D01*
X133104745Y-82767314D01*
X133228717Y-82643342D01*
X133286176Y-82550186D01*
X133338124Y-82503461D01*
X133407086Y-82492238D01*
X133471168Y-82520081D01*
X133499100Y-82553279D01*
X133514229Y-82579482D01*
X133514231Y-82579484D01*
X135989206Y-85054459D01*
X135993837Y-85061389D01*
X135998076Y-85064333D01*
X136005283Y-85078520D01*
X136016086Y-85094687D01*
X136019197Y-85102198D01*
X136036338Y-85166167D01*
X136069451Y-85223521D01*
X136072561Y-85231028D01*
X136074756Y-85251450D01*
X136082000Y-85278481D01*
X136082000Y-85800110D01*
X136062315Y-85867149D01*
X136009511Y-85912904D01*
X135940353Y-85922848D01*
X135876797Y-85893823D01*
X135842795Y-85840915D01*
X135841771Y-85841340D01*
X135839418Y-85835660D01*
X135839023Y-85835045D01*
X135838727Y-85833992D01*
X135838663Y-85833838D01*
X135838662Y-85833833D01*
X135793437Y-85755500D01*
X135781988Y-85735670D01*
X135781984Y-85735665D01*
X135701834Y-85655515D01*
X135701829Y-85655511D01*
X135603669Y-85598839D01*
X135603668Y-85598838D01*
X135603667Y-85598838D01*
X135494176Y-85569500D01*
X135380824Y-85569500D01*
X135271333Y-85598838D01*
X135271330Y-85598839D01*
X135173170Y-85655511D01*
X135151436Y-85677245D01*
X135090112Y-85710729D01*
X135020420Y-85705743D01*
X134995391Y-85693013D01*
X134984935Y-85686103D01*
X134921829Y-85622997D01*
X134846036Y-85591603D01*
X134835050Y-85587052D01*
X134833460Y-85586393D01*
X134827923Y-85584100D01*
X134827922Y-85584100D01*
X134827921Y-85584100D01*
X134775997Y-85584100D01*
X134708958Y-85564415D01*
X134663203Y-85511611D01*
X134651997Y-85460100D01*
X134651997Y-85344148D01*
X134651996Y-85344141D01*
X134644427Y-85306083D01*
X134644427Y-85306081D01*
X134615584Y-85262914D01*
X134581162Y-85239914D01*
X134572416Y-85234070D01*
X134534355Y-85226500D01*
X134000647Y-85226500D01*
X134000639Y-85226501D01*
X133962581Y-85234070D01*
X133962578Y-85234071D01*
X133919412Y-85262914D01*
X133890568Y-85306081D01*
X133882998Y-85344141D01*
X133882998Y-86335050D01*
X133882999Y-86335058D01*
X133890568Y-86373116D01*
X133890569Y-86373119D01*
X133919412Y-86416286D01*
X133962579Y-86445129D01*
X134000643Y-86452700D01*
X134534352Y-86452699D01*
X134572417Y-86445129D01*
X134615584Y-86416286D01*
X134644427Y-86373119D01*
X134651998Y-86335055D01*
X134651998Y-86335047D01*
X134652337Y-86331614D01*
X134653018Y-86329925D01*
X134653187Y-86329080D01*
X134653347Y-86329111D01*
X134678496Y-86266826D01*
X134735529Y-86226466D01*
X134805329Y-86223347D01*
X134823192Y-86229204D01*
X134856893Y-86243163D01*
X134886678Y-86255500D01*
X135032818Y-86255500D01*
X135099857Y-86275185D01*
X135120498Y-86291818D01*
X135154582Y-86325901D01*
X135173167Y-86344486D01*
X135173168Y-86344487D01*
X135173170Y-86344488D01*
X135208574Y-86364928D01*
X135271333Y-86401162D01*
X135380824Y-86430500D01*
X135380826Y-86430500D01*
X135494174Y-86430500D01*
X135494176Y-86430500D01*
X135603667Y-86401162D01*
X135701833Y-86344486D01*
X135781986Y-86264333D01*
X135838662Y-86166167D01*
X135838664Y-86166158D01*
X135841771Y-86158660D01*
X135843386Y-86159329D01*
X135874588Y-86108137D01*
X135937434Y-86077606D01*
X136006810Y-86085899D01*
X136060689Y-86130383D01*
X136081965Y-86196935D01*
X136082000Y-86199889D01*
X136082000Y-87571587D01*
X136062315Y-87638626D01*
X136045681Y-87659268D01*
X135309031Y-88395917D01*
X135309029Y-88395920D01*
X135262226Y-88476982D01*
X135238000Y-88567399D01*
X135238000Y-95473232D01*
X135218315Y-95540271D01*
X135165511Y-95586026D01*
X135096353Y-95595970D01*
X135081907Y-95593007D01*
X135027829Y-95578517D01*
X134994176Y-95569500D01*
X134880824Y-95569500D01*
X134771333Y-95598838D01*
X134771330Y-95598839D01*
X134673170Y-95655511D01*
X134673165Y-95655515D01*
X134593015Y-95735665D01*
X134593011Y-95735670D01*
X134536339Y-95833830D01*
X134536338Y-95833833D01*
X134507000Y-95943324D01*
X134507000Y-96017806D01*
X134487315Y-96084845D01*
X134470681Y-96105487D01*
X134350896Y-96225271D01*
X134350894Y-96225273D01*
X134312001Y-96319174D01*
X134312000Y-96319179D01*
X134312000Y-96520500D01*
X134292315Y-96587539D01*
X134239511Y-96633294D01*
X134188000Y-96644500D01*
X133381390Y-96644500D01*
X133332082Y-96651684D01*
X133307425Y-96655276D01*
X133193341Y-96711049D01*
X133103549Y-96800841D01*
X133047776Y-96914925D01*
X133043820Y-96942083D01*
X133037000Y-96988890D01*
X133037000Y-97886110D01*
X133042789Y-97925841D01*
X133047776Y-97960074D01*
X133103549Y-98074158D01*
X133193341Y-98163950D01*
X133307425Y-98219723D01*
X133307426Y-98219723D01*
X133307428Y-98219724D01*
X133381390Y-98230500D01*
X133381396Y-98230500D01*
X134753604Y-98230500D01*
X134753610Y-98230500D01*
X134827572Y-98219724D01*
X134941657Y-98163951D01*
X134947483Y-98158125D01*
X135026319Y-98079290D01*
X135087642Y-98045805D01*
X135157334Y-98050789D01*
X135213267Y-98092661D01*
X135237684Y-98158125D01*
X135238000Y-98166971D01*
X135238000Y-98837885D01*
X135218315Y-98904924D01*
X135201681Y-98925566D01*
X134394066Y-99733181D01*
X134332743Y-99766666D01*
X134306385Y-99769500D01*
X133828615Y-99769500D01*
X133761576Y-99749815D01*
X133740934Y-99733181D01*
X127786284Y-93778531D01*
X127786282Y-93778529D01*
X127716901Y-93738471D01*
X127705219Y-93731726D01*
X127652139Y-93717504D01*
X127614803Y-93707500D01*
X114620727Y-93707500D01*
X114527122Y-93707500D01*
X114527120Y-93707500D01*
X114436704Y-93731726D01*
X114355640Y-93778530D01*
X113197107Y-94937065D01*
X113130920Y-95003251D01*
X113130918Y-95003254D01*
X113084115Y-95084316D01*
X113059889Y-95174733D01*
X104585412Y-95174733D01*
X104593685Y-95146560D01*
X104646489Y-95100805D01*
X104698000Y-95089599D01*
X104713472Y-95089599D01*
X104713486Y-95089598D01*
X104816197Y-95079105D01*
X104907350Y-95048900D01*
X104907351Y-95048900D01*
X104982621Y-95023957D01*
X104982624Y-95023956D01*
X105131845Y-94931915D01*
X105255815Y-94807945D01*
X105347856Y-94658724D01*
X105347858Y-94658719D01*
X105403005Y-94492297D01*
X105403006Y-94492290D01*
X105413499Y-94389586D01*
X105413500Y-94389573D01*
X105413500Y-94177100D01*
X102613501Y-94177100D01*
X102613501Y-94389586D01*
X99438000Y-94389586D01*
X99438000Y-93464613D01*
X102613500Y-93464613D01*
X102613500Y-93677100D01*
X103763500Y-93677100D01*
X104263500Y-93677100D01*
X105413499Y-93677100D01*
X105413499Y-93464628D01*
X105413498Y-93464613D01*
X105403005Y-93361902D01*
X105347858Y-93195480D01*
X105347856Y-93195475D01*
X105255815Y-93046254D01*
X105131845Y-92922284D01*
X104982624Y-92830243D01*
X104982619Y-92830241D01*
X104816197Y-92775094D01*
X104816190Y-92775093D01*
X104713486Y-92764600D01*
X104263500Y-92764600D01*
X104263500Y-93677100D01*
X103763500Y-93677100D01*
X103763500Y-92764600D01*
X103313528Y-92764600D01*
X103313512Y-92764601D01*
X103210802Y-92775094D01*
X103044380Y-92830241D01*
X103044375Y-92830243D01*
X102895154Y-92922284D01*
X102771184Y-93046254D01*
X102679143Y-93195475D01*
X102679141Y-93195480D01*
X102623994Y-93361902D01*
X102623993Y-93361909D01*
X102613500Y-93464613D01*
X99438000Y-93464613D01*
X99438000Y-86289844D01*
X127768501Y-86289844D01*
X127774902Y-86349372D01*
X127774904Y-86349379D01*
X127825146Y-86484086D01*
X127825150Y-86484093D01*
X127911310Y-86599187D01*
X127911313Y-86599190D01*
X128026407Y-86685350D01*
X128026414Y-86685354D01*
X128161121Y-86735596D01*
X128161128Y-86735598D01*
X128220656Y-86741999D01*
X128220673Y-86742000D01*
X128272501Y-86742000D01*
X128772501Y-86742000D01*
X128824329Y-86742000D01*
X128824345Y-86741999D01*
X128883873Y-86735598D01*
X128883880Y-86735596D01*
X129018587Y-86685354D01*
X129018594Y-86685350D01*
X129133688Y-86599190D01*
X129133691Y-86599187D01*
X129219851Y-86484093D01*
X129219855Y-86484086D01*
X129270097Y-86349379D01*
X129270099Y-86349372D01*
X129276500Y-86289844D01*
X129276501Y-86289827D01*
X129276501Y-86009400D01*
X128772501Y-86009400D01*
X128772501Y-86742000D01*
X128272501Y-86742000D01*
X128272501Y-86009400D01*
X127768501Y-86009400D01*
X127768501Y-86289844D01*
X99438000Y-86289844D01*
X99438000Y-85228955D01*
X127768501Y-85228955D01*
X127768501Y-85509400D01*
X128272501Y-85509400D01*
X128772501Y-85509400D01*
X129276501Y-85509400D01*
X129276501Y-85263941D01*
X129967999Y-85263941D01*
X129967999Y-86254850D01*
X129968000Y-86254858D01*
X129972043Y-86275185D01*
X129975570Y-86292919D01*
X130004413Y-86336086D01*
X130047580Y-86364929D01*
X130085644Y-86372500D01*
X130619353Y-86372499D01*
X130657418Y-86364929D01*
X130700585Y-86336086D01*
X130729428Y-86292919D01*
X130736999Y-86254855D01*
X130736998Y-85752236D01*
X130756682Y-85685198D01*
X130773312Y-85664561D01*
X131055310Y-85382564D01*
X131116632Y-85349080D01*
X131186324Y-85354064D01*
X131204990Y-85362859D01*
X131271333Y-85401162D01*
X131380824Y-85430500D01*
X131380826Y-85430500D01*
X131494173Y-85430500D01*
X131494176Y-85430500D01*
X131589268Y-85405020D01*
X131659112Y-85406683D01*
X131709038Y-85437114D01*
X132016681Y-85744757D01*
X132050166Y-85806080D01*
X132053000Y-85832438D01*
X132053000Y-86335050D01*
X132053001Y-86335058D01*
X132060570Y-86373116D01*
X132060571Y-86373119D01*
X132089414Y-86416286D01*
X132132581Y-86445129D01*
X132170645Y-86452700D01*
X132704354Y-86452699D01*
X132742419Y-86445129D01*
X132785586Y-86416286D01*
X132814429Y-86373119D01*
X132822000Y-86335055D01*
X132821999Y-85344146D01*
X132814429Y-85306081D01*
X132785586Y-85262914D01*
X132751164Y-85239914D01*
X132742418Y-85234070D01*
X132704358Y-85226500D01*
X132201738Y-85226500D01*
X132134699Y-85206815D01*
X132114057Y-85190181D01*
X131891786Y-84967910D01*
X131859693Y-84912325D01*
X131838662Y-84833833D01*
X131787257Y-84744796D01*
X131781988Y-84735670D01*
X131781984Y-84735665D01*
X131701834Y-84655515D01*
X131701829Y-84655511D01*
X131603669Y-84598839D01*
X131603668Y-84598838D01*
X131603667Y-84598838D01*
X131494176Y-84569500D01*
X131380824Y-84569500D01*
X131271333Y-84598838D01*
X131271330Y-84598839D01*
X131173170Y-84655511D01*
X131173165Y-84655515D01*
X131093016Y-84735664D01*
X131088066Y-84742116D01*
X131085325Y-84740013D01*
X131080304Y-84744796D01*
X131067284Y-84763550D01*
X131049609Y-84774036D01*
X131046246Y-84777241D01*
X131036930Y-84781560D01*
X131023691Y-84787044D01*
X131023690Y-84787045D01*
X130981331Y-84804590D01*
X130952477Y-84833445D01*
X130916490Y-84869432D01*
X130916489Y-84869433D01*
X130675940Y-85109981D01*
X130614617Y-85143466D01*
X130588259Y-85146300D01*
X130085648Y-85146300D01*
X130085640Y-85146301D01*
X130047582Y-85153870D01*
X130047579Y-85153871D01*
X130004413Y-85182714D01*
X129975569Y-85225881D01*
X129967999Y-85263941D01*
X129276501Y-85263941D01*
X129276501Y-85228972D01*
X129276500Y-85228955D01*
X129270099Y-85169427D01*
X129270097Y-85169420D01*
X129219855Y-85034713D01*
X129219851Y-85034706D01*
X129133691Y-84919612D01*
X129133688Y-84919609D01*
X129018594Y-84833449D01*
X129018587Y-84833445D01*
X128883880Y-84783203D01*
X128883873Y-84783201D01*
X128824345Y-84776800D01*
X128772501Y-84776800D01*
X128772501Y-85509400D01*
X128272501Y-85509400D01*
X128272501Y-84776800D01*
X128220656Y-84776800D01*
X128161128Y-84783201D01*
X128161121Y-84783203D01*
X128026414Y-84833445D01*
X128026407Y-84833449D01*
X127911313Y-84919609D01*
X127911310Y-84919612D01*
X127825150Y-85034706D01*
X127825146Y-85034713D01*
X127774904Y-85169420D01*
X127774902Y-85169427D01*
X127768501Y-85228955D01*
X99438000Y-85228955D01*
X99438000Y-83424341D01*
X129053000Y-83424341D01*
X129053000Y-84415250D01*
X129053001Y-84415258D01*
X129058830Y-84444565D01*
X129060571Y-84453319D01*
X129089414Y-84496486D01*
X129132581Y-84525329D01*
X129170645Y-84532900D01*
X129704354Y-84532899D01*
X129742419Y-84525329D01*
X129785586Y-84496486D01*
X129814429Y-84453319D01*
X129822000Y-84415255D01*
X129821999Y-83504541D01*
X132967999Y-83504541D01*
X132967999Y-84495450D01*
X132968000Y-84495458D01*
X132975569Y-84533516D01*
X132975570Y-84533519D01*
X133004413Y-84576686D01*
X133047580Y-84605529D01*
X133085644Y-84613100D01*
X133619353Y-84613099D01*
X133657418Y-84605529D01*
X133700585Y-84576686D01*
X133729428Y-84533519D01*
X133736999Y-84495455D01*
X133736998Y-83504546D01*
X133729428Y-83466481D01*
X133700585Y-83423314D01*
X133657418Y-83394471D01*
X133657417Y-83394470D01*
X133619356Y-83386900D01*
X133085648Y-83386900D01*
X133085640Y-83386901D01*
X133047582Y-83394470D01*
X133047579Y-83394471D01*
X133004413Y-83423314D01*
X132975569Y-83466481D01*
X132967999Y-83504541D01*
X129821999Y-83504541D01*
X129821999Y-83424346D01*
X129814429Y-83386281D01*
X129785586Y-83343114D01*
X129756742Y-83323841D01*
X129742418Y-83314270D01*
X129704357Y-83306700D01*
X129170649Y-83306700D01*
X129170641Y-83306701D01*
X129132583Y-83314270D01*
X129132580Y-83314271D01*
X129089414Y-83343114D01*
X129060570Y-83386281D01*
X129053000Y-83424341D01*
X99438000Y-83424341D01*
X99438000Y-82224985D01*
X130586401Y-82224985D01*
X130596894Y-82327696D01*
X130652041Y-82494118D01*
X130652043Y-82494123D01*
X130744084Y-82643344D01*
X130868054Y-82767314D01*
X131017275Y-82859355D01*
X131017280Y-82859357D01*
X131183702Y-82914504D01*
X131183709Y-82914505D01*
X131286419Y-82924998D01*
X131736399Y-82924998D01*
X131736400Y-82924997D01*
X131736400Y-82012499D01*
X130586401Y-82012499D01*
X130586401Y-82224985D01*
X99438000Y-82224985D01*
X99438000Y-81300012D01*
X130586400Y-81300012D01*
X130586400Y-81512499D01*
X131736400Y-81512499D01*
X132236400Y-81512499D01*
X133386399Y-81512499D01*
X133386399Y-81300027D01*
X133386398Y-81300012D01*
X133375905Y-81197301D01*
X133320758Y-81030879D01*
X133320756Y-81030874D01*
X133228715Y-80881653D01*
X133104745Y-80757683D01*
X132955524Y-80665642D01*
X132955519Y-80665640D01*
X132789097Y-80610493D01*
X132789090Y-80610492D01*
X132686386Y-80599999D01*
X132236400Y-80599999D01*
X132236400Y-81512499D01*
X131736400Y-81512499D01*
X131736400Y-80599999D01*
X131286428Y-80599999D01*
X131286412Y-80600000D01*
X131183702Y-80610493D01*
X131017280Y-80665640D01*
X131017275Y-80665642D01*
X130868054Y-80757683D01*
X130744084Y-80881653D01*
X130652043Y-81030874D01*
X130652041Y-81030879D01*
X130596894Y-81197301D01*
X130596893Y-81197308D01*
X130586400Y-81300012D01*
X99438000Y-81300012D01*
X99438000Y-79913389D01*
X104337000Y-79913389D01*
X104337000Y-80086610D01*
X104361153Y-80239111D01*
X104364098Y-80257701D01*
X104401334Y-80372302D01*
X104417628Y-80422447D01*
X104444419Y-80475028D01*
X104496268Y-80576788D01*
X104598086Y-80716928D01*
X104720572Y-80839414D01*
X104860712Y-80941232D01*
X105015055Y-81019873D01*
X105179799Y-81073402D01*
X105350889Y-81100500D01*
X105350890Y-81100500D01*
X105524110Y-81100500D01*
X105524111Y-81100500D01*
X105695201Y-81073402D01*
X105859945Y-81019873D01*
X106014288Y-80941232D01*
X106154428Y-80839414D01*
X106276914Y-80716928D01*
X106378732Y-80576788D01*
X106457373Y-80422445D01*
X106510902Y-80257701D01*
X106538000Y-80086611D01*
X106538000Y-79913389D01*
X111337000Y-79913389D01*
X111337000Y-80086610D01*
X111361153Y-80239111D01*
X111364098Y-80257701D01*
X111401334Y-80372302D01*
X111417628Y-80422447D01*
X111444419Y-80475028D01*
X111496268Y-80576788D01*
X111598086Y-80716928D01*
X111720572Y-80839414D01*
X111860712Y-80941232D01*
X112015055Y-81019873D01*
X112179799Y-81073402D01*
X112350889Y-81100500D01*
X112350890Y-81100500D01*
X112524110Y-81100500D01*
X112524111Y-81100500D01*
X112695201Y-81073402D01*
X112859945Y-81019873D01*
X113014288Y-80941232D01*
X113154428Y-80839414D01*
X113276914Y-80716928D01*
X113378732Y-80576788D01*
X113457373Y-80422445D01*
X113510902Y-80257701D01*
X113538000Y-80086611D01*
X113538000Y-79913389D01*
X113510902Y-79742299D01*
X113457373Y-79577555D01*
X113378732Y-79423212D01*
X113276914Y-79283072D01*
X113154428Y-79160586D01*
X113014288Y-79058768D01*
X112859945Y-78980127D01*
X112695201Y-78926598D01*
X112695199Y-78926597D01*
X112695198Y-78926597D01*
X112534604Y-78901162D01*
X112524111Y-78899500D01*
X112350889Y-78899500D01*
X112340396Y-78901162D01*
X112179802Y-78926597D01*
X112015052Y-78980128D01*
X111860711Y-79058768D01*
X111823080Y-79086109D01*
X111720572Y-79160586D01*
X111720570Y-79160588D01*
X111720569Y-79160588D01*
X111598088Y-79283069D01*
X111598088Y-79283070D01*
X111598086Y-79283072D01*
X111577074Y-79311993D01*
X111496268Y-79423211D01*
X111417628Y-79577552D01*
X111364097Y-79742302D01*
X111337000Y-79913389D01*
X106538000Y-79913389D01*
X106510902Y-79742299D01*
X106457373Y-79577555D01*
X106378732Y-79423212D01*
X106276914Y-79283072D01*
X106154428Y-79160586D01*
X106014288Y-79058768D01*
X105859945Y-78980127D01*
X105695201Y-78926598D01*
X105695199Y-78926597D01*
X105695198Y-78926597D01*
X105534604Y-78901162D01*
X105524111Y-78899500D01*
X105350889Y-78899500D01*
X105340396Y-78901162D01*
X105179802Y-78926597D01*
X105015052Y-78980128D01*
X104860711Y-79058768D01*
X104823080Y-79086109D01*
X104720572Y-79160586D01*
X104720570Y-79160588D01*
X104720569Y-79160588D01*
X104598088Y-79283069D01*
X104598088Y-79283070D01*
X104598086Y-79283072D01*
X104577074Y-79311993D01*
X104496268Y-79423211D01*
X104417628Y-79577552D01*
X104364097Y-79742302D01*
X104337000Y-79913389D01*
X99438000Y-79913389D01*
X99438000Y-76943324D01*
X113007000Y-76943324D01*
X113007000Y-77056676D01*
X113035712Y-77163828D01*
X113036338Y-77166166D01*
X113036339Y-77166169D01*
X113093011Y-77264329D01*
X113093013Y-77264332D01*
X113093014Y-77264333D01*
X113173167Y-77344486D01*
X113173168Y-77344487D01*
X113173170Y-77344488D01*
X113222250Y-77372824D01*
X113271333Y-77401162D01*
X113380824Y-77430500D01*
X113380826Y-77430500D01*
X113494174Y-77430500D01*
X113494176Y-77430500D01*
X113603667Y-77401162D01*
X113701833Y-77344486D01*
X113779500Y-77266819D01*
X113840823Y-77233334D01*
X113867181Y-77230500D01*
X114290662Y-77230500D01*
X114357701Y-77250185D01*
X114378343Y-77266819D01*
X114773090Y-77661566D01*
X114773091Y-77661568D01*
X114837932Y-77726409D01*
X114897837Y-77751221D01*
X114922650Y-77761500D01*
X114922651Y-77761500D01*
X123860648Y-77761500D01*
X123860650Y-77761501D01*
X123952350Y-77761501D01*
X124001976Y-77740944D01*
X124037068Y-77726409D01*
X124101909Y-77661568D01*
X124101909Y-77661567D01*
X124119347Y-77644129D01*
X124119348Y-77644126D01*
X127258934Y-74504541D01*
X128223002Y-74504541D01*
X128223002Y-75495450D01*
X128223003Y-75495458D01*
X128230572Y-75533516D01*
X128230573Y-75533519D01*
X128259416Y-75576686D01*
X128296893Y-75601727D01*
X128341698Y-75655339D01*
X128352002Y-75704829D01*
X128352002Y-77224022D01*
X128352001Y-77224022D01*
X128352002Y-77224024D01*
X128357170Y-77236500D01*
X128390899Y-77317930D01*
X128480209Y-77407240D01*
X128480215Y-77407245D01*
X129855196Y-78782226D01*
X129855197Y-78782228D01*
X129927071Y-78854102D01*
X129993472Y-78881606D01*
X130020977Y-78892999D01*
X130020978Y-78892999D01*
X130831900Y-78892999D01*
X130898939Y-78912684D01*
X130944694Y-78965488D01*
X130955900Y-79016999D01*
X130955900Y-79086109D01*
X130961213Y-79122573D01*
X130966676Y-79160073D01*
X131022449Y-79274157D01*
X131112241Y-79363949D01*
X131226325Y-79419722D01*
X131226326Y-79419722D01*
X131226328Y-79419723D01*
X131300290Y-79430499D01*
X131300296Y-79430499D01*
X132672504Y-79430499D01*
X132672510Y-79430499D01*
X132746472Y-79419723D01*
X132860557Y-79363950D01*
X132950351Y-79274156D01*
X133006124Y-79160071D01*
X133016900Y-79086109D01*
X133016900Y-78729265D01*
X133036585Y-78662226D01*
X133089389Y-78616471D01*
X133140900Y-78605265D01*
X134016883Y-78605265D01*
X134016885Y-78605266D01*
X134108585Y-78605266D01*
X134158211Y-78584709D01*
X134193303Y-78570174D01*
X134258144Y-78505333D01*
X134258144Y-78505332D01*
X134275579Y-78487897D01*
X134275583Y-78487891D01*
X134296658Y-78466817D01*
X134357982Y-78433333D01*
X134384337Y-78430500D01*
X134494174Y-78430500D01*
X134494176Y-78430500D01*
X134603667Y-78401162D01*
X134701833Y-78344486D01*
X134781986Y-78264333D01*
X134838662Y-78166167D01*
X134868000Y-78056676D01*
X134868000Y-77943324D01*
X134838662Y-77833833D01*
X134785033Y-77740944D01*
X134781988Y-77735670D01*
X134781984Y-77735665D01*
X134701834Y-77655515D01*
X134701829Y-77655511D01*
X134603669Y-77598839D01*
X134603668Y-77598838D01*
X134603667Y-77598838D01*
X134494176Y-77569500D01*
X134380824Y-77569500D01*
X134271333Y-77598838D01*
X134271330Y-77598839D01*
X134173170Y-77655511D01*
X134173165Y-77655515D01*
X134093015Y-77735665D01*
X134093011Y-77735670D01*
X134036339Y-77833830D01*
X134036338Y-77833833D01*
X134007000Y-77943324D01*
X134007000Y-78020265D01*
X133987315Y-78087304D01*
X133934511Y-78133059D01*
X133883000Y-78144265D01*
X133097871Y-78144265D01*
X133030832Y-78124580D01*
X132986471Y-78074725D01*
X132950352Y-78000842D01*
X132860558Y-77911048D01*
X132746474Y-77855275D01*
X132727981Y-77852581D01*
X132672510Y-77844499D01*
X131300290Y-77844499D01*
X131250982Y-77851683D01*
X131226325Y-77855275D01*
X131112241Y-77911048D01*
X131022449Y-78000840D01*
X130966676Y-78114924D01*
X130964788Y-78127887D01*
X130955900Y-78188889D01*
X130955900Y-78188894D01*
X130955900Y-78257999D01*
X130936215Y-78325038D01*
X130883411Y-78370793D01*
X130831900Y-78381999D01*
X130228993Y-78381999D01*
X130199552Y-78373354D01*
X130169566Y-78366831D01*
X130164550Y-78363076D01*
X130161954Y-78362314D01*
X130141312Y-78345680D01*
X130093448Y-78297816D01*
X130059963Y-78236493D01*
X130064947Y-78166801D01*
X130106819Y-78110868D01*
X130149031Y-78090362D01*
X130179667Y-78082154D01*
X130277833Y-78025478D01*
X130357986Y-77945325D01*
X130404179Y-77865317D01*
X130454745Y-77817101D01*
X130473996Y-77810374D01*
X130483349Y-77806500D01*
X130568068Y-77771409D01*
X130632909Y-77706568D01*
X130668000Y-77621849D01*
X130668000Y-76424341D01*
X133053000Y-76424341D01*
X133053000Y-77415250D01*
X133053001Y-77415258D01*
X133060570Y-77453316D01*
X133060571Y-77453319D01*
X133089414Y-77496486D01*
X133132581Y-77525329D01*
X133170645Y-77532900D01*
X133704354Y-77532899D01*
X133742419Y-77525329D01*
X133785586Y-77496486D01*
X133814429Y-77453319D01*
X133822000Y-77415255D01*
X133821999Y-76469424D01*
X162863000Y-76469424D01*
X162863000Y-76662575D01*
X162900678Y-76851993D01*
X162900681Y-76852005D01*
X162974588Y-77030434D01*
X162974595Y-77030447D01*
X163081895Y-77191031D01*
X163081898Y-77191035D01*
X163218464Y-77327601D01*
X163218468Y-77327604D01*
X163379052Y-77434904D01*
X163379065Y-77434911D01*
X163527722Y-77496486D01*
X163557499Y-77508820D01*
X163746924Y-77546499D01*
X163746927Y-77546500D01*
X163746929Y-77546500D01*
X163940073Y-77546500D01*
X163940074Y-77546499D01*
X164129501Y-77508820D01*
X164307941Y-77434908D01*
X164468532Y-77327604D01*
X164605104Y-77191032D01*
X164712408Y-77030441D01*
X164786320Y-76852001D01*
X164824000Y-76662571D01*
X164824000Y-76469429D01*
X164824000Y-76469426D01*
X164823999Y-76469424D01*
X164811688Y-76407528D01*
X164808087Y-76389424D01*
X178063000Y-76389424D01*
X178063000Y-76582575D01*
X178100678Y-76771993D01*
X178100681Y-76772005D01*
X178174588Y-76950434D01*
X178174595Y-76950447D01*
X178281895Y-77111031D01*
X178281898Y-77111035D01*
X178418464Y-77247601D01*
X178418468Y-77247604D01*
X178579052Y-77354904D01*
X178579065Y-77354911D01*
X178724750Y-77415255D01*
X178757499Y-77428820D01*
X178880649Y-77453316D01*
X178946924Y-77466499D01*
X178946927Y-77466500D01*
X178946929Y-77466500D01*
X179140073Y-77466500D01*
X179140074Y-77466499D01*
X179329501Y-77428820D01*
X179507941Y-77354908D01*
X179668532Y-77247604D01*
X179805104Y-77111032D01*
X179912408Y-76950441D01*
X179986320Y-76772001D01*
X180024000Y-76582571D01*
X180024000Y-76389429D01*
X180024000Y-76389426D01*
X180023999Y-76389424D01*
X180002232Y-76279994D01*
X179986320Y-76199999D01*
X179950868Y-76114409D01*
X179912411Y-76021565D01*
X179912404Y-76021552D01*
X179805104Y-75860968D01*
X179805101Y-75860964D01*
X179668535Y-75724398D01*
X179668531Y-75724395D01*
X179507947Y-75617095D01*
X179507934Y-75617088D01*
X179329505Y-75543181D01*
X179329493Y-75543178D01*
X179140074Y-75505500D01*
X179140071Y-75505500D01*
X178946929Y-75505500D01*
X178946926Y-75505500D01*
X178757506Y-75543178D01*
X178757494Y-75543181D01*
X178579065Y-75617088D01*
X178579052Y-75617095D01*
X178418468Y-75724395D01*
X178418464Y-75724398D01*
X178281898Y-75860964D01*
X178281895Y-75860968D01*
X178174595Y-76021552D01*
X178174588Y-76021565D01*
X178100681Y-76199994D01*
X178100678Y-76200006D01*
X178063000Y-76389424D01*
X164808087Y-76389424D01*
X164786321Y-76280004D01*
X164786320Y-76280003D01*
X164786320Y-76279999D01*
X164767296Y-76234070D01*
X164712411Y-76101565D01*
X164712404Y-76101552D01*
X164605104Y-75940968D01*
X164605101Y-75940964D01*
X164468535Y-75804398D01*
X164468531Y-75804395D01*
X164307947Y-75697095D01*
X164307934Y-75697088D01*
X164129505Y-75623181D01*
X164129493Y-75623178D01*
X163940074Y-75585500D01*
X163940071Y-75585500D01*
X163746929Y-75585500D01*
X163746926Y-75585500D01*
X163557506Y-75623178D01*
X163557494Y-75623181D01*
X163379065Y-75697088D01*
X163379052Y-75697095D01*
X163218468Y-75804395D01*
X163218464Y-75804398D01*
X163081898Y-75940964D01*
X163081895Y-75940968D01*
X162974595Y-76101552D01*
X162974588Y-76101565D01*
X162900681Y-76279994D01*
X162900678Y-76280006D01*
X162863000Y-76469424D01*
X133821999Y-76469424D01*
X133821999Y-76424346D01*
X133814429Y-76386281D01*
X133785586Y-76343114D01*
X133742419Y-76314271D01*
X133742418Y-76314270D01*
X133704357Y-76306700D01*
X133170649Y-76306700D01*
X133170641Y-76306701D01*
X133132583Y-76314270D01*
X133132580Y-76314271D01*
X133089414Y-76343114D01*
X133060570Y-76386281D01*
X133053000Y-76424341D01*
X130668000Y-76424341D01*
X130668000Y-75719208D01*
X130687685Y-75652169D01*
X130732782Y-75613092D01*
X130732263Y-75612315D01*
X130738449Y-75608181D01*
X130740489Y-75606414D01*
X130742226Y-75605657D01*
X130742416Y-75605529D01*
X130742419Y-75605529D01*
X130785586Y-75576686D01*
X130814429Y-75533519D01*
X130822000Y-75495455D01*
X130822000Y-75354500D01*
X130841685Y-75287461D01*
X130894489Y-75241706D01*
X130946000Y-75230500D01*
X131290661Y-75230500D01*
X131353063Y-75247346D01*
X131366964Y-75255441D01*
X131387132Y-75275609D01*
X131429491Y-75293154D01*
X131471851Y-75310701D01*
X131471853Y-75310701D01*
X131577984Y-75310701D01*
X131577992Y-75310700D01*
X132014002Y-75310700D01*
X132081041Y-75330385D01*
X132126796Y-75383189D01*
X132138002Y-75434700D01*
X132138002Y-75575658D01*
X132145571Y-75613716D01*
X132145572Y-75613719D01*
X132174415Y-75656886D01*
X132217582Y-75685729D01*
X132255646Y-75693300D01*
X132789355Y-75693299D01*
X132827420Y-75685729D01*
X132870587Y-75656886D01*
X132899430Y-75613719D01*
X132900042Y-75610644D01*
X133598499Y-75610644D01*
X133604900Y-75670172D01*
X133604902Y-75670179D01*
X133655144Y-75804886D01*
X133655148Y-75804893D01*
X133741308Y-75919987D01*
X133741311Y-75919990D01*
X133856405Y-76006150D01*
X133856412Y-76006154D01*
X133991119Y-76056396D01*
X133991126Y-76056398D01*
X134050654Y-76062799D01*
X134050671Y-76062800D01*
X134102499Y-76062800D01*
X134602499Y-76062800D01*
X134654327Y-76062800D01*
X134654343Y-76062799D01*
X134713871Y-76056398D01*
X134713878Y-76056396D01*
X134848585Y-76006154D01*
X134848592Y-76006150D01*
X134963686Y-75919990D01*
X134963689Y-75919987D01*
X135049849Y-75804893D01*
X135049853Y-75804886D01*
X135100095Y-75670179D01*
X135100097Y-75670172D01*
X135106498Y-75610644D01*
X135106499Y-75610627D01*
X135106499Y-75330200D01*
X134602499Y-75330200D01*
X134602499Y-76062800D01*
X134102499Y-76062800D01*
X134102499Y-75330200D01*
X133598499Y-75330200D01*
X133598499Y-75610644D01*
X132900042Y-75610644D01*
X132907001Y-75575655D01*
X132907000Y-75006500D01*
X132907000Y-74584749D01*
X132907000Y-74584746D01*
X132900041Y-74549755D01*
X133598499Y-74549755D01*
X133598499Y-74830200D01*
X134102499Y-74830200D01*
X134602499Y-74830200D01*
X135106499Y-74830200D01*
X135106499Y-74549772D01*
X135106498Y-74549755D01*
X135100097Y-74490227D01*
X135100095Y-74490220D01*
X135049853Y-74355513D01*
X135049849Y-74355506D01*
X134963689Y-74240412D01*
X134963686Y-74240409D01*
X134848592Y-74154249D01*
X134848585Y-74154245D01*
X134713878Y-74104003D01*
X134713871Y-74104001D01*
X134654343Y-74097600D01*
X134602499Y-74097600D01*
X134602499Y-74830200D01*
X134102499Y-74830200D01*
X134102499Y-74097600D01*
X134050654Y-74097600D01*
X133991126Y-74104001D01*
X133991119Y-74104003D01*
X133856412Y-74154245D01*
X133856405Y-74154249D01*
X133741311Y-74240409D01*
X133741308Y-74240412D01*
X133655148Y-74355506D01*
X133655144Y-74355513D01*
X133604902Y-74490220D01*
X133604900Y-74490227D01*
X133598499Y-74549755D01*
X132900041Y-74549755D01*
X132899430Y-74546681D01*
X132870587Y-74503514D01*
X132827420Y-74474671D01*
X132827419Y-74474670D01*
X132789358Y-74467100D01*
X132255650Y-74467100D01*
X132255642Y-74467101D01*
X132217584Y-74474670D01*
X132217581Y-74474671D01*
X132174415Y-74503514D01*
X132145571Y-74546681D01*
X132138001Y-74584741D01*
X132138001Y-74725700D01*
X132118316Y-74792739D01*
X132065512Y-74838494D01*
X132014001Y-74849700D01*
X131664539Y-74849700D01*
X131601935Y-74832736D01*
X131588151Y-74824674D01*
X131568068Y-74804591D01*
X131527057Y-74787604D01*
X131519220Y-74784357D01*
X131519219Y-74784357D01*
X131483352Y-74769499D01*
X131483350Y-74769499D01*
X131391650Y-74769499D01*
X131377216Y-74769499D01*
X131377208Y-74769500D01*
X130945999Y-74769500D01*
X130878960Y-74749815D01*
X130833205Y-74697011D01*
X130821999Y-74645500D01*
X130821999Y-74504548D01*
X130821998Y-74504541D01*
X130819194Y-74490441D01*
X130814429Y-74466481D01*
X130785586Y-74423314D01*
X130742419Y-74394471D01*
X130742418Y-74394470D01*
X130704357Y-74386900D01*
X130170649Y-74386900D01*
X130170641Y-74386901D01*
X130132583Y-74394470D01*
X130132580Y-74394471D01*
X130089414Y-74423314D01*
X130060570Y-74466481D01*
X130053000Y-74504541D01*
X130053000Y-75495450D01*
X130053001Y-75495458D01*
X130060570Y-75533516D01*
X130060571Y-75533519D01*
X130089414Y-75576686D01*
X130126891Y-75601727D01*
X130142737Y-75612315D01*
X130141767Y-75613766D01*
X130184851Y-75648481D01*
X130206921Y-75714774D01*
X130207000Y-75719208D01*
X130207000Y-77127110D01*
X130204240Y-77136506D01*
X130205519Y-77146214D01*
X130194559Y-77169475D01*
X130187315Y-77194149D01*
X130179915Y-77200561D01*
X130175741Y-77209421D01*
X130153941Y-77223067D01*
X130134511Y-77239904D01*
X130123240Y-77242285D01*
X130116518Y-77246494D01*
X130096572Y-77247921D01*
X130081526Y-77251101D01*
X130072027Y-77250988D01*
X130070176Y-77250492D01*
X130030283Y-77250492D01*
X130029526Y-77250483D01*
X129996803Y-77240450D01*
X129963961Y-77230807D01*
X129963459Y-77230227D01*
X129962726Y-77230003D01*
X129940600Y-77203847D01*
X129918206Y-77178003D01*
X129918021Y-77177156D01*
X129917601Y-77176659D01*
X129917121Y-77173019D01*
X129907000Y-77126492D01*
X129907000Y-76344148D01*
X129906999Y-76344141D01*
X129906795Y-76343114D01*
X129899430Y-76306081D01*
X129870587Y-76262914D01*
X129827420Y-76234071D01*
X129827419Y-76234070D01*
X129789358Y-76226500D01*
X129255650Y-76226500D01*
X129255642Y-76226501D01*
X129217584Y-76234070D01*
X129217581Y-76234071D01*
X129174415Y-76262914D01*
X129145571Y-76306081D01*
X129138001Y-76344141D01*
X129138001Y-77043007D01*
X129131762Y-77064252D01*
X129130183Y-77086341D01*
X129122110Y-77097124D01*
X129118316Y-77110046D01*
X129101582Y-77124545D01*
X129088311Y-77142274D01*
X129075690Y-77146981D01*
X129065512Y-77155801D01*
X129043594Y-77158952D01*
X129022847Y-77166691D01*
X129009686Y-77163828D01*
X128996354Y-77165745D01*
X128976210Y-77156545D01*
X128954574Y-77151839D01*
X128936848Y-77138570D01*
X128932798Y-77136720D01*
X128926320Y-77130688D01*
X128899321Y-77103689D01*
X128865836Y-77042366D01*
X128863002Y-77016008D01*
X128863002Y-75704829D01*
X128882687Y-75637790D01*
X128918111Y-75601727D01*
X128955588Y-75576686D01*
X128984431Y-75533519D01*
X128992002Y-75495455D01*
X128992001Y-74504546D01*
X128984431Y-74466481D01*
X128955588Y-74423314D01*
X128912421Y-74394471D01*
X128912420Y-74394470D01*
X128874359Y-74386900D01*
X128340651Y-74386900D01*
X128340643Y-74386901D01*
X128302585Y-74394470D01*
X128302582Y-74394471D01*
X128259416Y-74423314D01*
X128230572Y-74466481D01*
X128223002Y-74504541D01*
X127258934Y-74504541D01*
X127834051Y-73929424D01*
X162863000Y-73929424D01*
X162863000Y-74122575D01*
X162900678Y-74311993D01*
X162900681Y-74312005D01*
X162974588Y-74490434D01*
X162974595Y-74490447D01*
X163081895Y-74651031D01*
X163081898Y-74651035D01*
X163218464Y-74787601D01*
X163218468Y-74787604D01*
X163379052Y-74894904D01*
X163379065Y-74894911D01*
X163557494Y-74968818D01*
X163557499Y-74968820D01*
X163746924Y-75006499D01*
X163746927Y-75006500D01*
X163746929Y-75006500D01*
X163940073Y-75006500D01*
X163940074Y-75006499D01*
X164129501Y-74968820D01*
X164307941Y-74894908D01*
X164468532Y-74787604D01*
X164605104Y-74651032D01*
X164712408Y-74490441D01*
X164786320Y-74312001D01*
X164824000Y-74122571D01*
X164824000Y-73929429D01*
X164824000Y-73929426D01*
X164823999Y-73929424D01*
X164811688Y-73867528D01*
X164808087Y-73849424D01*
X178063000Y-73849424D01*
X178063000Y-74042575D01*
X178100678Y-74231993D01*
X178100681Y-74232005D01*
X178174588Y-74410434D01*
X178174595Y-74410447D01*
X178281895Y-74571031D01*
X178281898Y-74571035D01*
X178418464Y-74707601D01*
X178418468Y-74707604D01*
X178579052Y-74814904D01*
X178579065Y-74814911D01*
X178757494Y-74888818D01*
X178757499Y-74888820D01*
X178946924Y-74926499D01*
X178946927Y-74926500D01*
X178946929Y-74926500D01*
X179140073Y-74926500D01*
X179140074Y-74926499D01*
X179329501Y-74888820D01*
X179507941Y-74814908D01*
X179668532Y-74707604D01*
X179805104Y-74571032D01*
X179912408Y-74410441D01*
X179986320Y-74232001D01*
X180024000Y-74042571D01*
X180024000Y-73849429D01*
X180024000Y-73849426D01*
X180023999Y-73849424D01*
X179986321Y-73660006D01*
X179986320Y-73659999D01*
X179986318Y-73659994D01*
X179912411Y-73481565D01*
X179912404Y-73481552D01*
X179805104Y-73320968D01*
X179805101Y-73320964D01*
X179668535Y-73184398D01*
X179668531Y-73184395D01*
X179507947Y-73077095D01*
X179507934Y-73077088D01*
X179329505Y-73003181D01*
X179329493Y-73003178D01*
X179140074Y-72965500D01*
X179140071Y-72965500D01*
X178946929Y-72965500D01*
X178946926Y-72965500D01*
X178757506Y-73003178D01*
X178757494Y-73003181D01*
X178579065Y-73077088D01*
X178579052Y-73077095D01*
X178418468Y-73184395D01*
X178418464Y-73184398D01*
X178281898Y-73320964D01*
X178281895Y-73320968D01*
X178174595Y-73481552D01*
X178174588Y-73481565D01*
X178100681Y-73659994D01*
X178100678Y-73660006D01*
X178063000Y-73849424D01*
X164808087Y-73849424D01*
X164786321Y-73740004D01*
X164786320Y-73740003D01*
X164786320Y-73739999D01*
X164753181Y-73659994D01*
X164712411Y-73561565D01*
X164712404Y-73561552D01*
X164605104Y-73400968D01*
X164605101Y-73400964D01*
X164468535Y-73264398D01*
X164468531Y-73264395D01*
X164307947Y-73157095D01*
X164307934Y-73157088D01*
X164129505Y-73083181D01*
X164129493Y-73083178D01*
X163940074Y-73045500D01*
X163940071Y-73045500D01*
X163746929Y-73045500D01*
X163746926Y-73045500D01*
X163557506Y-73083178D01*
X163557494Y-73083181D01*
X163379065Y-73157088D01*
X163379052Y-73157095D01*
X163218468Y-73264395D01*
X163218464Y-73264398D01*
X163081898Y-73400964D01*
X163081895Y-73400968D01*
X162974595Y-73561552D01*
X162974588Y-73561565D01*
X162900681Y-73739994D01*
X162900678Y-73740006D01*
X162863000Y-73929424D01*
X127834051Y-73929424D01*
X128415657Y-73347819D01*
X128476980Y-73314334D01*
X128503338Y-73311500D01*
X130310648Y-73311500D01*
X130310650Y-73311501D01*
X130402350Y-73311501D01*
X130451976Y-73290944D01*
X130487068Y-73276409D01*
X130551909Y-73211568D01*
X130551909Y-73211567D01*
X130569347Y-73194129D01*
X130569349Y-73194126D01*
X130858971Y-72904503D01*
X130920292Y-72871020D01*
X130989984Y-72876004D01*
X130994102Y-72877625D01*
X131151494Y-72942818D01*
X131151499Y-72942820D01*
X131302862Y-72972928D01*
X131340924Y-72980499D01*
X131340927Y-72980500D01*
X131340929Y-72980500D01*
X131534073Y-72980500D01*
X131534074Y-72980499D01*
X131723501Y-72942820D01*
X131901941Y-72868908D01*
X132062532Y-72761604D01*
X132199104Y-72625032D01*
X132306408Y-72464441D01*
X132380320Y-72286001D01*
X132418000Y-72096571D01*
X132418000Y-71903429D01*
X132418000Y-71903426D01*
X132417999Y-71903424D01*
X132997000Y-71903424D01*
X132997000Y-72096575D01*
X133034678Y-72285993D01*
X133034681Y-72286005D01*
X133108588Y-72464434D01*
X133108595Y-72464447D01*
X133215895Y-72625031D01*
X133215898Y-72625035D01*
X133352464Y-72761601D01*
X133352468Y-72761604D01*
X133513052Y-72868904D01*
X133513065Y-72868911D01*
X133691494Y-72942818D01*
X133691499Y-72942820D01*
X133842862Y-72972928D01*
X133880924Y-72980499D01*
X133880927Y-72980500D01*
X133880929Y-72980500D01*
X134074073Y-72980500D01*
X134074074Y-72980499D01*
X134263501Y-72942820D01*
X134441941Y-72868908D01*
X134602532Y-72761604D01*
X134739104Y-72625032D01*
X134846408Y-72464441D01*
X134920320Y-72286001D01*
X134958000Y-72096571D01*
X134958000Y-71903429D01*
X134958000Y-71903426D01*
X134957999Y-71903424D01*
X134931857Y-71772001D01*
X134920320Y-71713999D01*
X134911205Y-71691993D01*
X134846411Y-71535565D01*
X134846404Y-71535552D01*
X134739104Y-71374968D01*
X134739101Y-71374964D01*
X134602535Y-71238398D01*
X134602531Y-71238395D01*
X134596187Y-71234156D01*
X134450995Y-71137141D01*
X137457000Y-71137141D01*
X137457000Y-72862850D01*
X137457001Y-72862858D01*
X137463956Y-72897827D01*
X137464571Y-72900919D01*
X137493414Y-72944086D01*
X137536581Y-72972929D01*
X137574645Y-72980500D01*
X139300354Y-72980499D01*
X139338419Y-72972929D01*
X139381586Y-72944086D01*
X139410429Y-72900919D01*
X139418000Y-72862855D01*
X139417999Y-71137146D01*
X139417998Y-71137141D01*
X141457000Y-71137141D01*
X141457000Y-72862850D01*
X141457001Y-72862858D01*
X141463956Y-72897827D01*
X141464571Y-72900919D01*
X141493414Y-72944086D01*
X141536581Y-72972929D01*
X141574645Y-72980500D01*
X143300354Y-72980499D01*
X143338419Y-72972929D01*
X143381586Y-72944086D01*
X143410429Y-72900919D01*
X143418000Y-72862855D01*
X143417999Y-71950447D01*
X143417999Y-71137149D01*
X143417999Y-71137146D01*
X143411040Y-71102155D01*
X146087500Y-71102155D01*
X146087500Y-71750000D01*
X147004488Y-71750000D01*
X146971575Y-71807007D01*
X146937500Y-71934174D01*
X146937500Y-72065826D01*
X146971575Y-72192993D01*
X147004488Y-72250000D01*
X146087500Y-72250000D01*
X146087500Y-72897844D01*
X146093901Y-72957372D01*
X146093903Y-72957379D01*
X146144145Y-73092086D01*
X146144149Y-73092093D01*
X146230309Y-73207187D01*
X146230312Y-73207190D01*
X146345406Y-73293350D01*
X146345413Y-73293354D01*
X146480120Y-73343596D01*
X146480127Y-73343598D01*
X146539655Y-73349999D01*
X146539672Y-73350000D01*
X147187500Y-73350000D01*
X147187500Y-72433012D01*
X147244507Y-72465925D01*
X147371674Y-72500000D01*
X147503326Y-72500000D01*
X147630493Y-72465925D01*
X147687500Y-72433012D01*
X147687500Y-73350000D01*
X148335328Y-73350000D01*
X148335344Y-73349999D01*
X148394872Y-73343598D01*
X148394879Y-73343596D01*
X148529586Y-73293354D01*
X148529593Y-73293350D01*
X148644687Y-73207190D01*
X148644690Y-73207187D01*
X148730850Y-73092093D01*
X148730854Y-73092086D01*
X148781096Y-72957379D01*
X148781098Y-72957372D01*
X148787499Y-72897844D01*
X148787500Y-72897827D01*
X148787500Y-72250000D01*
X147870512Y-72250000D01*
X147903425Y-72192993D01*
X147937500Y-72065826D01*
X147937500Y-71934174D01*
X147903425Y-71807007D01*
X147870512Y-71750000D01*
X148787500Y-71750000D01*
X148787500Y-71137141D01*
X150957000Y-71137141D01*
X150957000Y-72862850D01*
X150957001Y-72862858D01*
X150963956Y-72897827D01*
X150964571Y-72900919D01*
X150993414Y-72944086D01*
X151036581Y-72972929D01*
X151074645Y-72980500D01*
X152800354Y-72980499D01*
X152838419Y-72972929D01*
X152881586Y-72944086D01*
X152910429Y-72900919D01*
X152918000Y-72862855D01*
X152917999Y-71137146D01*
X152910429Y-71099081D01*
X152881586Y-71055914D01*
X152838419Y-71027071D01*
X152838418Y-71027070D01*
X152800357Y-71019500D01*
X151074649Y-71019500D01*
X151074641Y-71019501D01*
X151036583Y-71027070D01*
X151036580Y-71027071D01*
X150993414Y-71055914D01*
X150964570Y-71099081D01*
X150957000Y-71137141D01*
X148787500Y-71137141D01*
X148787500Y-71102172D01*
X148787499Y-71102155D01*
X148781098Y-71042627D01*
X148781096Y-71042620D01*
X148730854Y-70907913D01*
X148730850Y-70907906D01*
X148644690Y-70792812D01*
X148644687Y-70792809D01*
X148529593Y-70706649D01*
X148529586Y-70706645D01*
X148394879Y-70656403D01*
X148394872Y-70656401D01*
X148335344Y-70650000D01*
X147687500Y-70650000D01*
X147687500Y-71566988D01*
X147630493Y-71534075D01*
X147503326Y-71500000D01*
X147371674Y-71500000D01*
X147244507Y-71534075D01*
X147187500Y-71566988D01*
X147187500Y-70650000D01*
X146539655Y-70650000D01*
X146480127Y-70656401D01*
X146480120Y-70656403D01*
X146345413Y-70706645D01*
X146345406Y-70706649D01*
X146230312Y-70792809D01*
X146230309Y-70792812D01*
X146144149Y-70907906D01*
X146144145Y-70907913D01*
X146093903Y-71042620D01*
X146093901Y-71042627D01*
X146087500Y-71102155D01*
X143411040Y-71102155D01*
X143410429Y-71099081D01*
X143381586Y-71055914D01*
X143338419Y-71027071D01*
X143338418Y-71027070D01*
X143300357Y-71019500D01*
X141574649Y-71019500D01*
X141574641Y-71019501D01*
X141536583Y-71027070D01*
X141536580Y-71027071D01*
X141493414Y-71055914D01*
X141464570Y-71099081D01*
X141457000Y-71137141D01*
X139417998Y-71137141D01*
X139410429Y-71099081D01*
X139381586Y-71055914D01*
X139338419Y-71027071D01*
X139338418Y-71027070D01*
X139300357Y-71019500D01*
X137574649Y-71019500D01*
X137574641Y-71019501D01*
X137536583Y-71027070D01*
X137536580Y-71027071D01*
X137493414Y-71055914D01*
X137464570Y-71099081D01*
X137457000Y-71137141D01*
X134450995Y-71137141D01*
X134441947Y-71131095D01*
X134441934Y-71131088D01*
X134263505Y-71057181D01*
X134263493Y-71057178D01*
X134074074Y-71019500D01*
X134074071Y-71019500D01*
X133880929Y-71019500D01*
X133880926Y-71019500D01*
X133691506Y-71057178D01*
X133691494Y-71057181D01*
X133513065Y-71131088D01*
X133513052Y-71131095D01*
X133352468Y-71238395D01*
X133352464Y-71238398D01*
X133215898Y-71374964D01*
X133215895Y-71374968D01*
X133108595Y-71535552D01*
X133108588Y-71535565D01*
X133034681Y-71713994D01*
X133034678Y-71714006D01*
X132997000Y-71903424D01*
X132417999Y-71903424D01*
X132391857Y-71772001D01*
X132380320Y-71713999D01*
X132371205Y-71691993D01*
X132306411Y-71535565D01*
X132306404Y-71535552D01*
X132199104Y-71374968D01*
X132199101Y-71374964D01*
X132062535Y-71238398D01*
X132062531Y-71238395D01*
X131901947Y-71131095D01*
X131901934Y-71131088D01*
X131723505Y-71057181D01*
X131723493Y-71057178D01*
X131534074Y-71019500D01*
X131534071Y-71019500D01*
X131340929Y-71019500D01*
X131340926Y-71019500D01*
X131151506Y-71057178D01*
X131151494Y-71057181D01*
X130973065Y-71131088D01*
X130973052Y-71131095D01*
X130812468Y-71238395D01*
X130812464Y-71238398D01*
X130675898Y-71374964D01*
X130675895Y-71374968D01*
X130568595Y-71535552D01*
X130568588Y-71535565D01*
X130494681Y-71713994D01*
X130494678Y-71714006D01*
X130457000Y-71903424D01*
X130457000Y-72096575D01*
X130494678Y-72285993D01*
X130494681Y-72286005D01*
X130559874Y-72443395D01*
X130567343Y-72512864D01*
X130536068Y-72575343D01*
X130532995Y-72578528D01*
X130297341Y-72814182D01*
X130270410Y-72828888D01*
X130244597Y-72845477D01*
X130238397Y-72846368D01*
X130236021Y-72847666D01*
X130209662Y-72850500D01*
X130002000Y-72850500D01*
X129934961Y-72830815D01*
X129889206Y-72778011D01*
X129878000Y-72726500D01*
X129877999Y-71137149D01*
X129877998Y-71137141D01*
X129876547Y-71129843D01*
X129870429Y-71099081D01*
X129841586Y-71055914D01*
X129798419Y-71027071D01*
X129798418Y-71027070D01*
X129760358Y-71019500D01*
X129760355Y-71019500D01*
X128817000Y-71019500D01*
X128808314Y-71016949D01*
X128799353Y-71018238D01*
X128775312Y-71007259D01*
X128749961Y-70999815D01*
X128744033Y-70992974D01*
X128735797Y-70989213D01*
X128721507Y-70966978D01*
X128704206Y-70947011D01*
X128701918Y-70936496D01*
X128698023Y-70930435D01*
X128693000Y-70895500D01*
X128693000Y-70793681D01*
X128712685Y-70726642D01*
X128729319Y-70706000D01*
X128746820Y-70688499D01*
X128781986Y-70653333D01*
X128838662Y-70555167D01*
X128868000Y-70445676D01*
X128868000Y-70332324D01*
X128838662Y-70222833D01*
X128781986Y-70124667D01*
X128701833Y-70044514D01*
X128701832Y-70044513D01*
X128701829Y-70044511D01*
X128603669Y-69987839D01*
X128603668Y-69987838D01*
X128603667Y-69987838D01*
X128494176Y-69958500D01*
X128380824Y-69958500D01*
X128271333Y-69987838D01*
X128271330Y-69987839D01*
X128173170Y-70044511D01*
X128173165Y-70044515D01*
X128093015Y-70124665D01*
X128093011Y-70124670D01*
X128036339Y-70222830D01*
X128036338Y-70222833D01*
X128007000Y-70332324D01*
X128007000Y-70445676D01*
X128028184Y-70524733D01*
X128036338Y-70555166D01*
X128036339Y-70555169D01*
X128093011Y-70653329D01*
X128093015Y-70653334D01*
X128145681Y-70706000D01*
X128160384Y-70732927D01*
X128176977Y-70758746D01*
X128177868Y-70764946D01*
X128179166Y-70767323D01*
X128182000Y-70793681D01*
X128182000Y-70895500D01*
X128162315Y-70962539D01*
X128109511Y-71008294D01*
X128058004Y-71019500D01*
X128034651Y-71019500D01*
X128034641Y-71019501D01*
X127996583Y-71027070D01*
X127996580Y-71027071D01*
X127953414Y-71055914D01*
X127924570Y-71099081D01*
X127917000Y-71137141D01*
X127917000Y-72862850D01*
X127917001Y-72862858D01*
X127924570Y-72900916D01*
X127924571Y-72900919D01*
X127953414Y-72944086D01*
X127956082Y-72945869D01*
X127960583Y-72951255D01*
X127962050Y-72952722D01*
X127961918Y-72952853D01*
X128000887Y-72999482D01*
X128009593Y-73068807D01*
X127979437Y-73131834D01*
X127974871Y-73136651D01*
X123847343Y-77264181D01*
X123786020Y-77297666D01*
X123759662Y-77300500D01*
X115964267Y-77300500D01*
X115897228Y-77280815D01*
X115851473Y-77228011D01*
X115841529Y-77158853D01*
X115844489Y-77144419D01*
X115868000Y-77056676D01*
X115868000Y-76943324D01*
X115838662Y-76833833D01*
X115802959Y-76771993D01*
X115781988Y-76735670D01*
X115781984Y-76735665D01*
X115701834Y-76655515D01*
X115701829Y-76655511D01*
X115603669Y-76598839D01*
X115603668Y-76598838D01*
X115603667Y-76598838D01*
X115494176Y-76569500D01*
X115384338Y-76569500D01*
X115317299Y-76549815D01*
X115296657Y-76533181D01*
X114623319Y-75859843D01*
X114589834Y-75798520D01*
X114587000Y-75772162D01*
X114587000Y-73104499D01*
X114606685Y-73037460D01*
X114659489Y-72991705D01*
X114711000Y-72980499D01*
X116040661Y-72980499D01*
X116107700Y-73000184D01*
X116128342Y-73016818D01*
X116323090Y-73211566D01*
X116323091Y-73211568D01*
X116387932Y-73276409D01*
X116430291Y-73293954D01*
X116472651Y-73311501D01*
X116472653Y-73311501D01*
X116578784Y-73311501D01*
X116578792Y-73311500D01*
X123390648Y-73311500D01*
X123390650Y-73311501D01*
X123482350Y-73311501D01*
X123531976Y-73290944D01*
X123567068Y-73276409D01*
X123631909Y-73211568D01*
X123631909Y-73211567D01*
X123649347Y-73194129D01*
X123649349Y-73194126D01*
X123938971Y-72904503D01*
X124000292Y-72871020D01*
X124069984Y-72876004D01*
X124074102Y-72877625D01*
X124231494Y-72942818D01*
X124231499Y-72942820D01*
X124382862Y-72972928D01*
X124420924Y-72980499D01*
X124420927Y-72980500D01*
X124420929Y-72980500D01*
X124614073Y-72980500D01*
X124614074Y-72980499D01*
X124803501Y-72942820D01*
X124981941Y-72868908D01*
X125142532Y-72761604D01*
X125279104Y-72625032D01*
X125386408Y-72464441D01*
X125460320Y-72286001D01*
X125498000Y-72096571D01*
X125498000Y-71903429D01*
X125498000Y-71903426D01*
X125497999Y-71903424D01*
X125471857Y-71772001D01*
X125460320Y-71713999D01*
X125451205Y-71691993D01*
X125386411Y-71535565D01*
X125386404Y-71535552D01*
X125279104Y-71374968D01*
X125279101Y-71374964D01*
X125142535Y-71238398D01*
X125142531Y-71238395D01*
X124981947Y-71131095D01*
X124981934Y-71131088D01*
X124803505Y-71057181D01*
X124803493Y-71057178D01*
X124614074Y-71019500D01*
X124614071Y-71019500D01*
X124420929Y-71019500D01*
X124420926Y-71019500D01*
X124231506Y-71057178D01*
X124231494Y-71057181D01*
X124053065Y-71131088D01*
X124053052Y-71131095D01*
X123892468Y-71238395D01*
X123892464Y-71238398D01*
X123755898Y-71374964D01*
X123755895Y-71374968D01*
X123648595Y-71535552D01*
X123648588Y-71535565D01*
X123574681Y-71713994D01*
X123574678Y-71714006D01*
X123537000Y-71903424D01*
X123537000Y-72096575D01*
X123574678Y-72285993D01*
X123574681Y-72286005D01*
X123639874Y-72443395D01*
X123647343Y-72512864D01*
X123616068Y-72575343D01*
X123612995Y-72578528D01*
X123377341Y-72814182D01*
X123316021Y-72847666D01*
X123289662Y-72850500D01*
X122812999Y-72850500D01*
X122745960Y-72830815D01*
X122700205Y-72778011D01*
X122690261Y-72708853D01*
X122719286Y-72645297D01*
X122725318Y-72638819D01*
X122739101Y-72625035D01*
X122739104Y-72625032D01*
X122846408Y-72464441D01*
X122920320Y-72286001D01*
X122958000Y-72096571D01*
X122958000Y-71903429D01*
X122958000Y-71903426D01*
X122957999Y-71903424D01*
X122931857Y-71772001D01*
X122920320Y-71713999D01*
X122911205Y-71691993D01*
X122846411Y-71535565D01*
X122846404Y-71535552D01*
X122739104Y-71374968D01*
X122739101Y-71374964D01*
X122602535Y-71238398D01*
X122602531Y-71238395D01*
X122441947Y-71131095D01*
X122441934Y-71131088D01*
X122263505Y-71057181D01*
X122263493Y-71057178D01*
X122074074Y-71019500D01*
X122074071Y-71019500D01*
X121880929Y-71019500D01*
X121880926Y-71019500D01*
X121691506Y-71057178D01*
X121691494Y-71057181D01*
X121534103Y-71122374D01*
X121464634Y-71129843D01*
X121402155Y-71098567D01*
X121398970Y-71095494D01*
X121109349Y-70805873D01*
X121091909Y-70788432D01*
X121027068Y-70723591D01*
X121027067Y-70723590D01*
X120991977Y-70709055D01*
X120942352Y-70688499D01*
X120942350Y-70688499D01*
X120850650Y-70688499D01*
X120836216Y-70688499D01*
X120836208Y-70688500D01*
X114402349Y-70688500D01*
X114310651Y-70688500D01*
X114310649Y-70688500D01*
X114310647Y-70688501D01*
X114225937Y-70723588D01*
X114225929Y-70723593D01*
X114161093Y-70788429D01*
X114161088Y-70788437D01*
X114126001Y-70873147D01*
X114126000Y-70873150D01*
X114126000Y-70873151D01*
X114126000Y-75873147D01*
X114125999Y-75873150D01*
X114125999Y-75964850D01*
X114143701Y-76007584D01*
X114161091Y-76049568D01*
X114161093Y-76049570D01*
X114243368Y-76131845D01*
X114243374Y-76131850D01*
X114726724Y-76615200D01*
X114760209Y-76676523D01*
X114755225Y-76746215D01*
X114713353Y-76802148D01*
X114647889Y-76826565D01*
X114579616Y-76811713D01*
X114570153Y-76805984D01*
X114568067Y-76804590D01*
X114532977Y-76790055D01*
X114483352Y-76769499D01*
X114483350Y-76769499D01*
X114391650Y-76769499D01*
X114377216Y-76769499D01*
X114377208Y-76769500D01*
X113867181Y-76769500D01*
X113800142Y-76749815D01*
X113779500Y-76733181D01*
X113701834Y-76655515D01*
X113701829Y-76655511D01*
X113603669Y-76598839D01*
X113603668Y-76598838D01*
X113603667Y-76598838D01*
X113494176Y-76569500D01*
X113380824Y-76569500D01*
X113271333Y-76598838D01*
X113271330Y-76598839D01*
X113173170Y-76655511D01*
X113173165Y-76655515D01*
X113093015Y-76735665D01*
X113093011Y-76735670D01*
X113036339Y-76833830D01*
X113036338Y-76833833D01*
X113007000Y-76943324D01*
X99438000Y-76943324D01*
X99438000Y-71137141D01*
X106457000Y-71137141D01*
X106457000Y-72862850D01*
X106457001Y-72862858D01*
X106463956Y-72897827D01*
X106464571Y-72900919D01*
X106493414Y-72944086D01*
X106536581Y-72972929D01*
X106574645Y-72980500D01*
X108300354Y-72980499D01*
X108338419Y-72972929D01*
X108381586Y-72944086D01*
X108410429Y-72900919D01*
X108418000Y-72862855D01*
X108417999Y-71950447D01*
X108417999Y-71137149D01*
X108417999Y-71137146D01*
X108411040Y-71102155D01*
X110087500Y-71102155D01*
X110087500Y-71750000D01*
X111004488Y-71750000D01*
X110971575Y-71807007D01*
X110937500Y-71934174D01*
X110937500Y-72065826D01*
X110971575Y-72192993D01*
X111004488Y-72250000D01*
X110087500Y-72250000D01*
X110087500Y-72897844D01*
X110093901Y-72957372D01*
X110093903Y-72957379D01*
X110144145Y-73092086D01*
X110144149Y-73092093D01*
X110230309Y-73207187D01*
X110230312Y-73207190D01*
X110345406Y-73293350D01*
X110345413Y-73293354D01*
X110480120Y-73343596D01*
X110480127Y-73343598D01*
X110539655Y-73349999D01*
X110539672Y-73350000D01*
X111187500Y-73350000D01*
X111187500Y-72433012D01*
X111244507Y-72465925D01*
X111371674Y-72500000D01*
X111503326Y-72500000D01*
X111630493Y-72465925D01*
X111687500Y-72433012D01*
X111687500Y-73350000D01*
X112335328Y-73350000D01*
X112335344Y-73349999D01*
X112394872Y-73343598D01*
X112394879Y-73343596D01*
X112529586Y-73293354D01*
X112529593Y-73293350D01*
X112644687Y-73207190D01*
X112644690Y-73207187D01*
X112730850Y-73092093D01*
X112730854Y-73092086D01*
X112781096Y-72957379D01*
X112781098Y-72957372D01*
X112787499Y-72897844D01*
X112787500Y-72897827D01*
X112787500Y-72250000D01*
X111870512Y-72250000D01*
X111903425Y-72192993D01*
X111937500Y-72065826D01*
X111937500Y-71934174D01*
X111903425Y-71807007D01*
X111870512Y-71750000D01*
X112787500Y-71750000D01*
X112787500Y-71102172D01*
X112787499Y-71102155D01*
X112781098Y-71042627D01*
X112781096Y-71042620D01*
X112730854Y-70907913D01*
X112730850Y-70907906D01*
X112644690Y-70792812D01*
X112644687Y-70792809D01*
X112529593Y-70706649D01*
X112529586Y-70706645D01*
X112394879Y-70656403D01*
X112394872Y-70656401D01*
X112335344Y-70650000D01*
X111687500Y-70650000D01*
X111687500Y-71566988D01*
X111630493Y-71534075D01*
X111503326Y-71500000D01*
X111371674Y-71500000D01*
X111244507Y-71534075D01*
X111187500Y-71566988D01*
X111187500Y-70650000D01*
X110539655Y-70650000D01*
X110480127Y-70656401D01*
X110480120Y-70656403D01*
X110345413Y-70706645D01*
X110345406Y-70706649D01*
X110230312Y-70792809D01*
X110230309Y-70792812D01*
X110144149Y-70907906D01*
X110144145Y-70907913D01*
X110093903Y-71042620D01*
X110093901Y-71042627D01*
X110087500Y-71102155D01*
X108411040Y-71102155D01*
X108410429Y-71099081D01*
X108381586Y-71055914D01*
X108338419Y-71027071D01*
X108338418Y-71027070D01*
X108300357Y-71019500D01*
X106574649Y-71019500D01*
X106574641Y-71019501D01*
X106536583Y-71027070D01*
X106536580Y-71027071D01*
X106493414Y-71055914D01*
X106464570Y-71099081D01*
X106457000Y-71137141D01*
X99438000Y-71137141D01*
X99438000Y-69124500D01*
X99457685Y-69057461D01*
X99510489Y-69011706D01*
X99562000Y-69000500D01*
X159813500Y-69000500D01*
X159880539Y-69020185D01*
G37*
%TD.AperFunction*%
%TD*%
M02*
