%TF.GenerationSoftware,KiCad,Pcbnew,9.0.7*%
%TF.CreationDate,2026-06-12T19:57:53+03:00*%
%TF.ProjectId,PCB,5043422e-6b69-4636-9164-5f7063625858,rev?*%
%TF.SameCoordinates,Original*%
%TF.FileFunction,Copper,L3,Inr*%
%TF.FilePolarity,Positive*%
%FSLAX46Y46*%
G04 Gerber Fmt 4.6, Leading zero omitted, Abs format (unit mm)*
G04 Created by KiCad (PCBNEW 9.0.7) date 2026-06-12 19:57:53*
%MOMM*%
%LPD*%
G01*
G04 APERTURE LIST*
%TA.AperFunction,ComponentPad*%
%ADD10R,1.700000X1.700000*%
%TD*%
%TA.AperFunction,ComponentPad*%
%ADD11C,1.700000*%
%TD*%
%TA.AperFunction,ViaPad*%
%ADD12C,0.600000*%
%TD*%
G04 APERTURE END LIST*
D10*
%TO.N,Vusb*%
%TO.C,J2*%
X163843500Y-89266000D03*
D11*
%TO.N,GND*%
X163843500Y-86726000D03*
%TO.N,unconnected-(J2-Pin_3-Pad3)*%
X163843500Y-84186000D03*
%TO.N,SCK*%
X163843500Y-81646000D03*
%TO.N,unconnected-(J2-Pin_5-Pad5)*%
X163843500Y-79106000D03*
%TO.N,unconnected-(J2-Pin_6-Pad6)*%
X163843500Y-76566000D03*
%TO.N,unconnected-(J2-Pin_7-Pad7)*%
X163843500Y-74026000D03*
%TO.N,unconnected-(J2-Pin_8-Pad8)*%
X163843500Y-71486000D03*
%TD*%
D10*
%TO.N,FTS*%
%TO.C,J3*%
X136437500Y-111000000D03*
D11*
%TO.N,NOTCH_IN*%
X133897500Y-111000000D03*
%TO.N,SemnalTestNotch*%
X131357500Y-111000000D03*
%TD*%
D10*
%TO.N,SemnalTestLA*%
%TO.C,J13*%
X138437500Y-72000000D03*
%TD*%
%TO.N,Vref*%
%TO.C,J10*%
X101679700Y-111000000D03*
%TD*%
%TO.N,SemnalTestRA*%
%TO.C,J14*%
X115437500Y-72000000D03*
%TD*%
%TO.N,GND*%
%TO.C,J20*%
X178423500Y-100146000D03*
%TD*%
%TO.N,GND*%
%TO.C,J9*%
X111437500Y-72000000D03*
%TD*%
%TO.N,SemnalTestFTJ*%
%TO.C,J18*%
X151437500Y-111000000D03*
%TD*%
%TO.N,GND*%
%TO.C,J22*%
X106437500Y-111000000D03*
%TD*%
%TO.N,RL*%
%TO.C,J12*%
X107437500Y-72000000D03*
%TD*%
%TO.N,NOTCH*%
%TO.C,J8*%
X141937500Y-111000000D03*
D11*
%TO.N,FTJ_IN*%
X144477500Y-111000000D03*
%TO.N,SemnalTestFTJ*%
X147017500Y-111000000D03*
%TD*%
D10*
%TO.N,GND*%
%TO.C,J21*%
X147437500Y-72000000D03*
%TD*%
%TO.N,OutIna*%
%TO.C,J4*%
X119437500Y-111127101D03*
D11*
%TO.N,FTS_IN*%
X116897500Y-111127101D03*
%TO.N,SemnalTestFts*%
X114357500Y-111127101D03*
%TD*%
D10*
%TO.N,OutIna*%
%TO.C,J7*%
X142437500Y-72000000D03*
%TD*%
%TO.N,GND*%
%TO.C,J24*%
X157437500Y-111000000D03*
%TD*%
%TO.N,Vcc*%
%TO.C,J11*%
X178423500Y-95326000D03*
%TD*%
%TO.N,MISO*%
%TO.C,J15*%
X179043500Y-89186000D03*
D11*
%TO.N,MOSI*%
X179043500Y-86646000D03*
%TO.N,CS*%
X179043500Y-84106000D03*
%TO.N,unconnected-(J15-Pin_4-Pad4)*%
X179043500Y-81566000D03*
%TO.N,unconnected-(J15-Pin_5-Pad5)*%
X179043500Y-79026000D03*
%TO.N,unconnected-(J15-Pin_6-Pad6)*%
X179043500Y-76486000D03*
%TO.N,unconnected-(J15-Pin_7-Pad7)*%
X179043500Y-73946000D03*
%TO.N,unconnected-(J15-Pin_8-Pad8)*%
X179043500Y-71406000D03*
%TD*%
D10*
%TO.N,SemnalTestFts*%
%TO.C,J16*%
X110437500Y-111000000D03*
%TD*%
%TO.N,RAF*%
%TO.C,J6*%
X119437500Y-72000000D03*
D11*
%TO.N,INAR_IN*%
X121977500Y-72000000D03*
%TO.N,SemnalTestRA*%
X124517500Y-72000000D03*
%TD*%
D10*
%TO.N,FTJ*%
%TO.C,J19*%
X151937500Y-72000000D03*
%TD*%
%TO.N,LAF*%
%TO.C,J5*%
X128897500Y-72000000D03*
D11*
%TO.N,INAL_IN*%
X131437500Y-72000000D03*
%TO.N,SemnalTestLA*%
X133977500Y-72000000D03*
%TD*%
D10*
%TO.N,SemnalTestNotch*%
%TO.C,J17*%
X127437500Y-111000000D03*
%TD*%
D12*
%TO.N,Vcc*%
X134437500Y-78000000D03*
X135437500Y-86000000D03*
X100437500Y-96000000D03*
X154937500Y-85500000D03*
X151437500Y-87000000D03*
X157937500Y-83000000D03*
X174923500Y-97826000D03*
X146239755Y-98778566D03*
%TO.N,1V65*%
X104143500Y-95219600D03*
%TO.N,FTS*%
X114452389Y-95651075D03*
%TO.N,Net-(C7-Pad1)*%
X117718750Y-99718750D03*
%TO.N,Net-(U3-+IND)*%
X118218750Y-97218750D03*
%TO.N,Net-(U3-+INC)*%
X115141092Y-94895000D03*
X114487560Y-96965318D03*
X115107500Y-98834305D03*
%TO.N,Net-(U6-+INA)*%
X149937500Y-97000000D03*
X156610594Y-93462004D03*
X155273981Y-93805000D03*
X149320055Y-98117445D03*
%TO.N,Net-(U6-+IND)*%
X134937500Y-96000000D03*
X140937500Y-97000000D03*
X137107503Y-96998759D03*
%TO.N,Vref*%
X120668500Y-99469000D03*
X136437500Y-85000000D03*
X155937500Y-78500000D03*
X110437500Y-100000000D03*
X133798700Y-82160112D03*
X109524538Y-96920799D03*
X150937500Y-104000000D03*
%TO.N,Net-(D2-A)*%
X131437500Y-85000000D03*
%TO.N,Net-(D4-A)*%
X130013500Y-77680992D03*
%TO.N,Net-(U4-REGCAPA)*%
X154677461Y-83103183D03*
%TO.N,Net-(U4-REGCAPD)*%
X156437500Y-83500000D03*
%TO.N,Net-(U6--IND)*%
X137937500Y-91000000D03*
%TO.N,Net-(U6--INC)*%
X144437500Y-94000000D03*
%TO.N,LAF*%
X128437500Y-70389000D03*
%TO.N,Net-(U3-OUTB)*%
X104143500Y-104219600D03*
%TO.N,VCM_IN*%
X104143500Y-101219600D03*
%TO.N,INAL_IN*%
X113437500Y-77000000D03*
%TO.N,INAR_IN*%
X115437500Y-77000000D03*
%TO.N,MISO*%
X162437500Y-88555000D03*
X165437500Y-89000000D03*
%TO.N,GND*%
X152437500Y-82470000D03*
X169437500Y-102500000D03*
X160937500Y-82000000D03*
X132437500Y-83500000D03*
X123437500Y-81000000D03*
X144437500Y-96000000D03*
X131437500Y-79729999D03*
X123437500Y-74500000D03*
X166437500Y-86000000D03*
X157437500Y-86000000D03*
X134937500Y-81000000D03*
X111437500Y-96500000D03*
%TD*%
%TA.AperFunction,Conductor*%
%TO.N,Vcc*%
G36*
X159880539Y-69020185D02*
G01*
X159926294Y-69072989D01*
X159937500Y-69124500D01*
X159937500Y-70500000D01*
X163145527Y-70500000D01*
X163212566Y-70519685D01*
X163258321Y-70572489D01*
X163268265Y-70641647D01*
X163239240Y-70705203D01*
X163222624Y-70719860D01*
X163223176Y-70720532D01*
X163218464Y-70724398D01*
X163081898Y-70860964D01*
X163081895Y-70860968D01*
X162974595Y-71021552D01*
X162974588Y-71021565D01*
X162900681Y-71199994D01*
X162900678Y-71200006D01*
X162863000Y-71389424D01*
X162863000Y-71582575D01*
X162900678Y-71771993D01*
X162900681Y-71772005D01*
X162974588Y-71950434D01*
X162974595Y-71950447D01*
X163081895Y-72111031D01*
X163081898Y-72111035D01*
X163218464Y-72247601D01*
X163218468Y-72247604D01*
X163379052Y-72354904D01*
X163379065Y-72354911D01*
X163557494Y-72428818D01*
X163557499Y-72428820D01*
X163736543Y-72464434D01*
X163746924Y-72466499D01*
X163746927Y-72466500D01*
X163746929Y-72466500D01*
X163940073Y-72466500D01*
X163940074Y-72466499D01*
X164129501Y-72428820D01*
X164307941Y-72354908D01*
X164468532Y-72247604D01*
X164605104Y-72111032D01*
X164712408Y-71950441D01*
X164786320Y-71772001D01*
X164824000Y-71582571D01*
X164824000Y-71389429D01*
X164824000Y-71389426D01*
X164823999Y-71389424D01*
X164786320Y-71199999D01*
X164760285Y-71137145D01*
X164712411Y-71021565D01*
X164712404Y-71021552D01*
X164605104Y-70860968D01*
X164605101Y-70860964D01*
X164468535Y-70724398D01*
X164463824Y-70720532D01*
X164465444Y-70718557D01*
X164427784Y-70673506D01*
X164419067Y-70604182D01*
X164449213Y-70541150D01*
X164508651Y-70504423D01*
X164541473Y-70500000D01*
X178263501Y-70500000D01*
X178330540Y-70519685D01*
X178376295Y-70572489D01*
X178386239Y-70641647D01*
X178357214Y-70705203D01*
X178351182Y-70711681D01*
X178281898Y-70780964D01*
X178281895Y-70780968D01*
X178174595Y-70941552D01*
X178174588Y-70941565D01*
X178100681Y-71119994D01*
X178100678Y-71120006D01*
X178063000Y-71309424D01*
X178063000Y-71502575D01*
X178100678Y-71691993D01*
X178100681Y-71692005D01*
X178174588Y-71870434D01*
X178174595Y-71870447D01*
X178281895Y-72031031D01*
X178281898Y-72031035D01*
X178418464Y-72167601D01*
X178418468Y-72167604D01*
X178579052Y-72274904D01*
X178579065Y-72274911D01*
X178757494Y-72348818D01*
X178757499Y-72348820D01*
X178946924Y-72386499D01*
X178946927Y-72386500D01*
X178946929Y-72386500D01*
X179140073Y-72386500D01*
X179140074Y-72386499D01*
X179329501Y-72348820D01*
X179507941Y-72274908D01*
X179668532Y-72167604D01*
X179805104Y-72031032D01*
X179912408Y-71870441D01*
X179986320Y-71692001D01*
X180024000Y-71502571D01*
X180024000Y-71309429D01*
X180024000Y-71309426D01*
X180023999Y-71309424D01*
X180009871Y-71238398D01*
X179986320Y-71119999D01*
X179947828Y-71027070D01*
X179912411Y-70941565D01*
X179912404Y-70941552D01*
X179805104Y-70780968D01*
X179805101Y-70780964D01*
X179735818Y-70711681D01*
X179702333Y-70650358D01*
X179707317Y-70580666D01*
X179749189Y-70524733D01*
X179814653Y-70500316D01*
X179823499Y-70500000D01*
X181313000Y-70500000D01*
X181380039Y-70519685D01*
X181425794Y-70572489D01*
X181437000Y-70624000D01*
X181437000Y-113375500D01*
X181417315Y-113442539D01*
X181364511Y-113488294D01*
X181313000Y-113499500D01*
X99562000Y-113499500D01*
X99494961Y-113479815D01*
X99449206Y-113427011D01*
X99438000Y-113375500D01*
X99438000Y-110137141D01*
X100699200Y-110137141D01*
X100699200Y-111862850D01*
X100699201Y-111862858D01*
X100706770Y-111900916D01*
X100706771Y-111900919D01*
X100735614Y-111944086D01*
X100778781Y-111972929D01*
X100816845Y-111980500D01*
X102542554Y-111980499D01*
X102580619Y-111972929D01*
X102623786Y-111944086D01*
X102652629Y-111900919D01*
X102660200Y-111862855D01*
X102660199Y-110137146D01*
X102660198Y-110137141D01*
X105457000Y-110137141D01*
X105457000Y-111862850D01*
X105457001Y-111862858D01*
X105464570Y-111900916D01*
X105464571Y-111900919D01*
X105493414Y-111944086D01*
X105536581Y-111972929D01*
X105574645Y-111980500D01*
X107300354Y-111980499D01*
X107338419Y-111972929D01*
X107381586Y-111944086D01*
X107410429Y-111900919D01*
X107418000Y-111862855D01*
X107417999Y-110137146D01*
X107417998Y-110137141D01*
X109457000Y-110137141D01*
X109457000Y-111862850D01*
X109457001Y-111862858D01*
X109464570Y-111900916D01*
X109464571Y-111900919D01*
X109493414Y-111944086D01*
X109536581Y-111972929D01*
X109574645Y-111980500D01*
X111300354Y-111980499D01*
X111338419Y-111972929D01*
X111381586Y-111944086D01*
X111410429Y-111900919D01*
X111418000Y-111862855D01*
X111417999Y-111030525D01*
X113377000Y-111030525D01*
X113377000Y-111223676D01*
X113414678Y-111413094D01*
X113414681Y-111413106D01*
X113488588Y-111591535D01*
X113488595Y-111591548D01*
X113595895Y-111752132D01*
X113595898Y-111752136D01*
X113732464Y-111888702D01*
X113732468Y-111888705D01*
X113893052Y-111996005D01*
X113893065Y-111996012D01*
X114071494Y-112069919D01*
X114071499Y-112069921D01*
X114222862Y-112100029D01*
X114260924Y-112107600D01*
X114260927Y-112107601D01*
X114260929Y-112107601D01*
X114454073Y-112107601D01*
X114454074Y-112107600D01*
X114643501Y-112069921D01*
X114821941Y-111996009D01*
X114982532Y-111888705D01*
X115119104Y-111752133D01*
X115226408Y-111591542D01*
X115300320Y-111413102D01*
X115338000Y-111223672D01*
X115338000Y-111030530D01*
X115338000Y-111030527D01*
X115337999Y-111030525D01*
X115917000Y-111030525D01*
X115917000Y-111223676D01*
X115954678Y-111413094D01*
X115954681Y-111413106D01*
X116028588Y-111591535D01*
X116028595Y-111591548D01*
X116135895Y-111752132D01*
X116135898Y-111752136D01*
X116272464Y-111888702D01*
X116272468Y-111888705D01*
X116433052Y-111996005D01*
X116433065Y-111996012D01*
X116611494Y-112069919D01*
X116611499Y-112069921D01*
X116762862Y-112100029D01*
X116800924Y-112107600D01*
X116800927Y-112107601D01*
X116800929Y-112107601D01*
X116994073Y-112107601D01*
X116994074Y-112107600D01*
X117183501Y-112069921D01*
X117361941Y-111996009D01*
X117522532Y-111888705D01*
X117659104Y-111752133D01*
X117766408Y-111591542D01*
X117840320Y-111413102D01*
X117878000Y-111223672D01*
X117878000Y-111030530D01*
X117878000Y-111030527D01*
X117877999Y-111030525D01*
X117840321Y-110841107D01*
X117840320Y-110841100D01*
X117840318Y-110841095D01*
X117766411Y-110662666D01*
X117766404Y-110662653D01*
X117659104Y-110502069D01*
X117659101Y-110502065D01*
X117522535Y-110365499D01*
X117522531Y-110365496D01*
X117516187Y-110361257D01*
X117370995Y-110264242D01*
X118457000Y-110264242D01*
X118457000Y-111989951D01*
X118457001Y-111989959D01*
X118464570Y-112028017D01*
X118464571Y-112028020D01*
X118493414Y-112071187D01*
X118536581Y-112100030D01*
X118574645Y-112107601D01*
X120300354Y-112107600D01*
X120338419Y-112100030D01*
X120381586Y-112071187D01*
X120410429Y-112028020D01*
X120418000Y-111989956D01*
X120417999Y-110264247D01*
X120410429Y-110226182D01*
X120381586Y-110183015D01*
X120338419Y-110154172D01*
X120338418Y-110154171D01*
X120300357Y-110146601D01*
X118574649Y-110146601D01*
X118574641Y-110146602D01*
X118536583Y-110154171D01*
X118536580Y-110154172D01*
X118493414Y-110183015D01*
X118464570Y-110226182D01*
X118457000Y-110264242D01*
X117370995Y-110264242D01*
X117361947Y-110258196D01*
X117361934Y-110258189D01*
X117183505Y-110184282D01*
X117183493Y-110184279D01*
X116994074Y-110146601D01*
X116994071Y-110146601D01*
X116800929Y-110146601D01*
X116800926Y-110146601D01*
X116611506Y-110184279D01*
X116611494Y-110184282D01*
X116433065Y-110258189D01*
X116433052Y-110258196D01*
X116272468Y-110365496D01*
X116272464Y-110365499D01*
X116135898Y-110502065D01*
X116135895Y-110502069D01*
X116028595Y-110662653D01*
X116028588Y-110662666D01*
X115954681Y-110841095D01*
X115954678Y-110841107D01*
X115917000Y-111030525D01*
X115337999Y-111030525D01*
X115300321Y-110841107D01*
X115300320Y-110841100D01*
X115300318Y-110841095D01*
X115226411Y-110662666D01*
X115226404Y-110662653D01*
X115119104Y-110502069D01*
X115119101Y-110502065D01*
X114982535Y-110365499D01*
X114982531Y-110365496D01*
X114821947Y-110258196D01*
X114821934Y-110258189D01*
X114643505Y-110184282D01*
X114643493Y-110184279D01*
X114454074Y-110146601D01*
X114454071Y-110146601D01*
X114260929Y-110146601D01*
X114260926Y-110146601D01*
X114071506Y-110184279D01*
X114071494Y-110184282D01*
X113893065Y-110258189D01*
X113893052Y-110258196D01*
X113732468Y-110365496D01*
X113732464Y-110365499D01*
X113595898Y-110502065D01*
X113595895Y-110502069D01*
X113488595Y-110662653D01*
X113488588Y-110662666D01*
X113414681Y-110841095D01*
X113414678Y-110841107D01*
X113377000Y-111030525D01*
X111417999Y-111030525D01*
X111417999Y-110903429D01*
X111417999Y-110137149D01*
X111417998Y-110137141D01*
X126457000Y-110137141D01*
X126457000Y-111862850D01*
X126457001Y-111862858D01*
X126464570Y-111900916D01*
X126464571Y-111900919D01*
X126493414Y-111944086D01*
X126536581Y-111972929D01*
X126574645Y-111980500D01*
X128300354Y-111980499D01*
X128338419Y-111972929D01*
X128381586Y-111944086D01*
X128410429Y-111900919D01*
X128418000Y-111862855D01*
X128417999Y-110903424D01*
X130377000Y-110903424D01*
X130377000Y-111096575D01*
X130414678Y-111285993D01*
X130414681Y-111286005D01*
X130488588Y-111464434D01*
X130488595Y-111464447D01*
X130595895Y-111625031D01*
X130595898Y-111625035D01*
X130732464Y-111761601D01*
X130732468Y-111761604D01*
X130893052Y-111868904D01*
X130893065Y-111868911D01*
X131071494Y-111942818D01*
X131071499Y-111942820D01*
X131222862Y-111972928D01*
X131260924Y-111980499D01*
X131260927Y-111980500D01*
X131260929Y-111980500D01*
X131454073Y-111980500D01*
X131454074Y-111980499D01*
X131643501Y-111942820D01*
X131821941Y-111868908D01*
X131982532Y-111761604D01*
X132119104Y-111625032D01*
X132226408Y-111464441D01*
X132300320Y-111286001D01*
X132338000Y-111096571D01*
X132338000Y-110903429D01*
X132338000Y-110903426D01*
X132337999Y-110903424D01*
X132917000Y-110903424D01*
X132917000Y-111096575D01*
X132954678Y-111285993D01*
X132954681Y-111286005D01*
X133028588Y-111464434D01*
X133028595Y-111464447D01*
X133135895Y-111625031D01*
X133135898Y-111625035D01*
X133272464Y-111761601D01*
X133272468Y-111761604D01*
X133433052Y-111868904D01*
X133433065Y-111868911D01*
X133611494Y-111942818D01*
X133611499Y-111942820D01*
X133762862Y-111972928D01*
X133800924Y-111980499D01*
X133800927Y-111980500D01*
X133800929Y-111980500D01*
X133994073Y-111980500D01*
X133994074Y-111980499D01*
X134183501Y-111942820D01*
X134361941Y-111868908D01*
X134522532Y-111761604D01*
X134659104Y-111625032D01*
X134766408Y-111464441D01*
X134840320Y-111286001D01*
X134878000Y-111096571D01*
X134878000Y-110903429D01*
X134878000Y-110903426D01*
X134877999Y-110903424D01*
X134840321Y-110714006D01*
X134840320Y-110713999D01*
X134819052Y-110662653D01*
X134766411Y-110535565D01*
X134766404Y-110535552D01*
X134659104Y-110374968D01*
X134659101Y-110374964D01*
X134522535Y-110238398D01*
X134522531Y-110238395D01*
X134516187Y-110234156D01*
X134370995Y-110137141D01*
X135457000Y-110137141D01*
X135457000Y-111862850D01*
X135457001Y-111862858D01*
X135464570Y-111900916D01*
X135464571Y-111900919D01*
X135493414Y-111944086D01*
X135536581Y-111972929D01*
X135574645Y-111980500D01*
X137300354Y-111980499D01*
X137338419Y-111972929D01*
X137381586Y-111944086D01*
X137410429Y-111900919D01*
X137418000Y-111862855D01*
X137417999Y-110137146D01*
X137417998Y-110137141D01*
X140957000Y-110137141D01*
X140957000Y-111862850D01*
X140957001Y-111862858D01*
X140964570Y-111900916D01*
X140964571Y-111900919D01*
X140993414Y-111944086D01*
X141036581Y-111972929D01*
X141074645Y-111980500D01*
X142800354Y-111980499D01*
X142838419Y-111972929D01*
X142881586Y-111944086D01*
X142910429Y-111900919D01*
X142918000Y-111862855D01*
X142917999Y-110903424D01*
X143497000Y-110903424D01*
X143497000Y-111096575D01*
X143534678Y-111285993D01*
X143534681Y-111286005D01*
X143608588Y-111464434D01*
X143608595Y-111464447D01*
X143715895Y-111625031D01*
X143715898Y-111625035D01*
X143852464Y-111761601D01*
X143852468Y-111761604D01*
X144013052Y-111868904D01*
X144013065Y-111868911D01*
X144191494Y-111942818D01*
X144191499Y-111942820D01*
X144342862Y-111972928D01*
X144380924Y-111980499D01*
X144380927Y-111980500D01*
X144380929Y-111980500D01*
X144574073Y-111980500D01*
X144574074Y-111980499D01*
X144763501Y-111942820D01*
X144941941Y-111868908D01*
X145102532Y-111761604D01*
X145239104Y-111625032D01*
X145346408Y-111464441D01*
X145420320Y-111286001D01*
X145458000Y-111096571D01*
X145458000Y-110903429D01*
X145458000Y-110903426D01*
X145457999Y-110903424D01*
X146037000Y-110903424D01*
X146037000Y-111096575D01*
X146074678Y-111285993D01*
X146074681Y-111286005D01*
X146148588Y-111464434D01*
X146148595Y-111464447D01*
X146255895Y-111625031D01*
X146255898Y-111625035D01*
X146392464Y-111761601D01*
X146392468Y-111761604D01*
X146553052Y-111868904D01*
X146553065Y-111868911D01*
X146731494Y-111942818D01*
X146731499Y-111942820D01*
X146882862Y-111972928D01*
X146920924Y-111980499D01*
X146920927Y-111980500D01*
X146920929Y-111980500D01*
X147114073Y-111980500D01*
X147114074Y-111980499D01*
X147303501Y-111942820D01*
X147481941Y-111868908D01*
X147642532Y-111761604D01*
X147779104Y-111625032D01*
X147886408Y-111464441D01*
X147960320Y-111286001D01*
X147998000Y-111096571D01*
X147998000Y-110903429D01*
X147998000Y-110903426D01*
X147997999Y-110903424D01*
X147960321Y-110714006D01*
X147960320Y-110713999D01*
X147939052Y-110662653D01*
X147886411Y-110535565D01*
X147886404Y-110535552D01*
X147779104Y-110374968D01*
X147779101Y-110374964D01*
X147642535Y-110238398D01*
X147642531Y-110238395D01*
X147636187Y-110234156D01*
X147490995Y-110137141D01*
X150457000Y-110137141D01*
X150457000Y-111862850D01*
X150457001Y-111862858D01*
X150464570Y-111900916D01*
X150464571Y-111900919D01*
X150493414Y-111944086D01*
X150536581Y-111972929D01*
X150574645Y-111980500D01*
X152300354Y-111980499D01*
X152338419Y-111972929D01*
X152381586Y-111944086D01*
X152410429Y-111900919D01*
X152418000Y-111862855D01*
X152417999Y-110137146D01*
X152417998Y-110137141D01*
X156457000Y-110137141D01*
X156457000Y-111862850D01*
X156457001Y-111862858D01*
X156464570Y-111900916D01*
X156464571Y-111900919D01*
X156493414Y-111944086D01*
X156536581Y-111972929D01*
X156574645Y-111980500D01*
X158300354Y-111980499D01*
X158338419Y-111972929D01*
X158381586Y-111944086D01*
X158410429Y-111900919D01*
X158418000Y-111862855D01*
X158417999Y-110137146D01*
X158410429Y-110099081D01*
X158381586Y-110055914D01*
X158338419Y-110027071D01*
X158338418Y-110027070D01*
X158300357Y-110019500D01*
X156574649Y-110019500D01*
X156574641Y-110019501D01*
X156536583Y-110027070D01*
X156536580Y-110027071D01*
X156493414Y-110055914D01*
X156464570Y-110099081D01*
X156457000Y-110137141D01*
X152417998Y-110137141D01*
X152410429Y-110099081D01*
X152381586Y-110055914D01*
X152338419Y-110027071D01*
X152338418Y-110027070D01*
X152300357Y-110019500D01*
X150574649Y-110019500D01*
X150574641Y-110019501D01*
X150536583Y-110027070D01*
X150536580Y-110027071D01*
X150493414Y-110055914D01*
X150464570Y-110099081D01*
X150457000Y-110137141D01*
X147490995Y-110137141D01*
X147481947Y-110131095D01*
X147481934Y-110131088D01*
X147303505Y-110057181D01*
X147303493Y-110057178D01*
X147114074Y-110019500D01*
X147114071Y-110019500D01*
X146920929Y-110019500D01*
X146920926Y-110019500D01*
X146731506Y-110057178D01*
X146731494Y-110057181D01*
X146553065Y-110131088D01*
X146553052Y-110131095D01*
X146392468Y-110238395D01*
X146392464Y-110238398D01*
X146255898Y-110374964D01*
X146255895Y-110374968D01*
X146148595Y-110535552D01*
X146148588Y-110535565D01*
X146074681Y-110713994D01*
X146074678Y-110714006D01*
X146037000Y-110903424D01*
X145457999Y-110903424D01*
X145420321Y-110714006D01*
X145420320Y-110713999D01*
X145399052Y-110662653D01*
X145346411Y-110535565D01*
X145346404Y-110535552D01*
X145239104Y-110374968D01*
X145239101Y-110374964D01*
X145102535Y-110238398D01*
X145102531Y-110238395D01*
X144941947Y-110131095D01*
X144941934Y-110131088D01*
X144763505Y-110057181D01*
X144763493Y-110057178D01*
X144574074Y-110019500D01*
X144574071Y-110019500D01*
X144380929Y-110019500D01*
X144380926Y-110019500D01*
X144191506Y-110057178D01*
X144191494Y-110057181D01*
X144013065Y-110131088D01*
X144013052Y-110131095D01*
X143852468Y-110238395D01*
X143852464Y-110238398D01*
X143715898Y-110374964D01*
X143715895Y-110374968D01*
X143608595Y-110535552D01*
X143608588Y-110535565D01*
X143534681Y-110713994D01*
X143534678Y-110714006D01*
X143497000Y-110903424D01*
X142917999Y-110903424D01*
X142917999Y-110137146D01*
X142910429Y-110099081D01*
X142881586Y-110055914D01*
X142838419Y-110027071D01*
X142838418Y-110027070D01*
X142800357Y-110019500D01*
X141074649Y-110019500D01*
X141074641Y-110019501D01*
X141036583Y-110027070D01*
X141036580Y-110027071D01*
X140993414Y-110055914D01*
X140964570Y-110099081D01*
X140957000Y-110137141D01*
X137417998Y-110137141D01*
X137410429Y-110099081D01*
X137381586Y-110055914D01*
X137338419Y-110027071D01*
X137338418Y-110027070D01*
X137300357Y-110019500D01*
X135574649Y-110019500D01*
X135574641Y-110019501D01*
X135536583Y-110027070D01*
X135536580Y-110027071D01*
X135493414Y-110055914D01*
X135464570Y-110099081D01*
X135457000Y-110137141D01*
X134370995Y-110137141D01*
X134361947Y-110131095D01*
X134361934Y-110131088D01*
X134183505Y-110057181D01*
X134183493Y-110057178D01*
X133994074Y-110019500D01*
X133994071Y-110019500D01*
X133800929Y-110019500D01*
X133800926Y-110019500D01*
X133611506Y-110057178D01*
X133611494Y-110057181D01*
X133433065Y-110131088D01*
X133433052Y-110131095D01*
X133272468Y-110238395D01*
X133272464Y-110238398D01*
X133135898Y-110374964D01*
X133135895Y-110374968D01*
X133028595Y-110535552D01*
X133028588Y-110535565D01*
X132954681Y-110713994D01*
X132954678Y-110714006D01*
X132917000Y-110903424D01*
X132337999Y-110903424D01*
X132300321Y-110714006D01*
X132300320Y-110713999D01*
X132279052Y-110662653D01*
X132226411Y-110535565D01*
X132226404Y-110535552D01*
X132119104Y-110374968D01*
X132119101Y-110374964D01*
X131982535Y-110238398D01*
X131982531Y-110238395D01*
X131821947Y-110131095D01*
X131821934Y-110131088D01*
X131643505Y-110057181D01*
X131643493Y-110057178D01*
X131454074Y-110019500D01*
X131454071Y-110019500D01*
X131260929Y-110019500D01*
X131260926Y-110019500D01*
X131071506Y-110057178D01*
X131071494Y-110057181D01*
X130893065Y-110131088D01*
X130893052Y-110131095D01*
X130732468Y-110238395D01*
X130732464Y-110238398D01*
X130595898Y-110374964D01*
X130595895Y-110374968D01*
X130488595Y-110535552D01*
X130488588Y-110535565D01*
X130414681Y-110713994D01*
X130414678Y-110714006D01*
X130377000Y-110903424D01*
X128417999Y-110903424D01*
X128417999Y-110137146D01*
X128410429Y-110099081D01*
X128381586Y-110055914D01*
X128338419Y-110027071D01*
X128338418Y-110027070D01*
X128300357Y-110019500D01*
X126574649Y-110019500D01*
X126574641Y-110019501D01*
X126536583Y-110027070D01*
X126536580Y-110027071D01*
X126493414Y-110055914D01*
X126464570Y-110099081D01*
X126457000Y-110137141D01*
X111417998Y-110137141D01*
X111410429Y-110099083D01*
X111410429Y-110099081D01*
X111381586Y-110055914D01*
X111338419Y-110027071D01*
X111338418Y-110027070D01*
X111300357Y-110019500D01*
X109574649Y-110019500D01*
X109574641Y-110019501D01*
X109536583Y-110027070D01*
X109536580Y-110027071D01*
X109493414Y-110055914D01*
X109464570Y-110099081D01*
X109457000Y-110137141D01*
X107417998Y-110137141D01*
X107410429Y-110099081D01*
X107381586Y-110055914D01*
X107338419Y-110027071D01*
X107338418Y-110027070D01*
X107300357Y-110019500D01*
X105574649Y-110019500D01*
X105574641Y-110019501D01*
X105536583Y-110027070D01*
X105536580Y-110027071D01*
X105493414Y-110055914D01*
X105464570Y-110099081D01*
X105457000Y-110137141D01*
X102660198Y-110137141D01*
X102652629Y-110099081D01*
X102623786Y-110055914D01*
X102580619Y-110027071D01*
X102580618Y-110027070D01*
X102542557Y-110019500D01*
X100816849Y-110019500D01*
X100816841Y-110019501D01*
X100778783Y-110027070D01*
X100778780Y-110027071D01*
X100735614Y-110055914D01*
X100706770Y-110099081D01*
X100699200Y-110137141D01*
X99438000Y-110137141D01*
X99438000Y-104162924D01*
X103713000Y-104162924D01*
X103713000Y-104276276D01*
X103731278Y-104344488D01*
X103742338Y-104385766D01*
X103742339Y-104385769D01*
X103799011Y-104483929D01*
X103799013Y-104483932D01*
X103799014Y-104483933D01*
X103879167Y-104564086D01*
X103977333Y-104620762D01*
X104086824Y-104650100D01*
X104086826Y-104650100D01*
X104200174Y-104650100D01*
X104200176Y-104650100D01*
X104309667Y-104620762D01*
X104407833Y-104564086D01*
X104487986Y-104483933D01*
X104544662Y-104385767D01*
X104574000Y-104276276D01*
X104574000Y-104162924D01*
X104544662Y-104053433D01*
X104487986Y-103955267D01*
X104476043Y-103943324D01*
X150507000Y-103943324D01*
X150507000Y-104056675D01*
X150536338Y-104166166D01*
X150536339Y-104166169D01*
X150593011Y-104264329D01*
X150593013Y-104264332D01*
X150593014Y-104264333D01*
X150673167Y-104344486D01*
X150771333Y-104401162D01*
X150880824Y-104430500D01*
X150880826Y-104430500D01*
X150994174Y-104430500D01*
X150994176Y-104430500D01*
X151103667Y-104401162D01*
X151201833Y-104344486D01*
X151281986Y-104264333D01*
X151338662Y-104166167D01*
X151368000Y-104056676D01*
X151368000Y-103943324D01*
X151338662Y-103833833D01*
X151281986Y-103735667D01*
X151201833Y-103655514D01*
X151201832Y-103655513D01*
X151201829Y-103655511D01*
X151103669Y-103598839D01*
X151103668Y-103598838D01*
X151103667Y-103598838D01*
X150994176Y-103569500D01*
X150880824Y-103569500D01*
X150771333Y-103598838D01*
X150771330Y-103598839D01*
X150673170Y-103655511D01*
X150673165Y-103655515D01*
X150593015Y-103735665D01*
X150593011Y-103735670D01*
X150536339Y-103833830D01*
X150536338Y-103833833D01*
X150507000Y-103943324D01*
X104476043Y-103943324D01*
X104407833Y-103875114D01*
X104407832Y-103875113D01*
X104407829Y-103875111D01*
X104309669Y-103818439D01*
X104309668Y-103818438D01*
X104309667Y-103818438D01*
X104200176Y-103789100D01*
X104086824Y-103789100D01*
X103977333Y-103818438D01*
X103977330Y-103818439D01*
X103879170Y-103875111D01*
X103879165Y-103875115D01*
X103799015Y-103955265D01*
X103799011Y-103955270D01*
X103742339Y-104053430D01*
X103742338Y-104053433D01*
X103713000Y-104162924D01*
X99438000Y-104162924D01*
X99438000Y-102443324D01*
X169007000Y-102443324D01*
X169007000Y-102556675D01*
X169036338Y-102666166D01*
X169036339Y-102666169D01*
X169093011Y-102764329D01*
X169093013Y-102764332D01*
X169093014Y-102764333D01*
X169173167Y-102844486D01*
X169271333Y-102901162D01*
X169380824Y-102930500D01*
X169380826Y-102930500D01*
X169494174Y-102930500D01*
X169494176Y-102930500D01*
X169603667Y-102901162D01*
X169701833Y-102844486D01*
X169781986Y-102764333D01*
X169838662Y-102666167D01*
X169868000Y-102556676D01*
X169868000Y-102443324D01*
X169838662Y-102333833D01*
X169781986Y-102235667D01*
X169701833Y-102155514D01*
X169701832Y-102155513D01*
X169701829Y-102155511D01*
X169603669Y-102098839D01*
X169603668Y-102098838D01*
X169603667Y-102098838D01*
X169494176Y-102069500D01*
X169380824Y-102069500D01*
X169271333Y-102098838D01*
X169271330Y-102098839D01*
X169173170Y-102155511D01*
X169173165Y-102155515D01*
X169093015Y-102235665D01*
X169093011Y-102235670D01*
X169036339Y-102333830D01*
X169036338Y-102333833D01*
X169007000Y-102443324D01*
X99438000Y-102443324D01*
X99438000Y-101162924D01*
X103713000Y-101162924D01*
X103713000Y-101276275D01*
X103742338Y-101385766D01*
X103742339Y-101385769D01*
X103799011Y-101483929D01*
X103799013Y-101483932D01*
X103799014Y-101483933D01*
X103879167Y-101564086D01*
X103977333Y-101620762D01*
X104086824Y-101650100D01*
X104086826Y-101650100D01*
X104200174Y-101650100D01*
X104200176Y-101650100D01*
X104309667Y-101620762D01*
X104407833Y-101564086D01*
X104487986Y-101483933D01*
X104544662Y-101385767D01*
X104574000Y-101276276D01*
X104574000Y-101162924D01*
X104544662Y-101053433D01*
X104487986Y-100955267D01*
X104407833Y-100875114D01*
X104407832Y-100875113D01*
X104407829Y-100875111D01*
X104309669Y-100818439D01*
X104309668Y-100818438D01*
X104309667Y-100818438D01*
X104200176Y-100789100D01*
X104086824Y-100789100D01*
X103977333Y-100818438D01*
X103977330Y-100818439D01*
X103879170Y-100875111D01*
X103879165Y-100875115D01*
X103799015Y-100955265D01*
X103799011Y-100955270D01*
X103742339Y-101053430D01*
X103742338Y-101053433D01*
X103713000Y-101162924D01*
X99438000Y-101162924D01*
X99438000Y-99943324D01*
X110007000Y-99943324D01*
X110007000Y-100056676D01*
X110023944Y-100119910D01*
X110036338Y-100166166D01*
X110036339Y-100166169D01*
X110093011Y-100264329D01*
X110093013Y-100264332D01*
X110093014Y-100264333D01*
X110173167Y-100344486D01*
X110271333Y-100401162D01*
X110380824Y-100430500D01*
X110380826Y-100430500D01*
X110494174Y-100430500D01*
X110494176Y-100430500D01*
X110603667Y-100401162D01*
X110701833Y-100344486D01*
X110781986Y-100264333D01*
X110838662Y-100166167D01*
X110868000Y-100056676D01*
X110868000Y-99943324D01*
X110838662Y-99833833D01*
X110781986Y-99735667D01*
X110708393Y-99662074D01*
X117288250Y-99662074D01*
X117288250Y-99775426D01*
X117313635Y-99870162D01*
X117317588Y-99884916D01*
X117317589Y-99884919D01*
X117374261Y-99983079D01*
X117374263Y-99983082D01*
X117374264Y-99983083D01*
X117454417Y-100063236D01*
X117552583Y-100119912D01*
X117662074Y-100149250D01*
X117662076Y-100149250D01*
X117775424Y-100149250D01*
X117775426Y-100149250D01*
X117884917Y-100119912D01*
X117983083Y-100063236D01*
X118063236Y-99983083D01*
X118119912Y-99884917D01*
X118149250Y-99775426D01*
X118149250Y-99662074D01*
X118119912Y-99552583D01*
X118063236Y-99454417D01*
X118021143Y-99412324D01*
X120238000Y-99412324D01*
X120238000Y-99525675D01*
X120267338Y-99635166D01*
X120267339Y-99635169D01*
X120324011Y-99733329D01*
X120324013Y-99733332D01*
X120324014Y-99733333D01*
X120404167Y-99813486D01*
X120502333Y-99870162D01*
X120611824Y-99899500D01*
X120611826Y-99899500D01*
X120725174Y-99899500D01*
X120725176Y-99899500D01*
X120834667Y-99870162D01*
X120932833Y-99813486D01*
X121012986Y-99733333D01*
X121069662Y-99635167D01*
X121099000Y-99525676D01*
X121099000Y-99412324D01*
X121069662Y-99302833D01*
X121058293Y-99283141D01*
X177443000Y-99283141D01*
X177443000Y-101008850D01*
X177443001Y-101008858D01*
X177450570Y-101046916D01*
X177450571Y-101046919D01*
X177479414Y-101090086D01*
X177522581Y-101118929D01*
X177560645Y-101126500D01*
X179286354Y-101126499D01*
X179324419Y-101118929D01*
X179367586Y-101090086D01*
X179396429Y-101046919D01*
X179404000Y-101008855D01*
X179403999Y-99283146D01*
X179396429Y-99245081D01*
X179367586Y-99201914D01*
X179324419Y-99173071D01*
X179324418Y-99173070D01*
X179286357Y-99165500D01*
X177560649Y-99165500D01*
X177560641Y-99165501D01*
X177522583Y-99173070D01*
X177522580Y-99173071D01*
X177479414Y-99201914D01*
X177450570Y-99245081D01*
X177443000Y-99283141D01*
X121058293Y-99283141D01*
X121012986Y-99204667D01*
X120932833Y-99124514D01*
X120932832Y-99124513D01*
X120932829Y-99124511D01*
X120834669Y-99067839D01*
X120834668Y-99067838D01*
X120834667Y-99067838D01*
X120725176Y-99038500D01*
X120611824Y-99038500D01*
X120502333Y-99067838D01*
X120502330Y-99067839D01*
X120404170Y-99124511D01*
X120404165Y-99124515D01*
X120324015Y-99204665D01*
X120324011Y-99204670D01*
X120267339Y-99302830D01*
X120267338Y-99302833D01*
X120238000Y-99412324D01*
X118021143Y-99412324D01*
X117983083Y-99374264D01*
X117983082Y-99374263D01*
X117983079Y-99374261D01*
X117884919Y-99317589D01*
X117884918Y-99317588D01*
X117884917Y-99317588D01*
X117775426Y-99288250D01*
X117662074Y-99288250D01*
X117552583Y-99317588D01*
X117552580Y-99317589D01*
X117454420Y-99374261D01*
X117454415Y-99374265D01*
X117374265Y-99454415D01*
X117374261Y-99454420D01*
X117317589Y-99552580D01*
X117317588Y-99552583D01*
X117288250Y-99662074D01*
X110708393Y-99662074D01*
X110701833Y-99655514D01*
X110701832Y-99655513D01*
X110701829Y-99655511D01*
X110603669Y-99598839D01*
X110603668Y-99598838D01*
X110603667Y-99598838D01*
X110494176Y-99569500D01*
X110380824Y-99569500D01*
X110271333Y-99598838D01*
X110271330Y-99598839D01*
X110173170Y-99655511D01*
X110173165Y-99655515D01*
X110093015Y-99735665D01*
X110093011Y-99735670D01*
X110036339Y-99833830D01*
X110036338Y-99833833D01*
X110007000Y-99943324D01*
X99438000Y-99943324D01*
X99438000Y-98777629D01*
X114677000Y-98777629D01*
X114677000Y-98890980D01*
X114706338Y-99000471D01*
X114706339Y-99000474D01*
X114763011Y-99098634D01*
X114763013Y-99098637D01*
X114763014Y-99098638D01*
X114843167Y-99178791D01*
X114941333Y-99235467D01*
X115050824Y-99264805D01*
X115050826Y-99264805D01*
X115164174Y-99264805D01*
X115164176Y-99264805D01*
X115273667Y-99235467D01*
X115371833Y-99178791D01*
X115451986Y-99098638D01*
X115508662Y-99000472D01*
X115538000Y-98890981D01*
X115538000Y-98777629D01*
X115508662Y-98668138D01*
X115451986Y-98569972D01*
X115371833Y-98489819D01*
X115371832Y-98489818D01*
X115371829Y-98489816D01*
X115273669Y-98433144D01*
X115273668Y-98433143D01*
X115273667Y-98433143D01*
X115164176Y-98403805D01*
X115050824Y-98403805D01*
X114941333Y-98433143D01*
X114941330Y-98433144D01*
X114843170Y-98489816D01*
X114843165Y-98489820D01*
X114763015Y-98569970D01*
X114763011Y-98569975D01*
X114706339Y-98668135D01*
X114706338Y-98668138D01*
X114677000Y-98777629D01*
X99438000Y-98777629D01*
X99438000Y-98060769D01*
X148889555Y-98060769D01*
X148889555Y-98174120D01*
X148918893Y-98283611D01*
X148918894Y-98283614D01*
X148975566Y-98381774D01*
X148975568Y-98381777D01*
X148975569Y-98381778D01*
X149055722Y-98461931D01*
X149153888Y-98518607D01*
X149263379Y-98547945D01*
X149263381Y-98547945D01*
X149376729Y-98547945D01*
X149376731Y-98547945D01*
X149486222Y-98518607D01*
X149584388Y-98461931D01*
X149664541Y-98381778D01*
X149721217Y-98283612D01*
X149750555Y-98174121D01*
X149750555Y-98060769D01*
X149721217Y-97951278D01*
X149664541Y-97853112D01*
X149584388Y-97772959D01*
X149584387Y-97772958D01*
X149584384Y-97772956D01*
X149486224Y-97716284D01*
X149486223Y-97716283D01*
X149486222Y-97716283D01*
X149376731Y-97686945D01*
X149263379Y-97686945D01*
X149153888Y-97716283D01*
X149153885Y-97716284D01*
X149055725Y-97772956D01*
X149055720Y-97772960D01*
X148975570Y-97853110D01*
X148975566Y-97853115D01*
X148918894Y-97951275D01*
X148918893Y-97951278D01*
X148889555Y-98060769D01*
X99438000Y-98060769D01*
X99438000Y-96864123D01*
X109094038Y-96864123D01*
X109094038Y-96977475D01*
X109115260Y-97056674D01*
X109123376Y-97086965D01*
X109123377Y-97086968D01*
X109180049Y-97185128D01*
X109180051Y-97185131D01*
X109180052Y-97185132D01*
X109260205Y-97265285D01*
X109260206Y-97265286D01*
X109260208Y-97265287D01*
X109309288Y-97293623D01*
X109358371Y-97321961D01*
X109467862Y-97351299D01*
X109467864Y-97351299D01*
X109581212Y-97351299D01*
X109581214Y-97351299D01*
X109690705Y-97321961D01*
X109788871Y-97265285D01*
X109869024Y-97185132D01*
X109925700Y-97086966D01*
X109955038Y-96977475D01*
X109955038Y-96864123D01*
X109925700Y-96754632D01*
X109880302Y-96676000D01*
X109869026Y-96656469D01*
X109869022Y-96656464D01*
X109788872Y-96576314D01*
X109788867Y-96576310D01*
X109730451Y-96542584D01*
X109730449Y-96542582D01*
X109690711Y-96519640D01*
X109690707Y-96519638D01*
X109690705Y-96519637D01*
X109581214Y-96490299D01*
X109467862Y-96490299D01*
X109358371Y-96519637D01*
X109358368Y-96519638D01*
X109260208Y-96576310D01*
X109260203Y-96576314D01*
X109180053Y-96656464D01*
X109180049Y-96656469D01*
X109123377Y-96754629D01*
X109123376Y-96754632D01*
X109094038Y-96864123D01*
X99438000Y-96864123D01*
X99438000Y-96443324D01*
X111007000Y-96443324D01*
X111007000Y-96556676D01*
X111033740Y-96656469D01*
X111036338Y-96666166D01*
X111036339Y-96666169D01*
X111093011Y-96764329D01*
X111093013Y-96764332D01*
X111093014Y-96764333D01*
X111173167Y-96844486D01*
X111271333Y-96901162D01*
X111380824Y-96930500D01*
X111380826Y-96930500D01*
X111494174Y-96930500D01*
X111494176Y-96930500D01*
X111575751Y-96908642D01*
X114057060Y-96908642D01*
X114057060Y-97021994D01*
X114086398Y-97131483D01*
X114086398Y-97131484D01*
X114086399Y-97131487D01*
X114143071Y-97229647D01*
X114143073Y-97229650D01*
X114143074Y-97229651D01*
X114223227Y-97309804D01*
X114223228Y-97309805D01*
X114223230Y-97309806D01*
X114272310Y-97338142D01*
X114321393Y-97366480D01*
X114430884Y-97395818D01*
X114430886Y-97395818D01*
X114544234Y-97395818D01*
X114544236Y-97395818D01*
X114653727Y-97366480D01*
X114751893Y-97309804D01*
X114832046Y-97229651D01*
X114871061Y-97162074D01*
X117788250Y-97162074D01*
X117788250Y-97275426D01*
X117812648Y-97366478D01*
X117817588Y-97384916D01*
X117817589Y-97384919D01*
X117874261Y-97483079D01*
X117874263Y-97483082D01*
X117874264Y-97483083D01*
X117954417Y-97563236D01*
X118052583Y-97619912D01*
X118162074Y-97649250D01*
X118162076Y-97649250D01*
X118275424Y-97649250D01*
X118275426Y-97649250D01*
X118384917Y-97619912D01*
X118483083Y-97563236D01*
X118563236Y-97483083D01*
X118619912Y-97384917D01*
X118649250Y-97275426D01*
X118649250Y-97162074D01*
X118619912Y-97052583D01*
X118576548Y-96977474D01*
X118563238Y-96954420D01*
X118563234Y-96954415D01*
X118550902Y-96942083D01*
X136677003Y-96942083D01*
X136677003Y-97055435D01*
X136705578Y-97162076D01*
X136706341Y-97164925D01*
X136706342Y-97164928D01*
X136763014Y-97263088D01*
X136763016Y-97263091D01*
X136763017Y-97263092D01*
X136843170Y-97343245D01*
X136941336Y-97399921D01*
X137050827Y-97429259D01*
X137050829Y-97429259D01*
X137164177Y-97429259D01*
X137164179Y-97429259D01*
X137273670Y-97399921D01*
X137371836Y-97343245D01*
X137451989Y-97263092D01*
X137508665Y-97164926D01*
X137538003Y-97055435D01*
X137538003Y-96943324D01*
X140507000Y-96943324D01*
X140507000Y-97056676D01*
X140536006Y-97164926D01*
X140536338Y-97166166D01*
X140536339Y-97166169D01*
X140593011Y-97264329D01*
X140593013Y-97264332D01*
X140593014Y-97264333D01*
X140673167Y-97344486D01*
X140673168Y-97344487D01*
X140673170Y-97344488D01*
X140684967Y-97351299D01*
X140771333Y-97401162D01*
X140880824Y-97430500D01*
X140880826Y-97430500D01*
X140994174Y-97430500D01*
X140994176Y-97430500D01*
X141103667Y-97401162D01*
X141201833Y-97344486D01*
X141281986Y-97264333D01*
X141338662Y-97166167D01*
X141368000Y-97056676D01*
X141368000Y-96943324D01*
X149507000Y-96943324D01*
X149507000Y-97056676D01*
X149536006Y-97164926D01*
X149536338Y-97166166D01*
X149536339Y-97166169D01*
X149593011Y-97264329D01*
X149593013Y-97264332D01*
X149593014Y-97264333D01*
X149673167Y-97344486D01*
X149673168Y-97344487D01*
X149673170Y-97344488D01*
X149684967Y-97351299D01*
X149771333Y-97401162D01*
X149880824Y-97430500D01*
X149880826Y-97430500D01*
X149994174Y-97430500D01*
X149994176Y-97430500D01*
X150103667Y-97401162D01*
X150201833Y-97344486D01*
X150281986Y-97264333D01*
X150338662Y-97166167D01*
X150368000Y-97056676D01*
X150368000Y-96943324D01*
X150338662Y-96833833D01*
X150298534Y-96764329D01*
X150281988Y-96735670D01*
X150281984Y-96735665D01*
X150201834Y-96655515D01*
X150201829Y-96655511D01*
X150103669Y-96598839D01*
X150103668Y-96598838D01*
X150103667Y-96598838D01*
X149994176Y-96569500D01*
X149880824Y-96569500D01*
X149771333Y-96598838D01*
X149771330Y-96598839D01*
X149673170Y-96655511D01*
X149673165Y-96655515D01*
X149593015Y-96735665D01*
X149593011Y-96735670D01*
X149536339Y-96833830D01*
X149536338Y-96833833D01*
X149507000Y-96943324D01*
X141368000Y-96943324D01*
X141338662Y-96833833D01*
X141298534Y-96764329D01*
X141281988Y-96735670D01*
X141281984Y-96735665D01*
X141201834Y-96655515D01*
X141201829Y-96655511D01*
X141103669Y-96598839D01*
X141103668Y-96598838D01*
X141103667Y-96598838D01*
X140994176Y-96569500D01*
X140880824Y-96569500D01*
X140771333Y-96598838D01*
X140771330Y-96598839D01*
X140673170Y-96655511D01*
X140673165Y-96655515D01*
X140593015Y-96735665D01*
X140593011Y-96735670D01*
X140536339Y-96833830D01*
X140536338Y-96833833D01*
X140507000Y-96943324D01*
X137538003Y-96943324D01*
X137538003Y-96942083D01*
X137508665Y-96832592D01*
X137469256Y-96764333D01*
X137451991Y-96734429D01*
X137451987Y-96734424D01*
X137371837Y-96654274D01*
X137371832Y-96654270D01*
X137273672Y-96597598D01*
X137273671Y-96597597D01*
X137273670Y-96597597D01*
X137164179Y-96568259D01*
X137050827Y-96568259D01*
X136941336Y-96597597D01*
X136941333Y-96597598D01*
X136843173Y-96654270D01*
X136843168Y-96654274D01*
X136763018Y-96734424D01*
X136763014Y-96734429D01*
X136706342Y-96832589D01*
X136706341Y-96832592D01*
X136677003Y-96942083D01*
X118550902Y-96942083D01*
X118483084Y-96874265D01*
X118483079Y-96874261D01*
X118384919Y-96817589D01*
X118384918Y-96817588D01*
X118384917Y-96817588D01*
X118275426Y-96788250D01*
X118162074Y-96788250D01*
X118052583Y-96817588D01*
X118052580Y-96817589D01*
X117954420Y-96874261D01*
X117954415Y-96874265D01*
X117874265Y-96954415D01*
X117874261Y-96954420D01*
X117817589Y-97052580D01*
X117817588Y-97052583D01*
X117788250Y-97162074D01*
X114871061Y-97162074D01*
X114888722Y-97131485D01*
X114918060Y-97021994D01*
X114918060Y-96908642D01*
X114888722Y-96799151D01*
X114852070Y-96735667D01*
X114832048Y-96700988D01*
X114832044Y-96700983D01*
X114751894Y-96620833D01*
X114751889Y-96620829D01*
X114653729Y-96564157D01*
X114653728Y-96564156D01*
X114653727Y-96564156D01*
X114544236Y-96534818D01*
X114430884Y-96534818D01*
X114321393Y-96564156D01*
X114321390Y-96564157D01*
X114223230Y-96620829D01*
X114223225Y-96620833D01*
X114143075Y-96700983D01*
X114143071Y-96700988D01*
X114086399Y-96799148D01*
X114086398Y-96799151D01*
X114057060Y-96908642D01*
X111575751Y-96908642D01*
X111603667Y-96901162D01*
X111701833Y-96844486D01*
X111781986Y-96764333D01*
X111838662Y-96666167D01*
X111868000Y-96556676D01*
X111868000Y-96443324D01*
X111838662Y-96333833D01*
X111781986Y-96235667D01*
X111701833Y-96155514D01*
X111701832Y-96155513D01*
X111701829Y-96155511D01*
X111603669Y-96098839D01*
X111603668Y-96098838D01*
X111603667Y-96098838D01*
X111494176Y-96069500D01*
X111380824Y-96069500D01*
X111271333Y-96098838D01*
X111271330Y-96098839D01*
X111173170Y-96155511D01*
X111173165Y-96155515D01*
X111093015Y-96235665D01*
X111093011Y-96235670D01*
X111036339Y-96333830D01*
X111036338Y-96333833D01*
X111007000Y-96443324D01*
X99438000Y-96443324D01*
X99438000Y-95162924D01*
X103713000Y-95162924D01*
X103713000Y-95276276D01*
X103726190Y-95325499D01*
X103742338Y-95385766D01*
X103742339Y-95385769D01*
X103799011Y-95483929D01*
X103799013Y-95483932D01*
X103799014Y-95483933D01*
X103879167Y-95564086D01*
X103879168Y-95564087D01*
X103879170Y-95564088D01*
X103928250Y-95592424D01*
X103977333Y-95620762D01*
X104086824Y-95650100D01*
X104086826Y-95650100D01*
X104200174Y-95650100D01*
X104200176Y-95650100D01*
X104309667Y-95620762D01*
X104355329Y-95594399D01*
X114021889Y-95594399D01*
X114021889Y-95707751D01*
X114044444Y-95791925D01*
X114051227Y-95817241D01*
X114051228Y-95817244D01*
X114107900Y-95915404D01*
X114107902Y-95915407D01*
X114107903Y-95915408D01*
X114188056Y-95995561D01*
X114286222Y-96052237D01*
X114395713Y-96081575D01*
X114395715Y-96081575D01*
X114509063Y-96081575D01*
X114509065Y-96081575D01*
X114618556Y-96052237D01*
X114716722Y-95995561D01*
X114768959Y-95943324D01*
X134507000Y-95943324D01*
X134507000Y-96056676D01*
X134518298Y-96098838D01*
X134536338Y-96166166D01*
X134536339Y-96166169D01*
X134593011Y-96264329D01*
X134593013Y-96264332D01*
X134593014Y-96264333D01*
X134673167Y-96344486D01*
X134771333Y-96401162D01*
X134880824Y-96430500D01*
X134880826Y-96430500D01*
X134994174Y-96430500D01*
X134994176Y-96430500D01*
X135103667Y-96401162D01*
X135201833Y-96344486D01*
X135281986Y-96264333D01*
X135338662Y-96166167D01*
X135368000Y-96056676D01*
X135368000Y-95943324D01*
X144007000Y-95943324D01*
X144007000Y-96056676D01*
X144018298Y-96098838D01*
X144036338Y-96166166D01*
X144036339Y-96166169D01*
X144093011Y-96264329D01*
X144093013Y-96264332D01*
X144093014Y-96264333D01*
X144173167Y-96344486D01*
X144271333Y-96401162D01*
X144380824Y-96430500D01*
X144380826Y-96430500D01*
X144494174Y-96430500D01*
X144494176Y-96430500D01*
X144603667Y-96401162D01*
X144701833Y-96344486D01*
X144781986Y-96264333D01*
X144838662Y-96166167D01*
X144868000Y-96056676D01*
X144868000Y-95943324D01*
X144838662Y-95833833D01*
X144781986Y-95735667D01*
X144701833Y-95655514D01*
X144701831Y-95655513D01*
X144701826Y-95655509D01*
X144661150Y-95632025D01*
X144661149Y-95632025D01*
X144603669Y-95598839D01*
X144603668Y-95598838D01*
X144603667Y-95598838D01*
X144494176Y-95569500D01*
X144380824Y-95569500D01*
X144271333Y-95598838D01*
X144271330Y-95598839D01*
X144173170Y-95655511D01*
X144173165Y-95655515D01*
X144093015Y-95735665D01*
X144093011Y-95735670D01*
X144036339Y-95833830D01*
X144036338Y-95833833D01*
X144007000Y-95943324D01*
X135368000Y-95943324D01*
X135338662Y-95833833D01*
X135281986Y-95735667D01*
X135201833Y-95655514D01*
X135201832Y-95655513D01*
X135201829Y-95655511D01*
X135103669Y-95598839D01*
X135103668Y-95598838D01*
X135103667Y-95598838D01*
X134994176Y-95569500D01*
X134880824Y-95569500D01*
X134771333Y-95598838D01*
X134771330Y-95598839D01*
X134673170Y-95655511D01*
X134673165Y-95655515D01*
X134593015Y-95735665D01*
X134593011Y-95735670D01*
X134536339Y-95833830D01*
X134536338Y-95833833D01*
X134507000Y-95943324D01*
X114768959Y-95943324D01*
X114796875Y-95915408D01*
X114805759Y-95900018D01*
X114821246Y-95873197D01*
X114843972Y-95833833D01*
X114853551Y-95817242D01*
X114882889Y-95707751D01*
X114882889Y-95594399D01*
X114853551Y-95484908D01*
X114852102Y-95482399D01*
X114851524Y-95480017D01*
X114850440Y-95477398D01*
X114850848Y-95477228D01*
X114835630Y-95414500D01*
X114858482Y-95348473D01*
X114913404Y-95305283D01*
X114982957Y-95298641D01*
X114991563Y-95300620D01*
X115084416Y-95325500D01*
X115084419Y-95325500D01*
X115197766Y-95325500D01*
X115197768Y-95325500D01*
X115307259Y-95296162D01*
X115405425Y-95239486D01*
X115485578Y-95159333D01*
X115542254Y-95061167D01*
X115571592Y-94951676D01*
X115571592Y-94838324D01*
X115542254Y-94728833D01*
X115485578Y-94630667D01*
X115405425Y-94550514D01*
X115405424Y-94550513D01*
X115405421Y-94550511D01*
X115307261Y-94493839D01*
X115307260Y-94493838D01*
X115307259Y-94493838D01*
X115197768Y-94464500D01*
X115084416Y-94464500D01*
X114974925Y-94493838D01*
X114974922Y-94493839D01*
X114876762Y-94550511D01*
X114876757Y-94550515D01*
X114796607Y-94630665D01*
X114796603Y-94630670D01*
X114739931Y-94728830D01*
X114739930Y-94728833D01*
X114710592Y-94838324D01*
X114710592Y-94951675D01*
X114739930Y-95061166D01*
X114739931Y-95061169D01*
X114741379Y-95063677D01*
X114741956Y-95066059D01*
X114743041Y-95068677D01*
X114742632Y-95068846D01*
X114757849Y-95131578D01*
X114734995Y-95197604D01*
X114680073Y-95240793D01*
X114610519Y-95247432D01*
X114601897Y-95245449D01*
X114558207Y-95233742D01*
X114509065Y-95220575D01*
X114395713Y-95220575D01*
X114286222Y-95249913D01*
X114286219Y-95249914D01*
X114188059Y-95306586D01*
X114188054Y-95306590D01*
X114107904Y-95386740D01*
X114107900Y-95386745D01*
X114051228Y-95484905D01*
X114051227Y-95484908D01*
X114021889Y-95594399D01*
X104355329Y-95594399D01*
X104407833Y-95564086D01*
X104487986Y-95483933D01*
X104544662Y-95385767D01*
X104574000Y-95276276D01*
X104574000Y-95162924D01*
X104544662Y-95053433D01*
X104487986Y-94955267D01*
X104407833Y-94875114D01*
X104407832Y-94875113D01*
X104407829Y-94875111D01*
X104309669Y-94818439D01*
X104309668Y-94818438D01*
X104309667Y-94818438D01*
X104200176Y-94789100D01*
X104086824Y-94789100D01*
X103977333Y-94818438D01*
X103977330Y-94818439D01*
X103879170Y-94875111D01*
X103879165Y-94875115D01*
X103799015Y-94955265D01*
X103799011Y-94955270D01*
X103742339Y-95053430D01*
X103742338Y-95053433D01*
X103713000Y-95162924D01*
X99438000Y-95162924D01*
X99438000Y-93943324D01*
X144007000Y-93943324D01*
X144007000Y-94056676D01*
X144031869Y-94149486D01*
X144036338Y-94166166D01*
X144036339Y-94166169D01*
X144093011Y-94264329D01*
X144093013Y-94264332D01*
X144093014Y-94264333D01*
X144173167Y-94344486D01*
X144173168Y-94344487D01*
X144173170Y-94344488D01*
X144222250Y-94372824D01*
X144271333Y-94401162D01*
X144380824Y-94430500D01*
X144380826Y-94430500D01*
X144494174Y-94430500D01*
X144494176Y-94430500D01*
X144502928Y-94428155D01*
X177073500Y-94428155D01*
X177073500Y-95076000D01*
X177990488Y-95076000D01*
X177957575Y-95133007D01*
X177923500Y-95260174D01*
X177923500Y-95391826D01*
X177957575Y-95518993D01*
X177990488Y-95576000D01*
X177073500Y-95576000D01*
X177073500Y-96223844D01*
X177079901Y-96283372D01*
X177079903Y-96283379D01*
X177130145Y-96418086D01*
X177130149Y-96418093D01*
X177216309Y-96533187D01*
X177216312Y-96533190D01*
X177331406Y-96619350D01*
X177331413Y-96619354D01*
X177466120Y-96669596D01*
X177466127Y-96669598D01*
X177525655Y-96675999D01*
X177525672Y-96676000D01*
X178173500Y-96676000D01*
X178173500Y-95759012D01*
X178230507Y-95791925D01*
X178357674Y-95826000D01*
X178489326Y-95826000D01*
X178616493Y-95791925D01*
X178673500Y-95759012D01*
X178673500Y-96676000D01*
X179321328Y-96676000D01*
X179321344Y-96675999D01*
X179380872Y-96669598D01*
X179380879Y-96669596D01*
X179515586Y-96619354D01*
X179515593Y-96619350D01*
X179630687Y-96533190D01*
X179630690Y-96533187D01*
X179716850Y-96418093D01*
X179716854Y-96418086D01*
X179767096Y-96283379D01*
X179767098Y-96283372D01*
X179773499Y-96223844D01*
X179773500Y-96223827D01*
X179773500Y-95576000D01*
X178856512Y-95576000D01*
X178889425Y-95518993D01*
X178923500Y-95391826D01*
X178923500Y-95260174D01*
X178889425Y-95133007D01*
X178856512Y-95076000D01*
X179773500Y-95076000D01*
X179773500Y-94428172D01*
X179773499Y-94428155D01*
X179767098Y-94368627D01*
X179767096Y-94368620D01*
X179716854Y-94233913D01*
X179716850Y-94233906D01*
X179630690Y-94118812D01*
X179630687Y-94118809D01*
X179515593Y-94032649D01*
X179515586Y-94032645D01*
X179380879Y-93982403D01*
X179380872Y-93982401D01*
X179321344Y-93976000D01*
X178673500Y-93976000D01*
X178673500Y-94892988D01*
X178616493Y-94860075D01*
X178489326Y-94826000D01*
X178357674Y-94826000D01*
X178230507Y-94860075D01*
X178173500Y-94892988D01*
X178173500Y-93976000D01*
X177525655Y-93976000D01*
X177466127Y-93982401D01*
X177466120Y-93982403D01*
X177331413Y-94032645D01*
X177331406Y-94032649D01*
X177216312Y-94118809D01*
X177216309Y-94118812D01*
X177130149Y-94233906D01*
X177130145Y-94233913D01*
X177079903Y-94368620D01*
X177079901Y-94368627D01*
X177073500Y-94428155D01*
X144502928Y-94428155D01*
X144603667Y-94401162D01*
X144701833Y-94344486D01*
X144781986Y-94264333D01*
X144838662Y-94166167D01*
X144868000Y-94056676D01*
X144868000Y-93943324D01*
X144838662Y-93833833D01*
X144789294Y-93748324D01*
X154843481Y-93748324D01*
X154843481Y-93861676D01*
X154865359Y-93943324D01*
X154872819Y-93971166D01*
X154872820Y-93971169D01*
X154929492Y-94069329D01*
X154929494Y-94069332D01*
X154929495Y-94069333D01*
X155009648Y-94149486D01*
X155107814Y-94206162D01*
X155217305Y-94235500D01*
X155217307Y-94235500D01*
X155330655Y-94235500D01*
X155330657Y-94235500D01*
X155440148Y-94206162D01*
X155538314Y-94149486D01*
X155618467Y-94069333D01*
X155675143Y-93971167D01*
X155704481Y-93861676D01*
X155704481Y-93748324D01*
X155675143Y-93638833D01*
X155618467Y-93540667D01*
X155538314Y-93460514D01*
X155538313Y-93460513D01*
X155538310Y-93460511D01*
X155442729Y-93405328D01*
X156180094Y-93405328D01*
X156180094Y-93518680D01*
X156201573Y-93598838D01*
X156209432Y-93628170D01*
X156209433Y-93628173D01*
X156266105Y-93726333D01*
X156266107Y-93726336D01*
X156266108Y-93726337D01*
X156346261Y-93806490D01*
X156444427Y-93863166D01*
X156553918Y-93892504D01*
X156553920Y-93892504D01*
X156667268Y-93892504D01*
X156667270Y-93892504D01*
X156776761Y-93863166D01*
X156874927Y-93806490D01*
X156955080Y-93726337D01*
X157011756Y-93628171D01*
X157041094Y-93518680D01*
X157041094Y-93405328D01*
X157011756Y-93295837D01*
X156955080Y-93197671D01*
X156874927Y-93117518D01*
X156874926Y-93117517D01*
X156874923Y-93117515D01*
X156776763Y-93060843D01*
X156776762Y-93060842D01*
X156776761Y-93060842D01*
X156667270Y-93031504D01*
X156553918Y-93031504D01*
X156444427Y-93060842D01*
X156444424Y-93060843D01*
X156346264Y-93117515D01*
X156346259Y-93117519D01*
X156266109Y-93197669D01*
X156266105Y-93197674D01*
X156209433Y-93295834D01*
X156209432Y-93295837D01*
X156180094Y-93405328D01*
X155442729Y-93405328D01*
X155440150Y-93403839D01*
X155440149Y-93403838D01*
X155440148Y-93403838D01*
X155330657Y-93374500D01*
X155217305Y-93374500D01*
X155107814Y-93403838D01*
X155107811Y-93403839D01*
X155009651Y-93460511D01*
X155009646Y-93460515D01*
X154929496Y-93540665D01*
X154929492Y-93540670D01*
X154872820Y-93638830D01*
X154872819Y-93638833D01*
X154843481Y-93748324D01*
X144789294Y-93748324D01*
X144781990Y-93735673D01*
X144781984Y-93735665D01*
X144701834Y-93655515D01*
X144701829Y-93655511D01*
X144603669Y-93598839D01*
X144603668Y-93598838D01*
X144603667Y-93598838D01*
X144494176Y-93569500D01*
X144380824Y-93569500D01*
X144271333Y-93598838D01*
X144271330Y-93598839D01*
X144173170Y-93655511D01*
X144173165Y-93655515D01*
X144093015Y-93735665D01*
X144093011Y-93735670D01*
X144036339Y-93833830D01*
X144036338Y-93833833D01*
X144007000Y-93943324D01*
X99438000Y-93943324D01*
X99438000Y-90943324D01*
X137507000Y-90943324D01*
X137507000Y-91056675D01*
X137536338Y-91166166D01*
X137536339Y-91166169D01*
X137593011Y-91264329D01*
X137593013Y-91264332D01*
X137593014Y-91264333D01*
X137673167Y-91344486D01*
X137771333Y-91401162D01*
X137880824Y-91430500D01*
X137880826Y-91430500D01*
X137994174Y-91430500D01*
X137994176Y-91430500D01*
X138103667Y-91401162D01*
X138201833Y-91344486D01*
X138281986Y-91264333D01*
X138338662Y-91166167D01*
X138368000Y-91056676D01*
X138368000Y-90943324D01*
X138338662Y-90833833D01*
X138281986Y-90735667D01*
X138201833Y-90655514D01*
X138201832Y-90655513D01*
X138201829Y-90655511D01*
X138103669Y-90598839D01*
X138103668Y-90598838D01*
X138103667Y-90598838D01*
X137994176Y-90569500D01*
X137880824Y-90569500D01*
X137771333Y-90598838D01*
X137771330Y-90598839D01*
X137673170Y-90655511D01*
X137673165Y-90655515D01*
X137593015Y-90735665D01*
X137593011Y-90735670D01*
X137536339Y-90833830D01*
X137536338Y-90833833D01*
X137507000Y-90943324D01*
X99438000Y-90943324D01*
X99438000Y-88498324D01*
X162007000Y-88498324D01*
X162007000Y-88611676D01*
X162018747Y-88655514D01*
X162036338Y-88721166D01*
X162036339Y-88721169D01*
X162093011Y-88819329D01*
X162093013Y-88819332D01*
X162093014Y-88819333D01*
X162173167Y-88899486D01*
X162271333Y-88956162D01*
X162380824Y-88985500D01*
X162380826Y-88985500D01*
X162494174Y-88985500D01*
X162494176Y-88985500D01*
X162603667Y-88956162D01*
X162677000Y-88913822D01*
X162744900Y-88897350D01*
X162810927Y-88920202D01*
X162854118Y-88975124D01*
X162863000Y-89021210D01*
X162863000Y-90128850D01*
X162863001Y-90128858D01*
X162870570Y-90166916D01*
X162870571Y-90166919D01*
X162899414Y-90210086D01*
X162942581Y-90238929D01*
X162980645Y-90246500D01*
X164706354Y-90246499D01*
X164744419Y-90238929D01*
X164787586Y-90210086D01*
X164816429Y-90166919D01*
X164824000Y-90128855D01*
X164823999Y-89261158D01*
X164843683Y-89194121D01*
X164896487Y-89148366D01*
X164965646Y-89138422D01*
X165029202Y-89167447D01*
X165055386Y-89199160D01*
X165093011Y-89264329D01*
X165093013Y-89264332D01*
X165093014Y-89264333D01*
X165173167Y-89344486D01*
X165271333Y-89401162D01*
X165380824Y-89430500D01*
X165380826Y-89430500D01*
X165494174Y-89430500D01*
X165494176Y-89430500D01*
X165603667Y-89401162D01*
X165701833Y-89344486D01*
X165781986Y-89264333D01*
X165838662Y-89166167D01*
X165868000Y-89056676D01*
X165868000Y-88943324D01*
X165838662Y-88833833D01*
X165781986Y-88735667D01*
X165701833Y-88655514D01*
X165701832Y-88655513D01*
X165701829Y-88655511D01*
X165603669Y-88598839D01*
X165603668Y-88598838D01*
X165603667Y-88598838D01*
X165494176Y-88569500D01*
X165380824Y-88569500D01*
X165271333Y-88598838D01*
X165271330Y-88598839D01*
X165173170Y-88655511D01*
X165173165Y-88655515D01*
X165093015Y-88735665D01*
X165093011Y-88735670D01*
X165055386Y-88800840D01*
X165004819Y-88849056D01*
X164936212Y-88862279D01*
X164871347Y-88836311D01*
X164830819Y-88779396D01*
X164823999Y-88738840D01*
X164823999Y-88403149D01*
X164823998Y-88403141D01*
X164816429Y-88365081D01*
X164788406Y-88323141D01*
X178063000Y-88323141D01*
X178063000Y-90048850D01*
X178063001Y-90048858D01*
X178070570Y-90086916D01*
X178070571Y-90086919D01*
X178099414Y-90130086D01*
X178142581Y-90158929D01*
X178180645Y-90166500D01*
X179906354Y-90166499D01*
X179944419Y-90158929D01*
X179987586Y-90130086D01*
X180016429Y-90086919D01*
X180024000Y-90048855D01*
X180023999Y-88323146D01*
X180016429Y-88285081D01*
X179987586Y-88241914D01*
X179944419Y-88213071D01*
X179944418Y-88213070D01*
X179906357Y-88205500D01*
X178180649Y-88205500D01*
X178180641Y-88205501D01*
X178142583Y-88213070D01*
X178142580Y-88213071D01*
X178099414Y-88241914D01*
X178070570Y-88285081D01*
X178063000Y-88323141D01*
X164788406Y-88323141D01*
X164787586Y-88321914D01*
X164754635Y-88299897D01*
X164744418Y-88293070D01*
X164706357Y-88285500D01*
X162980649Y-88285500D01*
X162980641Y-88285501D01*
X162942583Y-88293070D01*
X162942578Y-88293072D01*
X162932364Y-88299897D01*
X162865686Y-88320774D01*
X162798306Y-88302288D01*
X162775794Y-88284475D01*
X162701834Y-88210515D01*
X162701829Y-88210511D01*
X162603669Y-88153839D01*
X162603668Y-88153838D01*
X162603667Y-88153838D01*
X162494176Y-88124500D01*
X162380824Y-88124500D01*
X162271333Y-88153838D01*
X162271330Y-88153839D01*
X162173170Y-88210511D01*
X162173165Y-88210515D01*
X162093015Y-88290665D01*
X162093011Y-88290670D01*
X162036339Y-88388830D01*
X162036338Y-88388833D01*
X162007000Y-88498324D01*
X99438000Y-88498324D01*
X99438000Y-86629424D01*
X162863000Y-86629424D01*
X162863000Y-86822575D01*
X162900678Y-87011993D01*
X162900681Y-87012005D01*
X162974588Y-87190434D01*
X162974595Y-87190447D01*
X163081895Y-87351031D01*
X163081898Y-87351035D01*
X163218464Y-87487601D01*
X163218468Y-87487604D01*
X163379052Y-87594904D01*
X163379065Y-87594911D01*
X163557494Y-87668818D01*
X163557499Y-87668820D01*
X163746924Y-87706499D01*
X163746927Y-87706500D01*
X163746929Y-87706500D01*
X163940073Y-87706500D01*
X163940074Y-87706499D01*
X164129501Y-87668820D01*
X164307941Y-87594908D01*
X164468532Y-87487604D01*
X164605104Y-87351032D01*
X164712408Y-87190441D01*
X164786320Y-87012001D01*
X164824000Y-86822571D01*
X164824000Y-86629429D01*
X164824000Y-86629426D01*
X164823999Y-86629424D01*
X164808086Y-86549424D01*
X178063000Y-86549424D01*
X178063000Y-86742575D01*
X178100678Y-86931993D01*
X178100681Y-86932005D01*
X178174588Y-87110434D01*
X178174595Y-87110447D01*
X178281895Y-87271031D01*
X178281898Y-87271035D01*
X178418464Y-87407601D01*
X178418468Y-87407604D01*
X178579052Y-87514904D01*
X178579065Y-87514911D01*
X178757494Y-87588818D01*
X178757499Y-87588820D01*
X178946924Y-87626499D01*
X178946927Y-87626500D01*
X178946929Y-87626500D01*
X179140073Y-87626500D01*
X179140074Y-87626499D01*
X179329501Y-87588820D01*
X179507941Y-87514908D01*
X179668532Y-87407604D01*
X179805104Y-87271032D01*
X179912408Y-87110441D01*
X179986320Y-86932001D01*
X180024000Y-86742571D01*
X180024000Y-86549429D01*
X180024000Y-86549426D01*
X180023999Y-86549424D01*
X180002232Y-86439994D01*
X179986320Y-86359999D01*
X179979894Y-86344486D01*
X179912411Y-86181565D01*
X179912404Y-86181552D01*
X179805104Y-86020968D01*
X179805101Y-86020964D01*
X179668535Y-85884398D01*
X179668531Y-85884395D01*
X179507947Y-85777095D01*
X179507934Y-85777088D01*
X179329505Y-85703181D01*
X179329493Y-85703178D01*
X179140074Y-85665500D01*
X179140071Y-85665500D01*
X178946929Y-85665500D01*
X178946926Y-85665500D01*
X178757506Y-85703178D01*
X178757494Y-85703181D01*
X178579065Y-85777088D01*
X178579052Y-85777095D01*
X178418468Y-85884395D01*
X178418464Y-85884398D01*
X178281898Y-86020964D01*
X178281895Y-86020968D01*
X178174595Y-86181552D01*
X178174588Y-86181565D01*
X178100681Y-86359994D01*
X178100678Y-86360006D01*
X178063000Y-86549424D01*
X164808086Y-86549424D01*
X164786321Y-86440006D01*
X164786320Y-86439999D01*
X164770233Y-86401161D01*
X164712411Y-86261565D01*
X164712404Y-86261552D01*
X164605104Y-86100968D01*
X164605101Y-86100964D01*
X164468535Y-85964398D01*
X164468531Y-85964395D01*
X164436996Y-85943324D01*
X166007000Y-85943324D01*
X166007000Y-86056675D01*
X166036338Y-86166166D01*
X166036339Y-86166169D01*
X166093011Y-86264329D01*
X166093013Y-86264332D01*
X166093014Y-86264333D01*
X166173167Y-86344486D01*
X166173168Y-86344487D01*
X166173170Y-86344488D01*
X166222250Y-86372824D01*
X166271333Y-86401162D01*
X166380824Y-86430500D01*
X166380826Y-86430500D01*
X166494174Y-86430500D01*
X166494176Y-86430500D01*
X166603667Y-86401162D01*
X166701833Y-86344486D01*
X166781986Y-86264333D01*
X166838662Y-86166167D01*
X166868000Y-86056676D01*
X166868000Y-85943324D01*
X166838662Y-85833833D01*
X166781986Y-85735667D01*
X166701833Y-85655514D01*
X166701832Y-85655513D01*
X166701829Y-85655511D01*
X166603669Y-85598839D01*
X166603668Y-85598838D01*
X166603667Y-85598838D01*
X166494176Y-85569500D01*
X166380824Y-85569500D01*
X166271333Y-85598838D01*
X166271330Y-85598839D01*
X166173170Y-85655511D01*
X166173165Y-85655515D01*
X166093015Y-85735665D01*
X166093011Y-85735670D01*
X166036339Y-85833830D01*
X166036338Y-85833833D01*
X166007000Y-85943324D01*
X164436996Y-85943324D01*
X164307947Y-85857095D01*
X164307934Y-85857088D01*
X164129505Y-85783181D01*
X164129493Y-85783178D01*
X163940074Y-85745500D01*
X163940071Y-85745500D01*
X163746929Y-85745500D01*
X163746926Y-85745500D01*
X163557506Y-85783178D01*
X163557494Y-85783181D01*
X163379065Y-85857088D01*
X163379052Y-85857095D01*
X163218468Y-85964395D01*
X163218464Y-85964398D01*
X163081898Y-86100964D01*
X163081895Y-86100968D01*
X162974595Y-86261552D01*
X162974588Y-86261565D01*
X162900681Y-86439994D01*
X162900678Y-86440006D01*
X162863000Y-86629424D01*
X99438000Y-86629424D01*
X99438000Y-85943324D01*
X157007000Y-85943324D01*
X157007000Y-86056675D01*
X157036338Y-86166166D01*
X157036339Y-86166169D01*
X157093011Y-86264329D01*
X157093013Y-86264332D01*
X157093014Y-86264333D01*
X157173167Y-86344486D01*
X157173168Y-86344487D01*
X157173170Y-86344488D01*
X157222250Y-86372824D01*
X157271333Y-86401162D01*
X157380824Y-86430500D01*
X157380826Y-86430500D01*
X157494174Y-86430500D01*
X157494176Y-86430500D01*
X157603667Y-86401162D01*
X157701833Y-86344486D01*
X157781986Y-86264333D01*
X157838662Y-86166167D01*
X157868000Y-86056676D01*
X157868000Y-85943324D01*
X157838662Y-85833833D01*
X157781986Y-85735667D01*
X157701833Y-85655514D01*
X157701832Y-85655513D01*
X157701829Y-85655511D01*
X157603669Y-85598839D01*
X157603668Y-85598838D01*
X157603667Y-85598838D01*
X157494176Y-85569500D01*
X157380824Y-85569500D01*
X157271333Y-85598838D01*
X157271330Y-85598839D01*
X157173170Y-85655511D01*
X157173165Y-85655515D01*
X157093015Y-85735665D01*
X157093011Y-85735670D01*
X157036339Y-85833830D01*
X157036338Y-85833833D01*
X157007000Y-85943324D01*
X99438000Y-85943324D01*
X99438000Y-84943324D01*
X131007000Y-84943324D01*
X131007000Y-85056676D01*
X131026331Y-85128818D01*
X131036338Y-85166166D01*
X131036339Y-85166169D01*
X131093011Y-85264329D01*
X131093013Y-85264332D01*
X131093014Y-85264333D01*
X131173167Y-85344486D01*
X131271333Y-85401162D01*
X131380824Y-85430500D01*
X131380826Y-85430500D01*
X131494174Y-85430500D01*
X131494176Y-85430500D01*
X131603667Y-85401162D01*
X131701833Y-85344486D01*
X131781986Y-85264333D01*
X131838662Y-85166167D01*
X131868000Y-85056676D01*
X131868000Y-84943324D01*
X136007000Y-84943324D01*
X136007000Y-85056676D01*
X136026331Y-85128818D01*
X136036338Y-85166166D01*
X136036339Y-85166169D01*
X136093011Y-85264329D01*
X136093013Y-85264332D01*
X136093014Y-85264333D01*
X136173167Y-85344486D01*
X136271333Y-85401162D01*
X136380824Y-85430500D01*
X136380826Y-85430500D01*
X136494174Y-85430500D01*
X136494176Y-85430500D01*
X136603667Y-85401162D01*
X136701833Y-85344486D01*
X136781986Y-85264333D01*
X136838662Y-85166167D01*
X136868000Y-85056676D01*
X136868000Y-84943324D01*
X136838662Y-84833833D01*
X136781986Y-84735667D01*
X136701833Y-84655514D01*
X136701832Y-84655513D01*
X136701829Y-84655511D01*
X136603669Y-84598839D01*
X136603668Y-84598838D01*
X136603667Y-84598838D01*
X136494176Y-84569500D01*
X136380824Y-84569500D01*
X136271333Y-84598838D01*
X136271330Y-84598839D01*
X136173170Y-84655511D01*
X136173165Y-84655515D01*
X136093015Y-84735665D01*
X136093011Y-84735670D01*
X136036339Y-84833830D01*
X136036338Y-84833833D01*
X136007000Y-84943324D01*
X131868000Y-84943324D01*
X131838662Y-84833833D01*
X131781986Y-84735667D01*
X131701833Y-84655514D01*
X131701832Y-84655513D01*
X131701829Y-84655511D01*
X131603669Y-84598839D01*
X131603668Y-84598838D01*
X131603667Y-84598838D01*
X131494176Y-84569500D01*
X131380824Y-84569500D01*
X131271333Y-84598838D01*
X131271330Y-84598839D01*
X131173170Y-84655511D01*
X131173165Y-84655515D01*
X131093015Y-84735665D01*
X131093011Y-84735670D01*
X131036339Y-84833830D01*
X131036338Y-84833833D01*
X131007000Y-84943324D01*
X99438000Y-84943324D01*
X99438000Y-84089424D01*
X162863000Y-84089424D01*
X162863000Y-84282575D01*
X162900678Y-84471993D01*
X162900681Y-84472005D01*
X162974588Y-84650434D01*
X162974595Y-84650447D01*
X163081895Y-84811031D01*
X163081898Y-84811035D01*
X163218464Y-84947601D01*
X163218468Y-84947604D01*
X163379052Y-85054904D01*
X163379065Y-85054911D01*
X163557494Y-85128818D01*
X163557499Y-85128820D01*
X163745250Y-85166166D01*
X163746924Y-85166499D01*
X163746927Y-85166500D01*
X163746929Y-85166500D01*
X163940073Y-85166500D01*
X163940074Y-85166499D01*
X164129501Y-85128820D01*
X164303675Y-85056675D01*
X164307934Y-85054911D01*
X164307934Y-85054910D01*
X164307941Y-85054908D01*
X164468532Y-84947604D01*
X164605104Y-84811032D01*
X164712408Y-84650441D01*
X164786320Y-84472001D01*
X164824000Y-84282571D01*
X164824000Y-84089429D01*
X164824000Y-84089426D01*
X164823999Y-84089424D01*
X164811688Y-84027528D01*
X164808087Y-84009424D01*
X178063000Y-84009424D01*
X178063000Y-84202575D01*
X178100678Y-84391993D01*
X178100681Y-84392005D01*
X178174588Y-84570434D01*
X178174595Y-84570447D01*
X178281895Y-84731031D01*
X178281898Y-84731035D01*
X178418464Y-84867601D01*
X178418468Y-84867604D01*
X178579052Y-84974904D01*
X178579065Y-84974911D01*
X178757494Y-85048818D01*
X178757499Y-85048820D01*
X178946924Y-85086499D01*
X178946927Y-85086500D01*
X178946929Y-85086500D01*
X179140073Y-85086500D01*
X179140074Y-85086499D01*
X179329501Y-85048820D01*
X179507941Y-84974908D01*
X179668532Y-84867604D01*
X179805104Y-84731032D01*
X179912408Y-84570441D01*
X179986320Y-84392001D01*
X180024000Y-84202571D01*
X180024000Y-84009429D01*
X180024000Y-84009426D01*
X180023999Y-84009424D01*
X179991191Y-83844488D01*
X179986320Y-83819999D01*
X179963263Y-83764334D01*
X179912411Y-83641565D01*
X179912404Y-83641552D01*
X179805104Y-83480968D01*
X179805101Y-83480964D01*
X179668535Y-83344398D01*
X179668531Y-83344395D01*
X179507947Y-83237095D01*
X179507934Y-83237088D01*
X179329505Y-83163181D01*
X179329493Y-83163178D01*
X179140074Y-83125500D01*
X179140071Y-83125500D01*
X178946929Y-83125500D01*
X178946926Y-83125500D01*
X178757506Y-83163178D01*
X178757494Y-83163181D01*
X178579065Y-83237088D01*
X178579052Y-83237095D01*
X178418468Y-83344395D01*
X178418464Y-83344398D01*
X178281898Y-83480964D01*
X178281895Y-83480968D01*
X178174595Y-83641552D01*
X178174588Y-83641565D01*
X178100681Y-83819994D01*
X178100678Y-83820006D01*
X178063000Y-84009424D01*
X164808087Y-84009424D01*
X164786321Y-83900004D01*
X164786320Y-83900003D01*
X164786320Y-83899999D01*
X164730124Y-83764329D01*
X164712411Y-83721565D01*
X164712404Y-83721552D01*
X164605104Y-83560968D01*
X164605101Y-83560964D01*
X164468535Y-83424398D01*
X164468531Y-83424395D01*
X164307947Y-83317095D01*
X164307934Y-83317088D01*
X164129505Y-83243181D01*
X164129493Y-83243178D01*
X163940074Y-83205500D01*
X163940071Y-83205500D01*
X163746929Y-83205500D01*
X163746926Y-83205500D01*
X163557506Y-83243178D01*
X163557494Y-83243181D01*
X163379065Y-83317088D01*
X163379052Y-83317095D01*
X163218468Y-83424395D01*
X163218464Y-83424398D01*
X163081898Y-83560964D01*
X163081895Y-83560968D01*
X162974595Y-83721552D01*
X162974588Y-83721565D01*
X162900681Y-83899994D01*
X162900678Y-83900006D01*
X162863000Y-84089424D01*
X99438000Y-84089424D01*
X99438000Y-83443324D01*
X132007000Y-83443324D01*
X132007000Y-83556676D01*
X132029745Y-83641559D01*
X132036338Y-83666166D01*
X132036339Y-83666169D01*
X132093011Y-83764329D01*
X132093013Y-83764332D01*
X132093014Y-83764333D01*
X132173167Y-83844486D01*
X132271333Y-83901162D01*
X132380824Y-83930500D01*
X132380826Y-83930500D01*
X132494174Y-83930500D01*
X132494176Y-83930500D01*
X132603667Y-83901162D01*
X132701833Y-83844486D01*
X132781986Y-83764333D01*
X132838662Y-83666167D01*
X132868000Y-83556676D01*
X132868000Y-83443324D01*
X132838662Y-83333833D01*
X132786324Y-83243180D01*
X132781988Y-83235670D01*
X132781984Y-83235665D01*
X132701834Y-83155515D01*
X132701833Y-83155514D01*
X132603667Y-83098838D01*
X132494176Y-83069500D01*
X132380824Y-83069500D01*
X132271333Y-83098838D01*
X132271330Y-83098839D01*
X132173170Y-83155511D01*
X132173165Y-83155515D01*
X132093015Y-83235665D01*
X132093011Y-83235670D01*
X132036339Y-83333830D01*
X132036338Y-83333833D01*
X132007000Y-83443324D01*
X99438000Y-83443324D01*
X99438000Y-83046507D01*
X154246961Y-83046507D01*
X154246961Y-83159859D01*
X154269287Y-83243178D01*
X154276299Y-83269349D01*
X154276300Y-83269352D01*
X154332972Y-83367512D01*
X154332974Y-83367514D01*
X154332975Y-83367516D01*
X154413128Y-83447669D01*
X154511294Y-83504345D01*
X154620785Y-83533683D01*
X154620787Y-83533683D01*
X154734135Y-83533683D01*
X154734137Y-83533683D01*
X154843628Y-83504345D01*
X154941794Y-83447669D01*
X154946139Y-83443324D01*
X156007000Y-83443324D01*
X156007000Y-83556676D01*
X156029745Y-83641559D01*
X156036338Y-83666166D01*
X156036339Y-83666169D01*
X156093011Y-83764329D01*
X156093013Y-83764332D01*
X156093014Y-83764333D01*
X156173167Y-83844486D01*
X156271333Y-83901162D01*
X156380824Y-83930500D01*
X156380826Y-83930500D01*
X156494174Y-83930500D01*
X156494176Y-83930500D01*
X156603667Y-83901162D01*
X156701833Y-83844486D01*
X156781986Y-83764333D01*
X156838662Y-83666167D01*
X156868000Y-83556676D01*
X156868000Y-83443324D01*
X156838662Y-83333833D01*
X156786324Y-83243180D01*
X156781988Y-83235670D01*
X156781984Y-83235665D01*
X156701834Y-83155515D01*
X156701829Y-83155511D01*
X156603669Y-83098839D01*
X156603668Y-83098838D01*
X156603667Y-83098838D01*
X156494176Y-83069500D01*
X156380824Y-83069500D01*
X156271333Y-83098838D01*
X156271330Y-83098839D01*
X156173170Y-83155511D01*
X156173165Y-83155515D01*
X156093015Y-83235665D01*
X156093011Y-83235670D01*
X156036339Y-83333830D01*
X156036338Y-83333833D01*
X156007000Y-83443324D01*
X154946139Y-83443324D01*
X155021947Y-83367516D01*
X155078623Y-83269350D01*
X155107961Y-83159859D01*
X155107961Y-83046507D01*
X155078623Y-82937016D01*
X155021947Y-82838850D01*
X154941794Y-82758697D01*
X154941793Y-82758696D01*
X154941790Y-82758694D01*
X154843630Y-82702022D01*
X154843629Y-82702021D01*
X154843628Y-82702021D01*
X154734137Y-82672683D01*
X154620785Y-82672683D01*
X154511294Y-82702021D01*
X154511291Y-82702022D01*
X154413131Y-82758694D01*
X154413126Y-82758698D01*
X154332976Y-82838848D01*
X154332972Y-82838853D01*
X154276300Y-82937013D01*
X154276299Y-82937016D01*
X154246961Y-83046507D01*
X99438000Y-83046507D01*
X99438000Y-82103436D01*
X133368200Y-82103436D01*
X133368200Y-82216788D01*
X133382736Y-82271035D01*
X133397538Y-82326278D01*
X133397539Y-82326281D01*
X133454211Y-82424441D01*
X133454213Y-82424444D01*
X133454214Y-82424445D01*
X133534367Y-82504598D01*
X133534368Y-82504599D01*
X133534370Y-82504600D01*
X133572607Y-82526676D01*
X133632533Y-82561274D01*
X133742024Y-82590612D01*
X133742026Y-82590612D01*
X133855374Y-82590612D01*
X133855376Y-82590612D01*
X133964867Y-82561274D01*
X134063033Y-82504598D01*
X134143186Y-82424445D01*
X134149606Y-82413324D01*
X152007000Y-82413324D01*
X152007000Y-82526676D01*
X152033748Y-82626499D01*
X152036338Y-82636166D01*
X152036339Y-82636169D01*
X152093011Y-82734329D01*
X152093013Y-82734332D01*
X152093014Y-82734333D01*
X152173167Y-82814486D01*
X152271333Y-82871162D01*
X152380824Y-82900500D01*
X152380826Y-82900500D01*
X152494174Y-82900500D01*
X152494176Y-82900500D01*
X152603667Y-82871162D01*
X152701833Y-82814486D01*
X152781986Y-82734333D01*
X152838662Y-82636167D01*
X152868000Y-82526676D01*
X152868000Y-82413324D01*
X152838662Y-82303833D01*
X152781986Y-82205667D01*
X152701833Y-82125514D01*
X152701832Y-82125513D01*
X152701829Y-82125511D01*
X152603669Y-82068839D01*
X152603668Y-82068838D01*
X152603667Y-82068838D01*
X152494176Y-82039500D01*
X152380824Y-82039500D01*
X152271333Y-82068838D01*
X152271330Y-82068839D01*
X152173170Y-82125511D01*
X152173165Y-82125515D01*
X152093015Y-82205665D01*
X152093011Y-82205670D01*
X152036339Y-82303830D01*
X152036338Y-82303833D01*
X152007000Y-82413324D01*
X134149606Y-82413324D01*
X134159447Y-82396278D01*
X134190095Y-82343197D01*
X134190095Y-82343196D01*
X134190176Y-82343054D01*
X134199862Y-82326279D01*
X134229200Y-82216788D01*
X134229200Y-82103436D01*
X134199862Y-81993945D01*
X134170636Y-81943324D01*
X160507000Y-81943324D01*
X160507000Y-82056676D01*
X160525446Y-82125515D01*
X160536338Y-82166166D01*
X160536339Y-82166169D01*
X160593011Y-82264329D01*
X160593013Y-82264332D01*
X160593014Y-82264333D01*
X160673167Y-82344486D01*
X160771333Y-82401162D01*
X160880824Y-82430500D01*
X160880826Y-82430500D01*
X160994174Y-82430500D01*
X160994176Y-82430500D01*
X161103667Y-82401162D01*
X161201833Y-82344486D01*
X161281986Y-82264333D01*
X161338662Y-82166167D01*
X161368000Y-82056676D01*
X161368000Y-81943324D01*
X161338662Y-81833833D01*
X161295429Y-81758951D01*
X161281988Y-81735670D01*
X161281984Y-81735665D01*
X161201834Y-81655515D01*
X161201829Y-81655511D01*
X161193537Y-81650724D01*
X161103669Y-81598839D01*
X161103668Y-81598838D01*
X161103667Y-81598838D01*
X160994176Y-81569500D01*
X160880824Y-81569500D01*
X160771333Y-81598838D01*
X160771330Y-81598839D01*
X160673170Y-81655511D01*
X160673165Y-81655515D01*
X160593015Y-81735665D01*
X160593011Y-81735670D01*
X160536339Y-81833830D01*
X160536338Y-81833833D01*
X160507000Y-81943324D01*
X134170636Y-81943324D01*
X134143186Y-81895779D01*
X134063033Y-81815626D01*
X134063032Y-81815625D01*
X134063029Y-81815623D01*
X133964869Y-81758951D01*
X133964868Y-81758950D01*
X133964867Y-81758950D01*
X133855376Y-81729612D01*
X133742024Y-81729612D01*
X133632533Y-81758950D01*
X133632530Y-81758951D01*
X133534370Y-81815623D01*
X133534365Y-81815627D01*
X133454215Y-81895777D01*
X133454211Y-81895782D01*
X133397539Y-81993942D01*
X133397538Y-81993945D01*
X133368200Y-82103436D01*
X99438000Y-82103436D01*
X99438000Y-81549424D01*
X162863000Y-81549424D01*
X162863000Y-81742575D01*
X162900678Y-81931993D01*
X162900681Y-81932005D01*
X162974588Y-82110434D01*
X162974595Y-82110447D01*
X163081895Y-82271031D01*
X163081898Y-82271035D01*
X163218464Y-82407601D01*
X163218468Y-82407604D01*
X163379052Y-82514904D01*
X163379065Y-82514911D01*
X163557494Y-82588818D01*
X163557499Y-82588820D01*
X163746924Y-82626499D01*
X163746927Y-82626500D01*
X163746929Y-82626500D01*
X163940073Y-82626500D01*
X163940074Y-82626499D01*
X164129501Y-82588820D01*
X164267509Y-82531655D01*
X164307934Y-82514911D01*
X164307934Y-82514910D01*
X164307941Y-82514908D01*
X164468532Y-82407604D01*
X164605104Y-82271032D01*
X164712408Y-82110441D01*
X164786320Y-81932001D01*
X164824000Y-81742571D01*
X164824000Y-81549429D01*
X164824000Y-81549426D01*
X164823999Y-81549424D01*
X164811688Y-81487528D01*
X164808087Y-81469424D01*
X178063000Y-81469424D01*
X178063000Y-81662575D01*
X178100678Y-81851993D01*
X178100681Y-81852005D01*
X178174588Y-82030434D01*
X178174595Y-82030447D01*
X178281895Y-82191031D01*
X178281898Y-82191035D01*
X178418464Y-82327601D01*
X178418468Y-82327604D01*
X178579052Y-82434904D01*
X178579065Y-82434911D01*
X178747301Y-82504596D01*
X178757499Y-82508820D01*
X178946924Y-82546499D01*
X178946927Y-82546500D01*
X178946929Y-82546500D01*
X179140073Y-82546500D01*
X179140074Y-82546499D01*
X179329501Y-82508820D01*
X179507941Y-82434908D01*
X179668532Y-82327604D01*
X179805104Y-82191032D01*
X179912408Y-82030441D01*
X179986320Y-81852001D01*
X180024000Y-81662571D01*
X180024000Y-81469429D01*
X180024000Y-81469426D01*
X180023999Y-81469424D01*
X179986320Y-81279999D01*
X179979829Y-81264329D01*
X179912411Y-81101565D01*
X179912404Y-81101552D01*
X179805104Y-80940968D01*
X179805101Y-80940964D01*
X179668535Y-80804398D01*
X179668531Y-80804395D01*
X179507947Y-80697095D01*
X179507934Y-80697088D01*
X179329505Y-80623181D01*
X179329493Y-80623178D01*
X179140074Y-80585500D01*
X179140071Y-80585500D01*
X178946929Y-80585500D01*
X178946926Y-80585500D01*
X178757506Y-80623178D01*
X178757494Y-80623181D01*
X178579065Y-80697088D01*
X178579052Y-80697095D01*
X178418468Y-80804395D01*
X178418464Y-80804398D01*
X178281898Y-80940964D01*
X178281895Y-80940968D01*
X178174595Y-81101552D01*
X178174588Y-81101565D01*
X178100681Y-81279994D01*
X178100678Y-81280006D01*
X178063000Y-81469424D01*
X164808087Y-81469424D01*
X164786321Y-81360004D01*
X164786320Y-81360003D01*
X164786320Y-81359999D01*
X164779894Y-81344486D01*
X164712411Y-81181565D01*
X164712404Y-81181552D01*
X164605104Y-81020968D01*
X164605101Y-81020964D01*
X164468535Y-80884398D01*
X164468531Y-80884395D01*
X164307947Y-80777095D01*
X164307934Y-80777088D01*
X164129505Y-80703181D01*
X164129493Y-80703178D01*
X163940074Y-80665500D01*
X163940071Y-80665500D01*
X163746929Y-80665500D01*
X163746926Y-80665500D01*
X163557506Y-80703178D01*
X163557494Y-80703181D01*
X163379065Y-80777088D01*
X163379052Y-80777095D01*
X163218468Y-80884395D01*
X163218464Y-80884398D01*
X163081898Y-81020964D01*
X163081895Y-81020968D01*
X162974595Y-81181552D01*
X162974588Y-81181565D01*
X162900681Y-81359994D01*
X162900678Y-81360006D01*
X162863000Y-81549424D01*
X99438000Y-81549424D01*
X99438000Y-79913389D01*
X104337000Y-79913389D01*
X104337000Y-80086610D01*
X104348702Y-80160498D01*
X104364098Y-80257701D01*
X104417627Y-80422445D01*
X104496268Y-80576788D01*
X104598086Y-80716928D01*
X104720572Y-80839414D01*
X104860712Y-80941232D01*
X105015055Y-81019873D01*
X105179799Y-81073402D01*
X105350889Y-81100500D01*
X105350890Y-81100500D01*
X105524110Y-81100500D01*
X105524111Y-81100500D01*
X105695201Y-81073402D01*
X105859945Y-81019873D01*
X106014288Y-80941232D01*
X106154428Y-80839414D01*
X106276914Y-80716928D01*
X106378732Y-80576788D01*
X106457373Y-80422445D01*
X106510902Y-80257701D01*
X106538000Y-80086611D01*
X106538000Y-79913389D01*
X111337000Y-79913389D01*
X111337000Y-80086610D01*
X111348702Y-80160498D01*
X111364098Y-80257701D01*
X111417627Y-80422445D01*
X111496268Y-80576788D01*
X111598086Y-80716928D01*
X111720572Y-80839414D01*
X111860712Y-80941232D01*
X112015055Y-81019873D01*
X112179799Y-81073402D01*
X112350889Y-81100500D01*
X112350890Y-81100500D01*
X112524110Y-81100500D01*
X112524111Y-81100500D01*
X112695201Y-81073402D01*
X112859945Y-81019873D01*
X113010182Y-80943324D01*
X123007000Y-80943324D01*
X123007000Y-81056676D01*
X123019027Y-81101559D01*
X123036338Y-81166166D01*
X123036339Y-81166169D01*
X123093011Y-81264329D01*
X123093013Y-81264332D01*
X123093014Y-81264333D01*
X123173167Y-81344486D01*
X123173168Y-81344487D01*
X123173170Y-81344488D01*
X123222250Y-81372824D01*
X123271333Y-81401162D01*
X123380824Y-81430500D01*
X123380826Y-81430500D01*
X123494174Y-81430500D01*
X123494176Y-81430500D01*
X123603667Y-81401162D01*
X123701833Y-81344486D01*
X123781986Y-81264333D01*
X123838662Y-81166167D01*
X123868000Y-81056676D01*
X123868000Y-80943324D01*
X134507000Y-80943324D01*
X134507000Y-81056676D01*
X134519027Y-81101559D01*
X134536338Y-81166166D01*
X134536339Y-81166169D01*
X134593011Y-81264329D01*
X134593013Y-81264332D01*
X134593014Y-81264333D01*
X134673167Y-81344486D01*
X134673168Y-81344487D01*
X134673170Y-81344488D01*
X134722250Y-81372824D01*
X134771333Y-81401162D01*
X134880824Y-81430500D01*
X134880826Y-81430500D01*
X134994174Y-81430500D01*
X134994176Y-81430500D01*
X135103667Y-81401162D01*
X135201833Y-81344486D01*
X135281986Y-81264333D01*
X135338662Y-81166167D01*
X135368000Y-81056676D01*
X135368000Y-80943324D01*
X135338662Y-80833833D01*
X135281986Y-80735667D01*
X135201833Y-80655514D01*
X135201832Y-80655513D01*
X135201829Y-80655511D01*
X135103669Y-80598839D01*
X135103668Y-80598838D01*
X135103667Y-80598838D01*
X134994176Y-80569500D01*
X134880824Y-80569500D01*
X134771333Y-80598838D01*
X134771330Y-80598839D01*
X134673170Y-80655511D01*
X134673165Y-80655515D01*
X134593015Y-80735665D01*
X134593011Y-80735670D01*
X134536339Y-80833830D01*
X134536338Y-80833833D01*
X134507000Y-80943324D01*
X123868000Y-80943324D01*
X123838662Y-80833833D01*
X123781986Y-80735667D01*
X123701833Y-80655514D01*
X123701832Y-80655513D01*
X123701829Y-80655511D01*
X123603669Y-80598839D01*
X123603668Y-80598838D01*
X123603667Y-80598838D01*
X123494176Y-80569500D01*
X123380824Y-80569500D01*
X123271333Y-80598838D01*
X123271330Y-80598839D01*
X123173170Y-80655511D01*
X123173165Y-80655515D01*
X123093015Y-80735665D01*
X123093011Y-80735670D01*
X123036339Y-80833830D01*
X123036338Y-80833833D01*
X123007000Y-80943324D01*
X113010182Y-80943324D01*
X113014288Y-80941232D01*
X113154428Y-80839414D01*
X113276914Y-80716928D01*
X113378732Y-80576788D01*
X113457373Y-80422445D01*
X113510902Y-80257701D01*
X113538000Y-80086611D01*
X113538000Y-79913389D01*
X113510902Y-79742299D01*
X113488490Y-79673323D01*
X131007000Y-79673323D01*
X131007000Y-79786674D01*
X131036338Y-79896165D01*
X131036339Y-79896168D01*
X131093011Y-79994328D01*
X131093013Y-79994331D01*
X131093014Y-79994332D01*
X131173167Y-80074485D01*
X131173168Y-80074486D01*
X131173170Y-80074487D01*
X131194168Y-80086610D01*
X131271333Y-80131161D01*
X131380824Y-80160499D01*
X131380826Y-80160499D01*
X131494174Y-80160499D01*
X131494176Y-80160499D01*
X131603667Y-80131161D01*
X131701833Y-80074485D01*
X131781986Y-79994332D01*
X131838662Y-79896166D01*
X131868000Y-79786675D01*
X131868000Y-79673323D01*
X131838662Y-79563832D01*
X131781986Y-79465666D01*
X131701833Y-79385513D01*
X131701832Y-79385512D01*
X131701829Y-79385510D01*
X131603669Y-79328838D01*
X131603668Y-79328837D01*
X131603667Y-79328837D01*
X131494176Y-79299499D01*
X131380824Y-79299499D01*
X131271333Y-79328837D01*
X131271330Y-79328838D01*
X131173170Y-79385510D01*
X131173165Y-79385514D01*
X131093015Y-79465664D01*
X131093011Y-79465669D01*
X131036339Y-79563829D01*
X131036338Y-79563832D01*
X131007000Y-79673323D01*
X113488490Y-79673323D01*
X113457373Y-79577555D01*
X113457371Y-79577552D01*
X113457371Y-79577550D01*
X113378731Y-79423211D01*
X113276914Y-79283072D01*
X113154428Y-79160586D01*
X113014288Y-79058768D01*
X112917444Y-79009424D01*
X162863000Y-79009424D01*
X162863000Y-79202575D01*
X162900678Y-79391993D01*
X162900681Y-79392005D01*
X162974588Y-79570434D01*
X162974595Y-79570447D01*
X163081895Y-79731031D01*
X163081898Y-79731035D01*
X163218464Y-79867601D01*
X163218468Y-79867604D01*
X163379052Y-79974904D01*
X163379065Y-79974911D01*
X163557494Y-80048818D01*
X163557499Y-80048820D01*
X163686516Y-80074483D01*
X163746924Y-80086499D01*
X163746927Y-80086500D01*
X163746929Y-80086500D01*
X163940073Y-80086500D01*
X163940074Y-80086499D01*
X164129501Y-80048820D01*
X164307941Y-79974908D01*
X164468532Y-79867604D01*
X164605104Y-79731032D01*
X164712408Y-79570441D01*
X164786320Y-79392001D01*
X164824000Y-79202571D01*
X164824000Y-79009429D01*
X164824000Y-79009426D01*
X164823999Y-79009424D01*
X164811688Y-78947528D01*
X164808087Y-78929424D01*
X178063000Y-78929424D01*
X178063000Y-79122575D01*
X178100678Y-79311993D01*
X178100681Y-79312005D01*
X178174588Y-79490434D01*
X178174595Y-79490447D01*
X178281895Y-79651031D01*
X178281898Y-79651035D01*
X178418464Y-79787601D01*
X178418468Y-79787604D01*
X178579052Y-79894904D01*
X178579065Y-79894911D01*
X178757494Y-79968818D01*
X178757499Y-79968820D01*
X178946924Y-80006499D01*
X178946927Y-80006500D01*
X178946929Y-80006500D01*
X179140073Y-80006500D01*
X179140074Y-80006499D01*
X179329501Y-79968820D01*
X179504904Y-79896166D01*
X179507934Y-79894911D01*
X179507934Y-79894910D01*
X179507941Y-79894908D01*
X179668532Y-79787604D01*
X179805104Y-79651032D01*
X179912408Y-79490441D01*
X179986320Y-79312001D01*
X180024000Y-79122571D01*
X180024000Y-78929429D01*
X180024000Y-78929426D01*
X180023999Y-78929424D01*
X180002232Y-78819994D01*
X179986320Y-78739999D01*
X179955738Y-78666167D01*
X179912411Y-78561565D01*
X179912404Y-78561552D01*
X179805104Y-78400968D01*
X179805101Y-78400964D01*
X179668535Y-78264398D01*
X179668531Y-78264395D01*
X179507947Y-78157095D01*
X179507934Y-78157088D01*
X179329505Y-78083181D01*
X179329493Y-78083178D01*
X179140074Y-78045500D01*
X179140071Y-78045500D01*
X178946929Y-78045500D01*
X178946926Y-78045500D01*
X178757506Y-78083178D01*
X178757494Y-78083181D01*
X178579065Y-78157088D01*
X178579052Y-78157095D01*
X178418468Y-78264395D01*
X178418464Y-78264398D01*
X178281898Y-78400964D01*
X178281895Y-78400968D01*
X178174595Y-78561552D01*
X178174588Y-78561565D01*
X178100681Y-78739994D01*
X178100678Y-78740006D01*
X178063000Y-78929424D01*
X164808087Y-78929424D01*
X164786321Y-78820004D01*
X164786320Y-78820003D01*
X164786320Y-78819999D01*
X164763263Y-78764334D01*
X164712411Y-78641565D01*
X164712404Y-78641552D01*
X164605104Y-78480968D01*
X164605101Y-78480964D01*
X164468535Y-78344398D01*
X164468531Y-78344395D01*
X164307947Y-78237095D01*
X164307934Y-78237088D01*
X164129505Y-78163181D01*
X164129493Y-78163178D01*
X163940074Y-78125500D01*
X163940071Y-78125500D01*
X163746929Y-78125500D01*
X163746926Y-78125500D01*
X163557506Y-78163178D01*
X163557494Y-78163181D01*
X163379065Y-78237088D01*
X163379052Y-78237095D01*
X163218468Y-78344395D01*
X163218464Y-78344398D01*
X163081898Y-78480964D01*
X163081895Y-78480968D01*
X162974595Y-78641552D01*
X162974588Y-78641565D01*
X162900681Y-78819994D01*
X162900678Y-78820006D01*
X162863000Y-79009424D01*
X112917444Y-79009424D01*
X112859945Y-78980127D01*
X112695201Y-78926598D01*
X112695199Y-78926597D01*
X112695198Y-78926597D01*
X112534604Y-78901162D01*
X112524111Y-78899500D01*
X112350889Y-78899500D01*
X112340396Y-78901162D01*
X112179802Y-78926597D01*
X112015052Y-78980128D01*
X111860711Y-79058768D01*
X111780756Y-79116859D01*
X111720572Y-79160586D01*
X111720570Y-79160588D01*
X111720569Y-79160588D01*
X111598088Y-79283069D01*
X111598088Y-79283070D01*
X111598086Y-79283072D01*
X111586151Y-79299499D01*
X111496268Y-79423211D01*
X111417628Y-79577552D01*
X111364097Y-79742302D01*
X111337000Y-79913389D01*
X106538000Y-79913389D01*
X106510902Y-79742299D01*
X106457373Y-79577555D01*
X106378732Y-79423212D01*
X106276914Y-79283072D01*
X106154428Y-79160586D01*
X106014288Y-79058768D01*
X105859945Y-78980127D01*
X105695201Y-78926598D01*
X105695199Y-78926597D01*
X105695198Y-78926597D01*
X105534604Y-78901162D01*
X105524111Y-78899500D01*
X105350889Y-78899500D01*
X105340396Y-78901162D01*
X105179802Y-78926597D01*
X105015052Y-78980128D01*
X104860711Y-79058768D01*
X104780756Y-79116859D01*
X104720572Y-79160586D01*
X104720570Y-79160588D01*
X104720569Y-79160588D01*
X104598088Y-79283069D01*
X104598088Y-79283070D01*
X104598086Y-79283072D01*
X104586151Y-79299499D01*
X104496268Y-79423211D01*
X104417628Y-79577552D01*
X104364097Y-79742302D01*
X104337000Y-79913389D01*
X99438000Y-79913389D01*
X99438000Y-78443324D01*
X155507000Y-78443324D01*
X155507000Y-78556676D01*
X155529745Y-78641559D01*
X155536338Y-78666166D01*
X155536339Y-78666169D01*
X155593011Y-78764329D01*
X155593013Y-78764332D01*
X155593014Y-78764333D01*
X155673167Y-78844486D01*
X155771333Y-78901162D01*
X155880824Y-78930500D01*
X155880826Y-78930500D01*
X155994174Y-78930500D01*
X155994176Y-78930500D01*
X156103667Y-78901162D01*
X156201833Y-78844486D01*
X156281986Y-78764333D01*
X156338662Y-78666167D01*
X156368000Y-78556676D01*
X156368000Y-78443324D01*
X156338662Y-78333833D01*
X156298572Y-78264395D01*
X156281988Y-78235670D01*
X156281984Y-78235665D01*
X156201834Y-78155515D01*
X156201829Y-78155511D01*
X156103669Y-78098839D01*
X156103668Y-78098838D01*
X156103667Y-78098838D01*
X155994176Y-78069500D01*
X155880824Y-78069500D01*
X155771333Y-78098838D01*
X155771330Y-78098839D01*
X155673170Y-78155511D01*
X155673165Y-78155515D01*
X155593015Y-78235665D01*
X155593011Y-78235670D01*
X155536339Y-78333830D01*
X155536338Y-78333833D01*
X155507000Y-78443324D01*
X99438000Y-78443324D01*
X99438000Y-77624316D01*
X129583000Y-77624316D01*
X129583000Y-77737667D01*
X129612338Y-77847158D01*
X129612339Y-77847161D01*
X129669011Y-77945321D01*
X129669013Y-77945324D01*
X129669014Y-77945325D01*
X129749167Y-78025478D01*
X129847333Y-78082154D01*
X129956824Y-78111492D01*
X129956826Y-78111492D01*
X130070174Y-78111492D01*
X130070176Y-78111492D01*
X130179667Y-78082154D01*
X130277833Y-78025478D01*
X130357986Y-77945325D01*
X130414662Y-77847159D01*
X130444000Y-77737668D01*
X130444000Y-77624316D01*
X130414662Y-77514825D01*
X130357986Y-77416659D01*
X130277833Y-77336506D01*
X130277832Y-77336505D01*
X130277829Y-77336503D01*
X130179669Y-77279831D01*
X130179668Y-77279830D01*
X130179667Y-77279830D01*
X130070176Y-77250492D01*
X129956824Y-77250492D01*
X129847333Y-77279830D01*
X129847330Y-77279831D01*
X129749170Y-77336503D01*
X129749165Y-77336507D01*
X129669015Y-77416657D01*
X129669011Y-77416662D01*
X129612339Y-77514822D01*
X129612338Y-77514825D01*
X129583000Y-77624316D01*
X99438000Y-77624316D01*
X99438000Y-76943324D01*
X113007000Y-76943324D01*
X113007000Y-77056676D01*
X113021566Y-77111035D01*
X113036338Y-77166166D01*
X113036339Y-77166169D01*
X113093011Y-77264329D01*
X113093013Y-77264332D01*
X113093014Y-77264333D01*
X113173167Y-77344486D01*
X113173168Y-77344487D01*
X113173170Y-77344488D01*
X113222250Y-77372824D01*
X113271333Y-77401162D01*
X113380824Y-77430500D01*
X113380826Y-77430500D01*
X113494174Y-77430500D01*
X113494176Y-77430500D01*
X113603667Y-77401162D01*
X113701833Y-77344486D01*
X113781986Y-77264333D01*
X113838662Y-77166167D01*
X113868000Y-77056676D01*
X113868000Y-76943324D01*
X115007000Y-76943324D01*
X115007000Y-77056676D01*
X115021566Y-77111035D01*
X115036338Y-77166166D01*
X115036339Y-77166169D01*
X115093011Y-77264329D01*
X115093013Y-77264332D01*
X115093014Y-77264333D01*
X115173167Y-77344486D01*
X115173168Y-77344487D01*
X115173170Y-77344488D01*
X115222250Y-77372824D01*
X115271333Y-77401162D01*
X115380824Y-77430500D01*
X115380826Y-77430500D01*
X115494174Y-77430500D01*
X115494176Y-77430500D01*
X115603667Y-77401162D01*
X115701833Y-77344486D01*
X115781986Y-77264333D01*
X115838662Y-77166167D01*
X115868000Y-77056676D01*
X115868000Y-76943324D01*
X115838662Y-76833833D01*
X115781986Y-76735667D01*
X115701833Y-76655514D01*
X115701832Y-76655513D01*
X115701829Y-76655511D01*
X115603669Y-76598839D01*
X115603668Y-76598838D01*
X115603667Y-76598838D01*
X115494176Y-76569500D01*
X115380824Y-76569500D01*
X115271333Y-76598838D01*
X115271330Y-76598839D01*
X115173170Y-76655511D01*
X115173165Y-76655515D01*
X115093015Y-76735665D01*
X115093011Y-76735670D01*
X115036339Y-76833830D01*
X115036338Y-76833833D01*
X115007000Y-76943324D01*
X113868000Y-76943324D01*
X113838662Y-76833833D01*
X113781986Y-76735667D01*
X113701833Y-76655514D01*
X113701832Y-76655513D01*
X113701829Y-76655511D01*
X113603669Y-76598839D01*
X113603668Y-76598838D01*
X113603667Y-76598838D01*
X113494176Y-76569500D01*
X113380824Y-76569500D01*
X113271333Y-76598838D01*
X113271330Y-76598839D01*
X113173170Y-76655511D01*
X113173165Y-76655515D01*
X113093015Y-76735665D01*
X113093011Y-76735670D01*
X113036339Y-76833830D01*
X113036338Y-76833833D01*
X113007000Y-76943324D01*
X99438000Y-76943324D01*
X99438000Y-76469424D01*
X162863000Y-76469424D01*
X162863000Y-76662575D01*
X162900678Y-76851993D01*
X162900681Y-76852005D01*
X162974588Y-77030434D01*
X162974595Y-77030447D01*
X163081895Y-77191031D01*
X163081898Y-77191035D01*
X163218464Y-77327601D01*
X163218468Y-77327604D01*
X163379052Y-77434904D01*
X163379065Y-77434911D01*
X163557494Y-77508818D01*
X163557499Y-77508820D01*
X163746924Y-77546499D01*
X163746927Y-77546500D01*
X163746929Y-77546500D01*
X163940073Y-77546500D01*
X163940074Y-77546499D01*
X164129501Y-77508820D01*
X164307941Y-77434908D01*
X164468532Y-77327604D01*
X164605104Y-77191032D01*
X164712408Y-77030441D01*
X164786320Y-76852001D01*
X164824000Y-76662571D01*
X164824000Y-76469429D01*
X164824000Y-76469426D01*
X164823999Y-76469424D01*
X164811688Y-76407528D01*
X164808087Y-76389424D01*
X178063000Y-76389424D01*
X178063000Y-76582575D01*
X178100678Y-76771993D01*
X178100681Y-76772005D01*
X178174588Y-76950434D01*
X178174595Y-76950447D01*
X178281895Y-77111031D01*
X178281898Y-77111035D01*
X178418464Y-77247601D01*
X178418468Y-77247604D01*
X178579052Y-77354904D01*
X178579065Y-77354911D01*
X178728147Y-77416662D01*
X178757499Y-77428820D01*
X178946924Y-77466499D01*
X178946927Y-77466500D01*
X178946929Y-77466500D01*
X179140073Y-77466500D01*
X179140074Y-77466499D01*
X179329501Y-77428820D01*
X179507941Y-77354908D01*
X179668532Y-77247604D01*
X179805104Y-77111032D01*
X179912408Y-76950441D01*
X179986320Y-76772001D01*
X180024000Y-76582571D01*
X180024000Y-76389429D01*
X180024000Y-76389426D01*
X180023999Y-76389424D01*
X179986321Y-76200006D01*
X179986320Y-76199999D01*
X179986318Y-76199994D01*
X179912411Y-76021565D01*
X179912404Y-76021552D01*
X179805104Y-75860968D01*
X179805101Y-75860964D01*
X179668535Y-75724398D01*
X179668531Y-75724395D01*
X179507947Y-75617095D01*
X179507934Y-75617088D01*
X179329505Y-75543181D01*
X179329493Y-75543178D01*
X179140074Y-75505500D01*
X179140071Y-75505500D01*
X178946929Y-75505500D01*
X178946926Y-75505500D01*
X178757506Y-75543178D01*
X178757494Y-75543181D01*
X178579065Y-75617088D01*
X178579052Y-75617095D01*
X178418468Y-75724395D01*
X178418464Y-75724398D01*
X178281898Y-75860964D01*
X178281895Y-75860968D01*
X178174595Y-76021552D01*
X178174588Y-76021565D01*
X178100681Y-76199994D01*
X178100678Y-76200006D01*
X178063000Y-76389424D01*
X164808087Y-76389424D01*
X164786321Y-76280004D01*
X164786320Y-76280003D01*
X164786320Y-76279999D01*
X164753181Y-76199994D01*
X164712411Y-76101565D01*
X164712404Y-76101552D01*
X164605104Y-75940968D01*
X164605101Y-75940964D01*
X164468535Y-75804398D01*
X164468531Y-75804395D01*
X164307947Y-75697095D01*
X164307934Y-75697088D01*
X164129505Y-75623181D01*
X164129493Y-75623178D01*
X163940074Y-75585500D01*
X163940071Y-75585500D01*
X163746929Y-75585500D01*
X163746926Y-75585500D01*
X163557506Y-75623178D01*
X163557494Y-75623181D01*
X163379065Y-75697088D01*
X163379052Y-75697095D01*
X163218468Y-75804395D01*
X163218464Y-75804398D01*
X163081898Y-75940964D01*
X163081895Y-75940968D01*
X162974595Y-76101552D01*
X162974588Y-76101565D01*
X162900681Y-76279994D01*
X162900678Y-76280006D01*
X162863000Y-76469424D01*
X99438000Y-76469424D01*
X99438000Y-74443324D01*
X123007000Y-74443324D01*
X123007000Y-74556676D01*
X123032284Y-74651035D01*
X123036338Y-74666166D01*
X123036339Y-74666169D01*
X123093011Y-74764329D01*
X123093013Y-74764332D01*
X123093014Y-74764333D01*
X123173167Y-74844486D01*
X123271333Y-74901162D01*
X123380824Y-74930500D01*
X123380826Y-74930500D01*
X123494174Y-74930500D01*
X123494176Y-74930500D01*
X123603667Y-74901162D01*
X123701833Y-74844486D01*
X123781986Y-74764333D01*
X123838662Y-74666167D01*
X123868000Y-74556676D01*
X123868000Y-74443324D01*
X123838662Y-74333833D01*
X123781986Y-74235667D01*
X123701833Y-74155514D01*
X123701832Y-74155513D01*
X123701829Y-74155511D01*
X123603669Y-74098839D01*
X123603668Y-74098838D01*
X123603667Y-74098838D01*
X123494176Y-74069500D01*
X123380824Y-74069500D01*
X123271333Y-74098838D01*
X123271330Y-74098839D01*
X123173170Y-74155511D01*
X123173165Y-74155515D01*
X123093015Y-74235665D01*
X123093011Y-74235670D01*
X123036339Y-74333830D01*
X123036338Y-74333833D01*
X123007000Y-74443324D01*
X99438000Y-74443324D01*
X99438000Y-73929424D01*
X162863000Y-73929424D01*
X162863000Y-74122575D01*
X162900678Y-74311993D01*
X162900681Y-74312005D01*
X162974588Y-74490434D01*
X162974595Y-74490447D01*
X163081895Y-74651031D01*
X163081898Y-74651035D01*
X163218464Y-74787601D01*
X163218468Y-74787604D01*
X163379052Y-74894904D01*
X163379065Y-74894911D01*
X163557494Y-74968818D01*
X163557499Y-74968820D01*
X163746924Y-75006499D01*
X163746927Y-75006500D01*
X163746929Y-75006500D01*
X163940073Y-75006500D01*
X163940074Y-75006499D01*
X164129501Y-74968820D01*
X164267509Y-74911655D01*
X164307934Y-74894911D01*
X164307934Y-74894910D01*
X164307941Y-74894908D01*
X164468532Y-74787604D01*
X164605104Y-74651032D01*
X164712408Y-74490441D01*
X164786320Y-74312001D01*
X164824000Y-74122571D01*
X164824000Y-73929429D01*
X164824000Y-73929426D01*
X164823999Y-73929424D01*
X164811688Y-73867528D01*
X164808087Y-73849424D01*
X178063000Y-73849424D01*
X178063000Y-74042575D01*
X178100678Y-74231993D01*
X178100681Y-74232005D01*
X178174588Y-74410434D01*
X178174595Y-74410447D01*
X178281895Y-74571031D01*
X178281898Y-74571035D01*
X178418464Y-74707601D01*
X178418468Y-74707604D01*
X178579052Y-74814904D01*
X178579065Y-74814911D01*
X178757494Y-74888818D01*
X178757499Y-74888820D01*
X178946924Y-74926499D01*
X178946927Y-74926500D01*
X178946929Y-74926500D01*
X179140073Y-74926500D01*
X179140074Y-74926499D01*
X179329501Y-74888820D01*
X179507941Y-74814908D01*
X179668532Y-74707604D01*
X179805104Y-74571032D01*
X179912408Y-74410441D01*
X179986320Y-74232001D01*
X180024000Y-74042571D01*
X180024000Y-73849429D01*
X180024000Y-73849426D01*
X180023999Y-73849424D01*
X179986321Y-73660006D01*
X179986320Y-73659999D01*
X179986318Y-73659994D01*
X179912411Y-73481565D01*
X179912404Y-73481552D01*
X179805104Y-73320968D01*
X179805101Y-73320964D01*
X179668535Y-73184398D01*
X179668531Y-73184395D01*
X179507947Y-73077095D01*
X179507934Y-73077088D01*
X179329505Y-73003181D01*
X179329493Y-73003178D01*
X179140074Y-72965500D01*
X179140071Y-72965500D01*
X178946929Y-72965500D01*
X178946926Y-72965500D01*
X178757506Y-73003178D01*
X178757494Y-73003181D01*
X178579065Y-73077088D01*
X178579052Y-73077095D01*
X178418468Y-73184395D01*
X178418464Y-73184398D01*
X178281898Y-73320964D01*
X178281895Y-73320968D01*
X178174595Y-73481552D01*
X178174588Y-73481565D01*
X178100681Y-73659994D01*
X178100678Y-73660006D01*
X178063000Y-73849424D01*
X164808087Y-73849424D01*
X164786321Y-73740004D01*
X164786320Y-73740003D01*
X164786320Y-73739999D01*
X164753181Y-73659994D01*
X164712411Y-73561565D01*
X164712404Y-73561552D01*
X164605104Y-73400968D01*
X164605101Y-73400964D01*
X164468535Y-73264398D01*
X164468531Y-73264395D01*
X164307947Y-73157095D01*
X164307934Y-73157088D01*
X164129505Y-73083181D01*
X164129493Y-73083178D01*
X163940074Y-73045500D01*
X163940071Y-73045500D01*
X163746929Y-73045500D01*
X163746926Y-73045500D01*
X163557506Y-73083178D01*
X163557494Y-73083181D01*
X163379065Y-73157088D01*
X163379052Y-73157095D01*
X163218468Y-73264395D01*
X163218464Y-73264398D01*
X163081898Y-73400964D01*
X163081895Y-73400968D01*
X162974595Y-73561552D01*
X162974588Y-73561565D01*
X162900681Y-73739994D01*
X162900678Y-73740006D01*
X162863000Y-73929424D01*
X99438000Y-73929424D01*
X99438000Y-71137141D01*
X106457000Y-71137141D01*
X106457000Y-72862850D01*
X106457001Y-72862858D01*
X106464570Y-72900916D01*
X106464571Y-72900919D01*
X106493414Y-72944086D01*
X106536581Y-72972929D01*
X106574645Y-72980500D01*
X108300354Y-72980499D01*
X108338419Y-72972929D01*
X108381586Y-72944086D01*
X108410429Y-72900919D01*
X108418000Y-72862855D01*
X108417999Y-71137146D01*
X108417998Y-71137141D01*
X110457000Y-71137141D01*
X110457000Y-72862850D01*
X110457001Y-72862858D01*
X110464570Y-72900916D01*
X110464571Y-72900919D01*
X110493414Y-72944086D01*
X110536581Y-72972929D01*
X110574645Y-72980500D01*
X112300354Y-72980499D01*
X112338419Y-72972929D01*
X112381586Y-72944086D01*
X112410429Y-72900919D01*
X112418000Y-72862855D01*
X112417999Y-71137146D01*
X112417998Y-71137141D01*
X114457000Y-71137141D01*
X114457000Y-72862850D01*
X114457001Y-72862858D01*
X114464570Y-72900916D01*
X114464571Y-72900919D01*
X114493414Y-72944086D01*
X114536581Y-72972929D01*
X114574645Y-72980500D01*
X116300354Y-72980499D01*
X116338419Y-72972929D01*
X116381586Y-72944086D01*
X116410429Y-72900919D01*
X116418000Y-72862855D01*
X116417999Y-71137146D01*
X116417998Y-71137141D01*
X118457000Y-71137141D01*
X118457000Y-72862850D01*
X118457001Y-72862858D01*
X118464570Y-72900916D01*
X118464571Y-72900919D01*
X118493414Y-72944086D01*
X118536581Y-72972929D01*
X118574645Y-72980500D01*
X120300354Y-72980499D01*
X120338419Y-72972929D01*
X120381586Y-72944086D01*
X120410429Y-72900919D01*
X120418000Y-72862855D01*
X120417999Y-71903424D01*
X120997000Y-71903424D01*
X120997000Y-72096575D01*
X121034678Y-72285993D01*
X121034681Y-72286005D01*
X121108588Y-72464434D01*
X121108595Y-72464447D01*
X121215895Y-72625031D01*
X121215898Y-72625035D01*
X121352464Y-72761601D01*
X121352468Y-72761604D01*
X121513052Y-72868904D01*
X121513065Y-72868911D01*
X121691494Y-72942818D01*
X121691499Y-72942820D01*
X121842862Y-72972928D01*
X121880924Y-72980499D01*
X121880927Y-72980500D01*
X121880929Y-72980500D01*
X122074073Y-72980500D01*
X122074074Y-72980499D01*
X122263501Y-72942820D01*
X122441941Y-72868908D01*
X122602532Y-72761604D01*
X122739104Y-72625032D01*
X122846408Y-72464441D01*
X122920320Y-72286001D01*
X122958000Y-72096571D01*
X122958000Y-71903429D01*
X122958000Y-71903426D01*
X122957999Y-71903424D01*
X123537000Y-71903424D01*
X123537000Y-72096575D01*
X123574678Y-72285993D01*
X123574681Y-72286005D01*
X123648588Y-72464434D01*
X123648595Y-72464447D01*
X123755895Y-72625031D01*
X123755898Y-72625035D01*
X123892464Y-72761601D01*
X123892468Y-72761604D01*
X124053052Y-72868904D01*
X124053065Y-72868911D01*
X124231494Y-72942818D01*
X124231499Y-72942820D01*
X124382862Y-72972928D01*
X124420924Y-72980499D01*
X124420927Y-72980500D01*
X124420929Y-72980500D01*
X124614073Y-72980500D01*
X124614074Y-72980499D01*
X124803501Y-72942820D01*
X124981941Y-72868908D01*
X125142532Y-72761604D01*
X125279104Y-72625032D01*
X125386408Y-72464441D01*
X125460320Y-72286001D01*
X125498000Y-72096571D01*
X125498000Y-71903429D01*
X125498000Y-71903426D01*
X125497999Y-71903424D01*
X125471857Y-71772001D01*
X125460320Y-71713999D01*
X125405881Y-71582571D01*
X125386411Y-71535565D01*
X125386404Y-71535552D01*
X125279104Y-71374968D01*
X125279101Y-71374964D01*
X125142535Y-71238398D01*
X125142531Y-71238395D01*
X125136187Y-71234156D01*
X124990995Y-71137141D01*
X127917000Y-71137141D01*
X127917000Y-72862850D01*
X127917001Y-72862858D01*
X127924570Y-72900916D01*
X127924571Y-72900919D01*
X127953414Y-72944086D01*
X127996581Y-72972929D01*
X128034645Y-72980500D01*
X129760354Y-72980499D01*
X129798419Y-72972929D01*
X129841586Y-72944086D01*
X129870429Y-72900919D01*
X129878000Y-72862855D01*
X129877999Y-71903424D01*
X130457000Y-71903424D01*
X130457000Y-72096575D01*
X130494678Y-72285993D01*
X130494681Y-72286005D01*
X130568588Y-72464434D01*
X130568595Y-72464447D01*
X130675895Y-72625031D01*
X130675898Y-72625035D01*
X130812464Y-72761601D01*
X130812468Y-72761604D01*
X130973052Y-72868904D01*
X130973065Y-72868911D01*
X131151494Y-72942818D01*
X131151499Y-72942820D01*
X131302862Y-72972928D01*
X131340924Y-72980499D01*
X131340927Y-72980500D01*
X131340929Y-72980500D01*
X131534073Y-72980500D01*
X131534074Y-72980499D01*
X131723501Y-72942820D01*
X131901941Y-72868908D01*
X132062532Y-72761604D01*
X132199104Y-72625032D01*
X132306408Y-72464441D01*
X132380320Y-72286001D01*
X132418000Y-72096571D01*
X132418000Y-71903429D01*
X132418000Y-71903426D01*
X132417999Y-71903424D01*
X132997000Y-71903424D01*
X132997000Y-72096575D01*
X133034678Y-72285993D01*
X133034681Y-72286005D01*
X133108588Y-72464434D01*
X133108595Y-72464447D01*
X133215895Y-72625031D01*
X133215898Y-72625035D01*
X133352464Y-72761601D01*
X133352468Y-72761604D01*
X133513052Y-72868904D01*
X133513065Y-72868911D01*
X133691494Y-72942818D01*
X133691499Y-72942820D01*
X133842862Y-72972928D01*
X133880924Y-72980499D01*
X133880927Y-72980500D01*
X133880929Y-72980500D01*
X134074073Y-72980500D01*
X134074074Y-72980499D01*
X134263501Y-72942820D01*
X134441941Y-72868908D01*
X134602532Y-72761604D01*
X134739104Y-72625032D01*
X134846408Y-72464441D01*
X134920320Y-72286001D01*
X134958000Y-72096571D01*
X134958000Y-71903429D01*
X134958000Y-71903426D01*
X134957999Y-71903424D01*
X134931857Y-71772001D01*
X134920320Y-71713999D01*
X134865881Y-71582571D01*
X134846411Y-71535565D01*
X134846404Y-71535552D01*
X134739104Y-71374968D01*
X134739101Y-71374964D01*
X134602535Y-71238398D01*
X134602531Y-71238395D01*
X134596187Y-71234156D01*
X134450995Y-71137141D01*
X137457000Y-71137141D01*
X137457000Y-72862850D01*
X137457001Y-72862858D01*
X137464570Y-72900916D01*
X137464571Y-72900919D01*
X137493414Y-72944086D01*
X137536581Y-72972929D01*
X137574645Y-72980500D01*
X139300354Y-72980499D01*
X139338419Y-72972929D01*
X139381586Y-72944086D01*
X139410429Y-72900919D01*
X139418000Y-72862855D01*
X139417999Y-71137146D01*
X139417998Y-71137141D01*
X141457000Y-71137141D01*
X141457000Y-72862850D01*
X141457001Y-72862858D01*
X141464570Y-72900916D01*
X141464571Y-72900919D01*
X141493414Y-72944086D01*
X141536581Y-72972929D01*
X141574645Y-72980500D01*
X143300354Y-72980499D01*
X143338419Y-72972929D01*
X143381586Y-72944086D01*
X143410429Y-72900919D01*
X143418000Y-72862855D01*
X143417999Y-71137146D01*
X143417998Y-71137141D01*
X146457000Y-71137141D01*
X146457000Y-72862850D01*
X146457001Y-72862858D01*
X146464570Y-72900916D01*
X146464571Y-72900919D01*
X146493414Y-72944086D01*
X146536581Y-72972929D01*
X146574645Y-72980500D01*
X148300354Y-72980499D01*
X148338419Y-72972929D01*
X148381586Y-72944086D01*
X148410429Y-72900919D01*
X148418000Y-72862855D01*
X148417999Y-71137146D01*
X148417998Y-71137141D01*
X150957000Y-71137141D01*
X150957000Y-72862850D01*
X150957001Y-72862858D01*
X150964570Y-72900916D01*
X150964571Y-72900919D01*
X150993414Y-72944086D01*
X151036581Y-72972929D01*
X151074645Y-72980500D01*
X152800354Y-72980499D01*
X152838419Y-72972929D01*
X152881586Y-72944086D01*
X152910429Y-72900919D01*
X152918000Y-72862855D01*
X152917999Y-71137146D01*
X152910429Y-71099081D01*
X152881586Y-71055914D01*
X152838419Y-71027071D01*
X152838418Y-71027070D01*
X152800357Y-71019500D01*
X151074649Y-71019500D01*
X151074641Y-71019501D01*
X151036583Y-71027070D01*
X151036580Y-71027071D01*
X150993414Y-71055914D01*
X150964570Y-71099081D01*
X150957000Y-71137141D01*
X148417998Y-71137141D01*
X148410429Y-71099081D01*
X148381586Y-71055914D01*
X148338419Y-71027071D01*
X148338418Y-71027070D01*
X148300357Y-71019500D01*
X146574649Y-71019500D01*
X146574641Y-71019501D01*
X146536583Y-71027070D01*
X146536580Y-71027071D01*
X146493414Y-71055914D01*
X146464570Y-71099081D01*
X146457000Y-71137141D01*
X143417998Y-71137141D01*
X143410429Y-71099081D01*
X143381586Y-71055914D01*
X143338419Y-71027071D01*
X143338418Y-71027070D01*
X143300357Y-71019500D01*
X141574649Y-71019500D01*
X141574641Y-71019501D01*
X141536583Y-71027070D01*
X141536580Y-71027071D01*
X141493414Y-71055914D01*
X141464570Y-71099081D01*
X141457000Y-71137141D01*
X139417998Y-71137141D01*
X139410429Y-71099081D01*
X139381586Y-71055914D01*
X139338419Y-71027071D01*
X139338418Y-71027070D01*
X139300357Y-71019500D01*
X137574649Y-71019500D01*
X137574641Y-71019501D01*
X137536583Y-71027070D01*
X137536580Y-71027071D01*
X137493414Y-71055914D01*
X137464570Y-71099081D01*
X137457000Y-71137141D01*
X134450995Y-71137141D01*
X134441947Y-71131095D01*
X134441934Y-71131088D01*
X134263505Y-71057181D01*
X134263493Y-71057178D01*
X134074074Y-71019500D01*
X134074071Y-71019500D01*
X133880929Y-71019500D01*
X133880926Y-71019500D01*
X133691506Y-71057178D01*
X133691494Y-71057181D01*
X133513065Y-71131088D01*
X133513052Y-71131095D01*
X133352468Y-71238395D01*
X133352464Y-71238398D01*
X133215898Y-71374964D01*
X133215895Y-71374968D01*
X133108595Y-71535552D01*
X133108588Y-71535565D01*
X133034681Y-71713994D01*
X133034678Y-71714006D01*
X132997000Y-71903424D01*
X132417999Y-71903424D01*
X132391857Y-71772001D01*
X132380320Y-71713999D01*
X132325881Y-71582571D01*
X132306411Y-71535565D01*
X132306404Y-71535552D01*
X132199104Y-71374968D01*
X132199101Y-71374964D01*
X132062535Y-71238398D01*
X132062531Y-71238395D01*
X131901947Y-71131095D01*
X131901934Y-71131088D01*
X131723505Y-71057181D01*
X131723493Y-71057178D01*
X131534074Y-71019500D01*
X131534071Y-71019500D01*
X131340929Y-71019500D01*
X131340926Y-71019500D01*
X131151506Y-71057178D01*
X131151494Y-71057181D01*
X130973065Y-71131088D01*
X130973052Y-71131095D01*
X130812468Y-71238395D01*
X130812464Y-71238398D01*
X130675898Y-71374964D01*
X130675895Y-71374968D01*
X130568595Y-71535552D01*
X130568588Y-71535565D01*
X130494681Y-71713994D01*
X130494678Y-71714006D01*
X130457000Y-71903424D01*
X129877999Y-71903424D01*
X129877999Y-71137146D01*
X129870429Y-71099081D01*
X129841586Y-71055914D01*
X129798419Y-71027071D01*
X129798418Y-71027070D01*
X129760358Y-71019500D01*
X128669215Y-71019500D01*
X128602176Y-70999815D01*
X128556421Y-70947011D01*
X128546477Y-70877853D01*
X128575502Y-70814297D01*
X128607212Y-70788115D01*
X128701833Y-70733486D01*
X128781986Y-70653333D01*
X128838662Y-70555167D01*
X128868000Y-70445676D01*
X128868000Y-70332324D01*
X128838662Y-70222833D01*
X128781986Y-70124667D01*
X128701833Y-70044514D01*
X128701832Y-70044513D01*
X128701829Y-70044511D01*
X128603669Y-69987839D01*
X128603668Y-69987838D01*
X128603667Y-69987838D01*
X128494176Y-69958500D01*
X128380824Y-69958500D01*
X128271333Y-69987838D01*
X128271330Y-69987839D01*
X128173170Y-70044511D01*
X128173165Y-70044515D01*
X128093015Y-70124665D01*
X128093011Y-70124670D01*
X128036339Y-70222830D01*
X128036338Y-70222833D01*
X128007000Y-70332324D01*
X128007000Y-70445676D01*
X128028184Y-70524733D01*
X128036338Y-70555166D01*
X128036339Y-70555169D01*
X128093011Y-70653329D01*
X128093013Y-70653332D01*
X128093014Y-70653333D01*
X128173167Y-70733486D01*
X128267786Y-70788114D01*
X128316000Y-70838679D01*
X128329224Y-70907286D01*
X128303256Y-70972151D01*
X128246342Y-71012680D01*
X128205786Y-71019500D01*
X128034649Y-71019500D01*
X128034641Y-71019501D01*
X127996583Y-71027070D01*
X127996580Y-71027071D01*
X127953414Y-71055914D01*
X127924570Y-71099081D01*
X127917000Y-71137141D01*
X124990995Y-71137141D01*
X124981947Y-71131095D01*
X124981934Y-71131088D01*
X124803505Y-71057181D01*
X124803493Y-71057178D01*
X124614074Y-71019500D01*
X124614071Y-71019500D01*
X124420929Y-71019500D01*
X124420926Y-71019500D01*
X124231506Y-71057178D01*
X124231494Y-71057181D01*
X124053065Y-71131088D01*
X124053052Y-71131095D01*
X123892468Y-71238395D01*
X123892464Y-71238398D01*
X123755898Y-71374964D01*
X123755895Y-71374968D01*
X123648595Y-71535552D01*
X123648588Y-71535565D01*
X123574681Y-71713994D01*
X123574678Y-71714006D01*
X123537000Y-71903424D01*
X122957999Y-71903424D01*
X122931857Y-71772001D01*
X122920320Y-71713999D01*
X122865881Y-71582571D01*
X122846411Y-71535565D01*
X122846404Y-71535552D01*
X122739104Y-71374968D01*
X122739101Y-71374964D01*
X122602535Y-71238398D01*
X122602531Y-71238395D01*
X122441947Y-71131095D01*
X122441934Y-71131088D01*
X122263505Y-71057181D01*
X122263493Y-71057178D01*
X122074074Y-71019500D01*
X122074071Y-71019500D01*
X121880929Y-71019500D01*
X121880926Y-71019500D01*
X121691506Y-71057178D01*
X121691494Y-71057181D01*
X121513065Y-71131088D01*
X121513052Y-71131095D01*
X121352468Y-71238395D01*
X121352464Y-71238398D01*
X121215898Y-71374964D01*
X121215895Y-71374968D01*
X121108595Y-71535552D01*
X121108588Y-71535565D01*
X121034681Y-71713994D01*
X121034678Y-71714006D01*
X120997000Y-71903424D01*
X120417999Y-71903424D01*
X120417999Y-71137146D01*
X120410429Y-71099081D01*
X120381586Y-71055914D01*
X120338419Y-71027071D01*
X120338418Y-71027070D01*
X120300357Y-71019500D01*
X118574649Y-71019500D01*
X118574641Y-71019501D01*
X118536583Y-71027070D01*
X118536580Y-71027071D01*
X118493414Y-71055914D01*
X118464570Y-71099081D01*
X118457000Y-71137141D01*
X116417998Y-71137141D01*
X116410429Y-71099081D01*
X116381586Y-71055914D01*
X116338419Y-71027071D01*
X116338418Y-71027070D01*
X116300357Y-71019500D01*
X114574649Y-71019500D01*
X114574641Y-71019501D01*
X114536583Y-71027070D01*
X114536580Y-71027071D01*
X114493414Y-71055914D01*
X114464570Y-71099081D01*
X114457000Y-71137141D01*
X112417998Y-71137141D01*
X112410429Y-71099081D01*
X112381586Y-71055914D01*
X112338419Y-71027071D01*
X112338418Y-71027070D01*
X112300357Y-71019500D01*
X110574649Y-71019500D01*
X110574641Y-71019501D01*
X110536583Y-71027070D01*
X110536580Y-71027071D01*
X110493414Y-71055914D01*
X110464570Y-71099081D01*
X110457000Y-71137141D01*
X108417998Y-71137141D01*
X108410429Y-71099081D01*
X108381586Y-71055914D01*
X108338419Y-71027071D01*
X108338418Y-71027070D01*
X108300357Y-71019500D01*
X106574649Y-71019500D01*
X106574641Y-71019501D01*
X106536583Y-71027070D01*
X106536580Y-71027071D01*
X106493414Y-71055914D01*
X106464570Y-71099081D01*
X106457000Y-71137141D01*
X99438000Y-71137141D01*
X99438000Y-69124500D01*
X99457685Y-69057461D01*
X99510489Y-69011706D01*
X99562000Y-69000500D01*
X159813500Y-69000500D01*
X159880539Y-69020185D01*
G37*
%TD.AperFunction*%
%TD*%
M02*
