%TF.GenerationSoftware,KiCad,Pcbnew,9.0.7*%
%TF.CreationDate,2026-06-11T13:07:40+03:00*%
%TF.ProjectId,PCB,5043422e-6b69-4636-9164-5f7063625858,rev?*%
%TF.SameCoordinates,Original*%
%TF.FileFunction,Legend,Top*%
%TF.FilePolarity,Positive*%
%FSLAX46Y46*%
G04 Gerber Fmt 4.6, Leading zero omitted, Abs format (unit mm)*
G04 Created by KiCad (PCBNEW 9.0.7) date 2026-06-11 13:07:40*
%MOMM*%
%LPD*%
G01*
G04 APERTURE LIST*
%ADD10C,0.300000*%
%ADD11C,0.150000*%
%ADD12C,0.120000*%
%ADD13C,0.000000*%
%ADD14C,0.152400*%
%ADD15C,0.127000*%
G04 APERTURE END LIST*
D10*
G36*
X77494227Y-177317963D02*
G01*
X77516946Y-177340682D01*
X77547367Y-177401524D01*
X77547367Y-177502132D01*
X77516946Y-177562974D01*
X77494227Y-177585693D01*
X77433385Y-177616114D01*
X77161653Y-177616114D01*
X77161653Y-177287542D01*
X77433385Y-177287542D01*
X77494227Y-177317963D01*
G37*
G36*
X80165913Y-178637542D02*
G01*
X75512831Y-178637542D01*
X75512831Y-177156303D01*
X75662831Y-177156303D01*
X75669351Y-177184976D01*
X76069350Y-178384976D01*
X76081339Y-178411827D01*
X76088361Y-178419923D01*
X76093154Y-178429509D01*
X76107362Y-178441832D01*
X76119686Y-178456041D01*
X76129271Y-178460833D01*
X76137368Y-178467856D01*
X76155209Y-178473803D01*
X76172033Y-178482215D01*
X76182724Y-178482974D01*
X76192892Y-178486364D01*
X76211653Y-178485030D01*
X76230414Y-178486364D01*
X76240581Y-178482974D01*
X76251273Y-178482215D01*
X76268096Y-178473803D01*
X76285938Y-178467856D01*
X76294034Y-178460833D01*
X76303620Y-178456041D01*
X76315943Y-178441832D01*
X76330152Y-178429509D01*
X76334944Y-178419923D01*
X76341967Y-178411827D01*
X76353955Y-178384976D01*
X76753955Y-177184976D01*
X76760475Y-177156303D01*
X76759142Y-177137542D01*
X76861653Y-177137542D01*
X76861653Y-178337542D01*
X76864535Y-178366806D01*
X76886933Y-178420878D01*
X76928317Y-178462262D01*
X76982389Y-178484660D01*
X77040917Y-178484660D01*
X77094989Y-178462262D01*
X77136373Y-178420878D01*
X77158771Y-178366806D01*
X77161653Y-178337542D01*
X77161653Y-177916114D01*
X77219269Y-177916114D01*
X77574482Y-178423561D01*
X77593625Y-178445883D01*
X77642983Y-178477336D01*
X77700618Y-178487507D01*
X77757760Y-178474848D01*
X77805708Y-178441284D01*
X77837161Y-178391926D01*
X77847332Y-178334291D01*
X77834673Y-178277149D01*
X77820252Y-178251523D01*
X77564398Y-177886018D01*
X77650164Y-177843135D01*
X77662757Y-177835207D01*
X77666416Y-177833692D01*
X77670535Y-177830311D01*
X77675049Y-177827470D01*
X77677645Y-177824476D01*
X77689147Y-177815037D01*
X77746290Y-177757894D01*
X77755730Y-177746391D01*
X77758723Y-177743796D01*
X77761561Y-177739286D01*
X77764945Y-177735164D01*
X77766461Y-177731501D01*
X77774388Y-177718910D01*
X77831531Y-177604624D01*
X77842041Y-177577160D01*
X77842422Y-177571784D01*
X77844485Y-177566806D01*
X77847367Y-177537542D01*
X77847367Y-177366114D01*
X77844485Y-177336850D01*
X77842422Y-177331871D01*
X77842041Y-177326496D01*
X77831531Y-177299032D01*
X77774388Y-177184746D01*
X77766461Y-177172154D01*
X77764945Y-177168492D01*
X77761561Y-177164369D01*
X77758723Y-177159860D01*
X77755730Y-177157264D01*
X77746290Y-177145762D01*
X77738070Y-177137542D01*
X78061653Y-177137542D01*
X78061653Y-178337542D01*
X78064535Y-178366806D01*
X78086933Y-178420878D01*
X78128317Y-178462262D01*
X78182389Y-178484660D01*
X78211653Y-178487542D01*
X78783081Y-178487542D01*
X78812345Y-178484660D01*
X78866417Y-178462262D01*
X78907801Y-178420878D01*
X78930199Y-178366806D01*
X78930199Y-178308278D01*
X78907801Y-178254206D01*
X78866417Y-178212822D01*
X78812345Y-178190424D01*
X78783081Y-178187542D01*
X78361653Y-178187542D01*
X78361653Y-177858971D01*
X78611653Y-177858971D01*
X78640917Y-177856089D01*
X78694989Y-177833691D01*
X78736373Y-177792307D01*
X78758771Y-177738235D01*
X78758771Y-177679707D01*
X78736373Y-177625635D01*
X78694989Y-177584251D01*
X78640917Y-177561853D01*
X78611653Y-177558971D01*
X78361653Y-177558971D01*
X78361653Y-177287542D01*
X78783081Y-177287542D01*
X78812345Y-177284660D01*
X78866417Y-177262262D01*
X78907801Y-177220878D01*
X78930199Y-177166806D01*
X78930199Y-177137542D01*
X79147367Y-177137542D01*
X79147367Y-178337542D01*
X79150249Y-178366806D01*
X79172647Y-178420878D01*
X79214031Y-178462262D01*
X79268103Y-178484660D01*
X79326631Y-178484660D01*
X79380703Y-178462262D01*
X79422087Y-178420878D01*
X79444485Y-178366806D01*
X79447367Y-178337542D01*
X79447367Y-177858971D01*
X79697367Y-177858971D01*
X79726631Y-177856089D01*
X79780703Y-177833691D01*
X79822087Y-177792307D01*
X79844485Y-177738235D01*
X79844485Y-177679707D01*
X79822087Y-177625635D01*
X79780703Y-177584251D01*
X79726631Y-177561853D01*
X79697367Y-177558971D01*
X79447367Y-177558971D01*
X79447367Y-177287542D01*
X79868795Y-177287542D01*
X79898059Y-177284660D01*
X79952131Y-177262262D01*
X79993515Y-177220878D01*
X80015913Y-177166806D01*
X80015913Y-177108278D01*
X79993515Y-177054206D01*
X79952131Y-177012822D01*
X79898059Y-176990424D01*
X79868795Y-176987542D01*
X79297367Y-176987542D01*
X79268103Y-176990424D01*
X79214031Y-177012822D01*
X79172647Y-177054206D01*
X79150249Y-177108278D01*
X79147367Y-177137542D01*
X78930199Y-177137542D01*
X78930199Y-177108278D01*
X78907801Y-177054206D01*
X78866417Y-177012822D01*
X78812345Y-176990424D01*
X78783081Y-176987542D01*
X78211653Y-176987542D01*
X78182389Y-176990424D01*
X78128317Y-177012822D01*
X78086933Y-177054206D01*
X78064535Y-177108278D01*
X78061653Y-177137542D01*
X77738070Y-177137542D01*
X77689147Y-177088619D01*
X77677645Y-177079179D01*
X77675049Y-177076186D01*
X77670535Y-177073344D01*
X77666416Y-177069964D01*
X77662757Y-177068448D01*
X77650164Y-177060521D01*
X77535879Y-177003378D01*
X77508415Y-176992869D01*
X77503040Y-176992487D01*
X77498060Y-176990424D01*
X77468796Y-176987542D01*
X77011653Y-176987542D01*
X76982389Y-176990424D01*
X76928317Y-177012822D01*
X76886933Y-177054206D01*
X76864535Y-177108278D01*
X76861653Y-177137542D01*
X76759142Y-177137542D01*
X76756326Y-177097923D01*
X76730152Y-177045575D01*
X76685938Y-177007228D01*
X76630414Y-176988720D01*
X76572033Y-176992869D01*
X76519686Y-177019043D01*
X76481339Y-177063257D01*
X76469350Y-177090108D01*
X76211652Y-177863201D01*
X75953955Y-177090108D01*
X75941967Y-177063257D01*
X75903620Y-177019043D01*
X75851273Y-176992869D01*
X75792892Y-176988720D01*
X75737368Y-177007228D01*
X75693154Y-177045575D01*
X75666980Y-177097922D01*
X75662831Y-177156303D01*
X75512831Y-177156303D01*
X75512831Y-176837542D01*
X80165913Y-176837542D01*
X80165913Y-178637542D01*
G37*
G36*
X113354510Y-178137542D02*
G01*
X110183082Y-178137542D01*
X110183082Y-176637542D01*
X110333082Y-176637542D01*
X110333082Y-177837542D01*
X110335964Y-177866806D01*
X110358362Y-177920878D01*
X110399746Y-177962262D01*
X110453818Y-177984660D01*
X110512346Y-177984660D01*
X110566418Y-177962262D01*
X110607802Y-177920878D01*
X110630200Y-177866806D01*
X110633082Y-177837542D01*
X110633082Y-177358971D01*
X110883082Y-177358971D01*
X110912346Y-177356089D01*
X110966418Y-177333691D01*
X111007802Y-177292307D01*
X111030200Y-177238235D01*
X111030200Y-177179707D01*
X111007802Y-177125635D01*
X110966418Y-177084251D01*
X110912346Y-177061853D01*
X110883082Y-177058971D01*
X110633082Y-177058971D01*
X110633082Y-176787542D01*
X111054510Y-176787542D01*
X111083774Y-176784660D01*
X111137846Y-176762262D01*
X111179230Y-176720878D01*
X111197367Y-176677092D01*
X111215504Y-176720878D01*
X111256888Y-176762262D01*
X111310960Y-176784660D01*
X111340224Y-176787542D01*
X111533081Y-176787542D01*
X111533081Y-177837542D01*
X111535963Y-177866806D01*
X111558361Y-177920878D01*
X111599745Y-177962262D01*
X111653817Y-177984660D01*
X111712345Y-177984660D01*
X111766417Y-177962262D01*
X111807801Y-177920878D01*
X111830199Y-177866806D01*
X111833081Y-177837542D01*
X111833081Y-176866114D01*
X112218796Y-176866114D01*
X112218796Y-176980400D01*
X112221678Y-177009664D01*
X112223741Y-177014644D01*
X112224123Y-177020019D01*
X112234632Y-177047483D01*
X112291775Y-177161768D01*
X112299702Y-177174361D01*
X112301218Y-177178020D01*
X112304598Y-177182139D01*
X112307440Y-177186653D01*
X112310433Y-177189249D01*
X112319873Y-177200751D01*
X112377016Y-177257894D01*
X112388518Y-177267334D01*
X112391114Y-177270327D01*
X112395624Y-177273166D01*
X112399746Y-177276549D01*
X112403406Y-177278065D01*
X112415999Y-177285992D01*
X112530285Y-177343135D01*
X112532423Y-177343953D01*
X112533295Y-177344599D01*
X112545559Y-177348980D01*
X112557748Y-177353645D01*
X112558831Y-177353721D01*
X112560987Y-177354492D01*
X112773583Y-177407641D01*
X112851370Y-177446534D01*
X112874087Y-177469252D01*
X112904510Y-177530096D01*
X112904510Y-177573561D01*
X112874088Y-177634403D01*
X112851370Y-177657122D01*
X112790529Y-177687542D01*
X112564567Y-177687542D01*
X112416229Y-177638097D01*
X112387556Y-177631577D01*
X112329176Y-177635727D01*
X112276829Y-177661901D01*
X112238481Y-177706116D01*
X112219973Y-177761640D01*
X112224123Y-177820020D01*
X112250297Y-177872367D01*
X112294512Y-177910715D01*
X112321363Y-177922703D01*
X112492792Y-177979845D01*
X112507301Y-177983144D01*
X112510961Y-177984660D01*
X112516264Y-177985182D01*
X112521466Y-177986365D01*
X112525419Y-177986083D01*
X112540225Y-177987542D01*
X112825939Y-177987542D01*
X112855203Y-177984660D01*
X112860181Y-177982597D01*
X112865557Y-177982216D01*
X112893020Y-177971707D01*
X113007306Y-177914565D01*
X113019904Y-177906634D01*
X113023561Y-177905120D01*
X113027677Y-177901742D01*
X113032192Y-177898900D01*
X113034789Y-177895904D01*
X113046292Y-177886465D01*
X113103434Y-177829322D01*
X113112872Y-177817820D01*
X113115866Y-177815225D01*
X113118706Y-177810712D01*
X113122089Y-177806591D01*
X113123605Y-177802930D01*
X113131531Y-177790339D01*
X113188674Y-177676053D01*
X113199184Y-177648589D01*
X113199565Y-177643213D01*
X113201628Y-177638235D01*
X113204510Y-177608971D01*
X113204510Y-177494685D01*
X113201628Y-177465421D01*
X113199566Y-177460443D01*
X113199184Y-177455066D01*
X113188674Y-177427603D01*
X113131531Y-177313317D01*
X113123604Y-177300725D01*
X113122089Y-177297066D01*
X113118706Y-177292944D01*
X113115866Y-177288432D01*
X113112872Y-177285835D01*
X113103434Y-177274335D01*
X113046292Y-177217192D01*
X113034790Y-177207752D01*
X113032193Y-177204758D01*
X113027678Y-177201916D01*
X113023561Y-177198537D01*
X113019902Y-177197021D01*
X113007307Y-177189093D01*
X112893021Y-177131950D01*
X112890882Y-177131131D01*
X112890011Y-177130486D01*
X112877740Y-177126102D01*
X112865558Y-177121440D01*
X112864475Y-177121363D01*
X112862320Y-177120593D01*
X112649725Y-177067444D01*
X112571935Y-177028549D01*
X112549217Y-177005831D01*
X112518796Y-176944989D01*
X112518796Y-176901524D01*
X112549217Y-176840682D01*
X112571935Y-176817963D01*
X112632778Y-176787542D01*
X112858742Y-176787542D01*
X113007076Y-176836987D01*
X113035749Y-176843507D01*
X113094129Y-176839358D01*
X113146476Y-176813185D01*
X113184824Y-176768970D01*
X113203332Y-176713446D01*
X113199183Y-176655066D01*
X113173009Y-176602719D01*
X113128795Y-176564371D01*
X113101944Y-176552383D01*
X112930516Y-176495240D01*
X112916008Y-176491941D01*
X112912346Y-176490424D01*
X112907037Y-176489901D01*
X112901843Y-176488720D01*
X112897893Y-176489000D01*
X112883082Y-176487542D01*
X112597367Y-176487542D01*
X112568103Y-176490424D01*
X112563125Y-176492485D01*
X112557748Y-176492868D01*
X112530285Y-176503378D01*
X112415999Y-176560521D01*
X112403406Y-176568447D01*
X112399746Y-176569964D01*
X112395624Y-176573346D01*
X112391114Y-176576186D01*
X112388518Y-176579178D01*
X112377016Y-176588619D01*
X112319873Y-176645762D01*
X112310434Y-176657263D01*
X112307440Y-176659860D01*
X112304599Y-176664373D01*
X112301218Y-176668493D01*
X112299702Y-176672152D01*
X112291775Y-176684746D01*
X112234632Y-176799032D01*
X112224122Y-176826495D01*
X112223739Y-176831872D01*
X112221678Y-176836850D01*
X112218796Y-176866114D01*
X111833081Y-176866114D01*
X111833081Y-176787542D01*
X112025939Y-176787542D01*
X112055203Y-176784660D01*
X112109275Y-176762262D01*
X112150659Y-176720878D01*
X112173057Y-176666806D01*
X112173057Y-176608278D01*
X112150659Y-176554206D01*
X112109275Y-176512822D01*
X112055203Y-176490424D01*
X112025939Y-176487542D01*
X111340224Y-176487542D01*
X111310960Y-176490424D01*
X111256888Y-176512822D01*
X111215504Y-176554206D01*
X111197367Y-176597991D01*
X111179230Y-176554206D01*
X111137846Y-176512822D01*
X111083774Y-176490424D01*
X111054510Y-176487542D01*
X110483082Y-176487542D01*
X110453818Y-176490424D01*
X110399746Y-176512822D01*
X110358362Y-176554206D01*
X110335964Y-176608278D01*
X110333082Y-176637542D01*
X110183082Y-176637542D01*
X110183082Y-176337542D01*
X113354510Y-176337542D01*
X113354510Y-178137542D01*
G37*
G36*
X117222799Y-176817963D02*
G01*
X117290495Y-176885659D01*
X117333082Y-177056007D01*
X117333082Y-177419077D01*
X117290494Y-177589426D01*
X117222799Y-177657121D01*
X117161958Y-177687542D01*
X117004205Y-177687542D01*
X116943365Y-177657122D01*
X116875669Y-177589426D01*
X116833082Y-177419078D01*
X116833082Y-177056006D01*
X116875668Y-176885659D01*
X116943364Y-176817963D01*
X117004207Y-176787542D01*
X117161957Y-176787542D01*
X117222799Y-176817963D01*
G37*
G36*
X121097368Y-178137542D02*
G01*
X115183082Y-178137542D01*
X115183082Y-176637542D01*
X115333082Y-176637542D01*
X115333082Y-177837542D01*
X115335964Y-177866806D01*
X115358362Y-177920878D01*
X115399746Y-177962262D01*
X115453818Y-177984660D01*
X115512346Y-177984660D01*
X115566418Y-177962262D01*
X115607802Y-177920878D01*
X115630200Y-177866806D01*
X115633082Y-177837542D01*
X115633082Y-177202376D01*
X116038559Y-177911963D01*
X116042938Y-177918132D01*
X116044076Y-177920878D01*
X116046874Y-177923676D01*
X116055581Y-177935941D01*
X116071352Y-177948154D01*
X116085460Y-177962262D01*
X116094295Y-177965921D01*
X116101855Y-177971776D01*
X116121097Y-177977023D01*
X116139532Y-177984660D01*
X116149096Y-177984660D01*
X116158318Y-177987175D01*
X116178104Y-177984660D01*
X116198060Y-177984660D01*
X116206894Y-177981000D01*
X116216379Y-177979795D01*
X116233701Y-177969896D01*
X116252132Y-177962262D01*
X116258892Y-177955501D01*
X116267195Y-177950757D01*
X116279408Y-177934985D01*
X116293516Y-177920878D01*
X116297175Y-177912042D01*
X116303030Y-177904483D01*
X116308277Y-177885241D01*
X116315914Y-177866806D01*
X116317388Y-177851834D01*
X116318429Y-177848019D01*
X116318054Y-177845072D01*
X116318796Y-177837542D01*
X116318796Y-177037542D01*
X116533082Y-177037542D01*
X116533082Y-177437542D01*
X116533584Y-177442645D01*
X116533259Y-177444833D01*
X116534878Y-177455783D01*
X116535964Y-177466806D01*
X116536811Y-177468850D01*
X116537561Y-177473922D01*
X116594704Y-177702495D01*
X116604597Y-177730186D01*
X116611236Y-177739147D01*
X116615504Y-177749449D01*
X116634159Y-177772180D01*
X116748445Y-177886466D01*
X116759949Y-177895907D01*
X116762544Y-177898899D01*
X116767053Y-177901737D01*
X116771176Y-177905121D01*
X116774837Y-177906637D01*
X116787429Y-177914564D01*
X116901714Y-177971706D01*
X116929178Y-177982216D01*
X116934553Y-177982597D01*
X116939532Y-177984660D01*
X116968796Y-177987542D01*
X117197368Y-177987542D01*
X117226632Y-177984660D01*
X117231610Y-177982597D01*
X117236986Y-177982216D01*
X117264450Y-177971706D01*
X117378734Y-177914564D01*
X117391327Y-177906637D01*
X117394988Y-177905121D01*
X117399106Y-177901740D01*
X117403620Y-177898900D01*
X117406217Y-177895905D01*
X117417719Y-177886466D01*
X117532005Y-177772180D01*
X117550660Y-177749449D01*
X117554927Y-177739147D01*
X117561567Y-177730186D01*
X117571460Y-177702494D01*
X117628603Y-177473922D01*
X117629352Y-177468850D01*
X117630200Y-177466806D01*
X117631285Y-177455783D01*
X117632905Y-177444833D01*
X117632579Y-177442645D01*
X117633082Y-177437542D01*
X117633082Y-177037542D01*
X117632579Y-177032438D01*
X117632905Y-177030251D01*
X117631285Y-177019300D01*
X117630200Y-177008278D01*
X117629352Y-177006233D01*
X117628603Y-177001162D01*
X117571460Y-176772591D01*
X117561567Y-176744899D01*
X117554927Y-176735937D01*
X117550660Y-176725636D01*
X117532005Y-176702905D01*
X117437378Y-176608278D01*
X117678821Y-176608278D01*
X117678821Y-176666806D01*
X117701219Y-176720878D01*
X117742603Y-176762262D01*
X117796675Y-176784660D01*
X117825939Y-176787542D01*
X118018796Y-176787542D01*
X118018796Y-177837542D01*
X118021678Y-177866806D01*
X118044076Y-177920878D01*
X118085460Y-177962262D01*
X118139532Y-177984660D01*
X118198060Y-177984660D01*
X118252132Y-177962262D01*
X118293516Y-177920878D01*
X118315914Y-177866806D01*
X118318796Y-177837542D01*
X118318796Y-177151828D01*
X118704511Y-177151828D01*
X118704511Y-177323257D01*
X118705013Y-177328360D01*
X118704688Y-177330548D01*
X118706307Y-177341498D01*
X118707393Y-177352521D01*
X118708240Y-177354565D01*
X118708990Y-177359637D01*
X118766133Y-177588209D01*
X118766903Y-177590364D01*
X118766980Y-177591447D01*
X118771642Y-177603629D01*
X118776026Y-177615900D01*
X118776671Y-177616771D01*
X118777490Y-177618910D01*
X118834633Y-177733196D01*
X118842560Y-177745789D01*
X118844076Y-177749449D01*
X118847457Y-177753568D01*
X118850298Y-177758082D01*
X118853292Y-177760678D01*
X118862731Y-177772180D01*
X118977015Y-177886465D01*
X118999746Y-177905120D01*
X119004724Y-177907182D01*
X119008798Y-177910715D01*
X119035649Y-177922703D01*
X119207078Y-177979845D01*
X119221587Y-177983144D01*
X119225247Y-177984660D01*
X119230550Y-177985182D01*
X119235752Y-177986365D01*
X119239705Y-177986083D01*
X119254511Y-177987542D01*
X119368797Y-177987542D01*
X119383602Y-177986083D01*
X119387557Y-177986365D01*
X119392758Y-177985182D01*
X119398061Y-177984660D01*
X119401718Y-177983144D01*
X119416231Y-177979845D01*
X119587659Y-177922703D01*
X119614510Y-177910714D01*
X119618580Y-177907183D01*
X119623560Y-177905121D01*
X119646291Y-177886466D01*
X119703434Y-177829323D01*
X119722089Y-177806593D01*
X119744486Y-177752520D01*
X119744486Y-177693994D01*
X119722089Y-177639922D01*
X119680703Y-177598536D01*
X119626631Y-177576139D01*
X119568105Y-177576139D01*
X119514032Y-177598536D01*
X119491302Y-177617191D01*
X119459198Y-177649294D01*
X119344454Y-177687542D01*
X119278853Y-177687542D01*
X119164108Y-177649294D01*
X119092075Y-177577260D01*
X119053180Y-177499471D01*
X119004511Y-177304792D01*
X119004511Y-177170292D01*
X119053180Y-176975613D01*
X119092075Y-176897824D01*
X119164110Y-176825789D01*
X119278854Y-176787542D01*
X119344457Y-176787542D01*
X119459196Y-176825788D01*
X119491302Y-176857894D01*
X119514032Y-176876549D01*
X119568105Y-176898946D01*
X119626631Y-176898946D01*
X119680703Y-176876549D01*
X119722089Y-176835163D01*
X119744486Y-176781091D01*
X119744486Y-176722565D01*
X119722089Y-176668492D01*
X119703434Y-176645762D01*
X119695214Y-176637542D01*
X119961654Y-176637542D01*
X119961654Y-177837542D01*
X119964536Y-177866806D01*
X119986934Y-177920878D01*
X120028318Y-177962262D01*
X120082390Y-177984660D01*
X120140918Y-177984660D01*
X120194990Y-177962262D01*
X120236374Y-177920878D01*
X120258772Y-177866806D01*
X120261654Y-177837542D01*
X120261654Y-177358971D01*
X120647368Y-177358971D01*
X120647368Y-177837542D01*
X120650250Y-177866806D01*
X120672648Y-177920878D01*
X120714032Y-177962262D01*
X120768104Y-177984660D01*
X120826632Y-177984660D01*
X120880704Y-177962262D01*
X120922088Y-177920878D01*
X120944486Y-177866806D01*
X120947368Y-177837542D01*
X120947368Y-176637542D01*
X120944486Y-176608278D01*
X120922088Y-176554206D01*
X120880704Y-176512822D01*
X120826632Y-176490424D01*
X120768104Y-176490424D01*
X120714032Y-176512822D01*
X120672648Y-176554206D01*
X120650250Y-176608278D01*
X120647368Y-176637542D01*
X120647368Y-177058971D01*
X120261654Y-177058971D01*
X120261654Y-176637542D01*
X120258772Y-176608278D01*
X120236374Y-176554206D01*
X120194990Y-176512822D01*
X120140918Y-176490424D01*
X120082390Y-176490424D01*
X120028318Y-176512822D01*
X119986934Y-176554206D01*
X119964536Y-176608278D01*
X119961654Y-176637542D01*
X119695214Y-176637542D01*
X119646291Y-176588619D01*
X119623560Y-176569964D01*
X119618580Y-176567901D01*
X119614510Y-176564371D01*
X119587659Y-176552383D01*
X119416231Y-176495240D01*
X119401723Y-176491941D01*
X119398061Y-176490424D01*
X119392752Y-176489901D01*
X119387558Y-176488720D01*
X119383608Y-176489000D01*
X119368797Y-176487542D01*
X119254511Y-176487542D01*
X119239699Y-176489000D01*
X119235750Y-176488720D01*
X119230555Y-176489901D01*
X119225247Y-176490424D01*
X119221584Y-176491941D01*
X119207077Y-176495240D01*
X119035648Y-176552383D01*
X119008797Y-176564371D01*
X119004725Y-176567902D01*
X118999746Y-176569965D01*
X118977015Y-176588620D01*
X118862731Y-176702905D01*
X118853292Y-176714406D01*
X118850298Y-176717003D01*
X118847457Y-176721516D01*
X118844076Y-176725636D01*
X118842560Y-176729295D01*
X118834633Y-176741889D01*
X118777490Y-176856175D01*
X118776671Y-176858313D01*
X118776026Y-176859185D01*
X118771642Y-176871455D01*
X118766980Y-176883638D01*
X118766903Y-176884720D01*
X118766133Y-176886876D01*
X118708990Y-177115448D01*
X118708240Y-177120519D01*
X118707393Y-177122564D01*
X118706307Y-177133586D01*
X118704688Y-177144537D01*
X118705013Y-177146724D01*
X118704511Y-177151828D01*
X118318796Y-177151828D01*
X118318796Y-176787542D01*
X118511654Y-176787542D01*
X118540918Y-176784660D01*
X118594990Y-176762262D01*
X118636374Y-176720878D01*
X118658772Y-176666806D01*
X118658772Y-176608278D01*
X118636374Y-176554206D01*
X118594990Y-176512822D01*
X118540918Y-176490424D01*
X118511654Y-176487542D01*
X117825939Y-176487542D01*
X117796675Y-176490424D01*
X117742603Y-176512822D01*
X117701219Y-176554206D01*
X117678821Y-176608278D01*
X117437378Y-176608278D01*
X117417719Y-176588619D01*
X117406217Y-176579179D01*
X117403621Y-176576186D01*
X117399107Y-176573344D01*
X117394988Y-176569964D01*
X117391329Y-176568448D01*
X117378736Y-176560521D01*
X117264451Y-176503378D01*
X117236987Y-176492869D01*
X117231612Y-176492487D01*
X117226632Y-176490424D01*
X117197368Y-176487542D01*
X116968796Y-176487542D01*
X116939532Y-176490424D01*
X116934554Y-176492485D01*
X116929177Y-176492868D01*
X116901714Y-176503378D01*
X116787428Y-176560521D01*
X116774834Y-176568448D01*
X116771176Y-176569964D01*
X116767056Y-176573344D01*
X116762543Y-176576186D01*
X116759946Y-176579180D01*
X116748445Y-176588619D01*
X116634159Y-176702905D01*
X116615504Y-176725636D01*
X116611236Y-176735937D01*
X116604597Y-176744899D01*
X116594704Y-176772590D01*
X116537561Y-177001162D01*
X116536811Y-177006233D01*
X116535964Y-177008278D01*
X116534878Y-177019300D01*
X116533259Y-177030251D01*
X116533584Y-177032438D01*
X116533082Y-177037542D01*
X116318796Y-177037542D01*
X116318796Y-176637542D01*
X116315914Y-176608278D01*
X116293516Y-176554206D01*
X116252132Y-176512822D01*
X116198060Y-176490424D01*
X116139532Y-176490424D01*
X116085460Y-176512822D01*
X116044076Y-176554206D01*
X116021678Y-176608278D01*
X116018796Y-176637542D01*
X116018796Y-177272707D01*
X115613318Y-176563121D01*
X115608940Y-176556953D01*
X115607802Y-176554206D01*
X115605002Y-176551406D01*
X115596297Y-176539143D01*
X115580525Y-176526929D01*
X115566418Y-176512822D01*
X115557582Y-176509162D01*
X115550023Y-176503308D01*
X115530778Y-176498059D01*
X115512346Y-176490424D01*
X115502784Y-176490424D01*
X115493559Y-176487908D01*
X115473768Y-176490424D01*
X115453818Y-176490424D01*
X115444984Y-176494083D01*
X115435499Y-176495289D01*
X115418176Y-176505187D01*
X115399746Y-176512822D01*
X115392985Y-176519582D01*
X115384683Y-176524327D01*
X115372469Y-176540098D01*
X115358362Y-176554206D01*
X115354702Y-176563041D01*
X115348848Y-176570601D01*
X115343599Y-176589845D01*
X115335964Y-176608278D01*
X115334490Y-176623244D01*
X115333448Y-176627065D01*
X115333823Y-176630016D01*
X115333082Y-176637542D01*
X115183082Y-176637542D01*
X115183082Y-176337542D01*
X121097368Y-176337542D01*
X121097368Y-178137542D01*
G37*
G36*
X134316339Y-176825788D02*
G01*
X134388374Y-176897824D01*
X134427269Y-176975613D01*
X134475939Y-177170293D01*
X134475939Y-177304792D01*
X134427269Y-177499472D01*
X134388374Y-177577260D01*
X134316340Y-177649294D01*
X134201597Y-177687542D01*
X134090225Y-177687542D01*
X134090225Y-176787542D01*
X134201599Y-176787542D01*
X134316339Y-176825788D01*
G37*
G36*
X134925939Y-178137542D02*
G01*
X131125939Y-178137542D01*
X131125939Y-177151828D01*
X131275939Y-177151828D01*
X131275939Y-177323257D01*
X131276441Y-177328360D01*
X131276116Y-177330548D01*
X131277735Y-177341498D01*
X131278821Y-177352521D01*
X131279668Y-177354565D01*
X131280418Y-177359637D01*
X131337561Y-177588209D01*
X131338331Y-177590364D01*
X131338408Y-177591447D01*
X131343070Y-177603629D01*
X131347454Y-177615900D01*
X131348099Y-177616771D01*
X131348918Y-177618910D01*
X131406061Y-177733196D01*
X131413988Y-177745789D01*
X131415504Y-177749449D01*
X131418885Y-177753568D01*
X131421726Y-177758082D01*
X131424720Y-177760678D01*
X131434159Y-177772180D01*
X131548443Y-177886465D01*
X131571174Y-177905120D01*
X131576152Y-177907182D01*
X131580226Y-177910715D01*
X131607077Y-177922703D01*
X131778506Y-177979845D01*
X131793015Y-177983144D01*
X131796675Y-177984660D01*
X131801978Y-177985182D01*
X131807180Y-177986365D01*
X131811133Y-177986083D01*
X131825939Y-177987542D01*
X131940225Y-177987542D01*
X131955030Y-177986083D01*
X131958985Y-177986365D01*
X131964186Y-177985182D01*
X131969489Y-177984660D01*
X131973146Y-177983144D01*
X131987659Y-177979845D01*
X132159087Y-177922703D01*
X132185938Y-177910714D01*
X132190008Y-177907183D01*
X132194988Y-177905121D01*
X132217719Y-177886466D01*
X132274862Y-177829323D01*
X132293517Y-177806593D01*
X132315914Y-177752520D01*
X132318796Y-177723257D01*
X132318796Y-177323257D01*
X132315914Y-177293993D01*
X132293516Y-177239921D01*
X132252132Y-177198537D01*
X132198060Y-177176139D01*
X132168796Y-177173257D01*
X131940225Y-177173257D01*
X131910961Y-177176139D01*
X131856889Y-177198537D01*
X131815505Y-177239921D01*
X131793107Y-177293993D01*
X131793107Y-177352521D01*
X131815505Y-177406593D01*
X131856889Y-177447977D01*
X131910961Y-177470375D01*
X131940225Y-177473257D01*
X132018796Y-177473257D01*
X132018796Y-177653238D01*
X131915882Y-177687542D01*
X131850281Y-177687542D01*
X131735536Y-177649294D01*
X131663503Y-177577260D01*
X131624608Y-177499471D01*
X131575939Y-177304792D01*
X131575939Y-177170292D01*
X131624608Y-176975613D01*
X131663503Y-176897824D01*
X131735538Y-176825789D01*
X131850282Y-176787542D01*
X131961957Y-176787542D01*
X132044571Y-176828849D01*
X132072034Y-176839359D01*
X132130414Y-176843507D01*
X132185937Y-176825000D01*
X132230152Y-176786653D01*
X132256327Y-176734304D01*
X132260475Y-176675924D01*
X132247681Y-176637542D01*
X132533082Y-176637542D01*
X132533082Y-177837542D01*
X132535964Y-177866806D01*
X132558362Y-177920878D01*
X132599746Y-177962262D01*
X132653818Y-177984660D01*
X132712346Y-177984660D01*
X132766418Y-177962262D01*
X132807802Y-177920878D01*
X132830200Y-177866806D01*
X132833082Y-177837542D01*
X132833082Y-177202376D01*
X133238559Y-177911963D01*
X133242938Y-177918132D01*
X133244076Y-177920878D01*
X133246874Y-177923676D01*
X133255581Y-177935941D01*
X133271352Y-177948154D01*
X133285460Y-177962262D01*
X133294295Y-177965921D01*
X133301855Y-177971776D01*
X133321097Y-177977023D01*
X133339532Y-177984660D01*
X133349096Y-177984660D01*
X133358318Y-177987175D01*
X133378104Y-177984660D01*
X133398060Y-177984660D01*
X133406894Y-177981000D01*
X133416379Y-177979795D01*
X133433701Y-177969896D01*
X133452132Y-177962262D01*
X133458892Y-177955501D01*
X133467195Y-177950757D01*
X133479408Y-177934985D01*
X133493516Y-177920878D01*
X133497175Y-177912042D01*
X133503030Y-177904483D01*
X133508277Y-177885241D01*
X133515914Y-177866806D01*
X133517388Y-177851834D01*
X133518429Y-177848019D01*
X133518054Y-177845072D01*
X133518796Y-177837542D01*
X133518796Y-176637542D01*
X133790225Y-176637542D01*
X133790225Y-177837542D01*
X133793107Y-177866806D01*
X133815505Y-177920878D01*
X133856889Y-177962262D01*
X133910961Y-177984660D01*
X133940225Y-177987542D01*
X134225939Y-177987542D01*
X134240744Y-177986083D01*
X134244699Y-177986365D01*
X134249900Y-177985182D01*
X134255203Y-177984660D01*
X134258861Y-177983144D01*
X134273372Y-177979845D01*
X134444802Y-177922703D01*
X134471653Y-177910715D01*
X134475724Y-177907183D01*
X134480704Y-177905121D01*
X134503434Y-177886466D01*
X134617719Y-177772180D01*
X134627158Y-177760678D01*
X134630152Y-177758082D01*
X134632992Y-177753568D01*
X134636374Y-177749449D01*
X134637889Y-177745789D01*
X134645817Y-177733196D01*
X134702960Y-177618910D01*
X134703778Y-177616771D01*
X134704424Y-177615900D01*
X134708808Y-177603626D01*
X134713470Y-177591446D01*
X134713546Y-177590363D01*
X134714317Y-177588208D01*
X134771460Y-177359637D01*
X134772209Y-177354565D01*
X134773057Y-177352521D01*
X134774142Y-177341498D01*
X134775762Y-177330548D01*
X134775436Y-177328360D01*
X134775939Y-177323257D01*
X134775939Y-177151828D01*
X134775436Y-177146724D01*
X134775762Y-177144537D01*
X134774142Y-177133586D01*
X134773057Y-177122564D01*
X134772209Y-177120519D01*
X134771460Y-177115448D01*
X134714317Y-176886877D01*
X134713546Y-176884721D01*
X134713470Y-176883639D01*
X134708808Y-176871458D01*
X134704424Y-176859185D01*
X134703778Y-176858313D01*
X134702960Y-176856175D01*
X134645817Y-176741889D01*
X134637889Y-176729295D01*
X134636374Y-176725636D01*
X134632992Y-176721516D01*
X134630152Y-176717003D01*
X134627158Y-176714406D01*
X134617719Y-176702905D01*
X134503434Y-176588619D01*
X134480704Y-176569964D01*
X134475722Y-176567900D01*
X134471653Y-176564371D01*
X134444802Y-176552382D01*
X134273373Y-176495240D01*
X134258865Y-176491941D01*
X134255203Y-176490424D01*
X134249894Y-176489901D01*
X134244700Y-176488720D01*
X134240750Y-176489000D01*
X134225939Y-176487542D01*
X133940225Y-176487542D01*
X133910961Y-176490424D01*
X133856889Y-176512822D01*
X133815505Y-176554206D01*
X133793107Y-176608278D01*
X133790225Y-176637542D01*
X133518796Y-176637542D01*
X133515914Y-176608278D01*
X133493516Y-176554206D01*
X133452132Y-176512822D01*
X133398060Y-176490424D01*
X133339532Y-176490424D01*
X133285460Y-176512822D01*
X133244076Y-176554206D01*
X133221678Y-176608278D01*
X133218796Y-176637542D01*
X133218796Y-177272707D01*
X132813318Y-176563121D01*
X132808940Y-176556953D01*
X132807802Y-176554206D01*
X132805002Y-176551406D01*
X132796297Y-176539143D01*
X132780525Y-176526929D01*
X132766418Y-176512822D01*
X132757582Y-176509162D01*
X132750023Y-176503308D01*
X132730778Y-176498059D01*
X132712346Y-176490424D01*
X132702784Y-176490424D01*
X132693559Y-176487908D01*
X132673768Y-176490424D01*
X132653818Y-176490424D01*
X132644984Y-176494083D01*
X132635499Y-176495289D01*
X132618176Y-176505187D01*
X132599746Y-176512822D01*
X132592985Y-176519582D01*
X132584683Y-176524327D01*
X132572469Y-176540098D01*
X132558362Y-176554206D01*
X132554702Y-176563041D01*
X132548848Y-176570601D01*
X132543599Y-176589845D01*
X132535964Y-176608278D01*
X132534490Y-176623244D01*
X132533448Y-176627065D01*
X132533823Y-176630016D01*
X132533082Y-176637542D01*
X132247681Y-176637542D01*
X132241968Y-176620402D01*
X132203621Y-176576186D01*
X132178736Y-176560521D01*
X132064451Y-176503378D01*
X132036987Y-176492869D01*
X132031612Y-176492487D01*
X132026632Y-176490424D01*
X131997368Y-176487542D01*
X131825939Y-176487542D01*
X131811127Y-176489000D01*
X131807178Y-176488720D01*
X131801983Y-176489901D01*
X131796675Y-176490424D01*
X131793012Y-176491941D01*
X131778505Y-176495240D01*
X131607076Y-176552383D01*
X131580225Y-176564371D01*
X131576153Y-176567902D01*
X131571174Y-176569965D01*
X131548443Y-176588620D01*
X131434159Y-176702905D01*
X131424720Y-176714406D01*
X131421726Y-176717003D01*
X131418885Y-176721516D01*
X131415504Y-176725636D01*
X131413988Y-176729295D01*
X131406061Y-176741889D01*
X131348918Y-176856175D01*
X131348099Y-176858313D01*
X131347454Y-176859185D01*
X131343070Y-176871455D01*
X131338408Y-176883638D01*
X131338331Y-176884720D01*
X131337561Y-176886876D01*
X131280418Y-177115448D01*
X131279668Y-177120519D01*
X131278821Y-177122564D01*
X131277735Y-177133586D01*
X131276116Y-177144537D01*
X131276441Y-177146724D01*
X131275939Y-177151828D01*
X131125939Y-177151828D01*
X131125939Y-176337542D01*
X134925939Y-176337542D01*
X134925939Y-178137542D01*
G37*
G36*
X128798796Y-139367542D02*
G01*
X125913082Y-139367542D01*
X125913082Y-137867542D01*
X126063082Y-137867542D01*
X126063082Y-139067542D01*
X126065964Y-139096806D01*
X126088362Y-139150878D01*
X126129746Y-139192262D01*
X126183818Y-139214660D01*
X126242346Y-139214660D01*
X126296418Y-139192262D01*
X126337802Y-139150878D01*
X126360200Y-139096806D01*
X126363082Y-139067542D01*
X126363082Y-138588971D01*
X126613082Y-138588971D01*
X126642346Y-138586089D01*
X126696418Y-138563691D01*
X126737802Y-138522307D01*
X126760200Y-138468235D01*
X126760200Y-138409707D01*
X126737802Y-138355635D01*
X126696418Y-138314251D01*
X126642346Y-138291853D01*
X126613082Y-138288971D01*
X126363082Y-138288971D01*
X126363082Y-138017542D01*
X126784510Y-138017542D01*
X126813774Y-138014660D01*
X126867846Y-137992262D01*
X126909230Y-137950878D01*
X126927367Y-137907092D01*
X126945504Y-137950878D01*
X126986888Y-137992262D01*
X127040960Y-138014660D01*
X127070224Y-138017542D01*
X127263081Y-138017542D01*
X127263081Y-139067542D01*
X127265963Y-139096806D01*
X127288361Y-139150878D01*
X127329745Y-139192262D01*
X127383817Y-139214660D01*
X127442345Y-139214660D01*
X127496417Y-139192262D01*
X127537801Y-139150878D01*
X127560199Y-139096806D01*
X127563081Y-139067542D01*
X127563081Y-139038278D01*
X127894535Y-139038278D01*
X127894535Y-139096806D01*
X127916933Y-139150878D01*
X127958317Y-139192262D01*
X128012389Y-139214660D01*
X128041653Y-139217542D01*
X128155939Y-139217542D01*
X128170744Y-139216083D01*
X128174699Y-139216365D01*
X128179900Y-139215182D01*
X128185203Y-139214660D01*
X128188860Y-139213144D01*
X128203373Y-139209845D01*
X128374801Y-139152703D01*
X128401652Y-139140714D01*
X128405722Y-139137183D01*
X128410702Y-139135121D01*
X128433433Y-139116466D01*
X128547719Y-139002180D01*
X128566374Y-138979449D01*
X128568436Y-138974469D01*
X128571967Y-138970399D01*
X128583955Y-138943548D01*
X128641098Y-138772119D01*
X128644396Y-138757611D01*
X128645914Y-138753949D01*
X128646436Y-138748640D01*
X128647618Y-138743446D01*
X128647337Y-138739496D01*
X128648796Y-138724685D01*
X128648796Y-137867542D01*
X128645914Y-137838278D01*
X128623516Y-137784206D01*
X128582132Y-137742822D01*
X128528060Y-137720424D01*
X128469532Y-137720424D01*
X128415460Y-137742822D01*
X128374076Y-137784206D01*
X128351678Y-137838278D01*
X128348796Y-137867542D01*
X128348796Y-138700342D01*
X128310548Y-138815086D01*
X128246340Y-138879294D01*
X128131596Y-138917542D01*
X128041653Y-138917542D01*
X128012389Y-138920424D01*
X127958317Y-138942822D01*
X127916933Y-138984206D01*
X127894535Y-139038278D01*
X127563081Y-139038278D01*
X127563081Y-138017542D01*
X127755939Y-138017542D01*
X127785203Y-138014660D01*
X127839275Y-137992262D01*
X127880659Y-137950878D01*
X127903057Y-137896806D01*
X127903057Y-137838278D01*
X127880659Y-137784206D01*
X127839275Y-137742822D01*
X127785203Y-137720424D01*
X127755939Y-137717542D01*
X127070224Y-137717542D01*
X127040960Y-137720424D01*
X126986888Y-137742822D01*
X126945504Y-137784206D01*
X126927367Y-137827991D01*
X126909230Y-137784206D01*
X126867846Y-137742822D01*
X126813774Y-137720424D01*
X126784510Y-137717542D01*
X126213082Y-137717542D01*
X126183818Y-137720424D01*
X126129746Y-137742822D01*
X126088362Y-137784206D01*
X126065964Y-137838278D01*
X126063082Y-137867542D01*
X125913082Y-137867542D01*
X125913082Y-137567542D01*
X128798796Y-137567542D01*
X128798796Y-139367542D01*
G37*
G36*
X124546339Y-138055788D02*
G01*
X124618374Y-138127824D01*
X124657269Y-138205613D01*
X124705939Y-138400293D01*
X124705939Y-138534792D01*
X124657269Y-138729472D01*
X124618374Y-138807260D01*
X124546340Y-138879294D01*
X124431597Y-138917542D01*
X124320225Y-138917542D01*
X124320225Y-138017542D01*
X124431599Y-138017542D01*
X124546339Y-138055788D01*
G37*
G36*
X125155939Y-139367542D02*
G01*
X121355939Y-139367542D01*
X121355939Y-138381828D01*
X121505939Y-138381828D01*
X121505939Y-138553257D01*
X121506441Y-138558360D01*
X121506116Y-138560548D01*
X121507735Y-138571498D01*
X121508821Y-138582521D01*
X121509668Y-138584565D01*
X121510418Y-138589637D01*
X121567561Y-138818209D01*
X121568331Y-138820364D01*
X121568408Y-138821447D01*
X121573070Y-138833629D01*
X121577454Y-138845900D01*
X121578099Y-138846771D01*
X121578918Y-138848910D01*
X121636061Y-138963196D01*
X121643988Y-138975789D01*
X121645504Y-138979449D01*
X121648885Y-138983568D01*
X121651726Y-138988082D01*
X121654720Y-138990678D01*
X121664159Y-139002180D01*
X121778443Y-139116465D01*
X121801174Y-139135120D01*
X121806152Y-139137182D01*
X121810226Y-139140715D01*
X121837077Y-139152703D01*
X122008506Y-139209845D01*
X122023015Y-139213144D01*
X122026675Y-139214660D01*
X122031978Y-139215182D01*
X122037180Y-139216365D01*
X122041133Y-139216083D01*
X122055939Y-139217542D01*
X122170225Y-139217542D01*
X122185030Y-139216083D01*
X122188985Y-139216365D01*
X122194186Y-139215182D01*
X122199489Y-139214660D01*
X122203146Y-139213144D01*
X122217659Y-139209845D01*
X122389087Y-139152703D01*
X122415938Y-139140714D01*
X122420008Y-139137183D01*
X122424988Y-139135121D01*
X122447719Y-139116466D01*
X122504862Y-139059323D01*
X122523517Y-139036593D01*
X122545914Y-138982520D01*
X122548796Y-138953257D01*
X122548796Y-138553257D01*
X122545914Y-138523993D01*
X122523516Y-138469921D01*
X122482132Y-138428537D01*
X122428060Y-138406139D01*
X122398796Y-138403257D01*
X122170225Y-138403257D01*
X122140961Y-138406139D01*
X122086889Y-138428537D01*
X122045505Y-138469921D01*
X122023107Y-138523993D01*
X122023107Y-138582521D01*
X122045505Y-138636593D01*
X122086889Y-138677977D01*
X122140961Y-138700375D01*
X122170225Y-138703257D01*
X122248796Y-138703257D01*
X122248796Y-138883238D01*
X122145882Y-138917542D01*
X122080281Y-138917542D01*
X121965536Y-138879294D01*
X121893503Y-138807260D01*
X121854608Y-138729471D01*
X121805939Y-138534792D01*
X121805939Y-138400292D01*
X121854608Y-138205613D01*
X121893503Y-138127824D01*
X121965538Y-138055789D01*
X122080282Y-138017542D01*
X122191957Y-138017542D01*
X122274571Y-138058849D01*
X122302034Y-138069359D01*
X122360414Y-138073507D01*
X122415937Y-138055000D01*
X122460152Y-138016653D01*
X122486327Y-137964304D01*
X122490475Y-137905924D01*
X122477681Y-137867542D01*
X122763082Y-137867542D01*
X122763082Y-139067542D01*
X122765964Y-139096806D01*
X122788362Y-139150878D01*
X122829746Y-139192262D01*
X122883818Y-139214660D01*
X122942346Y-139214660D01*
X122996418Y-139192262D01*
X123037802Y-139150878D01*
X123060200Y-139096806D01*
X123063082Y-139067542D01*
X123063082Y-138432376D01*
X123468559Y-139141963D01*
X123472938Y-139148132D01*
X123474076Y-139150878D01*
X123476874Y-139153676D01*
X123485581Y-139165941D01*
X123501352Y-139178154D01*
X123515460Y-139192262D01*
X123524295Y-139195921D01*
X123531855Y-139201776D01*
X123551097Y-139207023D01*
X123569532Y-139214660D01*
X123579096Y-139214660D01*
X123588318Y-139217175D01*
X123608104Y-139214660D01*
X123628060Y-139214660D01*
X123636894Y-139211000D01*
X123646379Y-139209795D01*
X123663701Y-139199896D01*
X123682132Y-139192262D01*
X123688892Y-139185501D01*
X123697195Y-139180757D01*
X123709408Y-139164985D01*
X123723516Y-139150878D01*
X123727175Y-139142042D01*
X123733030Y-139134483D01*
X123738277Y-139115241D01*
X123745914Y-139096806D01*
X123747388Y-139081834D01*
X123748429Y-139078019D01*
X123748054Y-139075072D01*
X123748796Y-139067542D01*
X123748796Y-137867542D01*
X124020225Y-137867542D01*
X124020225Y-139067542D01*
X124023107Y-139096806D01*
X124045505Y-139150878D01*
X124086889Y-139192262D01*
X124140961Y-139214660D01*
X124170225Y-139217542D01*
X124455939Y-139217542D01*
X124470744Y-139216083D01*
X124474699Y-139216365D01*
X124479900Y-139215182D01*
X124485203Y-139214660D01*
X124488861Y-139213144D01*
X124503372Y-139209845D01*
X124674802Y-139152703D01*
X124701653Y-139140715D01*
X124705724Y-139137183D01*
X124710704Y-139135121D01*
X124733434Y-139116466D01*
X124847719Y-139002180D01*
X124857158Y-138990678D01*
X124860152Y-138988082D01*
X124862992Y-138983568D01*
X124866374Y-138979449D01*
X124867889Y-138975789D01*
X124875817Y-138963196D01*
X124932960Y-138848910D01*
X124933778Y-138846771D01*
X124934424Y-138845900D01*
X124938808Y-138833626D01*
X124943470Y-138821446D01*
X124943546Y-138820363D01*
X124944317Y-138818208D01*
X125001460Y-138589637D01*
X125002209Y-138584565D01*
X125003057Y-138582521D01*
X125004142Y-138571498D01*
X125005762Y-138560548D01*
X125005436Y-138558360D01*
X125005939Y-138553257D01*
X125005939Y-138381828D01*
X125005436Y-138376724D01*
X125005762Y-138374537D01*
X125004142Y-138363586D01*
X125003057Y-138352564D01*
X125002209Y-138350519D01*
X125001460Y-138345448D01*
X124944317Y-138116877D01*
X124943546Y-138114721D01*
X124943470Y-138113639D01*
X124938808Y-138101458D01*
X124934424Y-138089185D01*
X124933778Y-138088313D01*
X124932960Y-138086175D01*
X124875817Y-137971889D01*
X124867889Y-137959295D01*
X124866374Y-137955636D01*
X124862992Y-137951516D01*
X124860152Y-137947003D01*
X124857158Y-137944406D01*
X124847719Y-137932905D01*
X124733434Y-137818619D01*
X124710704Y-137799964D01*
X124705722Y-137797900D01*
X124701653Y-137794371D01*
X124674802Y-137782382D01*
X124503373Y-137725240D01*
X124488865Y-137721941D01*
X124485203Y-137720424D01*
X124479894Y-137719901D01*
X124474700Y-137718720D01*
X124470750Y-137719000D01*
X124455939Y-137717542D01*
X124170225Y-137717542D01*
X124140961Y-137720424D01*
X124086889Y-137742822D01*
X124045505Y-137784206D01*
X124023107Y-137838278D01*
X124020225Y-137867542D01*
X123748796Y-137867542D01*
X123745914Y-137838278D01*
X123723516Y-137784206D01*
X123682132Y-137742822D01*
X123628060Y-137720424D01*
X123569532Y-137720424D01*
X123515460Y-137742822D01*
X123474076Y-137784206D01*
X123451678Y-137838278D01*
X123448796Y-137867542D01*
X123448796Y-138502707D01*
X123043318Y-137793121D01*
X123038940Y-137786953D01*
X123037802Y-137784206D01*
X123035002Y-137781406D01*
X123026297Y-137769143D01*
X123010525Y-137756929D01*
X122996418Y-137742822D01*
X122987582Y-137739162D01*
X122980023Y-137733308D01*
X122960778Y-137728059D01*
X122942346Y-137720424D01*
X122932784Y-137720424D01*
X122923559Y-137717908D01*
X122903768Y-137720424D01*
X122883818Y-137720424D01*
X122874984Y-137724083D01*
X122865499Y-137725289D01*
X122848176Y-137735187D01*
X122829746Y-137742822D01*
X122822985Y-137749582D01*
X122814683Y-137754327D01*
X122802469Y-137770098D01*
X122788362Y-137784206D01*
X122784702Y-137793041D01*
X122778848Y-137800601D01*
X122773599Y-137819845D01*
X122765964Y-137838278D01*
X122764490Y-137853244D01*
X122763448Y-137857065D01*
X122763823Y-137860016D01*
X122763082Y-137867542D01*
X122477681Y-137867542D01*
X122471968Y-137850402D01*
X122433621Y-137806186D01*
X122408736Y-137790521D01*
X122294451Y-137733378D01*
X122266987Y-137722869D01*
X122261612Y-137722487D01*
X122256632Y-137720424D01*
X122227368Y-137717542D01*
X122055939Y-137717542D01*
X122041127Y-137719000D01*
X122037178Y-137718720D01*
X122031983Y-137719901D01*
X122026675Y-137720424D01*
X122023012Y-137721941D01*
X122008505Y-137725240D01*
X121837076Y-137782383D01*
X121810225Y-137794371D01*
X121806153Y-137797902D01*
X121801174Y-137799965D01*
X121778443Y-137818620D01*
X121664159Y-137932905D01*
X121654720Y-137944406D01*
X121651726Y-137947003D01*
X121648885Y-137951516D01*
X121645504Y-137955636D01*
X121643988Y-137959295D01*
X121636061Y-137971889D01*
X121578918Y-138086175D01*
X121578099Y-138088313D01*
X121577454Y-138089185D01*
X121573070Y-138101455D01*
X121568408Y-138113638D01*
X121568331Y-138114720D01*
X121567561Y-138116876D01*
X121510418Y-138345448D01*
X121509668Y-138350519D01*
X121508821Y-138352564D01*
X121507735Y-138363586D01*
X121506116Y-138374537D01*
X121506441Y-138376724D01*
X121505939Y-138381828D01*
X121355939Y-138381828D01*
X121355939Y-137567542D01*
X125155939Y-137567542D01*
X125155939Y-139367542D01*
G37*
G36*
X116735656Y-138047963D02*
G01*
X116803352Y-138115659D01*
X116845939Y-138286007D01*
X116845939Y-138649077D01*
X116803351Y-138819426D01*
X116735656Y-138887121D01*
X116674815Y-138917542D01*
X116517062Y-138917542D01*
X116456222Y-138887122D01*
X116388526Y-138819426D01*
X116345939Y-138649078D01*
X116345939Y-138286006D01*
X116388525Y-138115659D01*
X116456221Y-138047963D01*
X116517064Y-138017542D01*
X116674814Y-138017542D01*
X116735656Y-138047963D01*
G37*
G36*
X119644968Y-138574685D02*
G01*
X119489767Y-138574685D01*
X119567367Y-138341882D01*
X119644968Y-138574685D01*
G37*
G36*
X120266190Y-139367542D02*
G01*
X115895939Y-139367542D01*
X115895939Y-138267542D01*
X116045939Y-138267542D01*
X116045939Y-138667542D01*
X116046441Y-138672645D01*
X116046116Y-138674833D01*
X116047735Y-138685783D01*
X116048821Y-138696806D01*
X116049668Y-138698850D01*
X116050418Y-138703922D01*
X116107561Y-138932495D01*
X116117454Y-138960186D01*
X116124093Y-138969147D01*
X116128361Y-138979449D01*
X116147016Y-139002180D01*
X116261302Y-139116466D01*
X116272806Y-139125907D01*
X116275401Y-139128899D01*
X116279910Y-139131737D01*
X116284033Y-139135121D01*
X116287694Y-139136637D01*
X116300286Y-139144564D01*
X116414571Y-139201706D01*
X116442035Y-139212216D01*
X116447410Y-139212597D01*
X116452389Y-139214660D01*
X116481653Y-139217542D01*
X116710225Y-139217542D01*
X116739489Y-139214660D01*
X116744467Y-139212597D01*
X116749843Y-139212216D01*
X116777307Y-139201706D01*
X116891591Y-139144564D01*
X116904184Y-139136637D01*
X116907845Y-139135121D01*
X116911963Y-139131740D01*
X116916477Y-139128900D01*
X116919074Y-139125905D01*
X116930576Y-139116466D01*
X117044862Y-139002180D01*
X117063517Y-138979449D01*
X117067784Y-138969147D01*
X117074424Y-138960186D01*
X117084317Y-138932494D01*
X117141460Y-138703922D01*
X117142209Y-138698850D01*
X117143057Y-138696806D01*
X117144142Y-138685783D01*
X117145762Y-138674833D01*
X117145436Y-138672645D01*
X117145939Y-138667542D01*
X117145939Y-138267542D01*
X117145436Y-138262438D01*
X117145762Y-138260251D01*
X117144142Y-138249300D01*
X117143057Y-138238278D01*
X117142209Y-138236233D01*
X117141460Y-138231162D01*
X117084317Y-138002591D01*
X117074424Y-137974899D01*
X117067784Y-137965937D01*
X117063517Y-137955636D01*
X117044862Y-137932905D01*
X116979499Y-137867542D01*
X117360225Y-137867542D01*
X117360225Y-139067542D01*
X117363107Y-139096806D01*
X117385505Y-139150878D01*
X117426889Y-139192262D01*
X117480961Y-139214660D01*
X117539489Y-139214660D01*
X117593561Y-139192262D01*
X117634945Y-139150878D01*
X117657343Y-139096806D01*
X117660225Y-139067542D01*
X117660225Y-137867542D01*
X117931654Y-137867542D01*
X117931654Y-139067542D01*
X117934536Y-139096806D01*
X117956934Y-139150878D01*
X117998318Y-139192262D01*
X118052390Y-139214660D01*
X118110918Y-139214660D01*
X118164990Y-139192262D01*
X118206374Y-139150878D01*
X118228772Y-139096806D01*
X118231654Y-139067542D01*
X118231654Y-138432376D01*
X118637131Y-139141963D01*
X118641510Y-139148132D01*
X118642648Y-139150878D01*
X118645446Y-139153676D01*
X118654153Y-139165941D01*
X118669924Y-139178154D01*
X118684032Y-139192262D01*
X118692867Y-139195921D01*
X118700427Y-139201776D01*
X118719669Y-139207023D01*
X118738104Y-139214660D01*
X118747668Y-139214660D01*
X118756890Y-139217175D01*
X118776676Y-139214660D01*
X118796632Y-139214660D01*
X118805466Y-139211000D01*
X118814951Y-139209795D01*
X118832273Y-139199896D01*
X118850704Y-139192262D01*
X118857464Y-139185501D01*
X118865767Y-139180757D01*
X118877980Y-139164985D01*
X118892088Y-139150878D01*
X118895747Y-139142042D01*
X118901602Y-139134483D01*
X118906849Y-139115241D01*
X118914486Y-139096806D01*
X118915960Y-139081834D01*
X118917001Y-139078019D01*
X118916626Y-139075072D01*
X118917368Y-139067542D01*
X118917368Y-139048781D01*
X119018546Y-139048781D01*
X119022695Y-139107162D01*
X119048869Y-139159509D01*
X119093083Y-139197856D01*
X119148607Y-139216364D01*
X119206988Y-139212215D01*
X119259335Y-139186041D01*
X119297682Y-139141827D01*
X119309670Y-139114976D01*
X119389767Y-138874685D01*
X119744968Y-138874685D01*
X119825065Y-139114976D01*
X119837054Y-139141827D01*
X119875401Y-139186041D01*
X119927748Y-139212215D01*
X119986129Y-139216364D01*
X120041653Y-139197856D01*
X120085867Y-139159509D01*
X120112041Y-139107161D01*
X120116190Y-139048781D01*
X120109670Y-139020108D01*
X119709670Y-137820108D01*
X119697682Y-137793257D01*
X119690659Y-137785160D01*
X119685867Y-137775575D01*
X119671658Y-137763251D01*
X119659335Y-137749043D01*
X119649749Y-137744250D01*
X119641653Y-137737228D01*
X119623811Y-137731280D01*
X119606988Y-137722869D01*
X119596296Y-137722109D01*
X119586129Y-137718720D01*
X119567368Y-137720053D01*
X119548607Y-137718720D01*
X119538439Y-137722109D01*
X119527748Y-137722869D01*
X119510924Y-137731280D01*
X119493083Y-137737228D01*
X119484986Y-137744250D01*
X119475401Y-137749043D01*
X119463077Y-137763251D01*
X119448869Y-137775575D01*
X119444076Y-137785160D01*
X119437054Y-137793257D01*
X119425065Y-137820108D01*
X119025066Y-139020108D01*
X119018546Y-139048781D01*
X118917368Y-139048781D01*
X118917368Y-137867542D01*
X118914486Y-137838278D01*
X118892088Y-137784206D01*
X118850704Y-137742822D01*
X118796632Y-137720424D01*
X118738104Y-137720424D01*
X118684032Y-137742822D01*
X118642648Y-137784206D01*
X118620250Y-137838278D01*
X118617368Y-137867542D01*
X118617368Y-138502707D01*
X118211890Y-137793121D01*
X118207512Y-137786953D01*
X118206374Y-137784206D01*
X118203574Y-137781406D01*
X118194869Y-137769143D01*
X118179097Y-137756929D01*
X118164990Y-137742822D01*
X118156154Y-137739162D01*
X118148595Y-137733308D01*
X118129350Y-137728059D01*
X118110918Y-137720424D01*
X118101356Y-137720424D01*
X118092131Y-137717908D01*
X118072340Y-137720424D01*
X118052390Y-137720424D01*
X118043556Y-137724083D01*
X118034071Y-137725289D01*
X118016748Y-137735187D01*
X117998318Y-137742822D01*
X117991557Y-137749582D01*
X117983255Y-137754327D01*
X117971041Y-137770098D01*
X117956934Y-137784206D01*
X117953274Y-137793041D01*
X117947420Y-137800601D01*
X117942171Y-137819845D01*
X117934536Y-137838278D01*
X117933062Y-137853244D01*
X117932020Y-137857065D01*
X117932395Y-137860016D01*
X117931654Y-137867542D01*
X117660225Y-137867542D01*
X117657343Y-137838278D01*
X117634945Y-137784206D01*
X117593561Y-137742822D01*
X117539489Y-137720424D01*
X117480961Y-137720424D01*
X117426889Y-137742822D01*
X117385505Y-137784206D01*
X117363107Y-137838278D01*
X117360225Y-137867542D01*
X116979499Y-137867542D01*
X116930576Y-137818619D01*
X116919074Y-137809179D01*
X116916478Y-137806186D01*
X116911964Y-137803344D01*
X116907845Y-137799964D01*
X116904186Y-137798448D01*
X116891593Y-137790521D01*
X116777308Y-137733378D01*
X116749844Y-137722869D01*
X116744469Y-137722487D01*
X116739489Y-137720424D01*
X116710225Y-137717542D01*
X116481653Y-137717542D01*
X116452389Y-137720424D01*
X116447411Y-137722485D01*
X116442034Y-137722868D01*
X116414571Y-137733378D01*
X116300285Y-137790521D01*
X116287691Y-137798448D01*
X116284033Y-137799964D01*
X116279913Y-137803344D01*
X116275400Y-137806186D01*
X116272803Y-137809180D01*
X116261302Y-137818619D01*
X116147016Y-137932905D01*
X116128361Y-137955636D01*
X116124093Y-137965937D01*
X116117454Y-137974899D01*
X116107561Y-138002590D01*
X116050418Y-138231162D01*
X116049668Y-138236233D01*
X116048821Y-138238278D01*
X116047735Y-138249300D01*
X116046116Y-138260251D01*
X116046441Y-138262438D01*
X116045939Y-138267542D01*
X115895939Y-138267542D01*
X115895939Y-137567542D01*
X120266190Y-137567542D01*
X120266190Y-139367542D01*
G37*
G36*
X104450682Y-138574685D02*
G01*
X104295481Y-138574685D01*
X104373081Y-138341882D01*
X104450682Y-138574685D01*
G37*
G36*
X105071904Y-139367542D02*
G01*
X102873082Y-139367542D01*
X102873082Y-137867542D01*
X103023082Y-137867542D01*
X103023082Y-139067542D01*
X103025964Y-139096806D01*
X103048362Y-139150878D01*
X103089746Y-139192262D01*
X103143818Y-139214660D01*
X103173082Y-139217542D01*
X103744510Y-139217542D01*
X103773774Y-139214660D01*
X103827846Y-139192262D01*
X103857804Y-139162303D01*
X103898797Y-139197856D01*
X103954321Y-139216364D01*
X104012702Y-139212215D01*
X104065049Y-139186041D01*
X104103396Y-139141827D01*
X104115384Y-139114976D01*
X104195481Y-138874685D01*
X104550682Y-138874685D01*
X104630779Y-139114976D01*
X104642768Y-139141827D01*
X104681115Y-139186041D01*
X104733462Y-139212215D01*
X104791843Y-139216364D01*
X104847367Y-139197856D01*
X104891581Y-139159509D01*
X104917755Y-139107161D01*
X104921904Y-139048781D01*
X104915384Y-139020108D01*
X104515384Y-137820108D01*
X104503396Y-137793257D01*
X104496373Y-137785160D01*
X104491581Y-137775575D01*
X104477372Y-137763251D01*
X104465049Y-137749043D01*
X104455463Y-137744250D01*
X104447367Y-137737228D01*
X104429525Y-137731280D01*
X104412702Y-137722869D01*
X104402010Y-137722109D01*
X104391843Y-137718720D01*
X104373082Y-137720053D01*
X104354321Y-137718720D01*
X104344153Y-137722109D01*
X104333462Y-137722869D01*
X104316638Y-137731280D01*
X104298797Y-137737228D01*
X104290700Y-137744250D01*
X104281115Y-137749043D01*
X104268791Y-137763251D01*
X104254583Y-137775575D01*
X104249790Y-137785160D01*
X104242768Y-137793257D01*
X104230779Y-137820108D01*
X103849367Y-138964343D01*
X103827846Y-138942822D01*
X103773774Y-138920424D01*
X103744510Y-138917542D01*
X103323082Y-138917542D01*
X103323082Y-137867542D01*
X103320200Y-137838278D01*
X103297802Y-137784206D01*
X103256418Y-137742822D01*
X103202346Y-137720424D01*
X103143818Y-137720424D01*
X103089746Y-137742822D01*
X103048362Y-137784206D01*
X103025964Y-137838278D01*
X103023082Y-137867542D01*
X102873082Y-137867542D01*
X102873082Y-137568720D01*
X105071904Y-137568720D01*
X105071904Y-139367542D01*
G37*
G36*
X94195656Y-138047963D02*
G01*
X94218375Y-138070682D01*
X94248796Y-138131524D01*
X94248796Y-138232132D01*
X94218375Y-138292974D01*
X94195656Y-138315693D01*
X94134814Y-138346114D01*
X93863082Y-138346114D01*
X93863082Y-138017542D01*
X94134814Y-138017542D01*
X94195656Y-138047963D01*
G37*
G36*
X95219253Y-138574685D02*
G01*
X95064052Y-138574685D01*
X95141652Y-138341882D01*
X95219253Y-138574685D01*
G37*
G36*
X95840475Y-139367507D02*
G01*
X93413082Y-139367507D01*
X93413082Y-137867542D01*
X93563082Y-137867542D01*
X93563082Y-139067542D01*
X93565964Y-139096806D01*
X93588362Y-139150878D01*
X93629746Y-139192262D01*
X93683818Y-139214660D01*
X93742346Y-139214660D01*
X93796418Y-139192262D01*
X93837802Y-139150878D01*
X93860200Y-139096806D01*
X93863082Y-139067542D01*
X93863082Y-138646114D01*
X93920698Y-138646114D01*
X94275911Y-139153561D01*
X94295054Y-139175883D01*
X94344412Y-139207336D01*
X94402047Y-139217507D01*
X94459189Y-139204848D01*
X94507137Y-139171284D01*
X94538590Y-139121926D01*
X94548761Y-139064291D01*
X94545325Y-139048781D01*
X94592831Y-139048781D01*
X94596980Y-139107162D01*
X94623154Y-139159509D01*
X94667368Y-139197856D01*
X94722892Y-139216364D01*
X94781273Y-139212215D01*
X94833620Y-139186041D01*
X94871967Y-139141827D01*
X94883955Y-139114976D01*
X94964052Y-138874685D01*
X95319253Y-138874685D01*
X95399350Y-139114976D01*
X95411339Y-139141827D01*
X95449686Y-139186041D01*
X95502033Y-139212215D01*
X95560414Y-139216364D01*
X95615938Y-139197856D01*
X95660152Y-139159509D01*
X95686326Y-139107161D01*
X95690475Y-139048781D01*
X95683955Y-139020108D01*
X95283955Y-137820108D01*
X95271967Y-137793257D01*
X95264944Y-137785160D01*
X95260152Y-137775575D01*
X95245943Y-137763251D01*
X95233620Y-137749043D01*
X95224034Y-137744250D01*
X95215938Y-137737228D01*
X95198096Y-137731280D01*
X95181273Y-137722869D01*
X95170581Y-137722109D01*
X95160414Y-137718720D01*
X95141653Y-137720053D01*
X95122892Y-137718720D01*
X95112724Y-137722109D01*
X95102033Y-137722869D01*
X95085209Y-137731280D01*
X95067368Y-137737228D01*
X95059271Y-137744250D01*
X95049686Y-137749043D01*
X95037362Y-137763251D01*
X95023154Y-137775575D01*
X95018361Y-137785160D01*
X95011339Y-137793257D01*
X94999350Y-137820108D01*
X94599351Y-139020108D01*
X94592831Y-139048781D01*
X94545325Y-139048781D01*
X94536102Y-139007149D01*
X94521681Y-138981523D01*
X94265827Y-138616018D01*
X94351593Y-138573135D01*
X94364186Y-138565207D01*
X94367845Y-138563692D01*
X94371964Y-138560311D01*
X94376478Y-138557470D01*
X94379074Y-138554476D01*
X94390576Y-138545037D01*
X94447719Y-138487894D01*
X94457159Y-138476391D01*
X94460152Y-138473796D01*
X94462990Y-138469286D01*
X94466374Y-138465164D01*
X94467890Y-138461501D01*
X94475817Y-138448910D01*
X94532960Y-138334624D01*
X94543470Y-138307160D01*
X94543851Y-138301784D01*
X94545914Y-138296806D01*
X94548796Y-138267542D01*
X94548796Y-138096114D01*
X94545914Y-138066850D01*
X94543851Y-138061871D01*
X94543470Y-138056496D01*
X94532960Y-138029032D01*
X94475817Y-137914746D01*
X94467890Y-137902154D01*
X94466374Y-137898492D01*
X94462990Y-137894369D01*
X94460152Y-137889860D01*
X94457159Y-137887264D01*
X94447719Y-137875762D01*
X94390576Y-137818619D01*
X94379074Y-137809179D01*
X94376478Y-137806186D01*
X94371964Y-137803344D01*
X94367845Y-137799964D01*
X94364186Y-137798448D01*
X94351593Y-137790521D01*
X94237308Y-137733378D01*
X94209844Y-137722869D01*
X94204469Y-137722487D01*
X94199489Y-137720424D01*
X94170225Y-137717542D01*
X93713082Y-137717542D01*
X93683818Y-137720424D01*
X93629746Y-137742822D01*
X93588362Y-137784206D01*
X93565964Y-137838278D01*
X93563082Y-137867542D01*
X93413082Y-137867542D01*
X93413082Y-137567542D01*
X95840475Y-137567542D01*
X95840475Y-139367507D01*
G37*
G36*
X88546339Y-138055788D02*
G01*
X88618374Y-138127824D01*
X88657269Y-138205613D01*
X88705939Y-138400293D01*
X88705939Y-138534792D01*
X88657269Y-138729472D01*
X88618374Y-138807260D01*
X88546340Y-138879294D01*
X88431597Y-138917542D01*
X88320225Y-138917542D01*
X88320225Y-138017542D01*
X88431599Y-138017542D01*
X88546339Y-138055788D01*
G37*
G36*
X89155939Y-139367542D02*
G01*
X85355939Y-139367542D01*
X85355939Y-138381828D01*
X85505939Y-138381828D01*
X85505939Y-138553257D01*
X85506441Y-138558360D01*
X85506116Y-138560548D01*
X85507735Y-138571498D01*
X85508821Y-138582521D01*
X85509668Y-138584565D01*
X85510418Y-138589637D01*
X85567561Y-138818209D01*
X85568331Y-138820364D01*
X85568408Y-138821447D01*
X85573070Y-138833629D01*
X85577454Y-138845900D01*
X85578099Y-138846771D01*
X85578918Y-138848910D01*
X85636061Y-138963196D01*
X85643988Y-138975789D01*
X85645504Y-138979449D01*
X85648885Y-138983568D01*
X85651726Y-138988082D01*
X85654720Y-138990678D01*
X85664159Y-139002180D01*
X85778443Y-139116465D01*
X85801174Y-139135120D01*
X85806152Y-139137182D01*
X85810226Y-139140715D01*
X85837077Y-139152703D01*
X86008506Y-139209845D01*
X86023015Y-139213144D01*
X86026675Y-139214660D01*
X86031978Y-139215182D01*
X86037180Y-139216365D01*
X86041133Y-139216083D01*
X86055939Y-139217542D01*
X86170225Y-139217542D01*
X86185030Y-139216083D01*
X86188985Y-139216365D01*
X86194186Y-139215182D01*
X86199489Y-139214660D01*
X86203146Y-139213144D01*
X86217659Y-139209845D01*
X86389087Y-139152703D01*
X86415938Y-139140714D01*
X86420008Y-139137183D01*
X86424988Y-139135121D01*
X86447719Y-139116466D01*
X86504862Y-139059323D01*
X86523517Y-139036593D01*
X86545914Y-138982520D01*
X86548796Y-138953257D01*
X86548796Y-138553257D01*
X86545914Y-138523993D01*
X86523516Y-138469921D01*
X86482132Y-138428537D01*
X86428060Y-138406139D01*
X86398796Y-138403257D01*
X86170225Y-138403257D01*
X86140961Y-138406139D01*
X86086889Y-138428537D01*
X86045505Y-138469921D01*
X86023107Y-138523993D01*
X86023107Y-138582521D01*
X86045505Y-138636593D01*
X86086889Y-138677977D01*
X86140961Y-138700375D01*
X86170225Y-138703257D01*
X86248796Y-138703257D01*
X86248796Y-138883238D01*
X86145882Y-138917542D01*
X86080281Y-138917542D01*
X85965536Y-138879294D01*
X85893503Y-138807260D01*
X85854608Y-138729471D01*
X85805939Y-138534792D01*
X85805939Y-138400292D01*
X85854608Y-138205613D01*
X85893503Y-138127824D01*
X85965538Y-138055789D01*
X86080282Y-138017542D01*
X86191957Y-138017542D01*
X86274571Y-138058849D01*
X86302034Y-138069359D01*
X86360414Y-138073507D01*
X86415937Y-138055000D01*
X86460152Y-138016653D01*
X86486327Y-137964304D01*
X86490475Y-137905924D01*
X86477681Y-137867542D01*
X86763082Y-137867542D01*
X86763082Y-139067542D01*
X86765964Y-139096806D01*
X86788362Y-139150878D01*
X86829746Y-139192262D01*
X86883818Y-139214660D01*
X86942346Y-139214660D01*
X86996418Y-139192262D01*
X87037802Y-139150878D01*
X87060200Y-139096806D01*
X87063082Y-139067542D01*
X87063082Y-138432376D01*
X87468559Y-139141963D01*
X87472938Y-139148132D01*
X87474076Y-139150878D01*
X87476874Y-139153676D01*
X87485581Y-139165941D01*
X87501352Y-139178154D01*
X87515460Y-139192262D01*
X87524295Y-139195921D01*
X87531855Y-139201776D01*
X87551097Y-139207023D01*
X87569532Y-139214660D01*
X87579096Y-139214660D01*
X87588318Y-139217175D01*
X87608104Y-139214660D01*
X87628060Y-139214660D01*
X87636894Y-139211000D01*
X87646379Y-139209795D01*
X87663701Y-139199896D01*
X87682132Y-139192262D01*
X87688892Y-139185501D01*
X87697195Y-139180757D01*
X87709408Y-139164985D01*
X87723516Y-139150878D01*
X87727175Y-139142042D01*
X87733030Y-139134483D01*
X87738277Y-139115241D01*
X87745914Y-139096806D01*
X87747388Y-139081834D01*
X87748429Y-139078019D01*
X87748054Y-139075072D01*
X87748796Y-139067542D01*
X87748796Y-137867542D01*
X88020225Y-137867542D01*
X88020225Y-139067542D01*
X88023107Y-139096806D01*
X88045505Y-139150878D01*
X88086889Y-139192262D01*
X88140961Y-139214660D01*
X88170225Y-139217542D01*
X88455939Y-139217542D01*
X88470744Y-139216083D01*
X88474699Y-139216365D01*
X88479900Y-139215182D01*
X88485203Y-139214660D01*
X88488861Y-139213144D01*
X88503372Y-139209845D01*
X88674802Y-139152703D01*
X88701653Y-139140715D01*
X88705724Y-139137183D01*
X88710704Y-139135121D01*
X88733434Y-139116466D01*
X88847719Y-139002180D01*
X88857158Y-138990678D01*
X88860152Y-138988082D01*
X88862992Y-138983568D01*
X88866374Y-138979449D01*
X88867889Y-138975789D01*
X88875817Y-138963196D01*
X88932960Y-138848910D01*
X88933778Y-138846771D01*
X88934424Y-138845900D01*
X88938808Y-138833626D01*
X88943470Y-138821446D01*
X88943546Y-138820363D01*
X88944317Y-138818208D01*
X89001460Y-138589637D01*
X89002209Y-138584565D01*
X89003057Y-138582521D01*
X89004142Y-138571498D01*
X89005762Y-138560548D01*
X89005436Y-138558360D01*
X89005939Y-138553257D01*
X89005939Y-138381828D01*
X89005436Y-138376724D01*
X89005762Y-138374537D01*
X89004142Y-138363586D01*
X89003057Y-138352564D01*
X89002209Y-138350519D01*
X89001460Y-138345448D01*
X88944317Y-138116877D01*
X88943546Y-138114721D01*
X88943470Y-138113639D01*
X88938808Y-138101458D01*
X88934424Y-138089185D01*
X88933778Y-138088313D01*
X88932960Y-138086175D01*
X88875817Y-137971889D01*
X88867889Y-137959295D01*
X88866374Y-137955636D01*
X88862992Y-137951516D01*
X88860152Y-137947003D01*
X88857158Y-137944406D01*
X88847719Y-137932905D01*
X88733434Y-137818619D01*
X88710704Y-137799964D01*
X88705722Y-137797900D01*
X88701653Y-137794371D01*
X88674802Y-137782382D01*
X88503373Y-137725240D01*
X88488865Y-137721941D01*
X88485203Y-137720424D01*
X88479894Y-137719901D01*
X88474700Y-137718720D01*
X88470750Y-137719000D01*
X88455939Y-137717542D01*
X88170225Y-137717542D01*
X88140961Y-137720424D01*
X88086889Y-137742822D01*
X88045505Y-137784206D01*
X88023107Y-137838278D01*
X88020225Y-137867542D01*
X87748796Y-137867542D01*
X87745914Y-137838278D01*
X87723516Y-137784206D01*
X87682132Y-137742822D01*
X87628060Y-137720424D01*
X87569532Y-137720424D01*
X87515460Y-137742822D01*
X87474076Y-137784206D01*
X87451678Y-137838278D01*
X87448796Y-137867542D01*
X87448796Y-138502707D01*
X87043318Y-137793121D01*
X87038940Y-137786953D01*
X87037802Y-137784206D01*
X87035002Y-137781406D01*
X87026297Y-137769143D01*
X87010525Y-137756929D01*
X86996418Y-137742822D01*
X86987582Y-137739162D01*
X86980023Y-137733308D01*
X86960778Y-137728059D01*
X86942346Y-137720424D01*
X86932784Y-137720424D01*
X86923559Y-137717908D01*
X86903768Y-137720424D01*
X86883818Y-137720424D01*
X86874984Y-137724083D01*
X86865499Y-137725289D01*
X86848176Y-137735187D01*
X86829746Y-137742822D01*
X86822985Y-137749582D01*
X86814683Y-137754327D01*
X86802469Y-137770098D01*
X86788362Y-137784206D01*
X86784702Y-137793041D01*
X86778848Y-137800601D01*
X86773599Y-137819845D01*
X86765964Y-137838278D01*
X86764490Y-137853244D01*
X86763448Y-137857065D01*
X86763823Y-137860016D01*
X86763082Y-137867542D01*
X86477681Y-137867542D01*
X86471968Y-137850402D01*
X86433621Y-137806186D01*
X86408736Y-137790521D01*
X86294451Y-137733378D01*
X86266987Y-137722869D01*
X86261612Y-137722487D01*
X86256632Y-137720424D01*
X86227368Y-137717542D01*
X86055939Y-137717542D01*
X86041127Y-137719000D01*
X86037178Y-137718720D01*
X86031983Y-137719901D01*
X86026675Y-137720424D01*
X86023012Y-137721941D01*
X86008505Y-137725240D01*
X85837076Y-137782383D01*
X85810225Y-137794371D01*
X85806153Y-137797902D01*
X85801174Y-137799965D01*
X85778443Y-137818620D01*
X85664159Y-137932905D01*
X85654720Y-137944406D01*
X85651726Y-137947003D01*
X85648885Y-137951516D01*
X85645504Y-137955636D01*
X85643988Y-137959295D01*
X85636061Y-137971889D01*
X85578918Y-138086175D01*
X85578099Y-138088313D01*
X85577454Y-138089185D01*
X85573070Y-138101455D01*
X85568408Y-138113638D01*
X85568331Y-138114720D01*
X85567561Y-138116876D01*
X85510418Y-138345448D01*
X85509668Y-138350519D01*
X85508821Y-138352564D01*
X85507735Y-138363586D01*
X85506116Y-138374537D01*
X85506441Y-138376724D01*
X85505939Y-138381828D01*
X85355939Y-138381828D01*
X85355939Y-137567542D01*
X89155939Y-137567542D01*
X89155939Y-139367542D01*
G37*
G36*
X82195656Y-138047963D02*
G01*
X82218375Y-138070682D01*
X82248796Y-138131524D01*
X82248796Y-138232132D01*
X82218375Y-138292974D01*
X82195656Y-138315693D01*
X82134814Y-138346114D01*
X81863082Y-138346114D01*
X81863082Y-138017542D01*
X82134814Y-138017542D01*
X82195656Y-138047963D01*
G37*
G36*
X83781628Y-139367542D02*
G01*
X81413082Y-139367542D01*
X81413082Y-137867542D01*
X81563082Y-137867542D01*
X81563082Y-139067542D01*
X81565964Y-139096806D01*
X81588362Y-139150878D01*
X81629746Y-139192262D01*
X81683818Y-139214660D01*
X81742346Y-139214660D01*
X81796418Y-139192262D01*
X81837802Y-139150878D01*
X81860200Y-139096806D01*
X81863082Y-139067542D01*
X81863082Y-138646114D01*
X81920698Y-138646114D01*
X82275911Y-139153561D01*
X82295054Y-139175883D01*
X82344412Y-139207336D01*
X82402047Y-139217507D01*
X82459189Y-139204848D01*
X82507137Y-139171284D01*
X82538590Y-139121926D01*
X82548761Y-139064291D01*
X82536102Y-139007149D01*
X82521681Y-138981523D01*
X82265827Y-138616018D01*
X82351593Y-138573135D01*
X82364186Y-138565207D01*
X82367845Y-138563692D01*
X82371964Y-138560311D01*
X82376478Y-138557470D01*
X82379074Y-138554476D01*
X82390576Y-138545037D01*
X82447719Y-138487894D01*
X82457159Y-138476391D01*
X82460152Y-138473796D01*
X82462990Y-138469286D01*
X82466374Y-138465164D01*
X82467890Y-138461501D01*
X82475817Y-138448910D01*
X82532960Y-138334624D01*
X82543470Y-138307160D01*
X82543851Y-138301784D01*
X82545914Y-138296806D01*
X82548796Y-138267542D01*
X82548796Y-138096114D01*
X82545914Y-138066850D01*
X82543851Y-138061871D01*
X82543470Y-138056496D01*
X82532960Y-138029032D01*
X82475817Y-137914746D01*
X82467890Y-137902154D01*
X82466374Y-137898492D01*
X82462990Y-137894369D01*
X82460152Y-137889860D01*
X82457159Y-137887264D01*
X82447719Y-137875762D01*
X82439499Y-137867542D01*
X82763082Y-137867542D01*
X82763082Y-139067542D01*
X82765964Y-139096806D01*
X82788362Y-139150878D01*
X82829746Y-139192262D01*
X82883818Y-139214660D01*
X82913082Y-139217542D01*
X83484510Y-139217542D01*
X83513774Y-139214660D01*
X83567846Y-139192262D01*
X83609230Y-139150878D01*
X83631628Y-139096806D01*
X83631628Y-139038278D01*
X83609230Y-138984206D01*
X83567846Y-138942822D01*
X83513774Y-138920424D01*
X83484510Y-138917542D01*
X83063082Y-138917542D01*
X83063082Y-137867542D01*
X83060200Y-137838278D01*
X83037802Y-137784206D01*
X82996418Y-137742822D01*
X82942346Y-137720424D01*
X82883818Y-137720424D01*
X82829746Y-137742822D01*
X82788362Y-137784206D01*
X82765964Y-137838278D01*
X82763082Y-137867542D01*
X82439499Y-137867542D01*
X82390576Y-137818619D01*
X82379074Y-137809179D01*
X82376478Y-137806186D01*
X82371964Y-137803344D01*
X82367845Y-137799964D01*
X82364186Y-137798448D01*
X82351593Y-137790521D01*
X82237308Y-137733378D01*
X82209844Y-137722869D01*
X82204469Y-137722487D01*
X82199489Y-137720424D01*
X82170225Y-137717542D01*
X81713082Y-137717542D01*
X81683818Y-137720424D01*
X81629746Y-137742822D01*
X81588362Y-137784206D01*
X81565964Y-137838278D01*
X81563082Y-137867542D01*
X81413082Y-137867542D01*
X81413082Y-137567542D01*
X83781628Y-137567542D01*
X83781628Y-139367542D01*
G37*
D11*
X123717799Y-172056980D02*
X123717799Y-171818885D01*
X123955894Y-171914123D02*
X123717799Y-171818885D01*
X123717799Y-171818885D02*
X123479704Y-171914123D01*
X123860656Y-171628409D02*
X123717799Y-171818885D01*
X123717799Y-171818885D02*
X123574942Y-171628409D01*
X135022600Y-156477619D02*
X135022600Y-156715714D01*
X134784505Y-156620476D02*
X135022600Y-156715714D01*
X135022600Y-156715714D02*
X135260695Y-156620476D01*
X134879743Y-156906190D02*
X135022600Y-156715714D01*
X135022600Y-156715714D02*
X135165457Y-156906190D01*
D12*
%TO.C,C14*%
X115711252Y-154090000D02*
X114288748Y-154090000D01*
X115711252Y-155910000D02*
X114288748Y-155910000D01*
%TO.C,C6*%
X134410000Y-171211252D02*
X134410000Y-169788748D01*
X132590000Y-171211252D02*
X132590000Y-169788748D01*
%TO.C,C10*%
X134410000Y-166211252D02*
X134410000Y-164788748D01*
X132590000Y-166211252D02*
X132590000Y-164788748D01*
%TO.C,R17*%
X129590000Y-164772936D02*
X129590000Y-166227064D01*
X131410000Y-164772936D02*
X131410000Y-166227064D01*
%TO.C,R16*%
X131410000Y-169772936D02*
X131410000Y-171227064D01*
X129590000Y-169772936D02*
X129590000Y-171227064D01*
D13*
%TO.C,U6*%
G36*
X117291600Y-164920500D02*
G01*
X117037600Y-164920500D01*
X117037600Y-164539500D01*
X117291600Y-164539500D01*
X117291600Y-164920500D01*
G37*
D14*
X123133600Y-161491500D02*
X118866400Y-161491500D01*
X118866400Y-170508500D02*
X123133600Y-170508500D01*
D12*
%TO.C,R4*%
X105639401Y-146798914D02*
X105639401Y-145344786D01*
X103819401Y-146798914D02*
X103819401Y-145344786D01*
%TO.C,J5*%
X105730000Y-139620000D02*
X110920000Y-139620000D01*
X110920000Y-142380000D02*
X110920000Y-139620000D01*
X105730000Y-142380000D02*
X105730000Y-139620000D01*
X105730000Y-142380000D02*
X110920000Y-142380000D01*
X104460000Y-142380000D02*
X103080000Y-142380000D01*
X103080000Y-142380000D02*
X103080000Y-141000000D01*
%TO.C,J13*%
X115380000Y-142270000D02*
X115380000Y-142380000D01*
X112620000Y-142380000D02*
X115380000Y-142380000D01*
X112620000Y-142270000D02*
X115380000Y-142270000D01*
X112620000Y-142270000D02*
X112620000Y-142380000D01*
X112620000Y-141000000D02*
X112620000Y-139620000D01*
X112620000Y-139620000D02*
X114000000Y-139620000D01*
%TO.C,J6*%
X96270000Y-139620000D02*
X101460000Y-139620000D01*
X101460000Y-142380000D02*
X101460000Y-139620000D01*
X96270000Y-142380000D02*
X96270000Y-139620000D01*
X96270000Y-142380000D02*
X101460000Y-142380000D01*
X95000000Y-142380000D02*
X93620000Y-142380000D01*
X93620000Y-142380000D02*
X93620000Y-141000000D01*
%TO.C,J14*%
X92380000Y-142270000D02*
X92380000Y-142380000D01*
X89620000Y-142380000D02*
X92380000Y-142380000D01*
X89620000Y-142270000D02*
X92380000Y-142270000D01*
X89620000Y-142270000D02*
X89620000Y-142380000D01*
X89620000Y-141000000D02*
X89620000Y-139620000D01*
X89620000Y-139620000D02*
X91000000Y-139620000D01*
D13*
%TO.C,U4*%
G36*
X135860800Y-149915501D02*
G01*
X135606800Y-149915501D01*
X135606800Y-149534501D01*
X135860800Y-149534501D01*
X135860800Y-149915501D01*
G37*
G36*
X128393200Y-153165499D02*
G01*
X128139200Y-153165499D01*
X128139200Y-152784499D01*
X128393200Y-152784499D01*
X128393200Y-153165499D01*
G37*
D14*
X134374900Y-147923300D02*
X129625100Y-147923300D01*
X129625100Y-156076700D02*
X134374900Y-156076700D01*
D13*
%TO.C,U3*%
G36*
X90204600Y-167950100D02*
G01*
X89950600Y-167950100D01*
X89950600Y-167569100D01*
X90204600Y-167569100D01*
X90204600Y-167950100D01*
G37*
D14*
X84108600Y-170998100D02*
X88375800Y-170998100D01*
X88375800Y-161981100D02*
X84108600Y-161981100D01*
%TO.C,U2*%
X109707800Y-147199799D02*
G75*
G02*
X109504600Y-147199799I-101600J0D01*
G01*
X109504600Y-147199799D02*
G75*
G02*
X109707800Y-147199799I101600J0D01*
G01*
X107675900Y-148603486D02*
X107675900Y-149796512D01*
X109936500Y-149796512D02*
X109936500Y-148603486D01*
%TO.C,U1*%
X146978700Y-169900800D02*
X148832900Y-169900800D01*
X148832900Y-168689261D02*
X148832900Y-167962739D01*
X148832900Y-166751200D02*
X146978700Y-166751200D01*
D12*
%TO.C,R31*%
X141576000Y-168553064D02*
X141576000Y-167098936D01*
X143396000Y-168553064D02*
X143396000Y-167098936D01*
%TO.C,R27*%
X121772936Y-158590000D02*
X123227064Y-158590000D01*
X121772936Y-160410000D02*
X123227064Y-160410000D01*
%TO.C,R26*%
X112227064Y-158910000D02*
X110772936Y-158910000D01*
X112227064Y-157090000D02*
X110772936Y-157090000D01*
%TO.C,R25*%
X110410000Y-161272936D02*
X110410000Y-162727064D01*
X108590000Y-161272936D02*
X108590000Y-162727064D01*
%TO.C,R23*%
X113090000Y-163727064D02*
X113090000Y-162272936D01*
X114910000Y-163727064D02*
X114910000Y-162272936D01*
%TO.C,R22*%
X110090000Y-168727064D02*
X110090000Y-167272936D01*
X111910000Y-168727064D02*
X111910000Y-167272936D01*
%TO.C,R21*%
X107090000Y-168727064D02*
X107090000Y-167272936D01*
X108910000Y-168727064D02*
X108910000Y-167272936D01*
%TO.C,R20*%
X128410000Y-169772936D02*
X128410000Y-171227064D01*
X126590000Y-169772936D02*
X126590000Y-171227064D01*
%TO.C,R19*%
X122822936Y-171090000D02*
X124277064Y-171090000D01*
X122822936Y-172910000D02*
X124277064Y-172910000D01*
%TO.C,R13*%
X95727064Y-173910000D02*
X94272936Y-173910000D01*
X95727064Y-172090000D02*
X94272936Y-172090000D01*
%TO.C,R12*%
X88272936Y-172090000D02*
X89727064Y-172090000D01*
X88272936Y-173910000D02*
X89727064Y-173910000D01*
%TO.C,R10*%
X78616000Y-169492536D02*
X78616000Y-170946664D01*
X76796000Y-169492536D02*
X76796000Y-170946664D01*
%TO.C,R8*%
X85106000Y-158946664D02*
X85106000Y-157492536D01*
X86926000Y-158946664D02*
X86926000Y-157492536D01*
%TO.C,R7*%
X81796000Y-158946664D02*
X81796000Y-157492536D01*
X83616000Y-158946664D02*
X83616000Y-157492536D01*
%TO.C,R6*%
X104090000Y-153727064D02*
X104090000Y-152272936D01*
X105910000Y-153727064D02*
X105910000Y-152272936D01*
%TO.C,R5*%
X101090000Y-153727064D02*
X101090000Y-152272936D01*
X102910000Y-153727064D02*
X102910000Y-152272936D01*
%TO.C,R3*%
X101090000Y-146727064D02*
X101090000Y-145272936D01*
X102910000Y-146727064D02*
X102910000Y-145272936D01*
%TO.C,R2*%
X79796000Y-165216664D02*
X79796000Y-163762536D01*
X81616000Y-165216664D02*
X81616000Y-163762536D01*
%TO.C,R1*%
X76796000Y-165216664D02*
X76796000Y-163762536D01*
X78616000Y-165216664D02*
X78616000Y-163762536D01*
%TO.C,J24*%
X131620000Y-178620000D02*
X133000000Y-178620000D01*
X131620000Y-180000000D02*
X131620000Y-178620000D01*
X131620000Y-181270000D02*
X131620000Y-181380000D01*
X131620000Y-181270000D02*
X134380000Y-181270000D01*
X131620000Y-181380000D02*
X134380000Y-181380000D01*
X134380000Y-181270000D02*
X134380000Y-181380000D01*
%TO.C,J22*%
X80326000Y-173839600D02*
X81706000Y-173839600D01*
X80326000Y-175219600D02*
X80326000Y-173839600D01*
X80326000Y-176489600D02*
X80326000Y-176599600D01*
X80326000Y-176489600D02*
X83086000Y-176489600D01*
X80326000Y-176599600D02*
X83086000Y-176599600D01*
X83086000Y-176489600D02*
X83086000Y-176599600D01*
%TO.C,J21*%
X121620000Y-139620000D02*
X123000000Y-139620000D01*
X121620000Y-141000000D02*
X121620000Y-139620000D01*
X121620000Y-142270000D02*
X121620000Y-142380000D01*
X121620000Y-142270000D02*
X124380000Y-142270000D01*
X121620000Y-142380000D02*
X124380000Y-142380000D01*
X124380000Y-142270000D02*
X124380000Y-142380000D01*
%TO.C,J20*%
X152606000Y-170526000D02*
X152606000Y-169146000D01*
X153986000Y-170526000D02*
X152606000Y-170526000D01*
X155256000Y-170526000D02*
X155366000Y-170526000D01*
X155256000Y-170526000D02*
X155256000Y-167766000D01*
X155366000Y-170526000D02*
X155366000Y-167766000D01*
X155256000Y-167766000D02*
X155366000Y-167766000D01*
%TO.C,J19*%
X126120000Y-139620000D02*
X127500000Y-139620000D01*
X126120000Y-141000000D02*
X126120000Y-139620000D01*
X126120000Y-142270000D02*
X126120000Y-142380000D01*
X126120000Y-142270000D02*
X128880000Y-142270000D01*
X126120000Y-142380000D02*
X128880000Y-142380000D01*
X128880000Y-142270000D02*
X128880000Y-142380000D01*
%TO.C,J18*%
X125620000Y-178620000D02*
X127000000Y-178620000D01*
X125620000Y-180000000D02*
X125620000Y-178620000D01*
X125620000Y-181270000D02*
X125620000Y-181380000D01*
X125620000Y-181270000D02*
X128380000Y-181270000D01*
X125620000Y-181380000D02*
X128380000Y-181380000D01*
X128380000Y-181270000D02*
X128380000Y-181380000D01*
%TO.C,J17*%
X101620000Y-178620000D02*
X103000000Y-178620000D01*
X101620000Y-180000000D02*
X101620000Y-178620000D01*
X101620000Y-181270000D02*
X101620000Y-181380000D01*
X101620000Y-181270000D02*
X104380000Y-181270000D01*
X101620000Y-181380000D02*
X104380000Y-181380000D01*
X104380000Y-181270000D02*
X104380000Y-181380000D01*
%TO.C,J16*%
X84620000Y-178620000D02*
X86000000Y-178620000D01*
X84620000Y-180000000D02*
X84620000Y-178620000D01*
X84620000Y-181270000D02*
X84620000Y-181380000D01*
X84620000Y-181270000D02*
X87380000Y-181270000D01*
X84620000Y-181380000D02*
X87380000Y-181380000D01*
X87380000Y-181270000D02*
X87380000Y-181380000D01*
%TO.C,J15*%
X155936000Y-156916000D02*
X155936000Y-139076000D01*
X155936000Y-156916000D02*
X153276000Y-156916000D01*
X155936000Y-139076000D02*
X153276000Y-139076000D01*
X154606000Y-159516000D02*
X153276000Y-159516000D01*
X153276000Y-159516000D02*
X153276000Y-158186000D01*
X153276000Y-156916000D02*
X153276000Y-139076000D01*
%TO.C,J12*%
X81620000Y-139620000D02*
X83000000Y-139620000D01*
X81620000Y-141000000D02*
X81620000Y-139620000D01*
X81620000Y-142270000D02*
X81620000Y-142380000D01*
X81620000Y-142270000D02*
X84380000Y-142270000D01*
X81620000Y-142380000D02*
X84380000Y-142380000D01*
X84380000Y-142270000D02*
X84380000Y-142380000D01*
%TO.C,J11*%
X152606000Y-165706000D02*
X152606000Y-164326000D01*
X153986000Y-165706000D02*
X152606000Y-165706000D01*
X155256000Y-165706000D02*
X155366000Y-165706000D01*
X155256000Y-165706000D02*
X155256000Y-162946000D01*
X155366000Y-165706000D02*
X155366000Y-162946000D01*
X155256000Y-162946000D02*
X155366000Y-162946000D01*
%TO.C,J10*%
X75862200Y-173839600D02*
X77242200Y-173839600D01*
X75862200Y-175219600D02*
X75862200Y-173839600D01*
X75862200Y-176489600D02*
X75862200Y-176599600D01*
X75862200Y-176489600D02*
X78622200Y-176489600D01*
X75862200Y-176599600D02*
X78622200Y-176599600D01*
X78622200Y-176489600D02*
X78622200Y-176599600D01*
%TO.C,J9*%
X85620000Y-139620000D02*
X87000000Y-139620000D01*
X85620000Y-141000000D02*
X85620000Y-139620000D01*
X85620000Y-142270000D02*
X85620000Y-142380000D01*
X85620000Y-142270000D02*
X88380000Y-142270000D01*
X85620000Y-142380000D02*
X88380000Y-142380000D01*
X88380000Y-142270000D02*
X88380000Y-142380000D01*
%TO.C,J8*%
X116120000Y-181380000D02*
X116120000Y-180000000D01*
X117500000Y-181380000D02*
X116120000Y-181380000D01*
X118770000Y-181380000D02*
X123960000Y-181380000D01*
X118770000Y-181380000D02*
X118770000Y-178620000D01*
X123960000Y-181380000D02*
X123960000Y-178620000D01*
X118770000Y-178620000D02*
X123960000Y-178620000D01*
%TO.C,J7*%
X116620000Y-139620000D02*
X118000000Y-139620000D01*
X116620000Y-141000000D02*
X116620000Y-139620000D01*
X116620000Y-142270000D02*
X116620000Y-142380000D01*
X116620000Y-142270000D02*
X119380000Y-142270000D01*
X116620000Y-142380000D02*
X119380000Y-142380000D01*
X119380000Y-142270000D02*
X119380000Y-142380000D01*
%TO.C,J4*%
X96380000Y-178747101D02*
X96380000Y-180127101D01*
X95000000Y-178747101D02*
X96380000Y-178747101D01*
X93730000Y-178747101D02*
X88540000Y-178747101D01*
X93730000Y-178747101D02*
X93730000Y-181507101D01*
X88540000Y-178747101D02*
X88540000Y-181507101D01*
X93730000Y-181507101D02*
X88540000Y-181507101D01*
%TO.C,J3*%
X113380000Y-178620000D02*
X113380000Y-180000000D01*
X112000000Y-178620000D02*
X113380000Y-178620000D01*
X110730000Y-178620000D02*
X105540000Y-178620000D01*
X110730000Y-178620000D02*
X110730000Y-181380000D01*
X105540000Y-178620000D02*
X105540000Y-181380000D01*
X110730000Y-181380000D02*
X105540000Y-181380000D01*
%TO.C,J2*%
X140736000Y-156996000D02*
X140736000Y-139156000D01*
X140736000Y-156996000D02*
X138076000Y-156996000D01*
X140736000Y-139156000D02*
X138076000Y-139156000D01*
X139406000Y-159596000D02*
X138076000Y-159596000D01*
X138076000Y-159596000D02*
X138076000Y-158266000D01*
X138076000Y-156996000D02*
X138076000Y-139156000D01*
%TO.C,J1*%
X77400000Y-152100000D02*
X77400000Y-151600000D01*
X78600000Y-152100000D02*
X78600000Y-154100000D01*
X78600000Y-152100000D02*
X77400000Y-152100000D01*
X81200000Y-152100000D02*
X81200000Y-154100000D01*
X87700000Y-152100000D02*
X81200000Y-152100000D01*
X92100000Y-152100000D02*
X90900000Y-152100000D01*
X74900000Y-151600000D02*
X74900000Y-146400000D01*
X77400000Y-151600000D02*
X74900000Y-151600000D01*
X74900000Y-146400000D02*
X77400000Y-146400000D01*
X77400000Y-146400000D02*
X77400000Y-145900000D01*
X77400000Y-145900000D02*
X80600000Y-145900000D01*
X83200000Y-145900000D02*
X92100000Y-145900000D01*
X92100000Y-145900000D02*
X92100000Y-152100000D01*
D14*
%TO.C,D8*%
X93698000Y-153000000D02*
X92428000Y-153000000D01*
X92682000Y-152365000D02*
X92682000Y-153635000D01*
X92682000Y-153000000D02*
X93444000Y-152365000D01*
X92682000Y-153000000D02*
X93444000Y-152492000D01*
X92682000Y-153000000D02*
X93444000Y-152619000D01*
X92682000Y-153000000D02*
X93444000Y-152746000D01*
X92682000Y-153000000D02*
X93444000Y-152873000D01*
X92682000Y-153000000D02*
X93444000Y-153635000D01*
X92682000Y-153000000D02*
X93444000Y-153508000D01*
X92682000Y-153000000D02*
X93444000Y-153381000D01*
X92682000Y-153000000D02*
X93444000Y-153254000D01*
X92682000Y-153000000D02*
X93444000Y-153127000D01*
X93444000Y-152365000D02*
X93444000Y-153635000D01*
X94079000Y-155095500D02*
X99921000Y-155095500D01*
X99921000Y-155095500D02*
X99921000Y-154424940D01*
X99921000Y-150904500D02*
X94079000Y-150904500D01*
X94079000Y-150904500D02*
X94079000Y-151575060D01*
X94079000Y-154424940D02*
X94079000Y-155095500D01*
X99921000Y-151575060D02*
X99921000Y-150904500D01*
%TO.C,D7*%
X93698000Y-146000000D02*
X92428000Y-146000000D01*
X92682000Y-145365000D02*
X92682000Y-146635000D01*
X92682000Y-146000000D02*
X93444000Y-145365000D01*
X92682000Y-146000000D02*
X93444000Y-145492000D01*
X92682000Y-146000000D02*
X93444000Y-145619000D01*
X92682000Y-146000000D02*
X93444000Y-145746000D01*
X92682000Y-146000000D02*
X93444000Y-145873000D01*
X92682000Y-146000000D02*
X93444000Y-146635000D01*
X92682000Y-146000000D02*
X93444000Y-146508000D01*
X92682000Y-146000000D02*
X93444000Y-146381000D01*
X92682000Y-146000000D02*
X93444000Y-146254000D01*
X92682000Y-146000000D02*
X93444000Y-146127000D01*
X93444000Y-145365000D02*
X93444000Y-146635000D01*
X94079000Y-148095500D02*
X99921000Y-148095500D01*
X99921000Y-148095500D02*
X99921000Y-147424940D01*
X99921000Y-143904500D02*
X94079000Y-143904500D01*
X94079000Y-143904500D02*
X94079000Y-144575060D01*
X94079000Y-147424940D02*
X94079000Y-148095500D01*
X99921000Y-144575060D02*
X99921000Y-143904500D01*
D12*
%TO.C,D6*%
X141201000Y-162691000D02*
X141201000Y-164961000D01*
X141201000Y-164961000D02*
X145086000Y-164961000D01*
X145086000Y-162691000D02*
X141201000Y-162691000D01*
D14*
%TO.C,D1*%
X147080300Y-164901601D02*
X148731300Y-164901601D01*
X147080300Y-163862741D02*
X147080300Y-164901601D01*
X148731300Y-163604260D02*
X148731300Y-162947742D01*
X147080300Y-161650401D02*
X147080300Y-162689261D01*
X148731300Y-161650401D02*
X147080300Y-161650401D01*
D12*
%TO.C,C15*%
X118211252Y-158910000D02*
X116788748Y-158910000D01*
X118211252Y-157090000D02*
X116788748Y-157090000D01*
%TO.C,C13*%
X114910000Y-167288748D02*
X114910000Y-168711252D01*
X113090000Y-167288748D02*
X113090000Y-168711252D01*
%TO.C,C11*%
X128410000Y-164788748D02*
X128410000Y-166211252D01*
X126590000Y-164788748D02*
X126590000Y-166211252D01*
%TO.C,C9*%
X92726248Y-161090000D02*
X94148752Y-161090000D01*
X92726248Y-162910000D02*
X94148752Y-162910000D01*
%TO.C,C8*%
X95910000Y-168288748D02*
X95910000Y-169711252D01*
X94090000Y-168288748D02*
X94090000Y-169711252D01*
%TO.C,C7*%
X92910000Y-168288748D02*
X92910000Y-169711252D01*
X91090000Y-168288748D02*
X91090000Y-169711252D01*
%TO.C,C5*%
X81616000Y-169508348D02*
X81616000Y-170930852D01*
X79796000Y-169508348D02*
X79796000Y-170930852D01*
%TO.C,R18*%
X129727064Y-162410000D02*
X128272936Y-162410000D01*
X129727064Y-160590000D02*
X128272936Y-160590000D01*
D15*
%TO.C,U5*%
X137975000Y-136935000D02*
X155975000Y-136935000D01*
X137975000Y-136935000D02*
X137975000Y-159635000D01*
X137975000Y-159635000D02*
X142475000Y-159635000D01*
X155975000Y-136935000D02*
X155975000Y-159635000D01*
X142475000Y-160935000D02*
X151475000Y-160935000D01*
X142475000Y-160935000D02*
X142475000Y-159635000D01*
X151475000Y-160935000D02*
X151475000Y-159635000D01*
X151475000Y-159635000D02*
X155975000Y-159635000D01*
%TD*%
M02*
