%TF.GenerationSoftware,KiCad,Pcbnew,9.0.7*%
%TF.CreationDate,2026-06-11T13:07:40+03:00*%
%TF.ProjectId,PCB,5043422e-6b69-4636-9164-5f7063625858,rev?*%
%TF.SameCoordinates,Original*%
%TF.FileFunction,Soldermask,Bot*%
%TF.FilePolarity,Negative*%
%FSLAX46Y46*%
G04 Gerber Fmt 4.6, Leading zero omitted, Abs format (unit mm)*
G04 Created by KiCad (PCBNEW 9.0.7) date 2026-06-11 13:07:40*
%MOMM*%
%LPD*%
G01*
G04 APERTURE LIST*
G04 Aperture macros list*
%AMRoundRect*
0 Rectangle with rounded corners*
0 $1 Rounding radius*
0 $2 $3 $4 $5 $6 $7 $8 $9 X,Y pos of 4 corners*
0 Add a 4 corners polygon primitive as box body*
4,1,4,$2,$3,$4,$5,$6,$7,$8,$9,$2,$3,0*
0 Add four circle primitives for the rounded corners*
1,1,$1+$1,$2,$3*
1,1,$1+$1,$4,$5*
1,1,$1+$1,$6,$7*
1,1,$1+$1,$8,$9*
0 Add four rect primitives between the rounded corners*
20,1,$1+$1,$2,$3,$4,$5,0*
20,1,$1+$1,$4,$5,$6,$7,0*
20,1,$1+$1,$6,$7,$8,$9,0*
20,1,$1+$1,$8,$9,$2,$3,0*%
G04 Aperture macros list end*
%ADD10RoundRect,0.250000X0.650000X-0.412500X0.650000X0.412500X-0.650000X0.412500X-0.650000X-0.412500X0*%
%ADD11C,1.700000*%
%ADD12R,1.700000X1.700000*%
%ADD13RoundRect,0.250000X-0.625000X0.400000X-0.625000X-0.400000X0.625000X-0.400000X0.625000X0.400000X0*%
%ADD14RoundRect,0.250000X0.625000X-0.400000X0.625000X0.400000X-0.625000X0.400000X-0.625000X-0.400000X0*%
%ADD15RoundRect,0.250000X0.400000X0.625000X-0.400000X0.625000X-0.400000X-0.625000X0.400000X-0.625000X0*%
%ADD16R,0.508000X0.965200*%
%ADD17RoundRect,0.250000X-0.650000X0.412500X-0.650000X-0.412500X0.650000X-0.412500X0.650000X0.412500X0*%
%ADD18C,1.552000*%
G04 APERTURE END LIST*
D10*
%TO.C,C16*%
X130500000Y-149937500D03*
X130500000Y-153062500D03*
%TD*%
%TO.C,C20*%
X136000000Y-149000000D03*
X136000000Y-152125000D03*
%TD*%
D11*
%TO.C,J5*%
X109540000Y-141000000D03*
X107000000Y-141000000D03*
D12*
X104460000Y-141000000D03*
%TD*%
%TO.C,J13*%
X114000000Y-141000000D03*
%TD*%
D11*
%TO.C,J6*%
X100080000Y-141000000D03*
X97540000Y-141000000D03*
D12*
X95000000Y-141000000D03*
%TD*%
%TO.C,J14*%
X91000000Y-141000000D03*
%TD*%
D13*
%TO.C,R28*%
X121500000Y-163450000D03*
X121500000Y-166550000D03*
%TD*%
%TO.C,R24*%
X112500000Y-161450000D03*
X112500000Y-164550000D03*
%TD*%
D14*
%TO.C,R14*%
X92000000Y-167550000D03*
X92000000Y-164450000D03*
%TD*%
D15*
%TO.C,R11*%
X94700000Y-170000000D03*
X91600000Y-170000000D03*
%TD*%
D14*
%TO.C,R9*%
X78706000Y-171769600D03*
X78706000Y-168669600D03*
%TD*%
D12*
%TO.C,J24*%
X133000000Y-180000000D03*
%TD*%
%TO.C,J22*%
X81706000Y-175219600D03*
%TD*%
%TO.C,J21*%
X123000000Y-141000000D03*
%TD*%
%TO.C,J20*%
X153986000Y-169146000D03*
%TD*%
%TO.C,J19*%
X127500000Y-141000000D03*
%TD*%
%TO.C,J18*%
X127000000Y-180000000D03*
%TD*%
%TO.C,J17*%
X103000000Y-180000000D03*
%TD*%
%TO.C,J16*%
X86000000Y-180000000D03*
%TD*%
%TO.C,J15*%
X154606000Y-158186000D03*
D11*
X154606000Y-155646000D03*
X154606000Y-153106000D03*
X154606000Y-150566000D03*
X154606000Y-148026000D03*
X154606000Y-145486000D03*
X154606000Y-142946000D03*
X154606000Y-140406000D03*
%TD*%
D12*
%TO.C,J12*%
X83000000Y-141000000D03*
%TD*%
%TO.C,J11*%
X153986000Y-164326000D03*
%TD*%
%TO.C,J10*%
X77242200Y-175219600D03*
%TD*%
%TO.C,J9*%
X87000000Y-141000000D03*
%TD*%
%TO.C,J8*%
X117500000Y-180000000D03*
D11*
X120040000Y-180000000D03*
X122580000Y-180000000D03*
%TD*%
D12*
%TO.C,J7*%
X118000000Y-141000000D03*
%TD*%
%TO.C,J4*%
X95000000Y-180127101D03*
D11*
X92460000Y-180127101D03*
X89920000Y-180127101D03*
%TD*%
D12*
%TO.C,J3*%
X112000000Y-180000000D03*
D11*
X109460000Y-180000000D03*
X106920000Y-180000000D03*
%TD*%
D12*
%TO.C,J2*%
X139406000Y-158266000D03*
D11*
X139406000Y-155726000D03*
X139406000Y-153186000D03*
X139406000Y-150646000D03*
X139406000Y-148106000D03*
X139406000Y-145566000D03*
X139406000Y-143026000D03*
X139406000Y-140486000D03*
%TD*%
%TO.C,J1*%
X81000000Y-149000000D03*
X88000000Y-149000000D03*
%TD*%
D16*
%TO.C,D5*%
X108085001Y-144080200D03*
X109914999Y-144080200D03*
X109000000Y-145919800D03*
%TD*%
%TO.C,D4*%
X104170002Y-144000000D03*
X106000000Y-144000000D03*
X105085001Y-145839600D03*
%TD*%
%TO.C,D3*%
X105914999Y-154759400D03*
X104085001Y-154759400D03*
X105000000Y-152919800D03*
%TD*%
%TO.C,D2*%
X109829998Y-154839600D03*
X108000000Y-154839600D03*
X108914999Y-153000000D03*
%TD*%
D17*
%TO.C,C21*%
X135500000Y-154375000D03*
X135500000Y-157500000D03*
%TD*%
D10*
%TO.C,C19*%
X127500000Y-152562500D03*
X127500000Y-149437500D03*
%TD*%
%TO.C,C18*%
X127500000Y-157562500D03*
X127500000Y-154437500D03*
%TD*%
D17*
%TO.C,C17*%
X133000000Y-153437500D03*
X133000000Y-156562500D03*
%TD*%
D10*
%TO.C,C12*%
X109630000Y-169562500D03*
X109630000Y-166437500D03*
%TD*%
D17*
%TO.C,C4*%
X107548900Y-147637499D03*
X107548900Y-150762499D03*
%TD*%
D10*
%TO.C,C3*%
X79576000Y-166052100D03*
X79576000Y-162927100D03*
%TD*%
D17*
%TO.C,C2*%
X145905800Y-166276001D03*
X145905800Y-169401001D03*
%TD*%
%TO.C,C1*%
X148832900Y-166276001D03*
X148832900Y-169401001D03*
%TD*%
D14*
%TO.C,R15*%
X95000000Y-167550000D03*
X95000000Y-164450000D03*
%TD*%
D18*
%TO.C,U5*%
X154595000Y-158185000D03*
X154595000Y-155645000D03*
X154595000Y-153105000D03*
X154595000Y-150565000D03*
X154595000Y-148025000D03*
X154595000Y-145485000D03*
X154595000Y-142945000D03*
X154595000Y-140405000D03*
X139355000Y-140405000D03*
X139355000Y-142945000D03*
X139355000Y-145485000D03*
X139355000Y-148025000D03*
X139355000Y-150565000D03*
X139355000Y-153105000D03*
X139355000Y-155645000D03*
X139355000Y-158185000D03*
%TD*%
M02*
