%TF.GenerationSoftware,KiCad,Pcbnew,9.0.7*%
%TF.CreationDate,2026-06-12T19:57:54+03:00*%
%TF.ProjectId,PCB,5043422e-6b69-4636-9164-5f7063625858,rev?*%
%TF.SameCoordinates,Original*%
%TF.FileFunction,Legend,Top*%
%TF.FilePolarity,Positive*%
%FSLAX46Y46*%
G04 Gerber Fmt 4.6, Leading zero omitted, Abs format (unit mm)*
G04 Created by KiCad (PCBNEW 9.0.7) date 2026-06-12 19:57:54*
%MOMM*%
%LPD*%
G01*
G04 APERTURE LIST*
%ADD10C,0.300000*%
%ADD11C,0.150000*%
%ADD12C,0.120000*%
%ADD13C,0.152400*%
%ADD14C,0.000000*%
G04 APERTURE END LIST*
D10*
G36*
X158753839Y-107825788D02*
G01*
X158825874Y-107897824D01*
X158864769Y-107975613D01*
X158913439Y-108170293D01*
X158913439Y-108304792D01*
X158864769Y-108499472D01*
X158825874Y-108577260D01*
X158753840Y-108649294D01*
X158639097Y-108687542D01*
X158527725Y-108687542D01*
X158527725Y-107787542D01*
X158639099Y-107787542D01*
X158753839Y-107825788D01*
G37*
G36*
X159363439Y-109137542D02*
G01*
X155563439Y-109137542D01*
X155563439Y-108151828D01*
X155713439Y-108151828D01*
X155713439Y-108323257D01*
X155713941Y-108328360D01*
X155713616Y-108330548D01*
X155715235Y-108341498D01*
X155716321Y-108352521D01*
X155717168Y-108354565D01*
X155717918Y-108359637D01*
X155775061Y-108588209D01*
X155775831Y-108590364D01*
X155775908Y-108591447D01*
X155780570Y-108603629D01*
X155784954Y-108615900D01*
X155785599Y-108616771D01*
X155786418Y-108618910D01*
X155843561Y-108733196D01*
X155851488Y-108745789D01*
X155853004Y-108749449D01*
X155856385Y-108753568D01*
X155859226Y-108758082D01*
X155862220Y-108760678D01*
X155871659Y-108772180D01*
X155985943Y-108886465D01*
X156008674Y-108905120D01*
X156013652Y-108907182D01*
X156017726Y-108910715D01*
X156044577Y-108922703D01*
X156216006Y-108979845D01*
X156230515Y-108983144D01*
X156234175Y-108984660D01*
X156239478Y-108985182D01*
X156244680Y-108986365D01*
X156248633Y-108986083D01*
X156263439Y-108987542D01*
X156377725Y-108987542D01*
X156392530Y-108986083D01*
X156396485Y-108986365D01*
X156401686Y-108985182D01*
X156406989Y-108984660D01*
X156410646Y-108983144D01*
X156425159Y-108979845D01*
X156596587Y-108922703D01*
X156623438Y-108910714D01*
X156627508Y-108907183D01*
X156632488Y-108905121D01*
X156655219Y-108886466D01*
X156712362Y-108829323D01*
X156731017Y-108806593D01*
X156753414Y-108752520D01*
X156756296Y-108723257D01*
X156756296Y-108323257D01*
X156753414Y-108293993D01*
X156731016Y-108239921D01*
X156689632Y-108198537D01*
X156635560Y-108176139D01*
X156606296Y-108173257D01*
X156377725Y-108173257D01*
X156348461Y-108176139D01*
X156294389Y-108198537D01*
X156253005Y-108239921D01*
X156230607Y-108293993D01*
X156230607Y-108352521D01*
X156253005Y-108406593D01*
X156294389Y-108447977D01*
X156348461Y-108470375D01*
X156377725Y-108473257D01*
X156456296Y-108473257D01*
X156456296Y-108653238D01*
X156353382Y-108687542D01*
X156287781Y-108687542D01*
X156173036Y-108649294D01*
X156101003Y-108577260D01*
X156062108Y-108499471D01*
X156013439Y-108304792D01*
X156013439Y-108170292D01*
X156062108Y-107975613D01*
X156101003Y-107897824D01*
X156173038Y-107825789D01*
X156287782Y-107787542D01*
X156399457Y-107787542D01*
X156482071Y-107828849D01*
X156509534Y-107839359D01*
X156567914Y-107843507D01*
X156623437Y-107825000D01*
X156667652Y-107786653D01*
X156693827Y-107734304D01*
X156697975Y-107675924D01*
X156685181Y-107637542D01*
X156970582Y-107637542D01*
X156970582Y-108837542D01*
X156973464Y-108866806D01*
X156995862Y-108920878D01*
X157037246Y-108962262D01*
X157091318Y-108984660D01*
X157149846Y-108984660D01*
X157203918Y-108962262D01*
X157245302Y-108920878D01*
X157267700Y-108866806D01*
X157270582Y-108837542D01*
X157270582Y-108202376D01*
X157676059Y-108911963D01*
X157680438Y-108918132D01*
X157681576Y-108920878D01*
X157684374Y-108923676D01*
X157693081Y-108935941D01*
X157708852Y-108948154D01*
X157722960Y-108962262D01*
X157731795Y-108965921D01*
X157739355Y-108971776D01*
X157758597Y-108977023D01*
X157777032Y-108984660D01*
X157786596Y-108984660D01*
X157795818Y-108987175D01*
X157815604Y-108984660D01*
X157835560Y-108984660D01*
X157844394Y-108981000D01*
X157853879Y-108979795D01*
X157871201Y-108969896D01*
X157889632Y-108962262D01*
X157896392Y-108955501D01*
X157904695Y-108950757D01*
X157916908Y-108934985D01*
X157931016Y-108920878D01*
X157934675Y-108912042D01*
X157940530Y-108904483D01*
X157945777Y-108885241D01*
X157953414Y-108866806D01*
X157954888Y-108851834D01*
X157955929Y-108848019D01*
X157955554Y-108845072D01*
X157956296Y-108837542D01*
X157956296Y-107637542D01*
X158227725Y-107637542D01*
X158227725Y-108837542D01*
X158230607Y-108866806D01*
X158253005Y-108920878D01*
X158294389Y-108962262D01*
X158348461Y-108984660D01*
X158377725Y-108987542D01*
X158663439Y-108987542D01*
X158678244Y-108986083D01*
X158682199Y-108986365D01*
X158687400Y-108985182D01*
X158692703Y-108984660D01*
X158696361Y-108983144D01*
X158710872Y-108979845D01*
X158882302Y-108922703D01*
X158909153Y-108910715D01*
X158913224Y-108907183D01*
X158918204Y-108905121D01*
X158940934Y-108886466D01*
X159055219Y-108772180D01*
X159064658Y-108760678D01*
X159067652Y-108758082D01*
X159070492Y-108753568D01*
X159073874Y-108749449D01*
X159075389Y-108745789D01*
X159083317Y-108733196D01*
X159140460Y-108618910D01*
X159141278Y-108616771D01*
X159141924Y-108615900D01*
X159146308Y-108603626D01*
X159150970Y-108591446D01*
X159151046Y-108590363D01*
X159151817Y-108588208D01*
X159208960Y-108359637D01*
X159209709Y-108354565D01*
X159210557Y-108352521D01*
X159211642Y-108341498D01*
X159213262Y-108330548D01*
X159212936Y-108328360D01*
X159213439Y-108323257D01*
X159213439Y-108151828D01*
X159212936Y-108146724D01*
X159213262Y-108144537D01*
X159211642Y-108133586D01*
X159210557Y-108122564D01*
X159209709Y-108120519D01*
X159208960Y-108115448D01*
X159151817Y-107886877D01*
X159151046Y-107884721D01*
X159150970Y-107883639D01*
X159146308Y-107871458D01*
X159141924Y-107859185D01*
X159141278Y-107858313D01*
X159140460Y-107856175D01*
X159083317Y-107741889D01*
X159075389Y-107729295D01*
X159073874Y-107725636D01*
X159070492Y-107721516D01*
X159067652Y-107717003D01*
X159064658Y-107714406D01*
X159055219Y-107702905D01*
X158940934Y-107588619D01*
X158918204Y-107569964D01*
X158913222Y-107567900D01*
X158909153Y-107564371D01*
X158882302Y-107552382D01*
X158710873Y-107495240D01*
X158696365Y-107491941D01*
X158692703Y-107490424D01*
X158687394Y-107489901D01*
X158682200Y-107488720D01*
X158678250Y-107489000D01*
X158663439Y-107487542D01*
X158377725Y-107487542D01*
X158348461Y-107490424D01*
X158294389Y-107512822D01*
X158253005Y-107554206D01*
X158230607Y-107608278D01*
X158227725Y-107637542D01*
X157956296Y-107637542D01*
X157953414Y-107608278D01*
X157931016Y-107554206D01*
X157889632Y-107512822D01*
X157835560Y-107490424D01*
X157777032Y-107490424D01*
X157722960Y-107512822D01*
X157681576Y-107554206D01*
X157659178Y-107608278D01*
X157656296Y-107637542D01*
X157656296Y-108272707D01*
X157250818Y-107563121D01*
X157246440Y-107556953D01*
X157245302Y-107554206D01*
X157242502Y-107551406D01*
X157233797Y-107539143D01*
X157218025Y-107526929D01*
X157203918Y-107512822D01*
X157195082Y-107509162D01*
X157187523Y-107503308D01*
X157168278Y-107498059D01*
X157149846Y-107490424D01*
X157140284Y-107490424D01*
X157131059Y-107487908D01*
X157111268Y-107490424D01*
X157091318Y-107490424D01*
X157082484Y-107494083D01*
X157072999Y-107495289D01*
X157055676Y-107505187D01*
X157037246Y-107512822D01*
X157030485Y-107519582D01*
X157022183Y-107524327D01*
X157009969Y-107540098D01*
X156995862Y-107554206D01*
X156992202Y-107563041D01*
X156986348Y-107570601D01*
X156981099Y-107589845D01*
X156973464Y-107608278D01*
X156971990Y-107623244D01*
X156970948Y-107627065D01*
X156971323Y-107630016D01*
X156970582Y-107637542D01*
X156685181Y-107637542D01*
X156679468Y-107620402D01*
X156641121Y-107576186D01*
X156616236Y-107560521D01*
X156501951Y-107503378D01*
X156474487Y-107492869D01*
X156469112Y-107492487D01*
X156464132Y-107490424D01*
X156434868Y-107487542D01*
X156263439Y-107487542D01*
X156248627Y-107489000D01*
X156244678Y-107488720D01*
X156239483Y-107489901D01*
X156234175Y-107490424D01*
X156230512Y-107491941D01*
X156216005Y-107495240D01*
X156044576Y-107552383D01*
X156017725Y-107564371D01*
X156013653Y-107567902D01*
X156008674Y-107569965D01*
X155985943Y-107588620D01*
X155871659Y-107702905D01*
X155862220Y-107714406D01*
X155859226Y-107717003D01*
X155856385Y-107721516D01*
X155853004Y-107725636D01*
X155851488Y-107729295D01*
X155843561Y-107741889D01*
X155786418Y-107856175D01*
X155785599Y-107858313D01*
X155784954Y-107859185D01*
X155780570Y-107871455D01*
X155775908Y-107883638D01*
X155775831Y-107884720D01*
X155775061Y-107886876D01*
X155717918Y-108115448D01*
X155717168Y-108120519D01*
X155716321Y-108122564D01*
X155715235Y-108133586D01*
X155713616Y-108144537D01*
X155713941Y-108146724D01*
X155713439Y-108151828D01*
X155563439Y-108151828D01*
X155563439Y-107337542D01*
X159363439Y-107337542D01*
X159363439Y-109137542D01*
G37*
G36*
X148983839Y-69055788D02*
G01*
X149055874Y-69127824D01*
X149094769Y-69205613D01*
X149143439Y-69400293D01*
X149143439Y-69534792D01*
X149094769Y-69729472D01*
X149055874Y-69807260D01*
X148983840Y-69879294D01*
X148869097Y-69917542D01*
X148757725Y-69917542D01*
X148757725Y-69017542D01*
X148869099Y-69017542D01*
X148983839Y-69055788D01*
G37*
G36*
X149593439Y-70367542D02*
G01*
X145793439Y-70367542D01*
X145793439Y-69381828D01*
X145943439Y-69381828D01*
X145943439Y-69553257D01*
X145943941Y-69558360D01*
X145943616Y-69560548D01*
X145945235Y-69571498D01*
X145946321Y-69582521D01*
X145947168Y-69584565D01*
X145947918Y-69589637D01*
X146005061Y-69818209D01*
X146005831Y-69820364D01*
X146005908Y-69821447D01*
X146010570Y-69833629D01*
X146014954Y-69845900D01*
X146015599Y-69846771D01*
X146016418Y-69848910D01*
X146073561Y-69963196D01*
X146081488Y-69975789D01*
X146083004Y-69979449D01*
X146086385Y-69983568D01*
X146089226Y-69988082D01*
X146092220Y-69990678D01*
X146101659Y-70002180D01*
X146215943Y-70116465D01*
X146238674Y-70135120D01*
X146243652Y-70137182D01*
X146247726Y-70140715D01*
X146274577Y-70152703D01*
X146446006Y-70209845D01*
X146460515Y-70213144D01*
X146464175Y-70214660D01*
X146469478Y-70215182D01*
X146474680Y-70216365D01*
X146478633Y-70216083D01*
X146493439Y-70217542D01*
X146607725Y-70217542D01*
X146622530Y-70216083D01*
X146626485Y-70216365D01*
X146631686Y-70215182D01*
X146636989Y-70214660D01*
X146640646Y-70213144D01*
X146655159Y-70209845D01*
X146826587Y-70152703D01*
X146853438Y-70140714D01*
X146857508Y-70137183D01*
X146862488Y-70135121D01*
X146885219Y-70116466D01*
X146942362Y-70059323D01*
X146961017Y-70036593D01*
X146983414Y-69982520D01*
X146986296Y-69953257D01*
X146986296Y-69553257D01*
X146983414Y-69523993D01*
X146961016Y-69469921D01*
X146919632Y-69428537D01*
X146865560Y-69406139D01*
X146836296Y-69403257D01*
X146607725Y-69403257D01*
X146578461Y-69406139D01*
X146524389Y-69428537D01*
X146483005Y-69469921D01*
X146460607Y-69523993D01*
X146460607Y-69582521D01*
X146483005Y-69636593D01*
X146524389Y-69677977D01*
X146578461Y-69700375D01*
X146607725Y-69703257D01*
X146686296Y-69703257D01*
X146686296Y-69883238D01*
X146583382Y-69917542D01*
X146517781Y-69917542D01*
X146403036Y-69879294D01*
X146331003Y-69807260D01*
X146292108Y-69729471D01*
X146243439Y-69534792D01*
X146243439Y-69400292D01*
X146292108Y-69205613D01*
X146331003Y-69127824D01*
X146403038Y-69055789D01*
X146517782Y-69017542D01*
X146629457Y-69017542D01*
X146712071Y-69058849D01*
X146739534Y-69069359D01*
X146797914Y-69073507D01*
X146853437Y-69055000D01*
X146897652Y-69016653D01*
X146923827Y-68964304D01*
X146927975Y-68905924D01*
X146915181Y-68867542D01*
X147200582Y-68867542D01*
X147200582Y-70067542D01*
X147203464Y-70096806D01*
X147225862Y-70150878D01*
X147267246Y-70192262D01*
X147321318Y-70214660D01*
X147379846Y-70214660D01*
X147433918Y-70192262D01*
X147475302Y-70150878D01*
X147497700Y-70096806D01*
X147500582Y-70067542D01*
X147500582Y-69432376D01*
X147906059Y-70141963D01*
X147910438Y-70148132D01*
X147911576Y-70150878D01*
X147914374Y-70153676D01*
X147923081Y-70165941D01*
X147938852Y-70178154D01*
X147952960Y-70192262D01*
X147961795Y-70195921D01*
X147969355Y-70201776D01*
X147988597Y-70207023D01*
X148007032Y-70214660D01*
X148016596Y-70214660D01*
X148025818Y-70217175D01*
X148045604Y-70214660D01*
X148065560Y-70214660D01*
X148074394Y-70211000D01*
X148083879Y-70209795D01*
X148101201Y-70199896D01*
X148119632Y-70192262D01*
X148126392Y-70185501D01*
X148134695Y-70180757D01*
X148146908Y-70164985D01*
X148161016Y-70150878D01*
X148164675Y-70142042D01*
X148170530Y-70134483D01*
X148175777Y-70115241D01*
X148183414Y-70096806D01*
X148184888Y-70081834D01*
X148185929Y-70078019D01*
X148185554Y-70075072D01*
X148186296Y-70067542D01*
X148186296Y-68867542D01*
X148457725Y-68867542D01*
X148457725Y-70067542D01*
X148460607Y-70096806D01*
X148483005Y-70150878D01*
X148524389Y-70192262D01*
X148578461Y-70214660D01*
X148607725Y-70217542D01*
X148893439Y-70217542D01*
X148908244Y-70216083D01*
X148912199Y-70216365D01*
X148917400Y-70215182D01*
X148922703Y-70214660D01*
X148926361Y-70213144D01*
X148940872Y-70209845D01*
X149112302Y-70152703D01*
X149139153Y-70140715D01*
X149143224Y-70137183D01*
X149148204Y-70135121D01*
X149170934Y-70116466D01*
X149285219Y-70002180D01*
X149294658Y-69990678D01*
X149297652Y-69988082D01*
X149300492Y-69983568D01*
X149303874Y-69979449D01*
X149305389Y-69975789D01*
X149313317Y-69963196D01*
X149370460Y-69848910D01*
X149371278Y-69846771D01*
X149371924Y-69845900D01*
X149376308Y-69833626D01*
X149380970Y-69821446D01*
X149381046Y-69820363D01*
X149381817Y-69818208D01*
X149438960Y-69589637D01*
X149439709Y-69584565D01*
X149440557Y-69582521D01*
X149441642Y-69571498D01*
X149443262Y-69560548D01*
X149442936Y-69558360D01*
X149443439Y-69553257D01*
X149443439Y-69381828D01*
X149442936Y-69376724D01*
X149443262Y-69374537D01*
X149441642Y-69363586D01*
X149440557Y-69352564D01*
X149439709Y-69350519D01*
X149438960Y-69345448D01*
X149381817Y-69116877D01*
X149381046Y-69114721D01*
X149380970Y-69113639D01*
X149376308Y-69101458D01*
X149371924Y-69089185D01*
X149371278Y-69088313D01*
X149370460Y-69086175D01*
X149313317Y-68971889D01*
X149305389Y-68959295D01*
X149303874Y-68955636D01*
X149300492Y-68951516D01*
X149297652Y-68947003D01*
X149294658Y-68944406D01*
X149285219Y-68932905D01*
X149170934Y-68818619D01*
X149148204Y-68799964D01*
X149143222Y-68797900D01*
X149139153Y-68794371D01*
X149112302Y-68782382D01*
X148940873Y-68725240D01*
X148926365Y-68721941D01*
X148922703Y-68720424D01*
X148917394Y-68719901D01*
X148912200Y-68718720D01*
X148908250Y-68719000D01*
X148893439Y-68717542D01*
X148607725Y-68717542D01*
X148578461Y-68720424D01*
X148524389Y-68742822D01*
X148483005Y-68784206D01*
X148460607Y-68838278D01*
X148457725Y-68867542D01*
X148186296Y-68867542D01*
X148183414Y-68838278D01*
X148161016Y-68784206D01*
X148119632Y-68742822D01*
X148065560Y-68720424D01*
X148007032Y-68720424D01*
X147952960Y-68742822D01*
X147911576Y-68784206D01*
X147889178Y-68838278D01*
X147886296Y-68867542D01*
X147886296Y-69502707D01*
X147480818Y-68793121D01*
X147476440Y-68786953D01*
X147475302Y-68784206D01*
X147472502Y-68781406D01*
X147463797Y-68769143D01*
X147448025Y-68756929D01*
X147433918Y-68742822D01*
X147425082Y-68739162D01*
X147417523Y-68733308D01*
X147398278Y-68728059D01*
X147379846Y-68720424D01*
X147370284Y-68720424D01*
X147361059Y-68717908D01*
X147341268Y-68720424D01*
X147321318Y-68720424D01*
X147312484Y-68724083D01*
X147302999Y-68725289D01*
X147285676Y-68735187D01*
X147267246Y-68742822D01*
X147260485Y-68749582D01*
X147252183Y-68754327D01*
X147239969Y-68770098D01*
X147225862Y-68784206D01*
X147222202Y-68793041D01*
X147216348Y-68800601D01*
X147211099Y-68819845D01*
X147203464Y-68838278D01*
X147201990Y-68853244D01*
X147200948Y-68857065D01*
X147201323Y-68860016D01*
X147200582Y-68867542D01*
X146915181Y-68867542D01*
X146909468Y-68850402D01*
X146871121Y-68806186D01*
X146846236Y-68790521D01*
X146731951Y-68733378D01*
X146704487Y-68722869D01*
X146699112Y-68722487D01*
X146694132Y-68720424D01*
X146664868Y-68717542D01*
X146493439Y-68717542D01*
X146478627Y-68719000D01*
X146474678Y-68718720D01*
X146469483Y-68719901D01*
X146464175Y-68720424D01*
X146460512Y-68721941D01*
X146446005Y-68725240D01*
X146274576Y-68782383D01*
X146247725Y-68794371D01*
X146243653Y-68797902D01*
X146238674Y-68799965D01*
X146215943Y-68818620D01*
X146101659Y-68932905D01*
X146092220Y-68944406D01*
X146089226Y-68947003D01*
X146086385Y-68951516D01*
X146083004Y-68955636D01*
X146081488Y-68959295D01*
X146073561Y-68971889D01*
X146016418Y-69086175D01*
X146015599Y-69088313D01*
X146014954Y-69089185D01*
X146010570Y-69101455D01*
X146005908Y-69113638D01*
X146005831Y-69114720D01*
X146005061Y-69116876D01*
X145947918Y-69345448D01*
X145947168Y-69350519D01*
X145946321Y-69352564D01*
X145945235Y-69363586D01*
X145943616Y-69374537D01*
X145943941Y-69376724D01*
X145943439Y-69381828D01*
X145793439Y-69381828D01*
X145793439Y-68567542D01*
X149593439Y-68567542D01*
X149593439Y-70367542D01*
G37*
G36*
X141660299Y-107817963D02*
G01*
X141727995Y-107885659D01*
X141770582Y-108056007D01*
X141770582Y-108419077D01*
X141727994Y-108589426D01*
X141660299Y-108657121D01*
X141599458Y-108687542D01*
X141441705Y-108687542D01*
X141380865Y-108657122D01*
X141313169Y-108589426D01*
X141270582Y-108419078D01*
X141270582Y-108056006D01*
X141313168Y-107885659D01*
X141380864Y-107817963D01*
X141441707Y-107787542D01*
X141599457Y-107787542D01*
X141660299Y-107817963D01*
G37*
G36*
X145534868Y-109137542D02*
G01*
X139620582Y-109137542D01*
X139620582Y-107637542D01*
X139770582Y-107637542D01*
X139770582Y-108837542D01*
X139773464Y-108866806D01*
X139795862Y-108920878D01*
X139837246Y-108962262D01*
X139891318Y-108984660D01*
X139949846Y-108984660D01*
X140003918Y-108962262D01*
X140045302Y-108920878D01*
X140067700Y-108866806D01*
X140070582Y-108837542D01*
X140070582Y-108202376D01*
X140476059Y-108911963D01*
X140480438Y-108918132D01*
X140481576Y-108920878D01*
X140484374Y-108923676D01*
X140493081Y-108935941D01*
X140508852Y-108948154D01*
X140522960Y-108962262D01*
X140531795Y-108965921D01*
X140539355Y-108971776D01*
X140558597Y-108977023D01*
X140577032Y-108984660D01*
X140586596Y-108984660D01*
X140595818Y-108987175D01*
X140615604Y-108984660D01*
X140635560Y-108984660D01*
X140644394Y-108981000D01*
X140653879Y-108979795D01*
X140671201Y-108969896D01*
X140689632Y-108962262D01*
X140696392Y-108955501D01*
X140704695Y-108950757D01*
X140716908Y-108934985D01*
X140731016Y-108920878D01*
X140734675Y-108912042D01*
X140740530Y-108904483D01*
X140745777Y-108885241D01*
X140753414Y-108866806D01*
X140754888Y-108851834D01*
X140755929Y-108848019D01*
X140755554Y-108845072D01*
X140756296Y-108837542D01*
X140756296Y-108037542D01*
X140970582Y-108037542D01*
X140970582Y-108437542D01*
X140971084Y-108442645D01*
X140970759Y-108444833D01*
X140972378Y-108455783D01*
X140973464Y-108466806D01*
X140974311Y-108468850D01*
X140975061Y-108473922D01*
X141032204Y-108702495D01*
X141042097Y-108730186D01*
X141048736Y-108739147D01*
X141053004Y-108749449D01*
X141071659Y-108772180D01*
X141185945Y-108886466D01*
X141197449Y-108895907D01*
X141200044Y-108898899D01*
X141204553Y-108901737D01*
X141208676Y-108905121D01*
X141212337Y-108906637D01*
X141224929Y-108914564D01*
X141339214Y-108971706D01*
X141366678Y-108982216D01*
X141372053Y-108982597D01*
X141377032Y-108984660D01*
X141406296Y-108987542D01*
X141634868Y-108987542D01*
X141664132Y-108984660D01*
X141669110Y-108982597D01*
X141674486Y-108982216D01*
X141701950Y-108971706D01*
X141816234Y-108914564D01*
X141828827Y-108906637D01*
X141832488Y-108905121D01*
X141836606Y-108901740D01*
X141841120Y-108898900D01*
X141843717Y-108895905D01*
X141855219Y-108886466D01*
X141969505Y-108772180D01*
X141988160Y-108749449D01*
X141992427Y-108739147D01*
X141999067Y-108730186D01*
X142008960Y-108702494D01*
X142066103Y-108473922D01*
X142066852Y-108468850D01*
X142067700Y-108466806D01*
X142068785Y-108455783D01*
X142070405Y-108444833D01*
X142070079Y-108442645D01*
X142070582Y-108437542D01*
X142070582Y-108037542D01*
X142070079Y-108032438D01*
X142070405Y-108030251D01*
X142068785Y-108019300D01*
X142067700Y-108008278D01*
X142066852Y-108006233D01*
X142066103Y-108001162D01*
X142008960Y-107772591D01*
X141999067Y-107744899D01*
X141992427Y-107735937D01*
X141988160Y-107725636D01*
X141969505Y-107702905D01*
X141874878Y-107608278D01*
X142116321Y-107608278D01*
X142116321Y-107666806D01*
X142138719Y-107720878D01*
X142180103Y-107762262D01*
X142234175Y-107784660D01*
X142263439Y-107787542D01*
X142456296Y-107787542D01*
X142456296Y-108837542D01*
X142459178Y-108866806D01*
X142481576Y-108920878D01*
X142522960Y-108962262D01*
X142577032Y-108984660D01*
X142635560Y-108984660D01*
X142689632Y-108962262D01*
X142731016Y-108920878D01*
X142753414Y-108866806D01*
X142756296Y-108837542D01*
X142756296Y-108151828D01*
X143142011Y-108151828D01*
X143142011Y-108323257D01*
X143142513Y-108328360D01*
X143142188Y-108330548D01*
X143143807Y-108341498D01*
X143144893Y-108352521D01*
X143145740Y-108354565D01*
X143146490Y-108359637D01*
X143203633Y-108588209D01*
X143204403Y-108590364D01*
X143204480Y-108591447D01*
X143209142Y-108603629D01*
X143213526Y-108615900D01*
X143214171Y-108616771D01*
X143214990Y-108618910D01*
X143272133Y-108733196D01*
X143280060Y-108745789D01*
X143281576Y-108749449D01*
X143284957Y-108753568D01*
X143287798Y-108758082D01*
X143290792Y-108760678D01*
X143300231Y-108772180D01*
X143414515Y-108886465D01*
X143437246Y-108905120D01*
X143442224Y-108907182D01*
X143446298Y-108910715D01*
X143473149Y-108922703D01*
X143644578Y-108979845D01*
X143659087Y-108983144D01*
X143662747Y-108984660D01*
X143668050Y-108985182D01*
X143673252Y-108986365D01*
X143677205Y-108986083D01*
X143692011Y-108987542D01*
X143806297Y-108987542D01*
X143821102Y-108986083D01*
X143825057Y-108986365D01*
X143830258Y-108985182D01*
X143835561Y-108984660D01*
X143839218Y-108983144D01*
X143853731Y-108979845D01*
X144025159Y-108922703D01*
X144052010Y-108910714D01*
X144056080Y-108907183D01*
X144061060Y-108905121D01*
X144083791Y-108886466D01*
X144140934Y-108829323D01*
X144159589Y-108806593D01*
X144181986Y-108752520D01*
X144181986Y-108693994D01*
X144159589Y-108639922D01*
X144118203Y-108598536D01*
X144064131Y-108576139D01*
X144005605Y-108576139D01*
X143951532Y-108598536D01*
X143928802Y-108617191D01*
X143896698Y-108649294D01*
X143781954Y-108687542D01*
X143716353Y-108687542D01*
X143601608Y-108649294D01*
X143529575Y-108577260D01*
X143490680Y-108499471D01*
X143442011Y-108304792D01*
X143442011Y-108170292D01*
X143490680Y-107975613D01*
X143529575Y-107897824D01*
X143601610Y-107825789D01*
X143716354Y-107787542D01*
X143781957Y-107787542D01*
X143896696Y-107825788D01*
X143928802Y-107857894D01*
X143951532Y-107876549D01*
X144005605Y-107898946D01*
X144064131Y-107898946D01*
X144118203Y-107876549D01*
X144159589Y-107835163D01*
X144181986Y-107781091D01*
X144181986Y-107722565D01*
X144159589Y-107668492D01*
X144140934Y-107645762D01*
X144132714Y-107637542D01*
X144399154Y-107637542D01*
X144399154Y-108837542D01*
X144402036Y-108866806D01*
X144424434Y-108920878D01*
X144465818Y-108962262D01*
X144519890Y-108984660D01*
X144578418Y-108984660D01*
X144632490Y-108962262D01*
X144673874Y-108920878D01*
X144696272Y-108866806D01*
X144699154Y-108837542D01*
X144699154Y-108358971D01*
X145084868Y-108358971D01*
X145084868Y-108837542D01*
X145087750Y-108866806D01*
X145110148Y-108920878D01*
X145151532Y-108962262D01*
X145205604Y-108984660D01*
X145264132Y-108984660D01*
X145318204Y-108962262D01*
X145359588Y-108920878D01*
X145381986Y-108866806D01*
X145384868Y-108837542D01*
X145384868Y-107637542D01*
X145381986Y-107608278D01*
X145359588Y-107554206D01*
X145318204Y-107512822D01*
X145264132Y-107490424D01*
X145205604Y-107490424D01*
X145151532Y-107512822D01*
X145110148Y-107554206D01*
X145087750Y-107608278D01*
X145084868Y-107637542D01*
X145084868Y-108058971D01*
X144699154Y-108058971D01*
X144699154Y-107637542D01*
X144696272Y-107608278D01*
X144673874Y-107554206D01*
X144632490Y-107512822D01*
X144578418Y-107490424D01*
X144519890Y-107490424D01*
X144465818Y-107512822D01*
X144424434Y-107554206D01*
X144402036Y-107608278D01*
X144399154Y-107637542D01*
X144132714Y-107637542D01*
X144083791Y-107588619D01*
X144061060Y-107569964D01*
X144056080Y-107567901D01*
X144052010Y-107564371D01*
X144025159Y-107552383D01*
X143853731Y-107495240D01*
X143839223Y-107491941D01*
X143835561Y-107490424D01*
X143830252Y-107489901D01*
X143825058Y-107488720D01*
X143821108Y-107489000D01*
X143806297Y-107487542D01*
X143692011Y-107487542D01*
X143677199Y-107489000D01*
X143673250Y-107488720D01*
X143668055Y-107489901D01*
X143662747Y-107490424D01*
X143659084Y-107491941D01*
X143644577Y-107495240D01*
X143473148Y-107552383D01*
X143446297Y-107564371D01*
X143442225Y-107567902D01*
X143437246Y-107569965D01*
X143414515Y-107588620D01*
X143300231Y-107702905D01*
X143290792Y-107714406D01*
X143287798Y-107717003D01*
X143284957Y-107721516D01*
X143281576Y-107725636D01*
X143280060Y-107729295D01*
X143272133Y-107741889D01*
X143214990Y-107856175D01*
X143214171Y-107858313D01*
X143213526Y-107859185D01*
X143209142Y-107871455D01*
X143204480Y-107883638D01*
X143204403Y-107884720D01*
X143203633Y-107886876D01*
X143146490Y-108115448D01*
X143145740Y-108120519D01*
X143144893Y-108122564D01*
X143143807Y-108133586D01*
X143142188Y-108144537D01*
X143142513Y-108146724D01*
X143142011Y-108151828D01*
X142756296Y-108151828D01*
X142756296Y-107787542D01*
X142949154Y-107787542D01*
X142978418Y-107784660D01*
X143032490Y-107762262D01*
X143073874Y-107720878D01*
X143096272Y-107666806D01*
X143096272Y-107608278D01*
X143073874Y-107554206D01*
X143032490Y-107512822D01*
X142978418Y-107490424D01*
X142949154Y-107487542D01*
X142263439Y-107487542D01*
X142234175Y-107490424D01*
X142180103Y-107512822D01*
X142138719Y-107554206D01*
X142116321Y-107608278D01*
X141874878Y-107608278D01*
X141855219Y-107588619D01*
X141843717Y-107579179D01*
X141841121Y-107576186D01*
X141836607Y-107573344D01*
X141832488Y-107569964D01*
X141828829Y-107568448D01*
X141816236Y-107560521D01*
X141701951Y-107503378D01*
X141674487Y-107492869D01*
X141669112Y-107492487D01*
X141664132Y-107490424D01*
X141634868Y-107487542D01*
X141406296Y-107487542D01*
X141377032Y-107490424D01*
X141372054Y-107492485D01*
X141366677Y-107492868D01*
X141339214Y-107503378D01*
X141224928Y-107560521D01*
X141212334Y-107568448D01*
X141208676Y-107569964D01*
X141204556Y-107573344D01*
X141200043Y-107576186D01*
X141197446Y-107579180D01*
X141185945Y-107588619D01*
X141071659Y-107702905D01*
X141053004Y-107725636D01*
X141048736Y-107735937D01*
X141042097Y-107744899D01*
X141032204Y-107772590D01*
X140975061Y-108001162D01*
X140974311Y-108006233D01*
X140973464Y-108008278D01*
X140972378Y-108019300D01*
X140970759Y-108030251D01*
X140971084Y-108032438D01*
X140970582Y-108037542D01*
X140756296Y-108037542D01*
X140756296Y-107637542D01*
X140753414Y-107608278D01*
X140731016Y-107554206D01*
X140689632Y-107512822D01*
X140635560Y-107490424D01*
X140577032Y-107490424D01*
X140522960Y-107512822D01*
X140481576Y-107554206D01*
X140459178Y-107608278D01*
X140456296Y-107637542D01*
X140456296Y-108272707D01*
X140050818Y-107563121D01*
X140046440Y-107556953D01*
X140045302Y-107554206D01*
X140042502Y-107551406D01*
X140033797Y-107539143D01*
X140018025Y-107526929D01*
X140003918Y-107512822D01*
X139995082Y-107509162D01*
X139987523Y-107503308D01*
X139968278Y-107498059D01*
X139949846Y-107490424D01*
X139940284Y-107490424D01*
X139931059Y-107487908D01*
X139911268Y-107490424D01*
X139891318Y-107490424D01*
X139882484Y-107494083D01*
X139872999Y-107495289D01*
X139855676Y-107505187D01*
X139837246Y-107512822D01*
X139830485Y-107519582D01*
X139822183Y-107524327D01*
X139809969Y-107540098D01*
X139795862Y-107554206D01*
X139792202Y-107563041D01*
X139786348Y-107570601D01*
X139781099Y-107589845D01*
X139773464Y-107608278D01*
X139771990Y-107623244D01*
X139770948Y-107627065D01*
X139771323Y-107630016D01*
X139770582Y-107637542D01*
X139620582Y-107637542D01*
X139620582Y-107337542D01*
X145534868Y-107337542D01*
X145534868Y-109137542D01*
G37*
G36*
X118633156Y-69047963D02*
G01*
X118655875Y-69070682D01*
X118686296Y-69131524D01*
X118686296Y-69232132D01*
X118655875Y-69292974D01*
X118633156Y-69315693D01*
X118572314Y-69346114D01*
X118300582Y-69346114D01*
X118300582Y-69017542D01*
X118572314Y-69017542D01*
X118633156Y-69047963D01*
G37*
G36*
X119656753Y-69574685D02*
G01*
X119501552Y-69574685D01*
X119579152Y-69341882D01*
X119656753Y-69574685D01*
G37*
G36*
X120277975Y-70367507D02*
G01*
X117850582Y-70367507D01*
X117850582Y-68867542D01*
X118000582Y-68867542D01*
X118000582Y-70067542D01*
X118003464Y-70096806D01*
X118025862Y-70150878D01*
X118067246Y-70192262D01*
X118121318Y-70214660D01*
X118179846Y-70214660D01*
X118233918Y-70192262D01*
X118275302Y-70150878D01*
X118297700Y-70096806D01*
X118300582Y-70067542D01*
X118300582Y-69646114D01*
X118358198Y-69646114D01*
X118713411Y-70153561D01*
X118732554Y-70175883D01*
X118781912Y-70207336D01*
X118839547Y-70217507D01*
X118896689Y-70204848D01*
X118944637Y-70171284D01*
X118976090Y-70121926D01*
X118986261Y-70064291D01*
X118982825Y-70048781D01*
X119030331Y-70048781D01*
X119034480Y-70107162D01*
X119060654Y-70159509D01*
X119104868Y-70197856D01*
X119160392Y-70216364D01*
X119218773Y-70212215D01*
X119271120Y-70186041D01*
X119309467Y-70141827D01*
X119321455Y-70114976D01*
X119401552Y-69874685D01*
X119756753Y-69874685D01*
X119836850Y-70114976D01*
X119848839Y-70141827D01*
X119887186Y-70186041D01*
X119939533Y-70212215D01*
X119997914Y-70216364D01*
X120053438Y-70197856D01*
X120097652Y-70159509D01*
X120123826Y-70107161D01*
X120127975Y-70048781D01*
X120121455Y-70020108D01*
X119721455Y-68820108D01*
X119709467Y-68793257D01*
X119702444Y-68785160D01*
X119697652Y-68775575D01*
X119683443Y-68763251D01*
X119671120Y-68749043D01*
X119661534Y-68744250D01*
X119653438Y-68737228D01*
X119635596Y-68731280D01*
X119618773Y-68722869D01*
X119608081Y-68722109D01*
X119597914Y-68718720D01*
X119579153Y-68720053D01*
X119560392Y-68718720D01*
X119550224Y-68722109D01*
X119539533Y-68722869D01*
X119522709Y-68731280D01*
X119504868Y-68737228D01*
X119496771Y-68744250D01*
X119487186Y-68749043D01*
X119474862Y-68763251D01*
X119460654Y-68775575D01*
X119455861Y-68785160D01*
X119448839Y-68793257D01*
X119436850Y-68820108D01*
X119036851Y-70020108D01*
X119030331Y-70048781D01*
X118982825Y-70048781D01*
X118973602Y-70007149D01*
X118959181Y-69981523D01*
X118703327Y-69616018D01*
X118789093Y-69573135D01*
X118801686Y-69565207D01*
X118805345Y-69563692D01*
X118809464Y-69560311D01*
X118813978Y-69557470D01*
X118816574Y-69554476D01*
X118828076Y-69545037D01*
X118885219Y-69487894D01*
X118894659Y-69476391D01*
X118897652Y-69473796D01*
X118900490Y-69469286D01*
X118903874Y-69465164D01*
X118905390Y-69461501D01*
X118913317Y-69448910D01*
X118970460Y-69334624D01*
X118980970Y-69307160D01*
X118981351Y-69301784D01*
X118983414Y-69296806D01*
X118986296Y-69267542D01*
X118986296Y-69096114D01*
X118983414Y-69066850D01*
X118981351Y-69061871D01*
X118980970Y-69056496D01*
X118970460Y-69029032D01*
X118913317Y-68914746D01*
X118905390Y-68902154D01*
X118903874Y-68898492D01*
X118900490Y-68894369D01*
X118897652Y-68889860D01*
X118894659Y-68887264D01*
X118885219Y-68875762D01*
X118828076Y-68818619D01*
X118816574Y-68809179D01*
X118813978Y-68806186D01*
X118809464Y-68803344D01*
X118805345Y-68799964D01*
X118801686Y-68798448D01*
X118789093Y-68790521D01*
X118674808Y-68733378D01*
X118647344Y-68722869D01*
X118641969Y-68722487D01*
X118636989Y-68720424D01*
X118607725Y-68717542D01*
X118150582Y-68717542D01*
X118121318Y-68720424D01*
X118067246Y-68742822D01*
X118025862Y-68784206D01*
X118003464Y-68838278D01*
X118000582Y-68867542D01*
X117850582Y-68867542D01*
X117850582Y-68567542D01*
X120277975Y-68567542D01*
X120277975Y-70367507D01*
G37*
G36*
X106633156Y-69047963D02*
G01*
X106655875Y-69070682D01*
X106686296Y-69131524D01*
X106686296Y-69232132D01*
X106655875Y-69292974D01*
X106633156Y-69315693D01*
X106572314Y-69346114D01*
X106300582Y-69346114D01*
X106300582Y-69017542D01*
X106572314Y-69017542D01*
X106633156Y-69047963D01*
G37*
G36*
X108219128Y-70367542D02*
G01*
X105850582Y-70367542D01*
X105850582Y-68867542D01*
X106000582Y-68867542D01*
X106000582Y-70067542D01*
X106003464Y-70096806D01*
X106025862Y-70150878D01*
X106067246Y-70192262D01*
X106121318Y-70214660D01*
X106179846Y-70214660D01*
X106233918Y-70192262D01*
X106275302Y-70150878D01*
X106297700Y-70096806D01*
X106300582Y-70067542D01*
X106300582Y-69646114D01*
X106358198Y-69646114D01*
X106713411Y-70153561D01*
X106732554Y-70175883D01*
X106781912Y-70207336D01*
X106839547Y-70217507D01*
X106896689Y-70204848D01*
X106944637Y-70171284D01*
X106976090Y-70121926D01*
X106986261Y-70064291D01*
X106973602Y-70007149D01*
X106959181Y-69981523D01*
X106703327Y-69616018D01*
X106789093Y-69573135D01*
X106801686Y-69565207D01*
X106805345Y-69563692D01*
X106809464Y-69560311D01*
X106813978Y-69557470D01*
X106816574Y-69554476D01*
X106828076Y-69545037D01*
X106885219Y-69487894D01*
X106894659Y-69476391D01*
X106897652Y-69473796D01*
X106900490Y-69469286D01*
X106903874Y-69465164D01*
X106905390Y-69461501D01*
X106913317Y-69448910D01*
X106970460Y-69334624D01*
X106980970Y-69307160D01*
X106981351Y-69301784D01*
X106983414Y-69296806D01*
X106986296Y-69267542D01*
X106986296Y-69096114D01*
X106983414Y-69066850D01*
X106981351Y-69061871D01*
X106980970Y-69056496D01*
X106970460Y-69029032D01*
X106913317Y-68914746D01*
X106905390Y-68902154D01*
X106903874Y-68898492D01*
X106900490Y-68894369D01*
X106897652Y-68889860D01*
X106894659Y-68887264D01*
X106885219Y-68875762D01*
X106876999Y-68867542D01*
X107200582Y-68867542D01*
X107200582Y-70067542D01*
X107203464Y-70096806D01*
X107225862Y-70150878D01*
X107267246Y-70192262D01*
X107321318Y-70214660D01*
X107350582Y-70217542D01*
X107922010Y-70217542D01*
X107951274Y-70214660D01*
X108005346Y-70192262D01*
X108046730Y-70150878D01*
X108069128Y-70096806D01*
X108069128Y-70038278D01*
X108046730Y-69984206D01*
X108005346Y-69942822D01*
X107951274Y-69920424D01*
X107922010Y-69917542D01*
X107500582Y-69917542D01*
X107500582Y-68867542D01*
X107497700Y-68838278D01*
X107475302Y-68784206D01*
X107433918Y-68742822D01*
X107379846Y-68720424D01*
X107321318Y-68720424D01*
X107267246Y-68742822D01*
X107225862Y-68784206D01*
X107203464Y-68838278D01*
X107200582Y-68867542D01*
X106876999Y-68867542D01*
X106828076Y-68818619D01*
X106816574Y-68809179D01*
X106813978Y-68806186D01*
X106809464Y-68803344D01*
X106805345Y-68799964D01*
X106801686Y-68798448D01*
X106789093Y-68790521D01*
X106674808Y-68733378D01*
X106647344Y-68722869D01*
X106641969Y-68722487D01*
X106636989Y-68720424D01*
X106607725Y-68717542D01*
X106150582Y-68717542D01*
X106121318Y-68720424D01*
X106067246Y-68742822D01*
X106025862Y-68784206D01*
X106003464Y-68838278D01*
X106000582Y-68867542D01*
X105850582Y-68867542D01*
X105850582Y-68567542D01*
X108219128Y-68567542D01*
X108219128Y-70367542D01*
G37*
G36*
X153236296Y-70367542D02*
G01*
X150350582Y-70367542D01*
X150350582Y-68867542D01*
X150500582Y-68867542D01*
X150500582Y-70067542D01*
X150503464Y-70096806D01*
X150525862Y-70150878D01*
X150567246Y-70192262D01*
X150621318Y-70214660D01*
X150679846Y-70214660D01*
X150733918Y-70192262D01*
X150775302Y-70150878D01*
X150797700Y-70096806D01*
X150800582Y-70067542D01*
X150800582Y-69588971D01*
X151050582Y-69588971D01*
X151079846Y-69586089D01*
X151133918Y-69563691D01*
X151175302Y-69522307D01*
X151197700Y-69468235D01*
X151197700Y-69409707D01*
X151175302Y-69355635D01*
X151133918Y-69314251D01*
X151079846Y-69291853D01*
X151050582Y-69288971D01*
X150800582Y-69288971D01*
X150800582Y-69017542D01*
X151222010Y-69017542D01*
X151251274Y-69014660D01*
X151305346Y-68992262D01*
X151346730Y-68950878D01*
X151364867Y-68907092D01*
X151383004Y-68950878D01*
X151424388Y-68992262D01*
X151478460Y-69014660D01*
X151507724Y-69017542D01*
X151700581Y-69017542D01*
X151700581Y-70067542D01*
X151703463Y-70096806D01*
X151725861Y-70150878D01*
X151767245Y-70192262D01*
X151821317Y-70214660D01*
X151879845Y-70214660D01*
X151933917Y-70192262D01*
X151975301Y-70150878D01*
X151997699Y-70096806D01*
X152000581Y-70067542D01*
X152000581Y-70038278D01*
X152332035Y-70038278D01*
X152332035Y-70096806D01*
X152354433Y-70150878D01*
X152395817Y-70192262D01*
X152449889Y-70214660D01*
X152479153Y-70217542D01*
X152593439Y-70217542D01*
X152608244Y-70216083D01*
X152612199Y-70216365D01*
X152617400Y-70215182D01*
X152622703Y-70214660D01*
X152626360Y-70213144D01*
X152640873Y-70209845D01*
X152812301Y-70152703D01*
X152839152Y-70140714D01*
X152843222Y-70137183D01*
X152848202Y-70135121D01*
X152870933Y-70116466D01*
X152985219Y-70002180D01*
X153003874Y-69979449D01*
X153005936Y-69974469D01*
X153009467Y-69970399D01*
X153021455Y-69943548D01*
X153078598Y-69772119D01*
X153081896Y-69757611D01*
X153083414Y-69753949D01*
X153083936Y-69748640D01*
X153085118Y-69743446D01*
X153084837Y-69739496D01*
X153086296Y-69724685D01*
X153086296Y-68867542D01*
X153083414Y-68838278D01*
X153061016Y-68784206D01*
X153019632Y-68742822D01*
X152965560Y-68720424D01*
X152907032Y-68720424D01*
X152852960Y-68742822D01*
X152811576Y-68784206D01*
X152789178Y-68838278D01*
X152786296Y-68867542D01*
X152786296Y-69700342D01*
X152748048Y-69815086D01*
X152683840Y-69879294D01*
X152569096Y-69917542D01*
X152479153Y-69917542D01*
X152449889Y-69920424D01*
X152395817Y-69942822D01*
X152354433Y-69984206D01*
X152332035Y-70038278D01*
X152000581Y-70038278D01*
X152000581Y-69017542D01*
X152193439Y-69017542D01*
X152222703Y-69014660D01*
X152276775Y-68992262D01*
X152318159Y-68950878D01*
X152340557Y-68896806D01*
X152340557Y-68838278D01*
X152318159Y-68784206D01*
X152276775Y-68742822D01*
X152222703Y-68720424D01*
X152193439Y-68717542D01*
X151507724Y-68717542D01*
X151478460Y-68720424D01*
X151424388Y-68742822D01*
X151383004Y-68784206D01*
X151364867Y-68827991D01*
X151346730Y-68784206D01*
X151305346Y-68742822D01*
X151251274Y-68720424D01*
X151222010Y-68717542D01*
X150650582Y-68717542D01*
X150621318Y-68720424D01*
X150567246Y-68742822D01*
X150525862Y-68784206D01*
X150503464Y-68838278D01*
X150500582Y-68867542D01*
X150350582Y-68867542D01*
X150350582Y-68567542D01*
X153236296Y-68567542D01*
X153236296Y-70367542D01*
G37*
G36*
X101931727Y-107817963D02*
G01*
X101954446Y-107840682D01*
X101984867Y-107901524D01*
X101984867Y-108002132D01*
X101954446Y-108062974D01*
X101931727Y-108085693D01*
X101870885Y-108116114D01*
X101599153Y-108116114D01*
X101599153Y-107787542D01*
X101870885Y-107787542D01*
X101931727Y-107817963D01*
G37*
G36*
X104603413Y-109137542D02*
G01*
X99950331Y-109137542D01*
X99950331Y-107656303D01*
X100100331Y-107656303D01*
X100106851Y-107684976D01*
X100506850Y-108884976D01*
X100518839Y-108911827D01*
X100525861Y-108919923D01*
X100530654Y-108929509D01*
X100544862Y-108941832D01*
X100557186Y-108956041D01*
X100566771Y-108960833D01*
X100574868Y-108967856D01*
X100592709Y-108973803D01*
X100609533Y-108982215D01*
X100620224Y-108982974D01*
X100630392Y-108986364D01*
X100649153Y-108985030D01*
X100667914Y-108986364D01*
X100678081Y-108982974D01*
X100688773Y-108982215D01*
X100705596Y-108973803D01*
X100723438Y-108967856D01*
X100731534Y-108960833D01*
X100741120Y-108956041D01*
X100753443Y-108941832D01*
X100767652Y-108929509D01*
X100772444Y-108919923D01*
X100779467Y-108911827D01*
X100791455Y-108884976D01*
X101191455Y-107684976D01*
X101197975Y-107656303D01*
X101196642Y-107637542D01*
X101299153Y-107637542D01*
X101299153Y-108837542D01*
X101302035Y-108866806D01*
X101324433Y-108920878D01*
X101365817Y-108962262D01*
X101419889Y-108984660D01*
X101478417Y-108984660D01*
X101532489Y-108962262D01*
X101573873Y-108920878D01*
X101596271Y-108866806D01*
X101599153Y-108837542D01*
X101599153Y-108416114D01*
X101656769Y-108416114D01*
X102011982Y-108923561D01*
X102031125Y-108945883D01*
X102080483Y-108977336D01*
X102138118Y-108987507D01*
X102195260Y-108974848D01*
X102243208Y-108941284D01*
X102274661Y-108891926D01*
X102284832Y-108834291D01*
X102272173Y-108777149D01*
X102257752Y-108751523D01*
X102001898Y-108386018D01*
X102087664Y-108343135D01*
X102100257Y-108335207D01*
X102103916Y-108333692D01*
X102108035Y-108330311D01*
X102112549Y-108327470D01*
X102115145Y-108324476D01*
X102126647Y-108315037D01*
X102183790Y-108257894D01*
X102193230Y-108246391D01*
X102196223Y-108243796D01*
X102199061Y-108239286D01*
X102202445Y-108235164D01*
X102203961Y-108231501D01*
X102211888Y-108218910D01*
X102269031Y-108104624D01*
X102279541Y-108077160D01*
X102279922Y-108071784D01*
X102281985Y-108066806D01*
X102284867Y-108037542D01*
X102284867Y-107866114D01*
X102281985Y-107836850D01*
X102279922Y-107831871D01*
X102279541Y-107826496D01*
X102269031Y-107799032D01*
X102211888Y-107684746D01*
X102203961Y-107672154D01*
X102202445Y-107668492D01*
X102199061Y-107664369D01*
X102196223Y-107659860D01*
X102193230Y-107657264D01*
X102183790Y-107645762D01*
X102175570Y-107637542D01*
X102499153Y-107637542D01*
X102499153Y-108837542D01*
X102502035Y-108866806D01*
X102524433Y-108920878D01*
X102565817Y-108962262D01*
X102619889Y-108984660D01*
X102649153Y-108987542D01*
X103220581Y-108987542D01*
X103249845Y-108984660D01*
X103303917Y-108962262D01*
X103345301Y-108920878D01*
X103367699Y-108866806D01*
X103367699Y-108808278D01*
X103345301Y-108754206D01*
X103303917Y-108712822D01*
X103249845Y-108690424D01*
X103220581Y-108687542D01*
X102799153Y-108687542D01*
X102799153Y-108358971D01*
X103049153Y-108358971D01*
X103078417Y-108356089D01*
X103132489Y-108333691D01*
X103173873Y-108292307D01*
X103196271Y-108238235D01*
X103196271Y-108179707D01*
X103173873Y-108125635D01*
X103132489Y-108084251D01*
X103078417Y-108061853D01*
X103049153Y-108058971D01*
X102799153Y-108058971D01*
X102799153Y-107787542D01*
X103220581Y-107787542D01*
X103249845Y-107784660D01*
X103303917Y-107762262D01*
X103345301Y-107720878D01*
X103367699Y-107666806D01*
X103367699Y-107637542D01*
X103584867Y-107637542D01*
X103584867Y-108837542D01*
X103587749Y-108866806D01*
X103610147Y-108920878D01*
X103651531Y-108962262D01*
X103705603Y-108984660D01*
X103764131Y-108984660D01*
X103818203Y-108962262D01*
X103859587Y-108920878D01*
X103881985Y-108866806D01*
X103884867Y-108837542D01*
X103884867Y-108358971D01*
X104134867Y-108358971D01*
X104164131Y-108356089D01*
X104218203Y-108333691D01*
X104259587Y-108292307D01*
X104281985Y-108238235D01*
X104281985Y-108179707D01*
X104259587Y-108125635D01*
X104218203Y-108084251D01*
X104164131Y-108061853D01*
X104134867Y-108058971D01*
X103884867Y-108058971D01*
X103884867Y-107787542D01*
X104306295Y-107787542D01*
X104335559Y-107784660D01*
X104389631Y-107762262D01*
X104431015Y-107720878D01*
X104453413Y-107666806D01*
X104453413Y-107608278D01*
X104431015Y-107554206D01*
X104389631Y-107512822D01*
X104335559Y-107490424D01*
X104306295Y-107487542D01*
X103734867Y-107487542D01*
X103705603Y-107490424D01*
X103651531Y-107512822D01*
X103610147Y-107554206D01*
X103587749Y-107608278D01*
X103584867Y-107637542D01*
X103367699Y-107637542D01*
X103367699Y-107608278D01*
X103345301Y-107554206D01*
X103303917Y-107512822D01*
X103249845Y-107490424D01*
X103220581Y-107487542D01*
X102649153Y-107487542D01*
X102619889Y-107490424D01*
X102565817Y-107512822D01*
X102524433Y-107554206D01*
X102502035Y-107608278D01*
X102499153Y-107637542D01*
X102175570Y-107637542D01*
X102126647Y-107588619D01*
X102115145Y-107579179D01*
X102112549Y-107576186D01*
X102108035Y-107573344D01*
X102103916Y-107569964D01*
X102100257Y-107568448D01*
X102087664Y-107560521D01*
X101973379Y-107503378D01*
X101945915Y-107492869D01*
X101940540Y-107492487D01*
X101935560Y-107490424D01*
X101906296Y-107487542D01*
X101449153Y-107487542D01*
X101419889Y-107490424D01*
X101365817Y-107512822D01*
X101324433Y-107554206D01*
X101302035Y-107608278D01*
X101299153Y-107637542D01*
X101196642Y-107637542D01*
X101193826Y-107597923D01*
X101167652Y-107545575D01*
X101123438Y-107507228D01*
X101067914Y-107488720D01*
X101009533Y-107492869D01*
X100957186Y-107519043D01*
X100918839Y-107563257D01*
X100906850Y-107590108D01*
X100649152Y-108363201D01*
X100391455Y-107590108D01*
X100379467Y-107563257D01*
X100341120Y-107519043D01*
X100288773Y-107492869D01*
X100230392Y-107488720D01*
X100174868Y-107507228D01*
X100130654Y-107545575D01*
X100104480Y-107597922D01*
X100100331Y-107656303D01*
X99950331Y-107656303D01*
X99950331Y-107337542D01*
X104603413Y-107337542D01*
X104603413Y-109137542D01*
G37*
G36*
X137792010Y-109137542D02*
G01*
X134620582Y-109137542D01*
X134620582Y-107637542D01*
X134770582Y-107637542D01*
X134770582Y-108837542D01*
X134773464Y-108866806D01*
X134795862Y-108920878D01*
X134837246Y-108962262D01*
X134891318Y-108984660D01*
X134949846Y-108984660D01*
X135003918Y-108962262D01*
X135045302Y-108920878D01*
X135067700Y-108866806D01*
X135070582Y-108837542D01*
X135070582Y-108358971D01*
X135320582Y-108358971D01*
X135349846Y-108356089D01*
X135403918Y-108333691D01*
X135445302Y-108292307D01*
X135467700Y-108238235D01*
X135467700Y-108179707D01*
X135445302Y-108125635D01*
X135403918Y-108084251D01*
X135349846Y-108061853D01*
X135320582Y-108058971D01*
X135070582Y-108058971D01*
X135070582Y-107787542D01*
X135492010Y-107787542D01*
X135521274Y-107784660D01*
X135575346Y-107762262D01*
X135616730Y-107720878D01*
X135634867Y-107677092D01*
X135653004Y-107720878D01*
X135694388Y-107762262D01*
X135748460Y-107784660D01*
X135777724Y-107787542D01*
X135970581Y-107787542D01*
X135970581Y-108837542D01*
X135973463Y-108866806D01*
X135995861Y-108920878D01*
X136037245Y-108962262D01*
X136091317Y-108984660D01*
X136149845Y-108984660D01*
X136203917Y-108962262D01*
X136245301Y-108920878D01*
X136267699Y-108866806D01*
X136270581Y-108837542D01*
X136270581Y-107866114D01*
X136656296Y-107866114D01*
X136656296Y-107980400D01*
X136659178Y-108009664D01*
X136661241Y-108014644D01*
X136661623Y-108020019D01*
X136672132Y-108047483D01*
X136729275Y-108161768D01*
X136737202Y-108174361D01*
X136738718Y-108178020D01*
X136742098Y-108182139D01*
X136744940Y-108186653D01*
X136747933Y-108189249D01*
X136757373Y-108200751D01*
X136814516Y-108257894D01*
X136826018Y-108267334D01*
X136828614Y-108270327D01*
X136833124Y-108273166D01*
X136837246Y-108276549D01*
X136840906Y-108278065D01*
X136853499Y-108285992D01*
X136967785Y-108343135D01*
X136969923Y-108343953D01*
X136970795Y-108344599D01*
X136983059Y-108348980D01*
X136995248Y-108353645D01*
X136996331Y-108353721D01*
X136998487Y-108354492D01*
X137211083Y-108407641D01*
X137288870Y-108446534D01*
X137311587Y-108469252D01*
X137342010Y-108530096D01*
X137342010Y-108573561D01*
X137311588Y-108634403D01*
X137288870Y-108657122D01*
X137228029Y-108687542D01*
X137002067Y-108687542D01*
X136853729Y-108638097D01*
X136825056Y-108631577D01*
X136766676Y-108635727D01*
X136714329Y-108661901D01*
X136675981Y-108706116D01*
X136657473Y-108761640D01*
X136661623Y-108820020D01*
X136687797Y-108872367D01*
X136732012Y-108910715D01*
X136758863Y-108922703D01*
X136930292Y-108979845D01*
X136944801Y-108983144D01*
X136948461Y-108984660D01*
X136953764Y-108985182D01*
X136958966Y-108986365D01*
X136962919Y-108986083D01*
X136977725Y-108987542D01*
X137263439Y-108987542D01*
X137292703Y-108984660D01*
X137297681Y-108982597D01*
X137303057Y-108982216D01*
X137330520Y-108971707D01*
X137444806Y-108914565D01*
X137457404Y-108906634D01*
X137461061Y-108905120D01*
X137465177Y-108901742D01*
X137469692Y-108898900D01*
X137472289Y-108895904D01*
X137483792Y-108886465D01*
X137540934Y-108829322D01*
X137550372Y-108817820D01*
X137553366Y-108815225D01*
X137556206Y-108810712D01*
X137559589Y-108806591D01*
X137561105Y-108802930D01*
X137569031Y-108790339D01*
X137626174Y-108676053D01*
X137636684Y-108648589D01*
X137637065Y-108643213D01*
X137639128Y-108638235D01*
X137642010Y-108608971D01*
X137642010Y-108494685D01*
X137639128Y-108465421D01*
X137637066Y-108460443D01*
X137636684Y-108455066D01*
X137626174Y-108427603D01*
X137569031Y-108313317D01*
X137561104Y-108300725D01*
X137559589Y-108297066D01*
X137556206Y-108292944D01*
X137553366Y-108288432D01*
X137550372Y-108285835D01*
X137540934Y-108274335D01*
X137483792Y-108217192D01*
X137472290Y-108207752D01*
X137469693Y-108204758D01*
X137465178Y-108201916D01*
X137461061Y-108198537D01*
X137457402Y-108197021D01*
X137444807Y-108189093D01*
X137330521Y-108131950D01*
X137328382Y-108131131D01*
X137327511Y-108130486D01*
X137315240Y-108126102D01*
X137303058Y-108121440D01*
X137301975Y-108121363D01*
X137299820Y-108120593D01*
X137087225Y-108067444D01*
X137009435Y-108028549D01*
X136986717Y-108005831D01*
X136956296Y-107944989D01*
X136956296Y-107901524D01*
X136986717Y-107840682D01*
X137009435Y-107817963D01*
X137070278Y-107787542D01*
X137296242Y-107787542D01*
X137444576Y-107836987D01*
X137473249Y-107843507D01*
X137531629Y-107839358D01*
X137583976Y-107813185D01*
X137622324Y-107768970D01*
X137640832Y-107713446D01*
X137636683Y-107655066D01*
X137610509Y-107602719D01*
X137566295Y-107564371D01*
X137539444Y-107552383D01*
X137368016Y-107495240D01*
X137353508Y-107491941D01*
X137349846Y-107490424D01*
X137344537Y-107489901D01*
X137339343Y-107488720D01*
X137335393Y-107489000D01*
X137320582Y-107487542D01*
X137034867Y-107487542D01*
X137005603Y-107490424D01*
X137000625Y-107492485D01*
X136995248Y-107492868D01*
X136967785Y-107503378D01*
X136853499Y-107560521D01*
X136840906Y-107568447D01*
X136837246Y-107569964D01*
X136833124Y-107573346D01*
X136828614Y-107576186D01*
X136826018Y-107579178D01*
X136814516Y-107588619D01*
X136757373Y-107645762D01*
X136747934Y-107657263D01*
X136744940Y-107659860D01*
X136742099Y-107664373D01*
X136738718Y-107668493D01*
X136737202Y-107672152D01*
X136729275Y-107684746D01*
X136672132Y-107799032D01*
X136661622Y-107826495D01*
X136661239Y-107831872D01*
X136659178Y-107836850D01*
X136656296Y-107866114D01*
X136270581Y-107866114D01*
X136270581Y-107787542D01*
X136463439Y-107787542D01*
X136492703Y-107784660D01*
X136546775Y-107762262D01*
X136588159Y-107720878D01*
X136610557Y-107666806D01*
X136610557Y-107608278D01*
X136588159Y-107554206D01*
X136546775Y-107512822D01*
X136492703Y-107490424D01*
X136463439Y-107487542D01*
X135777724Y-107487542D01*
X135748460Y-107490424D01*
X135694388Y-107512822D01*
X135653004Y-107554206D01*
X135634867Y-107597991D01*
X135616730Y-107554206D01*
X135575346Y-107512822D01*
X135521274Y-107490424D01*
X135492010Y-107487542D01*
X134920582Y-107487542D01*
X134891318Y-107490424D01*
X134837246Y-107512822D01*
X134795862Y-107554206D01*
X134773464Y-107608278D01*
X134770582Y-107637542D01*
X134620582Y-107637542D01*
X134620582Y-107337542D01*
X137792010Y-107337542D01*
X137792010Y-109137542D01*
G37*
G36*
X128888182Y-69574685D02*
G01*
X128732981Y-69574685D01*
X128810581Y-69341882D01*
X128888182Y-69574685D01*
G37*
G36*
X129509404Y-70367542D02*
G01*
X127310582Y-70367542D01*
X127310582Y-68867542D01*
X127460582Y-68867542D01*
X127460582Y-70067542D01*
X127463464Y-70096806D01*
X127485862Y-70150878D01*
X127527246Y-70192262D01*
X127581318Y-70214660D01*
X127610582Y-70217542D01*
X128182010Y-70217542D01*
X128211274Y-70214660D01*
X128265346Y-70192262D01*
X128295304Y-70162303D01*
X128336297Y-70197856D01*
X128391821Y-70216364D01*
X128450202Y-70212215D01*
X128502549Y-70186041D01*
X128540896Y-70141827D01*
X128552884Y-70114976D01*
X128632981Y-69874685D01*
X128988182Y-69874685D01*
X129068279Y-70114976D01*
X129080268Y-70141827D01*
X129118615Y-70186041D01*
X129170962Y-70212215D01*
X129229343Y-70216364D01*
X129284867Y-70197856D01*
X129329081Y-70159509D01*
X129355255Y-70107161D01*
X129359404Y-70048781D01*
X129352884Y-70020108D01*
X128952884Y-68820108D01*
X128940896Y-68793257D01*
X128933873Y-68785160D01*
X128929081Y-68775575D01*
X128914872Y-68763251D01*
X128902549Y-68749043D01*
X128892963Y-68744250D01*
X128884867Y-68737228D01*
X128867025Y-68731280D01*
X128850202Y-68722869D01*
X128839510Y-68722109D01*
X128829343Y-68718720D01*
X128810582Y-68720053D01*
X128791821Y-68718720D01*
X128781653Y-68722109D01*
X128770962Y-68722869D01*
X128754138Y-68731280D01*
X128736297Y-68737228D01*
X128728200Y-68744250D01*
X128718615Y-68749043D01*
X128706291Y-68763251D01*
X128692083Y-68775575D01*
X128687290Y-68785160D01*
X128680268Y-68793257D01*
X128668279Y-68820108D01*
X128286867Y-69964343D01*
X128265346Y-69942822D01*
X128211274Y-69920424D01*
X128182010Y-69917542D01*
X127760582Y-69917542D01*
X127760582Y-68867542D01*
X127757700Y-68838278D01*
X127735302Y-68784206D01*
X127693918Y-68742822D01*
X127639846Y-68720424D01*
X127581318Y-68720424D01*
X127527246Y-68742822D01*
X127485862Y-68784206D01*
X127463464Y-68838278D01*
X127460582Y-68867542D01*
X127310582Y-68867542D01*
X127310582Y-68568720D01*
X129509404Y-68568720D01*
X129509404Y-70367542D01*
G37*
G36*
X112983839Y-69055788D02*
G01*
X113055874Y-69127824D01*
X113094769Y-69205613D01*
X113143439Y-69400293D01*
X113143439Y-69534792D01*
X113094769Y-69729472D01*
X113055874Y-69807260D01*
X112983840Y-69879294D01*
X112869097Y-69917542D01*
X112757725Y-69917542D01*
X112757725Y-69017542D01*
X112869099Y-69017542D01*
X112983839Y-69055788D01*
G37*
G36*
X113593439Y-70367542D02*
G01*
X109793439Y-70367542D01*
X109793439Y-69381828D01*
X109943439Y-69381828D01*
X109943439Y-69553257D01*
X109943941Y-69558360D01*
X109943616Y-69560548D01*
X109945235Y-69571498D01*
X109946321Y-69582521D01*
X109947168Y-69584565D01*
X109947918Y-69589637D01*
X110005061Y-69818209D01*
X110005831Y-69820364D01*
X110005908Y-69821447D01*
X110010570Y-69833629D01*
X110014954Y-69845900D01*
X110015599Y-69846771D01*
X110016418Y-69848910D01*
X110073561Y-69963196D01*
X110081488Y-69975789D01*
X110083004Y-69979449D01*
X110086385Y-69983568D01*
X110089226Y-69988082D01*
X110092220Y-69990678D01*
X110101659Y-70002180D01*
X110215943Y-70116465D01*
X110238674Y-70135120D01*
X110243652Y-70137182D01*
X110247726Y-70140715D01*
X110274577Y-70152703D01*
X110446006Y-70209845D01*
X110460515Y-70213144D01*
X110464175Y-70214660D01*
X110469478Y-70215182D01*
X110474680Y-70216365D01*
X110478633Y-70216083D01*
X110493439Y-70217542D01*
X110607725Y-70217542D01*
X110622530Y-70216083D01*
X110626485Y-70216365D01*
X110631686Y-70215182D01*
X110636989Y-70214660D01*
X110640646Y-70213144D01*
X110655159Y-70209845D01*
X110826587Y-70152703D01*
X110853438Y-70140714D01*
X110857508Y-70137183D01*
X110862488Y-70135121D01*
X110885219Y-70116466D01*
X110942362Y-70059323D01*
X110961017Y-70036593D01*
X110983414Y-69982520D01*
X110986296Y-69953257D01*
X110986296Y-69553257D01*
X110983414Y-69523993D01*
X110961016Y-69469921D01*
X110919632Y-69428537D01*
X110865560Y-69406139D01*
X110836296Y-69403257D01*
X110607725Y-69403257D01*
X110578461Y-69406139D01*
X110524389Y-69428537D01*
X110483005Y-69469921D01*
X110460607Y-69523993D01*
X110460607Y-69582521D01*
X110483005Y-69636593D01*
X110524389Y-69677977D01*
X110578461Y-69700375D01*
X110607725Y-69703257D01*
X110686296Y-69703257D01*
X110686296Y-69883238D01*
X110583382Y-69917542D01*
X110517781Y-69917542D01*
X110403036Y-69879294D01*
X110331003Y-69807260D01*
X110292108Y-69729471D01*
X110243439Y-69534792D01*
X110243439Y-69400292D01*
X110292108Y-69205613D01*
X110331003Y-69127824D01*
X110403038Y-69055789D01*
X110517782Y-69017542D01*
X110629457Y-69017542D01*
X110712071Y-69058849D01*
X110739534Y-69069359D01*
X110797914Y-69073507D01*
X110853437Y-69055000D01*
X110897652Y-69016653D01*
X110923827Y-68964304D01*
X110927975Y-68905924D01*
X110915181Y-68867542D01*
X111200582Y-68867542D01*
X111200582Y-70067542D01*
X111203464Y-70096806D01*
X111225862Y-70150878D01*
X111267246Y-70192262D01*
X111321318Y-70214660D01*
X111379846Y-70214660D01*
X111433918Y-70192262D01*
X111475302Y-70150878D01*
X111497700Y-70096806D01*
X111500582Y-70067542D01*
X111500582Y-69432376D01*
X111906059Y-70141963D01*
X111910438Y-70148132D01*
X111911576Y-70150878D01*
X111914374Y-70153676D01*
X111923081Y-70165941D01*
X111938852Y-70178154D01*
X111952960Y-70192262D01*
X111961795Y-70195921D01*
X111969355Y-70201776D01*
X111988597Y-70207023D01*
X112007032Y-70214660D01*
X112016596Y-70214660D01*
X112025818Y-70217175D01*
X112045604Y-70214660D01*
X112065560Y-70214660D01*
X112074394Y-70211000D01*
X112083879Y-70209795D01*
X112101201Y-70199896D01*
X112119632Y-70192262D01*
X112126392Y-70185501D01*
X112134695Y-70180757D01*
X112146908Y-70164985D01*
X112161016Y-70150878D01*
X112164675Y-70142042D01*
X112170530Y-70134483D01*
X112175777Y-70115241D01*
X112183414Y-70096806D01*
X112184888Y-70081834D01*
X112185929Y-70078019D01*
X112185554Y-70075072D01*
X112186296Y-70067542D01*
X112186296Y-68867542D01*
X112457725Y-68867542D01*
X112457725Y-70067542D01*
X112460607Y-70096806D01*
X112483005Y-70150878D01*
X112524389Y-70192262D01*
X112578461Y-70214660D01*
X112607725Y-70217542D01*
X112893439Y-70217542D01*
X112908244Y-70216083D01*
X112912199Y-70216365D01*
X112917400Y-70215182D01*
X112922703Y-70214660D01*
X112926361Y-70213144D01*
X112940872Y-70209845D01*
X113112302Y-70152703D01*
X113139153Y-70140715D01*
X113143224Y-70137183D01*
X113148204Y-70135121D01*
X113170934Y-70116466D01*
X113285219Y-70002180D01*
X113294658Y-69990678D01*
X113297652Y-69988082D01*
X113300492Y-69983568D01*
X113303874Y-69979449D01*
X113305389Y-69975789D01*
X113313317Y-69963196D01*
X113370460Y-69848910D01*
X113371278Y-69846771D01*
X113371924Y-69845900D01*
X113376308Y-69833626D01*
X113380970Y-69821446D01*
X113381046Y-69820363D01*
X113381817Y-69818208D01*
X113438960Y-69589637D01*
X113439709Y-69584565D01*
X113440557Y-69582521D01*
X113441642Y-69571498D01*
X113443262Y-69560548D01*
X113442936Y-69558360D01*
X113443439Y-69553257D01*
X113443439Y-69381828D01*
X113442936Y-69376724D01*
X113443262Y-69374537D01*
X113441642Y-69363586D01*
X113440557Y-69352564D01*
X113439709Y-69350519D01*
X113438960Y-69345448D01*
X113381817Y-69116877D01*
X113381046Y-69114721D01*
X113380970Y-69113639D01*
X113376308Y-69101458D01*
X113371924Y-69089185D01*
X113371278Y-69088313D01*
X113370460Y-69086175D01*
X113313317Y-68971889D01*
X113305389Y-68959295D01*
X113303874Y-68955636D01*
X113300492Y-68951516D01*
X113297652Y-68947003D01*
X113294658Y-68944406D01*
X113285219Y-68932905D01*
X113170934Y-68818619D01*
X113148204Y-68799964D01*
X113143222Y-68797900D01*
X113139153Y-68794371D01*
X113112302Y-68782382D01*
X112940873Y-68725240D01*
X112926365Y-68721941D01*
X112922703Y-68720424D01*
X112917394Y-68719901D01*
X112912200Y-68718720D01*
X112908250Y-68719000D01*
X112893439Y-68717542D01*
X112607725Y-68717542D01*
X112578461Y-68720424D01*
X112524389Y-68742822D01*
X112483005Y-68784206D01*
X112460607Y-68838278D01*
X112457725Y-68867542D01*
X112186296Y-68867542D01*
X112183414Y-68838278D01*
X112161016Y-68784206D01*
X112119632Y-68742822D01*
X112065560Y-68720424D01*
X112007032Y-68720424D01*
X111952960Y-68742822D01*
X111911576Y-68784206D01*
X111889178Y-68838278D01*
X111886296Y-68867542D01*
X111886296Y-69502707D01*
X111480818Y-68793121D01*
X111476440Y-68786953D01*
X111475302Y-68784206D01*
X111472502Y-68781406D01*
X111463797Y-68769143D01*
X111448025Y-68756929D01*
X111433918Y-68742822D01*
X111425082Y-68739162D01*
X111417523Y-68733308D01*
X111398278Y-68728059D01*
X111379846Y-68720424D01*
X111370284Y-68720424D01*
X111361059Y-68717908D01*
X111341268Y-68720424D01*
X111321318Y-68720424D01*
X111312484Y-68724083D01*
X111302999Y-68725289D01*
X111285676Y-68735187D01*
X111267246Y-68742822D01*
X111260485Y-68749582D01*
X111252183Y-68754327D01*
X111239969Y-68770098D01*
X111225862Y-68784206D01*
X111222202Y-68793041D01*
X111216348Y-68800601D01*
X111211099Y-68819845D01*
X111203464Y-68838278D01*
X111201990Y-68853244D01*
X111200948Y-68857065D01*
X111201323Y-68860016D01*
X111200582Y-68867542D01*
X110915181Y-68867542D01*
X110909468Y-68850402D01*
X110871121Y-68806186D01*
X110846236Y-68790521D01*
X110731951Y-68733378D01*
X110704487Y-68722869D01*
X110699112Y-68722487D01*
X110694132Y-68720424D01*
X110664868Y-68717542D01*
X110493439Y-68717542D01*
X110478627Y-68719000D01*
X110474678Y-68718720D01*
X110469483Y-68719901D01*
X110464175Y-68720424D01*
X110460512Y-68721941D01*
X110446005Y-68725240D01*
X110274576Y-68782383D01*
X110247725Y-68794371D01*
X110243653Y-68797902D01*
X110238674Y-68799965D01*
X110215943Y-68818620D01*
X110101659Y-68932905D01*
X110092220Y-68944406D01*
X110089226Y-68947003D01*
X110086385Y-68951516D01*
X110083004Y-68955636D01*
X110081488Y-68959295D01*
X110073561Y-68971889D01*
X110016418Y-69086175D01*
X110015599Y-69088313D01*
X110014954Y-69089185D01*
X110010570Y-69101455D01*
X110005908Y-69113638D01*
X110005831Y-69114720D01*
X110005061Y-69116876D01*
X109947918Y-69345448D01*
X109947168Y-69350519D01*
X109946321Y-69352564D01*
X109945235Y-69363586D01*
X109943616Y-69374537D01*
X109943941Y-69376724D01*
X109943439Y-69381828D01*
X109793439Y-69381828D01*
X109793439Y-68567542D01*
X113593439Y-68567542D01*
X113593439Y-70367542D01*
G37*
G36*
X141173156Y-69047963D02*
G01*
X141240852Y-69115659D01*
X141283439Y-69286007D01*
X141283439Y-69649077D01*
X141240851Y-69819426D01*
X141173156Y-69887121D01*
X141112315Y-69917542D01*
X140954562Y-69917542D01*
X140893722Y-69887122D01*
X140826026Y-69819426D01*
X140783439Y-69649078D01*
X140783439Y-69286006D01*
X140826025Y-69115659D01*
X140893721Y-69047963D01*
X140954564Y-69017542D01*
X141112314Y-69017542D01*
X141173156Y-69047963D01*
G37*
G36*
X144082468Y-69574685D02*
G01*
X143927267Y-69574685D01*
X144004867Y-69341882D01*
X144082468Y-69574685D01*
G37*
G36*
X144703690Y-70367542D02*
G01*
X140333439Y-70367542D01*
X140333439Y-69267542D01*
X140483439Y-69267542D01*
X140483439Y-69667542D01*
X140483941Y-69672645D01*
X140483616Y-69674833D01*
X140485235Y-69685783D01*
X140486321Y-69696806D01*
X140487168Y-69698850D01*
X140487918Y-69703922D01*
X140545061Y-69932495D01*
X140554954Y-69960186D01*
X140561593Y-69969147D01*
X140565861Y-69979449D01*
X140584516Y-70002180D01*
X140698802Y-70116466D01*
X140710306Y-70125907D01*
X140712901Y-70128899D01*
X140717410Y-70131737D01*
X140721533Y-70135121D01*
X140725194Y-70136637D01*
X140737786Y-70144564D01*
X140852071Y-70201706D01*
X140879535Y-70212216D01*
X140884910Y-70212597D01*
X140889889Y-70214660D01*
X140919153Y-70217542D01*
X141147725Y-70217542D01*
X141176989Y-70214660D01*
X141181967Y-70212597D01*
X141187343Y-70212216D01*
X141214807Y-70201706D01*
X141329091Y-70144564D01*
X141341684Y-70136637D01*
X141345345Y-70135121D01*
X141349463Y-70131740D01*
X141353977Y-70128900D01*
X141356574Y-70125905D01*
X141368076Y-70116466D01*
X141482362Y-70002180D01*
X141501017Y-69979449D01*
X141505284Y-69969147D01*
X141511924Y-69960186D01*
X141521817Y-69932494D01*
X141578960Y-69703922D01*
X141579709Y-69698850D01*
X141580557Y-69696806D01*
X141581642Y-69685783D01*
X141583262Y-69674833D01*
X141582936Y-69672645D01*
X141583439Y-69667542D01*
X141583439Y-69267542D01*
X141582936Y-69262438D01*
X141583262Y-69260251D01*
X141581642Y-69249300D01*
X141580557Y-69238278D01*
X141579709Y-69236233D01*
X141578960Y-69231162D01*
X141521817Y-69002591D01*
X141511924Y-68974899D01*
X141505284Y-68965937D01*
X141501017Y-68955636D01*
X141482362Y-68932905D01*
X141416999Y-68867542D01*
X141797725Y-68867542D01*
X141797725Y-70067542D01*
X141800607Y-70096806D01*
X141823005Y-70150878D01*
X141864389Y-70192262D01*
X141918461Y-70214660D01*
X141976989Y-70214660D01*
X142031061Y-70192262D01*
X142072445Y-70150878D01*
X142094843Y-70096806D01*
X142097725Y-70067542D01*
X142097725Y-68867542D01*
X142369154Y-68867542D01*
X142369154Y-70067542D01*
X142372036Y-70096806D01*
X142394434Y-70150878D01*
X142435818Y-70192262D01*
X142489890Y-70214660D01*
X142548418Y-70214660D01*
X142602490Y-70192262D01*
X142643874Y-70150878D01*
X142666272Y-70096806D01*
X142669154Y-70067542D01*
X142669154Y-69432376D01*
X143074631Y-70141963D01*
X143079010Y-70148132D01*
X143080148Y-70150878D01*
X143082946Y-70153676D01*
X143091653Y-70165941D01*
X143107424Y-70178154D01*
X143121532Y-70192262D01*
X143130367Y-70195921D01*
X143137927Y-70201776D01*
X143157169Y-70207023D01*
X143175604Y-70214660D01*
X143185168Y-70214660D01*
X143194390Y-70217175D01*
X143214176Y-70214660D01*
X143234132Y-70214660D01*
X143242966Y-70211000D01*
X143252451Y-70209795D01*
X143269773Y-70199896D01*
X143288204Y-70192262D01*
X143294964Y-70185501D01*
X143303267Y-70180757D01*
X143315480Y-70164985D01*
X143329588Y-70150878D01*
X143333247Y-70142042D01*
X143339102Y-70134483D01*
X143344349Y-70115241D01*
X143351986Y-70096806D01*
X143353460Y-70081834D01*
X143354501Y-70078019D01*
X143354126Y-70075072D01*
X143354868Y-70067542D01*
X143354868Y-70048781D01*
X143456046Y-70048781D01*
X143460195Y-70107162D01*
X143486369Y-70159509D01*
X143530583Y-70197856D01*
X143586107Y-70216364D01*
X143644488Y-70212215D01*
X143696835Y-70186041D01*
X143735182Y-70141827D01*
X143747170Y-70114976D01*
X143827267Y-69874685D01*
X144182468Y-69874685D01*
X144262565Y-70114976D01*
X144274554Y-70141827D01*
X144312901Y-70186041D01*
X144365248Y-70212215D01*
X144423629Y-70216364D01*
X144479153Y-70197856D01*
X144523367Y-70159509D01*
X144549541Y-70107161D01*
X144553690Y-70048781D01*
X144547170Y-70020108D01*
X144147170Y-68820108D01*
X144135182Y-68793257D01*
X144128159Y-68785160D01*
X144123367Y-68775575D01*
X144109158Y-68763251D01*
X144096835Y-68749043D01*
X144087249Y-68744250D01*
X144079153Y-68737228D01*
X144061311Y-68731280D01*
X144044488Y-68722869D01*
X144033796Y-68722109D01*
X144023629Y-68718720D01*
X144004868Y-68720053D01*
X143986107Y-68718720D01*
X143975939Y-68722109D01*
X143965248Y-68722869D01*
X143948424Y-68731280D01*
X143930583Y-68737228D01*
X143922486Y-68744250D01*
X143912901Y-68749043D01*
X143900577Y-68763251D01*
X143886369Y-68775575D01*
X143881576Y-68785160D01*
X143874554Y-68793257D01*
X143862565Y-68820108D01*
X143462566Y-70020108D01*
X143456046Y-70048781D01*
X143354868Y-70048781D01*
X143354868Y-68867542D01*
X143351986Y-68838278D01*
X143329588Y-68784206D01*
X143288204Y-68742822D01*
X143234132Y-68720424D01*
X143175604Y-68720424D01*
X143121532Y-68742822D01*
X143080148Y-68784206D01*
X143057750Y-68838278D01*
X143054868Y-68867542D01*
X143054868Y-69502707D01*
X142649390Y-68793121D01*
X142645012Y-68786953D01*
X142643874Y-68784206D01*
X142641074Y-68781406D01*
X142632369Y-68769143D01*
X142616597Y-68756929D01*
X142602490Y-68742822D01*
X142593654Y-68739162D01*
X142586095Y-68733308D01*
X142566850Y-68728059D01*
X142548418Y-68720424D01*
X142538856Y-68720424D01*
X142529631Y-68717908D01*
X142509840Y-68720424D01*
X142489890Y-68720424D01*
X142481056Y-68724083D01*
X142471571Y-68725289D01*
X142454248Y-68735187D01*
X142435818Y-68742822D01*
X142429057Y-68749582D01*
X142420755Y-68754327D01*
X142408541Y-68770098D01*
X142394434Y-68784206D01*
X142390774Y-68793041D01*
X142384920Y-68800601D01*
X142379671Y-68819845D01*
X142372036Y-68838278D01*
X142370562Y-68853244D01*
X142369520Y-68857065D01*
X142369895Y-68860016D01*
X142369154Y-68867542D01*
X142097725Y-68867542D01*
X142094843Y-68838278D01*
X142072445Y-68784206D01*
X142031061Y-68742822D01*
X141976989Y-68720424D01*
X141918461Y-68720424D01*
X141864389Y-68742822D01*
X141823005Y-68784206D01*
X141800607Y-68838278D01*
X141797725Y-68867542D01*
X141416999Y-68867542D01*
X141368076Y-68818619D01*
X141356574Y-68809179D01*
X141353978Y-68806186D01*
X141349464Y-68803344D01*
X141345345Y-68799964D01*
X141341686Y-68798448D01*
X141329093Y-68790521D01*
X141214808Y-68733378D01*
X141187344Y-68722869D01*
X141181969Y-68722487D01*
X141176989Y-68720424D01*
X141147725Y-68717542D01*
X140919153Y-68717542D01*
X140889889Y-68720424D01*
X140884911Y-68722485D01*
X140879534Y-68722868D01*
X140852071Y-68733378D01*
X140737785Y-68790521D01*
X140725191Y-68798448D01*
X140721533Y-68799964D01*
X140717413Y-68803344D01*
X140712900Y-68806186D01*
X140710303Y-68809180D01*
X140698802Y-68818619D01*
X140584516Y-68932905D01*
X140565861Y-68955636D01*
X140561593Y-68965937D01*
X140554954Y-68974899D01*
X140545061Y-69002590D01*
X140487918Y-69231162D01*
X140487168Y-69236233D01*
X140486321Y-69238278D01*
X140485235Y-69249300D01*
X140483616Y-69260251D01*
X140483941Y-69262438D01*
X140483439Y-69267542D01*
X140333439Y-69267542D01*
X140333439Y-68567542D01*
X144703690Y-68567542D01*
X144703690Y-70367542D01*
G37*
D11*
X159460100Y-87477619D02*
X159460100Y-87715714D01*
X159222005Y-87620476D02*
X159460100Y-87715714D01*
X159460100Y-87715714D02*
X159698195Y-87620476D01*
X159317243Y-87906190D02*
X159460100Y-87715714D01*
X159460100Y-87715714D02*
X159602957Y-87906190D01*
X148155299Y-103056980D02*
X148155299Y-102818885D01*
X148393394Y-102914123D02*
X148155299Y-102818885D01*
X148155299Y-102818885D02*
X147917204Y-102914123D01*
X148298156Y-102628409D02*
X148155299Y-102818885D01*
X148155299Y-102818885D02*
X148012442Y-102628409D01*
D12*
%TO.C,D6*%
X165638500Y-93691000D02*
X165638500Y-95961000D01*
X165638500Y-95961000D02*
X169523500Y-95961000D01*
X169523500Y-93691000D02*
X165638500Y-93691000D01*
%TO.C,C6*%
X157027500Y-102211252D02*
X157027500Y-100788748D01*
X158847500Y-102211252D02*
X158847500Y-100788748D01*
%TO.C,R10*%
X101233500Y-100492536D02*
X101233500Y-101946664D01*
X103053500Y-100492536D02*
X103053500Y-101946664D01*
%TO.C,R16*%
X154027500Y-100772936D02*
X154027500Y-102227064D01*
X155847500Y-100772936D02*
X155847500Y-102227064D01*
%TO.C,C15*%
X142648752Y-88090000D02*
X141226248Y-88090000D01*
X142648752Y-89910000D02*
X141226248Y-89910000D01*
%TO.C,R3*%
X125527500Y-77727064D02*
X125527500Y-76272936D01*
X127347500Y-77727064D02*
X127347500Y-76272936D01*
D13*
%TO.C,D8*%
X117119500Y-83365000D02*
X117119500Y-84635000D01*
X117119500Y-84000000D02*
X117881500Y-83365000D01*
X117119500Y-84000000D02*
X117881500Y-83492000D01*
X117119500Y-84000000D02*
X117881500Y-83619000D01*
X117119500Y-84000000D02*
X117881500Y-83746000D01*
X117119500Y-84000000D02*
X117881500Y-83873000D01*
X117119500Y-84000000D02*
X117881500Y-84127000D01*
X117119500Y-84000000D02*
X117881500Y-84254000D01*
X117119500Y-84000000D02*
X117881500Y-84381000D01*
X117119500Y-84000000D02*
X117881500Y-84508000D01*
X117119500Y-84000000D02*
X117881500Y-84635000D01*
X117881500Y-83365000D02*
X117881500Y-84635000D01*
X118135500Y-84000000D02*
X116865500Y-84000000D01*
X118516500Y-81904500D02*
X118516500Y-82575060D01*
X118516500Y-85424940D02*
X118516500Y-86095500D01*
X118516500Y-86095500D02*
X124358500Y-86095500D01*
X124358500Y-81904500D02*
X118516500Y-81904500D01*
X124358500Y-82575060D02*
X124358500Y-81904500D01*
X124358500Y-86095500D02*
X124358500Y-85424940D01*
D12*
%TO.C,R4*%
X128256901Y-77798914D02*
X128256901Y-76344786D01*
X130076901Y-77798914D02*
X130076901Y-76344786D01*
%TO.C,J2*%
X162513500Y-87996000D02*
X162513500Y-70156000D01*
X162513500Y-90596000D02*
X162513500Y-89266000D01*
X163843500Y-90596000D02*
X162513500Y-90596000D01*
X165173500Y-70156000D02*
X162513500Y-70156000D01*
X165173500Y-87996000D02*
X162513500Y-87996000D01*
X165173500Y-87996000D02*
X165173500Y-70156000D01*
%TO.C,J3*%
X129977500Y-109620000D02*
X129977500Y-112380000D01*
X135167500Y-109620000D02*
X129977500Y-109620000D01*
X135167500Y-109620000D02*
X135167500Y-112380000D01*
X135167500Y-112380000D02*
X129977500Y-112380000D01*
X136437500Y-109620000D02*
X137817500Y-109620000D01*
X137817500Y-109620000D02*
X137817500Y-111000000D01*
%TO.C,J13*%
X137057500Y-70620000D02*
X138437500Y-70620000D01*
X137057500Y-72000000D02*
X137057500Y-70620000D01*
X137057500Y-73270000D02*
X137057500Y-73380000D01*
X137057500Y-73270000D02*
X139817500Y-73270000D01*
X137057500Y-73380000D02*
X139817500Y-73380000D01*
X139817500Y-73270000D02*
X139817500Y-73380000D01*
%TO.C,J10*%
X100299700Y-109620000D02*
X101679700Y-109620000D01*
X100299700Y-111000000D02*
X100299700Y-109620000D01*
X100299700Y-112270000D02*
X100299700Y-112380000D01*
X100299700Y-112270000D02*
X103059700Y-112270000D01*
X100299700Y-112380000D02*
X103059700Y-112380000D01*
X103059700Y-112270000D02*
X103059700Y-112380000D01*
%TO.C,C14*%
X140148752Y-85090000D02*
X138726248Y-85090000D01*
X140148752Y-86910000D02*
X138726248Y-86910000D01*
D13*
%TO.C,U2*%
X132113400Y-79603486D02*
X132113400Y-80796512D01*
X134374000Y-80796512D02*
X134374000Y-79603486D01*
X134145300Y-78199799D02*
G75*
G02*
X133942100Y-78199799I-101600J0D01*
G01*
X133942100Y-78199799D02*
G75*
G02*
X134145300Y-78199799I101600J0D01*
G01*
D12*
%TO.C,R2*%
X104233500Y-96216664D02*
X104233500Y-94762536D01*
X106053500Y-96216664D02*
X106053500Y-94762536D01*
%TO.C,C11*%
X151027500Y-95788748D02*
X151027500Y-97211252D01*
X152847500Y-95788748D02*
X152847500Y-97211252D01*
%TO.C,J14*%
X114057500Y-70620000D02*
X115437500Y-70620000D01*
X114057500Y-72000000D02*
X114057500Y-70620000D01*
X114057500Y-73270000D02*
X114057500Y-73380000D01*
X114057500Y-73270000D02*
X116817500Y-73270000D01*
X114057500Y-73380000D02*
X116817500Y-73380000D01*
X116817500Y-73270000D02*
X116817500Y-73380000D01*
%TO.C,J20*%
X177043500Y-101526000D02*
X177043500Y-100146000D01*
X178423500Y-101526000D02*
X177043500Y-101526000D01*
X179693500Y-98766000D02*
X179803500Y-98766000D01*
X179693500Y-101526000D02*
X179693500Y-98766000D01*
X179693500Y-101526000D02*
X179803500Y-101526000D01*
X179803500Y-101526000D02*
X179803500Y-98766000D01*
%TO.C,J9*%
X110057500Y-70620000D02*
X111437500Y-70620000D01*
X110057500Y-72000000D02*
X110057500Y-70620000D01*
X110057500Y-73270000D02*
X110057500Y-73380000D01*
X110057500Y-73270000D02*
X112817500Y-73270000D01*
X110057500Y-73380000D02*
X112817500Y-73380000D01*
X112817500Y-73270000D02*
X112817500Y-73380000D01*
%TO.C,R31*%
X166013500Y-99553064D02*
X166013500Y-98098936D01*
X167833500Y-99553064D02*
X167833500Y-98098936D01*
D13*
%TO.C,U4*%
X154062600Y-87076700D02*
X158812400Y-87076700D01*
X158812400Y-78923300D02*
X154062600Y-78923300D01*
D14*
G36*
X152830700Y-84165499D02*
G01*
X152576700Y-84165499D01*
X152576700Y-83784499D01*
X152830700Y-83784499D01*
X152830700Y-84165499D01*
G37*
G36*
X160298300Y-80915501D02*
G01*
X160044300Y-80915501D01*
X160044300Y-80534501D01*
X160298300Y-80534501D01*
X160298300Y-80915501D01*
G37*
%TO.C,G\u002A\u002A\u002A*%
G36*
X169589376Y-111607621D02*
G01*
X169589376Y-112150230D01*
X169486720Y-112150230D01*
X169384064Y-112150230D01*
X169384064Y-111607621D01*
X169384064Y-111065011D01*
X169486720Y-111065011D01*
X169589376Y-111065011D01*
X169589376Y-111607621D01*
G37*
G36*
X169543103Y-110618683D02*
G01*
X169601547Y-110669998D01*
X169619345Y-110738572D01*
X169594593Y-110803140D01*
X169561974Y-110829337D01*
X169493469Y-110856683D01*
X169438807Y-110845594D01*
X169401550Y-110821393D01*
X169363506Y-110762310D01*
X169365435Y-110688147D01*
X169405228Y-110624687D01*
X169418449Y-110614974D01*
X169483758Y-110600274D01*
X169543103Y-110618683D01*
G37*
G36*
X167932558Y-112651639D02*
G01*
X167941531Y-112717728D01*
X167946389Y-112818418D01*
X167946882Y-112867091D01*
X167943968Y-112980177D01*
X167936189Y-113066814D01*
X167924988Y-113113587D01*
X167919877Y-113118129D01*
X167907450Y-113091122D01*
X167898292Y-113019347D01*
X167893941Y-112916668D01*
X167893798Y-112883208D01*
X167897274Y-112771536D01*
X167905678Y-112684179D01*
X167917377Y-112636307D01*
X167920803Y-112632170D01*
X167932558Y-112651639D01*
G37*
G36*
X166449217Y-112789181D02*
G01*
X166451039Y-112801362D01*
X166459696Y-112821768D01*
X166486235Y-112801362D01*
X166534103Y-112769299D01*
X166564674Y-112776307D01*
X166568360Y-112792075D01*
X166543950Y-112819460D01*
X166509699Y-112833325D01*
X166472474Y-112854189D01*
X166455055Y-112901903D01*
X166451039Y-112983397D01*
X166445325Y-113063057D01*
X166430837Y-113111408D01*
X166421709Y-113118129D01*
X166406086Y-113091413D01*
X166395494Y-113021622D01*
X166392378Y-112942147D01*
X166396831Y-112848409D01*
X166408463Y-112784858D01*
X166421709Y-112766166D01*
X166449217Y-112789181D01*
G37*
G36*
X167754512Y-111056023D02*
G01*
X167770153Y-111113886D01*
X167770900Y-111138337D01*
X167765981Y-111207316D01*
X167741118Y-111235608D01*
X167683372Y-111240993D01*
X167586633Y-111266912D01*
X167500058Y-111326568D01*
X167404272Y-111412144D01*
X167393924Y-111781187D01*
X167383575Y-112150230D01*
X167283935Y-112150230D01*
X167184295Y-112150230D01*
X167184295Y-111607621D01*
X167184295Y-111065011D01*
X167286951Y-111065011D01*
X167357837Y-111071664D01*
X167386381Y-111097403D01*
X167389607Y-111122846D01*
X167392898Y-111154630D01*
X167411331Y-111162013D01*
X167457746Y-111143616D01*
X167525962Y-111108181D01*
X167639420Y-111054033D01*
X167713269Y-111036359D01*
X167754512Y-111056023D01*
G37*
G36*
X171538114Y-112688960D02*
G01*
X171541565Y-112691501D01*
X171572856Y-112718055D01*
X171563000Y-112726174D01*
X171504416Y-112719440D01*
X171487846Y-112716886D01*
X171378564Y-112721400D01*
X171300862Y-112768881D01*
X171263339Y-112853008D01*
X171261200Y-112883487D01*
X171285765Y-112976764D01*
X171352570Y-113036147D01*
X171451284Y-113053762D01*
X171480514Y-113050593D01*
X171551393Y-113047166D01*
X171583551Y-113060810D01*
X171569223Y-113084742D01*
X171537439Y-113100326D01*
X171420750Y-113116722D01*
X171313538Y-113078165D01*
X171274532Y-113046136D01*
X171218762Y-112959046D01*
X171207485Y-112866245D01*
X171232690Y-112778372D01*
X171286368Y-112706068D01*
X171360505Y-112659971D01*
X171447091Y-112650722D01*
X171538114Y-112688960D01*
G37*
G36*
X169375913Y-112782689D02*
G01*
X169423514Y-112819803D01*
X169469095Y-112903739D01*
X169467024Y-112986898D01*
X169427246Y-113057379D01*
X169359703Y-113103277D01*
X169274341Y-113112691D01*
X169200750Y-113086449D01*
X169159772Y-113030510D01*
X169149422Y-112959901D01*
X169160756Y-112908493D01*
X169197277Y-112908493D01*
X169200622Y-112984328D01*
X169208083Y-113000808D01*
X169262584Y-113048849D01*
X169310739Y-113059468D01*
X169381783Y-113035769D01*
X169413394Y-113000808D01*
X169427543Y-112923980D01*
X169395525Y-112859336D01*
X169328521Y-112826042D01*
X169310739Y-112824826D01*
X169237709Y-112848937D01*
X169197277Y-112908493D01*
X169160756Y-112908493D01*
X169170563Y-112864011D01*
X169224672Y-112797751D01*
X169297779Y-112768264D01*
X169375913Y-112782689D01*
G37*
G36*
X166193338Y-112786510D02*
G01*
X166200923Y-112789791D01*
X166268539Y-112846607D01*
X166294952Y-112924313D01*
X166283878Y-113006075D01*
X166239036Y-113075059D01*
X166164143Y-113114432D01*
X166128406Y-113118129D01*
X166041072Y-113094527D01*
X165993863Y-113045017D01*
X165961714Y-112954492D01*
X165965133Y-112934276D01*
X166018658Y-112934276D01*
X166023498Y-112987611D01*
X166050055Y-113043262D01*
X166102855Y-113055500D01*
X166119138Y-113053985D01*
X166189559Y-113028436D01*
X166227954Y-112993475D01*
X166242290Y-112928854D01*
X166214312Y-112873111D01*
X166160325Y-112837328D01*
X166096633Y-112832586D01*
X166041906Y-112867025D01*
X166018658Y-112934276D01*
X165965133Y-112934276D01*
X165975887Y-112870684D01*
X166026081Y-112806287D01*
X166101998Y-112773998D01*
X166193338Y-112786510D01*
G37*
G36*
X173487922Y-112695458D02*
G01*
X173490300Y-112716640D01*
X173511514Y-112758961D01*
X173534295Y-112766166D01*
X173573327Y-112782003D01*
X173578291Y-112795496D01*
X173554534Y-112821517D01*
X173534295Y-112824826D01*
X173503704Y-112844199D01*
X173491098Y-112908418D01*
X173490300Y-112942147D01*
X173495219Y-113018903D01*
X173515102Y-113052826D01*
X173548960Y-113059468D01*
X173596621Y-113071751D01*
X173607621Y-113088799D01*
X173585141Y-113113640D01*
X173534456Y-113115112D01*
X173480699Y-113094264D01*
X173466836Y-113082933D01*
X173443447Y-113031819D01*
X173431899Y-112952214D01*
X173431639Y-112938725D01*
X173423042Y-112864855D01*
X173401805Y-112821132D01*
X173396225Y-112817910D01*
X173386079Y-112791379D01*
X173425555Y-112736609D01*
X173469804Y-112694322D01*
X173487922Y-112695458D01*
G37*
G36*
X165696290Y-112644950D02*
G01*
X165708264Y-112670480D01*
X165668223Y-112678162D01*
X165664988Y-112678175D01*
X165612667Y-112695191D01*
X165600461Y-112722170D01*
X165623939Y-112761056D01*
X165644457Y-112766166D01*
X165683489Y-112782003D01*
X165688452Y-112795496D01*
X165664696Y-112821517D01*
X165644457Y-112824826D01*
X165616790Y-112840526D01*
X165603277Y-112894882D01*
X165600461Y-112971478D01*
X165595186Y-113055134D01*
X165581696Y-113108232D01*
X165571131Y-113118129D01*
X165554280Y-113091776D01*
X165543674Y-113024504D01*
X165541801Y-112973922D01*
X165534465Y-112877597D01*
X165514418Y-112822150D01*
X165505138Y-112814838D01*
X165485452Y-112792210D01*
X165499945Y-112775731D01*
X165536871Y-112728588D01*
X165550608Y-112699507D01*
X165592438Y-112644199D01*
X165650521Y-112625302D01*
X165696290Y-112644950D01*
G37*
G36*
X165923568Y-112633015D02*
G01*
X165911294Y-112661216D01*
X165868060Y-112685666D01*
X165864434Y-112686673D01*
X165816830Y-112712511D01*
X165805773Y-112734090D01*
X165830312Y-112760141D01*
X165864434Y-112766166D01*
X165912094Y-112778449D01*
X165923094Y-112795496D01*
X165899338Y-112821517D01*
X165879099Y-112824826D01*
X165851432Y-112840526D01*
X165837919Y-112894882D01*
X165835103Y-112971478D01*
X165829828Y-113055134D01*
X165816338Y-113108232D01*
X165805773Y-113118129D01*
X165788922Y-113091776D01*
X165778316Y-113024504D01*
X165776443Y-112973922D01*
X165769129Y-112878256D01*
X165749374Y-112821042D01*
X165739780Y-112812605D01*
X165718211Y-112793343D01*
X165739780Y-112778387D01*
X165771212Y-112737878D01*
X165776443Y-112708199D01*
X165802209Y-112653376D01*
X165866827Y-112622222D01*
X165896163Y-112619515D01*
X165923568Y-112633015D01*
G37*
G36*
X166939348Y-112718333D02*
G01*
X166943466Y-112797389D01*
X166944916Y-112854157D01*
X166949567Y-113103464D01*
X166837152Y-113111147D01*
X166737190Y-113103507D01*
X166675879Y-113064842D01*
X166631293Y-112981117D01*
X166631761Y-112960315D01*
X166671532Y-112960315D01*
X166703550Y-113024959D01*
X166770555Y-113058253D01*
X166788337Y-113059468D01*
X166859382Y-113035769D01*
X166890993Y-113000808D01*
X166905141Y-112923980D01*
X166873123Y-112859336D01*
X166806119Y-112826042D01*
X166788337Y-112824826D01*
X166717292Y-112848525D01*
X166685681Y-112883487D01*
X166671532Y-112960315D01*
X166631761Y-112960315D01*
X166633214Y-112895652D01*
X166673703Y-112823355D01*
X166744820Y-112779134D01*
X166829759Y-112775917D01*
X166890275Y-112782292D01*
X166917268Y-112758065D01*
X166928517Y-112699084D01*
X166934104Y-112683091D01*
X166939348Y-112718333D01*
G37*
G36*
X173278991Y-112769021D02*
G01*
X173312734Y-112787939D01*
X173314318Y-112795496D01*
X173288831Y-112816090D01*
X173227422Y-112824824D01*
X173226328Y-112824826D01*
X173158179Y-112838269D01*
X173139356Y-112869174D01*
X173169759Y-112903409D01*
X173227020Y-112923221D01*
X173305255Y-112956336D01*
X173337297Y-113008963D01*
X173317119Y-113070620D01*
X173314008Y-113074507D01*
X173261627Y-113105388D01*
X173188655Y-113117380D01*
X173122424Y-113108704D01*
X173094341Y-113088799D01*
X173106876Y-113068964D01*
X173167026Y-113059734D01*
X173183045Y-113059468D01*
X173256572Y-113047704D01*
X173278530Y-113020195D01*
X173246985Y-112988621D01*
X173197599Y-112971620D01*
X173122707Y-112935367D01*
X173088079Y-112879774D01*
X173101916Y-112819227D01*
X173106966Y-112812620D01*
X173153477Y-112783230D01*
X173218362Y-112768074D01*
X173278991Y-112769021D01*
G37*
G36*
X174931285Y-112783805D02*
G01*
X174942147Y-112795496D01*
X174930686Y-112816268D01*
X174873622Y-112824812D01*
X174870553Y-112824826D01*
X174801304Y-112838233D01*
X174781690Y-112869082D01*
X174811859Y-112903316D01*
X174869514Y-112923221D01*
X174948184Y-112956650D01*
X174980180Y-113006341D01*
X174969098Y-113058328D01*
X174918537Y-113098642D01*
X174832091Y-113113316D01*
X174820703Y-113112775D01*
X174754450Y-113099918D01*
X174722655Y-113077247D01*
X174722170Y-113074028D01*
X174748270Y-113054360D01*
X174818082Y-113053165D01*
X174824826Y-113053902D01*
X174901737Y-113049551D01*
X174930874Y-113022853D01*
X174910041Y-112988386D01*
X174838799Y-112961074D01*
X174760564Y-112927959D01*
X174728522Y-112875331D01*
X174748700Y-112813675D01*
X174751811Y-112809788D01*
X174805851Y-112776520D01*
X174875152Y-112767148D01*
X174931285Y-112783805D01*
G37*
G36*
X173020723Y-112790680D02*
G01*
X173000082Y-112856273D01*
X172962404Y-112951021D01*
X172940603Y-113000808D01*
X172885996Y-113116788D01*
X172844744Y-113187877D01*
X172809452Y-113224055D01*
X172772728Y-113235297D01*
X172766731Y-113235450D01*
X172714033Y-113225081D01*
X172698383Y-113207040D01*
X172719489Y-113189978D01*
X172737679Y-113193710D01*
X172787327Y-113186948D01*
X172811200Y-113167551D01*
X172825512Y-113130616D01*
X172815922Y-113072028D01*
X172779870Y-112978267D01*
X172771904Y-112960068D01*
X172728298Y-112860068D01*
X172706011Y-112802109D01*
X172702223Y-112774767D01*
X172714114Y-112766616D01*
X172724051Y-112766166D01*
X172749037Y-112790853D01*
X172785081Y-112854071D01*
X172808650Y-112905484D01*
X172867581Y-113044803D01*
X172931006Y-112905484D01*
X172971307Y-112826916D01*
X173005928Y-112776393D01*
X173020279Y-112766166D01*
X173020723Y-112790680D01*
G37*
G36*
X167516937Y-112668895D02*
G01*
X167513626Y-112724687D01*
X167508033Y-112776304D01*
X167529226Y-112791670D01*
X167592125Y-112781444D01*
X167592855Y-112781284D01*
X167692762Y-112782854D01*
X167763578Y-112832609D01*
X167798055Y-112924290D01*
X167800231Y-112960326D01*
X167784333Y-113043412D01*
X167731763Y-113091421D01*
X167635206Y-113109482D01*
X167587236Y-113109611D01*
X167477598Y-113106503D01*
X167477598Y-112930601D01*
X167535146Y-112930601D01*
X167547683Y-113017606D01*
X167587479Y-113052815D01*
X167650846Y-113057084D01*
X167712920Y-113032567D01*
X167741570Y-113000808D01*
X167757436Y-112922961D01*
X167726750Y-112860516D01*
X167660495Y-112830188D01*
X167629609Y-112830401D01*
X167564523Y-112862666D01*
X167535146Y-112930601D01*
X167477598Y-112930601D01*
X167477598Y-112861278D01*
X167480363Y-112752053D01*
X167487739Y-112671819D01*
X167498352Y-112633014D01*
X167502995Y-112631749D01*
X167516937Y-112668895D01*
G37*
G36*
X171963717Y-112666879D02*
G01*
X172010849Y-112692804D01*
X172041762Y-112719811D01*
X172032973Y-112728919D01*
X171976544Y-112723713D01*
X171950461Y-112720084D01*
X171833481Y-112721589D01*
X171756943Y-112764172D01*
X171722553Y-112846662D01*
X171720708Y-112877772D01*
X171740232Y-112980685D01*
X171799668Y-113040790D01*
X171895392Y-113059468D01*
X171962775Y-113054095D01*
X171989777Y-113027297D01*
X171994457Y-112971478D01*
X172002953Y-112909696D01*
X172023422Y-112883494D01*
X172023787Y-112883487D01*
X172047351Y-112907498D01*
X172054233Y-112964232D01*
X172046239Y-113030741D01*
X172025176Y-113084078D01*
X172006723Y-113100326D01*
X171915148Y-113116692D01*
X171818930Y-113107180D01*
X171757273Y-113080533D01*
X171695287Y-113010400D01*
X171652233Y-112922027D01*
X171642494Y-112868494D01*
X171665989Y-112808116D01*
X171723935Y-112740259D01*
X171797527Y-112682031D01*
X171867958Y-112650543D01*
X171883939Y-112648845D01*
X171963717Y-112666879D01*
G37*
G36*
X171051554Y-112654121D02*
G01*
X171104653Y-112667610D01*
X171114549Y-112678175D01*
X171088529Y-112696542D01*
X171023527Y-112706757D01*
X170997228Y-112707505D01*
X170921640Y-112711508D01*
X170888044Y-112730385D01*
X170879949Y-112774445D01*
X170879907Y-112780831D01*
X170887577Y-112830418D01*
X170922091Y-112850718D01*
X170982563Y-112854157D01*
X171050416Y-112861523D01*
X171084332Y-112879638D01*
X171085219Y-112883487D01*
X171059435Y-112902873D01*
X170996035Y-112912564D01*
X170982563Y-112912817D01*
X170913141Y-112918295D01*
X170884721Y-112942949D01*
X170879907Y-112986143D01*
X170886311Y-113033385D01*
X170916515Y-113054383D01*
X170987011Y-113059442D01*
X170997228Y-113059468D01*
X171070695Y-113065973D01*
X171111558Y-113082224D01*
X171114549Y-113088799D01*
X171088170Y-113105530D01*
X171020724Y-113116149D01*
X170967898Y-113118129D01*
X170821247Y-113118129D01*
X170821247Y-112883487D01*
X170821247Y-112648845D01*
X170967898Y-112648845D01*
X171051554Y-112654121D01*
G37*
G36*
X167293299Y-112789918D02*
G01*
X167340932Y-112862163D01*
X167359852Y-112984383D01*
X167360277Y-113011003D01*
X167356704Y-113068994D01*
X167335407Y-113097433D01*
X167280519Y-113108258D01*
X167227146Y-113111165D01*
X167135680Y-113108683D01*
X167087922Y-113088557D01*
X167075827Y-113069562D01*
X167075210Y-113000032D01*
X167075600Y-112999592D01*
X167126556Y-112999592D01*
X167132081Y-113033720D01*
X167135756Y-113043538D01*
X167158384Y-113081657D01*
X167194915Y-113082109D01*
X167244884Y-113058436D01*
X167296306Y-113014533D01*
X167300439Y-112975127D01*
X167261155Y-112956080D01*
X167220958Y-112960380D01*
X167151730Y-112979490D01*
X167126556Y-112999592D01*
X167075600Y-112999592D01*
X167123172Y-112945901D01*
X167209787Y-112918285D01*
X167211031Y-112918159D01*
X167277473Y-112900302D01*
X167291764Y-112872371D01*
X167256610Y-112845074D01*
X167188812Y-112830259D01*
X167126051Y-112814596D01*
X167115206Y-112792065D01*
X167152012Y-112772684D01*
X167216082Y-112766166D01*
X167293299Y-112789918D01*
G37*
G36*
X170429434Y-112777112D02*
G01*
X170481854Y-112812256D01*
X170519741Y-112874595D01*
X170527944Y-112914912D01*
X170518859Y-112950015D01*
X170481887Y-112966835D01*
X170402452Y-112971453D01*
X170392367Y-112971478D01*
X170312100Y-112973689D01*
X170280137Y-112983612D01*
X170286187Y-113006179D01*
X170295375Y-113017971D01*
X170359500Y-113052099D01*
X170417077Y-113052265D01*
X170476306Y-113052279D01*
X170489809Y-113071765D01*
X170452318Y-113105101D01*
X170385686Y-113111722D01*
X170312443Y-113092688D01*
X170265749Y-113061245D01*
X170212889Y-112976907D01*
X170218156Y-112891028D01*
X170228450Y-112876154D01*
X170271304Y-112876154D01*
X170285883Y-112902750D01*
X170354538Y-112912702D01*
X170366628Y-112912817D01*
X170441979Y-112904825D01*
X170462991Y-112880289D01*
X170461951Y-112876154D01*
X170426966Y-112849532D01*
X170366628Y-112839491D01*
X170302444Y-112851011D01*
X170271304Y-112876154D01*
X170228450Y-112876154D01*
X170263972Y-112824826D01*
X170346366Y-112773601D01*
X170429434Y-112777112D01*
G37*
G36*
X172568969Y-112658484D02*
G01*
X172593160Y-112666583D01*
X172625146Y-112693587D01*
X172623950Y-112709298D01*
X172587488Y-112722554D01*
X172565392Y-112717726D01*
X172501510Y-112710747D01*
X172433259Y-112725884D01*
X172384992Y-112755566D01*
X172375750Y-112776682D01*
X172400626Y-112815169D01*
X172460171Y-112853601D01*
X172531762Y-112879328D01*
X172566745Y-112883487D01*
X172620130Y-112907194D01*
X172644931Y-112964185D01*
X172634318Y-113033266D01*
X172621999Y-113054934D01*
X172566784Y-113095925D01*
X172486985Y-113118574D01*
X172409133Y-113118360D01*
X172365973Y-113098575D01*
X172347550Y-113066076D01*
X172378834Y-113051851D01*
X172463251Y-113054398D01*
X172466215Y-113054677D01*
X172541768Y-113059000D01*
X172574087Y-113047443D01*
X172578009Y-113012431D01*
X172576204Y-112998526D01*
X172545806Y-112940404D01*
X172471751Y-112906555D01*
X172381474Y-112866020D01*
X172339114Y-112808344D01*
X172348886Y-112742180D01*
X172375078Y-112708177D01*
X172464441Y-112655065D01*
X172568969Y-112658484D01*
G37*
G36*
X173873855Y-112777695D02*
G01*
X173942684Y-112830542D01*
X173943256Y-112831352D01*
X173984250Y-112904605D01*
X173978425Y-112948196D01*
X173921920Y-112968217D01*
X173854484Y-112971478D01*
X173765527Y-112980693D01*
X173730847Y-113002904D01*
X173750006Y-113029959D01*
X173822566Y-113053705D01*
X173859221Y-113059563D01*
X173926820Y-113071499D01*
X173940679Y-113084595D01*
X173920522Y-113096226D01*
X173816627Y-113116515D01*
X173733936Y-113082905D01*
X173714823Y-113064491D01*
X173673691Y-112982784D01*
X173672570Y-112895793D01*
X173709592Y-112895793D01*
X173729460Y-112909124D01*
X173796010Y-112912769D01*
X173811785Y-112912817D01*
X173894447Y-112906321D01*
X173924109Y-112885888D01*
X173923103Y-112876154D01*
X173885515Y-112842024D01*
X173820540Y-112831532D01*
X173754987Y-112845879D01*
X173726173Y-112867339D01*
X173709592Y-112895793D01*
X173672570Y-112895793D01*
X173672497Y-112890167D01*
X173711497Y-112813140D01*
X173712372Y-112812256D01*
X173789495Y-112770972D01*
X173873855Y-112777695D01*
G37*
G36*
X168296006Y-112790619D02*
G01*
X168353548Y-112848815D01*
X168385344Y-112918007D01*
X168386836Y-112934008D01*
X168358595Y-112960465D01*
X168273975Y-112971214D01*
X168252405Y-112971478D01*
X168165308Y-112977089D01*
X168130420Y-112995020D01*
X168130490Y-113008140D01*
X168165419Y-113032416D01*
X168235652Y-113044476D01*
X168250275Y-113044803D01*
X168328312Y-113051171D01*
X168356189Y-113068048D01*
X168330247Y-113092094D01*
X168311111Y-113100326D01*
X168208085Y-113116048D01*
X168125105Y-113076951D01*
X168112744Y-113064491D01*
X168070501Y-112982211D01*
X168073245Y-112894873D01*
X168083388Y-112876154D01*
X168130196Y-112876154D01*
X168144775Y-112902750D01*
X168213429Y-112912702D01*
X168225519Y-112912817D01*
X168300871Y-112904825D01*
X168321882Y-112880289D01*
X168320843Y-112876154D01*
X168285857Y-112849532D01*
X168225519Y-112839491D01*
X168161336Y-112851011D01*
X168130196Y-112876154D01*
X168083388Y-112876154D01*
X168114083Y-112819509D01*
X168186120Y-112773153D01*
X168233498Y-112766166D01*
X168296006Y-112790619D01*
G37*
G36*
X174546439Y-112776183D02*
G01*
X174601521Y-112818880D01*
X174603818Y-112822898D01*
X174623105Y-112884301D01*
X174632443Y-112964525D01*
X174631762Y-113043462D01*
X174620991Y-113101006D01*
X174604849Y-113118129D01*
X174587408Y-113091903D01*
X174576904Y-113025500D01*
X174575519Y-112985222D01*
X174560379Y-112884036D01*
X174522339Y-112829686D01*
X174472471Y-112821184D01*
X174421846Y-112857543D01*
X174381537Y-112937777D01*
X174367280Y-113003787D01*
X174349688Y-113132794D01*
X174344833Y-113015473D01*
X174331404Y-112905760D01*
X174299148Y-112845649D01*
X174243109Y-112827744D01*
X174220239Y-112829593D01*
X174176804Y-112843318D01*
X174153941Y-112879332D01*
X174143047Y-112953901D01*
X174141291Y-112978810D01*
X174129125Y-113073789D01*
X174111737Y-113113331D01*
X174094017Y-113099779D01*
X174080859Y-113035478D01*
X174076905Y-112947960D01*
X174076905Y-112777792D01*
X174186893Y-112774599D01*
X174269407Y-112780409D01*
X174329159Y-112798830D01*
X174334788Y-112802739D01*
X174381293Y-112817223D01*
X174406647Y-112800119D01*
X174472110Y-112768847D01*
X174546439Y-112776183D01*
G37*
G36*
X165260416Y-112672402D02*
G01*
X165301328Y-112744590D01*
X165357683Y-112867687D01*
X165430596Y-113043970D01*
X165445541Y-113081466D01*
X165441442Y-113114424D01*
X165429594Y-113118129D01*
X165397236Y-113093870D01*
X165380485Y-113059468D01*
X165355607Y-113021099D01*
X165302238Y-113003887D01*
X165233833Y-113000808D01*
X165148242Y-113006627D01*
X165103707Y-113028575D01*
X165087182Y-113059468D01*
X165059516Y-113106907D01*
X165038072Y-113118129D01*
X165018854Y-113097479D01*
X165022126Y-113081466D01*
X165090117Y-112915006D01*
X165150389Y-112915006D01*
X165163918Y-112941031D01*
X165199325Y-112951061D01*
X165257518Y-112962659D01*
X165280273Y-112967483D01*
X165314071Y-112954783D01*
X165314492Y-112954368D01*
X165317057Y-112919121D01*
X165298992Y-112860887D01*
X165270371Y-112802216D01*
X165241267Y-112765656D01*
X165229000Y-112762996D01*
X165201140Y-112795895D01*
X165169995Y-112856562D01*
X165150389Y-112915006D01*
X165090117Y-112915006D01*
X165098132Y-112895383D01*
X165157381Y-112762895D01*
X165200986Y-112681725D01*
X165230062Y-112649596D01*
X165233833Y-112648845D01*
X165260416Y-112672402D01*
G37*
G36*
X169017296Y-112676287D02*
G01*
X169027503Y-112751207D01*
X169032003Y-112862496D01*
X169032101Y-112883487D01*
X169028671Y-112999687D01*
X169019306Y-113081344D01*
X169005395Y-113117347D01*
X169002771Y-113118129D01*
X168983385Y-113092345D01*
X168973694Y-113028945D01*
X168973441Y-113015473D01*
X168970623Y-112952397D01*
X168951527Y-112922528D01*
X168900189Y-112913450D01*
X168841455Y-112912817D01*
X168760356Y-112915009D01*
X168721954Y-112929861D01*
X168710283Y-112969791D01*
X168709468Y-113015473D01*
X168702102Y-113083325D01*
X168683987Y-113117242D01*
X168680138Y-113118129D01*
X168665613Y-113090687D01*
X168655406Y-113015766D01*
X168650906Y-112904477D01*
X168650808Y-112883487D01*
X168654238Y-112767286D01*
X168663603Y-112685630D01*
X168677514Y-112649627D01*
X168680138Y-112648845D01*
X168699525Y-112674628D01*
X168709215Y-112738028D01*
X168709468Y-112751501D01*
X168712286Y-112814577D01*
X168731382Y-112844446D01*
X168782720Y-112853523D01*
X168841455Y-112854157D01*
X168922553Y-112851965D01*
X168960955Y-112837113D01*
X168972627Y-112797183D01*
X168973441Y-112751501D01*
X168980807Y-112683648D01*
X168998922Y-112649731D01*
X169002771Y-112648845D01*
X169017296Y-112676287D01*
G37*
G36*
X171742942Y-111123198D02*
G01*
X171827345Y-111266523D01*
X171902325Y-111390276D01*
X171962749Y-111486271D01*
X172003487Y-111546324D01*
X172018688Y-111563008D01*
X172040087Y-111538732D01*
X172083069Y-111473352D01*
X172141101Y-111377249D01*
X172198575Y-111277038D01*
X172275286Y-111142127D01*
X172352907Y-111008633D01*
X172420362Y-110895467D01*
X172453124Y-110842379D01*
X172508545Y-110759147D01*
X172552363Y-110714267D01*
X172602874Y-110695622D01*
X172678375Y-110691096D01*
X172681627Y-110691045D01*
X172815704Y-110689018D01*
X172815704Y-111419624D01*
X172815704Y-112150230D01*
X172655193Y-112150230D01*
X172494682Y-112150230D01*
X172486544Y-111737953D01*
X172478406Y-111325675D01*
X172279646Y-111664627D01*
X172184102Y-111824659D01*
X172109546Y-111934068D01*
X172048071Y-111992803D01*
X171991770Y-112000811D01*
X171932736Y-111958040D01*
X171863061Y-111864438D01*
X171774839Y-111719952D01*
X171740286Y-111661059D01*
X171539838Y-111318539D01*
X171531700Y-111734385D01*
X171523562Y-112150230D01*
X171362539Y-112150230D01*
X171201515Y-112150230D01*
X171209360Y-111428078D01*
X171217205Y-110705926D01*
X171352083Y-110694348D01*
X171486961Y-110682771D01*
X171742942Y-111123198D01*
G37*
G36*
X170010090Y-112771434D02*
G01*
X170069441Y-112801147D01*
X170086958Y-112822898D01*
X170105917Y-112883424D01*
X170115419Y-112963276D01*
X170115285Y-113042297D01*
X170105335Y-113100334D01*
X170089597Y-113118129D01*
X170071740Y-113091806D01*
X170057453Y-113024847D01*
X170052935Y-112978810D01*
X170043156Y-112892011D01*
X170023222Y-112848068D01*
X169985390Y-112831227D01*
X169979986Y-112830379D01*
X169913324Y-112846963D01*
X169879707Y-112889039D01*
X169854404Y-112941836D01*
X169848392Y-112964145D01*
X169850543Y-112995313D01*
X169848740Y-113052136D01*
X169843449Y-113072285D01*
X169834552Y-113040661D01*
X169826743Y-112986143D01*
X169812336Y-112897006D01*
X169790761Y-112850851D01*
X169753277Y-112832018D01*
X169739344Y-112829593D01*
X169672766Y-112837141D01*
X169634193Y-112886984D01*
X169619559Y-112985159D01*
X169619155Y-113008140D01*
X169611530Y-113078851D01*
X169593185Y-113116324D01*
X169587561Y-113118129D01*
X169570099Y-113090527D01*
X169563383Y-113013027D01*
X169564858Y-112947772D01*
X169573301Y-112777416D01*
X169676312Y-112774496D01*
X169761223Y-112779897D01*
X169826648Y-112796973D01*
X169829221Y-112798280D01*
X169881146Y-112808275D01*
X169897295Y-112795575D01*
X169943601Y-112768265D01*
X170010090Y-112771434D01*
G37*
G36*
X170535798Y-111057110D02*
G01*
X170546848Y-111059949D01*
X170720637Y-111131605D01*
X170849146Y-111240024D01*
X170930479Y-111382480D01*
X170962736Y-111556249D01*
X170959972Y-111652890D01*
X170924527Y-111822334D01*
X170848018Y-111956831D01*
X170729093Y-112065204D01*
X170628023Y-112111564D01*
X170495442Y-112138950D01*
X170354319Y-112145709D01*
X170227621Y-112130190D01*
X170161316Y-112106012D01*
X170009375Y-111996556D01*
X169909213Y-111859958D01*
X169859593Y-111694177D01*
X169853348Y-111598634D01*
X169861917Y-111542579D01*
X170066627Y-111542579D01*
X170073502Y-111692655D01*
X170124333Y-111817390D01*
X170210154Y-111910117D01*
X170321996Y-111964171D01*
X170450892Y-111972886D01*
X170587565Y-111929757D01*
X170680607Y-111851218D01*
X170740641Y-111739041D01*
X170764690Y-111609976D01*
X170749780Y-111480771D01*
X170692937Y-111368179D01*
X170688301Y-111362522D01*
X170578489Y-111269530D01*
X170456768Y-111226257D01*
X170334454Y-111229425D01*
X170222865Y-111275755D01*
X170133318Y-111361972D01*
X170077130Y-111484795D01*
X170066627Y-111542579D01*
X169861917Y-111542579D01*
X169879711Y-111426173D01*
X169952876Y-111277390D01*
X170063954Y-111159189D01*
X170204058Y-111078473D01*
X170364302Y-111042146D01*
X170535798Y-111057110D01*
G37*
G36*
X165373475Y-110709235D02*
G01*
X165428037Y-110723222D01*
X165531867Y-110763139D01*
X165622185Y-110814299D01*
X165658941Y-110844841D01*
X165729369Y-110919809D01*
X165667372Y-110981806D01*
X165605375Y-111043803D01*
X165525763Y-110981181D01*
X165380867Y-110902633D01*
X165216990Y-110872643D01*
X165049050Y-110891894D01*
X164905346Y-110952738D01*
X164790583Y-111054153D01*
X164711180Y-111190730D01*
X164670827Y-111348256D01*
X164673214Y-111512516D01*
X164720265Y-111665685D01*
X164817588Y-111810572D01*
X164946144Y-111906123D01*
X165107525Y-111953305D01*
X165202361Y-111959059D01*
X165320053Y-111952796D01*
X165407039Y-111929909D01*
X165490545Y-111882988D01*
X165496262Y-111879093D01*
X165568164Y-111832720D01*
X165611716Y-111817932D01*
X165645580Y-111831232D01*
X165664911Y-111847502D01*
X165708403Y-111900648D01*
X165706792Y-111949357D01*
X165656614Y-112003708D01*
X165596488Y-112046723D01*
X165516056Y-112092206D01*
X165430927Y-112119588D01*
X165319273Y-112134731D01*
X165251857Y-112139263D01*
X165079668Y-112139680D01*
X164950201Y-112120592D01*
X164923220Y-112111955D01*
X164743684Y-112015156D01*
X164603559Y-111877992D01*
X164507613Y-111707438D01*
X164460615Y-111510470D01*
X164456582Y-111429462D01*
X164474632Y-111239399D01*
X164533164Y-111079101D01*
X164637056Y-110932389D01*
X164787611Y-110803545D01*
X164966866Y-110721729D01*
X165165321Y-110689456D01*
X165373475Y-110709235D01*
G37*
G36*
X175543418Y-111387644D02*
G01*
X175543418Y-112150230D01*
X175396766Y-112150230D01*
X175309236Y-112147408D01*
X175265563Y-112134720D01*
X175251050Y-112105830D01*
X175250115Y-112087024D01*
X175247256Y-112044270D01*
X175228814Y-112045018D01*
X175189300Y-112078855D01*
X175113607Y-112117185D01*
X175001284Y-112139901D01*
X174872478Y-112146136D01*
X174747335Y-112135024D01*
X174646001Y-112105699D01*
X174639448Y-112102500D01*
X174509254Y-112005411D01*
X174417632Y-111872546D01*
X174367316Y-111714571D01*
X174361295Y-111549183D01*
X174684236Y-111549183D01*
X174687690Y-111668748D01*
X174727416Y-111775326D01*
X174788497Y-111841398D01*
X174880287Y-111877130D01*
X174992967Y-111883926D01*
X175095697Y-111860512D01*
X175107875Y-111854567D01*
X175183967Y-111783784D01*
X175224698Y-111682841D01*
X175230477Y-111568067D01*
X175201715Y-111455794D01*
X175138822Y-111362351D01*
X175094641Y-111327755D01*
X174985017Y-111278982D01*
X174889914Y-111281741D01*
X174794482Y-111336788D01*
X174786443Y-111343427D01*
X174717129Y-111434714D01*
X174684236Y-111549183D01*
X174361295Y-111549183D01*
X174361039Y-111542150D01*
X174401533Y-111365947D01*
X174432438Y-111294791D01*
X174520456Y-111176064D01*
X174642646Y-111087427D01*
X174784772Y-111033094D01*
X174932601Y-111017277D01*
X175071897Y-111044188D01*
X175146653Y-111083424D01*
X175200374Y-111114827D01*
X175227311Y-111123672D01*
X175237616Y-111096591D01*
X175245497Y-111024327D01*
X175249724Y-110920344D01*
X175250115Y-110874364D01*
X175250115Y-110625057D01*
X175396766Y-110625057D01*
X175543418Y-110625057D01*
X175543418Y-111387644D01*
G37*
G36*
X173818272Y-111051558D02*
G01*
X173969734Y-111123649D01*
X174087755Y-111235377D01*
X174165007Y-111379696D01*
X174194162Y-111549564D01*
X174194226Y-111558221D01*
X174194226Y-111680946D01*
X173783602Y-111680946D01*
X173601204Y-111683102D01*
X173470469Y-111689450D01*
X173393813Y-111699808D01*
X173372979Y-111711610D01*
X173397683Y-111765396D01*
X173459817Y-111824544D01*
X173541416Y-111875118D01*
X173618717Y-111902189D01*
X173718234Y-111905593D01*
X173823363Y-111872499D01*
X173848961Y-111860359D01*
X173973564Y-111798710D01*
X174061897Y-111888062D01*
X174115634Y-111945044D01*
X174131637Y-111978194D01*
X174113763Y-112005048D01*
X174091570Y-112022958D01*
X173966888Y-112090635D01*
X173809404Y-112134979D01*
X173641383Y-112152872D01*
X173485089Y-112141197D01*
X173406567Y-112118849D01*
X173250218Y-112027112D01*
X173136319Y-111897080D01*
X173068856Y-111734746D01*
X173050990Y-111584167D01*
X173070570Y-111448433D01*
X173372979Y-111448433D01*
X173377903Y-111475332D01*
X173400083Y-111492051D01*
X173450629Y-111500970D01*
X173540653Y-111504468D01*
X173636951Y-111504965D01*
X173765091Y-111503351D01*
X173844897Y-111497332D01*
X173886634Y-111485147D01*
X173900568Y-111465032D01*
X173900923Y-111459636D01*
X173874570Y-111387973D01*
X173807045Y-111324325D01*
X173715655Y-111281358D01*
X173642240Y-111270323D01*
X173538321Y-111287922D01*
X173448263Y-111333540D01*
X173388344Y-111396408D01*
X173372979Y-111448433D01*
X173070570Y-111448433D01*
X173076490Y-111407390D01*
X173150581Y-111257436D01*
X173267066Y-111140170D01*
X173419745Y-111061456D01*
X173602420Y-111027160D01*
X173640698Y-111026148D01*
X173818272Y-111051558D01*
G37*
G36*
X169032101Y-111387644D02*
G01*
X169032101Y-112150230D01*
X168929445Y-112150230D01*
X168860065Y-112144796D01*
X168831655Y-112120152D01*
X168826789Y-112076027D01*
X168826789Y-112001823D01*
X168738881Y-112066817D01*
X168627728Y-112119263D01*
X168488250Y-112144092D01*
X168344671Y-112139752D01*
X168221219Y-112104690D01*
X168212940Y-112100512D01*
X168131482Y-112043609D01*
X168047593Y-111964282D01*
X168022293Y-111934881D01*
X167976016Y-111872004D01*
X167949017Y-111814687D01*
X167936174Y-111743625D01*
X167932364Y-111639516D01*
X167932217Y-111595401D01*
X167932752Y-111567016D01*
X168123604Y-111567016D01*
X168131265Y-111696215D01*
X168175816Y-111814207D01*
X168257787Y-111906597D01*
X168291881Y-111928336D01*
X168420541Y-111968169D01*
X168557091Y-111961523D01*
X168653141Y-111924210D01*
X168750110Y-111836457D01*
X168806156Y-111721604D01*
X168822237Y-111593591D01*
X168799310Y-111466358D01*
X168738332Y-111353845D01*
X168640260Y-111269992D01*
X168607112Y-111253893D01*
X168505449Y-111219399D01*
X168423882Y-111217454D01*
X168333558Y-111248280D01*
X168316654Y-111256132D01*
X168216829Y-111332580D01*
X168152302Y-111441007D01*
X168123604Y-111567016D01*
X167932752Y-111567016D01*
X167934492Y-111474692D01*
X167944476Y-111393282D01*
X167966905Y-111331886D01*
X168006514Y-111271218D01*
X168014391Y-111260777D01*
X168128479Y-111145020D01*
X168262783Y-111077589D01*
X168429785Y-111052506D01*
X168450278Y-111052080D01*
X168567931Y-111058212D01*
X168652737Y-111083653D01*
X168705730Y-111116339D01*
X168767380Y-111159068D01*
X168807001Y-111181393D01*
X168810937Y-111182332D01*
X168817749Y-111155127D01*
X168823095Y-111082005D01*
X168826249Y-110975704D01*
X168826789Y-110903695D01*
X168826789Y-110625057D01*
X168929445Y-110625057D01*
X169032101Y-110625057D01*
X169032101Y-111387644D01*
G37*
G36*
X166456177Y-111047765D02*
G01*
X166585269Y-111076546D01*
X166682864Y-111121116D01*
X166753043Y-111188949D01*
X166799885Y-111287522D01*
X166827469Y-111424311D01*
X166839875Y-111606791D01*
X166841731Y-111754272D01*
X166841412Y-112135565D01*
X166748882Y-112144756D01*
X166684760Y-112145492D01*
X166659997Y-112120571D01*
X166656351Y-112073650D01*
X166656351Y-111993354D01*
X166582623Y-112062617D01*
X166489594Y-112115908D01*
X166364408Y-112143492D01*
X166228377Y-112143796D01*
X166102813Y-112115244D01*
X166069779Y-112100512D01*
X165967457Y-112021052D01*
X165912288Y-111920905D01*
X165902428Y-111811641D01*
X165903805Y-111807263D01*
X166099525Y-111807263D01*
X166125137Y-111899348D01*
X166192073Y-111964361D01*
X166287662Y-111998160D01*
X166399234Y-111996605D01*
X166514119Y-111955554D01*
X166528189Y-111947374D01*
X166599752Y-111885221D01*
X166630446Y-111799837D01*
X166632392Y-111785270D01*
X166637122Y-111712079D01*
X166632827Y-111668377D01*
X166631012Y-111665385D01*
X166596812Y-111658375D01*
X166520708Y-111653416D01*
X166423346Y-111651616D01*
X166264941Y-111664090D01*
X166159379Y-111701596D01*
X166106389Y-111764265D01*
X166099525Y-111807263D01*
X165903805Y-111807263D01*
X165936033Y-111704825D01*
X166011257Y-111612025D01*
X166126257Y-111544809D01*
X166160179Y-111533595D01*
X166245014Y-111517916D01*
X166359091Y-111507517D01*
X166443513Y-111504965D01*
X166543513Y-111503837D01*
X166598392Y-111496348D01*
X166621688Y-111476342D01*
X166626939Y-111437662D01*
X166627020Y-111421520D01*
X166602467Y-111324539D01*
X166529973Y-111259979D01*
X166411282Y-111229082D01*
X166352636Y-111226424D01*
X166240105Y-111236772D01*
X166136202Y-111262917D01*
X166105061Y-111276176D01*
X166040566Y-111306607D01*
X166007050Y-111306118D01*
X165983551Y-111271056D01*
X165975476Y-111253589D01*
X165958201Y-111194058D01*
X165981661Y-111153290D01*
X165998820Y-111139499D01*
X166089747Y-111094479D01*
X166213784Y-111060932D01*
X166345733Y-111043911D01*
X166456177Y-111047765D01*
G37*
G36*
X168698324Y-103355255D02*
G01*
X168989628Y-103410769D01*
X169255980Y-103504743D01*
X169510413Y-103643091D01*
X169765957Y-103831724D01*
X169786578Y-103848944D01*
X169879722Y-103925825D01*
X169955842Y-103985811D01*
X170004092Y-104020498D01*
X170014699Y-104025750D01*
X170044024Y-104007221D01*
X170101936Y-103959083D01*
X170162671Y-103904003D01*
X170437070Y-103684285D01*
X170731598Y-103518154D01*
X171041574Y-103406270D01*
X171362316Y-103349289D01*
X171689144Y-103347871D01*
X172017376Y-103402673D01*
X172342332Y-103514354D01*
X172477084Y-103578573D01*
X172640240Y-103679447D01*
X172813832Y-103820224D01*
X172936462Y-103936309D01*
X173057429Y-104060418D01*
X173146923Y-104164817D01*
X173218244Y-104267699D01*
X173284692Y-104387255D01*
X173323496Y-104465704D01*
X173454564Y-104797333D01*
X173528642Y-105131486D01*
X173545664Y-105470145D01*
X173505563Y-105815294D01*
X173408271Y-106168918D01*
X173253722Y-106533001D01*
X173253481Y-106533487D01*
X173175940Y-106680254D01*
X173087577Y-106832407D01*
X173002118Y-106966860D01*
X172961422Y-107024769D01*
X172814651Y-107222748D01*
X172147108Y-107222748D01*
X171918024Y-107222555D01*
X171739912Y-107220467D01*
X171605084Y-107214216D01*
X171505851Y-107201535D01*
X171434528Y-107180158D01*
X171383424Y-107147818D01*
X171344854Y-107102249D01*
X171311129Y-107041183D01*
X171276215Y-106965963D01*
X171201500Y-106821627D01*
X171130356Y-106728091D01*
X171055983Y-106678415D01*
X170981733Y-106665473D01*
X170909644Y-106673770D01*
X170848500Y-106703167D01*
X170793827Y-106760420D01*
X170741147Y-106852285D01*
X170685987Y-106985520D01*
X170623869Y-107166881D01*
X170600076Y-107241640D01*
X170532051Y-107457568D01*
X170479430Y-107622841D01*
X170440366Y-107742870D01*
X170413010Y-107823066D01*
X170395515Y-107868842D01*
X170386033Y-107885608D01*
X170382717Y-107878775D01*
X170382693Y-107878261D01*
X170377046Y-107834943D01*
X170362267Y-107741472D01*
X170339640Y-107605424D01*
X170310451Y-107434372D01*
X170275984Y-107235892D01*
X170237525Y-107017560D01*
X170219245Y-106914780D01*
X170197614Y-106791963D01*
X170169258Y-106628735D01*
X170137188Y-106442533D01*
X170104413Y-106250794D01*
X170088715Y-106158375D01*
X170059057Y-105992824D01*
X170029699Y-105845798D01*
X170002982Y-105727831D01*
X169981250Y-105649458D01*
X169969714Y-105623098D01*
X169909123Y-105586629D01*
X169836110Y-105585583D01*
X169777954Y-105618806D01*
X169769328Y-105631581D01*
X169753567Y-105678662D01*
X169730022Y-105770801D01*
X169701682Y-105895394D01*
X169671539Y-106039837D01*
X169666698Y-106064203D01*
X169635878Y-106218732D01*
X169600654Y-106392529D01*
X169563069Y-106575814D01*
X169525168Y-106758806D01*
X169488995Y-106931727D01*
X169456595Y-107084795D01*
X169430011Y-107208231D01*
X169411288Y-107292255D01*
X169403087Y-107325364D01*
X169386913Y-107313357D01*
X169350209Y-107258248D01*
X169298758Y-107169365D01*
X169249647Y-107077870D01*
X169185114Y-106960176D01*
X169124756Y-106860960D01*
X169076554Y-106792777D01*
X169053846Y-106769942D01*
X168982124Y-106757972D01*
X168902616Y-106799265D01*
X168820447Y-106889863D01*
X168752296Y-107002768D01*
X168681780Y-107120353D01*
X168618115Y-107184376D01*
X168590730Y-107196839D01*
X168541278Y-107202775D01*
X168442639Y-107208277D01*
X168304289Y-107213050D01*
X168135701Y-107216798D01*
X167946352Y-107219225D01*
X167853431Y-107219824D01*
X167188040Y-107222748D01*
X167007761Y-106953228D01*
X166824539Y-106661430D01*
X166684086Y-106394316D01*
X166582581Y-106140925D01*
X166516206Y-105890295D01*
X166481140Y-105631467D01*
X166473070Y-105418937D01*
X166476082Y-105304994D01*
X166956820Y-105304994D01*
X166961130Y-105557858D01*
X167011703Y-105820738D01*
X167109837Y-106101595D01*
X167200378Y-106298845D01*
X167264651Y-106418026D01*
X167344766Y-106551326D01*
X167434211Y-106689586D01*
X167526477Y-106823647D01*
X167615051Y-106944349D01*
X167693424Y-107042533D01*
X167755084Y-107109040D01*
X167793520Y-107134709D01*
X167794571Y-107134757D01*
X167811945Y-107108434D01*
X167834455Y-107039698D01*
X167855470Y-106951443D01*
X167952744Y-106619836D01*
X168101248Y-106310166D01*
X168296007Y-106027578D01*
X168532045Y-105777215D01*
X168804387Y-105564219D01*
X169108059Y-105393734D01*
X169438084Y-105270904D01*
X169496310Y-105255168D01*
X169701900Y-105218131D01*
X169936715Y-105200773D01*
X170176791Y-105203326D01*
X170398165Y-105226019D01*
X170496740Y-105245565D01*
X170691663Y-105307335D01*
X170906683Y-105399377D01*
X171120102Y-105510799D01*
X171310224Y-105630709D01*
X171400651Y-105699340D01*
X171619606Y-105911776D01*
X171816037Y-106162973D01*
X171977277Y-106434974D01*
X172069562Y-106647518D01*
X172134355Y-106826789D01*
X172306381Y-106835234D01*
X172478406Y-106843678D01*
X172631587Y-106615257D01*
X172818923Y-106295644D01*
X172951311Y-105979184D01*
X173028775Y-105668451D01*
X173051339Y-105366018D01*
X173019025Y-105074460D01*
X172931857Y-104796350D01*
X172789858Y-104534262D01*
X172610722Y-104309408D01*
X172411809Y-104132543D01*
X172184409Y-103991546D01*
X171940417Y-103891293D01*
X171691729Y-103836657D01*
X171450240Y-103832514D01*
X171447672Y-103832767D01*
X171171661Y-103883926D01*
X170915135Y-103981900D01*
X170673799Y-104129459D01*
X170443356Y-104329374D01*
X170219512Y-104584414D01*
X170159205Y-104663683D01*
X170092717Y-104750358D01*
X170038702Y-104814919D01*
X170006918Y-104845849D01*
X170003864Y-104846997D01*
X169979452Y-104824917D01*
X169928198Y-104765004D01*
X169857921Y-104676750D01*
X169786741Y-104583433D01*
X169563643Y-104323450D01*
X169325461Y-104117848D01*
X169074085Y-103967330D01*
X168811407Y-103872597D01*
X168539316Y-103834354D01*
X168259703Y-103853302D01*
X168002514Y-103920070D01*
X167734125Y-104043984D01*
X167497823Y-104214781D01*
X167297782Y-104427747D01*
X167138181Y-104678169D01*
X167023197Y-104961335D01*
X166997473Y-105054183D01*
X166956820Y-105304994D01*
X166476082Y-105304994D01*
X166479505Y-105175489D01*
X166500322Y-104982500D01*
X166521764Y-104881314D01*
X166634986Y-104560928D01*
X166793466Y-104269671D01*
X166991903Y-104011258D01*
X167224996Y-103789409D01*
X167487441Y-103607841D01*
X167773936Y-103470270D01*
X168079181Y-103380414D01*
X168397872Y-103341991D01*
X168698324Y-103355255D01*
G37*
G36*
X169873863Y-106402566D02*
G01*
X169888536Y-106471665D01*
X169907692Y-106574298D01*
X169919674Y-106643155D01*
X169982698Y-107014333D01*
X170036683Y-107331945D01*
X170082490Y-107600243D01*
X170120979Y-107823480D01*
X170153011Y-108005909D01*
X170179447Y-108151783D01*
X170201146Y-108265355D01*
X170218971Y-108350876D01*
X170233780Y-108412601D01*
X170246436Y-108454782D01*
X170257797Y-108481671D01*
X170268726Y-108497522D01*
X170280082Y-108506586D01*
X170292726Y-108513118D01*
X170298684Y-108516159D01*
X170378358Y-108532619D01*
X170449918Y-108505581D01*
X170484045Y-108460834D01*
X170499606Y-108415339D01*
X170528921Y-108323652D01*
X170568931Y-108195782D01*
X170616575Y-108041735D01*
X170668792Y-107871519D01*
X170722521Y-107695141D01*
X170774702Y-107522608D01*
X170822273Y-107363929D01*
X170862174Y-107229109D01*
X170887391Y-107142090D01*
X170925899Y-107019692D01*
X170957475Y-106951924D01*
X170985110Y-106935598D01*
X171011792Y-106967528D01*
X171024123Y-106996364D01*
X171093792Y-107160804D01*
X171161599Y-107277586D01*
X171234418Y-107357059D01*
X171288131Y-107393856D01*
X171377203Y-107434008D01*
X171460236Y-107455982D01*
X171479025Y-107457390D01*
X171556877Y-107457390D01*
X171482374Y-107537738D01*
X171367883Y-107701983D01*
X171307164Y-107887028D01*
X171301633Y-108087220D01*
X171319411Y-108188770D01*
X171355343Y-108338552D01*
X171217036Y-108506574D01*
X171017486Y-108712391D01*
X170791039Y-108882520D01*
X170623398Y-108974234D01*
X170469545Y-109045404D01*
X170385771Y-108985752D01*
X170269484Y-108927539D01*
X170123094Y-108888160D01*
X169973726Y-108873563D01*
X169897344Y-108878656D01*
X169796599Y-108905089D01*
X169687475Y-108949961D01*
X169656722Y-108966180D01*
X169533422Y-109036285D01*
X169327014Y-108937367D01*
X169125871Y-108815108D01*
X168935220Y-108651183D01*
X168765069Y-108457940D01*
X168625426Y-108247726D01*
X168526301Y-108032890D01*
X168489970Y-107904676D01*
X168474573Y-107847986D01*
X168447692Y-107819870D01*
X168391974Y-107810331D01*
X168324516Y-107809353D01*
X168178866Y-107809353D01*
X168199120Y-107917318D01*
X168255687Y-108115005D01*
X168349838Y-108329276D01*
X168471529Y-108542470D01*
X168610713Y-108736931D01*
X168752997Y-108891010D01*
X168910559Y-109021073D01*
X169084881Y-109139912D01*
X169257483Y-109236008D01*
X169401452Y-109295247D01*
X169556792Y-109344213D01*
X169642968Y-109251961D01*
X169758790Y-109156497D01*
X169890619Y-109108894D01*
X170002851Y-109099884D01*
X170170245Y-109126096D01*
X170315950Y-109200724D01*
X170379073Y-109257420D01*
X170439317Y-109309357D01*
X170492383Y-109334172D01*
X170497221Y-109334526D01*
X170547699Y-109321279D01*
X170634239Y-109286332D01*
X170741855Y-109236880D01*
X170855556Y-109180115D01*
X170960356Y-109123231D01*
X171041224Y-109073448D01*
X171142379Y-108992780D01*
X171261391Y-108881069D01*
X171382125Y-108755082D01*
X171488444Y-108631584D01*
X171559292Y-108535146D01*
X171609172Y-108453470D01*
X171629542Y-108401935D01*
X171624330Y-108362486D01*
X171604451Y-108327601D01*
X171567149Y-108255067D01*
X171530711Y-108160801D01*
X171523699Y-108138631D01*
X171505860Y-107987878D01*
X171793865Y-107987878D01*
X171799554Y-108038111D01*
X171840599Y-108150259D01*
X171912970Y-108219859D01*
X172004824Y-108242928D01*
X172104322Y-108215485D01*
X172172695Y-108163572D01*
X172239625Y-108076400D01*
X172252164Y-107994945D01*
X172210736Y-107906497D01*
X172182496Y-107870264D01*
X172091365Y-107796984D01*
X171993572Y-107781128D01*
X171895287Y-107822975D01*
X171857650Y-107855503D01*
X171806441Y-107920108D01*
X171793865Y-107987878D01*
X171505860Y-107987878D01*
X171505689Y-107986430D01*
X171537344Y-107840694D01*
X171610083Y-107710089D01*
X171715324Y-107603284D01*
X171844484Y-107528945D01*
X171988982Y-107495739D01*
X172140235Y-107512334D01*
X172143028Y-107513160D01*
X172275909Y-107575386D01*
X172392452Y-107670539D01*
X172475099Y-107782855D01*
X172494683Y-107828903D01*
X172516429Y-107952077D01*
X172512247Y-108089701D01*
X172484782Y-108217453D01*
X172443142Y-108302819D01*
X172330241Y-108415583D01*
X172190221Y-108497043D01*
X172089097Y-108527278D01*
X172030483Y-108542621D01*
X171982066Y-108572662D01*
X171931898Y-108628583D01*
X171868025Y-108721565D01*
X171847806Y-108753023D01*
X171677952Y-108977610D01*
X171468436Y-109188198D01*
X171232542Y-109374462D01*
X170983559Y-109526075D01*
X170734770Y-109632712D01*
X170702954Y-109642788D01*
X170601156Y-109676734D01*
X170539158Y-109709970D01*
X170499690Y-109755362D01*
X170469333Y-109816842D01*
X170377437Y-109963201D01*
X170253531Y-110064635D01*
X170106799Y-110117984D01*
X169946423Y-110120089D01*
X169781585Y-110067789D01*
X169764866Y-110059263D01*
X169650010Y-109974869D01*
X169561905Y-109851253D01*
X169561441Y-109850393D01*
X169511648Y-109768019D01*
X169459190Y-109714642D01*
X169383971Y-109673935D01*
X169308244Y-109644681D01*
X169237572Y-109612550D01*
X169779149Y-109612550D01*
X169808113Y-109713423D01*
X169853012Y-109782842D01*
X169908311Y-109817709D01*
X169995605Y-109829997D01*
X170019868Y-109830825D01*
X170109569Y-109812963D01*
X170173852Y-109755859D01*
X170226597Y-109655051D01*
X170221555Y-109557491D01*
X170158397Y-109459538D01*
X170145913Y-109446597D01*
X170078601Y-109389356D01*
X170021924Y-109371663D01*
X169977264Y-109377812D01*
X169866485Y-109429166D01*
X169798648Y-109510980D01*
X169779149Y-109612550D01*
X169237572Y-109612550D01*
X168974643Y-109493009D01*
X168669071Y-109290059D01*
X168393001Y-109036859D01*
X168319447Y-108955080D01*
X168231652Y-108836748D01*
X168136046Y-108681050D01*
X168041623Y-108505541D01*
X167957379Y-108327780D01*
X167892306Y-108165322D01*
X167860209Y-108058660D01*
X167837913Y-107983984D01*
X167803205Y-107915524D01*
X167747174Y-107840416D01*
X167660911Y-107745796D01*
X167601236Y-107684699D01*
X167376318Y-107457390D01*
X168015019Y-107457390D01*
X168246243Y-107456730D01*
X168426674Y-107453440D01*
X168564177Y-107445560D01*
X168666618Y-107431126D01*
X168741861Y-107408175D01*
X168797771Y-107374746D01*
X168842211Y-107328876D01*
X168883048Y-107268601D01*
X168902538Y-107235925D01*
X168947700Y-107163438D01*
X168980373Y-107119447D01*
X168990473Y-107112682D01*
X169006512Y-107141314D01*
X169042997Y-107212128D01*
X169094589Y-107314616D01*
X169155951Y-107438269D01*
X169159026Y-107444506D01*
X169238805Y-107602329D01*
X169301103Y-107713217D01*
X169351783Y-107784051D01*
X169396709Y-107821709D01*
X169441742Y-107833074D01*
X169485024Y-107827065D01*
X169512047Y-107818439D01*
X169534920Y-107803217D01*
X169555586Y-107774980D01*
X169575986Y-107727314D01*
X169598063Y-107653800D01*
X169623758Y-107548022D01*
X169655014Y-107403565D01*
X169693774Y-107214010D01*
X169738958Y-106988106D01*
X169775005Y-106808517D01*
X169807416Y-106649591D01*
X169834401Y-106519901D01*
X169854169Y-106428019D01*
X169864931Y-106382517D01*
X169866144Y-106379183D01*
X169873863Y-106402566D01*
G37*
D12*
%TO.C,C7*%
X115527500Y-99288748D02*
X115527500Y-100711252D01*
X117347500Y-99288748D02*
X117347500Y-100711252D01*
%TO.C,J18*%
X150057500Y-109620000D02*
X151437500Y-109620000D01*
X150057500Y-111000000D02*
X150057500Y-109620000D01*
X150057500Y-112270000D02*
X150057500Y-112380000D01*
X150057500Y-112270000D02*
X152817500Y-112270000D01*
X150057500Y-112380000D02*
X152817500Y-112380000D01*
X152817500Y-112270000D02*
X152817500Y-112380000D01*
%TO.C,R21*%
X131527500Y-99727064D02*
X131527500Y-98272936D01*
X133347500Y-99727064D02*
X133347500Y-98272936D01*
%TO.C,R20*%
X151027500Y-100772936D02*
X151027500Y-102227064D01*
X152847500Y-100772936D02*
X152847500Y-102227064D01*
%TO.C,R25*%
X133027500Y-92272936D02*
X133027500Y-93727064D01*
X134847500Y-92272936D02*
X134847500Y-93727064D01*
%TO.C,J22*%
X105057500Y-109620000D02*
X106437500Y-109620000D01*
X105057500Y-111000000D02*
X105057500Y-109620000D01*
X105057500Y-112270000D02*
X105057500Y-112380000D01*
X105057500Y-112270000D02*
X107817500Y-112270000D01*
X105057500Y-112380000D02*
X107817500Y-112380000D01*
X107817500Y-112270000D02*
X107817500Y-112380000D01*
%TO.C,J12*%
X106057500Y-70620000D02*
X107437500Y-70620000D01*
X106057500Y-72000000D02*
X106057500Y-70620000D01*
X106057500Y-73270000D02*
X106057500Y-73380000D01*
X106057500Y-73270000D02*
X108817500Y-73270000D01*
X106057500Y-73380000D02*
X108817500Y-73380000D01*
X108817500Y-73270000D02*
X108817500Y-73380000D01*
%TO.C,J8*%
X140557500Y-112380000D02*
X140557500Y-111000000D01*
X141937500Y-112380000D02*
X140557500Y-112380000D01*
X143207500Y-109620000D02*
X148397500Y-109620000D01*
X143207500Y-112380000D02*
X143207500Y-109620000D01*
X143207500Y-112380000D02*
X148397500Y-112380000D01*
X148397500Y-112380000D02*
X148397500Y-109620000D01*
%TO.C,J21*%
X146057500Y-70620000D02*
X147437500Y-70620000D01*
X146057500Y-72000000D02*
X146057500Y-70620000D01*
X146057500Y-73270000D02*
X146057500Y-73380000D01*
X146057500Y-73270000D02*
X148817500Y-73270000D01*
X146057500Y-73380000D02*
X148817500Y-73380000D01*
X148817500Y-73270000D02*
X148817500Y-73380000D01*
%TO.C,J4*%
X112977500Y-109747101D02*
X112977500Y-112507101D01*
X118167500Y-109747101D02*
X112977500Y-109747101D01*
X118167500Y-109747101D02*
X118167500Y-112507101D01*
X118167500Y-112507101D02*
X112977500Y-112507101D01*
X119437500Y-109747101D02*
X120817500Y-109747101D01*
X120817500Y-109747101D02*
X120817500Y-111127101D01*
D13*
%TO.C,U3*%
X108546100Y-101998100D02*
X112813300Y-101998100D01*
X112813300Y-92981100D02*
X108546100Y-92981100D01*
D14*
G36*
X114642100Y-98950100D02*
G01*
X114388100Y-98950100D01*
X114388100Y-98569100D01*
X114642100Y-98569100D01*
X114642100Y-98950100D01*
G37*
D12*
%TO.C,J1*%
X99337500Y-77400000D02*
X101837500Y-77400000D01*
X99337500Y-82600000D02*
X99337500Y-77400000D01*
X101837500Y-76900000D02*
X105037500Y-76900000D01*
X101837500Y-77400000D02*
X101837500Y-76900000D01*
X101837500Y-82600000D02*
X99337500Y-82600000D01*
X101837500Y-83100000D02*
X101837500Y-82600000D01*
X103037500Y-83100000D02*
X101837500Y-83100000D01*
X103037500Y-83100000D02*
X103037500Y-85100000D01*
X105637500Y-83100000D02*
X105637500Y-85100000D01*
X107637500Y-76900000D02*
X116537500Y-76900000D01*
X112137500Y-83100000D02*
X105637500Y-83100000D01*
X116537500Y-76900000D02*
X116537500Y-83100000D01*
X116537500Y-83100000D02*
X115337500Y-83100000D01*
%TO.C,J7*%
X141057500Y-70620000D02*
X142437500Y-70620000D01*
X141057500Y-72000000D02*
X141057500Y-70620000D01*
X141057500Y-73270000D02*
X141057500Y-73380000D01*
X141057500Y-73270000D02*
X143817500Y-73270000D01*
X141057500Y-73380000D02*
X143817500Y-73380000D01*
X143817500Y-73270000D02*
X143817500Y-73380000D01*
D13*
%TO.C,U6*%
X143303900Y-101508500D02*
X147571100Y-101508500D01*
X147571100Y-92491500D02*
X143303900Y-92491500D01*
D14*
G36*
X141729100Y-95920500D02*
G01*
X141475100Y-95920500D01*
X141475100Y-95539500D01*
X141729100Y-95539500D01*
X141729100Y-95920500D01*
G37*
D12*
%TO.C,J24*%
X156057500Y-109620000D02*
X157437500Y-109620000D01*
X156057500Y-111000000D02*
X156057500Y-109620000D01*
X156057500Y-112270000D02*
X156057500Y-112380000D01*
X156057500Y-112270000D02*
X158817500Y-112270000D01*
X156057500Y-112380000D02*
X158817500Y-112380000D01*
X158817500Y-112270000D02*
X158817500Y-112380000D01*
D13*
%TO.C,D1*%
X171517800Y-92650401D02*
X171517800Y-93689261D01*
X171517800Y-94862741D02*
X171517800Y-95901601D01*
X171517800Y-95901601D02*
X173168800Y-95901601D01*
X173168800Y-92650401D02*
X171517800Y-92650401D01*
X173168800Y-94604260D02*
X173168800Y-93947742D01*
D12*
%TO.C,R6*%
X128527500Y-84727064D02*
X128527500Y-83272936D01*
X130347500Y-84727064D02*
X130347500Y-83272936D01*
%TO.C,C5*%
X104233500Y-100508348D02*
X104233500Y-101930852D01*
X106053500Y-100508348D02*
X106053500Y-101930852D01*
%TO.C,C13*%
X137527500Y-98288748D02*
X137527500Y-99711252D01*
X139347500Y-98288748D02*
X139347500Y-99711252D01*
%TO.C,J11*%
X177043500Y-96706000D02*
X177043500Y-95326000D01*
X178423500Y-96706000D02*
X177043500Y-96706000D01*
X179693500Y-93946000D02*
X179803500Y-93946000D01*
X179693500Y-96706000D02*
X179693500Y-93946000D01*
X179693500Y-96706000D02*
X179803500Y-96706000D01*
X179803500Y-96706000D02*
X179803500Y-93946000D01*
%TO.C,J15*%
X177713500Y-87916000D02*
X177713500Y-70076000D01*
X177713500Y-90516000D02*
X177713500Y-89186000D01*
X179043500Y-90516000D02*
X177713500Y-90516000D01*
X180373500Y-70076000D02*
X177713500Y-70076000D01*
X180373500Y-87916000D02*
X177713500Y-87916000D01*
X180373500Y-87916000D02*
X180373500Y-70076000D01*
%TO.C,R18*%
X154164564Y-91590000D02*
X152710436Y-91590000D01*
X154164564Y-93410000D02*
X152710436Y-93410000D01*
D13*
%TO.C,U1*%
X171416200Y-100900800D02*
X173270400Y-100900800D01*
X173270400Y-97751200D02*
X171416200Y-97751200D01*
X173270400Y-99689261D02*
X173270400Y-98962739D01*
D12*
%TO.C,C8*%
X118527500Y-99288748D02*
X118527500Y-100711252D01*
X120347500Y-99288748D02*
X120347500Y-100711252D01*
%TO.C,J16*%
X109057500Y-109620000D02*
X110437500Y-109620000D01*
X109057500Y-111000000D02*
X109057500Y-109620000D01*
X109057500Y-112270000D02*
X109057500Y-112380000D01*
X109057500Y-112270000D02*
X111817500Y-112270000D01*
X109057500Y-112380000D02*
X111817500Y-112380000D01*
X111817500Y-112270000D02*
X111817500Y-112380000D01*
%TO.C,R12*%
X112710436Y-103090000D02*
X114164564Y-103090000D01*
X112710436Y-104910000D02*
X114164564Y-104910000D01*
%TO.C,R1*%
X101233500Y-96216664D02*
X101233500Y-94762536D01*
X103053500Y-96216664D02*
X103053500Y-94762536D01*
%TO.C,C9*%
X117163748Y-92090000D02*
X118586252Y-92090000D01*
X117163748Y-93910000D02*
X118586252Y-93910000D01*
%TO.C,J6*%
X118057500Y-73380000D02*
X118057500Y-72000000D01*
X119437500Y-73380000D02*
X118057500Y-73380000D01*
X120707500Y-70620000D02*
X125897500Y-70620000D01*
X120707500Y-73380000D02*
X120707500Y-70620000D01*
X120707500Y-73380000D02*
X125897500Y-73380000D01*
X125897500Y-73380000D02*
X125897500Y-70620000D01*
%TO.C,J19*%
X150557500Y-70620000D02*
X151937500Y-70620000D01*
X150557500Y-72000000D02*
X150557500Y-70620000D01*
X150557500Y-73270000D02*
X150557500Y-73380000D01*
X150557500Y-73270000D02*
X153317500Y-73270000D01*
X150557500Y-73380000D02*
X153317500Y-73380000D01*
X153317500Y-73270000D02*
X153317500Y-73380000D01*
%TO.C,R17*%
X154027500Y-95772936D02*
X154027500Y-97227064D01*
X155847500Y-95772936D02*
X155847500Y-97227064D01*
%TO.C,J5*%
X127517500Y-73380000D02*
X127517500Y-72000000D01*
X128897500Y-73380000D02*
X127517500Y-73380000D01*
X130167500Y-70620000D02*
X135357500Y-70620000D01*
X130167500Y-73380000D02*
X130167500Y-70620000D01*
X130167500Y-73380000D02*
X135357500Y-73380000D01*
X135357500Y-73380000D02*
X135357500Y-70620000D01*
%TO.C,R22*%
X134527500Y-99727064D02*
X134527500Y-98272936D01*
X136347500Y-99727064D02*
X136347500Y-98272936D01*
%TO.C,R5*%
X125527500Y-84727064D02*
X125527500Y-83272936D01*
X127347500Y-84727064D02*
X127347500Y-83272936D01*
%TO.C,C10*%
X157027500Y-97211252D02*
X157027500Y-95788748D01*
X158847500Y-97211252D02*
X158847500Y-95788748D01*
%TO.C,R13*%
X120164564Y-103090000D02*
X118710436Y-103090000D01*
X120164564Y-104910000D02*
X118710436Y-104910000D01*
%TO.C,R7*%
X106233500Y-89946664D02*
X106233500Y-88492536D01*
X108053500Y-89946664D02*
X108053500Y-88492536D01*
D13*
%TO.C,D7*%
X117119500Y-76365000D02*
X117119500Y-77635000D01*
X117119500Y-77000000D02*
X117881500Y-76365000D01*
X117119500Y-77000000D02*
X117881500Y-76492000D01*
X117119500Y-77000000D02*
X117881500Y-76619000D01*
X117119500Y-77000000D02*
X117881500Y-76746000D01*
X117119500Y-77000000D02*
X117881500Y-76873000D01*
X117119500Y-77000000D02*
X117881500Y-77127000D01*
X117119500Y-77000000D02*
X117881500Y-77254000D01*
X117119500Y-77000000D02*
X117881500Y-77381000D01*
X117119500Y-77000000D02*
X117881500Y-77508000D01*
X117119500Y-77000000D02*
X117881500Y-77635000D01*
X117881500Y-76365000D02*
X117881500Y-77635000D01*
X118135500Y-77000000D02*
X116865500Y-77000000D01*
X118516500Y-74904500D02*
X118516500Y-75575060D01*
X118516500Y-78424940D02*
X118516500Y-79095500D01*
X118516500Y-79095500D02*
X124358500Y-79095500D01*
X124358500Y-74904500D02*
X118516500Y-74904500D01*
X124358500Y-75575060D02*
X124358500Y-74904500D01*
X124358500Y-79095500D02*
X124358500Y-78424940D01*
D12*
%TO.C,R26*%
X136664564Y-88090000D02*
X135210436Y-88090000D01*
X136664564Y-89910000D02*
X135210436Y-89910000D01*
%TO.C,R23*%
X137527500Y-94727064D02*
X137527500Y-93272936D01*
X139347500Y-94727064D02*
X139347500Y-93272936D01*
%TO.C,R8*%
X109543500Y-89946664D02*
X109543500Y-88492536D01*
X111363500Y-89946664D02*
X111363500Y-88492536D01*
%TO.C,J17*%
X126057500Y-109620000D02*
X127437500Y-109620000D01*
X126057500Y-111000000D02*
X126057500Y-109620000D01*
X126057500Y-112270000D02*
X126057500Y-112380000D01*
X126057500Y-112270000D02*
X128817500Y-112270000D01*
X126057500Y-112380000D02*
X128817500Y-112380000D01*
X128817500Y-112270000D02*
X128817500Y-112380000D01*
%TO.C,R19*%
X147260436Y-102090000D02*
X148714564Y-102090000D01*
X147260436Y-103910000D02*
X148714564Y-103910000D01*
%TO.C,R27*%
X146210436Y-89590000D02*
X147664564Y-89590000D01*
X146210436Y-91410000D02*
X147664564Y-91410000D01*
%TD*%
M02*
