%TF.GenerationSoftware,KiCad,Pcbnew,9.0.7*%
%TF.CreationDate,2026-06-11T13:07:40+03:00*%
%TF.ProjectId,PCB,5043422e-6b69-4636-9164-5f7063625858,rev?*%
%TF.SameCoordinates,Original*%
%TF.FileFunction,Legend,Bot*%
%TF.FilePolarity,Positive*%
%FSLAX46Y46*%
G04 Gerber Fmt 4.6, Leading zero omitted, Abs format (unit mm)*
G04 Created by KiCad (PCBNEW 9.0.7) date 2026-06-11 13:07:40*
%MOMM*%
%LPD*%
G01*
G04 APERTURE LIST*
%ADD10C,0.120000*%
%ADD11C,0.152400*%
G04 APERTURE END LIST*
D10*
%TO.C,C16*%
X129590000Y-152211252D02*
X129590000Y-150788748D01*
X131410000Y-152211252D02*
X131410000Y-150788748D01*
%TO.C,C20*%
X135090000Y-151273752D02*
X135090000Y-149851248D01*
X136910000Y-151273752D02*
X136910000Y-149851248D01*
%TO.C,R28*%
X120590000Y-164272936D02*
X120590000Y-165727064D01*
X122410000Y-164272936D02*
X122410000Y-165727064D01*
%TO.C,R24*%
X111590000Y-162272936D02*
X111590000Y-163727064D01*
X113410000Y-162272936D02*
X113410000Y-163727064D01*
%TO.C,R14*%
X92910000Y-166727064D02*
X92910000Y-165272936D01*
X91090000Y-166727064D02*
X91090000Y-165272936D01*
%TO.C,R11*%
X93877064Y-169090000D02*
X92422936Y-169090000D01*
X93877064Y-170910000D02*
X92422936Y-170910000D01*
%TO.C,R9*%
X79616000Y-170946664D02*
X79616000Y-169492536D01*
X77796000Y-170946664D02*
X77796000Y-169492536D01*
D11*
%TO.C,D5*%
X107374400Y-145825500D02*
X107374400Y-144174500D01*
X108413260Y-145825500D02*
X107374400Y-145825500D01*
X108671741Y-144174500D02*
X109328259Y-144174500D01*
X110625600Y-145825500D02*
X109586740Y-145825500D01*
X110625600Y-144174500D02*
X110625600Y-145825500D01*
%TO.C,D4*%
X103459401Y-145745300D02*
X103459401Y-144094300D01*
X104498261Y-145745300D02*
X103459401Y-145745300D01*
X104756742Y-144094300D02*
X105413260Y-144094300D01*
X106710601Y-145745300D02*
X105671741Y-145745300D01*
X106710601Y-144094300D02*
X106710601Y-145745300D01*
%TO.C,D3*%
X106625600Y-153014100D02*
X106625600Y-154665100D01*
X105586740Y-153014100D02*
X106625600Y-153014100D01*
X105328259Y-154665100D02*
X104671741Y-154665100D01*
X103374400Y-153014100D02*
X104413260Y-153014100D01*
X103374400Y-154665100D02*
X103374400Y-153014100D01*
%TO.C,D2*%
X110540599Y-153094300D02*
X110540599Y-154745300D01*
X109501739Y-153094300D02*
X110540599Y-153094300D01*
X109243258Y-154745300D02*
X108586740Y-154745300D01*
X107289399Y-153094300D02*
X108328259Y-153094300D01*
X107289399Y-154745300D02*
X107289399Y-153094300D01*
D10*
%TO.C,C21*%
X134590000Y-155226248D02*
X134590000Y-156648752D01*
X136410000Y-155226248D02*
X136410000Y-156648752D01*
%TO.C,C19*%
X128410000Y-151711252D02*
X128410000Y-150288748D01*
X126590000Y-151711252D02*
X126590000Y-150288748D01*
%TO.C,C18*%
X128410000Y-156711252D02*
X128410000Y-155288748D01*
X126590000Y-156711252D02*
X126590000Y-155288748D01*
%TO.C,C17*%
X132090000Y-154288748D02*
X132090000Y-155711252D01*
X133910000Y-154288748D02*
X133910000Y-155711252D01*
%TO.C,C12*%
X110540000Y-168711252D02*
X110540000Y-167288748D01*
X108720000Y-168711252D02*
X108720000Y-167288748D01*
%TO.C,C4*%
X106638900Y-148488747D02*
X106638900Y-149911251D01*
X108458900Y-148488747D02*
X108458900Y-149911251D01*
%TO.C,C3*%
X80486000Y-165200852D02*
X80486000Y-163778348D01*
X78666000Y-165200852D02*
X78666000Y-163778348D01*
%TO.C,C2*%
X144995800Y-167127249D02*
X144995800Y-168549753D01*
X146815800Y-167127249D02*
X146815800Y-168549753D01*
%TO.C,C1*%
X147922900Y-167127249D02*
X147922900Y-168549753D01*
X149742900Y-167127249D02*
X149742900Y-168549753D01*
%TO.C,R15*%
X95910000Y-166727064D02*
X95910000Y-165272936D01*
X94090000Y-166727064D02*
X94090000Y-165272936D01*
%TD*%
M02*
