M48
; DRILL file {KiCad 9.0.7} date 2026-06-11T13:07:32+0300
; FORMAT={-:-/ absolute / metric / decimal}
; #@! TF.CreationDate,2026-06-11T13:07:32+03:00
; #@! TF.GenerationSoftware,Kicad,Pcbnew,9.0.7
; #@! TF.FileFunction,Plated,1,4,PTH
FMAT,2
METRIC
; #@! TA.AperFunction,Plated,PTH,ViaDrill
T1C0.300
; #@! TA.AperFunction,Plated,PTH,ComponentDrill
T2C0.840
; #@! TA.AperFunction,Plated,PTH,ComponentDrill
T3C1.000
%
G90
G05
T1
X76.0Y-165.0
X79.706Y-164.22
X79.706Y-170.22
X79.706Y-173.22
X85.087Y-165.921
X86.0Y-169.0
X87.0Y-165.5
X89.0Y-146.0
X90.015Y-164.651
X90.05Y-165.965
X90.67Y-167.834
X90.704Y-163.895
X91.0Y-146.0
X93.281Y-168.719
X93.781Y-166.219
X96.231Y-168.469
X99.0Y-143.5
X99.0Y-150.0
X104.0Y-139.389
X105.576Y-146.681
X107.0Y-148.73
X107.0Y-154.0
X108.0Y-152.5
X109.361Y-151.16
X110.0Y-147.0
X110.5Y-150.0
X110.5Y-165.0
X111.0Y-155.0
X112.0Y-154.0
X112.67Y-165.999
X113.5Y-160.0
X116.5Y-166.0
X120.0Y-163.0
X120.0Y-165.0
X121.802Y-167.779
X124.883Y-167.117
X125.5Y-166.0
X126.5Y-173.0
X127.0Y-156.0
X128.0Y-151.47
X130.24Y-152.103
X130.5Y-154.5
X130.836Y-162.805
X131.5Y-147.5
X132.0Y-152.5
X132.173Y-162.462
X133.0Y-155.0
X133.5Y-152.0
X136.5Y-151.0
X138.0Y-157.555
X141.0Y-158.0
X142.0Y-155.0
X145.0Y-171.5
X150.486Y-166.826
T2
X139.355Y-140.405
X139.355Y-142.945
X139.355Y-145.485
X139.355Y-148.025
X139.355Y-150.565
X139.355Y-153.105
X139.355Y-155.645
X139.355Y-158.185
X154.595Y-140.405
X154.595Y-142.945
X154.595Y-145.485
X154.595Y-148.025
X154.595Y-150.565
X154.595Y-153.105
X154.595Y-155.645
X154.595Y-158.185
T3
X77.242Y-175.22
X81.706Y-175.22
X83.0Y-141.0
X86.0Y-180.0
X87.0Y-141.0
X89.92Y-180.127
X91.0Y-141.0
X92.46Y-180.127
X95.0Y-141.0
X95.0Y-180.127
X97.54Y-141.0
X100.08Y-141.0
X103.0Y-180.0
X104.46Y-141.0
X106.92Y-180.0
X107.0Y-141.0
X109.46Y-180.0
X109.54Y-141.0
X112.0Y-180.0
X114.0Y-141.0
X117.5Y-180.0
X118.0Y-141.0
X120.04Y-180.0
X122.58Y-180.0
X123.0Y-141.0
X127.0Y-180.0
X127.5Y-141.0
X133.0Y-180.0
X139.406Y-140.486
X139.406Y-143.026
X139.406Y-145.566
X139.406Y-148.106
X139.406Y-150.646
X139.406Y-153.186
X139.406Y-155.726
X139.406Y-158.266
X153.986Y-164.326
X153.986Y-169.146
X154.606Y-140.406
X154.606Y-142.946
X154.606Y-145.486
X154.606Y-148.026
X154.606Y-150.566
X154.606Y-153.106
X154.606Y-155.646
X154.606Y-158.186
M30
