M48
; DRILL file {KiCad 9.0.7} date 2026-06-12T19:57:51+0300
; FORMAT={-:-/ absolute / metric / decimal}
; #@! TF.CreationDate,2026-06-12T19:57:51+03:00
; #@! TF.GenerationSoftware,Kicad,Pcbnew,9.0.7
; #@! TF.FileFunction,Plated,1,4,PTH
FMAT,2
METRIC
; #@! TA.AperFunction,Plated,PTH,ViaDrill
T1C0.300
; #@! TA.AperFunction,Plated,PTH,ComponentDrill
T2C1.000
%
G90
G05
T1
X100.438Y-96.0
X104.143Y-95.22
X104.143Y-101.22
X104.143Y-104.22
X109.525Y-96.921
X110.438Y-100.0
X111.438Y-96.5
X113.438Y-77.0
X114.452Y-95.651
X114.488Y-96.965
X115.108Y-98.834
X115.141Y-94.895
X115.438Y-77.0
X117.719Y-99.719
X118.219Y-97.219
X120.668Y-99.469
X123.438Y-74.5
X123.438Y-81.0
X128.438Y-70.389
X130.013Y-77.681
X131.438Y-79.73
X131.438Y-85.0
X132.438Y-83.5
X133.799Y-82.16
X134.438Y-78.0
X134.938Y-81.0
X134.938Y-96.0
X135.438Y-86.0
X136.438Y-85.0
X137.108Y-96.999
X137.938Y-91.0
X140.938Y-97.0
X144.438Y-94.0
X144.438Y-96.0
X146.24Y-98.779
X149.32Y-98.117
X149.938Y-97.0
X150.938Y-104.0
X151.438Y-87.0
X152.438Y-82.47
X154.677Y-83.103
X154.938Y-85.5
X155.274Y-93.805
X155.938Y-78.5
X156.438Y-83.5
X156.611Y-93.462
X157.438Y-86.0
X157.938Y-83.0
X160.938Y-82.0
X162.438Y-88.555
X165.438Y-89.0
X166.438Y-86.0
X169.438Y-102.5
X174.923Y-97.826
T2
X101.68Y-111.0
X106.438Y-111.0
X107.438Y-72.0
X110.438Y-111.0
X111.438Y-72.0
X114.358Y-111.127
X115.438Y-72.0
X116.897Y-111.127
X119.438Y-72.0
X119.438Y-111.127
X121.977Y-72.0
X124.517Y-72.0
X127.438Y-111.0
X128.898Y-72.0
X131.357Y-111.0
X131.438Y-72.0
X133.898Y-111.0
X133.977Y-72.0
X136.438Y-111.0
X138.438Y-72.0
X141.938Y-111.0
X142.438Y-72.0
X144.477Y-111.0
X147.017Y-111.0
X147.438Y-72.0
X151.438Y-111.0
X151.938Y-72.0
X157.438Y-111.0
X163.844Y-71.486
X163.844Y-74.026
X163.844Y-76.566
X163.844Y-79.106
X163.844Y-81.646
X163.844Y-84.186
X163.844Y-86.726
X163.844Y-89.266
X178.423Y-95.326
X178.423Y-100.146
X179.043Y-71.406
X179.043Y-73.946
X179.043Y-76.486
X179.043Y-79.026
X179.043Y-81.566
X179.043Y-84.106
X179.043Y-86.646
X179.043Y-89.186
M30
