%TF.GenerationSoftware,KiCad,Pcbnew,9.0.7*%
%TF.CreationDate,2026-06-11T13:07:40+03:00*%
%TF.ProjectId,PCB,5043422e-6b69-4636-9164-5f7063625858,rev?*%
%TF.SameCoordinates,Original*%
%TF.FileFunction,Copper,L2,Inr*%
%TF.FilePolarity,Positive*%
%FSLAX46Y46*%
G04 Gerber Fmt 4.6, Leading zero omitted, Abs format (unit mm)*
G04 Created by KiCad (PCBNEW 9.0.7) date 2026-06-11 13:07:40*
%MOMM*%
%LPD*%
G01*
G04 APERTURE LIST*
%TA.AperFunction,ComponentPad*%
%ADD10C,1.700000*%
%TD*%
%TA.AperFunction,ComponentPad*%
%ADD11R,1.700000X1.700000*%
%TD*%
%TA.AperFunction,ComponentPad*%
%ADD12C,1.348000*%
%TD*%
%TA.AperFunction,ViaPad*%
%ADD13C,0.600000*%
%TD*%
G04 APERTURE END LIST*
D10*
%TO.N,SemnalTestLA*%
%TO.C,J5*%
X109540000Y-141000000D03*
%TO.N,INAL_IN*%
X107000000Y-141000000D03*
D11*
%TO.N,LAF*%
X104460000Y-141000000D03*
%TD*%
%TO.N,SemnalTestLA*%
%TO.C,J13*%
X114000000Y-141000000D03*
%TD*%
D10*
%TO.N,SemnalTestRA*%
%TO.C,J6*%
X100080000Y-141000000D03*
%TO.N,INAR_IN*%
X97540000Y-141000000D03*
D11*
%TO.N,RAF*%
X95000000Y-141000000D03*
%TD*%
%TO.N,SemnalTestRA*%
%TO.C,J14*%
X91000000Y-141000000D03*
%TD*%
%TO.N,GND*%
%TO.C,J24*%
X133000000Y-180000000D03*
%TD*%
%TO.N,GND*%
%TO.C,J22*%
X81706000Y-175219600D03*
%TD*%
%TO.N,GND*%
%TO.C,J21*%
X123000000Y-141000000D03*
%TD*%
%TO.N,GND*%
%TO.C,J20*%
X153986000Y-169146000D03*
%TD*%
%TO.N,FTJ*%
%TO.C,J19*%
X127500000Y-141000000D03*
%TD*%
%TO.N,SemnalTestFTJ*%
%TO.C,J18*%
X127000000Y-180000000D03*
%TD*%
%TO.N,SemnalTestNotch*%
%TO.C,J17*%
X103000000Y-180000000D03*
%TD*%
%TO.N,SemnalTestFts*%
%TO.C,J16*%
X86000000Y-180000000D03*
%TD*%
%TO.N,MISO*%
%TO.C,J15*%
X154606000Y-158186000D03*
D10*
%TO.N,MOSI*%
X154606000Y-155646000D03*
%TO.N,CS*%
X154606000Y-153106000D03*
%TO.N,unconnected-(J15-Pin_4-Pad4)*%
X154606000Y-150566000D03*
%TO.N,unconnected-(J15-Pin_5-Pad5)*%
X154606000Y-148026000D03*
%TO.N,unconnected-(J15-Pin_6-Pad6)*%
X154606000Y-145486000D03*
%TO.N,unconnected-(J15-Pin_7-Pad7)*%
X154606000Y-142946000D03*
%TO.N,unconnected-(J15-Pin_8-Pad8)*%
X154606000Y-140406000D03*
%TD*%
D11*
%TO.N,RL*%
%TO.C,J12*%
X83000000Y-141000000D03*
%TD*%
%TO.N,Vcc*%
%TO.C,J11*%
X153986000Y-164326000D03*
%TD*%
%TO.N,Vref*%
%TO.C,J10*%
X77242200Y-175219600D03*
%TD*%
%TO.N,GND*%
%TO.C,J9*%
X87000000Y-141000000D03*
%TD*%
%TO.N,NOTCH*%
%TO.C,J8*%
X117500000Y-180000000D03*
D10*
%TO.N,FTJ_IN*%
X120040000Y-180000000D03*
%TO.N,SemnalTestFTJ*%
X122580000Y-180000000D03*
%TD*%
D11*
%TO.N,OutIna*%
%TO.C,J7*%
X118000000Y-141000000D03*
%TD*%
%TO.N,OutIna*%
%TO.C,J4*%
X95000000Y-180127101D03*
D10*
%TO.N,FTS_IN*%
X92460000Y-180127101D03*
%TO.N,SemnalTestFts*%
X89920000Y-180127101D03*
%TD*%
D11*
%TO.N,FTS*%
%TO.C,J3*%
X112000000Y-180000000D03*
D10*
%TO.N,NOTCH_IN*%
X109460000Y-180000000D03*
%TO.N,SemnalTestNotch*%
X106920000Y-180000000D03*
%TD*%
D11*
%TO.N,Vusb*%
%TO.C,J2*%
X139406000Y-158266000D03*
D10*
%TO.N,GND*%
X139406000Y-155726000D03*
%TO.N,unconnected-(J2-Pin_3-Pad3)*%
X139406000Y-153186000D03*
%TO.N,SCK*%
X139406000Y-150646000D03*
%TO.N,unconnected-(J2-Pin_5-Pad5)*%
X139406000Y-148106000D03*
%TO.N,unconnected-(J2-Pin_6-Pad6)*%
X139406000Y-145566000D03*
%TO.N,unconnected-(J2-Pin_7-Pad7)*%
X139406000Y-143026000D03*
%TO.N,unconnected-(J2-Pin_8-Pad8)*%
X139406000Y-140486000D03*
%TD*%
D12*
%TO.N,MISO*%
%TO.C,U5*%
X154595000Y-158185000D03*
%TO.N,MOSI*%
X154595000Y-155645000D03*
%TO.N,CS*%
X154595000Y-153105000D03*
%TO.N,unconnected-(U5-GPIO8-Pad8)*%
X154595000Y-150565000D03*
%TO.N,unconnected-(U5-GPIO9-Pad9)*%
X154595000Y-148025000D03*
%TO.N,unconnected-(U5-GPIO10-Pad10)*%
X154595000Y-145485000D03*
%TO.N,unconnected-(U5-GPIO20-Pad20)*%
X154595000Y-142945000D03*
%TO.N,unconnected-(U5-GPIO21-Pad21)*%
X154595000Y-140405000D03*
%TO.N,unconnected-(U5-GPIO0-Pad0)*%
X139355000Y-140405000D03*
%TO.N,unconnected-(U5-GPIO1-Pad1)*%
X139355000Y-142945000D03*
%TO.N,unconnected-(U5-GPIO2-Pad2)*%
X139355000Y-145485000D03*
%TO.N,unconnected-(U5-GPIO3-Pad3)*%
X139355000Y-148025000D03*
%TO.N,SCK*%
X139355000Y-150565000D03*
%TO.N,unconnected-(U5-3V3-Pad3.3)*%
X139355000Y-153105000D03*
%TO.N,GND*%
X139355000Y-155645000D03*
%TO.N,Vusb*%
X139355000Y-158185000D03*
%TD*%
D13*
%TO.N,GND*%
X133000000Y-155000000D03*
%TO.N,Vcc*%
X76000000Y-165000000D03*
X127000000Y-156000000D03*
%TO.N,Vref*%
X131500000Y-147500000D03*
%TO.N,Vcc*%
X121802255Y-167778566D03*
%TO.N,Vref*%
X126500000Y-173000000D03*
X109361200Y-151160112D03*
X112000000Y-154000000D03*
%TO.N,GND*%
X87000000Y-165500000D03*
X142000000Y-155000000D03*
X99000000Y-143500000D03*
X99000000Y-150000000D03*
X145000000Y-171500000D03*
%TO.N,Vcc*%
X111000000Y-155000000D03*
%TO.N,GND*%
X110500000Y-150000000D03*
X128000000Y-151470000D03*
X136500000Y-151000000D03*
X120000000Y-165000000D03*
X108000000Y-152500000D03*
X107000000Y-148729999D03*
%TO.N,MISO*%
X138000000Y-157555000D03*
X141000000Y-158000000D03*
%TO.N,LAF*%
X104000000Y-139389000D03*
%TO.N,Vcc*%
X150486000Y-166826000D03*
%TO.N,Net-(U4-REGCAPD)*%
X132000000Y-152500000D03*
%TO.N,Vcc*%
X133500000Y-152000000D03*
X130500000Y-154500000D03*
%TO.N,Net-(U4-REGCAPA)*%
X130239961Y-152103183D03*
%TO.N,Net-(U6--INC)*%
X120000000Y-163000000D03*
%TO.N,Net-(U6-+IND)*%
X112670003Y-165998759D03*
X116500000Y-166000000D03*
%TO.N,Net-(U6--IND)*%
X113500000Y-160000000D03*
%TO.N,Net-(U6-+IND)*%
X110500000Y-165000000D03*
%TO.N,Net-(U6-+INA)*%
X125500000Y-166000000D03*
X124882555Y-167117445D03*
X132173094Y-162462004D03*
X130836481Y-162805000D03*
%TO.N,Net-(U3-+INC)*%
X90050060Y-165965318D03*
X90703592Y-163895000D03*
%TO.N,Vref*%
X96231000Y-168469000D03*
X85087038Y-165920799D03*
X86000000Y-169000000D03*
%TO.N,Net-(U3-+INC)*%
X90670000Y-167834305D03*
%TO.N,Net-(U3-+IND)*%
X93781250Y-166218750D03*
%TO.N,Net-(C7-Pad1)*%
X93281250Y-168718750D03*
%TO.N,FTS*%
X90014889Y-164651075D03*
%TO.N,Net-(U3-OUTB)*%
X79706000Y-173219600D03*
%TO.N,VCM_IN*%
X79706000Y-170219600D03*
%TO.N,1V65*%
X79706000Y-164219600D03*
%TO.N,INAL_IN*%
X89000000Y-146000000D03*
%TO.N,INAR_IN*%
X91000000Y-146000000D03*
%TO.N,Vcc*%
X110000000Y-147000000D03*
%TO.N,Net-(D4-A)*%
X105576000Y-146680992D03*
%TO.N,Net-(D2-A)*%
X107000000Y-154000000D03*
%TD*%
%TA.AperFunction,Conductor*%
%TO.N,GND*%
G36*
X135443039Y-138020185D02*
G01*
X135488794Y-138072989D01*
X135500000Y-138124500D01*
X135500000Y-139500000D01*
X138708027Y-139500000D01*
X138775066Y-139519685D01*
X138820821Y-139572489D01*
X138830765Y-139641647D01*
X138801740Y-139705203D01*
X138785124Y-139719860D01*
X138785676Y-139720532D01*
X138780964Y-139724398D01*
X138644398Y-139860964D01*
X138644395Y-139860968D01*
X138537095Y-140021552D01*
X138537088Y-140021565D01*
X138463181Y-140199994D01*
X138463178Y-140200006D01*
X138425500Y-140389424D01*
X138425500Y-140582575D01*
X138463178Y-140771993D01*
X138463181Y-140772005D01*
X138537088Y-140950434D01*
X138537095Y-140950447D01*
X138644395Y-141111031D01*
X138644398Y-141111035D01*
X138780964Y-141247601D01*
X138780968Y-141247604D01*
X138941552Y-141354904D01*
X138941565Y-141354911D01*
X139050660Y-141400099D01*
X139119999Y-141428820D01*
X139299043Y-141464434D01*
X139309424Y-141466499D01*
X139309427Y-141466500D01*
X139309429Y-141466500D01*
X139502573Y-141466500D01*
X139502574Y-141466499D01*
X139692001Y-141428820D01*
X139870441Y-141354908D01*
X140031032Y-141247604D01*
X140167604Y-141111032D01*
X140274908Y-140950441D01*
X140348820Y-140772001D01*
X140386500Y-140582571D01*
X140386500Y-140389429D01*
X140386500Y-140389426D01*
X140386499Y-140389424D01*
X140348820Y-140199999D01*
X140322785Y-140137145D01*
X140274911Y-140021565D01*
X140274904Y-140021552D01*
X140167604Y-139860968D01*
X140167601Y-139860964D01*
X140031035Y-139724398D01*
X140026324Y-139720532D01*
X140027944Y-139718557D01*
X139990284Y-139673506D01*
X139981567Y-139604182D01*
X140011713Y-139541150D01*
X140071151Y-139504423D01*
X140103973Y-139500000D01*
X153826001Y-139500000D01*
X153893040Y-139519685D01*
X153938795Y-139572489D01*
X153948739Y-139641647D01*
X153919714Y-139705203D01*
X153913682Y-139711681D01*
X153844398Y-139780964D01*
X153844395Y-139780968D01*
X153737095Y-139941552D01*
X153737088Y-139941565D01*
X153663181Y-140119994D01*
X153663178Y-140120006D01*
X153625500Y-140309424D01*
X153625500Y-140502575D01*
X153663178Y-140691993D01*
X153663181Y-140692005D01*
X153737088Y-140870434D01*
X153737095Y-140870447D01*
X153844395Y-141031031D01*
X153844398Y-141031035D01*
X153980964Y-141167601D01*
X153980968Y-141167604D01*
X154141552Y-141274904D01*
X154141565Y-141274911D01*
X154319994Y-141348818D01*
X154319999Y-141348820D01*
X154509424Y-141386499D01*
X154509427Y-141386500D01*
X154509429Y-141386500D01*
X154702573Y-141386500D01*
X154702574Y-141386499D01*
X154892001Y-141348820D01*
X155070441Y-141274908D01*
X155231032Y-141167604D01*
X155367604Y-141031032D01*
X155474908Y-140870441D01*
X155548820Y-140692001D01*
X155586500Y-140502571D01*
X155586500Y-140309429D01*
X155586500Y-140309426D01*
X155586499Y-140309424D01*
X155572371Y-140238398D01*
X155548820Y-140119999D01*
X155510328Y-140027070D01*
X155474911Y-139941565D01*
X155474904Y-139941552D01*
X155367604Y-139780968D01*
X155367601Y-139780964D01*
X155298318Y-139711681D01*
X155264833Y-139650358D01*
X155269817Y-139580666D01*
X155311689Y-139524733D01*
X155377153Y-139500316D01*
X155385999Y-139500000D01*
X156875500Y-139500000D01*
X156942539Y-139519685D01*
X156988294Y-139572489D01*
X156999500Y-139624000D01*
X156999500Y-182375500D01*
X156979815Y-182442539D01*
X156927011Y-182488294D01*
X156875500Y-182499500D01*
X75124500Y-182499500D01*
X75057461Y-182479815D01*
X75011706Y-182427011D01*
X75000500Y-182375500D01*
X75000500Y-179137141D01*
X85019500Y-179137141D01*
X85019500Y-180862850D01*
X85019501Y-180862858D01*
X85026456Y-180897827D01*
X85027071Y-180900919D01*
X85055914Y-180944086D01*
X85099081Y-180972929D01*
X85137145Y-180980500D01*
X86862854Y-180980499D01*
X86900919Y-180972929D01*
X86944086Y-180944086D01*
X86972929Y-180900919D01*
X86980500Y-180862855D01*
X86980499Y-180030525D01*
X88939500Y-180030525D01*
X88939500Y-180223676D01*
X88977178Y-180413094D01*
X88977181Y-180413106D01*
X89051088Y-180591535D01*
X89051095Y-180591548D01*
X89158395Y-180752132D01*
X89158398Y-180752136D01*
X89294964Y-180888702D01*
X89294968Y-180888705D01*
X89455552Y-180996005D01*
X89455565Y-180996012D01*
X89633994Y-181069919D01*
X89633999Y-181069921D01*
X89785362Y-181100029D01*
X89823424Y-181107600D01*
X89823427Y-181107601D01*
X89823429Y-181107601D01*
X90016573Y-181107601D01*
X90016574Y-181107600D01*
X90206001Y-181069921D01*
X90384441Y-180996009D01*
X90545032Y-180888705D01*
X90681604Y-180752133D01*
X90788908Y-180591542D01*
X90862820Y-180413102D01*
X90900500Y-180223672D01*
X90900500Y-180030530D01*
X90900500Y-180030527D01*
X90900499Y-180030525D01*
X91479500Y-180030525D01*
X91479500Y-180223676D01*
X91517178Y-180413094D01*
X91517181Y-180413106D01*
X91591088Y-180591535D01*
X91591095Y-180591548D01*
X91698395Y-180752132D01*
X91698398Y-180752136D01*
X91834964Y-180888702D01*
X91834968Y-180888705D01*
X91995552Y-180996005D01*
X91995565Y-180996012D01*
X92173994Y-181069919D01*
X92173999Y-181069921D01*
X92325362Y-181100029D01*
X92363424Y-181107600D01*
X92363427Y-181107601D01*
X92363429Y-181107601D01*
X92556573Y-181107601D01*
X92556574Y-181107600D01*
X92746001Y-181069921D01*
X92924441Y-180996009D01*
X93085032Y-180888705D01*
X93221604Y-180752133D01*
X93328908Y-180591542D01*
X93402820Y-180413102D01*
X93440500Y-180223672D01*
X93440500Y-180030530D01*
X93440500Y-180030527D01*
X93440499Y-180030525D01*
X93439288Y-180024438D01*
X93402820Y-179841100D01*
X93388698Y-179807007D01*
X93328911Y-179662666D01*
X93328904Y-179662653D01*
X93221604Y-179502069D01*
X93221601Y-179502065D01*
X93085035Y-179365499D01*
X93085031Y-179365496D01*
X93078687Y-179361257D01*
X92933495Y-179264242D01*
X94019500Y-179264242D01*
X94019500Y-180989951D01*
X94019501Y-180989959D01*
X94027070Y-181028017D01*
X94027071Y-181028020D01*
X94055914Y-181071187D01*
X94099081Y-181100030D01*
X94137145Y-181107601D01*
X95862854Y-181107600D01*
X95900919Y-181100030D01*
X95944086Y-181071187D01*
X95972929Y-181028020D01*
X95980500Y-180989956D01*
X95980499Y-179264247D01*
X95972929Y-179226182D01*
X95944086Y-179183015D01*
X95900919Y-179154172D01*
X95900918Y-179154171D01*
X95862857Y-179146601D01*
X94137149Y-179146601D01*
X94137141Y-179146602D01*
X94099083Y-179154171D01*
X94099080Y-179154172D01*
X94055914Y-179183015D01*
X94027070Y-179226182D01*
X94019500Y-179264242D01*
X92933495Y-179264242D01*
X92924447Y-179258196D01*
X92924434Y-179258189D01*
X92746005Y-179184282D01*
X92745993Y-179184279D01*
X92556574Y-179146601D01*
X92556571Y-179146601D01*
X92363429Y-179146601D01*
X92363426Y-179146601D01*
X92174006Y-179184279D01*
X92173994Y-179184282D01*
X91995565Y-179258189D01*
X91995552Y-179258196D01*
X91834968Y-179365496D01*
X91834964Y-179365499D01*
X91698398Y-179502065D01*
X91698395Y-179502069D01*
X91591095Y-179662653D01*
X91591088Y-179662666D01*
X91517181Y-179841095D01*
X91517178Y-179841107D01*
X91479500Y-180030525D01*
X90900499Y-180030525D01*
X90899288Y-180024438D01*
X90862820Y-179841100D01*
X90848698Y-179807007D01*
X90788911Y-179662666D01*
X90788904Y-179662653D01*
X90681604Y-179502069D01*
X90681601Y-179502065D01*
X90545035Y-179365499D01*
X90545031Y-179365496D01*
X90384447Y-179258196D01*
X90384434Y-179258189D01*
X90206005Y-179184282D01*
X90205993Y-179184279D01*
X90016574Y-179146601D01*
X90016571Y-179146601D01*
X89823429Y-179146601D01*
X89823426Y-179146601D01*
X89634006Y-179184279D01*
X89633994Y-179184282D01*
X89455565Y-179258189D01*
X89455552Y-179258196D01*
X89294968Y-179365496D01*
X89294964Y-179365499D01*
X89158398Y-179502065D01*
X89158395Y-179502069D01*
X89051095Y-179662653D01*
X89051088Y-179662666D01*
X88977181Y-179841095D01*
X88977178Y-179841107D01*
X88939500Y-180030525D01*
X86980499Y-180030525D01*
X86980499Y-179934174D01*
X86980499Y-179137149D01*
X86980498Y-179137141D01*
X102019500Y-179137141D01*
X102019500Y-180862850D01*
X102019501Y-180862858D01*
X102026456Y-180897827D01*
X102027071Y-180900919D01*
X102055914Y-180944086D01*
X102099081Y-180972929D01*
X102137145Y-180980500D01*
X103862854Y-180980499D01*
X103900919Y-180972929D01*
X103944086Y-180944086D01*
X103972929Y-180900919D01*
X103980500Y-180862855D01*
X103980499Y-179903424D01*
X105939500Y-179903424D01*
X105939500Y-180096575D01*
X105977178Y-180285993D01*
X105977181Y-180286005D01*
X106051088Y-180464434D01*
X106051095Y-180464447D01*
X106158395Y-180625031D01*
X106158398Y-180625035D01*
X106294964Y-180761601D01*
X106294968Y-180761604D01*
X106455552Y-180868904D01*
X106455565Y-180868911D01*
X106633994Y-180942818D01*
X106633999Y-180942820D01*
X106785362Y-180972928D01*
X106823424Y-180980499D01*
X106823427Y-180980500D01*
X106823429Y-180980500D01*
X107016573Y-180980500D01*
X107016574Y-180980499D01*
X107206001Y-180942820D01*
X107384441Y-180868908D01*
X107545032Y-180761604D01*
X107681604Y-180625032D01*
X107788908Y-180464441D01*
X107862820Y-180286001D01*
X107900500Y-180096571D01*
X107900500Y-179903429D01*
X107900500Y-179903426D01*
X107900499Y-179903424D01*
X108479500Y-179903424D01*
X108479500Y-180096575D01*
X108517178Y-180285993D01*
X108517181Y-180286005D01*
X108591088Y-180464434D01*
X108591095Y-180464447D01*
X108698395Y-180625031D01*
X108698398Y-180625035D01*
X108834964Y-180761601D01*
X108834968Y-180761604D01*
X108995552Y-180868904D01*
X108995565Y-180868911D01*
X109173994Y-180942818D01*
X109173999Y-180942820D01*
X109325362Y-180972928D01*
X109363424Y-180980499D01*
X109363427Y-180980500D01*
X109363429Y-180980500D01*
X109556573Y-180980500D01*
X109556574Y-180980499D01*
X109746001Y-180942820D01*
X109924441Y-180868908D01*
X110085032Y-180761604D01*
X110221604Y-180625032D01*
X110328908Y-180464441D01*
X110402820Y-180286001D01*
X110440500Y-180096571D01*
X110440500Y-179903429D01*
X110440500Y-179903426D01*
X110440499Y-179903424D01*
X110402821Y-179714006D01*
X110402820Y-179713999D01*
X110381552Y-179662653D01*
X110328911Y-179535565D01*
X110328904Y-179535552D01*
X110221604Y-179374968D01*
X110221601Y-179374964D01*
X110085035Y-179238398D01*
X110085031Y-179238395D01*
X110078687Y-179234156D01*
X109933495Y-179137141D01*
X111019500Y-179137141D01*
X111019500Y-180862850D01*
X111019501Y-180862858D01*
X111026456Y-180897827D01*
X111027071Y-180900919D01*
X111055914Y-180944086D01*
X111099081Y-180972929D01*
X111137145Y-180980500D01*
X112862854Y-180980499D01*
X112900919Y-180972929D01*
X112944086Y-180944086D01*
X112972929Y-180900919D01*
X112980500Y-180862855D01*
X112980499Y-179137146D01*
X112980498Y-179137141D01*
X116519500Y-179137141D01*
X116519500Y-180862850D01*
X116519501Y-180862858D01*
X116526456Y-180897827D01*
X116527071Y-180900919D01*
X116555914Y-180944086D01*
X116599081Y-180972929D01*
X116637145Y-180980500D01*
X118362854Y-180980499D01*
X118400919Y-180972929D01*
X118444086Y-180944086D01*
X118472929Y-180900919D01*
X118480500Y-180862855D01*
X118480499Y-179903424D01*
X119059500Y-179903424D01*
X119059500Y-180096575D01*
X119097178Y-180285993D01*
X119097181Y-180286005D01*
X119171088Y-180464434D01*
X119171095Y-180464447D01*
X119278395Y-180625031D01*
X119278398Y-180625035D01*
X119414964Y-180761601D01*
X119414968Y-180761604D01*
X119575552Y-180868904D01*
X119575565Y-180868911D01*
X119753994Y-180942818D01*
X119753999Y-180942820D01*
X119905362Y-180972928D01*
X119943424Y-180980499D01*
X119943427Y-180980500D01*
X119943429Y-180980500D01*
X120136573Y-180980500D01*
X120136574Y-180980499D01*
X120326001Y-180942820D01*
X120504441Y-180868908D01*
X120665032Y-180761604D01*
X120801604Y-180625032D01*
X120908908Y-180464441D01*
X120982820Y-180286001D01*
X121020500Y-180096571D01*
X121020500Y-179903429D01*
X121020500Y-179903426D01*
X121020499Y-179903424D01*
X121599500Y-179903424D01*
X121599500Y-180096575D01*
X121637178Y-180285993D01*
X121637181Y-180286005D01*
X121711088Y-180464434D01*
X121711095Y-180464447D01*
X121818395Y-180625031D01*
X121818398Y-180625035D01*
X121954964Y-180761601D01*
X121954968Y-180761604D01*
X122115552Y-180868904D01*
X122115565Y-180868911D01*
X122293994Y-180942818D01*
X122293999Y-180942820D01*
X122445362Y-180972928D01*
X122483424Y-180980499D01*
X122483427Y-180980500D01*
X122483429Y-180980500D01*
X122676573Y-180980500D01*
X122676574Y-180980499D01*
X122866001Y-180942820D01*
X123044441Y-180868908D01*
X123205032Y-180761604D01*
X123341604Y-180625032D01*
X123448908Y-180464441D01*
X123522820Y-180286001D01*
X123560500Y-180096571D01*
X123560500Y-179903429D01*
X123560500Y-179903426D01*
X123560499Y-179903424D01*
X123522821Y-179714006D01*
X123522820Y-179713999D01*
X123501552Y-179662653D01*
X123448911Y-179535565D01*
X123448904Y-179535552D01*
X123341604Y-179374968D01*
X123341601Y-179374964D01*
X123205035Y-179238398D01*
X123205031Y-179238395D01*
X123198687Y-179234156D01*
X123053495Y-179137141D01*
X126019500Y-179137141D01*
X126019500Y-180862850D01*
X126019501Y-180862858D01*
X126026456Y-180897827D01*
X126027071Y-180900919D01*
X126055914Y-180944086D01*
X126099081Y-180972929D01*
X126137145Y-180980500D01*
X127862854Y-180980499D01*
X127900919Y-180972929D01*
X127944086Y-180944086D01*
X127972929Y-180900919D01*
X127980500Y-180862855D01*
X127980499Y-179934174D01*
X127980499Y-179137149D01*
X127980499Y-179137146D01*
X127973540Y-179102155D01*
X131650000Y-179102155D01*
X131650000Y-179750000D01*
X132566988Y-179750000D01*
X132534075Y-179807007D01*
X132500000Y-179934174D01*
X132500000Y-180065826D01*
X132534075Y-180192993D01*
X132566988Y-180250000D01*
X131650000Y-180250000D01*
X131650000Y-180897844D01*
X131656401Y-180957372D01*
X131656403Y-180957379D01*
X131706645Y-181092086D01*
X131706649Y-181092093D01*
X131792809Y-181207187D01*
X131792812Y-181207190D01*
X131907906Y-181293350D01*
X131907913Y-181293354D01*
X132042620Y-181343596D01*
X132042627Y-181343598D01*
X132102155Y-181349999D01*
X132102172Y-181350000D01*
X132750000Y-181350000D01*
X132750000Y-180433012D01*
X132807007Y-180465925D01*
X132934174Y-180500000D01*
X133065826Y-180500000D01*
X133192993Y-180465925D01*
X133250000Y-180433012D01*
X133250000Y-181350000D01*
X133897828Y-181350000D01*
X133897844Y-181349999D01*
X133957372Y-181343598D01*
X133957379Y-181343596D01*
X134092086Y-181293354D01*
X134092093Y-181293350D01*
X134207187Y-181207190D01*
X134207190Y-181207187D01*
X134293350Y-181092093D01*
X134293354Y-181092086D01*
X134343596Y-180957379D01*
X134343598Y-180957372D01*
X134349999Y-180897844D01*
X134350000Y-180897827D01*
X134350000Y-180250000D01*
X133433012Y-180250000D01*
X133465925Y-180192993D01*
X133500000Y-180065826D01*
X133500000Y-179934174D01*
X133465925Y-179807007D01*
X133433012Y-179750000D01*
X134350000Y-179750000D01*
X134350000Y-179102172D01*
X134349999Y-179102155D01*
X134343598Y-179042627D01*
X134343596Y-179042620D01*
X134293354Y-178907913D01*
X134293350Y-178907906D01*
X134207190Y-178792812D01*
X134207187Y-178792809D01*
X134092093Y-178706649D01*
X134092086Y-178706645D01*
X133957379Y-178656403D01*
X133957372Y-178656401D01*
X133897844Y-178650000D01*
X133250000Y-178650000D01*
X133250000Y-179566988D01*
X133192993Y-179534075D01*
X133065826Y-179500000D01*
X132934174Y-179500000D01*
X132807007Y-179534075D01*
X132750000Y-179566988D01*
X132750000Y-178650000D01*
X132102155Y-178650000D01*
X132042627Y-178656401D01*
X132042620Y-178656403D01*
X131907913Y-178706645D01*
X131907906Y-178706649D01*
X131792812Y-178792809D01*
X131792809Y-178792812D01*
X131706649Y-178907906D01*
X131706645Y-178907913D01*
X131656403Y-179042620D01*
X131656401Y-179042627D01*
X131650000Y-179102155D01*
X127973540Y-179102155D01*
X127972929Y-179099081D01*
X127944086Y-179055914D01*
X127900919Y-179027071D01*
X127900918Y-179027070D01*
X127862857Y-179019500D01*
X126137149Y-179019500D01*
X126137141Y-179019501D01*
X126099083Y-179027070D01*
X126099080Y-179027071D01*
X126055914Y-179055914D01*
X126027070Y-179099081D01*
X126019500Y-179137141D01*
X123053495Y-179137141D01*
X123044447Y-179131095D01*
X123044434Y-179131088D01*
X122866005Y-179057181D01*
X122865993Y-179057178D01*
X122676574Y-179019500D01*
X122676571Y-179019500D01*
X122483429Y-179019500D01*
X122483426Y-179019500D01*
X122294006Y-179057178D01*
X122293994Y-179057181D01*
X122115565Y-179131088D01*
X122115552Y-179131095D01*
X121954968Y-179238395D01*
X121954964Y-179238398D01*
X121818398Y-179374964D01*
X121818395Y-179374968D01*
X121711095Y-179535552D01*
X121711088Y-179535565D01*
X121637181Y-179713994D01*
X121637178Y-179714006D01*
X121599500Y-179903424D01*
X121020499Y-179903424D01*
X120982821Y-179714006D01*
X120982820Y-179713999D01*
X120961552Y-179662653D01*
X120908911Y-179535565D01*
X120908904Y-179535552D01*
X120801604Y-179374968D01*
X120801601Y-179374964D01*
X120665035Y-179238398D01*
X120665031Y-179238395D01*
X120504447Y-179131095D01*
X120504434Y-179131088D01*
X120326005Y-179057181D01*
X120325993Y-179057178D01*
X120136574Y-179019500D01*
X120136571Y-179019500D01*
X119943429Y-179019500D01*
X119943426Y-179019500D01*
X119754006Y-179057178D01*
X119753994Y-179057181D01*
X119575565Y-179131088D01*
X119575552Y-179131095D01*
X119414968Y-179238395D01*
X119414964Y-179238398D01*
X119278398Y-179374964D01*
X119278395Y-179374968D01*
X119171095Y-179535552D01*
X119171088Y-179535565D01*
X119097181Y-179713994D01*
X119097178Y-179714006D01*
X119059500Y-179903424D01*
X118480499Y-179903424D01*
X118480499Y-179137146D01*
X118472929Y-179099081D01*
X118444086Y-179055914D01*
X118400919Y-179027071D01*
X118400918Y-179027070D01*
X118362857Y-179019500D01*
X116637149Y-179019500D01*
X116637141Y-179019501D01*
X116599083Y-179027070D01*
X116599080Y-179027071D01*
X116555914Y-179055914D01*
X116527070Y-179099081D01*
X116519500Y-179137141D01*
X112980498Y-179137141D01*
X112972929Y-179099081D01*
X112944086Y-179055914D01*
X112900919Y-179027071D01*
X112900918Y-179027070D01*
X112862857Y-179019500D01*
X111137149Y-179019500D01*
X111137141Y-179019501D01*
X111099083Y-179027070D01*
X111099080Y-179027071D01*
X111055914Y-179055914D01*
X111027070Y-179099081D01*
X111019500Y-179137141D01*
X109933495Y-179137141D01*
X109924447Y-179131095D01*
X109924434Y-179131088D01*
X109746005Y-179057181D01*
X109745993Y-179057178D01*
X109556574Y-179019500D01*
X109556571Y-179019500D01*
X109363429Y-179019500D01*
X109363426Y-179019500D01*
X109174006Y-179057178D01*
X109173994Y-179057181D01*
X108995565Y-179131088D01*
X108995552Y-179131095D01*
X108834968Y-179238395D01*
X108834964Y-179238398D01*
X108698398Y-179374964D01*
X108698395Y-179374968D01*
X108591095Y-179535552D01*
X108591088Y-179535565D01*
X108517181Y-179713994D01*
X108517178Y-179714006D01*
X108479500Y-179903424D01*
X107900499Y-179903424D01*
X107862821Y-179714006D01*
X107862820Y-179713999D01*
X107841552Y-179662653D01*
X107788911Y-179535565D01*
X107788904Y-179535552D01*
X107681604Y-179374968D01*
X107681601Y-179374964D01*
X107545035Y-179238398D01*
X107545031Y-179238395D01*
X107384447Y-179131095D01*
X107384434Y-179131088D01*
X107206005Y-179057181D01*
X107205993Y-179057178D01*
X107016574Y-179019500D01*
X107016571Y-179019500D01*
X106823429Y-179019500D01*
X106823426Y-179019500D01*
X106634006Y-179057178D01*
X106633994Y-179057181D01*
X106455565Y-179131088D01*
X106455552Y-179131095D01*
X106294968Y-179238395D01*
X106294964Y-179238398D01*
X106158398Y-179374964D01*
X106158395Y-179374968D01*
X106051095Y-179535552D01*
X106051088Y-179535565D01*
X105977181Y-179713994D01*
X105977178Y-179714006D01*
X105939500Y-179903424D01*
X103980499Y-179903424D01*
X103980499Y-179137146D01*
X103972929Y-179099081D01*
X103944086Y-179055914D01*
X103900919Y-179027071D01*
X103900918Y-179027070D01*
X103862857Y-179019500D01*
X102137149Y-179019500D01*
X102137141Y-179019501D01*
X102099083Y-179027070D01*
X102099080Y-179027071D01*
X102055914Y-179055914D01*
X102027070Y-179099081D01*
X102019500Y-179137141D01*
X86980498Y-179137141D01*
X86979294Y-179131088D01*
X86972929Y-179099081D01*
X86944086Y-179055914D01*
X86900919Y-179027071D01*
X86900918Y-179027070D01*
X86862857Y-179019500D01*
X85137149Y-179019500D01*
X85137141Y-179019501D01*
X85099083Y-179027070D01*
X85099080Y-179027071D01*
X85055914Y-179055914D01*
X85027070Y-179099081D01*
X85019500Y-179137141D01*
X75000500Y-179137141D01*
X75000500Y-174356741D01*
X76261700Y-174356741D01*
X76261700Y-176082450D01*
X76261701Y-176082458D01*
X76268656Y-176117427D01*
X76269271Y-176120519D01*
X76298114Y-176163686D01*
X76341281Y-176192529D01*
X76379345Y-176200100D01*
X78105054Y-176200099D01*
X78143119Y-176192529D01*
X78186286Y-176163686D01*
X78215129Y-176120519D01*
X78222700Y-176082455D01*
X78222699Y-175153774D01*
X78222699Y-174356749D01*
X78222699Y-174356746D01*
X78215740Y-174321755D01*
X80356000Y-174321755D01*
X80356000Y-174969600D01*
X81272988Y-174969600D01*
X81240075Y-175026607D01*
X81206000Y-175153774D01*
X81206000Y-175285426D01*
X81240075Y-175412593D01*
X81272988Y-175469600D01*
X80356000Y-175469600D01*
X80356000Y-176117444D01*
X80362401Y-176176972D01*
X80362403Y-176176979D01*
X80412645Y-176311686D01*
X80412649Y-176311693D01*
X80498809Y-176426787D01*
X80498812Y-176426790D01*
X80613906Y-176512950D01*
X80613913Y-176512954D01*
X80748620Y-176563196D01*
X80748627Y-176563198D01*
X80808155Y-176569599D01*
X80808172Y-176569600D01*
X81456000Y-176569600D01*
X81456000Y-175652612D01*
X81513007Y-175685525D01*
X81640174Y-175719600D01*
X81771826Y-175719600D01*
X81898993Y-175685525D01*
X81956000Y-175652612D01*
X81956000Y-176569600D01*
X82603828Y-176569600D01*
X82603844Y-176569599D01*
X82663372Y-176563198D01*
X82663379Y-176563196D01*
X82798086Y-176512954D01*
X82798093Y-176512950D01*
X82913187Y-176426790D01*
X82913190Y-176426787D01*
X82999350Y-176311693D01*
X82999354Y-176311686D01*
X83049596Y-176176979D01*
X83049598Y-176176972D01*
X83055999Y-176117444D01*
X83056000Y-176117427D01*
X83056000Y-175469600D01*
X82139012Y-175469600D01*
X82171925Y-175412593D01*
X82206000Y-175285426D01*
X82206000Y-175153774D01*
X82171925Y-175026607D01*
X82139012Y-174969600D01*
X83056000Y-174969600D01*
X83056000Y-174321772D01*
X83055999Y-174321755D01*
X83049598Y-174262227D01*
X83049596Y-174262220D01*
X82999354Y-174127513D01*
X82999350Y-174127506D01*
X82913190Y-174012412D01*
X82913187Y-174012409D01*
X82798093Y-173926249D01*
X82798086Y-173926245D01*
X82663379Y-173876003D01*
X82663372Y-173876001D01*
X82603844Y-173869600D01*
X81956000Y-173869600D01*
X81956000Y-174786588D01*
X81898993Y-174753675D01*
X81771826Y-174719600D01*
X81640174Y-174719600D01*
X81513007Y-174753675D01*
X81456000Y-174786588D01*
X81456000Y-173869600D01*
X80808155Y-173869600D01*
X80748627Y-173876001D01*
X80748620Y-173876003D01*
X80613913Y-173926245D01*
X80613906Y-173926249D01*
X80498812Y-174012409D01*
X80498809Y-174012412D01*
X80412649Y-174127506D01*
X80412645Y-174127513D01*
X80362403Y-174262220D01*
X80362401Y-174262227D01*
X80356000Y-174321755D01*
X78215740Y-174321755D01*
X78215129Y-174318681D01*
X78186286Y-174275514D01*
X78143119Y-174246671D01*
X78143118Y-174246670D01*
X78105057Y-174239100D01*
X76379349Y-174239100D01*
X76379341Y-174239101D01*
X76341283Y-174246670D01*
X76341280Y-174246671D01*
X76298114Y-174275514D01*
X76269270Y-174318681D01*
X76261700Y-174356741D01*
X75000500Y-174356741D01*
X75000500Y-173162924D01*
X79275500Y-173162924D01*
X79275500Y-173276276D01*
X79293778Y-173344488D01*
X79304838Y-173385766D01*
X79304839Y-173385769D01*
X79361511Y-173483929D01*
X79361513Y-173483932D01*
X79361514Y-173483933D01*
X79441667Y-173564086D01*
X79539833Y-173620762D01*
X79649324Y-173650100D01*
X79649326Y-173650100D01*
X79762674Y-173650100D01*
X79762676Y-173650100D01*
X79872167Y-173620762D01*
X79970333Y-173564086D01*
X80050486Y-173483933D01*
X80107162Y-173385767D01*
X80136500Y-173276276D01*
X80136500Y-173162924D01*
X80107162Y-173053433D01*
X80050486Y-172955267D01*
X80038543Y-172943324D01*
X126069500Y-172943324D01*
X126069500Y-173056675D01*
X126098838Y-173166166D01*
X126098839Y-173166169D01*
X126155511Y-173264329D01*
X126155513Y-173264332D01*
X126155514Y-173264333D01*
X126235667Y-173344486D01*
X126333833Y-173401162D01*
X126443324Y-173430500D01*
X126443326Y-173430500D01*
X126556674Y-173430500D01*
X126556676Y-173430500D01*
X126666167Y-173401162D01*
X126764333Y-173344486D01*
X126844486Y-173264333D01*
X126901162Y-173166167D01*
X126930500Y-173056676D01*
X126930500Y-172943324D01*
X126901162Y-172833833D01*
X126844486Y-172735667D01*
X126764333Y-172655514D01*
X126764332Y-172655513D01*
X126764329Y-172655511D01*
X126666169Y-172598839D01*
X126666168Y-172598838D01*
X126666167Y-172598838D01*
X126556676Y-172569500D01*
X126443324Y-172569500D01*
X126333833Y-172598838D01*
X126333830Y-172598839D01*
X126235670Y-172655511D01*
X126235665Y-172655515D01*
X126155515Y-172735665D01*
X126155511Y-172735670D01*
X126098839Y-172833830D01*
X126098838Y-172833833D01*
X126069500Y-172943324D01*
X80038543Y-172943324D01*
X79970333Y-172875114D01*
X79970332Y-172875113D01*
X79970329Y-172875111D01*
X79872169Y-172818439D01*
X79872168Y-172818438D01*
X79872167Y-172818438D01*
X79762676Y-172789100D01*
X79649324Y-172789100D01*
X79539833Y-172818438D01*
X79539830Y-172818439D01*
X79441670Y-172875111D01*
X79441665Y-172875115D01*
X79361515Y-172955265D01*
X79361511Y-172955270D01*
X79304839Y-173053430D01*
X79304838Y-173053433D01*
X79275500Y-173162924D01*
X75000500Y-173162924D01*
X75000500Y-170162924D01*
X79275500Y-170162924D01*
X79275500Y-170276275D01*
X79304838Y-170385766D01*
X79304839Y-170385769D01*
X79361511Y-170483929D01*
X79361513Y-170483932D01*
X79361514Y-170483933D01*
X79441667Y-170564086D01*
X79539833Y-170620762D01*
X79649324Y-170650100D01*
X79649326Y-170650100D01*
X79762674Y-170650100D01*
X79762676Y-170650100D01*
X79872167Y-170620762D01*
X79970333Y-170564086D01*
X80050486Y-170483933D01*
X80107162Y-170385767D01*
X80136500Y-170276276D01*
X80136500Y-170162924D01*
X80107162Y-170053433D01*
X80050486Y-169955267D01*
X79970333Y-169875114D01*
X79970332Y-169875113D01*
X79970329Y-169875111D01*
X79872169Y-169818439D01*
X79872168Y-169818438D01*
X79872167Y-169818438D01*
X79762676Y-169789100D01*
X79649324Y-169789100D01*
X79539833Y-169818438D01*
X79539830Y-169818439D01*
X79441670Y-169875111D01*
X79441665Y-169875115D01*
X79361515Y-169955265D01*
X79361511Y-169955270D01*
X79304839Y-170053430D01*
X79304838Y-170053433D01*
X79275500Y-170162924D01*
X75000500Y-170162924D01*
X75000500Y-168943324D01*
X85569500Y-168943324D01*
X85569500Y-169056676D01*
X85586444Y-169119910D01*
X85598838Y-169166166D01*
X85598839Y-169166169D01*
X85655511Y-169264329D01*
X85655513Y-169264332D01*
X85655514Y-169264333D01*
X85735667Y-169344486D01*
X85833833Y-169401162D01*
X85943324Y-169430500D01*
X85943326Y-169430500D01*
X86056674Y-169430500D01*
X86056676Y-169430500D01*
X86166167Y-169401162D01*
X86264333Y-169344486D01*
X86344486Y-169264333D01*
X86401162Y-169166167D01*
X86430500Y-169056676D01*
X86430500Y-168943324D01*
X86401162Y-168833833D01*
X86344486Y-168735667D01*
X86270893Y-168662074D01*
X92850750Y-168662074D01*
X92850750Y-168775426D01*
X92876135Y-168870162D01*
X92880088Y-168884916D01*
X92880089Y-168884919D01*
X92936761Y-168983079D01*
X92936763Y-168983082D01*
X92936764Y-168983083D01*
X93016917Y-169063236D01*
X93016918Y-169063237D01*
X93016920Y-169063238D01*
X93066000Y-169091574D01*
X93115083Y-169119912D01*
X93224574Y-169149250D01*
X93224576Y-169149250D01*
X93337924Y-169149250D01*
X93337926Y-169149250D01*
X93447417Y-169119912D01*
X93545583Y-169063236D01*
X93625736Y-168983083D01*
X93682412Y-168884917D01*
X93711750Y-168775426D01*
X93711750Y-168662074D01*
X93682412Y-168552583D01*
X93625736Y-168454417D01*
X93583643Y-168412324D01*
X95800500Y-168412324D01*
X95800500Y-168525675D01*
X95829838Y-168635166D01*
X95829839Y-168635169D01*
X95886511Y-168733329D01*
X95886513Y-168733332D01*
X95886514Y-168733333D01*
X95966667Y-168813486D01*
X96064833Y-168870162D01*
X96174324Y-168899500D01*
X96174326Y-168899500D01*
X96287674Y-168899500D01*
X96287676Y-168899500D01*
X96397167Y-168870162D01*
X96495333Y-168813486D01*
X96575486Y-168733333D01*
X96632162Y-168635167D01*
X96661500Y-168525676D01*
X96661500Y-168412324D01*
X96632162Y-168302833D01*
X96600594Y-168248155D01*
X152636000Y-168248155D01*
X152636000Y-168896000D01*
X153552988Y-168896000D01*
X153520075Y-168953007D01*
X153486000Y-169080174D01*
X153486000Y-169211826D01*
X153520075Y-169338993D01*
X153552988Y-169396000D01*
X152636000Y-169396000D01*
X152636000Y-170043844D01*
X152642401Y-170103372D01*
X152642403Y-170103379D01*
X152692645Y-170238086D01*
X152692649Y-170238093D01*
X152778809Y-170353187D01*
X152778812Y-170353190D01*
X152893906Y-170439350D01*
X152893913Y-170439354D01*
X153028620Y-170489596D01*
X153028627Y-170489598D01*
X153088155Y-170495999D01*
X153088172Y-170496000D01*
X153736000Y-170496000D01*
X153736000Y-169579012D01*
X153793007Y-169611925D01*
X153920174Y-169646000D01*
X154051826Y-169646000D01*
X154178993Y-169611925D01*
X154236000Y-169579012D01*
X154236000Y-170496000D01*
X154883828Y-170496000D01*
X154883844Y-170495999D01*
X154943372Y-170489598D01*
X154943379Y-170489596D01*
X155078086Y-170439354D01*
X155078093Y-170439350D01*
X155193187Y-170353190D01*
X155193190Y-170353187D01*
X155279350Y-170238093D01*
X155279354Y-170238086D01*
X155329596Y-170103379D01*
X155329598Y-170103372D01*
X155335999Y-170043844D01*
X155336000Y-170043827D01*
X155336000Y-169396000D01*
X154419012Y-169396000D01*
X154451925Y-169338993D01*
X154486000Y-169211826D01*
X154486000Y-169080174D01*
X154451925Y-168953007D01*
X154419012Y-168896000D01*
X155336000Y-168896000D01*
X155336000Y-168248172D01*
X155335999Y-168248155D01*
X155329598Y-168188627D01*
X155329596Y-168188620D01*
X155279354Y-168053913D01*
X155279350Y-168053906D01*
X155193190Y-167938812D01*
X155193187Y-167938809D01*
X155078093Y-167852649D01*
X155078086Y-167852645D01*
X154943379Y-167802403D01*
X154943372Y-167802401D01*
X154883844Y-167796000D01*
X154236000Y-167796000D01*
X154236000Y-168712988D01*
X154178993Y-168680075D01*
X154051826Y-168646000D01*
X153920174Y-168646000D01*
X153793007Y-168680075D01*
X153736000Y-168712988D01*
X153736000Y-167796000D01*
X153088155Y-167796000D01*
X153028627Y-167802401D01*
X153028620Y-167802403D01*
X152893913Y-167852645D01*
X152893906Y-167852649D01*
X152778812Y-167938809D01*
X152778809Y-167938812D01*
X152692649Y-168053906D01*
X152692645Y-168053913D01*
X152642403Y-168188620D01*
X152642401Y-168188627D01*
X152636000Y-168248155D01*
X96600594Y-168248155D01*
X96575486Y-168204667D01*
X96495333Y-168124514D01*
X96495332Y-168124513D01*
X96495329Y-168124511D01*
X96397169Y-168067839D01*
X96397168Y-168067838D01*
X96397167Y-168067838D01*
X96287676Y-168038500D01*
X96174324Y-168038500D01*
X96064833Y-168067838D01*
X96064830Y-168067839D01*
X95966670Y-168124511D01*
X95966665Y-168124515D01*
X95886515Y-168204665D01*
X95886511Y-168204670D01*
X95829839Y-168302830D01*
X95829838Y-168302833D01*
X95800500Y-168412324D01*
X93583643Y-168412324D01*
X93545583Y-168374264D01*
X93545582Y-168374263D01*
X93545579Y-168374261D01*
X93447419Y-168317589D01*
X93447418Y-168317588D01*
X93447417Y-168317588D01*
X93337926Y-168288250D01*
X93224574Y-168288250D01*
X93115083Y-168317588D01*
X93115080Y-168317589D01*
X93016920Y-168374261D01*
X93016915Y-168374265D01*
X92936765Y-168454415D01*
X92936761Y-168454420D01*
X92880089Y-168552580D01*
X92880088Y-168552583D01*
X92850750Y-168662074D01*
X86270893Y-168662074D01*
X86264333Y-168655514D01*
X86264332Y-168655513D01*
X86264329Y-168655511D01*
X86166169Y-168598839D01*
X86166168Y-168598838D01*
X86166167Y-168598838D01*
X86056676Y-168569500D01*
X85943324Y-168569500D01*
X85833833Y-168598838D01*
X85833830Y-168598839D01*
X85735670Y-168655511D01*
X85735665Y-168655515D01*
X85655515Y-168735665D01*
X85655511Y-168735670D01*
X85598839Y-168833830D01*
X85598838Y-168833833D01*
X85569500Y-168943324D01*
X75000500Y-168943324D01*
X75000500Y-167777629D01*
X90239500Y-167777629D01*
X90239500Y-167890981D01*
X90253904Y-167944735D01*
X90268838Y-168000471D01*
X90268839Y-168000474D01*
X90325511Y-168098634D01*
X90325513Y-168098637D01*
X90325514Y-168098638D01*
X90405667Y-168178791D01*
X90405668Y-168178792D01*
X90405670Y-168178793D01*
X90450482Y-168204665D01*
X90503833Y-168235467D01*
X90613324Y-168264805D01*
X90613326Y-168264805D01*
X90726674Y-168264805D01*
X90726676Y-168264805D01*
X90836167Y-168235467D01*
X90934333Y-168178791D01*
X91014486Y-168098638D01*
X91071162Y-168000472D01*
X91100500Y-167890981D01*
X91100500Y-167777629D01*
X91085565Y-167721890D01*
X121371755Y-167721890D01*
X121371755Y-167835242D01*
X121399507Y-167938812D01*
X121401093Y-167944732D01*
X121401094Y-167944735D01*
X121457766Y-168042895D01*
X121457768Y-168042898D01*
X121457769Y-168042899D01*
X121537922Y-168123052D01*
X121537923Y-168123053D01*
X121537925Y-168123054D01*
X121562884Y-168137464D01*
X121636088Y-168179728D01*
X121745579Y-168209066D01*
X121745581Y-168209066D01*
X121858929Y-168209066D01*
X121858931Y-168209066D01*
X121968422Y-168179728D01*
X122066588Y-168123052D01*
X122146741Y-168042899D01*
X122203417Y-167944733D01*
X122232755Y-167835242D01*
X122232755Y-167721890D01*
X122203417Y-167612399D01*
X122166204Y-167547944D01*
X122146743Y-167514236D01*
X122146739Y-167514231D01*
X122066589Y-167434081D01*
X122066584Y-167434077D01*
X121968424Y-167377405D01*
X121968423Y-167377404D01*
X121968422Y-167377404D01*
X121858931Y-167348066D01*
X121745579Y-167348066D01*
X121636088Y-167377404D01*
X121636085Y-167377405D01*
X121537925Y-167434077D01*
X121537920Y-167434081D01*
X121457770Y-167514231D01*
X121457766Y-167514236D01*
X121401094Y-167612396D01*
X121401093Y-167612399D01*
X121371755Y-167721890D01*
X91085565Y-167721890D01*
X91071162Y-167668138D01*
X91014486Y-167569972D01*
X90934333Y-167489819D01*
X90934332Y-167489818D01*
X90934329Y-167489816D01*
X90836169Y-167433144D01*
X90836168Y-167433143D01*
X90836167Y-167433143D01*
X90726676Y-167403805D01*
X90613324Y-167403805D01*
X90503833Y-167433143D01*
X90503830Y-167433144D01*
X90405670Y-167489816D01*
X90405665Y-167489820D01*
X90325515Y-167569970D01*
X90325511Y-167569975D01*
X90268839Y-167668135D01*
X90268838Y-167668138D01*
X90239500Y-167777629D01*
X75000500Y-167777629D01*
X75000500Y-167060769D01*
X124452055Y-167060769D01*
X124452055Y-167174121D01*
X124474129Y-167256500D01*
X124481393Y-167283611D01*
X124481394Y-167283614D01*
X124538066Y-167381774D01*
X124538068Y-167381777D01*
X124538069Y-167381778D01*
X124618222Y-167461931D01*
X124716388Y-167518607D01*
X124825879Y-167547945D01*
X124825881Y-167547945D01*
X124939229Y-167547945D01*
X124939231Y-167547945D01*
X125048722Y-167518607D01*
X125146888Y-167461931D01*
X125227041Y-167381778D01*
X125283717Y-167283612D01*
X125313055Y-167174121D01*
X125313055Y-167060769D01*
X125283717Y-166951278D01*
X125227041Y-166853112D01*
X125146888Y-166772959D01*
X125146887Y-166772958D01*
X125146884Y-166772956D01*
X125140593Y-166769324D01*
X150055500Y-166769324D01*
X150055500Y-166882675D01*
X150084838Y-166992166D01*
X150084839Y-166992169D01*
X150141511Y-167090329D01*
X150141513Y-167090332D01*
X150141514Y-167090333D01*
X150221667Y-167170486D01*
X150221668Y-167170487D01*
X150221670Y-167170488D01*
X150227961Y-167174120D01*
X150319833Y-167227162D01*
X150429324Y-167256500D01*
X150429326Y-167256500D01*
X150542674Y-167256500D01*
X150542676Y-167256500D01*
X150652167Y-167227162D01*
X150750333Y-167170486D01*
X150830486Y-167090333D01*
X150887162Y-166992167D01*
X150916500Y-166882676D01*
X150916500Y-166769324D01*
X150887162Y-166659833D01*
X150830486Y-166561667D01*
X150750333Y-166481514D01*
X150750332Y-166481513D01*
X150750329Y-166481511D01*
X150652169Y-166424839D01*
X150652168Y-166424838D01*
X150652167Y-166424838D01*
X150542676Y-166395500D01*
X150429324Y-166395500D01*
X150319833Y-166424838D01*
X150319830Y-166424839D01*
X150221670Y-166481511D01*
X150221665Y-166481515D01*
X150141515Y-166561665D01*
X150141511Y-166561670D01*
X150084839Y-166659830D01*
X150084838Y-166659833D01*
X150055500Y-166769324D01*
X125140593Y-166769324D01*
X125048724Y-166716284D01*
X125048723Y-166716283D01*
X125048722Y-166716283D01*
X124939231Y-166686945D01*
X124825879Y-166686945D01*
X124716388Y-166716283D01*
X124716385Y-166716284D01*
X124618225Y-166772956D01*
X124618220Y-166772960D01*
X124538070Y-166853110D01*
X124538066Y-166853115D01*
X124481394Y-166951275D01*
X124481393Y-166951278D01*
X124452055Y-167060769D01*
X75000500Y-167060769D01*
X75000500Y-165864123D01*
X84656538Y-165864123D01*
X84656538Y-165977475D01*
X84677760Y-166056674D01*
X84685876Y-166086965D01*
X84685877Y-166086968D01*
X84742549Y-166185128D01*
X84742551Y-166185131D01*
X84742552Y-166185132D01*
X84822705Y-166265285D01*
X84822706Y-166265286D01*
X84822708Y-166265287D01*
X84871788Y-166293623D01*
X84920871Y-166321961D01*
X85030362Y-166351299D01*
X85030364Y-166351299D01*
X85143712Y-166351299D01*
X85143714Y-166351299D01*
X85253205Y-166321961D01*
X85351371Y-166265285D01*
X85431524Y-166185132D01*
X85488200Y-166086966D01*
X85517538Y-165977475D01*
X85517538Y-165908642D01*
X89619560Y-165908642D01*
X89619560Y-166021994D01*
X89648898Y-166131483D01*
X89648898Y-166131484D01*
X89648899Y-166131487D01*
X89705571Y-166229647D01*
X89705573Y-166229650D01*
X89705574Y-166229651D01*
X89785727Y-166309804D01*
X89785728Y-166309805D01*
X89785730Y-166309806D01*
X89834810Y-166338142D01*
X89883893Y-166366480D01*
X89993384Y-166395818D01*
X89993386Y-166395818D01*
X90106734Y-166395818D01*
X90106736Y-166395818D01*
X90216227Y-166366480D01*
X90314393Y-166309804D01*
X90394546Y-166229651D01*
X90433561Y-166162074D01*
X93350750Y-166162074D01*
X93350750Y-166275426D01*
X93375148Y-166366478D01*
X93380088Y-166384916D01*
X93380089Y-166384919D01*
X93436761Y-166483079D01*
X93436763Y-166483082D01*
X93436764Y-166483083D01*
X93516917Y-166563236D01*
X93615083Y-166619912D01*
X93724574Y-166649250D01*
X93724576Y-166649250D01*
X93837924Y-166649250D01*
X93837926Y-166649250D01*
X93947417Y-166619912D01*
X94045583Y-166563236D01*
X94125736Y-166483083D01*
X94182412Y-166384917D01*
X94211750Y-166275426D01*
X94211750Y-166162074D01*
X94182412Y-166052583D01*
X94139048Y-165977474D01*
X94125738Y-165954420D01*
X94125734Y-165954415D01*
X94113402Y-165942083D01*
X112239503Y-165942083D01*
X112239503Y-166055435D01*
X112268078Y-166162076D01*
X112268841Y-166164925D01*
X112268842Y-166164928D01*
X112325514Y-166263088D01*
X112325516Y-166263091D01*
X112325517Y-166263092D01*
X112405670Y-166343245D01*
X112503836Y-166399921D01*
X112613327Y-166429259D01*
X112613329Y-166429259D01*
X112726677Y-166429259D01*
X112726679Y-166429259D01*
X112836170Y-166399921D01*
X112934336Y-166343245D01*
X113014489Y-166263092D01*
X113071165Y-166164926D01*
X113100503Y-166055435D01*
X113100503Y-165943324D01*
X116069500Y-165943324D01*
X116069500Y-166056676D01*
X116098506Y-166164926D01*
X116098838Y-166166166D01*
X116098839Y-166166169D01*
X116155511Y-166264329D01*
X116155513Y-166264332D01*
X116155514Y-166264333D01*
X116235667Y-166344486D01*
X116235668Y-166344487D01*
X116235670Y-166344488D01*
X116247467Y-166351299D01*
X116333833Y-166401162D01*
X116443324Y-166430500D01*
X116443326Y-166430500D01*
X116556674Y-166430500D01*
X116556676Y-166430500D01*
X116666167Y-166401162D01*
X116764333Y-166344486D01*
X116844486Y-166264333D01*
X116901162Y-166166167D01*
X116930500Y-166056676D01*
X116930500Y-165943324D01*
X125069500Y-165943324D01*
X125069500Y-166056676D01*
X125098506Y-166164926D01*
X125098838Y-166166166D01*
X125098839Y-166166169D01*
X125155511Y-166264329D01*
X125155513Y-166264332D01*
X125155514Y-166264333D01*
X125235667Y-166344486D01*
X125235668Y-166344487D01*
X125235670Y-166344488D01*
X125247467Y-166351299D01*
X125333833Y-166401162D01*
X125443324Y-166430500D01*
X125443326Y-166430500D01*
X125556674Y-166430500D01*
X125556676Y-166430500D01*
X125666167Y-166401162D01*
X125764333Y-166344486D01*
X125844486Y-166264333D01*
X125901162Y-166166167D01*
X125930500Y-166056676D01*
X125930500Y-165943324D01*
X125901162Y-165833833D01*
X125872824Y-165784750D01*
X125844488Y-165735670D01*
X125844484Y-165735665D01*
X125764334Y-165655515D01*
X125764329Y-165655511D01*
X125666169Y-165598839D01*
X125666168Y-165598838D01*
X125666167Y-165598838D01*
X125556676Y-165569500D01*
X125443324Y-165569500D01*
X125333833Y-165598838D01*
X125333830Y-165598839D01*
X125235670Y-165655511D01*
X125235665Y-165655515D01*
X125155515Y-165735665D01*
X125155511Y-165735670D01*
X125098839Y-165833830D01*
X125098838Y-165833833D01*
X125069500Y-165943324D01*
X116930500Y-165943324D01*
X116901162Y-165833833D01*
X116872824Y-165784750D01*
X116844488Y-165735670D01*
X116844484Y-165735665D01*
X116764334Y-165655515D01*
X116764329Y-165655511D01*
X116666169Y-165598839D01*
X116666168Y-165598838D01*
X116666167Y-165598838D01*
X116556676Y-165569500D01*
X116443324Y-165569500D01*
X116333833Y-165598838D01*
X116333830Y-165598839D01*
X116235670Y-165655511D01*
X116235665Y-165655515D01*
X116155515Y-165735665D01*
X116155511Y-165735670D01*
X116098839Y-165833830D01*
X116098838Y-165833833D01*
X116069500Y-165943324D01*
X113100503Y-165943324D01*
X113100503Y-165942083D01*
X113071165Y-165832592D01*
X113015207Y-165735670D01*
X113014491Y-165734429D01*
X113014487Y-165734424D01*
X112934337Y-165654274D01*
X112934332Y-165654270D01*
X112836172Y-165597598D01*
X112836171Y-165597597D01*
X112836170Y-165597597D01*
X112726679Y-165568259D01*
X112613327Y-165568259D01*
X112503836Y-165597597D01*
X112503833Y-165597598D01*
X112405673Y-165654270D01*
X112405668Y-165654274D01*
X112325518Y-165734424D01*
X112325514Y-165734429D01*
X112268842Y-165832589D01*
X112268841Y-165832592D01*
X112239503Y-165942083D01*
X94113402Y-165942083D01*
X94045584Y-165874265D01*
X94045579Y-165874261D01*
X93947419Y-165817589D01*
X93947418Y-165817588D01*
X93947417Y-165817588D01*
X93837926Y-165788250D01*
X93724574Y-165788250D01*
X93615083Y-165817588D01*
X93615080Y-165817589D01*
X93516920Y-165874261D01*
X93516915Y-165874265D01*
X93436765Y-165954415D01*
X93436761Y-165954420D01*
X93380089Y-166052580D01*
X93380088Y-166052583D01*
X93350750Y-166162074D01*
X90433561Y-166162074D01*
X90451222Y-166131485D01*
X90480560Y-166021994D01*
X90480560Y-165908642D01*
X90451222Y-165799151D01*
X90414570Y-165735667D01*
X90394548Y-165700988D01*
X90394544Y-165700983D01*
X90314394Y-165620833D01*
X90314389Y-165620829D01*
X90216229Y-165564157D01*
X90216228Y-165564156D01*
X90216227Y-165564156D01*
X90106736Y-165534818D01*
X89993384Y-165534818D01*
X89883893Y-165564156D01*
X89883890Y-165564157D01*
X89785730Y-165620829D01*
X89785725Y-165620833D01*
X89705575Y-165700983D01*
X89705571Y-165700988D01*
X89648899Y-165799148D01*
X89648898Y-165799151D01*
X89619560Y-165908642D01*
X85517538Y-165908642D01*
X85517538Y-165864123D01*
X85488200Y-165754632D01*
X85431524Y-165656466D01*
X85351371Y-165576313D01*
X85351370Y-165576312D01*
X85351367Y-165576310D01*
X85253207Y-165519638D01*
X85253206Y-165519637D01*
X85253205Y-165519637D01*
X85143714Y-165490299D01*
X85030362Y-165490299D01*
X84920871Y-165519637D01*
X84920868Y-165519638D01*
X84822708Y-165576310D01*
X84822703Y-165576314D01*
X84742553Y-165656464D01*
X84742549Y-165656469D01*
X84685877Y-165754629D01*
X84685876Y-165754632D01*
X84656538Y-165864123D01*
X75000500Y-165864123D01*
X75000500Y-164943324D01*
X75569500Y-164943324D01*
X75569500Y-165056676D01*
X75576172Y-165081574D01*
X75598838Y-165166166D01*
X75598839Y-165166169D01*
X75655511Y-165264329D01*
X75655513Y-165264332D01*
X75655514Y-165264333D01*
X75735667Y-165344486D01*
X75833833Y-165401162D01*
X75943324Y-165430500D01*
X75943326Y-165430500D01*
X76056674Y-165430500D01*
X76056676Y-165430500D01*
X76166167Y-165401162D01*
X76264333Y-165344486D01*
X76344486Y-165264333D01*
X76401162Y-165166167D01*
X76430500Y-165056676D01*
X76430500Y-164943324D01*
X76401162Y-164833833D01*
X76344486Y-164735667D01*
X76264333Y-164655514D01*
X76264332Y-164655513D01*
X76264329Y-164655511D01*
X76166169Y-164598839D01*
X76166168Y-164598838D01*
X76166167Y-164598838D01*
X76056676Y-164569500D01*
X75943324Y-164569500D01*
X75833833Y-164598838D01*
X75833830Y-164598839D01*
X75735670Y-164655511D01*
X75735665Y-164655515D01*
X75655515Y-164735665D01*
X75655511Y-164735670D01*
X75598839Y-164833830D01*
X75598838Y-164833833D01*
X75569500Y-164943324D01*
X75000500Y-164943324D01*
X75000500Y-164162924D01*
X79275500Y-164162924D01*
X79275500Y-164276276D01*
X79288690Y-164325499D01*
X79304838Y-164385766D01*
X79304839Y-164385769D01*
X79361511Y-164483929D01*
X79361513Y-164483932D01*
X79361514Y-164483933D01*
X79441667Y-164564086D01*
X79539833Y-164620762D01*
X79649324Y-164650100D01*
X79649326Y-164650100D01*
X79762674Y-164650100D01*
X79762676Y-164650100D01*
X79872167Y-164620762D01*
X79917829Y-164594399D01*
X89584389Y-164594399D01*
X89584389Y-164707750D01*
X89613727Y-164817241D01*
X89613728Y-164817244D01*
X89670400Y-164915404D01*
X89670402Y-164915407D01*
X89670403Y-164915408D01*
X89750556Y-164995561D01*
X89848722Y-165052237D01*
X89958213Y-165081575D01*
X89958215Y-165081575D01*
X90071563Y-165081575D01*
X90071565Y-165081575D01*
X90181056Y-165052237D01*
X90279222Y-164995561D01*
X90331459Y-164943324D01*
X110069500Y-164943324D01*
X110069500Y-165056676D01*
X110076172Y-165081574D01*
X110098838Y-165166166D01*
X110098839Y-165166169D01*
X110155511Y-165264329D01*
X110155513Y-165264332D01*
X110155514Y-165264333D01*
X110235667Y-165344486D01*
X110333833Y-165401162D01*
X110443324Y-165430500D01*
X110443326Y-165430500D01*
X110556674Y-165430500D01*
X110556676Y-165430500D01*
X110666167Y-165401162D01*
X110764333Y-165344486D01*
X110844486Y-165264333D01*
X110901162Y-165166167D01*
X110930500Y-165056676D01*
X110930500Y-164943324D01*
X110901162Y-164833833D01*
X110844486Y-164735667D01*
X110764333Y-164655514D01*
X110764332Y-164655513D01*
X110764329Y-164655511D01*
X110666169Y-164598839D01*
X110666168Y-164598838D01*
X110666167Y-164598838D01*
X110556676Y-164569500D01*
X110443324Y-164569500D01*
X110333833Y-164598838D01*
X110333830Y-164598839D01*
X110235670Y-164655511D01*
X110235665Y-164655515D01*
X110155515Y-164735665D01*
X110155511Y-164735670D01*
X110098839Y-164833830D01*
X110098838Y-164833833D01*
X110069500Y-164943324D01*
X90331459Y-164943324D01*
X90359375Y-164915408D01*
X90368259Y-164900018D01*
X90383746Y-164873197D01*
X90406472Y-164833833D01*
X90416051Y-164817242D01*
X90445389Y-164707751D01*
X90445389Y-164594399D01*
X90416051Y-164484908D01*
X90414602Y-164482399D01*
X90414024Y-164480017D01*
X90412940Y-164477398D01*
X90413348Y-164477228D01*
X90398130Y-164414500D01*
X90420982Y-164348473D01*
X90475904Y-164305283D01*
X90545457Y-164298641D01*
X90554063Y-164300620D01*
X90646916Y-164325500D01*
X90646919Y-164325500D01*
X90760266Y-164325500D01*
X90760268Y-164325500D01*
X90869759Y-164296162D01*
X90967925Y-164239486D01*
X91048078Y-164159333D01*
X91104754Y-164061167D01*
X91134092Y-163951676D01*
X91134092Y-163838324D01*
X91104754Y-163728833D01*
X91048078Y-163630667D01*
X90967925Y-163550514D01*
X90967924Y-163550513D01*
X90967921Y-163550511D01*
X90869761Y-163493839D01*
X90869760Y-163493838D01*
X90869759Y-163493838D01*
X90760268Y-163464500D01*
X90646916Y-163464500D01*
X90537425Y-163493838D01*
X90537422Y-163493839D01*
X90439262Y-163550511D01*
X90439257Y-163550515D01*
X90359107Y-163630665D01*
X90359103Y-163630670D01*
X90302431Y-163728830D01*
X90302430Y-163728833D01*
X90273092Y-163838324D01*
X90273092Y-163951675D01*
X90302430Y-164061166D01*
X90302431Y-164061169D01*
X90303879Y-164063677D01*
X90304456Y-164066059D01*
X90305541Y-164068677D01*
X90305132Y-164068846D01*
X90320349Y-164131578D01*
X90297495Y-164197604D01*
X90242573Y-164240793D01*
X90173019Y-164247432D01*
X90164397Y-164245449D01*
X90120707Y-164233742D01*
X90071565Y-164220575D01*
X89958213Y-164220575D01*
X89848722Y-164249913D01*
X89848719Y-164249914D01*
X89750559Y-164306586D01*
X89750554Y-164306590D01*
X89670404Y-164386740D01*
X89670400Y-164386745D01*
X89613728Y-164484905D01*
X89613727Y-164484908D01*
X89584389Y-164594399D01*
X79917829Y-164594399D01*
X79970333Y-164564086D01*
X80050486Y-164483933D01*
X80107162Y-164385767D01*
X80136500Y-164276276D01*
X80136500Y-164162924D01*
X80107162Y-164053433D01*
X80050486Y-163955267D01*
X79970333Y-163875114D01*
X79970332Y-163875113D01*
X79970329Y-163875111D01*
X79872169Y-163818439D01*
X79872168Y-163818438D01*
X79872167Y-163818438D01*
X79762676Y-163789100D01*
X79649324Y-163789100D01*
X79539833Y-163818438D01*
X79539830Y-163818439D01*
X79441670Y-163875111D01*
X79441665Y-163875115D01*
X79361515Y-163955265D01*
X79361511Y-163955270D01*
X79304839Y-164053430D01*
X79304838Y-164053433D01*
X79275500Y-164162924D01*
X75000500Y-164162924D01*
X75000500Y-163463141D01*
X153005500Y-163463141D01*
X153005500Y-165188850D01*
X153005501Y-165188858D01*
X153013070Y-165226916D01*
X153013071Y-165226919D01*
X153041914Y-165270086D01*
X153085081Y-165298929D01*
X153123145Y-165306500D01*
X154848854Y-165306499D01*
X154886919Y-165298929D01*
X154930086Y-165270086D01*
X154958929Y-165226919D01*
X154966500Y-165188855D01*
X154966499Y-163463146D01*
X154958929Y-163425081D01*
X154930086Y-163381914D01*
X154886919Y-163353071D01*
X154886918Y-163353070D01*
X154848857Y-163345500D01*
X153123149Y-163345500D01*
X153123141Y-163345501D01*
X153085083Y-163353070D01*
X153085080Y-163353071D01*
X153041914Y-163381914D01*
X153013070Y-163425081D01*
X153005500Y-163463141D01*
X75000500Y-163463141D01*
X75000500Y-162943324D01*
X119569500Y-162943324D01*
X119569500Y-163056676D01*
X119594369Y-163149486D01*
X119598838Y-163166166D01*
X119598839Y-163166169D01*
X119655511Y-163264329D01*
X119655513Y-163264332D01*
X119655514Y-163264333D01*
X119735667Y-163344486D01*
X119735668Y-163344487D01*
X119735670Y-163344488D01*
X119784750Y-163372824D01*
X119833833Y-163401162D01*
X119943324Y-163430500D01*
X119943326Y-163430500D01*
X120056674Y-163430500D01*
X120056676Y-163430500D01*
X120166167Y-163401162D01*
X120224317Y-163367588D01*
X120255360Y-163349667D01*
X120262575Y-163345501D01*
X120264333Y-163344486D01*
X120344486Y-163264333D01*
X120401162Y-163166167D01*
X120430500Y-163056676D01*
X120430500Y-162943324D01*
X120401162Y-162833833D01*
X120351794Y-162748324D01*
X130405981Y-162748324D01*
X130405981Y-162861676D01*
X130427859Y-162943324D01*
X130435319Y-162971166D01*
X130435320Y-162971169D01*
X130491992Y-163069329D01*
X130491994Y-163069332D01*
X130491995Y-163069333D01*
X130572148Y-163149486D01*
X130670314Y-163206162D01*
X130779805Y-163235500D01*
X130779807Y-163235500D01*
X130893155Y-163235500D01*
X130893157Y-163235500D01*
X131002648Y-163206162D01*
X131100814Y-163149486D01*
X131180967Y-163069333D01*
X131237643Y-162971167D01*
X131266981Y-162861676D01*
X131266981Y-162748324D01*
X131237643Y-162638833D01*
X131180967Y-162540667D01*
X131100814Y-162460514D01*
X131100813Y-162460513D01*
X131100810Y-162460511D01*
X131005229Y-162405328D01*
X131742594Y-162405328D01*
X131742594Y-162518680D01*
X131764073Y-162598838D01*
X131771932Y-162628170D01*
X131771933Y-162628173D01*
X131828605Y-162726333D01*
X131828607Y-162726336D01*
X131828608Y-162726337D01*
X131908761Y-162806490D01*
X132006927Y-162863166D01*
X132116418Y-162892504D01*
X132116420Y-162892504D01*
X132229768Y-162892504D01*
X132229770Y-162892504D01*
X132339261Y-162863166D01*
X132437427Y-162806490D01*
X132517580Y-162726337D01*
X132574256Y-162628171D01*
X132603594Y-162518680D01*
X132603594Y-162405328D01*
X132574256Y-162295837D01*
X132517580Y-162197671D01*
X132437427Y-162117518D01*
X132437426Y-162117517D01*
X132437423Y-162117515D01*
X132339263Y-162060843D01*
X132339262Y-162060842D01*
X132339261Y-162060842D01*
X132229770Y-162031504D01*
X132116418Y-162031504D01*
X132006927Y-162060842D01*
X132006924Y-162060843D01*
X131908764Y-162117515D01*
X131908759Y-162117519D01*
X131828609Y-162197669D01*
X131828605Y-162197674D01*
X131771933Y-162295834D01*
X131771932Y-162295837D01*
X131742594Y-162405328D01*
X131005229Y-162405328D01*
X131002650Y-162403839D01*
X131002649Y-162403838D01*
X131002648Y-162403838D01*
X130893157Y-162374500D01*
X130779805Y-162374500D01*
X130670314Y-162403838D01*
X130670311Y-162403839D01*
X130572151Y-162460511D01*
X130572146Y-162460515D01*
X130491996Y-162540665D01*
X130491992Y-162540670D01*
X130435320Y-162638830D01*
X130435319Y-162638833D01*
X130405981Y-162748324D01*
X120351794Y-162748324D01*
X120344490Y-162735673D01*
X120344484Y-162735665D01*
X120264334Y-162655515D01*
X120264329Y-162655511D01*
X120166169Y-162598839D01*
X120166168Y-162598838D01*
X120166167Y-162598838D01*
X120056676Y-162569500D01*
X119943324Y-162569500D01*
X119833833Y-162598838D01*
X119833830Y-162598839D01*
X119735670Y-162655511D01*
X119735665Y-162655515D01*
X119655515Y-162735665D01*
X119655511Y-162735670D01*
X119598839Y-162833830D01*
X119598838Y-162833833D01*
X119569500Y-162943324D01*
X75000500Y-162943324D01*
X75000500Y-159943324D01*
X113069500Y-159943324D01*
X113069500Y-160056675D01*
X113098838Y-160166166D01*
X113098839Y-160166169D01*
X113155511Y-160264329D01*
X113155513Y-160264332D01*
X113155514Y-160264333D01*
X113235667Y-160344486D01*
X113333833Y-160401162D01*
X113443324Y-160430500D01*
X113443326Y-160430500D01*
X113556674Y-160430500D01*
X113556676Y-160430500D01*
X113666167Y-160401162D01*
X113764333Y-160344486D01*
X113844486Y-160264333D01*
X113901162Y-160166167D01*
X113930500Y-160056676D01*
X113930500Y-159943324D01*
X113901162Y-159833833D01*
X113844486Y-159735667D01*
X113764333Y-159655514D01*
X113764332Y-159655513D01*
X113764329Y-159655511D01*
X113666169Y-159598839D01*
X113666168Y-159598838D01*
X113666167Y-159598838D01*
X113556676Y-159569500D01*
X113443324Y-159569500D01*
X113333833Y-159598838D01*
X113333830Y-159598839D01*
X113235670Y-159655511D01*
X113235665Y-159655515D01*
X113155515Y-159735665D01*
X113155511Y-159735670D01*
X113098839Y-159833830D01*
X113098838Y-159833833D01*
X113069500Y-159943324D01*
X75000500Y-159943324D01*
X75000500Y-157498324D01*
X137569500Y-157498324D01*
X137569500Y-157611676D01*
X137581247Y-157655514D01*
X137598838Y-157721166D01*
X137598839Y-157721169D01*
X137655511Y-157819329D01*
X137655513Y-157819332D01*
X137655514Y-157819333D01*
X137735667Y-157899486D01*
X137833833Y-157956162D01*
X137943324Y-157985500D01*
X137943326Y-157985500D01*
X138056674Y-157985500D01*
X138056676Y-157985500D01*
X138166167Y-157956162D01*
X138239500Y-157913822D01*
X138307400Y-157897350D01*
X138373427Y-157920202D01*
X138416618Y-157975124D01*
X138425500Y-158021210D01*
X138425500Y-159128850D01*
X138425501Y-159128858D01*
X138433070Y-159166916D01*
X138433071Y-159166919D01*
X138461914Y-159210086D01*
X138505081Y-159238929D01*
X138543145Y-159246500D01*
X140268854Y-159246499D01*
X140306919Y-159238929D01*
X140350086Y-159210086D01*
X140378929Y-159166919D01*
X140386500Y-159128855D01*
X140386499Y-158261158D01*
X140406183Y-158194121D01*
X140458987Y-158148366D01*
X140528146Y-158138422D01*
X140591702Y-158167447D01*
X140617886Y-158199160D01*
X140655511Y-158264329D01*
X140655513Y-158264332D01*
X140655514Y-158264333D01*
X140735667Y-158344486D01*
X140833833Y-158401162D01*
X140943324Y-158430500D01*
X140943326Y-158430500D01*
X141056674Y-158430500D01*
X141056676Y-158430500D01*
X141166167Y-158401162D01*
X141264333Y-158344486D01*
X141344486Y-158264333D01*
X141401162Y-158166167D01*
X141430500Y-158056676D01*
X141430500Y-157943324D01*
X141401162Y-157833833D01*
X141344486Y-157735667D01*
X141264333Y-157655514D01*
X141264332Y-157655513D01*
X141264329Y-157655511D01*
X141166169Y-157598839D01*
X141166168Y-157598838D01*
X141166167Y-157598838D01*
X141056676Y-157569500D01*
X140943324Y-157569500D01*
X140833833Y-157598838D01*
X140833830Y-157598839D01*
X140735670Y-157655511D01*
X140735665Y-157655515D01*
X140655515Y-157735665D01*
X140655511Y-157735670D01*
X140617886Y-157800840D01*
X140567319Y-157849056D01*
X140498712Y-157862279D01*
X140433847Y-157836311D01*
X140393319Y-157779396D01*
X140386499Y-157738840D01*
X140386499Y-157403149D01*
X140386498Y-157403141D01*
X140378929Y-157365081D01*
X140350906Y-157323141D01*
X153625500Y-157323141D01*
X153625500Y-159048850D01*
X153625501Y-159048858D01*
X153633070Y-159086916D01*
X153633071Y-159086919D01*
X153661914Y-159130086D01*
X153705081Y-159158929D01*
X153743145Y-159166500D01*
X155468854Y-159166499D01*
X155506919Y-159158929D01*
X155550086Y-159130086D01*
X155578929Y-159086919D01*
X155586500Y-159048855D01*
X155586499Y-157323146D01*
X155578929Y-157285081D01*
X155550086Y-157241914D01*
X155521242Y-157222641D01*
X155506918Y-157213070D01*
X155468857Y-157205500D01*
X153743149Y-157205500D01*
X153743141Y-157205501D01*
X153705083Y-157213070D01*
X153705080Y-157213071D01*
X153661914Y-157241914D01*
X153633070Y-157285081D01*
X153625500Y-157323141D01*
X140350906Y-157323141D01*
X140350086Y-157321914D01*
X140317135Y-157299897D01*
X140306918Y-157293070D01*
X140268858Y-157285500D01*
X139757949Y-157285500D01*
X139690910Y-157265815D01*
X139645155Y-157213011D01*
X139635211Y-157143853D01*
X139664236Y-157080297D01*
X139719631Y-157043569D01*
X139924217Y-156977095D01*
X140113554Y-156880622D01*
X140167716Y-156841270D01*
X140167717Y-156841270D01*
X139535408Y-156208962D01*
X139598993Y-156191925D01*
X139713007Y-156126099D01*
X139806099Y-156033007D01*
X139871925Y-155918993D01*
X139888962Y-155855409D01*
X140521270Y-156487717D01*
X140521270Y-156487716D01*
X140560622Y-156433554D01*
X140657095Y-156244217D01*
X140722757Y-156042130D01*
X140722757Y-156042127D01*
X140756000Y-155832246D01*
X140756000Y-155619753D01*
X140746969Y-155562735D01*
X140744861Y-155549424D01*
X153625500Y-155549424D01*
X153625500Y-155742575D01*
X153663178Y-155931993D01*
X153663181Y-155932005D01*
X153737088Y-156110434D01*
X153737095Y-156110447D01*
X153844395Y-156271031D01*
X153844398Y-156271035D01*
X153980964Y-156407601D01*
X153980968Y-156407604D01*
X154141552Y-156514904D01*
X154141565Y-156514911D01*
X154319994Y-156588818D01*
X154319999Y-156588820D01*
X154509424Y-156626499D01*
X154509427Y-156626500D01*
X154509429Y-156626500D01*
X154702573Y-156626500D01*
X154702574Y-156626499D01*
X154892001Y-156588820D01*
X155070441Y-156514908D01*
X155231032Y-156407604D01*
X155367604Y-156271032D01*
X155474908Y-156110441D01*
X155548820Y-155932001D01*
X155586500Y-155742571D01*
X155586500Y-155549429D01*
X155586500Y-155549426D01*
X155586499Y-155549424D01*
X155573264Y-155482886D01*
X155548820Y-155359999D01*
X155542394Y-155344486D01*
X155474911Y-155181565D01*
X155474904Y-155181552D01*
X155367604Y-155020968D01*
X155367601Y-155020964D01*
X155231035Y-154884398D01*
X155231031Y-154884395D01*
X155070447Y-154777095D01*
X155070434Y-154777088D01*
X154892005Y-154703181D01*
X154891993Y-154703178D01*
X154702574Y-154665500D01*
X154702571Y-154665500D01*
X154509429Y-154665500D01*
X154509426Y-154665500D01*
X154320006Y-154703178D01*
X154319994Y-154703181D01*
X154141565Y-154777088D01*
X154141552Y-154777095D01*
X153980968Y-154884395D01*
X153980964Y-154884398D01*
X153844398Y-155020964D01*
X153844395Y-155020968D01*
X153737095Y-155181552D01*
X153737088Y-155181565D01*
X153663181Y-155359994D01*
X153663178Y-155360006D01*
X153625500Y-155549424D01*
X140744861Y-155549424D01*
X140722757Y-155409872D01*
X140722757Y-155409869D01*
X140657095Y-155207782D01*
X140560624Y-155018449D01*
X140521270Y-154964282D01*
X140521269Y-154964282D01*
X139888962Y-155596590D01*
X139871925Y-155533007D01*
X139806099Y-155418993D01*
X139713007Y-155325901D01*
X139598993Y-155260075D01*
X139535407Y-155243037D01*
X140167716Y-154610728D01*
X140113550Y-154571375D01*
X139924217Y-154474904D01*
X139722129Y-154409242D01*
X139606339Y-154390903D01*
X139543204Y-154360974D01*
X139506273Y-154301662D01*
X139507271Y-154231800D01*
X139545881Y-154173567D01*
X139601546Y-154146813D01*
X139636205Y-154139918D01*
X139692001Y-154128820D01*
X139866175Y-154056675D01*
X139870434Y-154054911D01*
X139870434Y-154054910D01*
X139870441Y-154054908D01*
X140031032Y-153947604D01*
X140167604Y-153811032D01*
X140274908Y-153650441D01*
X140348820Y-153472001D01*
X140386500Y-153282571D01*
X140386500Y-153089429D01*
X140386500Y-153089426D01*
X140386499Y-153089424D01*
X140374188Y-153027528D01*
X140370587Y-153009424D01*
X153625500Y-153009424D01*
X153625500Y-153202575D01*
X153663178Y-153391993D01*
X153663181Y-153392005D01*
X153737088Y-153570434D01*
X153737095Y-153570447D01*
X153844395Y-153731031D01*
X153844398Y-153731035D01*
X153980964Y-153867601D01*
X153980968Y-153867604D01*
X154141552Y-153974904D01*
X154141565Y-153974911D01*
X154319994Y-154048818D01*
X154319999Y-154048820D01*
X154509424Y-154086499D01*
X154509427Y-154086500D01*
X154509429Y-154086500D01*
X154702573Y-154086500D01*
X154702574Y-154086499D01*
X154892001Y-154048820D01*
X155070441Y-153974908D01*
X155231032Y-153867604D01*
X155367604Y-153731032D01*
X155474908Y-153570441D01*
X155548820Y-153392001D01*
X155586500Y-153202571D01*
X155586500Y-153009429D01*
X155586500Y-153009426D01*
X155586499Y-153009424D01*
X155553691Y-152844488D01*
X155548820Y-152819999D01*
X155525763Y-152764334D01*
X155474911Y-152641565D01*
X155474904Y-152641552D01*
X155367604Y-152480968D01*
X155367601Y-152480964D01*
X155231035Y-152344398D01*
X155231031Y-152344395D01*
X155070447Y-152237095D01*
X155070434Y-152237088D01*
X154892005Y-152163181D01*
X154891993Y-152163178D01*
X154702574Y-152125500D01*
X154702571Y-152125500D01*
X154509429Y-152125500D01*
X154509426Y-152125500D01*
X154320006Y-152163178D01*
X154319994Y-152163181D01*
X154141565Y-152237088D01*
X154141552Y-152237095D01*
X153980968Y-152344395D01*
X153980964Y-152344398D01*
X153844398Y-152480964D01*
X153844395Y-152480968D01*
X153737095Y-152641552D01*
X153737088Y-152641565D01*
X153663181Y-152819994D01*
X153663178Y-152820006D01*
X153625500Y-153009424D01*
X140370587Y-153009424D01*
X140348821Y-152900004D01*
X140348820Y-152900003D01*
X140348820Y-152899999D01*
X140292624Y-152764329D01*
X140274911Y-152721565D01*
X140274904Y-152721552D01*
X140167604Y-152560968D01*
X140167601Y-152560964D01*
X140031035Y-152424398D01*
X140031031Y-152424395D01*
X139870447Y-152317095D01*
X139870434Y-152317088D01*
X139692005Y-152243181D01*
X139691993Y-152243178D01*
X139502574Y-152205500D01*
X139502571Y-152205500D01*
X139309429Y-152205500D01*
X139309426Y-152205500D01*
X139120006Y-152243178D01*
X139119994Y-152243181D01*
X138941565Y-152317088D01*
X138941552Y-152317095D01*
X138780968Y-152424395D01*
X138780964Y-152424398D01*
X138644398Y-152560964D01*
X138644395Y-152560968D01*
X138537095Y-152721552D01*
X138537088Y-152721565D01*
X138463181Y-152899994D01*
X138463178Y-152900006D01*
X138425500Y-153089424D01*
X138425500Y-153282575D01*
X138463178Y-153471993D01*
X138463181Y-153472005D01*
X138537088Y-153650434D01*
X138537095Y-153650447D01*
X138644395Y-153811031D01*
X138644398Y-153811035D01*
X138780964Y-153947601D01*
X138780968Y-153947604D01*
X138941552Y-154054904D01*
X138941565Y-154054911D01*
X139047618Y-154098839D01*
X139119999Y-154128820D01*
X139157026Y-154136185D01*
X139210453Y-154146813D01*
X139272364Y-154179198D01*
X139306938Y-154239914D01*
X139303199Y-154309683D01*
X139262332Y-154366355D01*
X139205660Y-154390903D01*
X139089872Y-154409242D01*
X139089869Y-154409242D01*
X138887782Y-154474904D01*
X138698442Y-154571379D01*
X138661658Y-154598103D01*
X138661658Y-154598104D01*
X139290909Y-155227357D01*
X139192886Y-155253622D01*
X139097114Y-155308916D01*
X139018916Y-155387114D01*
X138963622Y-155482886D01*
X138958953Y-155500307D01*
X138940075Y-155533007D01*
X138923037Y-155596591D01*
X138290728Y-154964282D01*
X138290727Y-154964282D01*
X138251380Y-155018439D01*
X138154904Y-155207782D01*
X138089242Y-155409869D01*
X138089242Y-155409872D01*
X138056000Y-155619753D01*
X138056000Y-155832246D01*
X138089242Y-156042127D01*
X138089242Y-156042130D01*
X138154904Y-156244217D01*
X138251375Y-156433550D01*
X138290728Y-156487716D01*
X138923037Y-155855408D01*
X138940075Y-155918993D01*
X139005901Y-156033007D01*
X139098993Y-156126099D01*
X139213007Y-156191925D01*
X139276590Y-156208962D01*
X138644282Y-156841269D01*
X138644282Y-156841270D01*
X138698449Y-156880624D01*
X138887782Y-156977095D01*
X139092370Y-157043569D01*
X139150045Y-157083006D01*
X139177244Y-157147365D01*
X139165330Y-157216211D01*
X139118086Y-157267687D01*
X139054052Y-157285500D01*
X138543149Y-157285500D01*
X138543141Y-157285501D01*
X138505083Y-157293070D01*
X138505078Y-157293072D01*
X138494864Y-157299897D01*
X138428186Y-157320774D01*
X138360806Y-157302288D01*
X138338294Y-157284475D01*
X138264334Y-157210515D01*
X138264329Y-157210511D01*
X138166169Y-157153839D01*
X138166168Y-157153838D01*
X138166167Y-157153838D01*
X138056676Y-157124500D01*
X137943324Y-157124500D01*
X137833833Y-157153838D01*
X137833830Y-157153839D01*
X137735670Y-157210511D01*
X137735665Y-157210515D01*
X137655515Y-157290665D01*
X137655511Y-157290670D01*
X137598839Y-157388830D01*
X137598838Y-157388833D01*
X137569500Y-157498324D01*
X75000500Y-157498324D01*
X75000500Y-155943324D01*
X126569500Y-155943324D01*
X126569500Y-156056676D01*
X126583907Y-156110441D01*
X126598838Y-156166166D01*
X126598839Y-156166169D01*
X126655511Y-156264329D01*
X126655513Y-156264332D01*
X126655514Y-156264333D01*
X126735667Y-156344486D01*
X126833833Y-156401162D01*
X126943324Y-156430500D01*
X126943326Y-156430500D01*
X127056674Y-156430500D01*
X127056676Y-156430500D01*
X127166167Y-156401162D01*
X127264333Y-156344486D01*
X127344486Y-156264333D01*
X127401162Y-156166167D01*
X127430500Y-156056676D01*
X127430500Y-155943324D01*
X127401162Y-155833833D01*
X127372824Y-155784750D01*
X127344488Y-155735670D01*
X127344484Y-155735665D01*
X127264334Y-155655515D01*
X127264329Y-155655511D01*
X127166169Y-155598839D01*
X127166168Y-155598838D01*
X127166167Y-155598838D01*
X127056676Y-155569500D01*
X126943324Y-155569500D01*
X126833833Y-155598838D01*
X126833830Y-155598839D01*
X126735670Y-155655511D01*
X126735665Y-155655515D01*
X126655515Y-155735665D01*
X126655511Y-155735670D01*
X126598839Y-155833830D01*
X126598838Y-155833833D01*
X126569500Y-155943324D01*
X75000500Y-155943324D01*
X75000500Y-154943324D01*
X110569500Y-154943324D01*
X110569500Y-155056675D01*
X110598838Y-155166166D01*
X110598839Y-155166169D01*
X110655511Y-155264329D01*
X110655513Y-155264332D01*
X110655514Y-155264333D01*
X110735667Y-155344486D01*
X110735668Y-155344487D01*
X110735670Y-155344488D01*
X110784750Y-155372824D01*
X110833833Y-155401162D01*
X110943324Y-155430500D01*
X110943326Y-155430500D01*
X111056674Y-155430500D01*
X111056676Y-155430500D01*
X111166167Y-155401162D01*
X111264333Y-155344486D01*
X111344486Y-155264333D01*
X111401162Y-155166167D01*
X111430500Y-155056676D01*
X111430500Y-154943324D01*
X111401162Y-154833833D01*
X111344486Y-154735667D01*
X111264333Y-154655514D01*
X111264332Y-154655513D01*
X111264329Y-154655511D01*
X111166169Y-154598839D01*
X111166168Y-154598838D01*
X111166167Y-154598838D01*
X111056676Y-154569500D01*
X110943324Y-154569500D01*
X110833833Y-154598838D01*
X110833830Y-154598839D01*
X110735670Y-154655511D01*
X110735665Y-154655515D01*
X110655515Y-154735665D01*
X110655511Y-154735670D01*
X110598839Y-154833830D01*
X110598838Y-154833833D01*
X110569500Y-154943324D01*
X75000500Y-154943324D01*
X75000500Y-154443324D01*
X130069500Y-154443324D01*
X130069500Y-154556676D01*
X130098660Y-154665500D01*
X130098838Y-154666166D01*
X130098839Y-154666169D01*
X130155511Y-154764329D01*
X130155513Y-154764332D01*
X130155514Y-154764333D01*
X130235667Y-154844486D01*
X130333833Y-154901162D01*
X130443324Y-154930500D01*
X130443326Y-154930500D01*
X130556674Y-154930500D01*
X130556676Y-154930500D01*
X130666167Y-154901162D01*
X130764333Y-154844486D01*
X130844486Y-154764333D01*
X130901162Y-154666167D01*
X130930500Y-154556676D01*
X130930500Y-154443324D01*
X130901162Y-154333833D01*
X130844486Y-154235667D01*
X130764333Y-154155514D01*
X130764332Y-154155513D01*
X130764329Y-154155511D01*
X130666169Y-154098839D01*
X130666168Y-154098838D01*
X130666167Y-154098838D01*
X130556676Y-154069500D01*
X130443324Y-154069500D01*
X130333833Y-154098838D01*
X130333830Y-154098839D01*
X130235670Y-154155511D01*
X130235665Y-154155515D01*
X130155515Y-154235665D01*
X130155511Y-154235670D01*
X130098839Y-154333830D01*
X130098838Y-154333833D01*
X130069500Y-154443324D01*
X75000500Y-154443324D01*
X75000500Y-153943324D01*
X106569500Y-153943324D01*
X106569500Y-154056676D01*
X106588831Y-154128818D01*
X106598838Y-154166166D01*
X106598839Y-154166169D01*
X106655511Y-154264329D01*
X106655513Y-154264332D01*
X106655514Y-154264333D01*
X106735667Y-154344486D01*
X106833833Y-154401162D01*
X106943324Y-154430500D01*
X106943326Y-154430500D01*
X107056674Y-154430500D01*
X107056676Y-154430500D01*
X107166167Y-154401162D01*
X107264333Y-154344486D01*
X107344486Y-154264333D01*
X107401162Y-154166167D01*
X107430500Y-154056676D01*
X107430500Y-153943324D01*
X111569500Y-153943324D01*
X111569500Y-154056676D01*
X111588831Y-154128818D01*
X111598838Y-154166166D01*
X111598839Y-154166169D01*
X111655511Y-154264329D01*
X111655513Y-154264332D01*
X111655514Y-154264333D01*
X111735667Y-154344486D01*
X111833833Y-154401162D01*
X111943324Y-154430500D01*
X111943326Y-154430500D01*
X112056674Y-154430500D01*
X112056676Y-154430500D01*
X112166167Y-154401162D01*
X112264333Y-154344486D01*
X112344486Y-154264333D01*
X112401162Y-154166167D01*
X112430500Y-154056676D01*
X112430500Y-153943324D01*
X112401162Y-153833833D01*
X112344486Y-153735667D01*
X112264333Y-153655514D01*
X112264332Y-153655513D01*
X112264329Y-153655511D01*
X112166169Y-153598839D01*
X112166168Y-153598838D01*
X112166167Y-153598838D01*
X112056676Y-153569500D01*
X111943324Y-153569500D01*
X111833833Y-153598838D01*
X111833830Y-153598839D01*
X111735670Y-153655511D01*
X111735665Y-153655515D01*
X111655515Y-153735665D01*
X111655511Y-153735670D01*
X111598839Y-153833830D01*
X111598838Y-153833833D01*
X111569500Y-153943324D01*
X107430500Y-153943324D01*
X107401162Y-153833833D01*
X107344486Y-153735667D01*
X107264333Y-153655514D01*
X107264332Y-153655513D01*
X107264329Y-153655511D01*
X107166169Y-153598839D01*
X107166168Y-153598838D01*
X107166167Y-153598838D01*
X107056676Y-153569500D01*
X106943324Y-153569500D01*
X106833833Y-153598838D01*
X106833830Y-153598839D01*
X106735670Y-153655511D01*
X106735665Y-153655515D01*
X106655515Y-153735665D01*
X106655511Y-153735670D01*
X106598839Y-153833830D01*
X106598838Y-153833833D01*
X106569500Y-153943324D01*
X75000500Y-153943324D01*
X75000500Y-152046507D01*
X129809461Y-152046507D01*
X129809461Y-152159859D01*
X129831787Y-152243178D01*
X129838799Y-152269349D01*
X129838800Y-152269352D01*
X129895472Y-152367512D01*
X129895474Y-152367514D01*
X129895475Y-152367516D01*
X129975628Y-152447669D01*
X130073794Y-152504345D01*
X130183285Y-152533683D01*
X130183287Y-152533683D01*
X130296635Y-152533683D01*
X130296637Y-152533683D01*
X130406128Y-152504345D01*
X130504294Y-152447669D01*
X130508639Y-152443324D01*
X131569500Y-152443324D01*
X131569500Y-152556676D01*
X131592245Y-152641559D01*
X131598838Y-152666166D01*
X131598839Y-152666169D01*
X131655511Y-152764329D01*
X131655513Y-152764332D01*
X131655514Y-152764333D01*
X131735667Y-152844486D01*
X131833833Y-152901162D01*
X131943324Y-152930500D01*
X131943326Y-152930500D01*
X132056674Y-152930500D01*
X132056676Y-152930500D01*
X132166167Y-152901162D01*
X132264333Y-152844486D01*
X132344486Y-152764333D01*
X132401162Y-152666167D01*
X132430500Y-152556676D01*
X132430500Y-152443324D01*
X132401162Y-152333833D01*
X132348824Y-152243180D01*
X132344488Y-152235670D01*
X132344484Y-152235665D01*
X132264334Y-152155515D01*
X132264329Y-152155511D01*
X132166169Y-152098839D01*
X132166168Y-152098838D01*
X132166167Y-152098838D01*
X132056676Y-152069500D01*
X131943324Y-152069500D01*
X131833833Y-152098838D01*
X131833830Y-152098839D01*
X131735670Y-152155511D01*
X131735665Y-152155515D01*
X131655515Y-152235665D01*
X131655511Y-152235670D01*
X131598839Y-152333830D01*
X131598838Y-152333833D01*
X131569500Y-152443324D01*
X130508639Y-152443324D01*
X130584447Y-152367516D01*
X130641123Y-152269350D01*
X130670461Y-152159859D01*
X130670461Y-152046507D01*
X130649235Y-151967290D01*
X130649235Y-151967288D01*
X130642813Y-151943324D01*
X133069500Y-151943324D01*
X133069500Y-152056676D01*
X133097148Y-152159857D01*
X133098838Y-152166166D01*
X133098839Y-152166169D01*
X133155511Y-152264329D01*
X133155513Y-152264332D01*
X133155514Y-152264333D01*
X133235667Y-152344486D01*
X133333833Y-152401162D01*
X133443324Y-152430500D01*
X133443326Y-152430500D01*
X133556674Y-152430500D01*
X133556676Y-152430500D01*
X133666167Y-152401162D01*
X133764333Y-152344486D01*
X133844486Y-152264333D01*
X133901162Y-152166167D01*
X133930500Y-152056676D01*
X133930500Y-151943324D01*
X133901162Y-151833833D01*
X133844486Y-151735667D01*
X133764333Y-151655514D01*
X133764332Y-151655513D01*
X133764329Y-151655511D01*
X133666169Y-151598839D01*
X133666168Y-151598838D01*
X133666167Y-151598838D01*
X133556676Y-151569500D01*
X133443324Y-151569500D01*
X133333833Y-151598838D01*
X133333830Y-151598839D01*
X133235670Y-151655511D01*
X133235665Y-151655515D01*
X133155515Y-151735665D01*
X133155511Y-151735670D01*
X133098839Y-151833830D01*
X133098838Y-151833833D01*
X133069500Y-151943324D01*
X130642813Y-151943324D01*
X130641124Y-151937020D01*
X130641123Y-151937016D01*
X130584447Y-151838850D01*
X130504294Y-151758697D01*
X130504293Y-151758696D01*
X130504290Y-151758694D01*
X130406130Y-151702022D01*
X130406129Y-151702021D01*
X130406128Y-151702021D01*
X130296637Y-151672683D01*
X130183285Y-151672683D01*
X130073794Y-151702021D01*
X130073791Y-151702022D01*
X129975631Y-151758694D01*
X129975626Y-151758698D01*
X129895476Y-151838848D01*
X129895472Y-151838853D01*
X129838800Y-151937013D01*
X129838799Y-151937016D01*
X129809461Y-152046507D01*
X75000500Y-152046507D01*
X75000500Y-151103436D01*
X108930700Y-151103436D01*
X108930700Y-151216788D01*
X108945236Y-151271035D01*
X108960038Y-151326278D01*
X108960039Y-151326281D01*
X109016711Y-151424441D01*
X109016713Y-151424444D01*
X109016714Y-151424445D01*
X109096867Y-151504598D01*
X109096868Y-151504599D01*
X109096870Y-151504600D01*
X109145950Y-151532936D01*
X109195033Y-151561274D01*
X109304524Y-151590612D01*
X109304526Y-151590612D01*
X109417874Y-151590612D01*
X109417876Y-151590612D01*
X109527367Y-151561274D01*
X109625533Y-151504598D01*
X109705686Y-151424445D01*
X109762362Y-151326279D01*
X109791700Y-151216788D01*
X109791700Y-151103436D01*
X109762362Y-150993945D01*
X109705686Y-150895779D01*
X109625533Y-150815626D01*
X109625532Y-150815625D01*
X109625529Y-150815623D01*
X109527369Y-150758951D01*
X109527368Y-150758950D01*
X109527367Y-150758950D01*
X109417876Y-150729612D01*
X109304524Y-150729612D01*
X109195033Y-150758950D01*
X109195030Y-150758951D01*
X109096870Y-150815623D01*
X109096865Y-150815627D01*
X109016715Y-150895777D01*
X109016711Y-150895782D01*
X108960039Y-150993942D01*
X108960038Y-150993945D01*
X108930700Y-151103436D01*
X75000500Y-151103436D01*
X75000500Y-150549424D01*
X138425500Y-150549424D01*
X138425500Y-150742575D01*
X138463178Y-150931993D01*
X138463181Y-150932005D01*
X138537088Y-151110434D01*
X138537095Y-151110447D01*
X138644395Y-151271031D01*
X138644398Y-151271035D01*
X138780964Y-151407601D01*
X138780968Y-151407604D01*
X138941552Y-151514904D01*
X138941565Y-151514911D01*
X139073356Y-151569500D01*
X139119999Y-151588820D01*
X139309424Y-151626499D01*
X139309427Y-151626500D01*
X139309429Y-151626500D01*
X139502573Y-151626500D01*
X139502574Y-151626499D01*
X139692001Y-151588820D01*
X139870441Y-151514908D01*
X140031032Y-151407604D01*
X140167604Y-151271032D01*
X140274908Y-151110441D01*
X140348820Y-150932001D01*
X140386500Y-150742571D01*
X140386500Y-150549429D01*
X140386500Y-150549426D01*
X140386499Y-150549424D01*
X140374188Y-150487528D01*
X140370587Y-150469424D01*
X153625500Y-150469424D01*
X153625500Y-150662575D01*
X153663178Y-150851993D01*
X153663181Y-150852005D01*
X153737088Y-151030434D01*
X153737095Y-151030447D01*
X153844395Y-151191031D01*
X153844398Y-151191035D01*
X153980964Y-151327601D01*
X153980968Y-151327604D01*
X154141552Y-151434904D01*
X154141565Y-151434911D01*
X154309801Y-151504596D01*
X154319999Y-151508820D01*
X154509424Y-151546499D01*
X154509427Y-151546500D01*
X154509429Y-151546500D01*
X154702573Y-151546500D01*
X154702574Y-151546499D01*
X154892001Y-151508820D01*
X155070441Y-151434908D01*
X155231032Y-151327604D01*
X155367604Y-151191032D01*
X155474908Y-151030441D01*
X155548820Y-150852001D01*
X155586500Y-150662571D01*
X155586500Y-150469429D01*
X155586500Y-150469426D01*
X155586499Y-150469424D01*
X155548821Y-150280006D01*
X155548820Y-150279999D01*
X155548818Y-150279994D01*
X155474911Y-150101565D01*
X155474904Y-150101552D01*
X155367604Y-149940968D01*
X155367601Y-149940964D01*
X155231035Y-149804398D01*
X155231031Y-149804395D01*
X155070447Y-149697095D01*
X155070434Y-149697088D01*
X154892005Y-149623181D01*
X154891993Y-149623178D01*
X154702574Y-149585500D01*
X154702571Y-149585500D01*
X154509429Y-149585500D01*
X154509426Y-149585500D01*
X154320006Y-149623178D01*
X154319994Y-149623181D01*
X154141565Y-149697088D01*
X154141552Y-149697095D01*
X153980968Y-149804395D01*
X153980964Y-149804398D01*
X153844398Y-149940964D01*
X153844395Y-149940968D01*
X153737095Y-150101552D01*
X153737088Y-150101565D01*
X153663181Y-150279994D01*
X153663178Y-150280006D01*
X153625500Y-150469424D01*
X140370587Y-150469424D01*
X140348821Y-150360004D01*
X140348820Y-150360003D01*
X140348820Y-150359999D01*
X140315681Y-150279994D01*
X140274911Y-150181565D01*
X140274904Y-150181552D01*
X140167604Y-150020968D01*
X140167601Y-150020964D01*
X140031035Y-149884398D01*
X140031031Y-149884395D01*
X139870447Y-149777095D01*
X139870434Y-149777088D01*
X139692005Y-149703181D01*
X139691993Y-149703178D01*
X139502574Y-149665500D01*
X139502571Y-149665500D01*
X139309429Y-149665500D01*
X139309426Y-149665500D01*
X139120006Y-149703178D01*
X139119994Y-149703181D01*
X138941565Y-149777088D01*
X138941552Y-149777095D01*
X138780968Y-149884395D01*
X138780964Y-149884398D01*
X138644398Y-150020964D01*
X138644395Y-150020968D01*
X138537095Y-150181552D01*
X138537088Y-150181565D01*
X138463181Y-150359994D01*
X138463178Y-150360006D01*
X138425500Y-150549424D01*
X75000500Y-150549424D01*
X75000500Y-148913389D01*
X79899500Y-148913389D01*
X79899500Y-149086611D01*
X79926598Y-149257701D01*
X79980127Y-149422445D01*
X80058768Y-149576788D01*
X80160586Y-149716928D01*
X80283072Y-149839414D01*
X80423212Y-149941232D01*
X80577555Y-150019873D01*
X80742299Y-150073402D01*
X80913389Y-150100500D01*
X80913390Y-150100500D01*
X81086610Y-150100500D01*
X81086611Y-150100500D01*
X81257701Y-150073402D01*
X81422445Y-150019873D01*
X81576788Y-149941232D01*
X81716928Y-149839414D01*
X81839414Y-149716928D01*
X81941232Y-149576788D01*
X82019873Y-149422445D01*
X82073402Y-149257701D01*
X82100500Y-149086611D01*
X82100500Y-148913389D01*
X86899500Y-148913389D01*
X86899500Y-149086611D01*
X86926598Y-149257701D01*
X86980127Y-149422445D01*
X87058768Y-149576788D01*
X87160586Y-149716928D01*
X87283072Y-149839414D01*
X87423212Y-149941232D01*
X87577555Y-150019873D01*
X87742299Y-150073402D01*
X87913389Y-150100500D01*
X87913390Y-150100500D01*
X88086610Y-150100500D01*
X88086611Y-150100500D01*
X88257701Y-150073402D01*
X88422445Y-150019873D01*
X88576788Y-149941232D01*
X88716928Y-149839414D01*
X88839414Y-149716928D01*
X88941232Y-149576788D01*
X89019873Y-149422445D01*
X89073402Y-149257701D01*
X89100500Y-149086611D01*
X89100500Y-148913389D01*
X89073402Y-148742299D01*
X89019873Y-148577555D01*
X88941232Y-148423212D01*
X88839414Y-148283072D01*
X88716928Y-148160586D01*
X88576788Y-148058768D01*
X88479944Y-148009424D01*
X138425500Y-148009424D01*
X138425500Y-148202575D01*
X138463178Y-148391993D01*
X138463181Y-148392005D01*
X138537088Y-148570434D01*
X138537095Y-148570447D01*
X138644395Y-148731031D01*
X138644398Y-148731035D01*
X138780964Y-148867601D01*
X138780968Y-148867604D01*
X138941552Y-148974904D01*
X138941565Y-148974911D01*
X139119994Y-149048818D01*
X139119999Y-149048820D01*
X139309424Y-149086499D01*
X139309427Y-149086500D01*
X139309429Y-149086500D01*
X139502573Y-149086500D01*
X139502574Y-149086499D01*
X139692001Y-149048820D01*
X139870441Y-148974908D01*
X140031032Y-148867604D01*
X140167604Y-148731032D01*
X140274908Y-148570441D01*
X140348820Y-148392001D01*
X140386500Y-148202571D01*
X140386500Y-148009429D01*
X140386500Y-148009426D01*
X140386499Y-148009424D01*
X140374188Y-147947528D01*
X140370587Y-147929424D01*
X153625500Y-147929424D01*
X153625500Y-148122575D01*
X153663178Y-148311993D01*
X153663181Y-148312005D01*
X153737088Y-148490434D01*
X153737095Y-148490447D01*
X153844395Y-148651031D01*
X153844398Y-148651035D01*
X153980964Y-148787601D01*
X153980968Y-148787604D01*
X154141552Y-148894904D01*
X154141565Y-148894911D01*
X154319994Y-148968818D01*
X154319999Y-148968820D01*
X154509424Y-149006499D01*
X154509427Y-149006500D01*
X154509429Y-149006500D01*
X154702573Y-149006500D01*
X154702574Y-149006499D01*
X154892001Y-148968820D01*
X155070441Y-148894908D01*
X155231032Y-148787604D01*
X155367604Y-148651032D01*
X155474908Y-148490441D01*
X155548820Y-148312001D01*
X155586500Y-148122571D01*
X155586500Y-147929429D01*
X155586500Y-147929426D01*
X155586499Y-147929424D01*
X155564732Y-147819994D01*
X155548820Y-147739999D01*
X155518238Y-147666167D01*
X155474911Y-147561565D01*
X155474904Y-147561552D01*
X155367604Y-147400968D01*
X155367601Y-147400964D01*
X155231035Y-147264398D01*
X155231031Y-147264395D01*
X155070447Y-147157095D01*
X155070434Y-147157088D01*
X154892005Y-147083181D01*
X154891993Y-147083178D01*
X154702574Y-147045500D01*
X154702571Y-147045500D01*
X154509429Y-147045500D01*
X154509426Y-147045500D01*
X154320006Y-147083178D01*
X154319994Y-147083181D01*
X154141565Y-147157088D01*
X154141552Y-147157095D01*
X153980968Y-147264395D01*
X153980964Y-147264398D01*
X153844398Y-147400964D01*
X153844395Y-147400968D01*
X153737095Y-147561552D01*
X153737088Y-147561565D01*
X153663181Y-147739994D01*
X153663178Y-147740006D01*
X153625500Y-147929424D01*
X140370587Y-147929424D01*
X140348821Y-147820004D01*
X140348820Y-147820003D01*
X140348820Y-147819999D01*
X140325763Y-147764334D01*
X140274911Y-147641565D01*
X140274904Y-147641552D01*
X140167604Y-147480968D01*
X140167601Y-147480964D01*
X140031035Y-147344398D01*
X140031031Y-147344395D01*
X139870447Y-147237095D01*
X139870434Y-147237088D01*
X139692005Y-147163181D01*
X139691993Y-147163178D01*
X139502574Y-147125500D01*
X139502571Y-147125500D01*
X139309429Y-147125500D01*
X139309426Y-147125500D01*
X139120006Y-147163178D01*
X139119994Y-147163181D01*
X138941565Y-147237088D01*
X138941552Y-147237095D01*
X138780968Y-147344395D01*
X138780964Y-147344398D01*
X138644398Y-147480964D01*
X138644395Y-147480968D01*
X138537095Y-147641552D01*
X138537088Y-147641565D01*
X138463181Y-147819994D01*
X138463178Y-147820006D01*
X138425500Y-148009424D01*
X88479944Y-148009424D01*
X88422445Y-147980127D01*
X88257701Y-147926598D01*
X88257699Y-147926597D01*
X88257698Y-147926597D01*
X88097104Y-147901162D01*
X88086611Y-147899500D01*
X87913389Y-147899500D01*
X87902896Y-147901162D01*
X87742302Y-147926597D01*
X87577552Y-147980128D01*
X87423211Y-148058768D01*
X87343256Y-148116859D01*
X87283072Y-148160586D01*
X87283070Y-148160588D01*
X87283069Y-148160588D01*
X87160588Y-148283069D01*
X87160588Y-148283070D01*
X87160586Y-148283072D01*
X87139574Y-148311993D01*
X87058768Y-148423211D01*
X86980128Y-148577552D01*
X86926597Y-148742302D01*
X86902428Y-148894904D01*
X86899500Y-148913389D01*
X82100500Y-148913389D01*
X82073402Y-148742299D01*
X82019873Y-148577555D01*
X81941232Y-148423212D01*
X81839414Y-148283072D01*
X81716928Y-148160586D01*
X81576788Y-148058768D01*
X81422445Y-147980127D01*
X81257701Y-147926598D01*
X81257699Y-147926597D01*
X81257698Y-147926597D01*
X81097104Y-147901162D01*
X81086611Y-147899500D01*
X80913389Y-147899500D01*
X80902896Y-147901162D01*
X80742302Y-147926597D01*
X80577552Y-147980128D01*
X80423211Y-148058768D01*
X80343256Y-148116859D01*
X80283072Y-148160586D01*
X80283070Y-148160588D01*
X80283069Y-148160588D01*
X80160588Y-148283069D01*
X80160588Y-148283070D01*
X80160586Y-148283072D01*
X80139574Y-148311993D01*
X80058768Y-148423211D01*
X79980128Y-148577552D01*
X79926597Y-148742302D01*
X79902428Y-148894904D01*
X79899500Y-148913389D01*
X75000500Y-148913389D01*
X75000500Y-147443324D01*
X131069500Y-147443324D01*
X131069500Y-147556676D01*
X131092245Y-147641559D01*
X131098838Y-147666166D01*
X131098839Y-147666169D01*
X131155511Y-147764329D01*
X131155513Y-147764332D01*
X131155514Y-147764333D01*
X131235667Y-147844486D01*
X131333833Y-147901162D01*
X131443324Y-147930500D01*
X131443326Y-147930500D01*
X131556674Y-147930500D01*
X131556676Y-147930500D01*
X131666167Y-147901162D01*
X131764333Y-147844486D01*
X131844486Y-147764333D01*
X131901162Y-147666167D01*
X131930500Y-147556676D01*
X131930500Y-147443324D01*
X131901162Y-147333833D01*
X131861034Y-147264329D01*
X131844488Y-147235670D01*
X131844484Y-147235665D01*
X131764334Y-147155515D01*
X131764329Y-147155511D01*
X131666169Y-147098839D01*
X131666168Y-147098838D01*
X131666167Y-147098838D01*
X131556676Y-147069500D01*
X131443324Y-147069500D01*
X131333833Y-147098838D01*
X131333830Y-147098839D01*
X131235670Y-147155511D01*
X131235665Y-147155515D01*
X131155515Y-147235665D01*
X131155511Y-147235670D01*
X131098839Y-147333830D01*
X131098838Y-147333833D01*
X131069500Y-147443324D01*
X75000500Y-147443324D01*
X75000500Y-146624316D01*
X105145500Y-146624316D01*
X105145500Y-146737668D01*
X105171268Y-146833833D01*
X105174838Y-146847158D01*
X105174839Y-146847161D01*
X105231511Y-146945321D01*
X105231513Y-146945324D01*
X105231514Y-146945325D01*
X105311667Y-147025478D01*
X105409833Y-147082154D01*
X105519324Y-147111492D01*
X105519326Y-147111492D01*
X105632674Y-147111492D01*
X105632676Y-147111492D01*
X105742167Y-147082154D01*
X105840333Y-147025478D01*
X105920486Y-146945325D01*
X105921641Y-146943324D01*
X109569500Y-146943324D01*
X109569500Y-147056676D01*
X109596407Y-147157092D01*
X109598838Y-147166166D01*
X109598839Y-147166169D01*
X109655511Y-147264329D01*
X109655513Y-147264332D01*
X109655514Y-147264333D01*
X109735667Y-147344486D01*
X109833833Y-147401162D01*
X109943324Y-147430500D01*
X109943326Y-147430500D01*
X110056674Y-147430500D01*
X110056676Y-147430500D01*
X110166167Y-147401162D01*
X110264333Y-147344486D01*
X110344486Y-147264333D01*
X110401162Y-147166167D01*
X110430500Y-147056676D01*
X110430500Y-146943324D01*
X110401162Y-146833833D01*
X110372824Y-146784750D01*
X110344488Y-146735670D01*
X110344484Y-146735665D01*
X110264334Y-146655515D01*
X110264329Y-146655511D01*
X110166169Y-146598839D01*
X110166168Y-146598838D01*
X110166167Y-146598838D01*
X110056676Y-146569500D01*
X109943324Y-146569500D01*
X109833833Y-146598838D01*
X109833830Y-146598839D01*
X109735670Y-146655511D01*
X109735665Y-146655515D01*
X109655515Y-146735665D01*
X109655511Y-146735670D01*
X109598839Y-146833830D01*
X109598838Y-146833833D01*
X109569500Y-146943324D01*
X105921641Y-146943324D01*
X105923268Y-146940504D01*
X105962129Y-146873198D01*
X105962129Y-146873197D01*
X105962166Y-146873131D01*
X105977162Y-146847159D01*
X106006500Y-146737668D01*
X106006500Y-146624316D01*
X105977162Y-146514825D01*
X105920486Y-146416659D01*
X105840333Y-146336506D01*
X105840332Y-146336505D01*
X105840329Y-146336503D01*
X105742169Y-146279831D01*
X105742168Y-146279830D01*
X105742167Y-146279830D01*
X105632676Y-146250492D01*
X105519324Y-146250492D01*
X105409833Y-146279830D01*
X105409830Y-146279831D01*
X105311670Y-146336503D01*
X105311665Y-146336507D01*
X105231515Y-146416657D01*
X105231511Y-146416662D01*
X105174839Y-146514822D01*
X105174838Y-146514825D01*
X105145500Y-146624316D01*
X75000500Y-146624316D01*
X75000500Y-145943324D01*
X88569500Y-145943324D01*
X88569500Y-146056676D01*
X88584066Y-146111035D01*
X88598838Y-146166166D01*
X88598839Y-146166169D01*
X88655511Y-146264329D01*
X88655513Y-146264332D01*
X88655514Y-146264333D01*
X88735667Y-146344486D01*
X88735668Y-146344487D01*
X88735670Y-146344488D01*
X88784750Y-146372824D01*
X88833833Y-146401162D01*
X88943324Y-146430500D01*
X88943326Y-146430500D01*
X89056674Y-146430500D01*
X89056676Y-146430500D01*
X89166167Y-146401162D01*
X89264333Y-146344486D01*
X89344486Y-146264333D01*
X89401162Y-146166167D01*
X89430500Y-146056676D01*
X89430500Y-145943324D01*
X90569500Y-145943324D01*
X90569500Y-146056676D01*
X90584066Y-146111035D01*
X90598838Y-146166166D01*
X90598839Y-146166169D01*
X90655511Y-146264329D01*
X90655513Y-146264332D01*
X90655514Y-146264333D01*
X90735667Y-146344486D01*
X90735668Y-146344487D01*
X90735670Y-146344488D01*
X90784750Y-146372824D01*
X90833833Y-146401162D01*
X90943324Y-146430500D01*
X90943326Y-146430500D01*
X91056674Y-146430500D01*
X91056676Y-146430500D01*
X91166167Y-146401162D01*
X91264333Y-146344486D01*
X91344486Y-146264333D01*
X91401162Y-146166167D01*
X91430500Y-146056676D01*
X91430500Y-145943324D01*
X91401162Y-145833833D01*
X91344486Y-145735667D01*
X91264333Y-145655514D01*
X91264332Y-145655513D01*
X91264329Y-145655511D01*
X91166169Y-145598839D01*
X91166168Y-145598838D01*
X91166167Y-145598838D01*
X91056676Y-145569500D01*
X90943324Y-145569500D01*
X90833833Y-145598838D01*
X90833830Y-145598839D01*
X90735670Y-145655511D01*
X90735665Y-145655515D01*
X90655515Y-145735665D01*
X90655511Y-145735670D01*
X90598839Y-145833830D01*
X90598838Y-145833833D01*
X90569500Y-145943324D01*
X89430500Y-145943324D01*
X89401162Y-145833833D01*
X89344486Y-145735667D01*
X89264333Y-145655514D01*
X89264332Y-145655513D01*
X89264329Y-145655511D01*
X89166169Y-145598839D01*
X89166168Y-145598838D01*
X89166167Y-145598838D01*
X89056676Y-145569500D01*
X88943324Y-145569500D01*
X88833833Y-145598838D01*
X88833830Y-145598839D01*
X88735670Y-145655511D01*
X88735665Y-145655515D01*
X88655515Y-145735665D01*
X88655511Y-145735670D01*
X88598839Y-145833830D01*
X88598838Y-145833833D01*
X88569500Y-145943324D01*
X75000500Y-145943324D01*
X75000500Y-145469424D01*
X138425500Y-145469424D01*
X138425500Y-145662575D01*
X138463178Y-145851993D01*
X138463181Y-145852005D01*
X138537088Y-146030434D01*
X138537095Y-146030447D01*
X138644395Y-146191031D01*
X138644398Y-146191035D01*
X138780964Y-146327601D01*
X138780968Y-146327604D01*
X138941552Y-146434904D01*
X138941565Y-146434911D01*
X139119994Y-146508818D01*
X139119999Y-146508820D01*
X139309424Y-146546499D01*
X139309427Y-146546500D01*
X139309429Y-146546500D01*
X139502573Y-146546500D01*
X139502574Y-146546499D01*
X139692001Y-146508820D01*
X139870441Y-146434908D01*
X140031032Y-146327604D01*
X140167604Y-146191032D01*
X140274908Y-146030441D01*
X140348820Y-145852001D01*
X140386500Y-145662571D01*
X140386500Y-145469429D01*
X140386500Y-145469426D01*
X140386499Y-145469424D01*
X140374188Y-145407528D01*
X140370587Y-145389424D01*
X153625500Y-145389424D01*
X153625500Y-145582575D01*
X153663178Y-145771993D01*
X153663181Y-145772005D01*
X153737088Y-145950434D01*
X153737095Y-145950447D01*
X153844395Y-146111031D01*
X153844398Y-146111035D01*
X153980964Y-146247601D01*
X153980968Y-146247604D01*
X154141552Y-146354904D01*
X154141565Y-146354911D01*
X154290647Y-146416662D01*
X154319999Y-146428820D01*
X154509424Y-146466499D01*
X154509427Y-146466500D01*
X154509429Y-146466500D01*
X154702573Y-146466500D01*
X154702574Y-146466499D01*
X154892001Y-146428820D01*
X155070441Y-146354908D01*
X155231032Y-146247604D01*
X155367604Y-146111032D01*
X155474908Y-145950441D01*
X155548820Y-145772001D01*
X155586500Y-145582571D01*
X155586500Y-145389429D01*
X155586500Y-145389426D01*
X155586499Y-145389424D01*
X155548821Y-145200006D01*
X155548820Y-145199999D01*
X155548818Y-145199994D01*
X155474911Y-145021565D01*
X155474904Y-145021552D01*
X155367604Y-144860968D01*
X155367601Y-144860964D01*
X155231035Y-144724398D01*
X155231031Y-144724395D01*
X155070447Y-144617095D01*
X155070434Y-144617088D01*
X154892005Y-144543181D01*
X154891993Y-144543178D01*
X154702574Y-144505500D01*
X154702571Y-144505500D01*
X154509429Y-144505500D01*
X154509426Y-144505500D01*
X154320006Y-144543178D01*
X154319994Y-144543181D01*
X154141565Y-144617088D01*
X154141552Y-144617095D01*
X153980968Y-144724395D01*
X153980964Y-144724398D01*
X153844398Y-144860964D01*
X153844395Y-144860968D01*
X153737095Y-145021552D01*
X153737088Y-145021565D01*
X153663181Y-145199994D01*
X153663178Y-145200006D01*
X153625500Y-145389424D01*
X140370587Y-145389424D01*
X140348821Y-145280004D01*
X140348820Y-145280003D01*
X140348820Y-145279999D01*
X140315681Y-145199994D01*
X140274911Y-145101565D01*
X140274904Y-145101552D01*
X140167604Y-144940968D01*
X140167601Y-144940964D01*
X140031035Y-144804398D01*
X140031031Y-144804395D01*
X139870447Y-144697095D01*
X139870434Y-144697088D01*
X139692005Y-144623181D01*
X139691993Y-144623178D01*
X139502574Y-144585500D01*
X139502571Y-144585500D01*
X139309429Y-144585500D01*
X139309426Y-144585500D01*
X139120006Y-144623178D01*
X139119994Y-144623181D01*
X138941565Y-144697088D01*
X138941552Y-144697095D01*
X138780968Y-144804395D01*
X138780964Y-144804398D01*
X138644398Y-144940964D01*
X138644395Y-144940968D01*
X138537095Y-145101552D01*
X138537088Y-145101565D01*
X138463181Y-145279994D01*
X138463178Y-145280006D01*
X138425500Y-145469424D01*
X75000500Y-145469424D01*
X75000500Y-142929424D01*
X138425500Y-142929424D01*
X138425500Y-143122575D01*
X138463178Y-143311993D01*
X138463181Y-143312005D01*
X138537088Y-143490434D01*
X138537095Y-143490447D01*
X138644395Y-143651031D01*
X138644398Y-143651035D01*
X138780964Y-143787601D01*
X138780968Y-143787604D01*
X138941552Y-143894904D01*
X138941565Y-143894911D01*
X139119994Y-143968818D01*
X139119999Y-143968820D01*
X139309424Y-144006499D01*
X139309427Y-144006500D01*
X139309429Y-144006500D01*
X139502573Y-144006500D01*
X139502574Y-144006499D01*
X139692001Y-143968820D01*
X139870441Y-143894908D01*
X140031032Y-143787604D01*
X140167604Y-143651032D01*
X140274908Y-143490441D01*
X140348820Y-143312001D01*
X140386500Y-143122571D01*
X140386500Y-142929429D01*
X140386500Y-142929426D01*
X140386499Y-142929424D01*
X140374188Y-142867528D01*
X140370587Y-142849424D01*
X153625500Y-142849424D01*
X153625500Y-143042575D01*
X153663178Y-143231993D01*
X153663181Y-143232005D01*
X153737088Y-143410434D01*
X153737095Y-143410447D01*
X153844395Y-143571031D01*
X153844398Y-143571035D01*
X153980964Y-143707601D01*
X153980968Y-143707604D01*
X154141552Y-143814904D01*
X154141565Y-143814911D01*
X154319994Y-143888818D01*
X154319999Y-143888820D01*
X154509424Y-143926499D01*
X154509427Y-143926500D01*
X154509429Y-143926500D01*
X154702573Y-143926500D01*
X154702574Y-143926499D01*
X154892001Y-143888820D01*
X155070441Y-143814908D01*
X155231032Y-143707604D01*
X155367604Y-143571032D01*
X155474908Y-143410441D01*
X155548820Y-143232001D01*
X155586500Y-143042571D01*
X155586500Y-142849429D01*
X155586500Y-142849426D01*
X155586499Y-142849424D01*
X155548821Y-142660006D01*
X155548820Y-142659999D01*
X155548818Y-142659994D01*
X155474911Y-142481565D01*
X155474904Y-142481552D01*
X155367604Y-142320968D01*
X155367601Y-142320964D01*
X155231035Y-142184398D01*
X155231031Y-142184395D01*
X155070447Y-142077095D01*
X155070434Y-142077088D01*
X154892005Y-142003181D01*
X154891993Y-142003178D01*
X154702574Y-141965500D01*
X154702571Y-141965500D01*
X154509429Y-141965500D01*
X154509426Y-141965500D01*
X154320006Y-142003178D01*
X154319994Y-142003181D01*
X154141565Y-142077088D01*
X154141552Y-142077095D01*
X153980968Y-142184395D01*
X153980964Y-142184398D01*
X153844398Y-142320964D01*
X153844395Y-142320968D01*
X153737095Y-142481552D01*
X153737088Y-142481565D01*
X153663181Y-142659994D01*
X153663178Y-142660006D01*
X153625500Y-142849424D01*
X140370587Y-142849424D01*
X140348821Y-142740004D01*
X140348820Y-142740003D01*
X140348820Y-142739999D01*
X140315681Y-142659994D01*
X140274911Y-142561565D01*
X140274904Y-142561552D01*
X140167604Y-142400968D01*
X140167601Y-142400964D01*
X140031035Y-142264398D01*
X140031031Y-142264395D01*
X139870447Y-142157095D01*
X139870434Y-142157088D01*
X139692005Y-142083181D01*
X139691993Y-142083178D01*
X139502574Y-142045500D01*
X139502571Y-142045500D01*
X139309429Y-142045500D01*
X139309426Y-142045500D01*
X139120006Y-142083178D01*
X139119994Y-142083181D01*
X138941565Y-142157088D01*
X138941552Y-142157095D01*
X138780968Y-142264395D01*
X138780964Y-142264398D01*
X138644398Y-142400964D01*
X138644395Y-142400968D01*
X138537095Y-142561552D01*
X138537088Y-142561565D01*
X138463181Y-142739994D01*
X138463178Y-142740006D01*
X138425500Y-142929424D01*
X75000500Y-142929424D01*
X75000500Y-140137141D01*
X82019500Y-140137141D01*
X82019500Y-141862850D01*
X82019501Y-141862858D01*
X82026456Y-141897827D01*
X82027071Y-141900919D01*
X82055914Y-141944086D01*
X82099081Y-141972929D01*
X82137145Y-141980500D01*
X83862854Y-141980499D01*
X83900919Y-141972929D01*
X83944086Y-141944086D01*
X83972929Y-141900919D01*
X83980500Y-141862855D01*
X83980499Y-140950447D01*
X83980499Y-140137149D01*
X83980499Y-140137146D01*
X83973540Y-140102155D01*
X85650000Y-140102155D01*
X85650000Y-140750000D01*
X86566988Y-140750000D01*
X86534075Y-140807007D01*
X86500000Y-140934174D01*
X86500000Y-141065826D01*
X86534075Y-141192993D01*
X86566988Y-141250000D01*
X85650000Y-141250000D01*
X85650000Y-141897844D01*
X85656401Y-141957372D01*
X85656403Y-141957379D01*
X85706645Y-142092086D01*
X85706649Y-142092093D01*
X85792809Y-142207187D01*
X85792812Y-142207190D01*
X85907906Y-142293350D01*
X85907913Y-142293354D01*
X86042620Y-142343596D01*
X86042627Y-142343598D01*
X86102155Y-142349999D01*
X86102172Y-142350000D01*
X86750000Y-142350000D01*
X86750000Y-141433012D01*
X86807007Y-141465925D01*
X86934174Y-141500000D01*
X87065826Y-141500000D01*
X87192993Y-141465925D01*
X87250000Y-141433012D01*
X87250000Y-142350000D01*
X87897828Y-142350000D01*
X87897844Y-142349999D01*
X87957372Y-142343598D01*
X87957379Y-142343596D01*
X88092086Y-142293354D01*
X88092093Y-142293350D01*
X88207187Y-142207190D01*
X88207190Y-142207187D01*
X88293350Y-142092093D01*
X88293354Y-142092086D01*
X88343596Y-141957379D01*
X88343598Y-141957372D01*
X88349999Y-141897844D01*
X88350000Y-141897827D01*
X88350000Y-141250000D01*
X87433012Y-141250000D01*
X87465925Y-141192993D01*
X87500000Y-141065826D01*
X87500000Y-140934174D01*
X87465925Y-140807007D01*
X87433012Y-140750000D01*
X88350000Y-140750000D01*
X88350000Y-140137141D01*
X90019500Y-140137141D01*
X90019500Y-141862850D01*
X90019501Y-141862858D01*
X90026456Y-141897827D01*
X90027071Y-141900919D01*
X90055914Y-141944086D01*
X90099081Y-141972929D01*
X90137145Y-141980500D01*
X91862854Y-141980499D01*
X91900919Y-141972929D01*
X91944086Y-141944086D01*
X91972929Y-141900919D01*
X91980500Y-141862855D01*
X91980499Y-140137146D01*
X91980498Y-140137141D01*
X94019500Y-140137141D01*
X94019500Y-141862850D01*
X94019501Y-141862858D01*
X94026456Y-141897827D01*
X94027071Y-141900919D01*
X94055914Y-141944086D01*
X94099081Y-141972929D01*
X94137145Y-141980500D01*
X95862854Y-141980499D01*
X95900919Y-141972929D01*
X95944086Y-141944086D01*
X95972929Y-141900919D01*
X95980500Y-141862855D01*
X95980499Y-140903424D01*
X96559500Y-140903424D01*
X96559500Y-141096575D01*
X96597178Y-141285993D01*
X96597181Y-141286005D01*
X96671088Y-141464434D01*
X96671095Y-141464447D01*
X96778395Y-141625031D01*
X96778398Y-141625035D01*
X96914964Y-141761601D01*
X96914968Y-141761604D01*
X97075552Y-141868904D01*
X97075565Y-141868911D01*
X97253994Y-141942818D01*
X97253999Y-141942820D01*
X97405362Y-141972928D01*
X97443424Y-141980499D01*
X97443427Y-141980500D01*
X97443429Y-141980500D01*
X97636573Y-141980500D01*
X97636574Y-141980499D01*
X97826001Y-141942820D01*
X98004441Y-141868908D01*
X98165032Y-141761604D01*
X98301604Y-141625032D01*
X98408908Y-141464441D01*
X98482820Y-141286001D01*
X98520500Y-141096571D01*
X98520500Y-140903429D01*
X98520500Y-140903426D01*
X98520499Y-140903424D01*
X99099500Y-140903424D01*
X99099500Y-141096575D01*
X99137178Y-141285993D01*
X99137181Y-141286005D01*
X99211088Y-141464434D01*
X99211095Y-141464447D01*
X99318395Y-141625031D01*
X99318398Y-141625035D01*
X99454964Y-141761601D01*
X99454968Y-141761604D01*
X99615552Y-141868904D01*
X99615565Y-141868911D01*
X99793994Y-141942818D01*
X99793999Y-141942820D01*
X99945362Y-141972928D01*
X99983424Y-141980499D01*
X99983427Y-141980500D01*
X99983429Y-141980500D01*
X100176573Y-141980500D01*
X100176574Y-141980499D01*
X100366001Y-141942820D01*
X100544441Y-141868908D01*
X100705032Y-141761604D01*
X100841604Y-141625032D01*
X100948908Y-141464441D01*
X101022820Y-141286001D01*
X101060500Y-141096571D01*
X101060500Y-140903429D01*
X101060500Y-140903426D01*
X101060499Y-140903424D01*
X101034357Y-140772001D01*
X101022820Y-140713999D01*
X101013705Y-140691993D01*
X100948911Y-140535565D01*
X100948904Y-140535552D01*
X100841604Y-140374968D01*
X100841601Y-140374964D01*
X100705035Y-140238398D01*
X100705031Y-140238395D01*
X100698687Y-140234156D01*
X100553495Y-140137141D01*
X103479500Y-140137141D01*
X103479500Y-141862850D01*
X103479501Y-141862858D01*
X103486456Y-141897827D01*
X103487071Y-141900919D01*
X103515914Y-141944086D01*
X103559081Y-141972929D01*
X103597145Y-141980500D01*
X105322854Y-141980499D01*
X105360919Y-141972929D01*
X105404086Y-141944086D01*
X105432929Y-141900919D01*
X105440500Y-141862855D01*
X105440499Y-140903424D01*
X106019500Y-140903424D01*
X106019500Y-141096575D01*
X106057178Y-141285993D01*
X106057181Y-141286005D01*
X106131088Y-141464434D01*
X106131095Y-141464447D01*
X106238395Y-141625031D01*
X106238398Y-141625035D01*
X106374964Y-141761601D01*
X106374968Y-141761604D01*
X106535552Y-141868904D01*
X106535565Y-141868911D01*
X106713994Y-141942818D01*
X106713999Y-141942820D01*
X106865362Y-141972928D01*
X106903424Y-141980499D01*
X106903427Y-141980500D01*
X106903429Y-141980500D01*
X107096573Y-141980500D01*
X107096574Y-141980499D01*
X107286001Y-141942820D01*
X107464441Y-141868908D01*
X107625032Y-141761604D01*
X107761604Y-141625032D01*
X107868908Y-141464441D01*
X107942820Y-141286001D01*
X107980500Y-141096571D01*
X107980500Y-140903429D01*
X107980500Y-140903426D01*
X107980499Y-140903424D01*
X108559500Y-140903424D01*
X108559500Y-141096575D01*
X108597178Y-141285993D01*
X108597181Y-141286005D01*
X108671088Y-141464434D01*
X108671095Y-141464447D01*
X108778395Y-141625031D01*
X108778398Y-141625035D01*
X108914964Y-141761601D01*
X108914968Y-141761604D01*
X109075552Y-141868904D01*
X109075565Y-141868911D01*
X109253994Y-141942818D01*
X109253999Y-141942820D01*
X109405362Y-141972928D01*
X109443424Y-141980499D01*
X109443427Y-141980500D01*
X109443429Y-141980500D01*
X109636573Y-141980500D01*
X109636574Y-141980499D01*
X109826001Y-141942820D01*
X110004441Y-141868908D01*
X110165032Y-141761604D01*
X110301604Y-141625032D01*
X110408908Y-141464441D01*
X110482820Y-141286001D01*
X110520500Y-141096571D01*
X110520500Y-140903429D01*
X110520500Y-140903426D01*
X110520499Y-140903424D01*
X110494357Y-140772001D01*
X110482820Y-140713999D01*
X110473705Y-140691993D01*
X110408911Y-140535565D01*
X110408904Y-140535552D01*
X110301604Y-140374968D01*
X110301601Y-140374964D01*
X110165035Y-140238398D01*
X110165031Y-140238395D01*
X110158687Y-140234156D01*
X110013495Y-140137141D01*
X113019500Y-140137141D01*
X113019500Y-141862850D01*
X113019501Y-141862858D01*
X113026456Y-141897827D01*
X113027071Y-141900919D01*
X113055914Y-141944086D01*
X113099081Y-141972929D01*
X113137145Y-141980500D01*
X114862854Y-141980499D01*
X114900919Y-141972929D01*
X114944086Y-141944086D01*
X114972929Y-141900919D01*
X114980500Y-141862855D01*
X114980499Y-140137146D01*
X114980498Y-140137141D01*
X117019500Y-140137141D01*
X117019500Y-141862850D01*
X117019501Y-141862858D01*
X117026456Y-141897827D01*
X117027071Y-141900919D01*
X117055914Y-141944086D01*
X117099081Y-141972929D01*
X117137145Y-141980500D01*
X118862854Y-141980499D01*
X118900919Y-141972929D01*
X118944086Y-141944086D01*
X118972929Y-141900919D01*
X118980500Y-141862855D01*
X118980499Y-140950447D01*
X118980499Y-140137149D01*
X118980499Y-140137146D01*
X118973540Y-140102155D01*
X121650000Y-140102155D01*
X121650000Y-140750000D01*
X122566988Y-140750000D01*
X122534075Y-140807007D01*
X122500000Y-140934174D01*
X122500000Y-141065826D01*
X122534075Y-141192993D01*
X122566988Y-141250000D01*
X121650000Y-141250000D01*
X121650000Y-141897844D01*
X121656401Y-141957372D01*
X121656403Y-141957379D01*
X121706645Y-142092086D01*
X121706649Y-142092093D01*
X121792809Y-142207187D01*
X121792812Y-142207190D01*
X121907906Y-142293350D01*
X121907913Y-142293354D01*
X122042620Y-142343596D01*
X122042627Y-142343598D01*
X122102155Y-142349999D01*
X122102172Y-142350000D01*
X122750000Y-142350000D01*
X122750000Y-141433012D01*
X122807007Y-141465925D01*
X122934174Y-141500000D01*
X123065826Y-141500000D01*
X123192993Y-141465925D01*
X123250000Y-141433012D01*
X123250000Y-142350000D01*
X123897828Y-142350000D01*
X123897844Y-142349999D01*
X123957372Y-142343598D01*
X123957379Y-142343596D01*
X124092086Y-142293354D01*
X124092093Y-142293350D01*
X124207187Y-142207190D01*
X124207190Y-142207187D01*
X124293350Y-142092093D01*
X124293354Y-142092086D01*
X124343596Y-141957379D01*
X124343598Y-141957372D01*
X124349999Y-141897844D01*
X124350000Y-141897827D01*
X124350000Y-141250000D01*
X123433012Y-141250000D01*
X123465925Y-141192993D01*
X123500000Y-141065826D01*
X123500000Y-140934174D01*
X123465925Y-140807007D01*
X123433012Y-140750000D01*
X124350000Y-140750000D01*
X124350000Y-140137141D01*
X126519500Y-140137141D01*
X126519500Y-141862850D01*
X126519501Y-141862858D01*
X126526456Y-141897827D01*
X126527071Y-141900919D01*
X126555914Y-141944086D01*
X126599081Y-141972929D01*
X126637145Y-141980500D01*
X128362854Y-141980499D01*
X128400919Y-141972929D01*
X128444086Y-141944086D01*
X128472929Y-141900919D01*
X128480500Y-141862855D01*
X128480499Y-140137146D01*
X128472929Y-140099081D01*
X128444086Y-140055914D01*
X128400919Y-140027071D01*
X128400918Y-140027070D01*
X128362857Y-140019500D01*
X126637149Y-140019500D01*
X126637141Y-140019501D01*
X126599083Y-140027070D01*
X126599080Y-140027071D01*
X126555914Y-140055914D01*
X126527070Y-140099081D01*
X126519500Y-140137141D01*
X124350000Y-140137141D01*
X124350000Y-140102172D01*
X124349999Y-140102155D01*
X124343598Y-140042627D01*
X124343596Y-140042620D01*
X124293354Y-139907913D01*
X124293350Y-139907906D01*
X124207190Y-139792812D01*
X124207187Y-139792809D01*
X124092093Y-139706649D01*
X124092086Y-139706645D01*
X123957379Y-139656403D01*
X123957372Y-139656401D01*
X123897844Y-139650000D01*
X123250000Y-139650000D01*
X123250000Y-140566988D01*
X123192993Y-140534075D01*
X123065826Y-140500000D01*
X122934174Y-140500000D01*
X122807007Y-140534075D01*
X122750000Y-140566988D01*
X122750000Y-139650000D01*
X122102155Y-139650000D01*
X122042627Y-139656401D01*
X122042620Y-139656403D01*
X121907913Y-139706645D01*
X121907906Y-139706649D01*
X121792812Y-139792809D01*
X121792809Y-139792812D01*
X121706649Y-139907906D01*
X121706645Y-139907913D01*
X121656403Y-140042620D01*
X121656401Y-140042627D01*
X121650000Y-140102155D01*
X118973540Y-140102155D01*
X118972929Y-140099081D01*
X118944086Y-140055914D01*
X118900919Y-140027071D01*
X118900918Y-140027070D01*
X118862857Y-140019500D01*
X117137149Y-140019500D01*
X117137141Y-140019501D01*
X117099083Y-140027070D01*
X117099080Y-140027071D01*
X117055914Y-140055914D01*
X117027070Y-140099081D01*
X117019500Y-140137141D01*
X114980498Y-140137141D01*
X114972929Y-140099081D01*
X114944086Y-140055914D01*
X114900919Y-140027071D01*
X114900918Y-140027070D01*
X114862857Y-140019500D01*
X113137149Y-140019500D01*
X113137141Y-140019501D01*
X113099083Y-140027070D01*
X113099080Y-140027071D01*
X113055914Y-140055914D01*
X113027070Y-140099081D01*
X113019500Y-140137141D01*
X110013495Y-140137141D01*
X110004447Y-140131095D01*
X110004434Y-140131088D01*
X109826005Y-140057181D01*
X109825993Y-140057178D01*
X109636574Y-140019500D01*
X109636571Y-140019500D01*
X109443429Y-140019500D01*
X109443426Y-140019500D01*
X109254006Y-140057178D01*
X109253994Y-140057181D01*
X109075565Y-140131088D01*
X109075552Y-140131095D01*
X108914968Y-140238395D01*
X108914964Y-140238398D01*
X108778398Y-140374964D01*
X108778395Y-140374968D01*
X108671095Y-140535552D01*
X108671088Y-140535565D01*
X108597181Y-140713994D01*
X108597178Y-140714006D01*
X108559500Y-140903424D01*
X107980499Y-140903424D01*
X107954357Y-140772001D01*
X107942820Y-140713999D01*
X107933705Y-140691993D01*
X107868911Y-140535565D01*
X107868904Y-140535552D01*
X107761604Y-140374968D01*
X107761601Y-140374964D01*
X107625035Y-140238398D01*
X107625031Y-140238395D01*
X107464447Y-140131095D01*
X107464434Y-140131088D01*
X107286005Y-140057181D01*
X107285993Y-140057178D01*
X107096574Y-140019500D01*
X107096571Y-140019500D01*
X106903429Y-140019500D01*
X106903426Y-140019500D01*
X106714006Y-140057178D01*
X106713994Y-140057181D01*
X106535565Y-140131088D01*
X106535552Y-140131095D01*
X106374968Y-140238395D01*
X106374964Y-140238398D01*
X106238398Y-140374964D01*
X106238395Y-140374968D01*
X106131095Y-140535552D01*
X106131088Y-140535565D01*
X106057181Y-140713994D01*
X106057178Y-140714006D01*
X106019500Y-140903424D01*
X105440499Y-140903424D01*
X105440499Y-140137146D01*
X105432929Y-140099081D01*
X105404086Y-140055914D01*
X105360919Y-140027071D01*
X105360918Y-140027070D01*
X105322858Y-140019500D01*
X104231715Y-140019500D01*
X104164676Y-139999815D01*
X104118921Y-139947011D01*
X104108977Y-139877853D01*
X104138002Y-139814297D01*
X104169712Y-139788115D01*
X104264333Y-139733486D01*
X104344486Y-139653333D01*
X104401162Y-139555167D01*
X104430500Y-139445676D01*
X104430500Y-139332324D01*
X104401162Y-139222833D01*
X104344486Y-139124667D01*
X104264333Y-139044514D01*
X104264332Y-139044513D01*
X104264329Y-139044511D01*
X104166169Y-138987839D01*
X104166168Y-138987838D01*
X104166167Y-138987838D01*
X104056676Y-138958500D01*
X103943324Y-138958500D01*
X103833833Y-138987838D01*
X103833830Y-138987839D01*
X103735670Y-139044511D01*
X103735665Y-139044515D01*
X103655515Y-139124665D01*
X103655511Y-139124670D01*
X103598839Y-139222830D01*
X103598838Y-139222833D01*
X103569500Y-139332324D01*
X103569500Y-139445676D01*
X103590684Y-139524733D01*
X103598838Y-139555166D01*
X103598839Y-139555169D01*
X103655511Y-139653329D01*
X103655513Y-139653332D01*
X103655514Y-139653333D01*
X103735667Y-139733486D01*
X103830286Y-139788114D01*
X103878500Y-139838679D01*
X103891724Y-139907286D01*
X103865756Y-139972151D01*
X103808842Y-140012680D01*
X103768286Y-140019500D01*
X103597149Y-140019500D01*
X103597141Y-140019501D01*
X103559083Y-140027070D01*
X103559080Y-140027071D01*
X103515914Y-140055914D01*
X103487070Y-140099081D01*
X103479500Y-140137141D01*
X100553495Y-140137141D01*
X100544447Y-140131095D01*
X100544434Y-140131088D01*
X100366005Y-140057181D01*
X100365993Y-140057178D01*
X100176574Y-140019500D01*
X100176571Y-140019500D01*
X99983429Y-140019500D01*
X99983426Y-140019500D01*
X99794006Y-140057178D01*
X99793994Y-140057181D01*
X99615565Y-140131088D01*
X99615552Y-140131095D01*
X99454968Y-140238395D01*
X99454964Y-140238398D01*
X99318398Y-140374964D01*
X99318395Y-140374968D01*
X99211095Y-140535552D01*
X99211088Y-140535565D01*
X99137181Y-140713994D01*
X99137178Y-140714006D01*
X99099500Y-140903424D01*
X98520499Y-140903424D01*
X98494357Y-140772001D01*
X98482820Y-140713999D01*
X98473705Y-140691993D01*
X98408911Y-140535565D01*
X98408904Y-140535552D01*
X98301604Y-140374968D01*
X98301601Y-140374964D01*
X98165035Y-140238398D01*
X98165031Y-140238395D01*
X98004447Y-140131095D01*
X98004434Y-140131088D01*
X97826005Y-140057181D01*
X97825993Y-140057178D01*
X97636574Y-140019500D01*
X97636571Y-140019500D01*
X97443429Y-140019500D01*
X97443426Y-140019500D01*
X97254006Y-140057178D01*
X97253994Y-140057181D01*
X97075565Y-140131088D01*
X97075552Y-140131095D01*
X96914968Y-140238395D01*
X96914964Y-140238398D01*
X96778398Y-140374964D01*
X96778395Y-140374968D01*
X96671095Y-140535552D01*
X96671088Y-140535565D01*
X96597181Y-140713994D01*
X96597178Y-140714006D01*
X96559500Y-140903424D01*
X95980499Y-140903424D01*
X95980499Y-140137146D01*
X95972929Y-140099081D01*
X95944086Y-140055914D01*
X95900919Y-140027071D01*
X95900918Y-140027070D01*
X95862857Y-140019500D01*
X94137149Y-140019500D01*
X94137141Y-140019501D01*
X94099083Y-140027070D01*
X94099080Y-140027071D01*
X94055914Y-140055914D01*
X94027070Y-140099081D01*
X94019500Y-140137141D01*
X91980498Y-140137141D01*
X91972929Y-140099081D01*
X91944086Y-140055914D01*
X91900919Y-140027071D01*
X91900918Y-140027070D01*
X91862857Y-140019500D01*
X90137149Y-140019500D01*
X90137141Y-140019501D01*
X90099083Y-140027070D01*
X90099080Y-140027071D01*
X90055914Y-140055914D01*
X90027070Y-140099081D01*
X90019500Y-140137141D01*
X88350000Y-140137141D01*
X88350000Y-140102172D01*
X88349999Y-140102155D01*
X88343598Y-140042627D01*
X88343596Y-140042620D01*
X88293354Y-139907913D01*
X88293350Y-139907906D01*
X88207190Y-139792812D01*
X88207187Y-139792809D01*
X88092093Y-139706649D01*
X88092086Y-139706645D01*
X87957379Y-139656403D01*
X87957372Y-139656401D01*
X87897844Y-139650000D01*
X87250000Y-139650000D01*
X87250000Y-140566988D01*
X87192993Y-140534075D01*
X87065826Y-140500000D01*
X86934174Y-140500000D01*
X86807007Y-140534075D01*
X86750000Y-140566988D01*
X86750000Y-139650000D01*
X86102155Y-139650000D01*
X86042627Y-139656401D01*
X86042620Y-139656403D01*
X85907913Y-139706645D01*
X85907906Y-139706649D01*
X85792812Y-139792809D01*
X85792809Y-139792812D01*
X85706649Y-139907906D01*
X85706645Y-139907913D01*
X85656403Y-140042620D01*
X85656401Y-140042627D01*
X85650000Y-140102155D01*
X83973540Y-140102155D01*
X83972929Y-140099081D01*
X83944086Y-140055914D01*
X83900919Y-140027071D01*
X83900918Y-140027070D01*
X83862857Y-140019500D01*
X82137149Y-140019500D01*
X82137141Y-140019501D01*
X82099083Y-140027070D01*
X82099080Y-140027071D01*
X82055914Y-140055914D01*
X82027070Y-140099081D01*
X82019500Y-140137141D01*
X75000500Y-140137141D01*
X75000500Y-138124500D01*
X75020185Y-138057461D01*
X75072989Y-138011706D01*
X75124500Y-138000500D01*
X135376000Y-138000500D01*
X135443039Y-138020185D01*
G37*
%TD.AperFunction*%
%TD*%
M02*
