%TF.GenerationSoftware,KiCad,Pcbnew,9.0.7*%
%TF.CreationDate,2026-06-11T13:07:40+03:00*%
%TF.ProjectId,PCB,5043422e-6b69-4636-9164-5f7063625858,rev?*%
%TF.SameCoordinates,Original*%
%TF.FileFunction,Paste,Top*%
%TF.FilePolarity,Positive*%
%FSLAX46Y46*%
G04 Gerber Fmt 4.6, Leading zero omitted, Abs format (unit mm)*
G04 Created by KiCad (PCBNEW 9.0.7) date 2026-06-11 13:07:40*
%MOMM*%
%LPD*%
G01*
G04 APERTURE LIST*
G04 Aperture macros list*
%AMRoundRect*
0 Rectangle with rounded corners*
0 $1 Rounding radius*
0 $2 $3 $4 $5 $6 $7 $8 $9 X,Y pos of 4 corners*
0 Add a 4 corners polygon primitive as box body*
4,1,4,$2,$3,$4,$5,$6,$7,$8,$9,$2,$3,0*
0 Add four circle primitives for the rounded corners*
1,1,$1+$1,$2,$3*
1,1,$1+$1,$4,$5*
1,1,$1+$1,$6,$7*
1,1,$1+$1,$8,$9*
0 Add four rect primitives between the rounded corners*
20,1,$1+$1,$2,$3,$4,$5,0*
20,1,$1+$1,$4,$5,$6,$7,0*
20,1,$1+$1,$6,$7,$8,$9,0*
20,1,$1+$1,$8,$9,$2,$3,0*%
G04 Aperture macros list end*
%ADD10RoundRect,0.250000X0.412500X0.650000X-0.412500X0.650000X-0.412500X-0.650000X0.412500X-0.650000X0*%
%ADD11RoundRect,0.250000X0.650000X-0.412500X0.650000X0.412500X-0.650000X0.412500X-0.650000X-0.412500X0*%
%ADD12RoundRect,0.250000X-0.625000X0.400000X-0.625000X-0.400000X0.625000X-0.400000X0.625000X0.400000X0*%
%ADD13R,1.981200X0.558800*%
%ADD14RoundRect,0.250000X0.625000X-0.400000X0.625000X0.400000X-0.625000X0.400000X-0.625000X-0.400000X0*%
%ADD15R,1.168400X0.304800*%
%ADD16R,0.203200X0.711200*%
%ADD17R,1.498600X1.397000*%
%ADD18R,0.952500X0.508000*%
%ADD19RoundRect,0.250000X-0.400000X-0.625000X0.400000X-0.625000X0.400000X0.625000X-0.400000X0.625000X0*%
%ADD20RoundRect,0.250000X0.400000X0.625000X-0.400000X0.625000X-0.400000X-0.625000X0.400000X-0.625000X0*%
%ADD21R,2.200000X2.800000*%
%ADD22R,2.800000X2.800000*%
%ADD23R,2.184400X2.184400*%
%ADD24RoundRect,0.250000X-0.375000X-0.625000X0.375000X-0.625000X0.375000X0.625000X-0.375000X0.625000X0*%
%ADD25R,0.965200X0.508000*%
%ADD26RoundRect,0.250000X-0.650000X0.412500X-0.650000X-0.412500X0.650000X-0.412500X0.650000X0.412500X0*%
%ADD27RoundRect,0.250000X-0.412500X-0.650000X0.412500X-0.650000X0.412500X0.650000X-0.412500X0.650000X0*%
G04 APERTURE END LIST*
D10*
%TO.C,C14*%
X113437500Y-155000000D03*
X116562500Y-155000000D03*
%TD*%
D11*
%TO.C,C6*%
X133500000Y-168937500D03*
X133500000Y-172062500D03*
%TD*%
%TO.C,C10*%
X133500000Y-163937500D03*
X133500000Y-167062500D03*
%TD*%
D12*
%TO.C,R17*%
X130500000Y-167050000D03*
X130500000Y-163950000D03*
%TD*%
%TO.C,R16*%
X130500000Y-168950000D03*
X130500000Y-172050000D03*
%TD*%
D13*
%TO.C,U6*%
X123463800Y-169810000D03*
X123463800Y-168540000D03*
X123463800Y-167270000D03*
X123463800Y-166000000D03*
X123463800Y-164730000D03*
X123463800Y-163460000D03*
X123463800Y-162190000D03*
X118536200Y-162190000D03*
X118536200Y-163460000D03*
X118536200Y-164730000D03*
X118536200Y-166000000D03*
X118536200Y-167270000D03*
X118536200Y-168540000D03*
X118536200Y-169810000D03*
%TD*%
D14*
%TO.C,R4*%
X104729401Y-144521850D03*
X104729401Y-147621850D03*
%TD*%
D15*
%TO.C,U4*%
X134768600Y-155574999D03*
X134768600Y-154925000D03*
X134768600Y-154275002D03*
X134768600Y-153625001D03*
X134768600Y-152975002D03*
X134768600Y-152325001D03*
X134768600Y-151675002D03*
X134768600Y-151025001D03*
X134768600Y-150375002D03*
X134768600Y-149725001D03*
X134768600Y-149075002D03*
X134768600Y-148425001D03*
X129231400Y-148425001D03*
X129231400Y-149075000D03*
X129231400Y-149725001D03*
X129231400Y-150374999D03*
X129231400Y-151025001D03*
X129231400Y-151674999D03*
X129231400Y-152324998D03*
X129231400Y-152974999D03*
X129231400Y-153624998D03*
X129231400Y-154274999D03*
X129231400Y-154924998D03*
X129231400Y-155574999D03*
%TD*%
D13*
%TO.C,U3*%
X83778400Y-162679600D03*
X83778400Y-163949600D03*
X83778400Y-165219600D03*
X83778400Y-166489600D03*
X83778400Y-167759600D03*
X83778400Y-169029600D03*
X83778400Y-170299600D03*
X88706000Y-170299600D03*
X88706000Y-169029600D03*
X88706000Y-167759600D03*
X88706000Y-166489600D03*
X88706000Y-165219600D03*
X88706000Y-163949600D03*
X88706000Y-162679600D03*
%TD*%
D16*
%TO.C,U2*%
X109606201Y-148006199D03*
X109206199Y-148006199D03*
X108806200Y-148006199D03*
X108406201Y-148006199D03*
X108006199Y-148006199D03*
X108006199Y-150393799D03*
X108406201Y-150393799D03*
X108806200Y-150393799D03*
X109206199Y-150393799D03*
X109606201Y-150393799D03*
D17*
X108806200Y-149199999D03*
%TD*%
D18*
%TO.C,U1*%
X146629450Y-167375999D03*
X146629450Y-168326000D03*
X146629450Y-169276001D03*
X149182150Y-169276001D03*
X149182150Y-167375999D03*
%TD*%
D14*
%TO.C,R31*%
X142486000Y-169376000D03*
X142486000Y-166276000D03*
%TD*%
D19*
%TO.C,R27*%
X120950000Y-159500000D03*
X124050000Y-159500000D03*
%TD*%
D20*
%TO.C,R26*%
X113050000Y-158000000D03*
X109950000Y-158000000D03*
%TD*%
D12*
%TO.C,R25*%
X109500000Y-160450000D03*
X109500000Y-163550000D03*
%TD*%
D14*
%TO.C,R23*%
X114000000Y-164550000D03*
X114000000Y-161450000D03*
%TD*%
%TO.C,R22*%
X111000000Y-169550000D03*
X111000000Y-166450000D03*
%TD*%
%TO.C,R21*%
X108000000Y-169550000D03*
X108000000Y-166450000D03*
%TD*%
D12*
%TO.C,R20*%
X127500000Y-168950000D03*
X127500000Y-172050000D03*
%TD*%
D19*
%TO.C,R19*%
X122000000Y-172000000D03*
X125100000Y-172000000D03*
%TD*%
D20*
%TO.C,R13*%
X96550000Y-173000000D03*
X93450000Y-173000000D03*
%TD*%
D19*
%TO.C,R12*%
X87450000Y-173000000D03*
X90550000Y-173000000D03*
%TD*%
D12*
%TO.C,R10*%
X77706000Y-168669600D03*
X77706000Y-171769600D03*
%TD*%
D14*
%TO.C,R8*%
X86016000Y-159769600D03*
X86016000Y-156669600D03*
%TD*%
%TO.C,R7*%
X82706000Y-159769600D03*
X82706000Y-156669600D03*
%TD*%
%TO.C,R6*%
X105000000Y-154550000D03*
X105000000Y-151450000D03*
%TD*%
%TO.C,R5*%
X102000000Y-154550000D03*
X102000000Y-151450000D03*
%TD*%
%TO.C,R3*%
X102000000Y-147550000D03*
X102000000Y-144450000D03*
%TD*%
%TO.C,R2*%
X80706000Y-166039600D03*
X80706000Y-162939600D03*
%TD*%
%TO.C,R1*%
X77706000Y-166039600D03*
X77706000Y-162939600D03*
%TD*%
D21*
%TO.C,J1*%
X81900000Y-145300000D03*
X79900000Y-152700000D03*
D22*
X89300000Y-152700000D03*
%TD*%
D23*
%TO.C,D8*%
X95145800Y-153000000D03*
X98854200Y-153000000D03*
%TD*%
%TO.C,D7*%
X95145800Y-146000000D03*
X98854200Y-146000000D03*
%TD*%
D24*
%TO.C,D6*%
X142086000Y-163826000D03*
X144886000Y-163826000D03*
%TD*%
D25*
%TO.C,D1*%
X148825600Y-164191000D03*
X148825600Y-162361002D03*
X146986000Y-163276001D03*
%TD*%
D10*
%TO.C,C15*%
X119062500Y-158000000D03*
X115937500Y-158000000D03*
%TD*%
D26*
%TO.C,C13*%
X114000000Y-166437500D03*
X114000000Y-169562500D03*
%TD*%
%TO.C,C11*%
X127500000Y-163937500D03*
X127500000Y-167062500D03*
%TD*%
D27*
%TO.C,C9*%
X91875000Y-162000000D03*
X95000000Y-162000000D03*
%TD*%
D26*
%TO.C,C8*%
X95000000Y-167437500D03*
X95000000Y-170562500D03*
%TD*%
%TO.C,C7*%
X92000000Y-167437500D03*
X92000000Y-170562500D03*
%TD*%
%TO.C,C5*%
X80706000Y-168657100D03*
X80706000Y-171782100D03*
%TD*%
D20*
%TO.C,R18*%
X130550000Y-161500000D03*
X127450000Y-161500000D03*
%TD*%
M02*
