M48
; DRILL file {KiCad 9.0.7} date 2026-04-06T17:05:36-0900
; FORMAT={-:-/ absolute / metric / decimal}
; #@! TF.CreationDate,2026-04-06T17:05:36-09:00
; #@! TF.GenerationSoftware,Kicad,Pcbnew,9.0.7
; #@! TF.FileFunction,Plated,1,2,PTH
FMAT,2
METRIC
; #@! TA.AperFunction,Plated,PTH,ViaDrill
T1C0.300
; #@! TA.AperFunction,Plated,PTH,ComponentDrill
T2C0.500
; #@! TA.AperFunction,Plated,PTH,ComponentDrill
T3C0.600
%
G90
G05
T1
X110.0Y-112.5
X111.27Y-109.0
X112.435Y-119.935
X112.73Y-109.0
X113.317Y-119.183
X120.77Y-103.563
X121.5Y-117.5
X122.0Y-107.293
X122.23Y-103.563
X122.25Y-122.75
X122.5Y-120.5
X123.0Y-121.5
X123.445Y-127.945
X123.5Y-129.055
X124.076Y-118.416
X124.5Y-113.5
X124.51Y-119.537
X125.441Y-109.504
X126.0Y-110.048
X126.0Y-111.253
X126.094Y-116.906
X126.487Y-113.473
X126.594Y-117.406
X126.629Y-109.677
X127.411Y-118.952
X127.589Y-126.063
X128.072Y-114.0
X129.854Y-128.5
X131.5Y-121.0
X131.5Y-127.5
X133.0Y-121.0
X134.5Y-129.5
X135.0Y-126.0
X136.847Y-125.519
X137.5Y-115.0
X138.576Y-122.25
X139.0Y-117.0
X139.0Y-120.5
X142.961Y-119.62
X142.961Y-123.36
X143.0Y-113.5
X144.051Y-104.121
X144.053Y-111.025
X145.0Y-113.5
X145.5Y-106.57
X146.445Y-123.5
X149.0Y-104.07
X149.0Y-110.0
X149.5Y-123.5
X151.945Y-126.0
X153.555Y-126.472
T2
X150.5Y-121.5
X150.5Y-122.5
X150.5Y-123.5
X150.5Y-124.5
X150.5Y-125.5
X150.5Y-126.5
X150.5Y-127.5
X150.5Y-128.5
X150.5Y-129.5
T3
G00X146.755Y-103.0
M15
G01X147.855Y-103.0
M16
G05
G00X146.755Y-111.64
M15
G01X147.855Y-111.64
M16
G05
G00X151.085Y-103.0
M15
G01X151.885Y-103.0
M16
G05
G00X151.085Y-111.64
M15
G01X151.885Y-111.64
M16
G05
M30
