%TF.GenerationSoftware,KiCad,Pcbnew,9.0.7*%
%TF.CreationDate,2026-04-09T16:30:32+03:00*%
%TF.ProjectId,PCB,5043422e-6b69-4636-9164-5f7063625858,rev?*%
%TF.SameCoordinates,Original*%
%TF.FileFunction,Paste,Top*%
%TF.FilePolarity,Positive*%
%FSLAX46Y46*%
G04 Gerber Fmt 4.6, Leading zero omitted, Abs format (unit mm)*
G04 Created by KiCad (PCBNEW 9.0.7) date 2026-04-09 16:30:32*
%MOMM*%
%LPD*%
G01*
G04 APERTURE LIST*
G04 Aperture macros list*
%AMRoundRect*
0 Rectangle with rounded corners*
0 $1 Rounding radius*
0 $2 $3 $4 $5 $6 $7 $8 $9 X,Y pos of 4 corners*
0 Add a 4 corners polygon primitive as box body*
4,1,4,$2,$3,$4,$5,$6,$7,$8,$9,$2,$3,0*
0 Add four circle primitives for the rounded corners*
1,1,$1+$1,$2,$3*
1,1,$1+$1,$4,$5*
1,1,$1+$1,$6,$7*
1,1,$1+$1,$8,$9*
0 Add four rect primitives between the rounded corners*
20,1,$1+$1,$2,$3,$4,$5,0*
20,1,$1+$1,$4,$5,$6,$7,0*
20,1,$1+$1,$6,$7,$8,$9,0*
20,1,$1+$1,$8,$9,$2,$3,0*%
G04 Aperture macros list end*
%ADD10RoundRect,0.225000X0.250000X-0.225000X0.250000X0.225000X-0.250000X0.225000X-0.250000X-0.225000X0*%
%ADD11RoundRect,0.225000X-0.250000X0.225000X-0.250000X-0.225000X0.250000X-0.225000X0.250000X0.225000X0*%
%ADD12RoundRect,0.200000X-0.275000X0.200000X-0.275000X-0.200000X0.275000X-0.200000X0.275000X0.200000X0*%
%ADD13RoundRect,0.200000X-0.200000X-0.275000X0.200000X-0.275000X0.200000X0.275000X-0.200000X0.275000X0*%
%ADD14R,2.200000X2.800000*%
%ADD15R,2.800000X2.800000*%
%ADD16RoundRect,0.200000X0.275000X-0.200000X0.275000X0.200000X-0.275000X0.200000X-0.275000X-0.200000X0*%
%ADD17R,0.508000X0.965200*%
%ADD18R,0.711200X0.203200*%
%ADD19R,1.397000X1.498600*%
%ADD20RoundRect,0.225000X-0.225000X-0.250000X0.225000X-0.250000X0.225000X0.250000X-0.225000X0.250000X0*%
%ADD21R,0.965200X0.508000*%
%ADD22RoundRect,0.243750X0.243750X0.456250X-0.243750X0.456250X-0.243750X-0.456250X0.243750X-0.456250X0*%
%ADD23R,1.981200X0.558800*%
%ADD24RoundRect,0.200000X0.200000X0.275000X-0.200000X0.275000X-0.200000X-0.275000X0.200000X-0.275000X0*%
%ADD25R,2.184400X2.184400*%
%ADD26R,0.508000X0.952500*%
%ADD27R,1.150000X0.600000*%
%ADD28R,1.150000X0.300000*%
G04 APERTURE END LIST*
D10*
%TO.C,C12*%
X165036200Y-121009600D03*
X165036200Y-119459600D03*
%TD*%
%TO.C,C14*%
X157036200Y-130334600D03*
X157036200Y-128784600D03*
%TD*%
D11*
%TO.C,C6*%
X154500000Y-118679600D03*
X154500000Y-120229600D03*
%TD*%
%TO.C,C3*%
X132036200Y-122225000D03*
X132036200Y-123775000D03*
%TD*%
D12*
%TO.C,R2*%
X133536200Y-122175000D03*
X133536200Y-123825000D03*
%TD*%
%TO.C,R26*%
X162036200Y-128234600D03*
X162036200Y-129884600D03*
%TD*%
D13*
%TO.C,R20*%
X158711200Y-117234600D03*
X160361200Y-117234600D03*
%TD*%
%TO.C,R13*%
X142675000Y-127000000D03*
X144325000Y-127000000D03*
%TD*%
D14*
%TO.C,J1*%
X133900000Y-141881200D03*
X131900000Y-149281200D03*
D15*
X141300000Y-149281200D03*
%TD*%
D12*
%TO.C,R1*%
X133536200Y-119175000D03*
X133536200Y-120825000D03*
%TD*%
D16*
%TO.C,R15*%
X142536200Y-120325000D03*
X142536200Y-118675000D03*
%TD*%
D17*
%TO.C,D3*%
X145585001Y-142500000D03*
X147414999Y-142500000D03*
X146500000Y-140660400D03*
%TD*%
D12*
%TO.C,R22*%
X165036200Y-116409600D03*
X165036200Y-118059600D03*
%TD*%
D17*
%TO.C,D2*%
X150914999Y-143160400D03*
X149085001Y-143160400D03*
X150000000Y-145000000D03*
%TD*%
D16*
%TO.C,R14*%
X144000000Y-120325000D03*
X144000000Y-118675000D03*
%TD*%
D12*
%TO.C,R7*%
X132036200Y-125500000D03*
X132036200Y-127150000D03*
%TD*%
D18*
%TO.C,U2*%
X145112400Y-137980198D03*
X145112400Y-138380200D03*
X145112400Y-138780199D03*
X145112400Y-139180198D03*
X145112400Y-139580200D03*
X147500000Y-139580200D03*
X147500000Y-139180198D03*
X147500000Y-138780199D03*
X147500000Y-138380200D03*
X147500000Y-137980198D03*
D19*
X146306200Y-138780199D03*
%TD*%
D20*
%TO.C,C2*%
X164837500Y-136642500D03*
X166387500Y-136642500D03*
%TD*%
D16*
%TO.C,R29*%
X161337500Y-145467500D03*
X161337500Y-143817500D03*
%TD*%
D21*
%TO.C,D1*%
X161757300Y-142057499D03*
X161757300Y-140227501D03*
X159917700Y-141142500D03*
%TD*%
D11*
%TO.C,C13*%
X163536200Y-118459600D03*
X163536200Y-120009600D03*
%TD*%
D16*
%TO.C,R27*%
X163536200Y-126059600D03*
X163536200Y-124409600D03*
%TD*%
%TO.C,R17*%
X153000000Y-123679600D03*
X153000000Y-122029600D03*
%TD*%
D13*
%TO.C,R4*%
X136675000Y-135580200D03*
X138325000Y-135580200D03*
%TD*%
D16*
%TO.C,R30*%
X161000000Y-148967500D03*
X161000000Y-147317500D03*
%TD*%
D22*
%TO.C,D6*%
X166712500Y-138642500D03*
X164837500Y-138642500D03*
%TD*%
D23*
%TO.C,U3*%
X135536200Y-118690000D03*
X135536200Y-119960000D03*
X135536200Y-121230000D03*
X135536200Y-122500000D03*
X135536200Y-123770000D03*
X135536200Y-125040000D03*
X135536200Y-126310000D03*
X140463800Y-126310000D03*
X140463800Y-125040000D03*
X140463800Y-123770000D03*
X140463800Y-122500000D03*
X140463800Y-121230000D03*
X140463800Y-119960000D03*
X140463800Y-118690000D03*
%TD*%
D24*
%TO.C,R19*%
X157361200Y-117234600D03*
X155711200Y-117234600D03*
%TD*%
D16*
%TO.C,R24*%
X165036200Y-124059600D03*
X165036200Y-122409600D03*
%TD*%
D20*
%TO.C,C4*%
X145225000Y-136580200D03*
X146775000Y-136580200D03*
%TD*%
D25*
%TO.C,D8*%
X147000000Y-149934400D03*
X147000000Y-146226000D03*
%TD*%
D12*
%TO.C,R8*%
X133536200Y-125175000D03*
X133536200Y-126825000D03*
%TD*%
D13*
%TO.C,R6*%
X149175000Y-141580200D03*
X150825000Y-141580200D03*
%TD*%
D23*
%TO.C,U6*%
X156572400Y-118924600D03*
X156572400Y-120194600D03*
X156572400Y-121464600D03*
X156572400Y-122734600D03*
X156572400Y-124004600D03*
X156572400Y-125274600D03*
X156572400Y-126544600D03*
X161500000Y-126544600D03*
X161500000Y-125274600D03*
X161500000Y-124004600D03*
X161500000Y-122734600D03*
X161500000Y-121464600D03*
X161500000Y-120194600D03*
X161500000Y-118924600D03*
%TD*%
D16*
%TO.C,R25*%
X165036200Y-130384600D03*
X165036200Y-128734600D03*
%TD*%
D11*
%TO.C,C10*%
X154500000Y-121679600D03*
X154500000Y-123229600D03*
%TD*%
D25*
%TO.C,D7*%
X134354200Y-137580200D03*
X130645800Y-137580200D03*
%TD*%
D12*
%TO.C,R3*%
X136500000Y-137255200D03*
X136500000Y-138905200D03*
%TD*%
D20*
%TO.C,C8*%
X142725000Y-122000000D03*
X144275000Y-122000000D03*
%TD*%
D12*
%TO.C,R23*%
X163536200Y-121409600D03*
X163536200Y-123059600D03*
%TD*%
D13*
%TO.C,R10*%
X133675000Y-134580200D03*
X135325000Y-134580200D03*
%TD*%
D26*
%TO.C,U1*%
X161337500Y-138642500D03*
X162287501Y-138642500D03*
X163237502Y-138642500D03*
X163237502Y-136089800D03*
X161337500Y-136089800D03*
%TD*%
D11*
%TO.C,C7*%
X146000000Y-121725000D03*
X146000000Y-123275000D03*
%TD*%
D12*
%TO.C,R11*%
X144000000Y-123675000D03*
X144000000Y-125325000D03*
%TD*%
D24*
%TO.C,R31*%
X169987500Y-138642500D03*
X168337500Y-138642500D03*
%TD*%
D20*
%TO.C,C1*%
X164837500Y-135142500D03*
X166387500Y-135142500D03*
%TD*%
D13*
%TO.C,R5*%
X145175000Y-144080200D03*
X146825000Y-144080200D03*
%TD*%
D12*
%TO.C,R18*%
X154500000Y-124679600D03*
X154500000Y-126329600D03*
%TD*%
D13*
%TO.C,R21*%
X161711200Y-116734600D03*
X163361200Y-116734600D03*
%TD*%
D27*
%TO.C,J2*%
X163245000Y-148020000D03*
X163245000Y-147220000D03*
D28*
X163245000Y-146070000D03*
X163245000Y-145070000D03*
X163245000Y-144570000D03*
X163245000Y-143570000D03*
D27*
X163245000Y-141620000D03*
X163245000Y-142420000D03*
D28*
X163245000Y-143070000D03*
X163245000Y-144070000D03*
X163245000Y-145570000D03*
X163245000Y-146570000D03*
%TD*%
D17*
%TO.C,D5*%
X141585001Y-139000000D03*
X143414999Y-139000000D03*
X142500000Y-137160400D03*
%TD*%
D16*
%TO.C,R28*%
X165036200Y-127059600D03*
X165036200Y-125409600D03*
%TD*%
%TO.C,R16*%
X153000000Y-120504600D03*
X153000000Y-118854600D03*
%TD*%
D11*
%TO.C,C9*%
X142500000Y-123725000D03*
X142500000Y-125275000D03*
%TD*%
D16*
%TO.C,R12*%
X146000000Y-126325000D03*
X146000000Y-124675000D03*
%TD*%
D20*
%TO.C,C5*%
X135261200Y-128000000D03*
X136811200Y-128000000D03*
%TD*%
D10*
%TO.C,C11*%
X153000000Y-126729600D03*
X153000000Y-125179600D03*
%TD*%
D17*
%TO.C,D4*%
X138085001Y-139000000D03*
X139914999Y-139000000D03*
X139000000Y-137160400D03*
%TD*%
D10*
%TO.C,C15*%
X163536200Y-129334600D03*
X163536200Y-127784600D03*
%TD*%
D13*
%TO.C,R9*%
X138211200Y-128000000D03*
X139861200Y-128000000D03*
%TD*%
M02*
