%TF.GenerationSoftware,KiCad,Pcbnew,9.0.7*%
%TF.CreationDate,2026-04-09T16:30:32+03:00*%
%TF.ProjectId,PCB,5043422e-6b69-4636-9164-5f7063625858,rev?*%
%TF.SameCoordinates,Original*%
%TF.FileFunction,Legend,Bot*%
%TF.FilePolarity,Positive*%
%FSLAX46Y46*%
G04 Gerber Fmt 4.6, Leading zero omitted, Abs format (unit mm)*
G04 Created by KiCad (PCBNEW 9.0.7) date 2026-04-09 16:30:32*
%MOMM*%
%LPD*%
G01*
G04 APERTURE LIST*
%ADD10C,0.125000*%
G04 APERTURE END LIST*
D10*
X158846335Y-146627421D02*
X158703478Y-146675040D01*
X158703478Y-146675040D02*
X158655859Y-146722659D01*
X158655859Y-146722659D02*
X158608240Y-146817897D01*
X158608240Y-146817897D02*
X158608240Y-146960754D01*
X158608240Y-146960754D02*
X158655859Y-147055992D01*
X158655859Y-147055992D02*
X158703478Y-147103612D01*
X158703478Y-147103612D02*
X158798716Y-147151231D01*
X158798716Y-147151231D02*
X159179668Y-147151231D01*
X159179668Y-147151231D02*
X159179668Y-146151231D01*
X159179668Y-146151231D02*
X158846335Y-146151231D01*
X158846335Y-146151231D02*
X158751097Y-146198850D01*
X158751097Y-146198850D02*
X158703478Y-146246469D01*
X158703478Y-146246469D02*
X158655859Y-146341707D01*
X158655859Y-146341707D02*
X158655859Y-146436945D01*
X158655859Y-146436945D02*
X158703478Y-146532183D01*
X158703478Y-146532183D02*
X158751097Y-146579802D01*
X158751097Y-146579802D02*
X158846335Y-146627421D01*
X158846335Y-146627421D02*
X159179668Y-146627421D01*
X158036811Y-147151231D02*
X158132049Y-147103612D01*
X158132049Y-147103612D02*
X158179668Y-147055992D01*
X158179668Y-147055992D02*
X158227287Y-146960754D01*
X158227287Y-146960754D02*
X158227287Y-146675040D01*
X158227287Y-146675040D02*
X158179668Y-146579802D01*
X158179668Y-146579802D02*
X158132049Y-146532183D01*
X158132049Y-146532183D02*
X158036811Y-146484564D01*
X158036811Y-146484564D02*
X157893954Y-146484564D01*
X157893954Y-146484564D02*
X157798716Y-146532183D01*
X157798716Y-146532183D02*
X157751097Y-146579802D01*
X157751097Y-146579802D02*
X157703478Y-146675040D01*
X157703478Y-146675040D02*
X157703478Y-146960754D01*
X157703478Y-146960754D02*
X157751097Y-147055992D01*
X157751097Y-147055992D02*
X157798716Y-147103612D01*
X157798716Y-147103612D02*
X157893954Y-147151231D01*
X157893954Y-147151231D02*
X158036811Y-147151231D01*
X157417763Y-146484564D02*
X157036811Y-146484564D01*
X157274906Y-146151231D02*
X157274906Y-147008373D01*
X157274906Y-147008373D02*
X157227287Y-147103612D01*
X157227287Y-147103612D02*
X157132049Y-147151231D01*
X157132049Y-147151231D02*
X157036811Y-147151231D01*
X156274906Y-147151231D02*
X156274906Y-146627421D01*
X156274906Y-146627421D02*
X156322525Y-146532183D01*
X156322525Y-146532183D02*
X156417763Y-146484564D01*
X156417763Y-146484564D02*
X156608239Y-146484564D01*
X156608239Y-146484564D02*
X156703477Y-146532183D01*
X156274906Y-147103612D02*
X156370144Y-147151231D01*
X156370144Y-147151231D02*
X156608239Y-147151231D01*
X156608239Y-147151231D02*
X156703477Y-147103612D01*
X156703477Y-147103612D02*
X156751096Y-147008373D01*
X156751096Y-147008373D02*
X156751096Y-146913135D01*
X156751096Y-146913135D02*
X156703477Y-146817897D01*
X156703477Y-146817897D02*
X156608239Y-146770278D01*
X156608239Y-146770278D02*
X156370144Y-146770278D01*
X156370144Y-146770278D02*
X156274906Y-146722659D01*
X155084429Y-146865516D02*
X154608239Y-146865516D01*
X155179667Y-147151231D02*
X154846334Y-146151231D01*
X154846334Y-146151231D02*
X154513001Y-147151231D01*
X154179667Y-146484564D02*
X154179667Y-147151231D01*
X154179667Y-146579802D02*
X154132048Y-146532183D01*
X154132048Y-146532183D02*
X154036810Y-146484564D01*
X154036810Y-146484564D02*
X153893953Y-146484564D01*
X153893953Y-146484564D02*
X153798715Y-146532183D01*
X153798715Y-146532183D02*
X153751096Y-146627421D01*
X153751096Y-146627421D02*
X153751096Y-147151231D01*
X152846334Y-147151231D02*
X152846334Y-146151231D01*
X152846334Y-147103612D02*
X152941572Y-147151231D01*
X152941572Y-147151231D02*
X153132048Y-147151231D01*
X153132048Y-147151231D02*
X153227286Y-147103612D01*
X153227286Y-147103612D02*
X153274905Y-147055992D01*
X153274905Y-147055992D02*
X153322524Y-146960754D01*
X153322524Y-146960754D02*
X153322524Y-146675040D01*
X153322524Y-146675040D02*
X153274905Y-146579802D01*
X153274905Y-146579802D02*
X153227286Y-146532183D01*
X153227286Y-146532183D02*
X153132048Y-146484564D01*
X153132048Y-146484564D02*
X152941572Y-146484564D01*
X152941572Y-146484564D02*
X152846334Y-146532183D01*
X152370143Y-147151231D02*
X152370143Y-146484564D01*
X152370143Y-146675040D02*
X152322524Y-146579802D01*
X152322524Y-146579802D02*
X152274905Y-146532183D01*
X152274905Y-146532183D02*
X152179667Y-146484564D01*
X152179667Y-146484564D02*
X152084429Y-146484564D01*
X151370143Y-147103612D02*
X151465381Y-147151231D01*
X151465381Y-147151231D02*
X151655857Y-147151231D01*
X151655857Y-147151231D02*
X151751095Y-147103612D01*
X151751095Y-147103612D02*
X151798714Y-147008373D01*
X151798714Y-147008373D02*
X151798714Y-146627421D01*
X151798714Y-146627421D02*
X151751095Y-146532183D01*
X151751095Y-146532183D02*
X151655857Y-146484564D01*
X151655857Y-146484564D02*
X151465381Y-146484564D01*
X151465381Y-146484564D02*
X151370143Y-146532183D01*
X151370143Y-146532183D02*
X151322524Y-146627421D01*
X151322524Y-146627421D02*
X151322524Y-146722659D01*
X151322524Y-146722659D02*
X151798714Y-146817897D01*
X150893952Y-147151231D02*
X150893952Y-146484564D01*
X150893952Y-146151231D02*
X150941571Y-146198850D01*
X150941571Y-146198850D02*
X150893952Y-146246469D01*
X150893952Y-146246469D02*
X150846333Y-146198850D01*
X150846333Y-146198850D02*
X150893952Y-146151231D01*
X150893952Y-146151231D02*
X150893952Y-146246469D01*
X158608240Y-148761175D02*
X158941573Y-148284984D01*
X159179668Y-148761175D02*
X159179668Y-147761175D01*
X159179668Y-147761175D02*
X158798716Y-147761175D01*
X158798716Y-147761175D02*
X158703478Y-147808794D01*
X158703478Y-147808794D02*
X158655859Y-147856413D01*
X158655859Y-147856413D02*
X158608240Y-147951651D01*
X158608240Y-147951651D02*
X158608240Y-148094508D01*
X158608240Y-148094508D02*
X158655859Y-148189746D01*
X158655859Y-148189746D02*
X158703478Y-148237365D01*
X158703478Y-148237365D02*
X158798716Y-148284984D01*
X158798716Y-148284984D02*
X159179668Y-148284984D01*
X157798716Y-148713556D02*
X157893954Y-148761175D01*
X157893954Y-148761175D02*
X158084430Y-148761175D01*
X158084430Y-148761175D02*
X158179668Y-148713556D01*
X158179668Y-148713556D02*
X158227287Y-148618317D01*
X158227287Y-148618317D02*
X158227287Y-148237365D01*
X158227287Y-148237365D02*
X158179668Y-148142127D01*
X158179668Y-148142127D02*
X158084430Y-148094508D01*
X158084430Y-148094508D02*
X157893954Y-148094508D01*
X157893954Y-148094508D02*
X157798716Y-148142127D01*
X157798716Y-148142127D02*
X157751097Y-148237365D01*
X157751097Y-148237365D02*
X157751097Y-148332603D01*
X157751097Y-148332603D02*
X158227287Y-148427841D01*
X157417763Y-148094508D02*
X157179668Y-148761175D01*
X157179668Y-148761175D02*
X156941573Y-148094508D01*
X155846334Y-148475460D02*
X155370144Y-148475460D01*
X155941572Y-148761175D02*
X155608239Y-147761175D01*
X155608239Y-147761175D02*
X155274906Y-148761175D01*
X158989192Y-149371119D02*
X158893954Y-149371119D01*
X158893954Y-149371119D02*
X158798716Y-149418738D01*
X158798716Y-149418738D02*
X158751097Y-149466357D01*
X158751097Y-149466357D02*
X158703478Y-149561595D01*
X158703478Y-149561595D02*
X158655859Y-149752071D01*
X158655859Y-149752071D02*
X158655859Y-149990166D01*
X158655859Y-149990166D02*
X158703478Y-150180642D01*
X158703478Y-150180642D02*
X158751097Y-150275880D01*
X158751097Y-150275880D02*
X158798716Y-150323500D01*
X158798716Y-150323500D02*
X158893954Y-150371119D01*
X158893954Y-150371119D02*
X158989192Y-150371119D01*
X158989192Y-150371119D02*
X159084430Y-150323500D01*
X159084430Y-150323500D02*
X159132049Y-150275880D01*
X159132049Y-150275880D02*
X159179668Y-150180642D01*
X159179668Y-150180642D02*
X159227287Y-149990166D01*
X159227287Y-149990166D02*
X159227287Y-149752071D01*
X159227287Y-149752071D02*
X159179668Y-149561595D01*
X159179668Y-149561595D02*
X159132049Y-149466357D01*
X159132049Y-149466357D02*
X159084430Y-149418738D01*
X159084430Y-149418738D02*
X158989192Y-149371119D01*
X157798716Y-149704452D02*
X157798716Y-150371119D01*
X158036811Y-149323500D02*
X158274906Y-150037785D01*
X158274906Y-150037785D02*
X157655859Y-150037785D01*
X156560621Y-149323500D02*
X157417763Y-150609214D01*
X156274906Y-149466357D02*
X156227287Y-149418738D01*
X156227287Y-149418738D02*
X156132049Y-149371119D01*
X156132049Y-149371119D02*
X155893954Y-149371119D01*
X155893954Y-149371119D02*
X155798716Y-149418738D01*
X155798716Y-149418738D02*
X155751097Y-149466357D01*
X155751097Y-149466357D02*
X155703478Y-149561595D01*
X155703478Y-149561595D02*
X155703478Y-149656833D01*
X155703478Y-149656833D02*
X155751097Y-149799690D01*
X155751097Y-149799690D02*
X156322525Y-150371119D01*
X156322525Y-150371119D02*
X155703478Y-150371119D01*
X155084430Y-149371119D02*
X154989192Y-149371119D01*
X154989192Y-149371119D02*
X154893954Y-149418738D01*
X154893954Y-149418738D02*
X154846335Y-149466357D01*
X154846335Y-149466357D02*
X154798716Y-149561595D01*
X154798716Y-149561595D02*
X154751097Y-149752071D01*
X154751097Y-149752071D02*
X154751097Y-149990166D01*
X154751097Y-149990166D02*
X154798716Y-150180642D01*
X154798716Y-150180642D02*
X154846335Y-150275880D01*
X154846335Y-150275880D02*
X154893954Y-150323500D01*
X154893954Y-150323500D02*
X154989192Y-150371119D01*
X154989192Y-150371119D02*
X155084430Y-150371119D01*
X155084430Y-150371119D02*
X155179668Y-150323500D01*
X155179668Y-150323500D02*
X155227287Y-150275880D01*
X155227287Y-150275880D02*
X155274906Y-150180642D01*
X155274906Y-150180642D02*
X155322525Y-149990166D01*
X155322525Y-149990166D02*
X155322525Y-149752071D01*
X155322525Y-149752071D02*
X155274906Y-149561595D01*
X155274906Y-149561595D02*
X155227287Y-149466357D01*
X155227287Y-149466357D02*
X155179668Y-149418738D01*
X155179668Y-149418738D02*
X155084430Y-149371119D01*
X154370144Y-149466357D02*
X154322525Y-149418738D01*
X154322525Y-149418738D02*
X154227287Y-149371119D01*
X154227287Y-149371119D02*
X153989192Y-149371119D01*
X153989192Y-149371119D02*
X153893954Y-149418738D01*
X153893954Y-149418738D02*
X153846335Y-149466357D01*
X153846335Y-149466357D02*
X153798716Y-149561595D01*
X153798716Y-149561595D02*
X153798716Y-149656833D01*
X153798716Y-149656833D02*
X153846335Y-149799690D01*
X153846335Y-149799690D02*
X154417763Y-150371119D01*
X154417763Y-150371119D02*
X153798716Y-150371119D01*
X152941573Y-149371119D02*
X153132049Y-149371119D01*
X153132049Y-149371119D02*
X153227287Y-149418738D01*
X153227287Y-149418738D02*
X153274906Y-149466357D01*
X153274906Y-149466357D02*
X153370144Y-149609214D01*
X153370144Y-149609214D02*
X153417763Y-149799690D01*
X153417763Y-149799690D02*
X153417763Y-150180642D01*
X153417763Y-150180642D02*
X153370144Y-150275880D01*
X153370144Y-150275880D02*
X153322525Y-150323500D01*
X153322525Y-150323500D02*
X153227287Y-150371119D01*
X153227287Y-150371119D02*
X153036811Y-150371119D01*
X153036811Y-150371119D02*
X152941573Y-150323500D01*
X152941573Y-150323500D02*
X152893954Y-150275880D01*
X152893954Y-150275880D02*
X152846335Y-150180642D01*
X152846335Y-150180642D02*
X152846335Y-149942547D01*
X152846335Y-149942547D02*
X152893954Y-149847309D01*
X152893954Y-149847309D02*
X152941573Y-149799690D01*
X152941573Y-149799690D02*
X153036811Y-149752071D01*
X153036811Y-149752071D02*
X153227287Y-149752071D01*
X153227287Y-149752071D02*
X153322525Y-149799690D01*
X153322525Y-149799690D02*
X153370144Y-149847309D01*
X153370144Y-149847309D02*
X153417763Y-149942547D01*
M02*
