M48
; DRILL file {KiCad 9.0.7} date 2026-04-09T16:31:51+0300
; FORMAT={-:-/ absolute / metric / decimal}
; #@! TF.CreationDate,2026-04-09T16:31:51+03:00
; #@! TF.GenerationSoftware,Kicad,Pcbnew,9.0.7
; #@! TF.FileFunction,Plated,1,2,PTH
FMAT,2
METRIC
; #@! TA.AperFunction,Plated,PTH,ViaDrill
T1C0.300
; #@! TA.AperFunction,Plated,PTH,ComponentDrill
T2C0.600
; #@! TA.AperFunction,Plated,PTH,ComponentDrill
T3C0.800
%
G90
G05
T1
X129.773Y-135.135
X131.0Y-123.775
X132.5Y-116.0
X134.559Y-127.774
X135.0Y-125.601
X135.984Y-133.516
X138.0Y-137.445
X138.5Y-122.0
X138.5Y-138.555
X138.642Y-130.858
X139.5Y-132.5
X139.933Y-135.433
X140.0Y-136.5
X141.0Y-125.749
X141.615Y-136.33
X142.265Y-126.127
X142.499Y-124.395
X142.945Y-128.055
X143.445Y-136.0
X143.445Y-138.0
X143.786Y-126.155
X143.87Y-124.589
X144.5Y-128.0
X144.729Y-135.771
X145.25Y-127.555
X145.5Y-140.5
X147.5Y-135.5
X148.0Y-144.5
X150.445Y-131.5
X151.5Y-130.5
X153.981Y-122.403
X155.152Y-123.974
X155.34Y-120.83
X156.5Y-117.965
X157.445Y-122.174
X158.0Y-118.465
X159.5Y-122.465
X160.0Y-126.965
X160.268Y-119.56
X161.0Y-127.965
X162.0Y-141.0
X162.5Y-120.965
X162.506Y-118.02
X164.092Y-122.292
X164.373Y-117.35
X164.441Y-120.242
X165.098Y-139.922
X165.098Y-141.078
X166.0Y-118.18
X166.0Y-119.465
X166.0Y-122.465
X167.5Y-136.0
T3
X131.0Y-119.0
X131.0Y-133.08
X134.0Y-116.5
X134.0Y-132.0
X140.5Y-134.08
X142.5Y-134.08
X144.5Y-134.08
X146.5Y-119.0
X147.5Y-134.08
X148.5Y-126.0
X149.5Y-119.0
X149.5Y-121.0
X149.5Y-123.0
X150.0Y-139.08
X150.5Y-133.0
X150.5Y-136.08
X152.0Y-139.08
X152.5Y-136.08
X153.5Y-142.08
X154.0Y-139.08
X154.5Y-136.08
X157.0Y-142.0
X157.5Y-136.08
X159.536Y-129.56
X167.536Y-117.5
X167.536Y-119.5
X167.536Y-121.5
X167.536Y-125.0
X168.0Y-132.5
X168.838Y-136.142
T2
G00X163.27Y-140.5
M15
G01X164.37Y-140.5
M16
G05
G00X163.27Y-149.14
M15
G01X164.37Y-149.14
M16
G05
G00X167.6Y-140.5
M15
G01X168.4Y-140.5
M16
G05
G00X167.6Y-149.14
M15
G01X168.4Y-149.14
M16
G05
M30
